%FSTAX25Y25*%
%MOMM*%
%SFA1B1*%

%IPPOS*%
%ADD21C,0.100000*%
%LNldo_test_mechanical_13-1*%
%LPD*%
G54D21*
X7239998Y5361896D02*
X7459997D01*
X7239998Y5216898D02*
X7459997D01*
X7239998D02*
Y5361896D01*
X7459997Y5216898D02*
Y5361896D01*
X10833999Y4814999D02*
X10978997D01*
X10833999Y5034998D02*
X10978997D01*
X10833999Y4814999D02*
Y5034998D01*
X10978997Y4814999D02*
Y5034998D01*
X11245598Y4527499D02*
Y4672497D01*
X114656Y4527499D02*
Y4672497D01*
X11245598D02*
X114656D01*
X11245598Y4527499D02*
X114656D01*
X4384997Y4622497D02*
Y4767498D01*
X4164998Y4622497D02*
Y4767498D01*
Y4622497D02*
X4384997D01*
X4164998Y4767498D02*
X4384997D01*
X8409998Y4547496D02*
Y4692497D01*
X8189998Y4547496D02*
Y4692497D01*
Y4547496D02*
X8409998D01*
X8189998Y4692497D02*
X8409998D01*
X6657497Y4639998D02*
X6802498D01*
X6657497Y4859997D02*
X6802498D01*
X6657497Y4639998D02*
Y4859997D01*
X6802498Y4639998D02*
Y4859997D01*
X6264998Y4631499D02*
Y4776497D01*
X6044999Y4631499D02*
Y4776497D01*
Y4631499D02*
X6264998D01*
X6044999Y4776497D02*
X6264998D01*
X12014997Y4527499D02*
X12354999D01*
X12014997Y5172499D02*
X12354999D01*
X12014997Y4527499D02*
Y5172499D01*
X12354999Y4527499D02*
Y5172499D01*
X16627497Y5989998D02*
X16772498D01*
X16627497Y6209997D02*
X16772498D01*
X16627497Y5989998D02*
Y6209997D01*
X16772498Y5989998D02*
Y6209997D01*
X1626Y5927498D02*
Y6072499D01*
X16039998Y5927498D02*
Y6072499D01*
Y5927498D02*
X1626D01*
X16039998Y6072499D02*
X1626D01*
X12109998Y5927498D02*
Y6072499D01*
X11889999Y5927498D02*
Y6072499D01*
Y5927498D02*
X12109998D01*
X11889999Y6072499D02*
X12109998D01*
X12377498Y5989998D02*
X12522499D01*
X12377498Y6209997D02*
X12522499D01*
X12377498Y5989998D02*
Y6209997D01*
X12522499Y5989998D02*
Y6209997D01*
X1356Y5927498D02*
Y6072499D01*
X13339998Y5927498D02*
Y6072499D01*
Y5927498D02*
X1356D01*
X13339998Y6072499D02*
X1356D01*
X13827498Y5939998D02*
X13972499D01*
X13827498Y6159997D02*
X13972499D01*
X13827498Y5939998D02*
Y6159997D01*
X13972499Y5939998D02*
Y6159997D01*
X1491Y5927498D02*
Y6072499D01*
X14689998Y5927498D02*
Y6072499D01*
Y5927498D02*
X1491D01*
X14689998Y6072499D02*
X1491D01*
X15127498Y5989998D02*
X15272499D01*
X15127498Y6209997D02*
X15272499D01*
X15127498Y5989998D02*
Y6209997D01*
X15272499Y5989998D02*
Y6209997D01*
X10659999Y5952497D02*
Y6097498D01*
X10439999Y5952497D02*
Y6097498D01*
Y5952497D02*
X10659999D01*
X10439999Y6097498D02*
X10659999D01*
X10927496Y5989998D02*
X11072497D01*
X10927496Y6209997D02*
X11072497D01*
X10927496Y5989998D02*
Y6209997D01*
X11072497Y5989998D02*
Y6209997D01*
X9359999Y5927498D02*
Y6072499D01*
X9139999Y5927498D02*
Y6072499D01*
Y5927498D02*
X9359999D01*
X9139999Y6072499D02*
X9359999D01*
X9577499Y5989998D02*
X9722497D01*
X9577499Y6209997D02*
X9722497D01*
X9577499Y5989998D02*
Y6209997D01*
X9722497Y5989998D02*
Y6209997D01*
X8327496Y5989998D02*
X8472497D01*
X8327496Y6209997D02*
X8472497D01*
X8327496Y5989998D02*
Y6209997D01*
X8472497Y5989998D02*
Y6209997D01*
X8109999Y5927498D02*
Y6072499D01*
X7889999Y5927498D02*
Y6072499D01*
Y5927498D02*
X8109999D01*
X7889999Y6072499D02*
X8109999D01*
X7027496Y6084897D02*
X7172497D01*
X7027496Y6304899D02*
X7172497D01*
X7027496Y6084897D02*
Y6304899D01*
X7172497Y6084897D02*
Y6304899D01*
X6809999Y5982497D02*
Y6127498D01*
X6589999Y5982497D02*
Y6127498D01*
Y5982497D02*
X6809999D01*
X6589999Y6127498D02*
X6809999D01*
X5727499Y6039998D02*
X5872497D01*
X5727499Y6259997D02*
X5872497D01*
X5727499Y6039998D02*
Y6259997D01*
X5872497Y6039998D02*
Y6259997D01*
X5509999Y5927498D02*
Y6072499D01*
X5289999Y5927498D02*
Y6072499D01*
Y5927498D02*
X5509999D01*
X5289999Y6072499D02*
X5509999D01*
X4427496Y6039998D02*
X4572497D01*
X4427496Y6259997D02*
X4572497D01*
X4427496Y6039998D02*
Y6259997D01*
X4572497Y6039998D02*
Y6259997D01*
X4209999Y5977498D02*
Y6122499D01*
X3989999Y5977498D02*
Y6122499D01*
Y5977498D02*
X4209999D01*
X3989999Y6122499D02*
X4209999D01*
X1631Y7402499D02*
Y7547498D01*
X16089998Y7402499D02*
Y7547498D01*
Y7402499D02*
X1631D01*
X16089998Y7547498D02*
X1631D01*
X16627497Y7439997D02*
X16772498D01*
X16627497Y7659999D02*
X16772498D01*
X16627497Y7439997D02*
Y7659999D01*
X16772498Y7439997D02*
Y7659999D01*
X15127498Y7489997D02*
X15272499D01*
X15127498Y7709999D02*
X15272499D01*
X15127498Y7489997D02*
Y7709999D01*
X15272499Y7489997D02*
Y7709999D01*
X14934999Y7477498D02*
Y7622499D01*
X14714997Y7477498D02*
Y7622499D01*
Y7477498D02*
X14934999D01*
X14714997Y7622499D02*
X14934999D01*
X1356Y7427498D02*
Y7572499D01*
X13339998Y7427498D02*
Y7572499D01*
Y7427498D02*
X1356D01*
X13339998Y7572499D02*
X1356D01*
X13827498Y7439997D02*
X13972499D01*
X13827498Y7659999D02*
X13972499D01*
X13827498Y7439997D02*
Y7659999D01*
X13972499Y7439997D02*
Y7659999D01*
X12377498Y7489997D02*
X12522499D01*
X12377498Y7709999D02*
X12522499D01*
X12377498Y7489997D02*
Y7709999D01*
X12522499Y7489997D02*
Y7709999D01*
X12084999Y7427498D02*
Y7572499D01*
X11864997Y7427498D02*
Y7572499D01*
Y7427498D02*
X12084999D01*
X11864997Y7572499D02*
X12084999D01*
X10927499Y7489997D02*
X11072497D01*
X10927499Y7709999D02*
X11072497D01*
X10927499Y7489997D02*
Y7709999D01*
X11072497Y7489997D02*
Y7709999D01*
X10689998Y7427498D02*
Y7572499D01*
X10469999Y7427498D02*
Y7572499D01*
Y7427498D02*
X10689998D01*
X10469999Y7572499D02*
X10689998D01*
X9577499Y7439997D02*
X9722497D01*
X9577499Y7659999D02*
X9722497D01*
X9577499Y7439997D02*
Y7659999D01*
X9722497Y7439997D02*
Y7659999D01*
X9334997Y7402499D02*
Y7547498D01*
X9114998Y7402499D02*
Y7547498D01*
Y7402499D02*
X9334997D01*
X9114998Y7547498D02*
X9334997D01*
X8109999Y7427498D02*
Y7572499D01*
X7889999Y7427498D02*
Y7572499D01*
Y7427498D02*
X8109999D01*
X7889999Y7572499D02*
X8109999D01*
X8327496Y7489997D02*
X8472497D01*
X8327496Y7709999D02*
X8472497D01*
X8327496Y7489997D02*
Y7709999D01*
X8472497Y7489997D02*
Y7709999D01*
X7027499Y7439997D02*
X7172497D01*
X7027499Y7659999D02*
X7172497D01*
X7027499Y7439997D02*
Y7659999D01*
X7172497Y7439997D02*
Y7659999D01*
X6809999Y7427498D02*
Y7572499D01*
X6589999Y7427498D02*
Y7572499D01*
Y7427498D02*
X6809999D01*
X6589999Y7572499D02*
X6809999D01*
X5727499Y7489997D02*
X5872497D01*
X5727499Y7709999D02*
X5872497D01*
X5727499Y7489997D02*
Y7709999D01*
X5872497Y7489997D02*
Y7709999D01*
X5559999Y7427498D02*
Y7572499D01*
X5339999Y7427498D02*
Y7572499D01*
Y7427498D02*
X5559999D01*
X5339999Y7572499D02*
X5559999D01*
X4427496Y7489997D02*
X4572497D01*
X4427496Y7709999D02*
X4572497D01*
X4427496Y7489997D02*
Y7709999D01*
X4572497Y7489997D02*
Y7709999D01*
X4209999Y7477498D02*
Y7622499D01*
X3989999Y7477498D02*
Y7622499D01*
Y7477498D02*
X4209999D01*
X3989999Y7622499D02*
X4209999D01*
X1626Y8827498D02*
Y8972499D01*
X16039998Y8827498D02*
Y8972499D01*
Y8827498D02*
X1626D01*
X16039998Y8972499D02*
X1626D01*
X16627497Y8839997D02*
X16772498D01*
X16627497Y9059999D02*
X16772498D01*
X16627497Y8839997D02*
Y9059999D01*
X16772498Y8839997D02*
Y9059999D01*
X1356Y8827498D02*
Y8972499D01*
X13339998Y8827498D02*
Y8972499D01*
Y8827498D02*
X1356D01*
X13339998Y8972499D02*
X1356D01*
X13827498Y889D02*
X13972499D01*
X13827498Y9109999D02*
X13972499D01*
X13827498Y889D02*
Y9109999D01*
X13972499Y889D02*
Y9109999D01*
X1491Y8827498D02*
Y8972499D01*
X14689998Y8827498D02*
Y8972499D01*
Y8827498D02*
X1491D01*
X14689998Y8972499D02*
X1491D01*
X15127498Y889D02*
X15272499D01*
X15127498Y9109999D02*
X15272499D01*
X15127498Y889D02*
Y9109999D01*
X15272499Y889D02*
Y9109999D01*
X8109999Y8877498D02*
Y9022499D01*
X7889999Y8877498D02*
Y9022499D01*
Y8877498D02*
X8109999D01*
X7889999Y9022499D02*
X8109999D01*
X8327496Y8957497D02*
X8472497D01*
X8327496Y9177497D02*
X8472497D01*
X8327496Y8957497D02*
Y9177497D01*
X8472497Y8957497D02*
Y9177497D01*
X9359999Y8877498D02*
Y9022499D01*
X9139999Y8877498D02*
Y9022499D01*
Y8877498D02*
X9359999D01*
X9139999Y9022499D02*
X9359999D01*
X9577499Y8939999D02*
X9722497D01*
X9577499Y9159999D02*
X9722497D01*
X9577499Y8939999D02*
Y9159999D01*
X9722497Y8939999D02*
Y9159999D01*
X10659999Y8877498D02*
Y9022499D01*
X10439999Y8877498D02*
Y9022499D01*
Y8877498D02*
X10659999D01*
X10439999Y9022499D02*
X10659999D01*
X12109998Y8777498D02*
Y8922499D01*
X11889999Y8777498D02*
Y8922499D01*
Y8777498D02*
X12109998D01*
X11889999Y8922499D02*
X12109998D01*
X10927499Y889D02*
X11072497D01*
X10927499Y9109999D02*
X11072497D01*
X10927499Y889D02*
Y9109999D01*
X11072497Y889D02*
Y9109999D01*
X12377498Y8839997D02*
X12522499D01*
X12377498Y9059999D02*
X12522499D01*
X12377498Y8839997D02*
Y9059999D01*
X12522499Y8839997D02*
Y9059999D01*
X9879998Y9397499D02*
X10219999D01*
X9879998Y8752499D02*
X10219999D01*
Y9397499*
X9879998Y8752499D02*
Y9397499D01*
X7027499Y889D02*
X7172497D01*
X7027499Y9109999D02*
X7172497D01*
X7027499Y889D02*
Y9109999D01*
X7172497Y889D02*
Y9109999D01*
X6814997Y8877498D02*
Y9022499D01*
X6594998Y8877498D02*
Y9022499D01*
Y8877498D02*
X6814997D01*
X6594998Y9022499D02*
X6814997D01*
X5509999Y8827498D02*
Y8972499D01*
X5289999Y8827498D02*
Y8972499D01*
Y8827498D02*
X5509999D01*
X5289999Y8972499D02*
X5509999D01*
X4209999Y8877498D02*
Y9022499D01*
X3989999Y8877498D02*
Y9022499D01*
Y8877498D02*
X4209999D01*
X3989999Y9022499D02*
X4209999D01*
X4427499Y8914998D02*
X4572497D01*
X4427499Y9134998D02*
X4572497D01*
X4427499Y8914998D02*
Y9134998D01*
X4572497Y8914998D02*
Y9134998D01*
X5727496Y8914998D02*
X5872497D01*
X5727496Y9134998D02*
X5872497D01*
X5727496Y8914998D02*
Y9134998D01*
X5872497Y8914998D02*
Y9134998D01*
X1631Y10427497D02*
Y10572498D01*
X16089998Y10427497D02*
Y10572498D01*
Y10427497D02*
X1631D01*
X16089998Y10572498D02*
X1631D01*
X1491Y10427497D02*
Y10572498D01*
X14689998Y10427497D02*
Y10572498D01*
Y10427497D02*
X1491D01*
X14689998Y10572498D02*
X1491D01*
X16627497Y10489999D02*
X16772498D01*
X16627497Y10709998D02*
X16772498D01*
X16627497Y10489999D02*
Y10709998D01*
X16772498Y10489999D02*
Y10709998D01*
X15127498Y10489999D02*
X15272499D01*
X15127498Y10709998D02*
X15272499D01*
X15127498Y10489999D02*
Y10709998D01*
X15272499Y10489999D02*
Y10709998D01*
X14129999Y10972497D02*
X14469999D01*
X14129999Y10327497D02*
X14469999D01*
Y10972497*
X14129999Y10327497D02*
Y10972497D01*
X13827498Y10439999D02*
X13972499D01*
X13827498Y10659999D02*
X13972499D01*
X13827498Y10439999D02*
Y10659999D01*
X13972499Y10439999D02*
Y10659999D01*
X1356Y10377497D02*
Y10522498D01*
X13339998Y10377497D02*
Y10522498D01*
Y10377497D02*
X1356D01*
X13339998Y10522498D02*
X1356D01*
X12377498Y10439999D02*
X12522499D01*
X12377498Y10659999D02*
X12522499D01*
X12377498Y10439999D02*
Y10659999D01*
X12522499Y10439999D02*
Y10659999D01*
X12109998Y10377497D02*
Y10522498D01*
X11889999Y10377497D02*
Y10522498D01*
Y10377497D02*
X12109998D01*
X11889999Y10522498D02*
X12109998D01*
X10927499Y10489999D02*
X11072497D01*
X10927499Y10709998D02*
X11072497D01*
X10927499Y10489999D02*
Y10709998D01*
X11072497Y10489999D02*
Y10709998D01*
X10659999Y10427497D02*
Y10572498D01*
X10439999Y10427497D02*
Y10572498D01*
Y10427497D02*
X10659999D01*
X10439999Y10572498D02*
X10659999D01*
X9577499Y10489999D02*
X9722497D01*
X9577499Y10709998D02*
X9722497D01*
X9577499Y10489999D02*
Y10709998D01*
X9722497Y10489999D02*
Y10709998D01*
X9359999Y10427497D02*
Y10572498D01*
X9139999Y10427497D02*
Y10572498D01*
Y10427497D02*
X9359999D01*
X9139999Y10572498D02*
X9359999D01*
X11929999Y10999998D02*
X12069998D01*
X11929999Y10699998D02*
X12069998D01*
X11929999D02*
Y10999998D01*
X12069998Y10699998D02*
Y10999998D01*
X8327496Y10489999D02*
X8472497D01*
X8327496Y10709998D02*
X8472497D01*
X8327496Y10489999D02*
Y10709998D01*
X8472497Y10489999D02*
Y10709998D01*
X8139998Y10427497D02*
Y10572498D01*
X7919999Y10427497D02*
Y10572498D01*
Y10427497D02*
X8139998D01*
X7919999Y10572498D02*
X8139998D01*
X7027499Y10489999D02*
X7172497D01*
X7027499Y10709998D02*
X7172497D01*
X7027499Y10489999D02*
Y10709998D01*
X7172497Y10489999D02*
Y10709998D01*
X6814997Y10477497D02*
Y10622498D01*
X6594998Y10477497D02*
Y10622498D01*
Y10477497D02*
X6814997D01*
X6594998Y10622498D02*
X6814997D01*
X5727499Y10489999D02*
X5872497D01*
X5727499Y10709998D02*
X5872497D01*
X5727499Y10489999D02*
Y10709998D01*
X5872497Y10489999D02*
Y10709998D01*
X5559999Y10427497D02*
Y10572498D01*
X5339999Y10427497D02*
Y10572498D01*
Y10427497D02*
X5559999D01*
X5339999Y10572498D02*
X5559999D01*
X4427496Y10514998D02*
X4572497D01*
X4427496Y10734997D02*
X4572497D01*
X4427496Y10514998D02*
Y10734997D01*
X4572497Y10514998D02*
Y10734997D01*
X4209999Y10427497D02*
Y10572498D01*
X3989999Y10427497D02*
Y10572498D01*
Y10427497D02*
X4209999D01*
X3989999Y10572498D02*
X4209999D01*
X6029998Y10972497D02*
X6369999D01*
X6029998Y10327497D02*
X6369999D01*
Y10972497*
X6029998Y10327497D02*
Y10972497D01*
X5354998Y10999998D02*
X5494997D01*
X5354998Y10699998D02*
X5494997D01*
X5354998D02*
Y10999998D01*
X5494997Y10699998D02*
Y10999998D01*
X4729998Y10972497D02*
X5069997D01*
X4729998Y10327497D02*
X5069997D01*
Y10972497*
X4729998Y10327497D02*
Y10972497D01*
X16627497Y11834997D02*
X16772498D01*
X16627497Y12054997D02*
X16772498D01*
X16627497Y11834997D02*
Y12054997D01*
X16772498Y11834997D02*
Y12054997D01*
X16292197Y11797497D02*
Y11942498D01*
X16072197Y11797497D02*
Y11942498D01*
Y11797497D02*
X16292197D01*
X16072197Y11942498D02*
X16292197D01*
X15127498Y11834997D02*
X15272499D01*
X15127498Y12054997D02*
X15272499D01*
X15127498Y11834997D02*
Y12054997D01*
X15272499Y11834997D02*
Y12054997D01*
X1491Y11797497D02*
Y11942498D01*
X14689998Y11797497D02*
Y11942498D01*
Y11797497D02*
X1491D01*
X14689998Y11942498D02*
X1491D01*
X16979999Y12367498D02*
X17319998D01*
X16979999Y11722498D02*
X17319998D01*
Y12367498*
X16979999Y11722498D02*
Y12367498D01*
X16112197Y12410498D02*
X16252197D01*
X16112197Y12110499D02*
X16252197D01*
X16112197D02*
Y12410498D01*
X16252197Y12110499D02*
Y12410498D01*
X14729998D02*
X14869998D01*
X14729998Y12110499D02*
X14869998D01*
X14729998D02*
Y12410498D01*
X14869998Y12110499D02*
Y12410498D01*
X15485597Y12354399D02*
X15825599D01*
X15485597Y117094D02*
X15825599D01*
Y12354399*
X15485597Y117094D02*
Y12354399D01*
X13827498Y11862498D02*
X13972499D01*
X13827498Y12082498D02*
X13972499D01*
X13827498Y11862498D02*
Y12082498D01*
X13972499Y11862498D02*
Y12082498D01*
X9359999Y11777499D02*
Y11922498D01*
X9139999Y11777499D02*
Y11922498D01*
Y11777499D02*
X9359999D01*
X9139999Y11922498D02*
X9359999D01*
X14129999Y12344999D02*
X14469999D01*
X14129999Y11699999D02*
X14469999D01*
Y12344999*
X14129999Y11699999D02*
Y12344999D01*
X1356Y11799996D02*
Y11944997D01*
X13339998Y11799996D02*
Y11944997D01*
Y11799996D02*
X1356D01*
X13339998Y11944997D02*
X1356D01*
X12377498Y11812498D02*
X12522499D01*
X12377498Y12032498D02*
X12522499D01*
X12377498Y11812498D02*
Y12032498D01*
X12522499Y11812498D02*
Y12032498D01*
X12723497Y12331898D02*
X13063496D01*
X12723497Y11686898D02*
X13063496D01*
Y12331898*
X12723497Y11686898D02*
Y12331898D01*
X10479999Y12364999D02*
X10619999D01*
X10479999Y12065D02*
X10619999D01*
X10479999D02*
Y12364999D01*
X10619999Y12065D02*
Y12364999D01*
X12084999Y11774998D02*
Y11919999D01*
X11864997Y11774998D02*
Y11919999D01*
Y11774998D02*
X12084999D01*
X11864997Y11919999D02*
X12084999D01*
X11279997Y12322497D02*
X11619999D01*
X11279997Y11677497D02*
X11619999D01*
Y12322497*
X11279997Y11677497D02*
Y12322497D01*
X9879998D02*
X10219999D01*
X9879998Y11677497D02*
X10219999D01*
Y12322497*
X9879998Y11677497D02*
Y12322497D01*
X9179999Y12349998D02*
X9319999D01*
X9179999Y12049998D02*
X9319999D01*
X9179999D02*
Y12349998D01*
X9319999Y12049998D02*
Y12349998D01*
X7929999Y12374999D02*
X8069999D01*
X7929999Y12074999D02*
X8069999D01*
X7929999D02*
Y12374999D01*
X8069999Y12074999D02*
Y12374999D01*
X8579998Y12322497D02*
X8919999D01*
X8579998Y11677497D02*
X8919999D01*
Y12322497*
X8579998Y11677497D02*
Y12322497D01*
X7329998D02*
X7669999D01*
X7329998Y11677497D02*
X7669999D01*
Y12322497*
X7329998Y11677497D02*
Y12322497D01*
X6029998D02*
X6369999D01*
X6029998Y11677497D02*
X6369999D01*
Y12322497*
X6029998Y11677497D02*
Y12322497D01*
X5354998Y12374999D02*
X5494997D01*
X5354998Y12074999D02*
X5494997D01*
X5354998D02*
Y12374999D01*
X5494997Y12074999D02*
Y12374999D01*
X4029999Y12364999D02*
X4169999D01*
X4029999Y12065D02*
X4169999D01*
X4029999D02*
Y12364999D01*
X4169999Y12065D02*
Y12364999D01*
X4729998Y12322497D02*
X5069997D01*
X4729998Y11677497D02*
X5069997D01*
Y12322497*
X4729998Y11677497D02*
Y12322497D01*
X10927496Y11839999D02*
X11072497D01*
X10927496Y12059998D02*
X11072497D01*
X10927496Y11839999D02*
Y12059998D01*
X11072497Y11839999D02*
Y12059998D01*
X10659999Y11777499D02*
Y11922498D01*
X10439999Y11777499D02*
Y11922498D01*
Y11777499D02*
X10659999D01*
X10439999Y11922498D02*
X10659999D01*
X9577499Y11815D02*
X9722497D01*
X9577499Y12034997D02*
X9722497D01*
X9577499Y11815D02*
Y12034997D01*
X9722497Y11815D02*
Y12034997D01*
X7939999Y11944997D02*
X8159998D01*
X7939999Y11799996D02*
X8159998D01*
X7939999D02*
Y11944997D01*
X8159998Y11799996D02*
Y11944997D01*
X6614998Y11922498D02*
X6834997D01*
X6614998Y11777499D02*
X6834997D01*
X6614998D02*
Y11922498D01*
X6834997Y11777499D02*
Y11922498D01*
X7172497Y11839999D02*
Y12059998D01*
X7027496Y11839999D02*
Y12059998D01*
X7172497*
X7027496Y11839999D02*
X7172497D01*
X8472497Y11837499D02*
Y12057499D01*
X8327496Y11837499D02*
Y12057499D01*
X8472497*
X8327496Y11837499D02*
X8472497D01*
X4319998Y4894996D02*
Y5194998D01*
X4179999Y4894996D02*
Y5194998D01*
Y4894996D02*
X4319998D01*
X4179999Y5194998D02*
X4319998D01*
X6769999Y12074999D02*
Y12374999D01*
X6629999Y12074999D02*
Y12374999D01*
Y12074999D02*
X6769999D01*
X6629999Y12374999D02*
X6769999D01*
X5872497Y11839999D02*
Y12059998D01*
X5727496Y11839999D02*
Y12059998D01*
X5872497*
X5727496Y11839999D02*
X5872497D01*
X5339999Y11944997D02*
X5559999D01*
X5339999Y11799999D02*
X5559999D01*
X5339999D02*
Y11944997D01*
X5559999Y11799999D02*
Y11944997D01*
X3989999Y11970799D02*
X4209996D01*
X3989999Y11825798D02*
X4209996D01*
X3989999D02*
Y11970799D01*
X4209996Y11825798D02*
Y11970799D01*
X4572497Y11889999D02*
Y12109998D01*
X4427496Y11889999D02*
Y12109998D01*
X4572497*
X4427496Y11889999D02*
X4572497D01*
X6029998Y8752499D02*
Y9397499D01*
X6369999Y8752499D02*
Y9397499D01*
X6029998Y8752499D02*
X6369999D01*
X6029998Y9397499D02*
X6369999D01*
X5494997Y9149999D02*
Y9449998D01*
X5354998Y9149999D02*
Y9449998D01*
Y9149999D02*
X5494997D01*
X5354998Y9449998D02*
X5494997D01*
X4729998Y8752499D02*
Y9397499D01*
X5069997Y8752499D02*
Y9397499D01*
X4729998Y8752499D02*
X5069997D01*
X4729998Y9397499D02*
X5069997D01*
X4169999Y9149999D02*
Y9449998D01*
X4029999Y9149999D02*
Y9449998D01*
Y9149999D02*
X4169999D01*
X4029999Y9449998D02*
X4169999D01*
X12723497Y8752499D02*
Y9397499D01*
X13063496Y8752499D02*
Y9397499D01*
X12723497Y8752499D02*
X13063496D01*
X12723497Y9397499D02*
X13063496D01*
X12069998Y9099999D02*
Y9399998D01*
X11929999Y9099999D02*
Y9399998D01*
Y9099999D02*
X12069998D01*
X11929999Y9399998D02*
X12069998D01*
X11279997Y8752499D02*
Y9397499D01*
X11619999Y8752499D02*
Y9397499D01*
X11279997Y8752499D02*
X11619999D01*
X11279997Y9397499D02*
X11619999D01*
X10619999Y9099999D02*
Y9399998D01*
X10479999Y9099999D02*
Y9399998D01*
Y9099999D02*
X10619999D01*
X10479999Y9399998D02*
X10619999D01*
X9319999Y9149999D02*
Y9449998D01*
X9179999Y9149999D02*
Y9449998D01*
Y9149999D02*
X9319999D01*
X9179999Y9449998D02*
X9319999D01*
X8579998Y8752499D02*
Y9397499D01*
X8919999Y8752499D02*
Y9397499D01*
X8579998Y8752499D02*
X8919999D01*
X8579998Y9397499D02*
X8919999D01*
X8069999Y9149999D02*
Y9449998D01*
X7929999Y9149999D02*
Y9449998D01*
Y9149999D02*
X8069999D01*
X7929999Y9449998D02*
X8069999D01*
X7329998Y8752499D02*
Y9397499D01*
X7669999Y8752499D02*
Y9397499D01*
X7329998Y8752499D02*
X7669999D01*
X7329998Y9397499D02*
X7669999D01*
X6769999Y9149999D02*
Y9449998D01*
X6629999Y9149999D02*
Y9449998D01*
Y9149999D02*
X6769999D01*
X6629999Y9449998D02*
X6769999D01*
X15485597Y8752499D02*
Y9397499D01*
X15825599Y8752499D02*
Y9397499D01*
X15485597Y8752499D02*
X15825599D01*
X15485597Y9397499D02*
X15825599D01*
X14869998Y9104998D02*
Y9404997D01*
X14729998Y9104998D02*
Y9404997D01*
Y9104998D02*
X14869998D01*
X14729998Y9404997D02*
X14869998D01*
X14129999Y8752499D02*
Y9397499D01*
X14469999Y8752499D02*
Y9397499D01*
X14129999Y8752499D02*
X14469999D01*
X14129999Y9397499D02*
X14469999D01*
X13519998Y9099999D02*
Y9399998D01*
X13379998Y9099999D02*
Y9399998D01*
Y9099999D02*
X13519998D01*
X13379998Y9399998D02*
X13519998D01*
X8579998Y7382499D02*
Y8027499D01*
X8919999Y7382499D02*
Y8027499D01*
X8579998Y7382499D02*
X8919999D01*
X8579998Y8027499D02*
X8919999D01*
X8069999Y7749999D02*
Y8049999D01*
X7929999Y7749999D02*
Y8049999D01*
Y7749999D02*
X8069999D01*
X7929999Y8049999D02*
X8069999D01*
X7329998Y7382499D02*
Y8027499D01*
X7669999Y7382499D02*
Y8027499D01*
X7329998Y7382499D02*
X7669999D01*
X7329998Y8027499D02*
X7669999D01*
X6769999Y7749999D02*
Y8049999D01*
X6629999Y7749999D02*
Y8049999D01*
Y7749999D02*
X6769999D01*
X6629999Y8049999D02*
X6769999D01*
X6029998Y7382499D02*
Y8027499D01*
X6369999Y7382499D02*
Y8027499D01*
X6029998Y7382499D02*
X6369999D01*
X6029998Y8027499D02*
X6369999D01*
X5494997Y7749999D02*
Y8049999D01*
X5354998Y7749999D02*
Y8049999D01*
Y7749999D02*
X5494997D01*
X5354998Y8049999D02*
X5494997D01*
X4717498Y7382499D02*
Y8027499D01*
X5057498Y7382499D02*
Y8027499D01*
X4717498Y7382499D02*
X5057498D01*
X4717498Y8027499D02*
X5057498D01*
X4169999Y7749999D02*
Y8049999D01*
X4029999Y7749999D02*
Y8049999D01*
Y7749999D02*
X4169999D01*
X4029999Y8049999D02*
X4169999D01*
X16979999Y8752499D02*
Y9397499D01*
X17319998Y8752499D02*
Y9397499D01*
X16979999Y8752499D02*
X17319998D01*
X16979999Y9397499D02*
X17319998D01*
X16252197Y9092498D02*
Y9392498D01*
X16112197Y9092498D02*
Y9392498D01*
Y9092498D02*
X16252197D01*
X16112197Y9392498D02*
X16252197D01*
X11279997Y7382499D02*
Y8027499D01*
X11619999Y7382499D02*
Y8027499D01*
X11279997Y7382499D02*
X11619999D01*
X11279997Y8027499D02*
X11619999D01*
X10619999Y7749999D02*
Y8049999D01*
X10479999Y7749999D02*
Y8049999D01*
Y7749999D02*
X10619999D01*
X10479999Y8049999D02*
X10619999D01*
X9879998Y7382499D02*
Y8027499D01*
X10219999Y7382499D02*
Y8027499D01*
X9879998Y7382499D02*
X10219999D01*
X9879998Y8027499D02*
X10219999D01*
X9319999Y7749999D02*
Y8049999D01*
X9179999Y7749999D02*
Y8049999D01*
Y7749999D02*
X9319999D01*
X9179999Y8049999D02*
X9319999D01*
X4729998Y5852497D02*
Y6497497D01*
X5069997Y5852497D02*
Y6497497D01*
X4729998Y5852497D02*
X5069997D01*
X4729998Y6497497D02*
X5069997D01*
X4169999Y6249997D02*
Y6549999D01*
X4029999Y6249997D02*
Y6549999D01*
Y6249997D02*
X4169999D01*
X4029999Y6549999D02*
X4169999D01*
X16979999Y7382499D02*
Y8027499D01*
X17319998Y7382499D02*
Y8027499D01*
X16979999Y7382499D02*
X17319998D01*
X16979999Y8027499D02*
X17319998D01*
X16252197Y7749999D02*
Y8049999D01*
X16112197Y7749999D02*
Y8049999D01*
Y7749999D02*
X16252197D01*
X16112197Y8049999D02*
X16252197D01*
X15485597Y7382499D02*
Y8027499D01*
X15825599Y7382499D02*
Y8027499D01*
X15485597Y7382499D02*
X15825599D01*
X15485597Y8027499D02*
X15825599D01*
X14869998Y7749999D02*
Y8049999D01*
X14729998Y7749999D02*
Y8049999D01*
Y7749999D02*
X14869998D01*
X14729998Y8049999D02*
X14869998D01*
X14129999Y7382499D02*
Y8027499D01*
X14469999Y7382499D02*
Y8027499D01*
X14129999Y7382499D02*
X14469999D01*
X14129999Y8027499D02*
X14469999D01*
X13519998Y7749999D02*
Y8049999D01*
X13379998Y7749999D02*
Y8049999D01*
Y7749999D02*
X13519998D01*
X13379998Y8049999D02*
X13519998D01*
X12723497Y7382499D02*
Y8027499D01*
X13063496Y7382499D02*
Y8027499D01*
X12723497Y7382499D02*
X13063496D01*
X12723497Y8027499D02*
X13063496D01*
X12069998Y7749999D02*
Y8049999D01*
X11929999Y7749999D02*
Y8049999D01*
Y7749999D02*
X12069998D01*
X11929999Y8049999D02*
X12069998D01*
X7329998Y5852497D02*
Y6497497D01*
X7669999Y5852497D02*
Y6497497D01*
X7329998Y5852497D02*
X7669999D01*
X7329998Y6497497D02*
X7669999D01*
X6769999Y6249997D02*
Y6549999D01*
X6629999Y6249997D02*
Y6549999D01*
Y6249997D02*
X6769999D01*
X6629999Y6549999D02*
X6769999D01*
X6029998Y5852497D02*
Y6497497D01*
X6369999Y5852497D02*
Y6497497D01*
X6029998Y5852497D02*
X6369999D01*
X6029998Y6497497D02*
X6369999D01*
X5494997Y6249997D02*
Y6549999D01*
X5354998Y6249997D02*
Y6549999D01*
Y6249997D02*
X5494997D01*
X5354998Y6549999D02*
X5494997D01*
X14129999Y5852497D02*
Y6497497D01*
X14469999Y5852497D02*
Y6497497D01*
X14129999Y5852497D02*
X14469999D01*
X14129999Y6497497D02*
X14469999D01*
X13519998Y6204999D02*
Y6504998D01*
X13379998Y6204999D02*
Y6504998D01*
Y6204999D02*
X13519998D01*
X13379998Y6504998D02*
X13519998D01*
X12723497Y5852497D02*
Y6497497D01*
X13063496Y5852497D02*
Y6497497D01*
X12723497Y5852497D02*
X13063496D01*
X12723497Y6497497D02*
X13063496D01*
X12069998Y6199997D02*
Y6499999D01*
X11929999Y6199997D02*
Y6499999D01*
Y6199997D02*
X12069998D01*
X11929999Y6499999D02*
X12069998D01*
X11279997Y5852497D02*
Y6497497D01*
X11619999Y5852497D02*
Y6497497D01*
X11279997Y5852497D02*
X11619999D01*
X11279997Y6497497D02*
X11619999D01*
X10619999Y6233698D02*
Y6533697D01*
X10479999Y6233698D02*
Y6533697D01*
Y6233698D02*
X10619999D01*
X10479999Y6533697D02*
X10619999D01*
X9879998Y5852497D02*
Y6497497D01*
X10219999Y5852497D02*
Y6497497D01*
X9879998Y5852497D02*
X10219999D01*
X9879998Y6497497D02*
X10219999D01*
X9319999Y6227399D02*
Y6527398D01*
X9179999Y6227399D02*
Y6527398D01*
Y6227399D02*
X9319999D01*
X9179999Y6527398D02*
X9319999D01*
X8579998Y5852497D02*
Y6497497D01*
X8919999Y5852497D02*
Y6497497D01*
X8579998Y5852497D02*
X8919999D01*
X8579998Y6497497D02*
X8919999D01*
X8069999Y6233698D02*
Y6533697D01*
X7929999Y6233698D02*
Y6533697D01*
Y6233698D02*
X8069999D01*
X7929999Y6533697D02*
X8069999D01*
X16979999Y5852497D02*
Y6497497D01*
X17319998Y5852497D02*
Y6497497D01*
X16979999Y5852497D02*
X17319998D01*
X16979999Y6497497D02*
X17319998D01*
X16252197Y6199997D02*
Y6499999D01*
X16112197Y6199997D02*
Y6499999D01*
Y6199997D02*
X16252197D01*
X16112197Y6499999D02*
X16252197D01*
X15485597Y5852497D02*
Y6497497D01*
X15825599Y5852497D02*
Y6497497D01*
X15485597Y5852497D02*
X15825599D01*
X15485597Y6497497D02*
X15825599D01*
X14869998Y6199997D02*
Y6499999D01*
X14729998Y6199997D02*
Y6499999D01*
Y6199997D02*
X14869998D01*
X14729998Y6499999D02*
X14869998D01*
X6224998Y4899997D02*
Y5199999D01*
X6084999Y4899997D02*
Y5199999D01*
Y4899997D02*
X6224998D01*
X6084999Y5199999D02*
X6224998D01*
X9029999Y4477499D02*
Y5122499D01*
X9369999Y4477499D02*
Y5122499D01*
X9029999Y4477499D02*
X9369999D01*
X9029999Y5122499D02*
X9369999D01*
X8369998Y4849997D02*
Y5149999D01*
X8229998Y4849997D02*
Y5149999D01*
Y4849997D02*
X8369998D01*
X8229998Y5149999D02*
X8369998D01*
X13519998Y12072498D02*
Y12372497D01*
X13379998Y12072498D02*
Y12372497D01*
Y12072498D02*
X13519998D01*
X13379998Y12372497D02*
X13519998D01*
X12069998Y12072498D02*
Y12372497D01*
X11929999Y12072498D02*
Y12372497D01*
Y12072498D02*
X12069998D01*
X11929999Y12372497D02*
X12069998D01*
X113756Y4849997D02*
Y5149999D01*
X11235598Y4849997D02*
Y5149999D01*
Y4849997D02*
X113756D01*
X11235598Y5149999D02*
X113756D01*
X4169999Y10699998D02*
Y10999998D01*
X4029999Y10699998D02*
Y10999998D01*
Y10699998D02*
X4169999D01*
X4029999Y10999998D02*
X4169999D01*
X8579998Y10327497D02*
Y10972497D01*
X8919999Y10327497D02*
Y10972497D01*
X8579998Y10327497D02*
X8919999D01*
X8579998Y10972497D02*
X8919999D01*
X8069999Y10699998D02*
Y10999998D01*
X7929999Y10699998D02*
Y10999998D01*
Y10699998D02*
X8069999D01*
X7929999Y10999998D02*
X8069999D01*
X7329998Y10327497D02*
Y10972497D01*
X7669999Y10327497D02*
Y10972497D01*
X7329998Y10327497D02*
X7669999D01*
X7329998Y10972497D02*
X7669999D01*
X6769999Y10699998D02*
Y10999998D01*
X6629999Y10699998D02*
Y10999998D01*
Y10699998D02*
X6769999D01*
X6629999Y10999998D02*
X6769999D01*
X11279997Y10327497D02*
Y10972497D01*
X11619999Y10327497D02*
Y10972497D01*
X11279997Y10327497D02*
X11619999D01*
X11279997Y10972497D02*
X11619999D01*
X10619999Y10699998D02*
Y10999998D01*
X10479999Y10699998D02*
Y10999998D01*
Y10699998D02*
X10619999D01*
X10479999Y10999998D02*
X10619999D01*
X9879998Y10327497D02*
Y10972497D01*
X10219999Y10327497D02*
Y10972497D01*
X9879998Y10327497D02*
X10219999D01*
X9879998Y10972497D02*
X10219999D01*
X9319999Y10699998D02*
Y10999998D01*
X9179999Y10699998D02*
Y10999998D01*
Y10699998D02*
X9319999D01*
X9179999Y10999998D02*
X9319999D01*
X13519998Y10699998D02*
Y10999998D01*
X13379998Y10699998D02*
Y10999998D01*
Y10699998D02*
X13519998D01*
X13379998Y10999998D02*
X13519998D01*
X12723497Y10327497D02*
Y10972497D01*
X13063496Y10327497D02*
Y10972497D01*
X12723497Y10327497D02*
X13063496D01*
X12723497Y10972497D02*
X13063496D01*
X16979999Y10327497D02*
Y10972497D01*
X17319998Y10327497D02*
Y10972497D01*
X16979999Y10327497D02*
X17319998D01*
X16979999Y10972497D02*
X17319998D01*
X16252197Y10699998D02*
Y10999998D01*
X16112197Y10699998D02*
Y10999998D01*
Y10699998D02*
X16252197D01*
X16112197Y10999998D02*
X16252197D01*
X15485597Y10327497D02*
Y10972497D01*
X15825599Y10327497D02*
Y10972497D01*
X15485597Y10327497D02*
X15825599D01*
X15485597Y10972497D02*
X15825599D01*
X14869998Y10699998D02*
Y10999998D01*
X14729998Y10699998D02*
Y10999998D01*
Y10699998D02*
X14869998D01*
X14729998Y10999998D02*
X14869998D01*
M02*