%FSTAX25Y25*%
%MOMM*%
%SFA1B1*%

%IPPOS*%
%ADD33C,0.127000*%
%LNldo_test_drillmap_1-1*%
%LPD*%
G54D33*
X7049998Y4582497D02*
X7149998D01*
X7099998Y4532497D02*
Y4632497D01*
X7049998Y4870881D02*
X7149998D01*
X7099998Y4820881D02*
Y4920881D01*
X7549997Y4549998D02*
X7649999D01*
X7599997Y4499998D02*
Y4599998D01*
X7549997Y4849997D02*
X7649999D01*
X7599997Y4799998D02*
Y4899997D01*
X17739997Y6106203D02*
X18059999D01*
X17899999Y5946203D02*
Y6266202D01*
X3339998Y5249999D02*
X3659997D01*
X3499998Y5089999D02*
Y5409999D01*
X17739997Y5289397D02*
X18059999D01*
X17899999Y5129397D02*
Y5449399D01*
X17739997Y12389398D02*
X18059999D01*
X17899999Y12229398D02*
Y12549398D01*
X3339998Y12349998D02*
X3659997D01*
X3499998Y12189998D02*
Y12509997D01*
X11705597Y5099999D02*
X11805599D01*
X11755597Y5049997D02*
Y5149999D01*
X4619998Y5139997D02*
X4719998D01*
X4669998Y5089997D02*
Y5189997D01*
X12534999Y4699998D02*
X12634998D01*
X12584998Y4649998D02*
Y4749998D01*
X12534999Y5024998D02*
X12634998D01*
X12584998Y4974998D02*
Y5074998D01*
X8699997Y5099999D02*
X8799997D01*
X8749997Y5049997D02*
Y5149999D01*
X6704998Y5144998D02*
X6804997D01*
X6754997Y5094998D02*
Y5194998D01*
X12399998Y6494998D02*
X12499997D01*
X12449997Y6444998D02*
Y6544998D01*
X13849997Y6494998D02*
X13949997D01*
X13899997Y6444998D02*
Y6544998D01*
X15149997Y6494998D02*
X15249999D01*
X15199997Y6444998D02*
Y6544998D01*
X16649999Y6494998D02*
X16749999D01*
X16699999Y6444998D02*
Y6544998D01*
X9599998Y6494998D02*
X9699998D01*
X9649998Y6444998D02*
Y6544998D01*
X8349998Y6494998D02*
X8449998D01*
X8399998Y6444998D02*
Y6544998D01*
X7049998Y6494998D02*
X7149998D01*
X7099998Y6444998D02*
Y6544998D01*
X5749998Y6494998D02*
X5849998D01*
X5799998Y6444998D02*
Y6544998D01*
X4449998Y6494998D02*
X4549998D01*
X4499998Y6444998D02*
Y6544998D01*
X16649999Y7999999D02*
X16749999D01*
X16699999Y7949999D02*
Y8049999D01*
X15149997Y7999999D02*
X15249999D01*
X15199997Y7949999D02*
Y8049999D01*
X13849997Y7999999D02*
X13949997D01*
X13899997Y7949999D02*
Y8049999D01*
X12399998Y7999999D02*
X12499997D01*
X12449997Y7949999D02*
Y8049999D01*
X13849997Y9349999D02*
X13949997D01*
X13899997Y9299999D02*
Y9399998D01*
X10949998Y7999999D02*
X11049998D01*
X10999998Y7949999D02*
Y8049999D01*
X9599998Y7999999D02*
X9699998D01*
X9649998Y7949999D02*
Y8049999D01*
X8349998Y7999999D02*
X8449998D01*
X8399998Y7949999D02*
Y8049999D01*
X7049998Y7999999D02*
X7149998D01*
X7099998Y7949999D02*
Y8049999D01*
X5749998Y7999999D02*
X5849998D01*
X5799998Y7949999D02*
Y8049999D01*
X4449998Y7999999D02*
X4549998D01*
X4499998Y7949999D02*
Y8049999D01*
X16649999Y9299999D02*
X16749999D01*
X16699999Y9249999D02*
Y9349999D01*
X15149997Y9344997D02*
X15249999D01*
X15199997Y9294997D02*
Y9394997D01*
X12399998Y9344997D02*
X12499997D01*
X12449997Y9294997D02*
Y9394997D01*
X10949998Y9344997D02*
X11049998D01*
X10999998Y9294997D02*
Y9394997D01*
X9599998Y9407499D02*
X9699998D01*
X9649998Y9357499D02*
Y9457499D01*
X8349998Y9407499D02*
X8449998D01*
X8399998Y9357499D02*
Y9457499D01*
X7049998Y9393199D02*
X7149998D01*
X7099998Y9343199D02*
Y9443199D01*
X4449998Y9394997D02*
X4549998D01*
X4499998Y9344997D02*
Y9444997D01*
X5749998Y9407499D02*
X5849998D01*
X5799998Y9357499D02*
Y9457499D01*
X16649999Y10957499D02*
X16749999D01*
X16699999Y10907499D02*
Y11007498D01*
X15149997Y10957499D02*
X15249999D01*
X15199997Y10907499D02*
Y11007498D01*
X13849997Y10957499D02*
X13949997D01*
X13899997Y10907499D02*
Y11007498D01*
X12399998Y10957499D02*
X12499997D01*
X12449997Y10907499D02*
Y11007498D01*
X10949998Y10957499D02*
X11049998D01*
X10999998Y10907499D02*
Y11007498D01*
X9599998Y10957499D02*
X9699998D01*
X9649998Y10907499D02*
Y11007498D01*
X8349998Y10957499D02*
X8449998D01*
X8399998Y10907499D02*
Y11007498D01*
X7049998Y10957499D02*
X7149998D01*
X7099998Y10907499D02*
Y11007498D01*
X5749998Y10957499D02*
X5849998D01*
X5799998Y10907499D02*
Y11007498D01*
X4449998Y10957499D02*
X4549998D01*
X4499998Y10907499D02*
Y11007498D01*
X16649999Y12355499D02*
X16749999D01*
X16699999Y12305499D02*
Y12405499D01*
X15149997Y12339398D02*
X15249999D01*
X15199997Y12289398D02*
Y12389398D01*
X13849997Y12316899D02*
X13949997D01*
X13899997Y12266899D02*
Y12366899D01*
X12399998Y12317498D02*
X12499997D01*
X12449997Y12267498D02*
Y12367498D01*
X9599998Y12294999D02*
X9699998D01*
X9649998Y12244999D02*
Y12344999D01*
X10949998Y12322497D02*
X11049998D01*
X10999998Y12272497D02*
Y12372497D01*
X8349998Y12322497D02*
X8449998D01*
X8399998Y12272497D02*
Y12372497D01*
X7049998Y12322497D02*
X7149998D01*
X7099998Y12272497D02*
Y12372497D01*
X5749998Y12319998D02*
X5849998D01*
X5799998Y12269998D02*
Y12369998D01*
X4449998Y12322497D02*
X4549998D01*
X4499998Y12272497D02*
Y12372497D01*
X10949998Y6494998D02*
X11049998D01*
X10999998Y6444998D02*
Y6544998D01*
X5994999Y4849997D02*
X6054999D01*
X6024999Y4819997D02*
Y4879997D01*
X8139998Y4799998D02*
X8199998D01*
X8169998Y4769998D02*
Y4829997D01*
X11011049Y4999997D02*
X11071049D01*
X11041049Y4969997D02*
Y5029997D01*
X4089999Y4849997D02*
X4149999D01*
X4119999Y4819997D02*
Y4879997D01*
X14639998Y7699999D02*
X14699998D01*
X14669998Y7669999D02*
Y7729999D01*
X13289998Y7674998D02*
X13349998D01*
X13319998Y7644998D02*
Y7704998D01*
X11839999Y7699999D02*
X11899999D01*
X11869999Y7669999D02*
Y7729999D01*
X10389999Y7674998D02*
X10449999D01*
X10419999Y7644998D02*
Y7704998D01*
X9089999Y7699999D02*
X9149999D01*
X9119999Y7669999D02*
Y7729999D01*
X7839999Y7674998D02*
X7899999D01*
X7869999Y7644998D02*
Y7704998D01*
X6539999Y7699999D02*
X6599999D01*
X6569999Y7669999D02*
Y7729999D01*
X5269999Y7699999D02*
X5329999D01*
X5299999Y7669999D02*
Y7729999D01*
X3994998Y7749999D02*
X4054998D01*
X4024998Y7719999D02*
Y7779999D01*
X3994998Y9124998D02*
X4054998D01*
X4024998Y9094998D02*
Y9154998D01*
X5269999Y9074998D02*
X5329999D01*
X5299999Y9044998D02*
Y9104998D01*
X6539999Y9149999D02*
X6599999D01*
X6569999Y9119999D02*
Y9179999D01*
X7839999Y9149999D02*
X7899999D01*
X7869999Y9119999D02*
Y9179999D01*
X9089999Y9124998D02*
X9149999D01*
X9119999Y9094998D02*
Y9154998D01*
X10389999Y9099999D02*
X10449999D01*
X10419999Y9069999D02*
Y9129999D01*
X7839999Y10649999D02*
X7899999D01*
X7869999Y10619999D02*
Y10679998D01*
X6539999Y10699998D02*
X6599999D01*
X6569999Y10669998D02*
Y10729998D01*
X5269999Y10674997D02*
X5329999D01*
X5299999Y10644997D02*
Y10704997D01*
X3939999Y10674997D02*
X3999999D01*
X3969999Y10644997D02*
Y10704997D01*
X3994998Y12074999D02*
X4054998D01*
X4024998Y12044997D02*
Y12104999D01*
X5344998Y12049998D02*
X5404998D01*
X5374998Y12019998D02*
Y12079998D01*
X6619999Y12024997D02*
X6679999D01*
X6649999Y11994997D02*
Y12054997D01*
X7924998Y12037748D02*
X7984998D01*
X7954998Y12007748D02*
Y12067748D01*
X10389999Y10674997D02*
X10449999D01*
X10419999Y10644997D02*
Y10704997D01*
X9089999Y10674997D02*
X9149999D01*
X9119999Y10644997D02*
Y10704997D01*
X9144998Y12049998D02*
X9204998D01*
X9174998Y12019998D02*
Y12079998D01*
X10444998Y12016249D02*
X10504998D01*
X10474998Y11986249D02*
Y12046249D01*
X13289998Y12049998D02*
X13349998D01*
X13319998Y12019998D02*
Y12079998D01*
X11839999Y12049998D02*
X11899999D01*
X11869999Y12019998D02*
Y12079998D01*
X14694999Y12037748D02*
X14754999D01*
X14724999Y12007748D02*
Y12067748D01*
X16019998Y12074999D02*
X16079998D01*
X16049998Y12044997D02*
Y12104999D01*
X11839999Y10649999D02*
X11899999D01*
X11869999Y10619999D02*
Y10679998D01*
X13289998Y10649999D02*
X13349998D01*
X13319998Y10619999D02*
Y10679998D01*
X14639998Y10699998D02*
X14699998D01*
X14669998Y10669998D02*
Y10729998D01*
X16019998Y10699998D02*
X16079998D01*
X16049998Y10669998D02*
Y10729998D01*
X11839999Y9049999D02*
X11899999D01*
X11869999Y9019999D02*
Y9079999D01*
X13289998Y9074998D02*
X13349998D01*
X13319998Y9044998D02*
Y9104998D01*
X14639998Y9074998D02*
X14699998D01*
X14669998Y9044998D02*
Y9104998D01*
X16022198Y9099999D02*
X160822D01*
X16052198Y9069999D02*
Y9129999D01*
X16019998Y7699999D02*
X16079998D01*
X16049998Y7669999D02*
Y7729999D01*
X16022198Y6186398D02*
X160822D01*
X16052198Y6156398D02*
Y6216398D01*
X14639998Y6202499D02*
X14699998D01*
X14669998Y6172499D02*
Y6232499D01*
X13289998Y6199997D02*
X13349998D01*
X13319998Y6169997D02*
Y6229997D01*
X11839999Y6199997D02*
X11899999D01*
X11869999Y6169997D02*
Y6229997D01*
X10369999Y6219347D02*
X10429999D01*
X10399999Y6189347D02*
Y6249349D01*
X9089999Y6216197D02*
X9149999D01*
X9119999Y6186197D02*
Y6246197D01*
X7839999Y6219347D02*
X7899999D01*
X7869999Y6189347D02*
Y6249349D01*
X6539999Y6254998D02*
X6599999D01*
X6569999Y6224998D02*
Y6284998D01*
X5264998Y6249997D02*
X5324998D01*
X5294998Y6219997D02*
Y6279997D01*
X3939999Y6224998D02*
X3999999D01*
X3969999Y6194999D02*
Y6254998D01*
M02*