%FSTAX25Y25*%
%MOMM*%
%SFA1B1*%

%IPPOS*%
%ADD10R,1.099998X1.399997*%
%ADD11R,1.399997X1.099998*%
%ADD12R,3.499993X1.399997*%
%ADD13R,1.199998X0.649999*%
%ADD14C,0.499999*%
%ADD15C,1.799996*%
%ADD16C,5.999988*%
%ADD17C,1.199998*%
%LNldo_test_copper_signal_top-1*%
%LPD*%
G36*
X18269412Y4330585D02*
X3130585D01*
Y1271941*
X17852796*
X17853296Y1270671*
X17849783Y12706436*
X17800807Y12694678*
X17754272Y12675402*
X17711326Y12649085*
X17673025Y12616373*
X17640312Y12578072*
X17613993Y12535123*
X17594719Y1248859*
X17582959Y12439611*
X17579009Y12389398*
X17582959Y12339185*
X17594719Y12290206*
X17613993Y12243673*
X17640312Y12200724*
X17673025Y12162424*
X17711326Y12129711*
X17754272Y12103394*
X17800807Y12084118*
X17849783Y1207236*
X17899999Y12068408*
X17950213Y1207236*
X17999189Y12084118*
X18045724Y12103394*
X1808867Y12129711*
X18126971Y12162424*
X18159684Y12200724*
X18186003Y12243673*
X18205279Y12290206*
X18217034Y12339185*
X18220987Y12389398*
X18217034Y12439611*
X18205279Y1248859*
X18186003Y12535123*
X18159684Y12578072*
X18126971Y12616373*
X1808867Y12649085*
X18045724Y12675402*
X17999189Y12694678*
X17950213Y12706436*
X17946702Y1270671*
X179472Y1271941*
X18269412*
Y4330585*
G37*
%LNldo_test_copper_signal_top-2*%
%LPC*%
G36*
X16699999Y12466447D02*
X16671282Y12462667D01*
X16644523Y12451582*
X16621546Y12433952*
X16603913Y12410973*
X16599941Y12401379*
X16392199*
Y12407999*
X162322*
Y12302998*
X16392199*
Y12309617*
X16599941*
X16603913Y12300023*
X16621546Y12277046*
X16644523Y12259414*
X16654117Y12255441*
Y12094999*
X16609999*
Y11957697*
Y11944997*
Y11932297*
Y11915879*
X16332197*
Y11959998*
X16303078*
Y12091494*
X16324585Y12112998*
X16392199*
Y12140498*
X16312197*
X16223124*
X16214811Y12128055*
X16211316Y12110499*
Y11968977*
X16202337Y11959998*
X161822*
X161695*
X16098078*
Y12011055*
X16107054Y12017943*
X16119878Y12034654*
X16127938Y12054113*
X16130689Y12074999*
X16127938Y12095883*
X16119878Y12115342*
X16107054Y12132056*
X16098078Y12138941*
Y12207999*
X161322*
Y12312997*
X15972198*
Y12207999*
X16006318*
Y12142317*
X15992942Y12132056*
X15980117Y12115342*
X15972058Y12095883*
X15969307Y12074999*
X15972058Y12054113*
X15980117Y12034654*
X15992942Y12017943*
X16006318Y12007679*
Y11924997*
X1600981Y11907438*
X16019754Y11892554*
X160322Y1188011*
Y11779999*
X161695*
X161822*
X161949*
X162322*
Y11869996*
X162822*
Y11779999*
X16332197*
Y11824116*
X16609999*
Y11794998*
X16675*
Y11869999*
X16725*
Y11794998*
X16789996*
Y11824116*
X16954997*
Y11762498*
X17124997*
Y11827499*
X17124885*
X17049943Y11902442*
X17035058Y11912386*
X17017499Y11915879*
X1679898*
X16789996Y1192486*
Y11944997*
Y11957697*
Y12094999*
X16745879*
Y12255441*
X1675547Y12259414*
X16778452Y12277046*
X16796082Y12300023*
X16800057Y12309617*
X16954997*
Y12262497*
X17344999*
Y12442499*
X16954997*
Y12401379*
X16800057*
X16796082Y12410973*
X16778452Y12433952*
X1675547Y12451582*
X16728714Y12462667*
X16699999Y12466447*
G37*
G36*
X15199997Y12450348D02*
X15171282Y12446566D01*
X15144523Y12435481*
X15121544Y12417851*
X15108905Y12401379*
X1501*
Y12407999*
X14849998*
Y12302998*
X1501*
Y12309617*
X15093271*
X15103914Y12283922*
X15121544Y12260945*
X15144523Y12243313*
X15154117Y1223934*
Y12094999*
X1511*
Y11957697*
X15109997Y11944997*
X1511Y11932297*
Y11915879*
X14949998*
Y11959998*
X14920879*
Y12091494*
X14942385Y12112998*
X1501*
Y12140498*
X14929998*
X14840922*
X14832609Y12128055*
X14829116Y12110499*
Y11968977*
X14820138Y11959998*
X14799998*
X14780204*
X14778047Y11962269*
X14779284Y11978566*
X14782055Y11980692*
X14794877Y11997402*
X14802939Y12016864*
X14805687Y12037748*
X14802939Y12058632*
X14794877Y12078093*
X14782055Y12094804*
X14770879Y12103379*
Y12205497*
X14767387Y12223056*
X1475744Y1223794*
X14749998Y12245385*
Y12312997*
X14589998*
Y12207999*
X14657613*
X14679117Y12186493*
Y12103379*
X14667941Y12094804*
X14655116Y12078093*
X14647059Y12058632*
X14644309Y12037748*
X14647059Y12016864*
X14655116Y11997402*
X14667941Y11980692*
X14670709Y11978566*
X14671949Y11962269*
X14669792Y11959998*
X14649998*
Y11779999*
X14787298*
X14799998*
X14812698*
X1485*
Y11869996*
X14899998*
Y11779999*
X14949998*
Y11824116*
X1511*
Y11794998*
X15175001*
Y11869999*
X15225001*
Y11794998*
X15289997*
Y11824116*
X154534*
X15460599Y11814398*
Y11749399*
X15630598*
Y11814398*
X15630484*
X1554244Y11902442*
X15527555Y11912386*
X15509999Y11915879*
X15298978*
X15289997Y1192486*
Y11944997*
Y11957697*
Y12094999*
X1524588*
Y1223934*
X15255471Y12243313*
X1527845Y12260945*
X15296083Y12283922*
X15306725Y12309617*
X15460599*
Y12249398*
X15850598*
Y12429398*
X15460599*
Y12401379*
X15291089*
X1527845Y12417851*
X15255471Y12435481*
X15228714Y12446566*
X15199997Y12450348*
G37*
G36*
X8399998Y12433447D02*
X8371283Y12429667D01*
X8344524Y12418583*
X8321545Y1240095*
X8303912Y12377973*
X8298903Y1236588*
X8209998*
Y12372497*
X8049999*
Y12267498*
X8209998*
Y12274115*
X8300976*
X8303912Y12267023*
X8321545Y12244044*
X8344524Y12226414*
X8354115Y12222441*
Y12097499*
X8309998*
Y11960199*
Y11947499*
Y11934799*
Y11918378*
X8199998*
Y11962498*
X8175879*
Y12077499*
X8209998*
Y12104997*
X8129998*
X8049999*
Y12077499*
X8084116*
Y11971479*
X8075137Y11962498*
X8049999*
X8037299*
X802088*
Y11992193*
X8024878Y11997402*
X8032937Y12016864*
X8035688Y12037748*
X8032937Y12058632*
X8024878Y12078093*
X802088Y12083303*
Y12119998*
X8017388Y12137557*
X8007441Y12152442*
X7949999Y12209884*
Y12277498*
X7789999*
Y12172497*
X7857611*
X7911246Y12118863*
X7908919Y12103229*
X7897942Y12094804*
X7885117Y12078093*
X7877058Y12058632*
X7874307Y12037748*
X7877058Y12016864*
X7885117Y11997402*
X7897942Y11980692*
X7905102Y11975198*
X7900791Y11962498*
X7899999*
Y11782498*
X8037299*
X8049999*
X8062699*
X8099999*
Y11872498*
X8149998*
Y11782498*
X8199998*
Y11826615*
X8309998*
Y11797499*
X8374997*
Y11872498*
X8424997*
Y11797499*
X8489998*
Y11826615*
X8550993*
X8583378Y1179423*
X8578519Y11782498*
X8554999*
Y11717497*
X8724999*
Y11782498*
X8724884*
X8602441Y11904941*
X8587557Y11914888*
X8569998Y11918378*
X8498979*
X8489998Y11927359*
Y11947499*
Y11960199*
Y12097499*
X8445881*
Y12222441*
X8455472Y12226414*
X8478451Y12244044*
X8496081Y12267023*
X849902Y12274115*
X8554999*
Y12217499*
X8944998*
Y12397498*
X8554999*
Y1236588*
X8501092*
X8496081Y12377973*
X8478451Y1240095*
X8455472Y12418583*
X8428713Y12429667*
X8399998Y12433447*
G37*
G36*
X7099998D02*
X7071283Y12429667D01*
X7044524Y12418583*
X7021545Y1240095*
X7003912Y12377973*
X6998903Y1236588*
X6909998*
Y12372497*
X6749999*
Y12267498*
X6909998*
Y12274115*
X7000976*
X7003912Y12267023*
X7021545Y12244044*
X7044524Y12226414*
X7054115Y12222441*
Y12099998*
X7009998*
Y11962698*
Y11949998*
Y11937298*
Y11895881*
X6875879*
Y12077499*
X6909998*
Y12104999*
X6829999*
X6749999*
Y12077499*
X6784116*
Y11939998*
X6724997*
X6712297*
X6695879*
Y11959366*
X6707055Y11967941*
X6719879Y11984654*
X6727939Y12004113*
X6730687Y12024997*
X6727939Y12045883*
X6719879Y12065342*
X6707055Y12082056*
X6695879Y12090628*
Y12144999*
X6692386Y12162556*
X6682442Y1217744*
X6649999Y12209884*
Y12277498*
X6489999*
Y12172497*
X6557611*
X6604116Y12125993*
Y12090628*
X659294Y12082056*
X6580118Y12065342*
X6572056Y12045883*
X6569308Y12024997*
X6572056Y12004113*
X6580118Y11984654*
X659294Y11967941*
X6604116Y11959366*
Y11939998*
X6574998*
Y11759999*
X6712297*
X6724997*
X6737697*
X6774997*
Y11849999*
X6824997*
Y11759999*
X6874997*
Y11804116*
X7009998*
Y11799999*
X7074999*
Y11874997*
X7124997*
Y11799999*
X7189998*
Y11804116*
X7323493*
X7333378Y1179423*
X7328519Y11782498*
X7304999*
Y11717497*
X7474999*
Y11782498*
X7474884*
X737494Y11882442*
X7360056Y11892386*
X7342499Y11895881*
X7189998*
Y11949998*
Y11962698*
Y12099998*
X7145878*
Y12222441*
X7155472Y12226414*
X7178451Y12244044*
X7196081Y12267023*
X719902Y12274115*
X7304999*
Y12217499*
X7694998*
Y12397498*
X7304999*
Y1236588*
X7201093*
X7196081Y12377973*
X7178451Y1240095*
X7155472Y12418583*
X7128713Y12429667*
X7099998Y12433447*
G37*
G36*
X5799998Y12430947D02*
X5771283Y12427165D01*
X5744524Y12416083*
X5721545Y12398451*
X5703912Y12375471*
X569994Y1236588*
X5634997*
Y12372497*
X5474997*
Y12267498*
X5634997*
Y12274115*
X569994*
X5703912Y12264524*
X5721545Y12241545*
X5744524Y12223912*
X5754118Y1221994*
Y12099998*
X5709998*
Y11962698*
Y11949998*
Y11937298*
Y11918378*
X560088*
Y12077499*
X5634997*
Y12104999*
X5554997*
X5474997*
Y12077499*
X5509117*
Y11962498*
X5449999*
X5437299*
X542088*
Y11984367*
X5432054Y11992942*
X5444878Y12009653*
X5452938Y12029114*
X5455688Y12049998*
X5452938Y12070882*
X5444878Y12090344*
X5432054Y12107054*
X542088Y12115629*
Y12144999*
X5417388Y12162556*
X5407441Y1217744*
X5374998Y12209884*
Y12277498*
X5214998*
Y12172497*
X5282613*
X532771Y121274*
X5327139Y12114113*
X5317942Y12107054*
X5305117Y12090344*
X5297058Y12070882*
X5294307Y12049998*
X5297058Y12029114*
X5305117Y12009653*
X5317942Y11992942*
X5329115Y11984367*
Y11962498*
X5299999*
Y11782498*
X5437299*
X5449999*
X5462699*
X5499999*
Y11872498*
X5549999*
Y11782498*
X5599998*
Y11826615*
X5709998*
Y11799999*
X5774999*
Y11874997*
X5824999*
Y11799999*
X5889998*
Y11826615*
X6000993*
X6033378Y1179423*
X6028519Y11782498*
X6004999*
Y11717497*
X6174999*
Y11782498*
X6174884*
X6052441Y11904941*
X6037557Y11914888*
X6019998Y11918378*
X5898979*
X5889998Y11927359*
Y11949998*
Y11962698*
Y12099998*
X5845881*
Y1221994*
X5855474Y12223912*
X5878451Y12241545*
X5896084Y12264524*
X5900056Y12274115*
X6004999*
Y12217499*
X6394998*
Y12397498*
X6004999*
Y1236588*
X5900056*
X5896084Y12375471*
X5878451Y12398451*
X5855474Y12416083*
X5828715Y12427165*
X5799998Y12430947*
G37*
G36*
X13899997Y12427846D02*
X13871282Y12424067D01*
X13844526Y12412982*
X13821544Y12395349*
X13803914Y12372373*
X1380019Y12363378*
X1366*
Y12369998*
X13499998*
Y12264999*
X1366*
Y12271616*
X13799693*
X13803914Y12261423*
X13821544Y12238446*
X13844526Y12220813*
X13854117Y12216838*
Y12122497*
X1381*
Y11985198*
Y11972498*
Y11959798*
Y11918378*
X13633363*
X1362588Y11927499*
Y12074999*
X1366*
Y121025*
X13579998*
X13499998*
Y12074999*
X13534118*
Y11962498*
X13462698*
X13449998*
X13437298*
X13365878*
Y11984367*
X13377054Y11992942*
X13389879Y12009653*
X13397941Y12029114*
X13400689Y12049998*
X13397941Y12070882*
X13389879Y12090344*
X13377054Y12107054*
X13365878Y12115629*
Y12169998*
X13399998*
Y12274999*
X13239998*
Y12169998*
X13274116*
Y12115629*
X13262942Y12107054*
X1325012Y12090344*
X13242058Y12070882*
X13239308Y12049998*
X13242058Y12029114*
X1325012Y12009653*
X13262942Y11992942*
X13274116Y11984367*
Y11927497*
X13277608Y1190994*
X13287555Y11895053*
X13299998Y11882612*
Y11782498*
X13437298*
X13449998*
X13462698*
X13499998*
Y11872498*
X13549998*
Y11782498*
X13599998*
Y11826615*
X1381*
Y11822498*
X13874998*
Y11897499*
X13924998*
Y11822498*
X13989997*
Y11826615*
X14123494*
X14133377Y11816732*
X14128518Y11804997*
X14104998*
Y11739999*
X14274998*
Y11804997*
X14274883*
X14174942Y11904941*
X14160058Y11914888*
X14142499Y11918378*
X13989997*
Y11972498*
Y11985198*
Y12122497*
X1394588*
Y12216838*
X13955471Y12220813*
X1397845Y12238446*
X13996083Y12261423*
X14000304Y12271616*
X14104998*
Y12239998*
X14494997*
Y12419998*
X14104998*
Y12363378*
X13999806*
X13996083Y12372373*
X1397845Y12395349*
X13955471Y12412982*
X13928714Y12424067*
X13899997Y12427846*
G37*
G36*
X12449997Y12428448D02*
X12421283Y12424666D01*
X12394524Y12413581*
X12371544Y12395951*
X12353914Y12372972*
X12349939Y12363378*
X12209998*
Y12369998*
X12049998*
Y12264999*
X12209998*
Y12271616*
X12349939*
X12353914Y12262022*
X12371544Y12239045*
X12394524Y12221413*
X12404117Y1221744*
Y12072498*
X12359998*
Y11935198*
Y11922498*
Y11909798*
Y11893379*
X12176597*
X12169808Y11906079*
X12172388Y1190994*
X12175878Y11927499*
Y12074999*
X12209998*
Y12102498*
X12129998*
X12049998*
Y12074999*
X12084116*
Y11946503*
X12075111Y11937499*
X12074999*
Y11847499*
Y11757499*
X12124999*
Y11801617*
X12359998*
Y11772498*
X12424999*
Y11847499*
X12474999*
Y11772498*
X12539997*
Y11801617*
X126913*
X12698498Y11791896*
Y11726898*
X12868498*
Y11791896*
X12868386*
X12780342Y1187994*
X12765455Y11889887*
X12747899Y11893379*
X12548979*
X12539997Y11902361*
Y11922498*
Y11935198*
Y12072498*
X1249588*
Y1221744*
X12505471Y12221413*
X1252845Y12239045*
X12546083Y12262022*
X12550056Y12271616*
X12698498*
Y12226899*
X13088498*
Y12406896*
X12698498*
Y12363378*
X12550056*
X12546083Y12372972*
X1252845Y12395951*
X12505471Y12413581*
X12478715Y12424666*
X12449997Y12428448*
G37*
G36*
X10999998Y12433447D02*
X10971283Y12429667D01*
X10944524Y12418583*
X10921545Y1240095*
X10903912Y12377973*
X10894763Y1235588*
X10759998*
Y12362497*
X10599999*
Y12257498*
X10759998*
Y12264115*
X10906145*
X10921545Y12244044*
X10944524Y12226414*
X10954115Y12222441*
Y12099998*
X10909998*
Y11962698*
Y11949998*
Y11937298*
Y11918378*
X10733364*
X10725878Y11927499*
Y12067499*
X10759998*
Y12094999*
X10679998*
X10599999*
Y12067499*
X10634116*
Y11950004*
X10624111Y11939998*
X10562699*
X10549999*
X10526585*
X10523593Y11952698*
X10532054Y11959191*
X10544878Y11975904*
X10552938Y11995365*
X10555688Y12016249*
X10552938Y12037133*
X10544878Y12056592*
X10532054Y12073305*
X1052088Y1208188*
Y12159998*
X10517388Y12177557*
X10507441Y12192441*
X10499999Y12199884*
Y12267498*
X10339999*
Y12162497*
X10407611*
X10429115Y12140994*
Y1208188*
X10417942Y12073305*
X10405117Y12056592*
X10397058Y12037133*
X10394307Y12016249*
X10397058Y11995365*
X10405117Y11975904*
X10417942Y11959191*
X10426402Y11952698*
X1042341Y11939998*
X10399999*
Y11759999*
X10537296*
X10549996*
X10562699*
X10599999*
Y11849999*
X10649999*
Y11759999*
X10699998*
Y11826615*
X10909998*
Y11799999*
X10974997*
Y11874997*
X11024997*
Y11799999*
X11089998*
Y11826615*
X11250993*
X11283378Y1179423*
X11278519Y11782498*
X11254999*
Y11717497*
X11424998*
Y11782498*
X11424884*
X11302443Y11904941*
X11287556Y11914888*
X1127Y11918378*
X11098979*
X11089998Y11927359*
Y11949998*
Y11962698*
Y12099998*
X1104588*
Y12222441*
X11055471Y12226414*
X11078451Y12244044*
X11093853Y12264115*
X11254999*
Y12217499*
X11644998*
Y12397498*
X11254999*
Y1235588*
X11105235*
X11096083Y12377973*
X11078451Y1240095*
X11055471Y12418583*
X11028715Y12429667*
X10999998Y12433447*
G37*
G36*
X4499998D02*
X4471283Y12429667D01*
X4444525Y12418583*
X4421545Y1240095*
X4403912Y12377973*
X4394763Y1235588*
X4309999*
Y12362497*
X4149999*
Y12257498*
X4309999*
Y12264115*
X4406145*
X4421545Y12244044*
X4444525Y12226414*
X4454116Y12222441*
Y12149998*
X4409998*
Y12012698*
Y11999998*
Y11987298*
Y11944179*
X4283364*
X4275879Y11953298*
Y12067499*
X4309999*
Y12094999*
X4229996*
X4149999*
Y12067499*
X4184116*
Y11988299*
X4112699*
X4099999*
X4087296*
X407088*
Y12009368*
X4082054Y12017943*
X4094878Y12034654*
X4102938Y12054113*
X4105689Y12074999*
X4102938Y12095883*
X4094878Y12115342*
X4082054Y12132056*
X407088Y12140631*
Y12159998*
X4067388Y12177557*
X4057441Y12192441*
X4049999Y12199884*
Y12267498*
X3889999*
Y12162497*
X3957612*
X3970263Y12149846*
X3969158Y1213299*
X3967942Y12132056*
X3955117Y12115342*
X3947058Y12095883*
X3944307Y12074999*
X3947058Y12054113*
X3955117Y12034654*
X3967942Y12017943*
X3979115Y12009368*
Y11988299*
X3949999*
Y11808299*
X4087296*
X4099996*
X4112699*
X4149999*
Y11898299*
X4199996*
Y11808299*
X4249996*
Y11852417*
X4409998*
Y11849999*
X4474999*
Y11924997*
X4524999*
Y11849999*
X4589998*
Y11852417*
X4675192*
X4733378Y1179423*
X4728519Y11782498*
X4704999*
Y11717497*
X4874999*
Y11782498*
X4874884*
X4726642Y1193074*
X4711755Y11940687*
X4694199Y11944179*
X4589998*
Y11999998*
Y12012698*
Y12149998*
X4545878*
Y12222441*
X4555472Y12226414*
X4578451Y12244044*
X4593851Y12264115*
X4704999*
Y12217499*
X5094998*
Y12397498*
X4704999*
Y1235588*
X4605235*
X4596084Y12377973*
X4578451Y1240095*
X4555472Y12418583*
X4528715Y12429667*
X4499998Y12433447*
G37*
G36*
X9649998Y12405946D02*
X9621283Y12402167D01*
X9594524Y12391082*
X9571545Y12373452*
X9553912Y12350473*
X954994Y12340879*
X9459998*
Y12347498*
X9299999*
Y12242497*
X9459998*
Y12249116*
X954994*
X9553912Y12239523*
X9571545Y12216546*
X9594524Y12198913*
X9604115Y12194941*
Y12074999*
X9559998*
Y119377*
Y11925*
Y11912297*
Y11895879*
X9433364*
X9425881Y11904997*
Y12052498*
X9459998*
Y12079998*
X9379999*
X9299999*
Y12052498*
X9334116*
Y11939998*
X9262699*
X9249999*
X9237299*
X922088*
Y11984367*
X9232054Y11992942*
X9244878Y12009653*
X925294Y12029114*
X9255688Y12049998*
X925294Y12070882*
X9244878Y12090344*
X9232054Y12107054*
X922088Y12115629*
Y12144999*
X9217388Y12162556*
X9207441Y1217744*
X9199999Y12184885*
Y12252497*
X9039999*
Y12147499*
X9107611*
X912771Y121274*
X9127139Y12114113*
X9117942Y12107054*
X9105117Y12090344*
X9097058Y12070882*
X9094309Y12049998*
X9097058Y12029114*
X9105117Y12009653*
X9117942Y11992942*
X9129115Y11984367*
Y11939998*
X9099999*
Y11759999*
X9237299*
X9249999*
X9262699*
X9299996*
Y11849999*
X9349996*
Y11759999*
X9399998*
Y11804116*
X9559998*
Y11775*
X9624997*
Y11849999*
X9674997*
Y11775*
X9739998*
Y11804116*
X9873493*
X9883378Y1179423*
X9878519Y11782498*
X9854999*
Y11717497*
X10024999*
Y11782498*
X10024884*
X992494Y11882442*
X9910056Y11892386*
X9892499Y11895879*
X9748979*
X9739998Y1190486*
Y11924997*
Y119377*
Y12074999*
X9695881*
Y12194941*
X9705472Y12198913*
X9728451Y12216546*
X9746084Y12239523*
X9750056Y12249116*
X9854999*
Y12217499*
X10244998*
Y12397498*
X9854999*
Y12340879*
X9750056*
X9746084Y12350473*
X9728451Y12373452*
X9705472Y12391082*
X9678715Y12402167*
X9649998Y12405946*
G37*
G36*
X16392199Y12217999D02*
X16337198D01*
Y12190498*
X16392199*
Y12217999*
G37*
G36*
X1501D02*
X14954999D01*
Y12190498*
X1501*
Y12217999*
G37*
G36*
X16287198D02*
X162322D01*
Y12190498*
X16287198*
Y12217999*
G37*
G36*
X14904999D02*
X14849998D01*
Y12190498*
X14904999*
Y12217999*
G37*
G36*
X6909998Y12182497D02*
X6854997D01*
Y12154999*
X6909998*
Y12182497*
G37*
G36*
X6804997D02*
X6749999D01*
Y12154999*
X6804997*
Y12182497*
G37*
G36*
X5634997D02*
X5579999D01*
Y12154999*
X5634997*
Y12182497*
G37*
G36*
X5529999D02*
X5474997D01*
Y12154999*
X5529999*
Y12182497*
G37*
G36*
X8209998D02*
X8154997D01*
Y12154997*
X8209998*
Y12182497*
G37*
G36*
X8104997D02*
X8049999D01*
Y12154997*
X8104997*
Y12182497*
G37*
G36*
X1366Y12179998D02*
X13604999D01*
Y12152497*
X1366*
Y12179998*
G37*
G36*
X13554999D02*
X13499998D01*
Y12152497*
X13554999*
Y12179998*
G37*
G36*
X12209998D02*
X12154997D01*
Y12152497*
X12209998*
Y12179998*
G37*
G36*
X12104997D02*
X12049998D01*
Y12152497*
X12104997*
Y12179998*
G37*
G36*
X10759998Y12172497D02*
X10704997D01*
Y12144999*
X10759998*
Y12172497*
G37*
G36*
X10654997D02*
X10599999D01*
Y12144999*
X10654997*
Y12172497*
G37*
G36*
X4309999D02*
X4254997D01*
Y12144999*
X4309999*
Y12172497*
G37*
G36*
X4204997D02*
X4149999D01*
Y12144999*
X4204997*
Y12172497*
G37*
G36*
X9459998Y12157499D02*
X9404997D01*
Y12129998*
X9459998*
Y12157499*
G37*
G36*
X9355D02*
X9299999D01*
Y12129998*
X9355*
Y12157499*
G37*
G36*
X3499998Y12670988D02*
X3449784Y12667035D01*
X3400808Y12655278*
X3354273Y12636002*
X3311326Y12609685*
X3273023Y12576972*
X3240313Y12538671*
X3213994Y12495725*
X319472Y1244919*
X3182962Y12400213*
X317901Y12349998*
X3182962Y12299784*
X319472Y12250808*
X3213994Y12204273*
X3240313Y12161326*
X3273023Y12123023*
X3311326Y12090313*
X3354273Y12063994*
X3400808Y1204472*
X3449784Y1203296*
X3499998Y12029008*
X3550213Y1203296*
X359919Y1204472*
X3645725Y12063994*
X3688671Y12090313*
X3726972Y12123023*
X3759685Y12161326*
X3786002Y12204273*
X3805278Y12250808*
X3817035Y12299784*
X3820988Y12349998*
X3817035Y12400213*
X3805278Y1244919*
X3786002Y12495725*
X3759685Y12538671*
X3726972Y12576972*
X3688671Y12609685*
X3645725Y12636002*
X359919Y12655278*
X3550213Y12667035*
X3499998Y12670988*
G37*
G36*
X17344999Y11827499D02*
X17174999D01*
Y11762498*
X17344999*
Y11827499*
G37*
G36*
X11949998Y12274999D02*
X11789999D01*
Y12169998*
X11854116*
Y12128596*
X11849115Y12127938*
X11829653Y12119879*
X1181294Y12107054*
X11800118Y12090344*
X11792056Y12070882*
X11789308Y12049998*
X11792056Y12029114*
X11800118Y12009653*
X1181294Y11992942*
X11829653Y11980118*
X11849115Y11972058*
X11854116Y11971401*
Y11937499*
X11824997*
Y11757499*
X11962297*
X11974997*
X11987697*
X12024997*
Y11847499*
Y11937499*
X11987697*
X11974997*
X11962297*
X11945879*
Y12024144*
X11947939Y12029114*
X11950689Y12049998*
X11947939Y12070882*
X11945879Y12075853*
Y12169998*
X11949998*
Y12274999*
G37*
G36*
X15850598Y11814398D02*
X15680598D01*
Y11749399*
X15850598*
Y11814398*
G37*
G36*
X14494997Y11804997D02*
X14324998D01*
Y11739999*
X14494997*
Y11804997*
G37*
G36*
X13088498Y11791896D02*
X12918498D01*
Y11726898*
X13088498*
Y11791896*
G37*
G36*
X11644998Y11782498D02*
X11474998D01*
Y11717497*
X11644998*
Y11782498*
G37*
G36*
X10244998D02*
X10074998D01*
Y11717497*
X10244998*
Y11782498*
G37*
G36*
X8944998D02*
X8774998D01*
Y11717497*
X8944998*
Y11782498*
G37*
G36*
X7694998D02*
X7524998D01*
Y11717497*
X7694998*
Y11782498*
G37*
G36*
X6394998D02*
X6224998D01*
Y11717497*
X6394998*
Y11782498*
G37*
G36*
X5094998D02*
X4924999D01*
Y11717497*
X5094998*
Y11782498*
G37*
G36*
X17344999Y11712498D02*
X17174999D01*
Y11647497*
X17344999*
Y11712498*
G37*
G36*
X17124997D02*
X16954997D01*
Y11647497*
X17124997*
Y11712498*
G37*
G36*
X15850598Y11699397D02*
X15680598D01*
Y11634398*
X15850598*
Y11699397*
G37*
G36*
X15630598D02*
X15460599D01*
Y11634398*
X15630598*
Y11699397*
G37*
G36*
X14494997Y11689999D02*
X14324998D01*
Y11624998*
X14494997*
Y11689999*
G37*
G36*
X14274998D02*
X14104998D01*
Y11624998*
X14274998*
Y11689999*
G37*
G36*
X13088498Y11676898D02*
X12918498D01*
Y11611899*
X13088498*
Y11676898*
G37*
G36*
X12868498D02*
X12698498D01*
Y11611899*
X12868498*
Y11676898*
G37*
G36*
X11644998Y11667497D02*
X11474998D01*
Y11602499*
X11644998*
Y11667497*
G37*
G36*
X11424998D02*
X11254999D01*
Y11602499*
X11424998*
Y11667497*
G37*
G36*
X10244998D02*
X10074998D01*
Y11602499*
X10244998*
Y11667497*
G37*
G36*
X10024999D02*
X9854999D01*
Y11602499*
X10024999*
Y11667497*
G37*
G36*
X8944998D02*
X8774998D01*
Y11602499*
X8944998*
Y11667497*
G37*
G36*
X8724999D02*
X8554999D01*
Y11602499*
X8724999*
Y11667497*
G37*
G36*
X7694998D02*
X7524998D01*
Y11602499*
X7694998*
Y11667497*
G37*
G36*
X7474999D02*
X7304999D01*
Y11602499*
X7474999*
Y11667497*
G37*
G36*
X6394998D02*
X6224998D01*
Y11602499*
X6394998*
Y11667497*
G37*
G36*
X6174999D02*
X6004999D01*
Y11602499*
X6174999*
Y11667497*
G37*
G36*
X5094998D02*
X4924999D01*
Y11602499*
X5094998*
Y11667497*
G37*
G36*
X4874999D02*
X4704999D01*
Y11602499*
X4874999*
Y11667497*
G37*
G36*
X8399998Y11068448D02*
X8371283Y11064666D01*
X8344524Y11053582*
X8321545Y11035952*
X8303912Y11012972*
X8294763Y10990879*
X8209998*
Y10997498*
X8049999*
Y10892497*
X8209998*
Y10899117*
X8306145*
X8321545Y10879046*
X8344524Y10861413*
X8354115Y1085744*
Y10749998*
X8309998*
Y10612699*
Y10599999*
Y10587299*
Y10545879*
X8179998*
Y10589999*
X815088*
Y10702498*
X8209998*
Y10729998*
X8129998*
X8049999*
Y10702498*
X8059117*
Y10598978*
X8050136Y10589999*
X8029999*
X8017296*
X7940804*
X793454Y10602699*
X7939877Y10609653*
X7947939Y10629115*
X7950687Y10649999*
X7947939Y10670882*
X7939877Y10690344*
X7927055Y10707055*
X7915879Y1071563*
Y10797499*
X7949999*
Y10902497*
X7789999*
Y10797499*
X7824116*
Y1071563*
X781294Y10707055*
X7800119Y10690344*
X7792057Y10670882*
X7789308Y10649999*
X7792057Y10629115*
X7800119Y10609653*
X781294Y10592943*
X7824264Y10584253*
X7827609Y10567438*
X7837556Y10552554*
X7879999Y10510111*
Y10409999*
X8017296*
X8029996*
X8042699*
X8079996*
Y10499999*
X8129998*
Y10409999*
X8179998*
Y10454116*
X8309998*
Y10449999*
X8374997*
Y10524998*
X8424997*
Y10449999*
X8489998*
Y10454116*
X8573493*
X8583378Y10444231*
X8578519Y10432498*
X8554999*
Y10367497*
X8724999*
Y10432498*
X8724884*
X862494Y10532442*
X8610056Y10542386*
X8592499Y10545879*
X8489998*
Y10599999*
Y10612699*
Y10749998*
X8445881*
Y1085744*
X8455472Y10861413*
X8478451Y10879046*
X8493853Y10899117*
X8554999*
Y10867499*
X8944998*
Y11047498*
X8554999*
Y10990879*
X8505233*
X8496081Y11012972*
X8478451Y11035952*
X8455472Y11053582*
X8428713Y11064666*
X8399998Y11068448*
G37*
G36*
X7099998D02*
X7071283Y11064666D01*
X7044524Y11053582*
X7021545Y11035952*
X7003912Y11012972*
X6994763Y10990879*
X6909998*
Y10997498*
X6749999*
Y10892497*
X6909998*
Y10899117*
X7006145*
X7021545Y10879046*
X7044524Y10861413*
X7054115Y1085744*
Y10749998*
X7009998*
Y10612699*
Y10599999*
X6999005Y10595879*
X6879259*
X6875879Y10599999*
Y10702498*
X6909998*
Y10729998*
X6829999*
X6749999*
Y10702498*
X6784116*
Y10639999*
X6717698*
X6704998*
X6692298*
X6640804*
X663454Y10652699*
X6639877Y10659653*
X6647939Y10679115*
X6650687Y10699998*
X6647939Y10720882*
X6639877Y10740344*
X6627055Y10757054*
X6615879Y10765629*
Y10797499*
X6649999*
Y10902497*
X6489999*
Y10797499*
X6524117*
Y10765629*
X6512941Y10757054*
X6500119Y10740344*
X6492057Y10720882*
X6489308Y10699998*
X6492057Y10679115*
X6500119Y10659653*
X6512941Y10642942*
X6524117Y10634367*
Y10609999*
X6527609Y1059244*
X6537556Y10577555*
X6554998Y1056011*
Y10459999*
X6692298*
X6704998*
X6717698*
X6754997*
Y10549999*
X6804997*
Y10459999*
X6854997*
Y10504116*
X7009998*
Y10449999*
X7074999*
Y10524998*
X7124999*
Y10449999*
X7189998*
Y10504116*
X7273493*
X7333378Y10444231*
X7328519Y10432498*
X7304999*
Y10367497*
X7474999*
Y10432498*
X7474884*
X732494Y10582442*
X7310056Y10592386*
X7292497Y10595879*
X7200993*
X7189998Y10599999*
Y10612699*
Y10749998*
X7145878*
Y1085744*
X7155472Y10861413*
X7178451Y10879046*
X7193851Y10899117*
X7304999*
Y10867499*
X7694998*
Y11047498*
X7304999*
Y10990879*
X7205235*
X7196081Y11012972*
X7178451Y11035952*
X7155472Y11053582*
X7128713Y11064666*
X7099998Y11068448*
G37*
G36*
X16699999D02*
X16671282Y11064666D01*
X16644526Y11053582*
X16621546Y11035952*
X16603913Y11012972*
X16594764Y10990879*
X16392199*
Y10997498*
X162322*
Y10892497*
X16392199*
Y10899117*
X16606144*
X16621546Y10879046*
X16644526Y10861413*
X16654117Y1085744*
Y10749998*
X16609999*
Y10612699*
Y10599999*
Y10587299*
Y10545879*
X1635808*
Y10702498*
X16392199*
Y10729998*
X16312197*
X162322*
Y10702498*
X16266317*
Y10589999*
X16199998*
X16187298*
X16099886*
X16098078Y10591802*
Y10636056*
X16107054Y10642942*
X16119878Y10659653*
X16127938Y10679115*
X16130689Y10699998*
X16127938Y10720882*
X16119878Y10740344*
X16107054Y10757054*
X16098078Y10763943*
Y10797499*
X161322*
Y10902497*
X15972198*
Y10797499*
X16006318*
Y10767319*
X15992942Y10757054*
X15980117Y10740344*
X15972058Y10720882*
X15969307Y10699998*
X15972058Y10679115*
X15980117Y10659653*
X15992942Y10642942*
X16006318Y10632678*
Y10572798*
X1600981Y10555241*
X16019754Y10540354*
X16049998Y10510111*
Y10409999*
X16187298*
X16199998*
X16212698*
X16249997*
Y10499999*
X16299997*
Y10409999*
X16349997*
Y10454116*
X16609999*
Y10449999*
X16675*
Y10524998*
X16725*
Y10449999*
X16789996*
Y10454116*
X16973494*
X16983379Y10444231*
X16978518Y10432498*
X16954997*
Y10367497*
X17124997*
Y10432498*
X17124885*
X17024941Y10532442*
X17010057Y10542386*
X16992498Y10545879*
X16789996*
Y10599999*
Y10612699*
Y10749998*
X16745879*
Y1085744*
X1675547Y10861413*
X16778452Y10879046*
X16793852Y10899117*
X16954997*
Y10867499*
X17344999*
Y11047498*
X16954997*
Y10990879*
X16805234*
X16796082Y11012972*
X16778452Y11035952*
X1675547Y11053582*
X16728714Y11064666*
X16699999Y11068448*
G37*
G36*
X15199997D02*
X15171282Y11064666D01*
X15144523Y11053582*
X15121544Y11035952*
X15103914Y11012972*
X15094762Y10990879*
X1501*
Y10997498*
X14849998*
Y10892497*
X1501*
Y10899117*
X15106144*
X15121544Y10879046*
X15144523Y10861413*
X15154117Y1085744*
Y10749998*
X1511*
Y10612699*
Y10599999*
Y10587299*
Y10545879*
X14983363*
X14975878Y10554997*
Y10702498*
X1501*
Y10729998*
X14929998*
X14849998*
Y10702498*
X14884118*
Y10589999*
X14812698*
X14799998*
X14787298*
X14715878*
Y10634367*
X14727054Y10642942*
X14739879Y10659653*
X14747941Y10679115*
X14750689Y10699998*
X14747941Y10720882*
X14739879Y10740344*
X14727054Y10757054*
X14715878Y10765629*
Y10797499*
X14749998*
Y10902497*
X14589998*
Y10797499*
X14624116*
Y10765629*
X14612942Y10757054*
X1460012Y10740344*
X14592058Y10720882*
X14589307Y10699998*
X14592058Y10679115*
X1460012Y10659653*
X14612942Y10642942*
X14624116Y10634367*
Y10554997*
X14627608Y10537441*
X14637555Y10522554*
X14649998Y10510111*
Y10409999*
X14787298*
X14799998*
X14812698*
X14849998*
Y10499999*
X14899995*
Y10409999*
X14949998*
Y10454116*
X1511*
Y10449999*
X15174998*
Y10524998*
X15224998*
Y10449999*
X15289997*
Y10454116*
X15479092*
X15488978Y10444231*
X15484119Y10432498*
X15460599*
Y10367497*
X15630598*
Y10432498*
X15630484*
X15530542Y10532442*
X15515658Y10542386*
X15498099Y10545879*
X15289997*
Y10599999*
Y10612699*
Y10749998*
X1524588*
Y1085744*
X15255471Y10861413*
X1527845Y10879046*
X15296083Y10902022*
X15300055Y10911616*
X15460599*
Y10867499*
X15850598*
Y11047498*
X15460599*
Y11003379*
X15300055*
X15296083Y11012972*
X1527845Y11035952*
X15255471Y11053582*
X15228714Y11064666*
X15199997Y11068448*
G37*
G36*
X13899997D02*
X13871282Y11064666D01*
X13844526Y11053582*
X13821544Y11035952*
X13803914Y11012972*
X13794762Y10990879*
X1366*
Y10997498*
X13499998*
Y10892497*
X1366*
Y10899117*
X13806144*
X13821544Y10879046*
X13844526Y10861413*
X13854117Y1085744*
Y10699998*
X1381*
Y10562699*
Y10549999*
Y10537299*
Y10495879*
X13633363*
X1362588Y10504998*
Y10702498*
X1366*
Y10729998*
X13579998*
X13499998*
Y10702498*
X13534118*
Y10539996*
X13462698*
X13449998Y10539999*
X13437298Y10539996*
X13365878*
Y10584367*
X13377054Y10592943*
X13389879Y10609653*
X13397941Y10629115*
X13400689Y10649999*
X13397941Y10670882*
X13389879Y10690344*
X13377054Y10707055*
X13365878Y1071563*
Y10797499*
X13399998*
Y10902497*
X13239998*
Y10797499*
X13274116*
Y1071563*
X13262942Y10707055*
X1325012Y10690344*
X13242058Y10670882*
X13239308Y10649999*
X13242058Y10629115*
X1325012Y10609653*
X13262942Y10592943*
X13274116Y10584367*
Y10504998*
X13277608Y10487439*
X13287555Y10472554*
X13299998Y10460111*
Y10359999*
X13437298*
X13449998*
X13462698*
X13499998*
Y10449999*
X13549998*
Y10359999*
X13599998*
Y10404116*
X1381*
Y10399999*
X13874998*
Y10475*
X13924998*
Y10399999*
X13989997*
Y10404116*
X14104998*
Y10367497*
X14274998*
Y10432498*
X14274883*
X14224942Y10482442*
X14210057Y10492386*
X14192498Y10495879*
X13989997*
Y10549999*
Y10562699*
Y10699998*
X1394588*
Y1085744*
X13955471Y10861413*
X1397845Y10879046*
X13993853Y10899117*
X14104998*
Y10867499*
X14494997*
Y11047498*
X14104998*
Y10990879*
X14005234*
X13996083Y11012972*
X1397845Y11035952*
X13955471Y11053582*
X13928714Y11064666*
X13899997Y11068448*
G37*
G36*
X12449997D02*
X12421283Y11064666D01*
X12394524Y11053582*
X12371544Y11035952*
X12353914Y11012972*
X12344763Y10990879*
X12209998*
Y10997498*
X12049998*
Y10892497*
X12209998*
Y10899117*
X12356144*
X12371544Y10879046*
X12394524Y10861413*
X12404117Y1085744*
Y10699998*
X12359998*
Y10562699*
Y10549999*
Y10537299*
Y10495879*
X12183364*
X12175878Y10504998*
Y10702498*
X12209998*
Y10729998*
X12129998*
X12049998*
Y10702498*
X12084116*
Y10539996*
X12012698*
X11999998Y10539999*
X11987298Y10539996*
X11915879*
Y10584367*
X11927055Y10592943*
X11939879Y10609653*
X11947939Y10629115*
X11950689Y10649999*
X11947939Y10670882*
X11939879Y10690344*
X11927055Y10707055*
X11915879Y1071563*
Y10797499*
X11949998*
Y10902497*
X11789999*
Y10797499*
X11824116*
Y1071563*
X1181294Y10707055*
X11800118Y10690344*
X11792056Y10670882*
X11789308Y10649999*
X11792056Y10629115*
X11800118Y10609653*
X1181294Y10592943*
X11824116Y10584367*
Y10504998*
X11827609Y10487439*
X11837555Y10472554*
X11849999Y10460111*
Y10359999*
X11987298*
X11999998*
X12012698*
X12049998*
Y10449999*
X12099998*
Y10359999*
X12149998*
Y10404116*
X12359998*
Y10399999*
X12424999*
Y10475*
X12474999*
Y10399999*
X12539997*
Y10404116*
X12698498*
Y10367497*
X12868498*
Y10432498*
X12868384*
X12818442Y10482442*
X12803555Y10492386*
X12785999Y10495879*
X12539997*
Y10549999*
Y10562699*
Y10699998*
X1249588*
Y1085744*
X12505471Y10861413*
X1252845Y10879046*
X12543853Y10899117*
X12698498*
Y10867499*
X13088498*
Y11047498*
X12698498*
Y10990879*
X12555235*
X12546083Y11012972*
X1252845Y11035952*
X12505471Y11053582*
X12478715Y11064666*
X12449997Y11068448*
G37*
G36*
X10999998D02*
X10971283Y11064666D01*
X10944524Y11053582*
X10921545Y11035952*
X10903912Y11012972*
X10894763Y10990879*
X10759998*
Y10997498*
X10599999*
Y10892497*
X10759998*
Y10899117*
X10906145*
X10921545Y10879046*
X10944524Y10861413*
X10954115Y1085744*
Y10749998*
X10909998*
Y10612699*
Y10599999*
Y10587299*
Y10545879*
X10733364*
X10725878Y10554997*
Y10702498*
X10759998*
Y10729998*
X10679998*
X10599999*
Y10702498*
X10634116*
Y10589999*
X10562699*
X10549999*
X10537299*
X10465879*
Y10609366*
X10477055Y10617941*
X10489877Y10634654*
X10497939Y10654113*
X10500687Y10674997*
X10497939Y10695881*
X10489877Y10715343*
X10477055Y10732056*
X10465879Y10740628*
Y10797499*
X10499999*
Y10902497*
X10339999*
Y10797499*
X10374116*
Y10740628*
X1036294Y10732056*
X10350119Y10715343*
X10342057Y10695881*
X10339308Y10674997*
X10342057Y10654113*
X10350119Y10634654*
X1036294Y10617941*
X10374116Y10609366*
Y10554997*
X10377609Y10537441*
X10387556Y10522554*
X10399999Y10510111*
Y10409999*
X10537299*
X10549999*
X10562699*
X10599996*
Y10499999*
X10649996*
Y10409999*
X10699998*
Y10454116*
X10909998*
Y10449999*
X10974999*
Y10524998*
X11024999*
Y10449999*
X11089998*
Y10454116*
X11273492*
X11283378Y10444231*
X11278519Y10432498*
X11254999*
Y10367497*
X11424998*
Y10432498*
X11424884*
X1132494Y10532442*
X11310056Y10542386*
X11292499Y10545879*
X11089998*
Y10599999*
Y10612699*
Y10749998*
X1104588*
Y1085744*
X11055471Y10861413*
X11078451Y10879046*
X11093853Y10899117*
X11254999*
Y10867499*
X11644998*
Y11047498*
X11254999*
Y10990879*
X11105235*
X11096083Y11012972*
X11078451Y11035952*
X11055471Y11053582*
X11028715Y11064666*
X10999998Y11068448*
G37*
G36*
X9649998D02*
X9621283Y11064666D01*
X9594524Y11053582*
X9571545Y11035952*
X9553912Y11012972*
X9544763Y10990879*
X9459998*
Y10997498*
X9299999*
Y10892497*
X9459998*
Y10899117*
X9556145*
X9571545Y10879046*
X9594524Y10861413*
X9604115Y1085744*
Y10749998*
X9559998*
Y10612699*
Y10599999*
Y10587299*
Y10545879*
X9433364*
X9425881Y10554997*
Y10702498*
X9459998*
Y10729998*
X9379999*
X9299999*
Y10702498*
X9334116*
Y10589996*
X9262699*
X9249999Y10589999*
X9237299Y10589996*
X9165879*
Y10609366*
X9177055Y10617941*
X9189877Y10634654*
X9197939Y10654113*
X9200687Y10674997*
X9197939Y10695881*
X9189877Y10715343*
X9177055Y10732056*
X9165879Y10740628*
Y10797499*
X9199999*
Y10902497*
X9039999*
Y10797499*
X9074116*
Y10740628*
X9062943Y10732056*
X9050119Y10715343*
X9042057Y10695881*
X9039308Y10674997*
X9042057Y10654113*
X9050119Y10634654*
X9062943Y10617941*
X9074116Y10609366*
Y10554997*
X9077609Y10537438*
X9087556Y10522554*
X9099999Y10510111*
Y10409999*
X9237299*
X9249999Y10409996*
X9262699Y10409999*
X9299999*
Y10499999*
X9349999*
Y10409999*
X9399998*
Y10454116*
X9559998*
Y10449999*
X9624997*
Y10524998*
X9674997*
Y10449999*
X9739998*
Y10454116*
X9873493*
X9883378Y10444231*
X9878519Y10432498*
X9854999*
Y10367497*
X10024999*
Y10432498*
X10024884*
X992494Y10532442*
X9910056Y10542386*
X9892499Y10545879*
X9739998*
Y10599999*
Y10612699*
Y10749998*
X9695881*
Y1085744*
X9705472Y10861413*
X9728451Y10879046*
X9743851Y10899117*
X9854999*
Y10867499*
X10244998*
Y11047498*
X9854999*
Y10990879*
X9755235*
X9746084Y11012972*
X9728451Y11035952*
X9705472Y11053582*
X9678715Y11064666*
X9649998Y11068448*
G37*
G36*
X4499998D02*
X4471283Y11064666D01*
X4444525Y11053582*
X4421545Y11035952*
X4403912Y11012972*
X4394763Y10990879*
X4309999*
Y10997498*
X4149999*
Y10892497*
X4309999*
Y10899117*
X4406145*
X4421545Y10879046*
X4444525Y10861413*
X4454116Y1085744*
Y10774997*
X4409998*
Y10637697*
Y10624997*
Y10612297*
Y10545879*
X4283364*
X4275879Y10554997*
Y10702498*
X4309999*
Y10729998*
X4229999*
X4149999*
Y10702498*
X4184116*
Y10589999*
X4112699*
X4099999*
X4087299*
X4015879*
Y10609366*
X4027055Y10617941*
X4039877Y10634654*
X4047939Y10654113*
X4050687Y10674997*
X4047939Y10695881*
X4039877Y10715343*
X4027055Y10732056*
X4015879Y10740628*
Y10797499*
X4049999*
Y10902497*
X3889999*
Y10797499*
X3924117*
Y10740628*
X3912941Y10732056*
X3900119Y10715343*
X3892057Y10695881*
X3889308Y10674997*
X3892057Y10654113*
X3900119Y10634654*
X3912941Y10617941*
X3924117Y10609366*
Y10554997*
X3927609Y10537438*
X3937556Y10522554*
X3949999Y10510111*
Y10409999*
X4087299*
X4099999*
X4112699*
X4149996*
Y10499999*
X4199996*
Y10409999*
X4249999*
Y10454116*
X4723493*
X4733378Y10444231*
X4728519Y10432498*
X4704999*
Y10367497*
X4874999*
Y10432498*
X4874884*
X477494Y10532442*
X4760056Y10542386*
X4742497Y10545879*
X4589998*
Y10612297*
Y10624997*
Y10637697*
Y10774997*
X4545878*
Y1085744*
X4555472Y10861413*
X4578451Y10879046*
X4593851Y10899117*
X4704999*
Y10867499*
X5094998*
Y11047498*
X4704999*
Y10990879*
X4605235*
X4596084Y11012972*
X4578451Y11035952*
X4555472Y11053582*
X4528715Y11064666*
X4499998Y11068448*
G37*
G36*
X5799998D02*
X5771283Y11064666D01*
X5744524Y11053582*
X5721545Y11035952*
X5703912Y11012972*
X569994Y11003379*
X5592498*
X5574941Y10999886*
X5571365Y10997498*
X5474997*
Y10892497*
X5634997*
Y10911616*
X569994*
X5703912Y10902022*
X5721545Y10879046*
X5744524Y10861413*
X5754118Y1085744*
Y10749998*
X5709998*
Y10612699*
Y10599999*
Y10587299*
Y10545879*
X560088*
Y10702498*
X5634997*
Y10729998*
X5554997*
X5474997*
Y10702498*
X5509117*
Y10589999*
X5449999*
X5437299*
X5356131*
X534845Y1059802*
X5349438Y10612097*
X5357055Y10617941*
X5369877Y10634654*
X5377939Y10654113*
X5380687Y10674997*
X5377939Y10695881*
X5369877Y10715343*
X5357055Y10732056*
X534088Y10744466*
Y10797499*
X5374998*
Y10902497*
X5214998*
Y10797499*
X5249115*
Y10736793*
X5242943Y10732056*
X5230119Y10715343*
X5222057Y10695881*
X5219308Y10674997*
X5222057Y10654113*
X5230119Y10634654*
X5242943Y10617941*
X5249115Y10613204*
Y10579999*
X525261Y1056244*
X5262554Y10547555*
X5299999Y10510111*
Y10409999*
X5437299*
X5449999*
X5462699*
X5499996*
Y10499999*
X5549996*
Y10409999*
X5599998*
Y10454116*
X5709998*
Y10449999*
X5774997*
Y10524998*
X5824997*
Y10449999*
X5889998*
Y10454116*
X6023493*
X6033378Y10444231*
X6028519Y10432498*
X6004999*
Y10367497*
X6174999*
Y10432498*
X6174884*
X607494Y10532442*
X6060056Y10542386*
X6042499Y10545879*
X5889998*
Y10599999*
Y10612699*
Y10749998*
X5845881*
Y1085744*
X5855472Y10861413*
X5878451Y10879046*
X5896084Y10902022*
X5900056Y10911616*
X6004999*
Y10867499*
X6394998*
Y11047498*
X6004999*
Y11003379*
X5900056*
X5896084Y11012972*
X5878451Y11035952*
X5855472Y11053582*
X5828715Y11064666*
X5799998Y11068448*
G37*
G36*
X9459998Y10807499D02*
X9404997D01*
Y10779998*
X9459998*
Y10807499*
G37*
G36*
X9354997D02*
X9299999D01*
Y10779998*
X9354997*
Y10807499*
G37*
G36*
X6909998D02*
X6854997D01*
Y10779998*
X6909998*
Y10807499*
G37*
G36*
X16392199D02*
X16337198D01*
Y10779998*
X16392199*
Y10807499*
G37*
G36*
X1501D02*
X14954999D01*
Y10779998*
X1501*
Y10807499*
G37*
G36*
X1366D02*
X13604999D01*
Y10779998*
X1366*
Y10807499*
G37*
G36*
X10759998D02*
X10704997D01*
Y10779998*
X10759998*
Y10807499*
G37*
G36*
X16287198D02*
X162322D01*
Y10779998*
X16287198*
Y10807499*
G37*
G36*
X14904999D02*
X14849998D01*
Y10779998*
X14904999*
Y10807499*
G37*
G36*
X13554999D02*
X13499998D01*
Y10779998*
X13554999*
Y10807499*
G37*
G36*
X10654997D02*
X10599999D01*
Y10779998*
X10654997*
Y10807499*
G37*
G36*
X6804997D02*
X6749999D01*
Y10779998*
X6804997*
Y10807499*
G37*
G36*
X5634997D02*
X5579999D01*
Y10779998*
X5634997*
Y10807499*
G37*
G36*
X4309999D02*
X4254997D01*
Y10779998*
X4309999*
Y10807499*
G37*
G36*
X4204997D02*
X4149999D01*
Y10779998*
X4204997*
Y10807499*
G37*
G36*
X5529999D02*
X5474997D01*
Y10779998*
X5529999*
Y10807499*
G37*
G36*
X8209998D02*
X8154997D01*
Y10779998*
X8209998*
Y10807499*
G37*
G36*
X12209998D02*
X12154997D01*
Y10779998*
X12209998*
Y10807499*
G37*
G36*
X12104997D02*
X12049998D01*
Y10779998*
X12104997*
Y10807499*
G37*
G36*
X8104997D02*
X8049999D01*
Y10779998*
X8104997*
Y10807499*
G37*
G36*
X17344999Y10432498D02*
X17174999D01*
Y10367497*
X17344999*
Y10432498*
G37*
G36*
X15850598D02*
X15680598D01*
Y10367497*
X15850598*
Y10432498*
G37*
G36*
X14494997D02*
X14324998D01*
Y10367497*
X14494997*
Y10432498*
G37*
G36*
X13088498D02*
X12918498D01*
Y10367497*
X13088498*
Y10432498*
G37*
G36*
X11644998D02*
X11474998D01*
Y10367497*
X11644998*
Y10432498*
G37*
G36*
X10244998D02*
X10074998D01*
Y10367497*
X10244998*
Y10432498*
G37*
G36*
X8944998D02*
X8774998D01*
Y10367497*
X8944998*
Y10432498*
G37*
G36*
X7694998D02*
X7524998D01*
Y10367497*
X7694998*
Y10432498*
G37*
G36*
X6394998D02*
X6224998D01*
Y10367497*
X6394998*
Y10432498*
G37*
G36*
X5094998D02*
X4924999D01*
Y10367497*
X5094998*
Y10432498*
G37*
G36*
X17344999Y10317497D02*
X17174999D01*
Y10252499*
X17344999*
Y10317497*
G37*
G36*
X17124997D02*
X16954997D01*
Y10252499*
X17124997*
Y10317497*
G37*
G36*
X15850598D02*
X15680598D01*
Y10252499*
X15850598*
Y10317497*
G37*
G36*
X15630598D02*
X15460599D01*
Y10252499*
X15630598*
Y10317497*
G37*
G36*
X14494997D02*
X14324998D01*
Y10252499*
X14494997*
Y10317497*
G37*
G36*
X14274998D02*
X14104998D01*
Y10252499*
X14274998*
Y10317497*
G37*
G36*
X13088498D02*
X12918498D01*
Y10252499*
X13088498*
Y10317497*
G37*
G36*
X12868498D02*
X12698498D01*
Y10252499*
X12868498*
Y10317497*
G37*
G36*
X11644998D02*
X11474998D01*
Y10252499*
X11644998*
Y10317497*
G37*
G36*
X11424998D02*
X11254999D01*
Y10252499*
X11424998*
Y10317497*
G37*
G36*
X10244998D02*
X10074998D01*
Y10252499*
X10244998*
Y10317497*
G37*
G36*
X10024999D02*
X9854999D01*
Y10252499*
X10024999*
Y10317497*
G37*
G36*
X8944998D02*
X8774998D01*
Y10252499*
X8944998*
Y10317497*
G37*
G36*
X8724999D02*
X8554999D01*
Y10252499*
X8724999*
Y10317497*
G37*
G36*
X7694998D02*
X7524998D01*
Y10252499*
X7694998*
Y10317497*
G37*
G36*
X7474999D02*
X7304999D01*
Y10252499*
X7474999*
Y10317497*
G37*
G36*
X6394998D02*
X6224998D01*
Y10252499*
X6394998*
Y10317497*
G37*
G36*
X6174999D02*
X6004999D01*
Y10252499*
X6174999*
Y10317497*
G37*
G36*
X5094998D02*
X4924999D01*
Y10252499*
X5094998*
Y10317497*
G37*
G36*
X4874999D02*
X4704999D01*
Y10252499*
X4874999*
Y10317497*
G37*
G36*
X9649998Y9518446D02*
X9621283Y9514667D01*
X9594524Y9503582*
X9571545Y9485952*
X9553912Y9462973*
X9544763Y944088*
X9459998*
Y9447499*
X9299999*
Y9342498*
X9459998*
Y9349117*
X9556145*
X9571545Y9329046*
X9594524Y9311413*
X9604115Y9307441*
Y9199999*
X9559998*
Y9062699*
Y9049999*
Y9037299*
Y8995879*
X9433364*
X9425881Y9004998*
Y9152498*
X9459998*
Y9179999*
X9379999*
X9299999*
Y9152498*
X9334116*
Y9039997*
X9262699*
X9249999Y9039999*
X9237299Y9039997*
X9165879*
Y9059367*
X9177055Y9067942*
X9189877Y9084652*
X9197939Y9104114*
X9200687Y9124998*
X9197939Y9145882*
X9189877Y9165343*
X9177055Y9182056*
X9165879Y9190629*
Y9247499*
X9199999*
Y9352498*
X9039999*
Y9247499*
X9074116*
Y9190629*
X9062943Y9182056*
X9050119Y9165343*
X9042057Y9145882*
X9039308Y9124998*
X9042057Y9104114*
X9050119Y9084652*
X9062943Y9067942*
X9074116Y9059367*
Y9004998*
X9077609Y8987439*
X9087556Y8972555*
X9099999Y8960111*
Y8859997*
X9237299*
X9249999*
X9262699*
X9299999*
Y8949999*
X9349999*
Y8859997*
X9399998*
Y8904117*
X9559998*
Y8899999*
X9624997*
Y8974998*
X9674997*
Y8899999*
X9739998*
Y8904117*
X9848494*
X9883378Y8869232*
X9878519Y8857498*
X9854999*
Y8792499*
X10024999*
Y8857498*
X10024884*
X9899942Y898244*
X9885057Y8992387*
X9867498Y8995879*
X9739998*
Y9049999*
Y9062699*
Y9199999*
X9695881*
Y9307441*
X9705474Y9311413*
X9728451Y9329046*
X9743851Y9349117*
X9854999*
Y9292498*
X10244998*
Y9472498*
X9854999*
Y944088*
X9755235*
X9746084Y9462973*
X9728451Y9485952*
X9705474Y9503582*
X9678715Y9514667*
X9649998Y9518446*
G37*
G36*
X8399998D02*
X8371283Y9514667D01*
X8344524Y9503582*
X8321545Y9485952*
X8303912Y9462973*
X8294763Y944088*
X8209998*
Y9447499*
X8049999*
Y9342498*
X8209998*
Y9349117*
X8306145*
X8321545Y9329046*
X8344524Y9311413*
X8354115Y9307441*
Y9217499*
X8309998*
Y9080197*
Y9067497*
Y9054797*
Y8995879*
X8183364*
X8175879Y9004998*
Y9152498*
X8209998*
Y9179996*
X8129998*
X8049999*
Y9152498*
X8084116*
Y9039997*
X8012699*
X7999999Y9039999*
X7987299Y9039997*
X7915879*
Y9084368*
X7927055Y909294*
X7939877Y9109654*
X7947939Y9129115*
X7950687Y9149999*
X7947939Y9170883*
X7939877Y9190344*
X7927055Y9207055*
X7915879Y921563*
Y9247499*
X7949999*
Y9352498*
X7789999*
Y9247499*
X7824116*
Y921563*
X781294Y9207055*
X7800119Y9190344*
X7792057Y9170883*
X7789308Y9149999*
X7792057Y9129115*
X7800119Y9109654*
X781294Y909294*
X7824116Y9084368*
Y9004998*
X7827609Y8987439*
X7837556Y8972555*
X7849999Y8960111*
Y8859997*
X7987299*
X7999999*
X8012699*
X8049999*
Y8949999*
X8099999*
Y8859997*
X8149998*
Y8904117*
X8548494*
X8583378Y8869232*
X8578519Y8857498*
X8554999*
Y8792499*
X8724999*
Y8857498*
X8724884*
X8599942Y898244*
X8585057Y8992387*
X8567498Y8995879*
X8489998*
Y9067497*
Y9080197*
Y9217499*
X8445881*
Y9307441*
X8455472Y9311413*
X8478451Y9329046*
X8493851Y9349117*
X8554999*
Y9292498*
X8944998*
Y9472498*
X8554999*
Y944088*
X8505235*
X8496081Y9462973*
X8478451Y9485952*
X8455472Y9503582*
X8428713Y9514667*
X8399998Y9518446*
G37*
G36*
X7099998Y9504146D02*
X7071283Y9500367D01*
X7044524Y9489282*
X7021545Y9471652*
X7003912Y9448673*
X7000684Y944088*
X6909998*
Y9447499*
X6749999*
Y9342498*
X6909998*
Y9349117*
X6999193*
X7003912Y9337725*
X7021545Y9314746*
X7044524Y9297113*
X7054115Y9293141*
Y9149999*
X7009998*
Y9012699*
Y8999999*
X6999005Y8995879*
X6879259*
X6875879Y8999999*
Y9152498*
X6909998*
Y9179999*
X6829999*
X6749999*
Y9152498*
X6784116*
Y9039997*
X6717698*
X6704998Y9039999*
X6692298Y9039997*
X6615879*
Y9084368*
X6627055Y909294*
X6639877Y9109654*
X6647939Y9129115*
X6650687Y9149999*
X6647939Y9170883*
X6639877Y9190344*
X6627055Y9207055*
X6615879Y921563*
Y9247499*
X6649999*
Y9352498*
X6489999*
Y9247499*
X6524117*
Y921563*
X6512941Y9207055*
X6500119Y9190344*
X6492057Y9170883*
X6489308Y9149999*
X6492057Y9129115*
X6500119Y9109654*
X6512941Y909294*
X6524117Y9084368*
Y9009999*
X6527609Y899244*
X6537556Y8977553*
X6554998Y8960111*
Y8859997*
X6692298*
X6704998*
X6717698*
X6754997*
Y8949999*
X6804997*
Y8859997*
X6854997*
Y8904117*
X7009998*
Y8849997*
X7074999*
Y8924998*
X7124999*
Y8849997*
X7189998*
Y8904117*
X7298494*
X7333378Y8869232*
X7328519Y8857498*
X7304999*
Y8792499*
X7474999*
Y8857498*
X7474884*
X7349942Y898244*
X7335057Y8992387*
X7317498Y8995879*
X7200991*
X7189998Y8999999*
Y9012699*
Y9149999*
X7145878*
Y9293141*
X7155472Y9297113*
X7178451Y9314746*
X7196081Y9337725*
X72008Y9349117*
X7304999*
Y9292498*
X7694998*
Y9472498*
X7304999*
Y944088*
X7199309*
X7196081Y9448673*
X7178451Y9471652*
X7155472Y9489282*
X7128713Y9500367*
X7099998Y9504146*
G37*
G36*
X5799998Y9518446D02*
X5771283Y9514667D01*
X5744524Y9503582*
X5721545Y9485952*
X5703912Y9462973*
X5694763Y944088*
X5634997*
Y9447499*
X5474997*
Y9342498*
X5634997*
Y9349117*
X5706145*
X5721545Y9329046*
X5744524Y9311413*
X5754118Y9307441*
Y9174998*
X5709998*
Y9037698*
Y9024998*
Y9012298*
Y894588*
X5601596*
X5594809Y895858*
X5597387Y896244*
X560088Y8979999*
Y9152498*
X5634997*
Y9179999*
X5554997*
X5474997*
Y9152498*
X5509117*
Y8999001*
X550011Y8989999*
X5499999*
Y8899997*
Y8809997*
X5549999*
Y8854117*
X6004999*
Y8792499*
X6174999*
Y8857498*
X6174884*
X6099942Y893244*
X6085057Y8942387*
X6067498Y894588*
X5889998*
Y9012298*
Y9024998*
Y9037698*
Y9174998*
X5845881*
Y9307441*
X5855474Y9311413*
X5878451Y9329046*
X5893851Y9349117*
X6004999*
Y9292498*
X6394998*
Y9472498*
X6004999*
Y944088*
X5905235*
X5896084Y9462973*
X5878451Y9485952*
X5855474Y9503582*
X5828715Y9514667*
X5799998Y9518446*
G37*
G36*
X4499998Y9505947D02*
X4471283Y9502167D01*
X4444522Y9491083*
X4421545Y947345*
X4403912Y9450473*
X439994Y944088*
X4309999*
Y9447499*
X4149999*
Y9342498*
X4309999*
Y9349117*
X439994*
X4403912Y9339524*
X4421545Y9316544*
X4444522Y9298914*
X4454116Y9294939*
Y9174998*
X4409998*
Y9037698*
Y9024998*
Y9012298*
Y8995879*
X4249999*
Y9039997*
X422088*
Y9130992*
X4242384Y9152498*
X4309999*
Y9179999*
X4229999*
X4140923*
X413261Y9167555*
X4129117Y9149999*
Y9048978*
X4120136Y9039997*
X4099999Y9039999*
X4087299Y9039997*
X407088*
Y9059367*
X4082054Y9067942*
X4094878Y9084652*
X4102938Y9104114*
X4105689Y9124998*
X4102938Y9145882*
X4094878Y9165343*
X4082054Y9182056*
X407088Y9190629*
Y9244998*
X4067388Y9262557*
X4057441Y9277441*
X4049999Y9284883*
Y9352498*
X3889999*
Y9247499*
X3957612*
X3979115Y9225993*
Y9190629*
X3967942Y9182056*
X3955117Y9165343*
X3947058Y9145882*
X3944307Y9124998*
X3947058Y9104114*
X3955117Y9084652*
X3967942Y9067942*
X3979115Y9059367*
Y9039997*
X3949999*
Y8859997*
X4087299*
X4099999*
X4112699*
X4149999*
Y8949999*
X4199996*
Y8859997*
X4249999*
Y8904117*
X4409998*
Y8874998*
X4474999*
Y8949999*
X4524999*
Y8874998*
X4589998*
Y8904117*
X4698494*
X4733378Y8869232*
X4728519Y8857498*
X4704999*
Y8792499*
X4874999*
Y8857498*
X4874884*
X4749942Y898244*
X4735057Y8992387*
X4717498Y8995879*
X4598979*
X4589998Y9004861*
Y9024998*
Y9037698*
Y9174998*
X4545878*
Y9294939*
X4555474Y9298914*
X4578451Y9316544*
X4596084Y9339524*
X4600056Y9349117*
X4704999*
Y9292498*
X5094998*
Y9472498*
X4704999*
Y944088*
X4600056*
X4596084Y9450473*
X4578451Y947345*
X4555474Y9491083*
X4528715Y9502167*
X4499998Y9505947*
G37*
G36*
X15850598Y9472498D02*
X15460599D01*
Y9395879*
X15297985*
X15296083Y9400473*
X1527845Y942345*
X15255471Y9441083*
X15228714Y9452165*
X15199997Y9455947*
X15171282Y9452165*
X15144523Y9441083*
X15121544Y942345*
X15103914Y9400473*
X15102011Y9395879*
X1501*
Y9402498*
X14849998*
Y9297499*
X1501*
Y9304116*
X15097869*
X15103914Y9289524*
X15121544Y9266544*
X15144523Y9248914*
X15154117Y9244939*
Y9149999*
X1511*
Y9012699*
Y8999999*
Y8987299*
Y894588*
X14983363*
X14975878Y8954998*
Y9107497*
X1501*
Y9134998*
X14929998*
X14849998*
Y9107497*
X14884118*
Y8989999*
X14812698*
X14799998*
X14787298*
X14715878*
Y9009367*
X14727054Y9017942*
X14739879Y9034653*
X14747941Y9054114*
X14750689Y9074998*
X14747941Y9095882*
X14739879Y9115343*
X14727054Y9132056*
X14715878Y9140629*
Y9202498*
X14749998*
Y9307499*
X14589998*
Y9202498*
X14624116*
Y9140629*
X14612942Y9132056*
X1460012Y9115343*
X14592058Y9095882*
X14589307Y9074998*
X14592058Y9054114*
X1460012Y9034653*
X14612942Y9017942*
X14624116Y9009367*
Y8954998*
X14627608Y8937439*
X14637555Y8922555*
X14649998Y8910111*
Y8809997*
X14787298*
X14799998*
X14812698*
X14849998*
Y8899997*
X14899998*
Y8809997*
X14949998*
Y8854117*
X1511*
Y8849997*
X15174998*
Y8924998*
X15224998*
Y8849997*
X15289997*
Y8854117*
X15460599*
Y8792499*
X15630598*
Y8857498*
X15630484*
X15555541Y893244*
X15540657Y8942387*
X15523098Y894588*
X15289997*
Y8999999*
Y9012699*
Y9149999*
X1524588*
Y9244939*
X15255471Y9248914*
X1527845Y9266544*
X15296083Y9289524*
X15302128Y9304116*
X15460599*
Y9292498*
X15850598*
Y9472498*
G37*
G36*
X14494997D02*
X14104998D01*
Y939088*
X14002128*
X13996083Y9405472*
X1397845Y9428452*
X13955473Y9446084*
X13928714Y9457166*
X13899997Y9460948*
X13871282Y9457166*
X13844524Y9446084*
X13821544Y9428452*
X13803914Y9405472*
X13797869Y939088*
X1366*
Y9397499*
X13499998*
Y9292498*
X1366*
Y9299117*
X13802012*
X13803914Y9294525*
X13821544Y9271546*
X13844524Y9253913*
X13854117Y924994*
Y9149999*
X1381*
Y9012699*
Y8999999*
Y8987299*
Y894588*
X13633363*
X1362588Y8954998*
Y9102498*
X1366*
Y9129999*
X13579998*
X13499998*
Y9102498*
X13534118*
Y8989999*
X13462698*
X13449998*
X13437298*
X13365878*
Y9009367*
X13377054Y9017942*
X13389879Y9034653*
X13397941Y9054114*
X13400689Y9074998*
X13397941Y9095882*
X13389879Y9115343*
X13377054Y9132056*
X13365878Y9140629*
Y9197497*
X13399998*
Y9302498*
X13239998*
Y9197497*
X13274116*
Y9140629*
X13262942Y9132056*
X1325012Y9115343*
X13242058Y9095882*
X13239308Y9074998*
X13242058Y9054114*
X1325012Y9034653*
X13262942Y9017942*
X13274116Y9009367*
Y8954998*
X13277608Y8937439*
X13287555Y8922555*
X13299998Y8910111*
Y8809997*
X13437298*
X13449998*
X13462698*
X13499998*
Y8899999*
X13549998*
Y8809997*
X13599998*
Y8854117*
X1381*
Y8849997*
X13874998*
Y8924998*
X13924998*
Y8849997*
X13989997*
Y8854117*
X14104998*
Y8792499*
X14274998*
Y8857498*
X14274883*
X14199943Y893244*
X14185056Y8942387*
X14167497Y894588*
X13989997*
Y8999999*
Y9012699*
Y9149999*
X1394588*
Y924994*
X13955473Y9253913*
X1397845Y9271546*
X13996083Y9294525*
X13997985Y9299117*
X14104998*
Y9292498*
X14494997*
Y9472498*
G37*
G36*
X13088498D02*
X12698498D01*
Y939088*
X12550056*
X12546083Y9400473*
X1252845Y942345*
X12505474Y9441083*
X12478715Y9452165*
X12449997Y9455947*
X12421283Y9452165*
X12394524Y9441083*
X12371544Y942345*
X12353914Y9400473*
X12349939Y939088*
X12209998*
Y9397499*
X12049998*
Y9292498*
X12209998*
Y9299117*
X12349939*
X12353914Y9289524*
X12371544Y9266544*
X12394524Y9248914*
X12404117Y9244939*
Y9099999*
X12359998*
Y8962699*
Y8949999*
Y8937299*
Y889588*
X12183364*
X12175878Y8904998*
Y9102498*
X12209998*
Y9129999*
X12129998*
X12049998*
Y9102498*
X12084116*
Y8939999*
X12012698*
X11999998*
X11987298*
X11915879*
Y8984368*
X11927055Y8992941*
X11939879Y9009654*
X11947939Y9029115*
X11950689Y9049999*
X11947939Y9070883*
X11939879Y9090342*
X11927055Y9107055*
X11915879Y911563*
Y9197497*
X11949998*
Y9302498*
X11789999*
Y9197497*
X11824116*
Y911563*
X1181294Y9107055*
X11800118Y9090342*
X11792056Y9070883*
X11789308Y9049999*
X11792056Y9029115*
X11800118Y9009654*
X1181294Y8992941*
X11824116Y8984368*
Y8904998*
X11827609Y8887439*
X11837555Y8872555*
X11849999Y8860111*
Y8759997*
X11987298*
X11999998*
X12012698*
X12049998*
Y8849997*
X12099998*
Y8759997*
X12149998*
Y8804117*
X12359998*
Y8799997*
X12424999*
Y8874998*
X12474999*
Y8799997*
X12539997*
Y8804117*
X12698498*
Y8792499*
X12868498*
Y8857498*
X12868386*
X12843441Y888244*
X12828557Y8892387*
X12810998Y889588*
X12539997*
Y8949999*
Y8962699*
Y9099999*
X1249588*
Y9244939*
X12505474Y9248914*
X1252845Y9266544*
X12546083Y9289524*
X12550056Y9299117*
X12698498*
Y9292498*
X13088498*
Y9472498*
G37*
G36*
X11644998D02*
X11254999D01*
Y939088*
X11100056*
X11096083Y9400473*
X11078451Y942345*
X11055471Y9441083*
X11028715Y9452165*
X10999998Y9455947*
X10971283Y9452165*
X10944524Y9441083*
X10921545Y942345*
X10903912Y9400473*
X1089994Y939088*
X10759998*
Y9397499*
X10599999*
Y9292498*
X10759998*
Y9299117*
X1089994*
X10903912Y9289524*
X10921545Y9266544*
X10944524Y9248914*
X10954115Y9244939*
Y9149999*
X10909998*
Y9012699*
Y8999999*
X10899005Y8995879*
X10733364*
X10725878Y9004998*
Y9102498*
X10759998*
Y9129999*
X10679998*
X10599999*
Y9102498*
X10634116*
Y9039997*
X10562699*
X10549999Y9039999*
X10537299Y9039997*
X10490804*
X1048454Y9052697*
X10489877Y9059654*
X10497939Y9079115*
X10500687Y9099999*
X10497939Y9120883*
X10489877Y9140344*
X10477055Y9157055*
X10465879Y916563*
Y9197497*
X10499999*
Y9302498*
X10339999*
Y9197497*
X10374116*
Y916563*
X1036294Y9157055*
X10350119Y9140344*
X10342057Y9120883*
X10339308Y9099999*
X10342057Y9079115*
X10350119Y9059654*
X1036294Y9042943*
X10374116Y9034368*
Y9004998*
X10377609Y8987439*
X10387556Y8972555*
X10399999Y8960111*
Y8859997*
X10537299*
X10549999*
X10562699*
X10599999*
Y8949999*
X10649999*
Y8859997*
X10699998*
Y8904117*
X10909998*
Y8849997*
X10974999*
Y8924998*
X11024999*
Y8849997*
X11089998*
Y8904117*
X11330995*
X11365877Y8869232*
X11361018Y8857498*
X11254999*
Y8792499*
X11644998*
Y8857498*
X11494389*
X11492387Y8867556*
X1148244Y888244*
X11382443Y898244*
X11367556Y8992387*
X11349997Y8995879*
X11100993*
X11089998Y8999999*
Y9012699*
Y9149999*
X1104588*
Y9244939*
X11055471Y9248914*
X11078451Y9266544*
X11096083Y9289524*
X11100056Y9299117*
X11254999*
Y9292498*
X11644998*
Y9472498*
G37*
G36*
X17344999D02*
X16954997D01*
Y9383379*
X16772028*
X1675547Y9396084*
X16728714Y9407166*
X16699999Y9410948*
X16671282Y9407166*
X16644526Y9396084*
X1662797Y9383379*
X16392199*
Y9389999*
X162322*
Y9284997*
X16392199*
Y9291617*
X16590152*
X16592829Y9271281*
X16603913Y9244525*
X16621546Y9221546*
X16644526Y9203913*
X16654117Y919994*
Y9099999*
X16609999*
Y8962699*
Y8949999*
X16599006Y894588*
X16352479*
X16347196Y895858*
X16354587Y8969641*
X1635808Y8987198*
Y9094998*
X16392199*
Y9122498*
X16312197*
X162322*
Y9094998*
X16266317*
Y9006202*
X16250112Y8989999*
X16249997*
Y8899997*
Y8809997*
X16299997*
Y8854117*
X16609999*
Y8799997*
X16675*
Y8874998*
X16725*
Y8799997*
X16789996*
Y8854117*
X16954997*
Y8792499*
X17124997*
Y8857498*
X17124885*
X17049943Y893244*
X17035058Y8942387*
X17017499Y894588*
X16800992*
X16789996Y8949999*
Y8962699*
Y9099999*
X16745879*
Y919994*
X1675547Y9203913*
X16778452Y9221546*
X16796082Y9244525*
X16807167Y9271281*
X16809844Y9291617*
X17104997*
X17109432Y9292498*
X17344999*
Y9472498*
G37*
G36*
X9459998Y9257499D02*
X9405D01*
Y9229999*
X9459998*
Y9257499*
G37*
G36*
X9355D02*
X9299999D01*
Y9229999*
X9355*
Y9257499*
G37*
G36*
X6909998D02*
X6854997D01*
Y9229999*
X6909998*
Y9257499*
G37*
G36*
X6804997D02*
X6749999D01*
Y9229999*
X6804997*
Y9257499*
G37*
G36*
X5634997D02*
X5579999D01*
Y9229999*
X5634997*
Y9257499*
G37*
G36*
X4309999D02*
X4254997D01*
Y9229999*
X4309999*
Y9257499*
G37*
G36*
X4204997D02*
X4149999D01*
Y9229999*
X4204997*
Y9257499*
G37*
G36*
X5529999D02*
X5474997D01*
Y9229999*
X5529999*
Y9257499*
G37*
G36*
X8209998D02*
X8154997D01*
Y9229996*
X8209998*
Y9257499*
G37*
G36*
X8104997D02*
X8049999D01*
Y9229996*
X8104997*
Y9257499*
G37*
G36*
X1501Y9212498D02*
X14954999D01*
Y9184998*
X1501*
Y9212498*
G37*
G36*
X14904999D02*
X14849998D01*
Y9184998*
X14904999*
Y9212498*
G37*
G36*
X1366Y92075D02*
X13604999D01*
Y9179999*
X1366*
Y92075*
G37*
G36*
X10759998D02*
X10704997D01*
Y9179999*
X10759998*
Y92075*
G37*
G36*
X13554999D02*
X13499998D01*
Y9179999*
X13554999*
Y92075*
G37*
G36*
X10654997D02*
X10599999D01*
Y9179999*
X10654997*
Y92075*
G37*
G36*
X12209998D02*
X12154997D01*
Y9179999*
X12209998*
Y92075*
G37*
G36*
X12104997D02*
X12049998D01*
Y9179999*
X12104997*
Y92075*
G37*
G36*
X16392199Y9199999D02*
X16337198D01*
Y9172498*
X16392199*
Y9199999*
G37*
G36*
X16287198D02*
X162322D01*
Y9172498*
X16287198*
Y9199999*
G37*
G36*
X161322Y9294997D02*
X15972198D01*
Y9189999*
X16006318*
Y916563*
X15995142Y9157055*
X15982317Y9140344*
X15974255Y9120883*
X15971509Y9099999*
X15974255Y9079115*
X15982317Y9059654*
X15995142Y9042943*
X16006318Y9034368*
Y8989999*
X15999998*
Y8809997*
X16137298*
X16149998*
X16162698*
X16199998*
Y8899997*
Y8989999*
X16162698*
X16149998*
X16137298*
X16098078*
Y9034368*
X16109254Y9042943*
X16122078Y9059654*
X1613014Y9079115*
X16132888Y9099999*
X1613014Y9120883*
X16122078Y9140344*
X16109254Y9157055*
X16098078Y916563*
Y9189999*
X161322*
Y9294997*
G37*
G36*
X5374998Y9352498D02*
X5214998D01*
Y9247499*
X5249115*
Y9136794*
X5242943Y9132056*
X5230119Y9115343*
X5222057Y9095882*
X5219308Y9074998*
X5222057Y9054114*
X5230119Y9034653*
X5242943Y9017942*
X5249115Y9013202*
Y8929999*
X5249999Y8925565*
Y8809997*
X5387299*
X5399999*
X5412699*
X5449999*
Y8899997*
Y8989999*
X5412699*
X5399999*
X5387299*
X534088*
Y9005531*
X5357055Y9017942*
X5369877Y9034653*
X5377939Y9054114*
X5380687Y9074998*
X5377939Y9095882*
X5369877Y9115343*
X5357055Y9132056*
X534088Y9144467*
Y9247499*
X5374998*
Y9352498*
G37*
G36*
X17344999Y8857498D02*
X17174999D01*
Y8792499*
X17344999*
Y8857498*
G37*
G36*
X15850598D02*
X15680598D01*
Y8792499*
X15850598*
Y8857498*
G37*
G36*
X14494997D02*
X14324998D01*
Y8792499*
X14494997*
Y8857498*
G37*
G36*
X13088498D02*
X12918498D01*
Y8792499*
X13088498*
Y8857498*
G37*
G36*
X10244998D02*
X10074998D01*
Y8792499*
X10244998*
Y8857498*
G37*
G36*
X8944998D02*
X8774998D01*
Y8792499*
X8944998*
Y8857498*
G37*
G36*
X7694998D02*
X7524998D01*
Y8792499*
X7694998*
Y8857498*
G37*
G36*
X6394998D02*
X6224998D01*
Y8792499*
X6394998*
Y8857498*
G37*
G36*
X5094998D02*
X4924999D01*
Y8792499*
X5094998*
Y8857498*
G37*
G36*
X17344999Y8742499D02*
X17174999D01*
Y8677498*
X17344999*
Y8742499*
G37*
G36*
X17124997D02*
X16954997D01*
Y8677498*
X17124997*
Y8742499*
G37*
G36*
X15850598D02*
X15680598D01*
Y8677498*
X15850598*
Y8742499*
G37*
G36*
X15630598D02*
X15460599D01*
Y8677498*
X15630598*
Y8742499*
G37*
G36*
X14494997D02*
X14324998D01*
Y8677498*
X14494997*
Y8742499*
G37*
G36*
X14274998D02*
X14104998D01*
Y8677498*
X14274998*
Y8742499*
G37*
G36*
X13088498D02*
X12918498D01*
Y8677498*
X13088498*
Y8742499*
G37*
G36*
X12868498D02*
X12698498D01*
Y8677498*
X12868498*
Y8742499*
G37*
G36*
X11644998D02*
X11474998D01*
Y8677498*
X11644998*
Y8742499*
G37*
G36*
X11424998D02*
X11254999D01*
Y8677498*
X11424998*
Y8742499*
G37*
G36*
X10244998D02*
X10074998D01*
Y8677498*
X10244998*
Y8742499*
G37*
G36*
X10024999D02*
X9854999D01*
Y8677498*
X10024999*
Y8742499*
G37*
G36*
X8944998D02*
X8774998D01*
Y8677498*
X8944998*
Y8742499*
G37*
G36*
X8724999D02*
X8554999D01*
Y8677498*
X8724999*
Y8742499*
G37*
G36*
X7694998D02*
X7524998D01*
Y8677498*
X7694998*
Y8742499*
G37*
G36*
X7474999D02*
X7304999D01*
Y8677498*
X7474999*
Y8742499*
G37*
G36*
X6394998D02*
X6224998D01*
Y8677498*
X6394998*
Y8742499*
G37*
G36*
X6174999D02*
X6004999D01*
Y8677498*
X6174999*
Y8742499*
G37*
G36*
X5094998D02*
X4924999D01*
Y8677498*
X5094998*
Y8742499*
G37*
G36*
X4874999D02*
X4704999D01*
Y8677498*
X4874999*
Y8742499*
G37*
G36*
X13899997Y8110948D02*
X13871282Y8107166D01*
X13844526Y8096084*
X13821544Y8078452*
X13803914Y8055472*
X13797869Y804088*
X1366*
Y8047499*
X13499998*
Y7942498*
X1366*
Y7949117*
X13802012*
X13803914Y7944525*
X13821544Y7921546*
X13844526Y7903913*
X13854117Y7899941*
Y7699999*
X1381*
Y7562697*
Y7549997*
X13799004Y754588*
X13633363*
X1362588Y7554998*
Y7752499*
X1366*
Y7779999*
X13579998*
X13499998*
Y7752499*
X13534118*
Y7589997*
X13462698*
X13449998*
X13437298*
X13365878*
Y7609367*
X13377054Y7617942*
X13389879Y7634653*
X13397941Y7654114*
X13400689Y7674998*
X13397941Y7695882*
X13389879Y7715343*
X13377054Y7732054*
X13365878Y7740629*
Y7847497*
X13399998*
Y7952498*
X13239998*
Y7847497*
X13274116*
Y7740629*
X13262942Y7732054*
X1325012Y7715343*
X13242058Y7695882*
X13239308Y7674998*
X13242058Y7654114*
X1325012Y7634653*
X13262942Y7617942*
X13274116Y7609367*
Y7554998*
X13277608Y7537439*
X13287555Y7522555*
X13299998Y7510111*
Y7409997*
X13437298*
X13449998*
X13462698*
X13499998*
Y7499997*
X13549998*
Y7409997*
X13599998*
Y7454117*
X1381*
Y7399997*
X13874998*
Y7474999*
X13924998*
Y7399997*
X13989997*
Y7454117*
X14104998*
Y7422499*
X14274998*
Y7487498*
X14274883*
X14229941Y7532441*
X14215056Y7542387*
X141975Y754588*
X1400099*
X13989997Y7549997*
Y7562697*
Y7699999*
X1394588*
Y7899941*
X13955471Y7903913*
X1397845Y7921546*
X13996083Y7944525*
X13997985Y7949117*
X14104998*
Y7922498*
X14494997*
Y8102498*
X14104998*
Y804088*
X14002128*
X13996083Y8055472*
X1397845Y8078452*
X13955471Y8096084*
X13928714Y8107166*
X13899997Y8110948*
G37*
G36*
X12449997D02*
X12421283Y8107166D01*
X12394524Y8096084*
X12371544Y8078452*
X12353914Y8055472*
X12347869Y804088*
X12209998*
Y8047499*
X12049998*
Y7942498*
X12209998*
Y7949117*
X12352012*
X12353914Y7944523*
X12371544Y7921546*
X12394524Y7903913*
X12404117Y7899941*
Y7749999*
X12359998*
Y7612697*
Y7599997*
Y7587297*
Y754588*
X12176597*
X12169808Y755858*
X12172388Y7562441*
X12175878Y7579997*
Y7752499*
X12209998*
Y7779999*
X12129998*
X12049998*
Y7752499*
X12084116*
Y7599004*
X12075111Y7589997*
X12074997*
Y7499997*
Y7409997*
X12124999*
Y7454117*
X12359998*
Y7449997*
X12424999*
Y7524998*
X12474999*
Y7449997*
X12539997*
Y7454117*
X12698498*
Y7422499*
X12868498*
Y7487498*
X12868386*
X12823444Y7532441*
X12808557Y7542387*
X12790998Y754588*
X12539997*
Y7599997*
Y7612697*
Y7749999*
X1249588*
Y7899941*
X12505471Y7903913*
X1252845Y7921546*
X12546083Y7944523*
X12547986Y7949117*
X12698498*
Y7922498*
X13088498*
Y8102498*
X12698498*
Y804088*
X12552128*
X12546083Y8055472*
X1252845Y8078452*
X12505471Y8096084*
X12478715Y8107166*
X12449997Y8110948*
G37*
G36*
X4499998D02*
X4471283Y8107166D01*
X4444525Y8096084*
X4421545Y8078452*
X4403912Y8055472*
X439787Y804088*
X4309999*
Y8047499*
X4149999*
Y7942498*
X4309999*
Y7949117*
X440201*
X4403912Y7944525*
X4421545Y7921546*
X4444525Y7903913*
X4454116Y7899941*
Y7749999*
X4409998*
Y7612697*
Y76*
X4399005Y759588*
X4283364*
X4275879Y7604998*
Y7752499*
X4309999*
Y7779999*
X4229999*
X4149999*
Y7752499*
X4184116*
Y7639997*
X4112699*
X4099999Y7639999*
X4087299Y7639997*
X407088*
Y7684368*
X4082054Y7692941*
X4094878Y7709654*
X4102938Y7729115*
X4105689Y7749999*
X4102938Y7770883*
X4094878Y7790342*
X4082054Y7807055*
X407088Y781563*
Y7844998*
X4067388Y7862557*
X4057441Y7877441*
X4049999Y7884883*
Y7952498*
X3889999*
Y7847497*
X3957612*
X3977711Y7827401*
X3977139Y7814111*
X3967942Y7807055*
X3955117Y7790342*
X3947058Y7770883*
X3944307Y7749999*
X3947058Y7729115*
X3955117Y7709654*
X3967942Y7692941*
X3979115Y7684368*
Y7639997*
X3949999*
Y7459997*
X4087299*
X4099999*
X4112699*
X4149999*
Y7549997*
X4199999*
Y7459997*
X4249999*
Y7504117*
X4409998*
Y7449997*
X4474999*
Y7524998*
X4524999*
Y7449997*
X4589998*
Y7504117*
X470917*
X4712078Y7500198*
X4705687Y7487498*
X46925*
Y7422499*
X4862499*
Y7487498*
X4862385*
X4767442Y7582441*
X4752558Y7592387*
X4734999Y759588*
X4600991*
X4589998Y76*
Y7612697*
Y7749999*
X4545878*
Y7899941*
X4555472Y7903913*
X4578451Y7921546*
X4596084Y7944525*
X4597986Y7949117*
X46925*
Y7922498*
X5082499*
Y8102498*
X46925*
Y804088*
X4602126*
X4596084Y8055472*
X4578451Y8078452*
X4555472Y8096084*
X4528715Y8107166*
X4499998Y8110948*
G37*
G36*
X15199997D02*
X15171282Y8107166D01*
X15144523Y8096084*
X15121544Y8078452*
X15103914Y8055472*
X15097869Y804088*
X1501*
Y8047499*
X14849998*
Y7942498*
X1501*
Y7949117*
X15102011*
X15103914Y7944525*
X15121544Y7921546*
X15144523Y7903913*
X15154117Y7899941*
Y7749999*
X1511*
Y7612697*
Y76*
X15099004Y759588*
X14975878*
Y7752499*
X1501*
Y7779999*
X14929998*
X14849998*
Y7752499*
X14884118*
Y7639999*
X14824999*
X14812299*
X14740806*
X14734542Y7652699*
X14739879Y7659654*
X14747941Y7679115*
X14750689Y7699999*
X14747941Y7720883*
X14739879Y7740342*
X14727054Y7757055*
X14715878Y776563*
Y7847497*
X14749998*
Y7952498*
X14589998*
Y7847497*
X14624116*
Y776563*
X14612942Y7757055*
X1460012Y7740342*
X14592058Y7720883*
X14589307Y7699999*
X14592058Y7679115*
X1460012Y7659654*
X14612942Y7642943*
X14624116Y7634368*
Y7629999*
X14627608Y761244*
X14637555Y7597556*
X14674999Y7560111*
Y7459997*
X14812299*
X14824999*
X14837699*
X14874999*
Y7549997*
X14924999*
Y7459997*
X14974999*
Y7504117*
X1511*
Y7449997*
X15174998*
Y7524998*
X15224998*
Y7449997*
X15289997*
Y7504117*
X15477271*
X15480179Y7500198*
X15473786Y7487498*
X15460599*
Y7422499*
X15630598*
Y7487498*
X15630484*
X15535541Y7582441*
X15520654Y7592387*
X155031Y759588*
X1530099*
X15289997Y76*
Y7612697*
Y7749999*
X1524588*
Y7899941*
X15255471Y7903913*
X1527845Y7921546*
X15296083Y7944525*
X15297985Y7949117*
X15460599*
Y7922498*
X15850598*
Y8102498*
X15460599*
Y804088*
X15302128*
X15296083Y8055472*
X1527845Y8078452*
X15255471Y8096084*
X15228714Y8107166*
X15199997Y8110948*
G37*
G36*
X10999998D02*
X10971283Y8107166D01*
X10944524Y8096084*
X10921545Y8078452*
X10903912Y8055472*
X1089787Y804088*
X10759998*
Y8047499*
X10599999*
Y7942498*
X10759998*
Y7949117*
X10902012*
X10903912Y7944523*
X10921545Y7921546*
X10944524Y7903913*
X10954115Y7899941*
Y7749999*
X10909998*
Y7612697*
Y7599997*
Y7587297*
Y754588*
X10729998*
Y7589997*
X10725878*
Y7752499*
X10759998*
Y7779999*
X10679998*
X10599999*
Y7752499*
X10634116*
Y7589997*
X10579999*
X10567296*
X10480088*
X10471256Y7599123*
X10472089Y7614132*
X10477055Y7617942*
X10489877Y7634653*
X10497939Y7654114*
X10500687Y7674998*
X10497939Y7695882*
X10489877Y7715343*
X10477055Y7732054*
X10465879Y7740629*
Y7847497*
X10499999*
Y7952498*
X10339999*
Y7847497*
X10374116*
Y7740629*
X1036294Y7732054*
X10350119Y7715343*
X10342057Y7695882*
X10339308Y7674998*
X10342057Y7654114*
X10350119Y7634653*
X1036294Y7617942*
X10374116Y7609367*
Y7584998*
X10377609Y7567439*
X10387556Y7552555*
X10429999Y7510111*
Y7409997*
X10567296*
X10579996*
X10592699*
X10629996*
Y7499997*
X10679998*
Y7409997*
X10729998*
Y7454117*
X10909998*
Y7449997*
X10974999*
Y7524998*
X11024999*
Y7449997*
X11089998*
Y7454117*
X11254999*
Y7422499*
X11424998*
Y7487498*
X11424884*
X11379941Y7532441*
X11365057Y7542387*
X11347498Y754588*
X11089998*
Y7599997*
Y7612697*
Y7749999*
X1104588*
Y7899941*
X11055471Y7903913*
X11078451Y7921546*
X11096083Y7944523*
X11097986Y7949117*
X11254999*
Y7922498*
X11644998*
Y8102498*
X11254999*
Y804088*
X11102126*
X11096083Y8055472*
X11078451Y8078452*
X11055471Y8096084*
X11028715Y8107166*
X10999998Y8110948*
G37*
G36*
X9649998D02*
X9621283Y8107166D01*
X9594524Y8096084*
X9571545Y8078452*
X9553912Y8055472*
X954787Y804088*
X9459998*
Y8047499*
X9299999*
Y7942498*
X9459998*
Y7949117*
X9552012*
X9553912Y7944523*
X9571545Y7921546*
X9594524Y7903913*
X9604115Y7899941*
Y7699999*
X9559998*
Y7562697*
Y7549997*
Y7537297*
Y7520879*
X9426597*
X9419808Y7533579*
X9422386Y7537439*
X9425881Y7554998*
Y7752499*
X9459998*
Y7779999*
X9379999*
X9299999*
Y7752499*
X9334116*
Y7574003*
X9325112Y7564998*
X9324997*
Y7474999*
Y7384999*
X9374997*
Y7429116*
X9559998*
Y7399997*
X9624997*
Y7474999*
X9674997*
Y7399997*
X9739998*
Y7429116*
X9854999*
Y7422499*
X10024999*
Y7487498*
X10024884*
X1000494Y7507442*
X9990056Y7517386*
X9972499Y7520879*
X9748979*
X9739998Y752986*
Y7549997*
Y7562697*
Y7699999*
X9695881*
Y7899941*
X9705472Y7903913*
X9728451Y7921546*
X9746084Y7944523*
X9747986Y7949117*
X9854999*
Y7922498*
X10244998*
Y8102498*
X9854999*
Y804088*
X9752126*
X9746084Y8055472*
X9728451Y8078452*
X9705472Y8096084*
X9678715Y8107166*
X9649998Y8110948*
G37*
G36*
X8399998D02*
X8371283Y8107166D01*
X8344524Y8096084*
X8321545Y8078452*
X8303912Y8055472*
X8297867Y804088*
X8209998*
Y8047499*
X8049999*
Y7942498*
X8209998*
Y7949117*
X8302012*
X8303912Y7944525*
X8321545Y7921546*
X8344524Y7903913*
X8354115Y7899941*
Y7749999*
X8309998*
Y7612697*
Y7599997*
Y7587297*
Y754588*
X8183364*
X8175879Y7554998*
Y7752499*
X8209998*
Y7779997*
X8129998*
X8049999*
Y7752499*
X8084116*
Y7589997*
X8012699*
X7999999*
X7987299*
X7915879*
Y7609367*
X7927055Y7617942*
X7939877Y7634653*
X7947939Y7654114*
X7950687Y7674998*
X7947939Y7695882*
X7939877Y7715343*
X7927055Y7732054*
X7915879Y7740629*
Y7847497*
X7949999*
Y7952498*
X7789999*
Y7847497*
X7824116*
Y7740629*
X781294Y7732054*
X7800119Y7715343*
X7792057Y7695882*
X7789308Y7674998*
X7792057Y7654114*
X7800119Y7634653*
X781294Y7617942*
X7824116Y7609367*
Y7554998*
X7827609Y7537439*
X7837556Y7522555*
X7849999Y7510111*
Y7409997*
X7987299*
X7999999*
X8012699*
X8049999*
Y7499997*
X8099999*
Y7409997*
X8149998*
Y7454117*
X8309998*
Y7449997*
X8374997*
Y7524998*
X8424997*
Y7449997*
X8489998*
Y7454117*
X8554999*
Y7422499*
X8724999*
Y7487498*
X8724884*
X8679942Y7532441*
X8665057Y7542387*
X8647498Y754588*
X8489998*
Y7599997*
Y7612697*
Y7749999*
X8445881*
Y7899941*
X8455472Y7903913*
X8478451Y7921546*
X8496081Y7944525*
X8497986Y7949117*
X8554999*
Y7922498*
X8944998*
Y8102498*
X8554999*
Y804088*
X8502126*
X8496081Y8055472*
X8478451Y8078452*
X8455472Y8096084*
X8428713Y8107166*
X8399998Y8110948*
G37*
G36*
X7099998D02*
X7071283Y8107166D01*
X7044524Y8096084*
X7021545Y8078452*
X7003912Y8055472*
X6997867Y804088*
X6909998*
Y8047499*
X6749999*
Y7942498*
X6909998*
Y7949117*
X7002012*
X7003912Y7944525*
X7021545Y7921546*
X7044524Y7903913*
X7054115Y7899941*
Y7699999*
X7009998*
Y7562697*
Y7549997*
X6999005Y754588*
X6883364*
X6875879Y7554998*
Y7752499*
X6909998*
Y7779999*
X6829999*
Y7804998*
Y7779999*
X6749999*
Y7752499*
X6784116*
Y7589997*
X6712699*
X6699999*
X6687299*
X6615879*
Y7634368*
X6627055Y7642943*
X6639877Y7659654*
X6647939Y7679115*
X6650687Y7699999*
X6647939Y7720883*
X6639877Y7740342*
X6627055Y7757055*
X6615879Y776563*
Y7847497*
X6649999*
Y7952498*
X6489999*
Y7847497*
X6524117*
Y776563*
X6512941Y7757055*
X6500119Y7740342*
X6492057Y7720883*
X6489308Y7699999*
X6492057Y7679115*
X6500119Y7659654*
X6512941Y7642943*
X6524117Y7634368*
Y7554998*
X6527609Y7537439*
X6537556Y7522555*
X6549999Y7510111*
Y7409997*
X6687299*
X6699999*
X6712699*
X6749999*
Y7499997*
X6799999*
Y7409997*
X6849999*
Y7454117*
X7009998*
Y7399997*
X7074999*
Y7474999*
X7124999*
Y7399997*
X7189998*
Y7454117*
X7304999*
Y7422499*
X7474999*
Y7487498*
X7474884*
X7429941Y7532441*
X7415057Y7542387*
X7397498Y754588*
X7200993*
X7189998Y7549997*
Y7562697*
Y7699999*
X7145878*
Y7899941*
X7155472Y7903913*
X7178451Y7921546*
X7196081Y7944525*
X7197986Y7949117*
X7304999*
Y7922498*
X7694998*
Y8102498*
X7304999*
Y804088*
X7202126*
X7196081Y8055472*
X7178451Y8078452*
X7155472Y8096084*
X7128713Y8107166*
X7099998Y8110948*
G37*
G36*
X5799998D02*
X5771283Y8107166D01*
X5744524Y8096084*
X5721545Y8078452*
X5703912Y8055472*
X569787Y804088*
X5634997*
Y8047499*
X5474997*
Y7942498*
X5634997*
Y7949117*
X5702012*
X5703912Y7944523*
X5721545Y7921546*
X5744524Y7903913*
X5754118Y7899941*
Y7749999*
X5709998*
Y7612697*
Y7599997*
Y7587297*
Y754588*
X560088*
Y7752499*
X5634997*
Y7779997*
X5554997*
X5474997*
Y7752499*
X5509117*
Y7589997*
X5449999*
X5437299*
X5349885*
X534088Y7599004*
Y763053*
X5357055Y7642943*
X5369877Y7659654*
X5377939Y7679115*
X5380687Y7699999*
X5377939Y7720883*
X5369877Y7740342*
X5357055Y7757055*
X534088Y7769466*
Y7847497*
X5374998*
Y7952498*
X5214998*
Y7847497*
X5249115*
Y7761792*
X5242943Y7757055*
X5230119Y7740342*
X5222057Y7720883*
X5219308Y7699999*
X5222057Y7679115*
X5230119Y7659654*
X5242943Y7642943*
X5249115Y7638204*
Y7579997*
X525261Y7562441*
X5262554Y7547556*
X5299999Y7510111*
Y7409997*
X5437299*
X5449999*
X5462699*
X5499999*
Y7499997*
X5549999*
Y7409997*
X5599998*
Y7454117*
X5709998*
Y7449997*
X5774997*
Y7524998*
X5824997*
Y7449997*
X5889998*
Y7454117*
X6004999*
Y7422499*
X6174999*
Y7487498*
X6174884*
X6129942Y7532441*
X6115057Y7542387*
X6097498Y754588*
X5889998*
Y7599997*
Y7612697*
Y7749999*
X5845881*
Y7899941*
X5855472Y7903913*
X5878451Y7921546*
X5896084Y7944523*
X5897986Y7949117*
X6004999*
Y7922498*
X6394998*
Y8102498*
X6004999*
Y804088*
X5902126*
X5896084Y8055472*
X5878451Y8078452*
X5855472Y8096084*
X5828715Y8107166*
X5799998Y8110948*
G37*
G36*
X16699999D02*
X16671282Y8107166D01*
X16644526Y8096084*
X16621546Y8078452*
X16606144Y8058378*
X16329698*
X16312139Y8054888*
X16301082Y8047499*
X162322*
Y7942498*
X16392199*
Y7966616*
X16594764*
X16603913Y7944525*
X16621546Y7921546*
X16644526Y7903913*
X16654117Y7899941*
Y7699999*
X16609999*
Y7562697*
X16609997Y7549997*
X16609999Y7537297*
Y7520881*
X1635808*
Y7752499*
X16392199*
Y7779999*
X16312197*
X162322*
Y7752499*
X16266317*
Y7564998*
X16199998*
X16187298*
X16099886*
X16098078Y7566804*
Y7636055*
X16107054Y7642943*
X16119878Y7659654*
X16127938Y7679115*
X16130689Y7699999*
X16127938Y7720883*
X16119878Y7740342*
X16107054Y7757055*
X16098078Y7763941*
Y7847497*
X161322*
Y7952498*
X15972198*
Y7847497*
X16006318*
Y7767317*
X15992942Y7757055*
X15980117Y7740342*
X15972058Y7720883*
X15969307Y7699999*
X15972058Y7679115*
X15980117Y7659654*
X15992942Y7642943*
X16006318Y7632679*
Y7547797*
X1600981Y7530241*
X16019754Y7515354*
X16049998Y7485113*
Y7384999*
X16187298*
X16199998*
X16212698*
X16249997*
Y7474999*
X16299997*
Y7384999*
X16349997*
Y7429116*
X16609999*
Y7399997*
X16674995*
Y7474996*
X16724995*
Y7399997*
X16789996*
Y7429116*
X16954997*
Y7422499*
X17124997*
Y7487498*
X17124885*
X17104941Y7507442*
X17090054Y7517386*
X170725Y7520881*
X1679898*
X16789996Y752986*
Y7549997*
Y7562697*
Y7699999*
X16745879*
Y7899941*
X1675547Y7903913*
X16778452Y7921546*
X16796082Y7944525*
X16805234Y7966616*
X16954997*
Y7922498*
X17344999*
Y8102498*
X16954997*
Y8058378*
X16793852*
X16778452Y8078452*
X1675547Y8096084*
X16728714Y8107166*
X16699999Y8110948*
G37*
G36*
X1366Y7857497D02*
X13604999D01*
Y7829999*
X1366*
Y7857497*
G37*
G36*
X13554999D02*
X13499998D01*
Y7829999*
X13554999*
Y7857497*
G37*
G36*
X9459998D02*
X9405D01*
Y7829999*
X9459998*
Y7857497*
G37*
G36*
X4309999D02*
X4254997D01*
Y7829999*
X4309999*
Y7857497*
G37*
G36*
X4204997D02*
X4149999D01*
Y7829999*
X4204997*
Y7857497*
G37*
G36*
X9355D02*
X9299999D01*
Y7829999*
X9355*
Y7857497*
G37*
G36*
X16392199D02*
X16337198D01*
Y7829999*
X16392199*
Y7857497*
G37*
G36*
X1501D02*
X14954999D01*
Y7829999*
X1501*
Y7857497*
G37*
G36*
X10759998D02*
X10704997D01*
Y7829999*
X10759998*
Y7857497*
G37*
G36*
X6909998D02*
X6854997D01*
Y7829999*
X6909998*
Y7857497*
G37*
G36*
X12209998D02*
X12154999D01*
Y7829999*
X12209998*
Y7857497*
G37*
G36*
X12104999D02*
X12049998D01*
Y7829999*
X12104999*
Y7857497*
G37*
G36*
X16287198D02*
X162322D01*
Y7829999*
X16287198*
Y7857497*
G37*
G36*
X14904999D02*
X14849998D01*
Y7829999*
X14904999*
Y7857497*
G37*
G36*
X10654997D02*
X10599999D01*
Y7829999*
X10654997*
Y7857497*
G37*
G36*
X6804997D02*
X6749999D01*
Y7829999*
X6804997*
Y7857497*
G37*
G36*
X5634997D02*
X5579999D01*
Y7829997*
X5634997*
Y7857497*
G37*
G36*
X5529999D02*
X5474997D01*
Y7829997*
X5529999*
Y7857497*
G37*
G36*
X8209998D02*
X8154997D01*
Y7829997*
X8209998*
Y7857497*
G37*
G36*
X8104997D02*
X8049999D01*
Y7829997*
X8104997*
Y7857497*
G37*
G36*
X17344999Y7487498D02*
X17174999D01*
Y7422499*
X17344999*
Y7487498*
G37*
G36*
X15850598D02*
X15680598D01*
Y7422499*
X15850598*
Y7487498*
G37*
G36*
X14494997D02*
X14324998D01*
Y7422499*
X14494997*
Y7487498*
G37*
G36*
X13088498D02*
X12918498D01*
Y7422499*
X13088498*
Y7487498*
G37*
G36*
X11644998D02*
X11474998D01*
Y7422499*
X11644998*
Y7487498*
G37*
G36*
X10244998D02*
X10074998D01*
Y7422499*
X10244998*
Y7487498*
G37*
G36*
X8944998D02*
X8774998D01*
Y7422499*
X8944998*
Y7487498*
G37*
G36*
X7694998D02*
X7524998D01*
Y7422499*
X7694998*
Y7487498*
G37*
G36*
X6394998D02*
X6224998D01*
Y7422499*
X6394998*
Y7487498*
G37*
G36*
X5082499D02*
X4912499D01*
Y7422499*
X5082499*
Y7487498*
G37*
G36*
X11949998Y7952498D02*
X11789999D01*
Y7847497*
X11824116*
Y776563*
X1181294Y7757055*
X11800118Y7740342*
X11792056Y7720883*
X11789308Y7699999*
X11792056Y7679115*
X11800118Y7659654*
X1181294Y7642943*
X11824116Y7634368*
Y7529997*
X11824997Y7525565*
Y7409997*
X11962297*
X11974997*
X11987697*
X12024997*
Y7499997*
Y7589997*
X11987697*
X11974997*
X11962297*
X11915879*
Y7634368*
X11927055Y7642943*
X11939879Y7659654*
X11947939Y7679115*
X11950689Y7699999*
X11947939Y7720883*
X11939879Y7740342*
X11927055Y7757055*
X11915879Y776563*
Y7847497*
X11949998*
Y7952498*
G37*
G36*
X9199999D02*
X9039999D01*
Y7847497*
X9074116*
Y776563*
X9062943Y7757055*
X9050119Y7740342*
X9042057Y7720883*
X9039308Y7699999*
X9042057Y7679115*
X9050119Y7659654*
X9062943Y7642943*
X9074116Y7634368*
Y7504998*
X9074998Y7500566*
Y7384999*
X9212298*
X9224998*
X9237698*
X9274997*
Y7474999*
Y7564998*
X9237698*
X9224998*
X9212298*
X9165879*
Y7634368*
X9177055Y7642943*
X9189877Y7659654*
X9197939Y7679115*
X9200687Y7699999*
X9197939Y7720883*
X9189877Y7740342*
X9177055Y7757055*
X9165879Y776563*
Y7847497*
X9199999*
Y7952498*
G37*
G36*
X17344999Y7372499D02*
X17174999D01*
Y7307498*
X17344999*
Y7372499*
G37*
G36*
X17124997D02*
X16954997D01*
Y7307498*
X17124997*
Y7372499*
G37*
G36*
X15850598D02*
X15680598D01*
Y7307498*
X15850598*
Y7372499*
G37*
G36*
X15630598D02*
X15460599D01*
Y7307498*
X15630598*
Y7372499*
G37*
G36*
X14494997D02*
X14324998D01*
Y7307498*
X14494997*
Y7372499*
G37*
G36*
X14274998D02*
X14104998D01*
Y7307498*
X14274998*
Y7372499*
G37*
G36*
X13088498D02*
X12918498D01*
Y7307498*
X13088498*
Y7372499*
G37*
G36*
X12868498D02*
X12698498D01*
Y7307498*
X12868498*
Y7372499*
G37*
G36*
X11644998D02*
X11474998D01*
Y7307498*
X11644998*
Y7372499*
G37*
G36*
X11424998D02*
X11254999D01*
Y7307498*
X11424998*
Y7372499*
G37*
G36*
X10244998D02*
X10074998D01*
Y7307498*
X10244998*
Y7372499*
G37*
G36*
X10024999D02*
X9854999D01*
Y7307498*
X10024999*
Y7372499*
G37*
G36*
X8944998D02*
X8774998D01*
Y7307498*
X8944998*
Y7372499*
G37*
G36*
X8724999D02*
X8554999D01*
Y7307498*
X8724999*
Y7372499*
G37*
G36*
X7694998D02*
X7524998D01*
Y7307498*
X7694998*
Y7372499*
G37*
G36*
X7474999D02*
X7304999D01*
Y7307498*
X7474999*
Y7372499*
G37*
G36*
X6394998D02*
X6224998D01*
Y7307498*
X6394998*
Y7372499*
G37*
G36*
X6174999D02*
X6004999D01*
Y7307498*
X6174999*
Y7372499*
G37*
G36*
X5082499D02*
X4912499D01*
Y7307498*
X5082499*
Y7372499*
G37*
G36*
X4862499D02*
X46925D01*
Y7307498*
X4862499*
Y7372499*
G37*
G36*
X7099998Y6605948D02*
X7071283Y6602166D01*
X7044524Y6591081*
X7021545Y6573451*
X7003912Y6550472*
X699994Y6540881*
X6909998*
Y6547497*
X6749999*
Y6442499*
X6909998*
Y6449115*
X699994*
X7003912Y6439524*
X7021545Y6416545*
X7044524Y6398912*
X7054115Y639494*
Y6344899*
X7009998*
Y6207599*
Y6194899*
Y6182199*
Y6100879*
X6883364*
X6875881Y6109997*
Y6252499*
X6909998*
Y6279997*
X6829999*
X6749999*
Y6252499*
X6784116*
Y6144996*
X6712699*
X6699999Y6144999*
X6687299Y6144996*
X6615879*
Y6189367*
X6627055Y6197942*
X6639877Y6214653*
X6647939Y6234115*
X6650687Y6254998*
X6647939Y6275882*
X6639877Y6295344*
X6627055Y6312054*
X6615879Y6320629*
Y6347498*
X6649999*
Y6452499*
X6489999*
Y6347498*
X6524117*
Y6320629*
X6512943Y6312054*
X6500119Y6295344*
X6492057Y6275882*
X6489308Y6254998*
X6492057Y6234115*
X6500119Y6214653*
X6512943Y6197942*
X6524117Y6189367*
Y6109997*
X6527609Y6092438*
X6537556Y6077554*
X6549999Y6065111*
Y5964999*
X6687299*
X6699999Y5964996*
X6712699Y5964999*
X6749999*
Y6054996*
X6799999*
Y5964999*
X6849999*
Y6009116*
X7293493*
X7333378Y5969231*
X7328519Y5957498*
X7304999*
Y5892497*
X7474999*
Y5957498*
X7474884*
X734494Y6087442*
X7330056Y6097386*
X7312499Y6100879*
X7189998*
Y6182199*
Y6194899*
Y6207599*
Y6344899*
X7145878*
Y639494*
X7155472Y6398912*
X7178451Y6416545*
X7196081Y6439524*
X7200056Y6449115*
X7304999*
Y6392499*
X7694998*
Y6572498*
X7304999*
Y6540881*
X7200056*
X7196081Y6550472*
X7178451Y6573451*
X7155472Y6591081*
X7128713Y6602166*
X7099998Y6605948*
G37*
G36*
X4499998D02*
X4471283Y6602166D01*
X4444525Y6591081*
X4421545Y6573451*
X4403912Y6550472*
X439994Y6540881*
X4309999*
Y6547497*
X4149999*
Y6442499*
X4309999*
Y6449115*
X439994*
X4403912Y6439524*
X4421545Y6416545*
X4444525Y6398912*
X4454116Y639494*
Y6299997*
X4409998*
Y6162697*
Y6149997*
Y6137297*
Y609588*
X4283364*
X4275879Y6104999*
Y6252499*
X4309999*
Y6279997*
X4229999*
X4149999*
Y6252499*
X4184116*
Y6139997*
X4112699*
X4099999*
X4087299*
X4015879*
Y6159367*
X4027055Y6167942*
X4039877Y6184653*
X4047939Y6204115*
X4050687Y6224998*
X4047939Y6245882*
X4039877Y6265344*
X4027055Y6282055*
X4015879Y629063*
Y6347498*
X4049999*
Y6452499*
X3889999*
Y6347498*
X3924117*
Y629063*
X3912941Y6282055*
X3900119Y6265344*
X3892057Y6245882*
X3889308Y6224998*
X3892057Y6204115*
X3900119Y6184653*
X3912941Y6167942*
X3924117Y6159367*
Y6104999*
X3927609Y608744*
X3937556Y6072555*
X3949999Y6060112*
Y5959998*
X4087299*
X4099999*
X4112699*
X4149999*
Y6049998*
X4199999*
Y5959998*
X4249999*
Y6004115*
X4409998*
Y5999998*
X4474999*
Y6074999*
X4524999*
Y5999998*
X4589998*
Y6004115*
X4698494*
X4733378Y5969231*
X4728519Y5957498*
X4704999*
Y5892497*
X4874999*
Y5957498*
X4874884*
X4749942Y6082441*
X4735057Y6092388*
X4717498Y609588*
X4589998*
Y6149997*
Y6162697*
Y6299997*
X4545878*
Y639494*
X4555472Y6398912*
X4578451Y6416545*
X4596084Y6439524*
X4600056Y6449115*
X4704999*
Y6392499*
X5094998*
Y6572498*
X4704999*
Y6540881*
X4600056*
X4596084Y6550472*
X4578451Y6573451*
X4555472Y6591081*
X4528715Y6602166*
X4499998Y6605948*
G37*
G36*
X5799998D02*
X5771283Y6602166D01*
X5744524Y6591081*
X5721545Y6573451*
X5703912Y6550472*
X5694763Y6528379*
X5634997*
Y6547497*
X5474997*
Y6442499*
X5546364*
X554994Y6440109*
X5567499Y6436616*
X5706145*
X5721545Y6416545*
X5744524Y6398912*
X5754118Y639494*
Y6299997*
X5709998*
Y6162697*
Y6149997*
Y6137297*
Y6099997*
X5799998*
X5889998*
Y6137297*
Y6149997*
Y6162697*
Y6299997*
X5845881*
Y639494*
X5855472Y6398912*
X5878451Y6416545*
X5893851Y6436616*
X6004999*
Y6392499*
X6394998*
Y6572498*
X6004999*
Y6528379*
X5905235*
X5896084Y6550472*
X5878451Y6573451*
X5855472Y6591081*
X5828715Y6602166*
X5799998Y6605948*
G37*
G36*
X10999998D02*
X10971283Y6602166D01*
X10944524Y6591081*
X10921545Y6573451*
X10903912Y6550472*
X10893188Y6524579*
X10759998*
Y6531198*
X10599999*
Y6426197*
X10759998*
Y6432816*
X10909061*
X10921545Y6416545*
X10944524Y6398912*
X10954115Y639494*
Y6249997*
X10909998*
Y6112697*
Y6099997*
Y6087297*
Y6070879*
X10733364*
X10725881Y6079998*
Y6236197*
X10759998*
Y6263698*
X10679998*
X10599999*
Y6236197*
X10634116*
Y6114999*
X10562699*
X10549999*
X10537299*
X10465879*
Y6173792*
X1046988Y6179004*
X10477939Y6198463*
X10480687Y6219347*
X10477939Y6240233*
X1046988Y6259692*
X10465879Y6264904*
Y6331198*
X10499999*
Y6436199*
X10339999*
Y6331198*
X10374116*
Y6295219*
X10359654Y6289227*
X1034294Y6276403*
X10330119Y6259692*
X10322057Y6240233*
X10319308Y6219347*
X10322057Y6198463*
X10330119Y6179004*
X1034294Y6162291*
X10359654Y6149469*
X10374116Y6143477*
Y6079998*
X10377609Y6062441*
X10387556Y6047554*
X10399999Y6035111*
Y5934999*
X10537299*
X10549999*
X10562699*
X10599999*
Y6024999*
X10649999*
Y5934999*
X10699998*
Y5979116*
X10909998*
Y5949998*
X10974997*
Y6024999*
X11024997*
Y5949998*
X11089998*
Y5979116*
X11273492*
X11283378Y5969231*
X11278519Y5957498*
X11254999*
Y5892497*
X11424998*
Y5957498*
X11424884*
X1132494Y6057442*
X11310056Y6067386*
X11292499Y6070879*
X11098979*
X11089998Y607986*
Y6099997*
Y6112697*
Y6249997*
X1104588*
Y639494*
X11055471Y6398912*
X11078451Y6416545*
X11090937Y6432816*
X11254999*
Y6392499*
X11644998*
Y6572498*
X11254999*
Y6524579*
X11106807*
X11096083Y6550472*
X11078451Y6573451*
X11055471Y6591081*
X11028715Y6602166*
X10999998Y6605948*
G37*
G36*
X8399998D02*
X8371283Y6602166D01*
X8344524Y6591081*
X8321545Y6573451*
X8303912Y6550472*
X8293188Y6524579*
X8209998*
Y6531198*
X8049999*
Y6426197*
X8209998*
Y6432816*
X8309061*
X8321545Y6416545*
X8344524Y6398912*
X8354115Y639494*
Y6249997*
X8309998*
Y6112697*
Y6099997*
Y6087297*
Y604588*
X8183364*
X8175879Y6054999*
Y6236197*
X8209998*
Y6263698*
X8129998*
X8049999*
Y6236197*
X8084116*
Y6089997*
X8012699*
X7999999*
X7987299*
X7915879*
Y6153716*
X7927055Y6162291*
X7939877Y6179004*
X7947939Y6198463*
X7950687Y6219347*
X7947939Y6240233*
X7939877Y6259692*
X7927055Y6276403*
X7915879Y6284978*
Y6331198*
X7949999*
Y6436199*
X7789999*
Y6331198*
X7824116*
Y6284978*
X781294Y6276403*
X7800119Y6259692*
X7792057Y6240233*
X7789308Y6219347*
X7792057Y6198463*
X7800119Y6179004*
X781294Y6162291*
X7824116Y6153716*
Y6054999*
X7827609Y603744*
X7837556Y6022555*
X7849999Y6010112*
Y5909998*
X7987299*
X7999999*
X8012699*
X8049999*
Y5999998*
X8099999*
Y5909998*
X8149998*
Y5954115*
X8309998*
Y5949998*
X8374997*
Y6024999*
X8424997*
Y5949998*
X8489998*
Y5954115*
X8554999*
Y5892497*
X8724999*
Y5957498*
X8724884*
X8649942Y6032441*
X8635057Y6042388*
X8617498Y604588*
X8489998*
Y6099997*
Y6112697*
Y6249997*
X8445881*
Y639494*
X8455472Y6398912*
X8478451Y6416545*
X8490935Y6432816*
X8554999*
Y6392499*
X8944998*
Y6572498*
X8554999*
Y6524579*
X8506807*
X8496081Y6550472*
X8478451Y6573451*
X8455472Y6591081*
X8428713Y6602166*
X8399998Y6605948*
G37*
G36*
X13899997D02*
X13871282Y6602166D01*
X13844526Y6591081*
X13821544Y6573451*
X13803914Y6550472*
X13792829Y6523713*
X13789164Y6495879*
X1366*
Y6502499*
X13499998*
Y6397498*
X1366*
Y6404117*
X13837742*
X13844526Y6398912*
X13854117Y639494*
Y6199997*
X1381*
Y6062698*
Y6049998*
X13799004Y604588*
X13633363*
X1362588Y6054999*
Y6207498*
X1366*
Y6234998*
X13579998*
X13499998*
Y6207498*
X13534118*
Y6089997*
X13462698*
X13449998*
X13437298*
X13365878*
Y6134366*
X13377054Y6142941*
X13389879Y6159654*
X13397941Y6179113*
X13400689Y6199997*
X13397941Y6220881*
X13389879Y6240343*
X13377054Y6257056*
X13365878Y6265628*
Y6302499*
X13399998*
Y6407497*
X13239998*
Y6302499*
X13274116*
Y6265628*
X13262942Y6257056*
X1325012Y6240343*
X13242058Y6220881*
X13239308Y6199997*
X13242058Y6179113*
X1325012Y6159654*
X13262942Y6142941*
X13274116Y6134366*
Y6054999*
X13277608Y603744*
X13287555Y6022555*
X13299998Y6010112*
Y5909998*
X13437298*
X13449998*
X13462698*
X13499998*
Y5999998*
X13549998*
Y5909998*
X13599998*
Y5954115*
X1381*
Y5899998*
X13874998*
Y5974999*
X13924998*
Y5899998*
X13989997*
Y5954115*
X14104998*
Y5892497*
X14274998*
Y5957498*
X14274883*
X14199943Y6032441*
X14185056Y6042388*
X14167497Y604588*
X1400099*
X13989997Y6049998*
Y6062698*
Y6199997*
X1394588*
Y639494*
X13955471Y6398912*
X1397845Y6416545*
X13996083Y6439524*
X14000055Y6449115*
X14104998*
Y6392499*
X14494997*
Y6572498*
X14104998*
Y6540881*
X14000055*
X13996083Y6550472*
X1397845Y6573451*
X13955471Y6591081*
X13928714Y6602166*
X13899997Y6605948*
G37*
G36*
X16699999D02*
X16671282Y6602166D01*
X16644526Y6591081*
X16621546Y6573451*
X16603913Y6550472*
X16592829Y6523713*
X16589049Y6494998*
X16585438Y6490878*
X16392199*
Y6497497*
X162322*
Y6392499*
X16392199*
Y6399115*
X16644259*
X16644526Y6398912*
X16654117Y639494*
Y6249997*
X16609999*
Y6112697*
Y6099997*
Y6087297*
Y604588*
X16352479*
X16347196Y605858*
X16354587Y6069639*
X1635808Y6087198*
Y6202499*
X16392199*
Y6229997*
X16312197*
X162322*
Y6202499*
X16266317*
Y6106203*
X16250112Y6089997*
X16249997*
Y5999998*
Y5909998*
X16299997*
Y5954115*
X16609999*
Y5949998*
X16675*
Y6024999*
X16725*
Y5949998*
X16789996*
Y5954115*
X16954997*
Y5892497*
X17124997*
Y5957498*
X17124885*
X17049943Y6032441*
X17035058Y6042388*
X17017499Y604588*
X16789996*
Y6099997*
Y6112697*
Y6249997*
X16745879*
Y639494*
X1675547Y6398912*
X16755737Y6399115*
X16954997*
Y6392499*
X17344999*
Y6572498*
X16954997*
Y6490878*
X16814558*
X16810949Y6494998*
X16807167Y6523713*
X16796082Y6550472*
X16778452Y6573451*
X1675547Y6591081*
X16728714Y6602166*
X16699999Y6605948*
G37*
G36*
X15199997D02*
X15171282Y6602166D01*
X15144523Y6591081*
X15121544Y6573451*
X15103914Y6550472*
X15092829Y6523713*
X15089047Y6494998*
X15085438Y6490878*
X1501*
Y6497497*
X14849998*
Y6392499*
X1501*
Y6399115*
X15144259*
X15144523Y6398912*
X15154117Y639494*
Y6249997*
X1511*
Y6112697*
Y6099997*
Y6087297*
Y604588*
X14983363*
X14975878Y6054999*
Y6202499*
X1501*
Y6229997*
X14929998*
X14849998*
Y6202499*
X14884118*
Y6089997*
X14812698*
X14799998*
X14787298*
X14715878*
Y6136868*
X14727054Y6145441*
X14739879Y6162154*
X14747941Y6181615*
X14750689Y6202499*
X14747941Y6223383*
X14739879Y6242842*
X14727054Y6259555*
X14715878Y626813*
Y6297498*
X14749998*
Y6402499*
X14589998*
Y6297498*
X14624116*
Y626813*
X14612942Y6259555*
X1460012Y6242842*
X14592058Y6223383*
X14589307Y6202499*
X14592058Y6181615*
X1460012Y6162154*
X14612942Y6145441*
X14624116Y6136868*
Y6054999*
X14627608Y603744*
X14637555Y6022555*
X14649998Y6010112*
Y5909998*
X14787298*
X14799998*
X14812698*
X14849998*
Y5999998*
X14899998*
Y5909998*
X14949998*
Y5954115*
X1511*
Y5949998*
X15174998*
Y6024999*
X15224998*
Y5949998*
X15289997*
Y5954115*
X15460599*
Y5892497*
X15630598*
Y5957498*
X15630484*
X15555541Y6032441*
X15540657Y6042388*
X15523098Y604588*
X15289997*
Y6099997*
Y6112697*
Y6249997*
X1524588*
Y639494*
X15255471Y6398912*
X15255737Y6399115*
X15460599*
Y6392499*
X15850598*
Y6572498*
X15460599*
Y6490878*
X15314559*
X15310949Y6494998*
X15307167Y6523713*
X15296083Y6550472*
X1527845Y6573451*
X15255471Y6591081*
X15228714Y6602166*
X15199997Y6605948*
G37*
G36*
X12449997D02*
X12421283Y6602166D01*
X12394524Y6591081*
X12371544Y6573451*
X12353914Y6550472*
X1234283Y6523713*
X1233905Y6494998*
X12335438Y6490878*
X12209998*
Y6497497*
X12049998*
Y6392499*
X12209998*
Y6399115*
X1239426*
X12394524Y6398912*
X12404117Y639494*
Y6249997*
X12359998*
Y6112697*
Y6099997*
Y6087297*
Y604588*
X12183364*
X12175878Y6054999*
Y6202499*
X12209998*
Y6229997*
X12129998*
X12049998*
Y6202499*
X12084116*
Y6089997*
X12012698*
X11999998*
X11987298*
X11915879*
Y6134366*
X11927055Y6142941*
X11939879Y6159654*
X11947939Y6179113*
X11950689Y6199997*
X11947939Y6220881*
X11939879Y6240343*
X11927055Y6257056*
X11915879Y6265628*
Y6297498*
X11949998*
Y6402499*
X11789999*
Y6297498*
X11824116*
Y6265628*
X1181294Y6257056*
X11800118Y6240343*
X11792056Y6220881*
X11789308Y6199997*
X11792056Y6179113*
X11800118Y6159654*
X1181294Y6142941*
X11824116Y6134366*
Y6054999*
X11827609Y603744*
X11837555Y6022555*
X11849999Y6010112*
Y5909998*
X11987298*
X11999998*
X12012698*
X12049998*
Y5999998*
X12099998*
Y5909998*
X12149998*
Y5954115*
X12359998*
Y5949998*
X12424999*
Y6024999*
X12474999*
Y5949998*
X12539997*
Y5954115*
X12698498*
Y5892497*
X12868498*
Y5957498*
X12868386*
X12793441Y6032441*
X12778557Y6042388*
X12760998Y604588*
X12539997*
Y6099997*
Y6112697*
Y6249997*
X1249588*
Y639494*
X12505471Y6398912*
X12505738Y6399115*
X12698498*
Y6392499*
X13088498*
Y6572498*
X12698498*
Y6490878*
X12564559*
X12560947Y6494998*
X12557165Y6523713*
X12546083Y6550472*
X1252845Y6573451*
X12505471Y6591081*
X12478715Y6602166*
X12449997Y6605948*
G37*
G36*
X9649998D02*
X9621283Y6602166D01*
X9594524Y6591081*
X9571545Y6573451*
X9553912Y6550472*
X9544763Y6528379*
X9390098*
X9372594Y6524899*
X9299999*
Y6419898*
X9459998*
Y6436616*
X9556145*
X9571545Y6416545*
X9594524Y6398912*
X9604115Y639494*
Y6249997*
X9559998*
Y6112697*
Y6099997*
Y6087297*
Y604588*
X9433364*
X9425881Y6054999*
Y6229898*
X9459998*
Y6257399*
X9379999*
Y6282397*
Y6257399*
X9299999*
Y6229898*
X9334116*
Y6089997*
X9262699*
X9249999*
X9237299*
X9165879*
Y6150566*
X9177055Y6159141*
X9189877Y6175852*
X9197939Y6195314*
X9200687Y6216197*
X9197939Y6237081*
X9189877Y6256543*
X9177055Y6273253*
X9165879Y6281828*
Y6324899*
X9199999*
Y6429898*
X9039999*
Y6324899*
X9074116*
Y6281828*
X9062943Y6273253*
X9050119Y6256543*
X9042057Y6237081*
X9039308Y6216197*
X9042057Y6195314*
X9050119Y6175852*
X9062943Y6159141*
X9074116Y6150566*
Y6054999*
X9077609Y603744*
X9087556Y6022555*
X9099999Y6010112*
Y5909998*
X9237299*
X9249999*
X9262699*
X9299999*
Y5999998*
X9349999*
Y5909998*
X9399998*
Y5954115*
X9559998*
Y5949998*
X9624997*
Y6024999*
X9674997*
Y5949998*
X9739998*
Y5954115*
X9854999*
Y5892497*
X10024999*
Y5957498*
X10024884*
X9949942Y6032441*
X9935057Y6042388*
X9917498Y604588*
X9739998*
Y6099997*
Y6112697*
Y6249997*
X9695881*
Y639494*
X9705472Y6398912*
X9728451Y6416545*
X9743851Y6436616*
X9854999*
Y6392499*
X10244998*
Y6572498*
X9854999*
Y6528379*
X9755235*
X9746084Y6550472*
X9728451Y6573451*
X9705472Y6591081*
X9678715Y6602166*
X9649998Y6605948*
G37*
G36*
X6909998Y6357498D02*
X6854997D01*
Y6329997*
X6909998*
Y6357498*
G37*
G36*
X5634997D02*
X5579999D01*
Y6329997*
X5634997*
Y6357498*
G37*
G36*
X4309999D02*
X4254997D01*
Y6329997*
X4309999*
Y6357498*
G37*
G36*
X6804997D02*
X6749999D01*
Y6329997*
X6804997*
Y6357498*
G37*
G36*
X5529999D02*
X5474997D01*
Y6329997*
X5529999*
Y6357498*
G37*
G36*
X4204997D02*
X4149999D01*
Y6329997*
X4204997*
Y6357498*
G37*
G36*
X10759998Y6341198D02*
X10704997D01*
Y6313698*
X10759998*
Y6341198*
G37*
G36*
X10654997D02*
X10599999D01*
Y6313698*
X10654997*
Y6341198*
G37*
G36*
X8209998D02*
X8154997D01*
Y6313698*
X8209998*
Y6341198*
G37*
G36*
X8104997D02*
X8049999D01*
Y6313698*
X8104997*
Y6341198*
G37*
G36*
X9459998Y6334899D02*
X9405D01*
Y6307399*
X9459998*
Y6334899*
G37*
G36*
X9355D02*
X9299999D01*
Y6307399*
X9355*
Y6334899*
G37*
G36*
X1366Y6312499D02*
X13604999D01*
Y6284998*
X1366*
Y6312499*
G37*
G36*
X13554999D02*
X13499998D01*
Y6284998*
X13554999*
Y6312499*
G37*
G36*
X16392199Y6307498D02*
X16337198D01*
Y6279997*
X16392199*
Y6307498*
G37*
G36*
X1501D02*
X14954999D01*
Y6279997*
X1501*
Y6307498*
G37*
G36*
X16287198D02*
X162322D01*
Y6279997*
X16287198*
Y6307498*
G37*
G36*
X14904999D02*
X14849998D01*
Y6279997*
X14904999*
Y6307498*
G37*
G36*
X12209998D02*
X12154997D01*
Y6279997*
X12209998*
Y6307498*
G37*
G36*
X12104997D02*
X12049998D01*
Y6279997*
X12104997*
Y6307498*
G37*
G36*
X5634997Y6279997D02*
X5554997D01*
X5474997*
Y6252499*
X5509117*
Y6099002*
X550011Y6089997*
X5499999*
Y5999998*
Y5909998*
X5549999*
Y5954115*
X6004999*
Y5892497*
X6174999*
Y5957498*
X6174884*
X6099942Y6032441*
X6085057Y6042388*
X6067498Y604588*
X5889998*
Y605*
X5799998*
X5709998*
Y604588*
X5601596*
X5594809Y605858*
X5597387Y6062438*
X560088Y6079998*
Y6252499*
X5634997*
Y6279997*
G37*
G36*
X161322Y6402499D02*
X15972198D01*
Y6297498*
X16006318*
Y6252029*
X15995142Y6243454*
X15982317Y6226743*
X15974255Y6207282*
X15971509Y6186398*
X15974255Y6165514*
X15982317Y6146053*
X15995142Y6129342*
X16006318Y6120767*
Y6089997*
X15999998*
Y5909998*
X16137298*
X16149998*
X16162698*
X16199998*
Y5999998*
Y6089997*
X16162698*
X16149998*
X16137298*
X16098078*
Y6120767*
X16109254Y6129342*
X16122078Y6146053*
X1613014Y6165514*
X16132888Y6186398*
X1613014Y6207282*
X16122078Y6226743*
X16109254Y6243454*
X16098078Y6252029*
Y6297498*
X161322*
Y6402499*
G37*
G36*
X5374998Y6452499D02*
X5214998D01*
Y6347498*
X5249115*
Y6315628*
X5237942Y6307053*
X5225117Y6290343*
X5217058Y6270881*
X5214307Y6249997*
X5217058Y6229113*
X5225117Y6209654*
X5237942Y6192941*
X5249115Y6184366*
Y6029998*
X5249999Y6025565*
Y5909998*
X5387299*
X5399999*
X5412699*
X5449999*
Y5999998*
Y6089997*
X5412699*
X5399999*
X5387299*
X534088*
Y6184366*
X5352054Y6192941*
X5364878Y6209654*
X5372938Y6229113*
X5375689Y6249997*
X5372938Y6270881*
X5364878Y6290343*
X5352054Y6307053*
X534088Y6315628*
Y6347498*
X5374998*
Y6452499*
G37*
G36*
X17344999Y5957498D02*
X17174999D01*
Y5892497*
X17344999*
Y5957498*
G37*
G36*
X15850598D02*
X15680598D01*
Y5892497*
X15850598*
Y5957498*
G37*
G36*
X14494997D02*
X14324998D01*
Y5892497*
X14494997*
Y5957498*
G37*
G36*
X13088498D02*
X12918498D01*
Y5892497*
X13088498*
Y5957498*
G37*
G36*
X11644998D02*
X11474998D01*
Y5892497*
X11644998*
Y5957498*
G37*
G36*
X10244998D02*
X10074998D01*
Y5892497*
X10244998*
Y5957498*
G37*
G36*
X8944998D02*
X8774998D01*
Y5892497*
X8944998*
Y5957498*
G37*
G36*
X7694998D02*
X7524998D01*
Y5892497*
X7694998*
Y5957498*
G37*
G36*
X6394998D02*
X6224998D01*
Y5892497*
X6394998*
Y5957498*
G37*
G36*
X5094998D02*
X4924999D01*
Y5892497*
X5094998*
Y5957498*
G37*
G36*
X17899999Y6427193D02*
X17849783Y642324D01*
X17800807Y641148*
X17754272Y6392207*
X17711326Y6365887*
X17673025Y6333177*
X17640312Y6294876*
X17613993Y625193*
X17594719Y6205395*
X17582959Y6156416*
X17579009Y6106203*
X17582959Y6055989*
X17594719Y6007011*
X17613993Y5960475*
X17640312Y5917529*
X17673025Y5879228*
X17711326Y5846516*
X17754272Y5820199*
X17800807Y5800923*
X17849783Y5789165*
X17899999Y5785213*
X17950213Y5789165*
X17999189Y5800923*
X18045724Y5820199*
X1808867Y5846516*
X18126971Y5879228*
X18159684Y5917529*
X18186003Y5960475*
X18205279Y6007011*
X18217034Y6055989*
X18220987Y6106203*
X18217034Y6156416*
X18205279Y6205395*
X18186003Y625193*
X18159684Y6294876*
X18126971Y6333177*
X1808867Y6365887*
X18045724Y6392207*
X17999189Y641148*
X17950213Y642324*
X17899999Y6427193*
G37*
G36*
X17344999Y5842497D02*
X17174999D01*
Y5777499*
X17344999*
Y5842497*
G37*
G36*
X17124997D02*
X16954997D01*
Y5777499*
X17124997*
Y5842497*
G37*
G36*
X15850598D02*
X15680598D01*
Y5777499*
X15850598*
Y5842497*
G37*
G36*
X15630598D02*
X15460599D01*
Y5777499*
X15630598*
Y5842497*
G37*
G36*
X14494997D02*
X14324998D01*
Y5777499*
X14494997*
Y5842497*
G37*
G36*
X14274998D02*
X14104998D01*
Y5777499*
X14274998*
Y5842497*
G37*
G36*
X13088498D02*
X12918498D01*
Y5777499*
X13088498*
Y5842497*
G37*
G36*
X12868498D02*
X12698498D01*
Y5777499*
X12868498*
Y5842497*
G37*
G36*
X11644998D02*
X11474998D01*
Y5777499*
X11644998*
Y5842497*
G37*
G36*
X11424998D02*
X11254999D01*
Y5777499*
X11424998*
Y5842497*
G37*
G36*
X10244998D02*
X10074998D01*
Y5777499*
X10244998*
Y5842497*
G37*
G36*
X10024999D02*
X9854999D01*
Y5777499*
X10024999*
Y5842497*
G37*
G36*
X8944998D02*
X8774998D01*
Y5777499*
X8944998*
Y5842497*
G37*
G36*
X8724999D02*
X8554999D01*
Y5777499*
X8724999*
Y5842497*
G37*
G36*
X7694998D02*
X7524998D01*
Y5777499*
X7694998*
Y5842497*
G37*
G36*
X7474999D02*
X7304999D01*
Y5777499*
X7474999*
Y5842497*
G37*
G36*
X6394998D02*
X6224998D01*
Y5777499*
X6394998*
Y5842497*
G37*
G36*
X6174999D02*
X6004999D01*
Y5777499*
X6174999*
Y5842497*
G37*
G36*
X5094998D02*
X4924999D01*
Y5777499*
X5094998*
Y5842497*
G37*
G36*
X4874999D02*
X4704999D01*
Y5777499*
X4874999*
Y5842497*
G37*
G36*
X17924998Y5608421D02*
Y5314398D01*
X18219021*
X18217034Y533961*
X18205279Y5388589*
X18186003Y5435125*
X18159684Y5478071*
X18126971Y5516372*
X1808867Y5549084*
X18045724Y5575401*
X17999189Y5594677*
X17950213Y5606435*
X17924998Y5608421*
G37*
G36*
X17874998D02*
X17849783Y5606435D01*
X17800807Y5594677*
X17754272Y5575401*
X17711326Y5549084*
X17673025Y5516372*
X17640312Y5478071*
X17613993Y5435125*
X17594719Y5388589*
X17582959Y533961*
X17580975Y5314398*
X17874998*
Y5608421*
G37*
G36*
X3524999Y5569021D02*
Y5274998D01*
X3819019*
X3817035Y5300212*
X3805278Y5349189*
X3786002Y5395724*
X3759685Y543867*
X3726972Y5476971*
X3688671Y5509684*
X3645725Y5536003*
X359919Y5555277*
X3550213Y5567034*
X3524999Y5569021*
G37*
G36*
X3474999D02*
X3449784Y5567034D01*
X3400808Y5555277*
X3354273Y5536003*
X3311326Y5509684*
X3273023Y5476971*
X3240313Y543867*
X3213994Y5395724*
X319472Y5349189*
X3182962Y5300212*
X3180976Y5274998*
X3474999*
Y5569021*
G37*
G36*
X6754997Y5255948D02*
X6726283Y5252166D01*
X6699524Y5241081*
X6676544Y5223451*
X6658914Y5200472*
X6654939Y5190878*
X6364998*
Y5197497*
X6204999*
Y5092499*
X6364998*
Y5099116*
X6654939*
X6658914Y5089525*
X6676544Y5066545*
X6699524Y5048912*
X6709117Y504494*
Y4899997*
X6639999*
Y4762698*
Y4749998*
Y4737298*
Y4720879*
X6328923*
X6322136Y4733579*
X6327388Y474144*
X6330878Y4758999*
Y4902499*
X6364998*
Y4929997*
X6284998*
X6204999*
Y4902499*
X6239116*
Y4793998*
X6167699*
X6154999*
X6142299*
X6097221*
X6091605Y4805387*
X6094879Y4809652*
X6102939Y4829114*
X6105687Y4849997*
X6102939Y4870881*
X6094879Y4890343*
X6082055Y4907053*
X6070879Y4915628*
Y4997498*
X6104999*
Y5102499*
X5944999*
Y4997498*
X5979116*
Y4915628*
X596794Y4907053*
X5955118Y4890343*
X5947056Y4870881*
X5944308Y4849997*
X5947056Y4829114*
X5955118Y4809652*
X596794Y4792941*
X5979116Y4784366*
Y4758999*
X5982609Y474144*
X5992555Y4726556*
X6004999Y4714113*
Y4613998*
X6142299*
X6154999*
X6167699*
X6204999*
Y4703998*
X6254998*
Y4613998*
X6304998*
Y4629116*
X6639999*
Y4599998*
X6704998*
Y4674999*
X6729999*
Y4699998*
X6819999*
Y4737298*
Y4749998*
Y4762698*
Y4899997*
X680088*
Y504494*
X6810474Y5048912*
X683345Y5066545*
X6851083Y5089525*
X6862165Y5116283*
X6865947Y5144998*
X6862165Y5173713*
X6851083Y5200472*
X683345Y5223451*
X6810474Y5241081*
X6783715Y5252166*
X6754997Y5255948*
G37*
G36*
X4669998Y5250947D02*
X4641283Y5247167D01*
X4614524Y5236083*
X4591545Y521845*
X4573912Y519547*
X456994Y5185879*
X4459998*
Y5192496*
X4299999*
Y5087498*
X4459998*
Y5094117*
X456994*
X4573912Y5084523*
X4591545Y5061544*
X4614524Y5043911*
X4641283Y5032829*
X4669998Y5029047*
X4698715Y5032829*
X4725471Y5043911*
X4748451Y5061544*
X4766083Y5084523*
X4777165Y5111282*
X4780948Y5139997*
X4777165Y5168714*
X4766083Y519547*
X4748451Y521845*
X4725471Y5236083*
X4698715Y5247167*
X4669998Y5250947*
G37*
G36*
X8749997Y5210947D02*
X8721283Y5207167D01*
X8694524Y5196083*
X8671544Y5178452*
X8653914Y5155473*
X8647869Y5140878*
X8509998*
Y5147497*
X8349998*
Y5042499*
X8509998*
Y5049116*
X8652012*
X8653914Y5044523*
X8671544Y5021546*
X8694524Y5003914*
X8721283Y4992829*
X8749997Y498905*
X8778714Y4992829*
X8805473Y5003914*
X882845Y5021546*
X8846083Y5044523*
X8847985Y5049116*
X9004998*
Y5017498*
X9394997*
Y5197497*
X9004998*
Y5140878*
X8852128*
X8846083Y5155473*
X882845Y5178452*
X8805473Y5196083*
X8778714Y5207167*
X8749997Y5210947*
G37*
G36*
X12379998Y5247497D02*
X11989998D01*
Y5067498*
X12036018*
X1204088Y5055765*
X11935993Y4950879*
X11515598*
Y4957498*
X11379578*
X11374719Y496923*
X11447985Y5042496*
X11515598*
Y5049116*
X11657611*
X11659514Y5044523*
X11677147Y5021546*
X11700123Y5003914*
X11726882Y4992829*
X11755597Y498905*
X11784314Y4992829*
X11811073Y5003914*
X1183405Y5021546*
X11851683Y5044523*
X11862767Y5071282*
X11866547Y5099999*
X11862767Y5128714*
X11851683Y5155473*
X1183405Y517845*
X11811073Y5196083*
X11784314Y5207167*
X11755597Y5210947*
X11726882Y5207167*
X11700123Y5196083*
X11677147Y517845*
X11659514Y5155473*
X11653469Y5140878*
X11515598*
Y5147497*
X113556*
Y5079885*
X11268298Y4992585*
X11265133Y4992847*
X11255598Y4996807*
Y5052499*
X111016*
X11098105Y5057053*
X11081392Y5069878*
X11061933Y5077937*
X11041049Y5080688*
X11020165Y5077937*
X11009198Y5073396*
X10996498Y5074998*
X10816498*
Y4937699*
Y4924999*
Y4912299*
Y4874999*
X10906498*
X10996498*
Y4918113*
X11007694Y4926411*
X11009198Y4926599*
X11020165Y4922057*
X11041049Y4919306*
X11061933Y4922057*
X11081392Y4930119*
X11098105Y4942941*
X111016Y4947498*
X11254117*
Y4849997*
X1125761Y4832441*
X11267556Y4817554*
X11382413Y4702698*
X11379151Y4689998*
X113556*
X113429*
X113056*
Y4599998*
X11255598*
Y4689998*
X11205598*
Y464588*
X11175502*
X10996498Y4824884*
Y4824999*
X10931499*
Y4760112*
X11124054Y4567555*
X11138938Y455761*
X11156497Y4554118*
X11205598*
Y4509998*
X11235095*
X11238209Y4494339*
X11248156Y4479455*
X11310056Y4417555*
X1132494Y4407608*
X11342499Y4404116*
X11663098*
X11680657Y4407608*
X11695541Y4417555*
X11927103Y4649116*
X12006668*
X12009577Y4645197*
X12003186Y4632497*
X11989998*
Y4567499*
X12159998*
Y4632497*
X12159886*
X12064941Y472744*
X12050057Y4737387*
X120325Y4740879*
X11908099*
X1189054Y4737387*
X11875655Y472744*
X11644094Y4495881*
X11373243*
X11372296Y4497298*
X11379083Y4509998*
X115056*
Y4689998*
X11476482*
Y4719398*
X11472989Y4736957*
X11463042Y4751839*
X1137412Y4840765*
X11378979Y4852499*
X11515598*
Y4859116*
X11954997*
X11972556Y4862609*
X11987441Y4872555*
X12182386Y5067498*
X12210112*
X12317554Y4960056*
X12332441Y4950109*
X12349998Y4946616*
X12506492*
X12506545Y4946545*
X12529525Y4928913*
X12556284Y4917828*
X12584998Y4914049*
X12613713Y4917828*
X12640472Y4928913*
X12663451Y4946545*
X12681084Y4969522*
X12692166Y4996281*
X12695948Y5024998*
X12692166Y5053713*
X12681084Y5080472*
X12663451Y5103451*
X12640472Y5121081*
X12613713Y5132166*
X12584998Y5135948*
X12556284Y5132166*
X12529525Y5121081*
X12506545Y5103451*
X12488915Y5080472*
X12477831Y5053713*
X12475811Y5038379*
X12369004*
X12351618Y5055765*
X12356477Y5067498*
X12379998*
Y5247497*
G37*
G36*
X6364998Y5007498D02*
X6309997D01*
Y4979997*
X6364998*
Y5007498*
G37*
G36*
X6259997D02*
X6204999D01*
Y4979997*
X6259997*
Y5007498*
G37*
G36*
X4459998Y5002496D02*
X4404997D01*
Y4974998*
X4459998*
Y5002496*
G37*
G36*
X4354997D02*
X4299999D01*
Y4974998*
X4354997*
Y5002496*
G37*
G36*
X18219021Y5264398D02*
X17924998D01*
Y4970376*
X17950213Y4972359*
X17999189Y498412*
X18045724Y5003393*
X1808867Y5029713*
X18126971Y5062425*
X18159684Y5100726*
X18186003Y5143672*
X18205279Y5190205*
X18217034Y5239184*
X18219021Y5264398*
G37*
G36*
X17874998D02*
X17580975D01*
X17582959Y5239184*
X17594719Y5190205*
X17613993Y5143672*
X17640312Y5100726*
X17673025Y5062425*
X17711326Y5029713*
X17754272Y5003393*
X17800807Y498412*
X17849783Y4972359*
X17874998Y4970376*
Y5264398*
G37*
G36*
X3819019Y5224998D02*
X3524999D01*
Y4930975*
X3550213Y4932961*
X359919Y4944719*
X3645725Y4963995*
X3688671Y4990312*
X3726972Y5023025*
X3759685Y5061325*
X3786002Y5104272*
X3805278Y5150807*
X3817035Y5199783*
X3819019Y5224998*
G37*
G36*
X3474999D02*
X3180976D01*
X3182962Y5199783*
X319472Y5150807*
X3213994Y5104272*
X3240313Y5061325*
X3273023Y5023025*
X3311326Y4990312*
X3354273Y4963995*
X3400808Y4944719*
X3449784Y4932961*
X3474999Y4930975*
Y5224998*
G37*
G36*
X8404999Y4957498D02*
X8349998D01*
Y4929997*
X8404999*
Y4957498*
G37*
G36*
X10881499Y4824999D02*
X10816498D01*
Y4774999*
X10881499*
Y4824999*
G37*
G36*
X7349998Y5379397D02*
X7337298D01*
X7199998*
Y5279285*
X7117554Y5196842*
X710761Y5181955*
X7104115Y5164396*
Y4985443*
X7099998Y4981831*
X7071283Y4978052*
X7044524Y4966967*
X7021545Y4949334*
X7003912Y4926357*
X699283Y4899599*
X6989048Y4870881*
X699283Y4842167*
X7003912Y4815408*
X7021545Y4792428*
X7044524Y4774798*
X7071283Y4763714*
X7099998Y4759934*
X7128715Y4763714*
X7155472Y4774798*
X7178451Y4792428*
X7196084Y4815408*
X7207166Y4842167*
X7210948Y4870881*
X7207166Y4899599*
X7196084Y4926357*
X719588Y4926622*
Y5145394*
X7217384Y5166895*
X7229116Y5162036*
Y4776503*
X7138306Y4685692*
X7128713Y4689665*
X7099998Y4693447*
X7071283Y4689665*
X7044524Y4678583*
X7021545Y466095*
X7003912Y4637973*
X699283Y4611212*
X6989048Y4582497*
X699283Y4553783*
X7003912Y4527024*
X7021545Y4504044*
X7044524Y4486414*
X7071283Y447533*
X7099998Y447155*
X7128713Y447533*
X7155472Y4486414*
X7178451Y4504044*
X7196081Y4527024*
X7207166Y4553783*
X7210948Y4582497*
X7207166Y4611212*
X7203193Y4620806*
X7307442Y4725055*
X7317386Y4739939*
X7320879Y4757498*
Y5190418*
X732986Y5199397*
X7349998*
X7362698*
X7379116*
Y4724999*
X7382609Y470744*
X7392555Y4692556*
X7496804Y4588306*
X7492829Y4578715*
X748905Y4549998*
X7492829Y4521283*
X7503914Y4494524*
X7521544Y4471545*
X7544523Y4453912*
X7571282Y444283*
X7599997Y4439048*
X7628714Y444283*
X7655473Y4453912*
X767845Y4471545*
X7696083Y4494524*
X7707167Y4521283*
X7710947Y4549998*
X7707167Y4578715*
X7696083Y4605474*
X767845Y4628451*
X7655473Y4646084*
X7628714Y4657166*
X7599997Y4660948*
X7571282Y4657166*
X7561691Y4653193*
X7470879Y4744003*
Y5199397*
X7499997*
Y5243517*
X7512878*
X7554117Y5202278*
Y4950056*
X7544523Y4946083*
X7521544Y492845*
X7503914Y4905474*
X7492829Y4878715*
X748905Y4849997*
X7492829Y4821283*
X7503914Y4794524*
X7521544Y4771544*
X7544523Y4753914*
X7571282Y474283*
X7599997Y473905*
X7628714Y474283*
X7655473Y4753914*
X767845Y4771544*
X7696083Y4794524*
X7707167Y4821283*
X7710947Y4849997*
X7707167Y4878715*
X7696083Y4905474*
X767845Y492845*
X7655473Y4946083*
X764588Y4950056*
Y5221282*
X7642387Y5238841*
X763244Y5253725*
X7564325Y5321841*
X7549441Y5331787*
X7531884Y533528*
X7499997*
Y5379397*
X7362698*
X7349998*
G37*
G36*
X12609997Y4807656D02*
Y4724996D01*
X12692656*
X12692166Y4728715*
X12681084Y4755471*
X12663451Y4778451*
X12640472Y4796083*
X12613713Y4807165*
X12609997Y4807656*
G37*
G36*
X4424997Y4669998D02*
X4374997D01*
Y4604997*
X4424997*
Y4669998*
G37*
G36*
X4199999Y5097498D02*
X4039999D01*
Y4992497*
X4074116*
Y4915628*
X406294Y4907053*
X4050118Y4890343*
X4042056Y4870881*
X4039308Y4849997*
X4042056Y4829114*
X4050118Y4809652*
X406294Y4792941*
X4074116Y4784366*
Y4774996*
X4077609Y475744*
X4087555Y4742555*
X4124998Y4705111*
Y4604997*
X4262297*
X4274997*
X4287697*
X4324997*
Y4694996*
X4349998*
Y4719998*
X4424997*
Y4720564*
X4425878Y4724996*
Y4897498*
X4459998*
Y4924996*
X4379998*
X4299999*
Y4897498*
X4334116*
Y4784996*
X4274997*
X4262297*
X418676*
X4180705Y4797696*
X4189879Y4809652*
X4197939Y4829114*
X4200687Y4849997*
X4197939Y4870881*
X4189879Y4890343*
X4177055Y4907053*
X4165879Y4915628*
Y4992497*
X4199999*
Y5097498*
G37*
G36*
X6819999Y4649998D02*
X6754997D01*
Y4599998*
X6819999*
Y4649998*
G37*
G36*
X12559997Y4807656D02*
X12556284Y4807165D01*
X12529525Y4796083*
X12506545Y4778451*
X12488915Y4755471*
X1248494Y474588*
X12342497*
X12324941Y4742388*
X12310056Y4732441*
X12210112Y4632497*
X12209998*
Y4567499*
X12379998*
Y4632497*
X12356477*
X12351618Y4644232*
X12361504Y4654115*
X1248494*
X12488915Y4644524*
X12506545Y4621545*
X12529525Y4603912*
X12556284Y459283*
X12559997Y459234*
Y4699998*
Y4807656*
G37*
G36*
X12692656Y4674999D02*
X12609997D01*
Y459234*
X12613713Y459283*
X12640472Y4603912*
X12663451Y4621545*
X12681084Y4644524*
X12692166Y4671283*
X12692656Y4674999*
G37*
G36*
X8449998Y4594999D02*
X8399998D01*
Y4529998*
X8449998*
Y4594999*
G37*
G36*
X9394997Y4582497D02*
X9224998D01*
Y4517499*
X9394997*
Y4582497*
G37*
G36*
X8249998Y5052499D02*
X8089999D01*
Y4947498*
X8124118*
Y4865629*
X8112942Y4857056*
X8100118Y4840343*
X8092059Y4820881*
X8089308Y4799998*
X8092059Y4779114*
X8100118Y4759652*
X8112942Y4742942*
X8124118Y4734366*
Y4674999*
X8127608Y465744*
X8137555Y4642553*
X8149998Y4630112*
Y4529998*
X8287298*
X8299998*
X8312698*
X8349998*
Y4619998*
X8374999*
Y4644999*
X8464075*
X8472388Y465744*
X847588Y4674999*
Y4852499*
X8509998*
Y4859116*
X8768494*
X903338Y4594232*
X9028518Y4582497*
X9004998*
Y4517499*
X9174998*
Y4582497*
X9174886*
X8819941Y4937442*
X8805057Y4947386*
X8787498Y4950879*
X8509998*
Y4957498*
X8454999*
Y4904999*
X8429998*
Y4879997*
X8349998*
Y4852499*
X8384118*
Y4709998*
X8312698*
X8299998*
X8287298*
X8215881*
Y4734366*
X8227054Y4742942*
X8239879Y4759652*
X8247938Y4779114*
X8250689Y4799998*
X8247938Y4820881*
X8239879Y4840343*
X8227054Y4857056*
X8215881Y4865629*
Y4947498*
X8249998*
Y5052499*
G37*
G36*
X12379998Y4517499D02*
X12209998D01*
Y4452498*
X12379998*
Y4517499*
G37*
G36*
X12159998D02*
X11989998D01*
Y4452498*
X12159998*
Y4517499*
G37*
G36*
X9394997Y4467499D02*
X9224998D01*
Y4402498*
X9394997*
Y4467499*
G37*
G36*
X9174998D02*
X9004998D01*
Y4402498*
X9174998*
Y4467499*
G37*
%LNldo_test_copper_signal_top-3*%
%LPD*%
G54D10*
X7274999Y5289397D03*
X7424999D03*
X11280599Y4599998D03*
X11430599D03*
X4349998Y4694996D03*
X4199999D03*
X8374999Y4619998D03*
X8224997D03*
X6229997Y4703998D03*
X6079998D03*
X16224999Y5999998D03*
X16074999D03*
X12074999D03*
X11924997D03*
X13524999D03*
X13374999D03*
X14874999D03*
X14724999D03*
X10624997Y6024999D03*
X10474998D03*
X9324997Y5999998D03*
X9174998D03*
X8074997D03*
X7924998D03*
X6774997Y6054999D03*
X6624998D03*
X5474997Y5999998D03*
X5324998D03*
X4174998Y6049998D03*
X4024998D03*
X16274999Y7474999D03*
X16124999D03*
X14899998Y7549997D03*
X14749998D03*
X13524999Y7499997D03*
X13374999D03*
X12049998D03*
X11899999D03*
X10654997D03*
X10504998D03*
X9299999Y7474999D03*
X9149999D03*
X8074997Y7499997D03*
X7924998D03*
X6774997D03*
X6624998D03*
X5524997D03*
X5374998D03*
X4174998Y7549997D03*
X4024998D03*
X16224999Y8899999D03*
X16074999D03*
X13524999D03*
X13374999D03*
X14874999D03*
X14724999D03*
X8074997Y8949999D03*
X7924998D03*
X9324997D03*
X9174998D03*
X10624997D03*
X10474998D03*
X12074999Y8849997D03*
X11924997D03*
X6779999Y8949999D03*
X6629999D03*
X5474997Y8899999D03*
X5324998D03*
X4174998Y8949999D03*
X4024998D03*
X16274999Y10499999D03*
X16124999D03*
X14874999D03*
X14724999D03*
X13524999Y10449999D03*
X13374999D03*
X12074999D03*
X11924997D03*
X10624997Y10499999D03*
X10474998D03*
X9324997D03*
X9174998D03*
X8104997D03*
X7954998D03*
X6779999Y10549999D03*
X6629999D03*
X5524997Y10499999D03*
X5374998D03*
X4174998D03*
X4024998D03*
X16257198Y11869999D03*
X16107199D03*
X14874999D03*
X14724999D03*
X9324997Y11849999D03*
X9174998D03*
X13524999Y11872498D03*
X13374999D03*
X12049998Y11847499D03*
X11899999D03*
X10624997Y11849999D03*
X10474998D03*
X7974998Y11872498D03*
X8124997D03*
X6649999Y11849999D03*
X6799999D03*
X5374998Y11872498D03*
X5524997D03*
X4024998Y11898299D03*
X4174998D03*
G54D11*
X10906498Y4849997D03*
Y4999997D03*
X6729999Y4674999D03*
Y4824999D03*
X16699999Y6024999D03*
Y6174999D03*
X12449997Y6024999D03*
Y6174999D03*
X13899997Y5974999D03*
Y6124999D03*
X15199997Y6024999D03*
Y6174999D03*
X10999998Y6024999D03*
Y6174999D03*
X9649998Y6024999D03*
Y6174999D03*
X8399998Y6024999D03*
Y6174999D03*
X7099998Y6119898D03*
Y6269898D03*
X5799998Y6074999D03*
Y6224998D03*
X4499998Y6074999D03*
Y6224998D03*
X16699997Y7474999D03*
Y7624998D03*
X15199997Y7524998D03*
Y7674998D03*
X13899997Y7474999D03*
Y7624998D03*
X12449997Y7524998D03*
Y7674998D03*
X10999998Y7524998D03*
Y7674998D03*
X9649998Y7474999D03*
Y7624998D03*
X8399998Y7524998D03*
Y7674998D03*
X7099998Y7474999D03*
Y7624998D03*
X5799998Y7524998D03*
Y7674998D03*
X4499998Y7524998D03*
Y7674998D03*
X16699999Y8874998D03*
Y9024998D03*
X13899997Y8924998D03*
Y9074998D03*
X15199997Y8924998D03*
Y9074998D03*
X8399998Y8992499D03*
Y9142498D03*
X9649998Y8974998D03*
Y9124998D03*
X10999998Y8924998D03*
Y9074998D03*
X12449997Y8874998D03*
Y9024998D03*
X7099998Y8924998D03*
Y9074998D03*
X4499998Y8949999D03*
Y9099999D03*
X5799998Y8949999D03*
Y9099999D03*
X16699999Y10524998D03*
Y10674997D03*
X15199997Y10524998D03*
Y10674997D03*
X13899997Y10474998D03*
Y10624997D03*
X12449997Y10474998D03*
Y10624997D03*
X10999998Y10524998D03*
Y10674997D03*
X9649998Y10524998D03*
Y10674997D03*
X8399998Y10524998D03*
Y10674997D03*
X7099998Y10524998D03*
Y10674997D03*
X5799998Y10524998D03*
Y10674997D03*
X4499998Y10549999D03*
Y10699998D03*
X16699999Y11869999D03*
Y12019998D03*
X15199997Y11869999D03*
Y12019998D03*
X13899997Y11897499D03*
Y12047499D03*
X12449997Y11847499D03*
Y11997499D03*
X10999998Y11874997D03*
Y12024997D03*
X9649998Y11849999D03*
Y11999998D03*
X7099998Y12024997D03*
Y11874997D03*
X8399998Y12022498D03*
Y11872498D03*
X5799998Y12024997D03*
Y11874997D03*
X4499998Y12074999D03*
Y11924997D03*
G54D12*
X12184999Y4542497D03*
Y5157497D03*
X10049997Y9382498D03*
Y8767498D03*
X14299999Y10957499D03*
Y10342499D03*
X6199997Y10957499D03*
Y10342499D03*
X4899997Y10957499D03*
Y10342499D03*
X17149998Y12352497D03*
Y11737497D03*
X15655599Y12339398D03*
Y11724398D03*
X14299999Y12329998D03*
Y11714998D03*
X12893499Y12316899D03*
Y11701899D03*
X11449999Y12307498D03*
Y11692498D03*
X10049997Y12307498D03*
Y11692498D03*
X8749997Y12307498D03*
Y11692498D03*
X7499997Y12307498D03*
Y11692498D03*
X6199997Y12307498D03*
Y11692498D03*
X4899997Y12307498D03*
Y11692498D03*
X6199997Y8767498D03*
Y9382498D03*
X4899997Y8767498D03*
Y9382498D03*
X12893499Y8767498D03*
Y9382498D03*
X11449999Y8767498D03*
Y9382498D03*
X8749997Y8767498D03*
Y9382498D03*
X7499997Y8767498D03*
Y9382498D03*
X15655599Y8767498D03*
Y9382498D03*
X14299999Y8767498D03*
Y9382498D03*
X8749997Y7397498D03*
Y8012498D03*
X7499997Y7397498D03*
Y8012498D03*
X6199997Y7397498D03*
Y8012498D03*
X4887498Y7397498D03*
Y8012498D03*
X17149998Y8767498D03*
Y9382498D03*
X11449999Y7397498D03*
Y8012498D03*
X10049997Y7397498D03*
Y8012498D03*
X4899997Y5867499D03*
Y6482499D03*
X17149998Y7397498D03*
Y8012498D03*
X15655599Y7397498D03*
Y8012498D03*
X14299999Y7397498D03*
Y8012498D03*
X12893499Y7397498D03*
Y8012498D03*
X7499997Y5867499D03*
Y6482499D03*
X6199997Y5867499D03*
Y6482499D03*
X14299999Y5867499D03*
Y6482499D03*
X12893499Y5867499D03*
Y6482499D03*
X11449999Y5867499D03*
Y6482499D03*
X10049997Y5867499D03*
Y6482499D03*
X8749997Y5867499D03*
Y6482499D03*
X17149998Y5867499D03*
Y6482499D03*
X15655599Y5867499D03*
Y6482499D03*
X9199999Y4492498D03*
Y5107498D03*
X8749997Y10342499D03*
Y10957499D03*
X7499997Y10342499D03*
Y10957499D03*
X11449999Y10342499D03*
Y10957499D03*
X10049997Y10342499D03*
Y10957499D03*
X12893499Y10342499D03*
Y10957499D03*
X17149998Y10342499D03*
Y10957499D03*
X15655599Y10342499D03*
Y10957499D03*
G54D13*
X11869999Y10849998D03*
X12129998Y10944999D03*
Y10754997D03*
X5294998Y10849998D03*
X5554997Y10944999D03*
Y10754997D03*
X16052198Y12260498D03*
X16312197Y12355499D03*
Y12165497D03*
X14669998Y12260498D03*
X14929998Y12355499D03*
Y12165497D03*
X10419999Y12214999D03*
X10679998Y12309998D03*
Y12119998D03*
X9119999Y12199998D03*
X9379999Y12294999D03*
Y12104999D03*
X7869999Y12224999D03*
X8129998Y12319998D03*
Y12129998D03*
X5294998Y12224999D03*
X5554997Y12319998D03*
Y12129998D03*
X3969999Y12214999D03*
X4229999Y12309998D03*
Y12119998D03*
X4379998Y4949997D03*
Y5139997D03*
X4119999Y5044998D03*
X6829999Y12129998D03*
Y12319998D03*
X6569999Y12224999D03*
X5554997Y9204998D03*
Y9394997D03*
X5294998Y9299999D03*
X4229999Y9204998D03*
Y9394997D03*
X3969999Y9299999D03*
X12129998Y9154998D03*
Y9344997D03*
X11869999Y9249999D03*
X10679998Y9154998D03*
Y9344997D03*
X10419999Y9249999D03*
X9379999Y9204998D03*
Y9394997D03*
X9119999Y9299999D03*
X8129998Y9204998D03*
Y9394997D03*
X7869999Y9299999D03*
X6829999Y9204998D03*
Y9394997D03*
X6569999Y9299999D03*
X14929998Y9159999D03*
Y9349999D03*
X14669998Y9254998D03*
X13579998Y9154998D03*
Y9344997D03*
X13319998Y9249999D03*
X8129998Y7804998D03*
Y7994997D03*
X7869999Y7899999D03*
X6829999Y7804998D03*
Y7994997D03*
X6569999Y7899999D03*
X5554997Y7804998D03*
Y7994997D03*
X5294998Y7899999D03*
X4229999Y7804998D03*
Y7994997D03*
X3969999Y7899999D03*
X16312197Y9147497D03*
Y9337499D03*
X16052198Y9242498D03*
X10679998Y7804998D03*
Y7994997D03*
X10419999Y7899999D03*
X9379999Y7804998D03*
Y7994997D03*
X9119999Y7899999D03*
X4229999Y6304998D03*
Y6494998D03*
X3969999Y6399999D03*
X16312197Y7804998D03*
Y7994997D03*
X16052198Y7899999D03*
X14929998Y7804998D03*
Y7994997D03*
X14669998Y7899999D03*
X13579998Y7804998D03*
Y7994997D03*
X13319998Y7899999D03*
X12129998Y7804998D03*
Y7994997D03*
X11869999Y7899999D03*
X6829999Y6304998D03*
Y6494998D03*
X6569999Y6399999D03*
X5554997Y6304998D03*
Y6494998D03*
X5294998Y6399999D03*
X13579998Y6259997D03*
Y6449999D03*
X13319998Y6354998D03*
X12129998Y6254998D03*
Y6444998D03*
X11869999Y635D03*
X10679998Y6288699D03*
Y6478699D03*
X10419999Y6383698D03*
X9379999Y6282397D03*
Y6472397D03*
X9119999Y6377398D03*
X8129998Y6288699D03*
Y6478699D03*
X7869999Y6383698D03*
X16312197Y6254998D03*
Y6444998D03*
X16052198Y635D03*
X14929998Y6254998D03*
Y6444998D03*
X14669998Y635D03*
X6284998Y4954998D03*
Y5144998D03*
X6024999Y5049997D03*
X8429998Y4904999D03*
Y5094998D03*
X8169998Y4999997D03*
X13579998Y12127499D03*
Y12317498D03*
X13319998Y12222497D03*
X12129998Y12127499D03*
Y12317498D03*
X11869999Y12222497D03*
X11435598Y4904999D03*
Y5094998D03*
X11175598Y4999997D03*
X4229999Y10754997D03*
Y10944999D03*
X3969999Y10849998D03*
X8129998Y10754997D03*
Y10944999D03*
X7869999Y10849998D03*
X6829999Y10754997D03*
Y10944999D03*
X6569999Y10849998D03*
X10679998Y10754997D03*
Y10944999D03*
X10419999Y10849998D03*
X9379999Y10754997D03*
Y10944999D03*
X9119999Y10849998D03*
X13579998Y10754997D03*
Y10944999D03*
X13319998Y10849998D03*
X16312197Y10754997D03*
Y10944999D03*
X16052198Y10849998D03*
X14929998Y10754997D03*
Y10944999D03*
X14669998Y10849998D03*
G54D14*
X7599997Y4849997D02*
Y5221282D01*
X7531884Y5289397D02*
X7599997Y5221282D01*
X7424999Y5289397D02*
X7531884D01*
X7424999Y4724999D02*
X7599997Y4549998D01*
X7424999Y4724999D02*
Y5289397D01*
X7099998Y4870881D02*
X7149998Y4920881D01*
Y5164396*
X7274999Y5289397*
X7099998Y4582497D02*
X7274999Y4757498D01*
Y5289397*
X120325Y4694996D02*
X12184999Y4542497D01*
X11908099Y4694996D02*
X120325D01*
X11663098Y4449998D02*
X11908099Y4694996D01*
X11342499Y4449998D02*
X11663098D01*
X11280599Y4511898D02*
X11342499Y4449998D01*
X11280599Y4511898D02*
Y4599998D01*
X10906498Y4999997D02*
D01*
X11175598*
X10906498Y4849997D02*
X11156497Y4599998D01*
X11280599*
X11299997Y4959398D02*
X11435598Y5094998D01*
X11299997Y4849997D02*
Y4959398D01*
Y4849997D02*
X11430599Y4719398D01*
Y4599998D02*
Y4719398D01*
X12342497Y4699998D02*
X12584998D01*
X12184999Y4542497D02*
X12342497Y4699998D01*
X12552499Y4992499D02*
X12584998Y5024998D01*
X12349998Y4992499D02*
X12552499D01*
X12184999Y5157497D02*
X12349998Y4992499D01*
X12184999Y5134998D02*
Y5157497D01*
X11954997Y4904999D02*
X12184999Y5134998D01*
X11435598Y4904999D02*
X11954997D01*
X11750598Y5094998D02*
X11755597Y5099999D01*
X11435598Y5094998D02*
X11750598D01*
X8787498Y4904999D02*
X9199999Y4492498D01*
X8429998Y4904999D02*
X8787498D01*
X8169998Y4674999D02*
X8224997Y4619998D01*
X8169998Y4674999D02*
Y4999997D01*
X8374999Y4619998D02*
X8429998Y4674999D01*
Y4904999*
Y5094998D02*
X9187497D01*
X9199999Y5107498*
X6229997Y4703998D02*
X6258999Y4674999D01*
X6729999*
X6024999Y4758999D02*
X6079998Y4703998D01*
X6024999Y4758999D02*
Y5049997D01*
X6229997Y4703998D02*
X6284998Y4758999D01*
Y4954998*
X6729999Y4824999D02*
X6754997Y4849997D01*
Y5144998*
X6284998D02*
X6754997D01*
X4379998Y5139997D02*
X4669998D01*
X4119999Y4774996D02*
X4199999Y4694996D01*
X4119999Y4774996D02*
Y5044998D01*
X4349998Y4694996D02*
X4379998Y4724996D01*
Y4949997*
X14669998Y7629999D02*
X14749998Y7549997D01*
X14669998Y7629999D02*
Y7899999D01*
X14899998Y7549997D02*
X155031D01*
X14899998D02*
X14929998Y7579997D01*
Y7804998*
X155031Y7549997D02*
X15655599Y7397498D01*
X15199997Y7994997D02*
X15638099D01*
X14929998D02*
X15199997D01*
Y7999999*
Y7674998D02*
Y7994997D01*
X15638099D02*
X15655599Y8012498D01*
X13524999Y7499997D02*
X141975D01*
X14299999Y7397498*
X13899997Y7994997D02*
X14282498D01*
X13579998D02*
X13899997D01*
Y7999999*
Y7624998D02*
Y7994997D01*
Y7624998D02*
D01*
X14282498Y7994997D02*
X14299999Y8012498D01*
X13524999Y7499997D02*
X13579998Y7554998D01*
Y7804998*
X13319998Y7554998D02*
X13374999Y7499997D01*
X13319998Y7554998D02*
Y7899999D01*
X11869999Y7529997D02*
X11899999Y7499997D01*
X11869999Y7529997D02*
Y7899999D01*
X12049998Y7499997D02*
X12790998D01*
X12049998D02*
X12129998Y7579997D01*
Y7804998*
X12790998Y7499997D02*
X12893499Y7397498D01*
X12449997Y7994997D02*
X12875996D01*
X12129998D02*
X12449997D01*
Y7999999*
Y7674998D02*
Y7994997D01*
Y7674998D02*
D01*
X12875996Y7994997D02*
X12893499Y8012498D01*
X10999998Y7994997D02*
Y7999999D01*
Y7674998D02*
Y7994997D01*
X11432499*
X10679998D02*
X10999998D01*
X11432499D02*
X11449999Y8012498D01*
X10654997Y7499997D02*
X11347498D01*
X11449999Y7397498*
X10654997Y7499997D02*
X10679998Y7524998D01*
Y7804998*
X10419999Y7584998D02*
X10504998Y7499997D01*
X10419999Y7584998D02*
Y7899999D01*
X9649998Y7994997D02*
Y7999999D01*
Y7624998D02*
Y7994997D01*
X10032499*
X9379999D02*
X9649998D01*
X10032499D02*
X10049997Y8012498D01*
X9649998Y7624998D02*
D01*
X9299999Y7474999D02*
X9972499D01*
X10049997Y7397498*
X9299999Y7474999D02*
X9379999Y7554998D01*
Y7804998*
X9119999Y7504998D02*
X9149999Y7474999D01*
X9119999Y7504998D02*
Y7899999D01*
X7869999Y7554998D02*
X7924998Y7499997D01*
X7869999Y7554998D02*
Y7899999D01*
X8074997Y7499997D02*
X8647498D01*
X8074997D02*
X8129998Y7554998D01*
Y7804998*
X8647498Y7499997D02*
X8749997Y7397498D01*
X8399998Y7994997D02*
X8732497D01*
X8129998D02*
X8399998D01*
Y7999999*
Y7674998D02*
Y7994997D01*
X8732497D02*
X8749997Y8012498D01*
X6569999Y7554998D02*
X6624998Y7499997D01*
X6569999Y7554998D02*
Y7899999D01*
X6774997Y7499997D02*
X7397498D01*
X6774997D02*
X6829999Y7554998D01*
Y7804998*
X7099998Y7994997D02*
X7482497D01*
X6829999D02*
X7099998D01*
Y7999999*
Y7624998D02*
Y7994997D01*
X7397498Y7499997D02*
X7499997Y7397498D01*
X7482497Y7994997D02*
X7499997Y8012498D01*
X5799998Y7994997D02*
Y7999999D01*
Y7674998D02*
Y7994997D01*
X6182497*
X5554997D02*
X5799998D01*
X6182497D02*
X6199997Y8012498D01*
X5799998Y7674998D02*
D01*
X5524997Y7499997D02*
X6097498D01*
X6199997Y7397498*
X5524997Y7499997D02*
X5554997Y7529997D01*
Y7804998*
X5294998Y7579997D02*
X5374998Y7499997D01*
X5294998Y7579997D02*
Y7899999D01*
X13579998Y12317498D02*
X142875D01*
X14299999Y12329998*
X13899997Y12047499D02*
D01*
Y12316899*
X13524999Y11872498D02*
X14142499D01*
X14299999Y11714998*
X13524999Y11872498D02*
X13579998Y11927499D01*
Y12127499*
X13319998Y11927497D02*
X13374999Y11872498D01*
X13319998Y11927497D02*
Y12222497D01*
X4174998Y6049998D02*
X4717498D01*
X4899997Y5867499*
X3969999Y6104999D02*
X4024998Y6049998D01*
X3969999Y6104999D02*
Y6399999D01*
X4174998Y6049998D02*
X4229999Y6104996D01*
Y6304998*
X4499998Y6224998D02*
D01*
Y6494998*
X4887498*
X4229999D02*
X4499998D01*
X4887498D02*
X4899997Y6482499D01*
X5799998D02*
X6199997D01*
X5567499D02*
X5799998D01*
Y6494998*
Y6224998D02*
Y6482499D01*
Y6224998D02*
D01*
X5294998Y6029998D02*
X5324998Y5999998D01*
X5294998Y6029998D02*
Y6399999D01*
X5474997Y5999998D02*
X6067498D01*
X6199997Y5867499*
X5474997Y5999998D02*
X5554997Y6079998D01*
Y6304998*
Y6494998D02*
X5567499Y6482499D01*
X6569999Y6109997D02*
X6624998Y6054999D01*
X6569999Y6109997D02*
Y6399999D01*
X6774997Y6054999D02*
X7312499D01*
X6774997D02*
X6829999Y6109997D01*
Y6304998*
X7099998Y6494998D02*
X7487498D01*
X6829999D02*
X7099998D01*
X7487498D02*
X7499997Y6482499D01*
X7099998Y6269898D02*
D01*
Y6494998*
X7312499Y6054999D02*
X7499997Y5867499D01*
X7869999Y6054999D02*
X7924998Y5999998D01*
X7869999Y6054999D02*
Y6383698D01*
X8074997Y5999998D02*
X8617498D01*
X8749997Y5867499*
X8074997Y5999998D02*
X8129998Y6054999D01*
Y6288699*
X8399998Y6478699D02*
X8746197D01*
X8129998D02*
X8399998D01*
Y6494998*
Y6174999D02*
Y6478699D01*
X8746197D02*
X8749997Y6482499D01*
X9324997Y5999998D02*
X9917498D01*
X10049997Y5867499*
X9649998Y6482499D02*
X10049997D01*
X9390098D02*
X9649998D01*
Y6494998*
Y6174999D02*
Y6482499D01*
Y6174999D02*
D01*
X9119999Y6054999D02*
X9174998Y5999998D01*
X9119999Y6054999D02*
Y6377398D01*
X9324997Y5999998D02*
X9379999Y6054999D01*
Y6282397*
Y6472397D02*
X9390098Y6482499D01*
X10419999Y6079998D02*
X10474998Y6024999D01*
X10419999Y6079998D02*
Y6383698D01*
X10624997Y6024999D02*
X10679998Y6079998D01*
Y6288699*
X10999998Y6024999D02*
X11292499D01*
X10624997D02*
X10999998D01*
X11292499D02*
X11449999Y5867499D01*
X10999998Y6478699D02*
X11446197D01*
X10679998D02*
X10999998D01*
Y6494998*
Y6174999D02*
Y6478699D01*
Y6174999D02*
D01*
X11446197Y6478699D02*
X11449999Y6482499D01*
X11869999Y6054999D02*
X11924997Y5999998D01*
X11869999Y6054999D02*
Y635D01*
X13319998Y6054999D02*
X13374999Y5999998D01*
X13319998Y6054999D02*
Y6354998D01*
X13524999Y5999998D02*
X14167497D01*
X13524999D02*
X13579998Y6054999D01*
Y6259997*
X12074999Y5999998D02*
X12760998D01*
X12074999D02*
X12129998Y6054999D01*
Y6254998*
X12760998Y5999998D02*
X12893499Y5867499D01*
X12449997Y6444998D02*
X12855999D01*
X12129998D02*
X12449997D01*
Y6494998*
Y6174999D02*
Y6444998D01*
Y6174999D02*
D01*
X12855999Y6444998D02*
X12893499Y6482499D01*
X14167497Y5999998D02*
X14299999Y5867499D01*
X13899997Y6124999D02*
D01*
Y6494998*
X13854998Y6449999D02*
X13899997Y6494998D01*
X13579998Y6449999D02*
X13854998D01*
X142875Y6494998D02*
X14299999Y6482499D01*
X13899997Y6494998D02*
X142875D01*
X14669998Y6054999D02*
X14724999Y5999998D01*
X14669998Y6054999D02*
Y635D01*
X14874999Y5999998D02*
X15523098D01*
X15655599Y5867499*
X14874999Y5999998D02*
X14929998Y6054999D01*
Y6254998*
X15199997Y6444998D02*
X15618099D01*
X14929998D02*
X15199997D01*
Y6494998*
Y6174999D02*
Y6444998D01*
X15618099D02*
X15655599Y6482499D01*
X16699999Y6444998D02*
Y6494998D01*
Y6174999D02*
Y6444998D01*
X17112498*
X16312197D02*
X16699999D01*
X17112498D02*
X17149998Y6482499D01*
X16699999Y6174999D02*
D01*
X16224999Y5999998D02*
X17017499D01*
X17149998Y5867499*
X16224999Y5999998D02*
X16312197Y6087198D01*
Y6254998*
X16052198Y6022799D02*
X16074999Y5999998D01*
X16052198Y6022799D02*
Y635D01*
Y7547797D02*
X16124999Y7474999D01*
X16052198Y7547797D02*
Y7899999D01*
X16274999Y7474999D02*
X170725D01*
X16274999D02*
X16312197Y7512199D01*
Y7804998*
X170725Y7474999D02*
X17149998Y7397498D01*
X16329698Y8012498D02*
X17149998D01*
X16699997Y7624998D02*
X16699999D01*
Y7999999*
X16312197Y7994997D02*
X16329698Y8012498D01*
X16052198Y8922799D02*
X16074999Y8899999D01*
X16052198Y8922799D02*
Y9242498D01*
X16224999Y8899999D02*
X17017499D01*
X16224999D02*
X16312197Y8987198D01*
Y9147497*
X17017499Y8899999D02*
X17149998Y8767498D01*
X16312197Y9337499D02*
X17104997D01*
X16699999Y9024998D02*
D01*
Y9299999*
X17104997Y9337499D02*
X17149998Y9382498D01*
X16052198Y10572798D02*
X16124999Y10499999D01*
X16052198Y10572798D02*
Y10849998D01*
X16699999Y10944999D02*
X17137499D01*
X16312197D02*
X16699999D01*
Y10957499*
Y10674997D02*
Y10944999D01*
Y10674997D02*
D01*
X16274999Y10499999D02*
X16992498D01*
X17149998Y10342499*
X16274999Y10499999D02*
X16312197Y10537197D01*
Y10754997*
X17137499Y10944999D02*
X17149998Y10957499D01*
X14929998Y9349999D02*
X15623098D01*
X15199997Y9074998D02*
Y9344997D01*
X14874999Y8899999D02*
X15523098D01*
X15655599Y8767498*
X14669998Y8954998D02*
X14724999Y8899999D01*
X14669998Y8954998D02*
Y9254998D01*
X14874999Y8899999D02*
X14929998Y8954998D01*
Y9159999*
X15623098Y9349999D02*
X15655599Y9382498D01*
X15187498Y10944999D02*
X15199997Y10932497D01*
Y10957499D02*
X15655599D01*
X14874999Y10499999D02*
X15498099D01*
X15655599Y10342499*
X15199997Y10674997D02*
Y10932497D01*
X14929998Y10944999D02*
X15187498D01*
X14874999Y10499999D02*
X14929998Y10554997D01*
Y10754997*
X14669998Y10554997D02*
X14724999Y10499999D01*
X14669998Y10554997D02*
Y10849998D01*
X13899997Y10944999D02*
Y10957499D01*
Y10624997D02*
Y10944999D01*
X142875*
X13579998D02*
X13899997D01*
X142875D02*
X14299999Y10957499D01*
X13319998Y10504998D02*
X13374999Y10449999D01*
X13319998Y10504998D02*
Y10849998D01*
X13524999Y10449999D02*
X14192498D01*
X13524999D02*
X13579998Y10504998D01*
Y10754997*
X13899997Y10624997D02*
D01*
X14192498Y10449999D02*
X14299999Y10342499D01*
X12074999Y10449999D02*
X12785999D01*
X12893499Y10342499*
X12449997Y10944999D02*
X12880997D01*
X12129998D02*
X12449997D01*
Y10957499*
Y10624997D02*
Y10944999D01*
Y10624997D02*
D01*
X12880997Y10944999D02*
X12893499Y10957499D01*
X12074999Y10449999D02*
X12129998Y10504998D01*
Y10754997*
X11869999Y10504998D02*
X11924997Y10449999D01*
X11869999Y10504998D02*
Y10849998D01*
X10999998Y10944999D02*
X11437498D01*
X10679998D02*
X10999998D01*
Y10957499*
Y10674997D02*
Y10944999D01*
X10419999Y10554997D02*
X10474998Y10499999D01*
X10419999Y10554997D02*
Y10849998D01*
X10624997Y10499999D02*
X11292499D01*
X11449999Y10342499*
X10624997Y10499999D02*
X10679998Y10554997D01*
Y10754997*
X11437498Y10944999D02*
X11449999Y10957499D01*
X13899997Y9344997D02*
Y9349999D01*
Y9074998D02*
Y9344997D01*
X14262498*
X13579998D02*
X13899997D01*
X14262498D02*
X14299999Y9382498D01*
X13899997Y9074998D02*
D01*
X13524999Y8899999D02*
X14167497D01*
X14299999Y8767498*
X13524999Y8899999D02*
X13579998Y8954998D01*
Y9154998*
X13319998Y8954998D02*
X13374999Y8899999D01*
X13319998Y8954998D02*
Y9249999D01*
X11869999Y8904998D02*
X11924997Y8849997D01*
X11869999Y8904998D02*
Y9249999D01*
X12074999Y8849997D02*
X12810998D01*
X12074999D02*
X12129998Y8904998D01*
Y9154998*
X12810998Y8849997D02*
X12893499Y8767498D01*
X12449997Y9024998D02*
D01*
Y9344997*
X12855999*
X12129998D02*
X12449997D01*
X12855999D02*
X12893499Y9382498D01*
X16257198Y11869999D02*
X17017499D01*
X14874999D02*
X15509999D01*
X10624997Y11872498D02*
X1127D01*
X10624997Y8949999D02*
X11349997D01*
X9324997Y11849999D02*
X9892499D01*
X8124997Y11872498D02*
X8569998D01*
X6799999Y11849999D02*
X7342499D01*
X9324997Y10499999D02*
X9892499D01*
X9324997Y8949999D02*
X9867498D01*
X8104997Y10499999D02*
X8592499D01*
X6779999Y10549999D02*
X7292497D01*
X8074997Y8949999D02*
X8567498D01*
X6779999D02*
X7317498D01*
X5524997Y11872498D02*
X6019998D01*
X4174998Y11898299D02*
X4694199D01*
X5524997Y10499999D02*
X6042499D01*
X4174998D02*
X4742497D01*
X4174998Y8949999D02*
X4717498D01*
X5474997Y8899999D02*
X6067498D01*
X4174998Y7549997D02*
X4734999D01*
X11449999Y8767498D02*
Y8849997D01*
X11349997Y8949999D02*
X11449999Y8849997D01*
X10419999Y9004998D02*
X10474998Y8949999D01*
X10419999Y9004998D02*
Y9249999D01*
X10624997Y8949999D02*
X10679998Y9004998D01*
Y9154998*
X10999998Y9074998D02*
Y9344997D01*
X11412499*
X10679998D02*
X10999998D01*
X11412499D02*
X11449999Y9382498D01*
X9867498Y8949999D02*
X10049997Y8767498D01*
X9649998Y9394997D02*
X10037498D01*
X9379999D02*
X9649998D01*
Y9407499*
Y9124998D02*
Y9394997D01*
Y9124998D02*
D01*
X10037498Y9394997D02*
X10049997Y9382498D01*
X9324997Y8949999D02*
X9379999Y9004998D01*
Y9204998*
X9119999Y9004998D02*
X9174998Y8949999D01*
X9119999Y9004998D02*
Y9299999D01*
X7869999Y9004998D02*
X7924998Y8949999D01*
X7869999Y9004998D02*
Y9299999D01*
X8074997Y8949999D02*
X8129998Y9004998D01*
Y9204998*
X8567498Y8949999D02*
X8749997Y8767498D01*
X8399998Y9394997D02*
X8737498D01*
X8129998D02*
X8399998D01*
Y9407499*
Y9142498D02*
Y9394997D01*
Y9142498D02*
D01*
X8737498Y9394997D02*
X8749997Y9382498D01*
X6569999Y9009999D02*
X6629999Y8949999D01*
X6569999Y9009999D02*
Y9299999D01*
X6779999Y8949999D02*
X6829999Y8999999D01*
Y9204998*
X7317498Y8949999D02*
X7499997Y8767498D01*
X6829999Y9394997D02*
X7487498D01*
X7099998Y9074998D02*
Y9393199D01*
X7487498Y9394997D02*
X7499997Y9382498D01*
X5294998Y8929999D02*
X5324998Y8899999D01*
X5294998Y8929999D02*
Y9299999D01*
X6067498Y8899999D02*
X6199997Y8767498D01*
X5474997Y8899999D02*
X5554997Y8979999D01*
Y9204998*
X5799998Y9394997D02*
X6187498D01*
X5554997D02*
X5799998D01*
Y9407499*
Y9124998D02*
Y9394997D01*
Y9124998D02*
D01*
X6187498Y9394997D02*
X6199997Y9382498D01*
X9119999Y10554997D02*
X9174998Y10499999D01*
X9119999Y10554997D02*
Y10849998D01*
X9324997Y10499999D02*
X9379999Y10554997D01*
Y10754997*
X9892499Y10499999D02*
X10049997Y10342499D01*
X9649998Y10944999D02*
X10037498D01*
X9379999D02*
X9649998D01*
Y10957499*
Y10674997D02*
Y10944999D01*
Y10674997D02*
D01*
X10037498Y10944999D02*
X10049997Y10957499D01*
X7099998Y10944999D02*
X7487498D01*
X6829999D02*
X7099998D01*
Y10957499*
Y10674997D02*
Y10944999D01*
X8399998D02*
X8737498D01*
X8129998D02*
X8399998D01*
Y10957499*
Y10674997D02*
Y10944999D01*
X7869999Y10584997D02*
Y10849998D01*
Y10584997D02*
X7954998Y10499999D01*
X8104997Y10729998D02*
X8129998Y10754997D01*
X8104997Y10499999D02*
Y10729998D01*
X8592499Y10499999D02*
X8749997Y10342499D01*
X7292497Y10549999D02*
X7499997Y10342499D01*
X6779999Y10549999D02*
X6829999Y10599999D01*
Y10754997*
X6569999Y10609999D02*
X6629999Y10549999D01*
X6569999Y10609999D02*
Y10849998D01*
X8737498Y10944999D02*
X8749997Y10957499D01*
X7487498Y10944999D02*
X7499997Y10957499D01*
X4024998Y7549997D02*
Y7844998D01*
X3969999Y7899999D02*
X4024998Y7844998D01*
X4174998Y7549997D02*
X4229999Y7604998D01*
Y7804998*
X4734999Y7549997D02*
X4887498Y7397498D01*
X4499998Y7994997D02*
X4869997D01*
X4229999D02*
X4499998D01*
Y7999999*
Y7674998D02*
Y7994997D01*
Y7674998D02*
D01*
X4869997Y7994997D02*
X4887498Y8012498D01*
X4024998Y8949999D02*
Y9244998D01*
X3969999Y9299999D02*
X4024998Y9244998D01*
X4174998Y8949999D02*
Y9149999D01*
X4229999Y9204998*
X4717498Y8949999D02*
X4899997Y8767498D01*
X4499998Y9074998D02*
D01*
Y9394997*
X4887498*
X4229999D02*
X4499998D01*
X4887498D02*
X4899997Y9382498D01*
X5799998Y10957499D02*
X6199997D01*
X5592498D02*
X5799998D01*
Y10674997D02*
D01*
Y10957499*
X5294998Y10579999D02*
X5374998Y10499999D01*
X5294998Y10579999D02*
Y10849998D01*
X5524997Y10499999D02*
X5554997Y10529999D01*
Y10754997*
X6042499Y10499999D02*
X6199997Y10342499D01*
X4499998Y10944999D02*
X4887498D01*
X4229999D02*
X4499998D01*
Y10957499*
Y10699998D02*
Y10944999D01*
Y10699998D02*
D01*
X4742497Y10499999D02*
X4899997Y10342499D01*
X4174998Y10499999D02*
X4229999Y10554997D01*
Y10754997*
X3969999Y10554997D02*
X4024998Y10499999D01*
X3969999Y10554997D02*
Y10849998D01*
X4887498Y10944999D02*
X4899997Y10957499D01*
X16052198Y11924997D02*
X16107199Y11869999D01*
X16052198Y11924997D02*
Y12260498D01*
X16257198Y11869999D02*
Y12110499D01*
X16312197Y12165497*
X167296Y12355499D02*
X17146998D01*
X16312197D02*
X167296D01*
X16699999Y12325898D02*
X167296Y12355499D01*
X16699999Y12019998D02*
Y12325898D01*
X17017499Y11869999D02*
X17149998Y11737497D01*
X14929998Y12355499D02*
X15639498D01*
X15199997Y12019998D02*
D01*
Y12339398*
X15509999Y11869999D02*
X15655599Y11724398D01*
X14874999Y11869999D02*
Y12110499D01*
X14929998Y12165497*
X14724999Y11869999D02*
Y12205497D01*
X14669998Y12260498D02*
X14724999Y12205497D01*
X15639498Y12355499D02*
X15655599Y12339398D01*
X17146998Y12355499D02*
X17149998Y12352497D01*
X11899999Y11847499D02*
Y12192497D01*
X11869999Y12222497D02*
X11899999Y12192497D01*
X12049998Y11847499D02*
X12129998Y11927499D01*
Y12127499*
X12449997Y12317498D02*
X12892897D01*
X12129998D02*
X12449997D01*
X12892897D02*
X12893499Y12316899D01*
X12449997Y12317498D02*
D01*
Y11997499D02*
Y12317498D01*
Y11847499D02*
X12747899D01*
X12049998D02*
X12449997D01*
X12747899D02*
X12893499Y11701899D01*
X1127Y11872498D02*
X11449999Y11692498D01*
X10624997Y11872498D02*
X10679998Y11927499D01*
Y12119998*
X10474998Y11872498D02*
Y12159998D01*
X10419999Y12214999D02*
X10474998Y12159998D01*
X10999998Y12309998D02*
X11447498D01*
X10679998D02*
X10999998D01*
Y12322497*
Y12024997D02*
Y12309998D01*
Y12024997D02*
D01*
X11447498Y12309998D02*
X11449999Y12307498D01*
X9174998Y11849999D02*
Y12144999D01*
X9119999Y12199998D02*
X9174998Y12144999D01*
X9324997Y11849999D02*
X9379999Y11904997D01*
Y12104999*
X9892499Y11849999D02*
X10049997Y11692498D01*
X9649998Y11999998D02*
Y12294999D01*
Y11999998D02*
D01*
Y12294999D02*
X10037498D01*
X9379999D02*
X9649998D01*
X10037498D02*
X10049997Y12307498D01*
X8124997Y11872498D02*
X8129998Y11877497D01*
Y12129998*
X7974998Y11872498D02*
Y12119998D01*
X7869999Y12224999D02*
X7974998Y12119998D01*
X8399998Y12319998D02*
X8737498D01*
X8129998D02*
X8399998D01*
Y12022498D02*
Y12319998D01*
X8569998Y11872498D02*
X8749997Y11692498D01*
X8737498Y12319998D02*
X8749997Y12307498D01*
X7099998Y12319998D02*
X7487498D01*
X6829999D02*
X7099998D01*
D01*
Y12024997D02*
Y12319998D01*
X7342499Y11849999D02*
X7499997Y11692498D01*
X6799999Y11849999D02*
X6829999Y11879999D01*
Y12129998*
X6649999Y11849999D02*
Y12144999D01*
X6569999Y12224999D02*
X6649999Y12144999D01*
X7487498Y12319998D02*
X7499997Y12307498D01*
X5799998Y12024997D02*
Y12025D01*
Y12319998*
X6187498*
X5554997D02*
X5799998D01*
X6187498D02*
X6199997Y12307498D01*
X6019998Y11872498D02*
X6199997Y11692498D01*
X5524997Y11872498D02*
X5554997Y11902498D01*
Y12129998*
X5374998Y11872498D02*
Y12144999D01*
X5294998Y12224999D02*
X5374998Y12144999D01*
X3969999Y12214999D02*
X4024998Y12159998D01*
Y11898299D02*
Y12159998D01*
X4694199Y11898299D02*
X4899997Y11692498D01*
X4174998Y11898299D02*
X4229999Y11953298D01*
Y12119998*
X4499998Y12309998D02*
X4897498D01*
X4229999D02*
X4499998D01*
Y12322497*
Y12074999D02*
Y12309998D01*
Y12074999D02*
D01*
X4897498Y12309998D02*
X4899997Y12307498D01*
G54D15*
X7099998Y4582497D03*
Y4870881D03*
X7599997Y4549998D03*
Y4849997D03*
X11755597Y5099999D03*
X4669998Y5139997D03*
X12584998Y4699998D03*
Y5024998D03*
X8749997Y5099999D03*
X6754997Y5144998D03*
X12449997Y6494998D03*
X13899997D03*
X15199997D03*
X16699999D03*
X9649998D03*
X8399998D03*
X7099998D03*
X5799998D03*
X4499998D03*
X16699999Y7999999D03*
X15199997D03*
X13899997D03*
X12449997D03*
X13899997Y9349999D03*
X10999998Y7999999D03*
X9649998D03*
X8399998D03*
X7099998D03*
X5799998D03*
X4499998D03*
X16699999Y9299999D03*
X15199997Y9344997D03*
X12449997D03*
X10999998D03*
X9649998Y9407499D03*
X8399998D03*
X7099998Y9393199D03*
X4499998Y9394997D03*
X5799998Y9407499D03*
X16699999Y10957499D03*
X15199997D03*
X13899997D03*
X12449997D03*
X10999998D03*
X9649998D03*
X8399998D03*
X7099998D03*
X5799998D03*
X4499998D03*
X16699999Y12355499D03*
X15199997Y12339398D03*
X13899997Y12316899D03*
X12449997Y12317498D03*
X9649998Y12294999D03*
X10999998Y12322497D03*
X8399998D03*
X7099998D03*
X5799998Y12319998D03*
X4499998Y12322497D03*
X10999998Y6494998D03*
G54D16*
X17899999Y6106203D03*
X3499998Y5249999D03*
X17899999Y5289397D03*
Y12389398D03*
X3499998Y12349998D03*
G54D17*
X6024999Y4849997D03*
X8169998Y4799998D03*
X11041049Y4999997D03*
X4119999Y4849997D03*
X14669998Y7699999D03*
X13319998Y7674998D03*
X11869999Y7699999D03*
X10419999Y7674998D03*
X9119999Y7699999D03*
X7869999Y7674998D03*
X6569999Y7699999D03*
X5299999D03*
X4024998Y7749999D03*
Y9124998D03*
X5299999Y9074998D03*
X6569999Y9149999D03*
X7869999D03*
X9119999Y9124998D03*
X10419999Y9099999D03*
X7869999Y10649999D03*
X6569999Y10699998D03*
X5299999Y10674997D03*
X3969999D03*
X4024998Y12074999D03*
X5374998Y12049998D03*
X6649999Y12024997D03*
X7954998Y12037748D03*
X10419999Y10674997D03*
X9119999D03*
X9174998Y12049998D03*
X10474998Y12016249D03*
X13319998Y12049998D03*
X11869999D03*
X14724999Y12037748D03*
X16049998Y12074999D03*
X11869999Y10649999D03*
X13319998D03*
X14669998Y10699998D03*
X16049998D03*
X11869999Y9049999D03*
X13319998Y9074998D03*
X14669998D03*
X16052198Y9099999D03*
X16049998Y7699999D03*
X16052198Y6186398D03*
X14669998Y6202499D03*
X13319998Y6199997D03*
X11869999D03*
X10399999Y6219347D03*
X9119999Y6216197D03*
X7869999Y6219347D03*
X6569999Y6254998D03*
X5294998Y6249997D03*
X3969999Y6224998D03*
M02*