%FSTAX25Y25*%
%MOMM*%
%SFA1B1*%

%IPPOS*%
%ADD33C,0.127000*%
%ADD34C,0.169330*%
%LNldo_test_drawing_1-1*%
%LPD*%
G54D33*
X7049198Y4531697D02*
Y4633297D01*
X7150798*
Y4531697*
X7049198*
Y4820081D02*
Y4921681D01*
X7150798*
Y4820081*
X7049198*
X7549197Y4499198D02*
Y4600798D01*
X7650797*
Y4499198*
X7549197*
Y4799197D02*
Y4900797D01*
X7650797*
Y4799197*
X7549197*
X11704797Y5049199D02*
Y5150799D01*
X11806397*
Y5049199*
X11704797*
X4619198Y5089197D02*
Y5190797D01*
X4720798*
Y5089197*
X4619198*
X12534198Y4649198D02*
Y4750798D01*
X12635798*
Y4649198*
X12534198*
Y4974198D02*
Y5075798D01*
X12635798*
Y4974198*
X12534198*
X8699197Y5049199D02*
Y5150799D01*
X8800797*
Y5049199*
X8699197*
X6704197Y5094198D02*
Y5195798D01*
X6805797*
Y5094198*
X6704197*
X12399197Y6444198D02*
Y6545798D01*
X12500797*
Y6444198*
X12399197*
X13849197D02*
Y6545798D01*
X13950797*
Y6444198*
X13849197*
X15149197D02*
Y6545798D01*
X15250797*
Y6444198*
X15149197*
X16649199D02*
Y6545798D01*
X16750799*
Y6444198*
X16649199*
X9599198D02*
Y6545798D01*
X9700798*
Y6444198*
X9599198*
X8349198D02*
Y6545798D01*
X8450798*
Y6444198*
X8349198*
X7049198D02*
Y6545798D01*
X7150798*
Y6444198*
X7049198*
X5749198D02*
Y6545798D01*
X5850798*
Y6444198*
X5749198*
X4449198D02*
Y6545798D01*
X4550798*
Y6444198*
X4449198*
X16649199Y7949199D02*
Y8050799D01*
X16750799*
Y7949199*
X16649199*
X15149197D02*
Y8050799D01*
X15250797*
Y7949199*
X15149197*
X13849197D02*
Y8050799D01*
X13950797*
Y7949199*
X13849197*
X12399197D02*
Y8050799D01*
X12500797*
Y7949199*
X12399197*
X13849197Y9299199D02*
Y9400799D01*
X13950797*
Y9299199*
X13849197*
X10949198Y7949199D02*
Y8050799D01*
X11050798*
Y7949199*
X10949198*
X9599198D02*
Y8050799D01*
X9700798*
Y7949199*
X9599198*
X8349198D02*
Y8050799D01*
X8450798*
Y7949199*
X8349198*
X7049198D02*
Y8050799D01*
X7150798*
Y7949199*
X7049198*
X5749198D02*
Y8050799D01*
X5850798*
Y7949199*
X5749198*
X4449198D02*
Y8050799D01*
X4550798*
Y7949199*
X4449198*
X16649199Y9249199D02*
Y9350799D01*
X16750799*
Y9249199*
X16649199*
X15149197Y9294197D02*
Y9395797D01*
X15250797*
Y9294197*
X15149197*
X12399197D02*
Y9395797D01*
X12500797*
Y9294197*
X12399197*
X10949198D02*
Y9395797D01*
X11050798*
Y9294197*
X10949198*
X9599198Y9356699D02*
Y9458299D01*
X9700798*
Y9356699*
X9599198*
X8349198D02*
Y9458299D01*
X8450798*
Y9356699*
X8349198*
X7049198Y9342399D02*
Y9443999D01*
X7150798*
Y9342399*
X7049198*
X4449198Y9344197D02*
Y9445797D01*
X4550798*
Y9344197*
X4449198*
X5749198Y9356699D02*
Y9458299D01*
X5850798*
Y9356699*
X5749198*
X16649199Y10906699D02*
Y11008299D01*
X16750799*
Y10906699*
X16649199*
X15149197D02*
Y11008299D01*
X15250797*
Y10906699*
X15149197*
X13849197D02*
Y11008299D01*
X13950797*
Y10906699*
X13849197*
X12399197D02*
Y11008299D01*
X12500797*
Y10906699*
X12399197*
X10949198D02*
Y11008299D01*
X11050798*
Y10906699*
X10949198*
X9599198D02*
Y11008299D01*
X9700798*
Y10906699*
X9599198*
X8349198D02*
Y11008299D01*
X8450798*
Y10906699*
X8349198*
X7049198D02*
Y11008299D01*
X7150798*
Y10906699*
X7049198*
X5749198D02*
Y11008299D01*
X5850798*
Y10906699*
X5749198*
X4449198D02*
Y11008299D01*
X4550798*
Y10906699*
X4449198*
X16649199Y12304699D02*
Y12406299D01*
X16750799*
Y12304699*
X16649199*
X15149197Y12288598D02*
Y12390198D01*
X15250797*
Y12288598*
X15149197*
X13849197Y12266099D02*
Y12367699D01*
X13950797*
Y12266099*
X13849197*
X12399197Y12266698D02*
Y12368298D01*
X12500797*
Y12266698*
X12399197*
X9599198Y12244199D02*
Y12345799D01*
X9700798*
Y12244199*
X9599198*
X10949198Y12271697D02*
Y12373297D01*
X11050798*
Y12271697*
X10949198*
X8349198D02*
Y12373297D01*
X8450798*
Y12271697*
X8349198*
X7049198D02*
Y12373297D01*
X7150798*
Y12271697*
X7049198*
X5749198Y12269198D02*
Y12370798D01*
X5850798*
Y12269198*
X5749198*
X4449198Y12271697D02*
Y12373297D01*
X4550798*
Y12271697*
X4449198*
X10949198Y6444198D02*
Y6545798D01*
X11050798*
Y6444198*
X10949198*
X6024999Y4799197D02*
X5974199Y4900797D01*
X6075799*
X6024999Y4799197*
X8169998Y4749198D02*
X8119198Y4850798D01*
X8220798*
X8169998Y4749198*
X11041049Y4949197D02*
X10990249Y5050797D01*
X11091849*
X11041049Y4949197*
X4119999Y4799197D02*
X4069199Y4900797D01*
X4170799*
X4119999Y4799197*
X14669998Y7649199D02*
X14619198Y7750799D01*
X14720798*
X14669998Y7649199*
X13319998Y7624198D02*
X13269198Y7725798D01*
X13370798*
X13319998Y7624198*
X11869999Y7649199D02*
X11819199Y7750799D01*
X11920799*
X11869999Y7649199*
X10419999Y7624198D02*
X10369199Y7725798D01*
X10470799*
X10419999Y7624198*
X9119999Y7649199D02*
X9069199Y7750799D01*
X9170799*
X9119999Y7649199*
X7869999Y7624198D02*
X7819199Y7725798D01*
X7920799*
X7869999Y7624198*
X6569999Y7649199D02*
X6519199Y7750799D01*
X6620799*
X6569999Y7649199*
X5299999D02*
X5249199Y7750799D01*
X5350799*
X5299999Y7649199*
X4024998Y7699199D02*
X3974198Y7800799D01*
X4075798*
X4024998Y7699199*
Y9074198D02*
X3974198Y9175798D01*
X4075798*
X4024998Y9074198*
X5299999Y9024198D02*
X5249199Y9125798D01*
X5350799*
X5299999Y9024198*
X6569999Y9099199D02*
X6519199Y9200799D01*
X6620799*
X6569999Y9099199*
X7869999D02*
X7819199Y9200799D01*
X7920799*
X7869999Y9099199*
X9119999Y9074198D02*
X9069199Y9175798D01*
X9170799*
X9119999Y9074198*
X10419999Y9049199D02*
X10369199Y9150799D01*
X10470799*
X10419999Y9049199*
X7869999Y10599199D02*
X7819199Y10700799D01*
X7920799*
X7869999Y10599199*
X6569999Y10649198D02*
X6519199Y10750798D01*
X6620799*
X6569999Y10649198*
X5299999Y10624197D02*
X5249199Y10725797D01*
X5350799*
X5299999Y10624197*
X3969999D02*
X3919199Y10725797D01*
X4020799*
X3969999Y10624197*
X4024998Y12024199D02*
X3974198Y12125799D01*
X4075798*
X4024998Y12024199*
X5374998Y11999198D02*
X5324198Y12100798D01*
X5425798*
X5374998Y11999198*
X6649999Y11974197D02*
X6599199Y12075797D01*
X6700799*
X6649999Y11974197*
X7954998Y11986948D02*
X7904198Y12088548D01*
X8005798*
X7954998Y11986948*
X10419999Y10624197D02*
X10369199Y10725797D01*
X10470799*
X10419999Y10624197*
X9119999D02*
X9069199Y10725797D01*
X9170799*
X9119999Y10624197*
X9174998Y11999198D02*
X9124198Y12100798D01*
X9225798*
X9174998Y11999198*
X10474998Y11965449D02*
X10424198Y12067049D01*
X10525798*
X10474998Y11965449*
X13319998Y11999198D02*
X13269198Y12100798D01*
X13370798*
X13319998Y11999198*
X11869999D02*
X11819199Y12100798D01*
X11920799*
X11869999Y11999198*
X14724999Y11986948D02*
X14674199Y12088548D01*
X14775799*
X14724999Y11986948*
X16049998Y12024199D02*
X15999198Y12125799D01*
X16100798*
X16049998Y12024199*
X11869999Y10599199D02*
X11819199Y10700799D01*
X11920799*
X11869999Y10599199*
X13319998D02*
X13269198Y10700799D01*
X13370798*
X13319998Y10599199*
X14669998Y10649198D02*
X14619198Y10750798D01*
X14720798*
X14669998Y10649198*
X16049998D02*
X15999198Y10750798D01*
X16100798*
X16049998Y10649198*
X11869999Y8999199D02*
X11819199Y9100799D01*
X11920799*
X11869999Y8999199*
X13319998Y9024198D02*
X13269198Y9125798D01*
X13370798*
X13319998Y9024198*
X14669998D02*
X14619198Y9125798D01*
X14720798*
X14669998Y9024198*
X16052198Y9049199D02*
X160014Y9150799D01*
X16102998*
X16052198Y9049199*
X16049998Y7649199D02*
X15999198Y7750799D01*
X16100798*
X16049998Y7649199*
X16052198Y6135598D02*
X160014Y6237198D01*
X16102998*
X16052198Y6135598*
X14669998Y6151699D02*
X14619198Y6253299D01*
X14720798*
X14669998Y6151699*
X13319998Y6149197D02*
X13269198Y6250797D01*
X13370798*
X13319998Y6149197*
X11869999D02*
X11819199Y6250797D01*
X11920799*
X11869999Y6149197*
X10399999Y6168547D02*
X10349199Y6270147D01*
X10450799*
X10399999Y6168547*
X9119999Y6165397D02*
X9069199Y6266997D01*
X9170799*
X9119999Y6165397*
X7869999Y6168547D02*
X7819199Y6270147D01*
X7920799*
X7869999Y6168547*
X6569999Y6204198D02*
X6519199Y6305798D01*
X6620799*
X6569999Y6204198*
X5294998Y6199197D02*
X5244198Y6300797D01*
X5345798*
X5294998Y6199197*
X3969999Y6174198D02*
X3919199Y6275798D01*
X4020799*
X3969999Y6174198*
G54D34*
X17950799Y6106203D02*
D01*
X17950675Y6109746*
X17950304Y6113272*
X17949689Y6116764*
X17948831Y6120206*
X17947733Y6123576*
X17946408Y6126866*
X17944853Y6130051*
X1794308Y6133122*
X17941096Y6136063*
X17938912Y6138857*
X1793654Y6141491*
X1793399Y6143955*
X17931274Y6146233*
X17928404Y6148318*
X17925399Y6150195*
X17922267Y6151862*
X17919029Y6153302*
X17915696Y6154516*
X17912288Y6155494*
X17908821Y6156231*
X17905308Y6156723*
X17901772Y6156972*
X17898226*
X17894688Y6156723*
X17891178Y6156231*
X17887708Y6155494*
X178843Y6154516*
X17880967Y6153302*
X17877729Y6151862*
X17874599Y6150195*
X17871592Y6148318*
X17868722Y6146233*
X17866006Y6143955*
X17863456Y6141491*
X17861084Y6138857*
X178589Y6136063*
X17856918Y6133122*
X17855145Y6130051*
X17853591Y6126866*
X17852263Y6123576*
X17851165Y6120206*
X17850309Y6116764*
X17849692Y6113272*
X17849321Y6109746*
X17849199Y6106203*
X17849321Y6102659*
X17849692Y6099131*
X17850309Y6095641*
X17851165Y60922*
X17852263Y6088827*
X17853591Y608554*
X17855145Y6082352*
X17856918Y6079281*
X178589Y6076342*
X17861084Y6073548*
X17863456Y6070914*
X17866006Y6068451*
X17868722Y6066172*
X17871592Y6064087*
X17874599Y6062207*
X17877729Y6060544*
X17880967Y6059101*
X178843Y6057889*
X17887708Y6056911*
X17891178Y6056175*
X17894688Y605568*
X17898226Y6055433*
X17901772*
X17905308Y605568*
X17908821Y6056175*
X17912288Y6056911*
X17915696Y6057889*
X17919029Y6059101*
X17922267Y6060544*
X17925399Y6062207*
X17928404Y6064087*
X17931274Y6066172*
X1793399Y6068451*
X1793654Y6070914*
X17938912Y6073548*
X17941096Y6076342*
X1794308Y6079281*
X17944853Y6082352*
X17946408Y608554*
X17947733Y6088827*
X17948831Y60922*
X17949689Y6095641*
X17950304Y6099131*
X17950675Y6102659*
X17950799Y6106203*
X3550798Y5249999D02*
D01*
X3550676Y5253542*
X3550305Y5257068*
X3549688Y526056*
X3548829Y5264*
X3547734Y5267373*
X3546406Y527066*
X3544851Y5273847*
X3543079Y5276918*
X3541097Y5279857*
X3538913Y5282651*
X3536541Y5285287*
X353399Y5287751*
X3531273Y529003*
X3528405Y5292112*
X3525398Y5293992*
X3522268Y5295658*
X3519027Y5297098*
X3515697Y5298313*
X3512289Y529929*
X3508819Y5300027*
X3505309Y530052*
X3501771Y5300766*
X3498225*
X3494689Y530052*
X3491176Y5300027*
X3487709Y529929*
X34843Y5298313*
X3480968Y5297098*
X3477729Y5295658*
X3474598Y5293992*
X347159Y5292112*
X3468723Y529003*
X3466007Y5287751*
X3463455Y5285287*
X3461082Y5282651*
X34589Y5279857*
X3456917Y5276918*
X3455144Y5273847*
X3453589Y527066*
X3452261Y5267373*
X3451166Y5264*
X3450308Y526056*
X3449693Y5257068*
X3449322Y5253542*
X3449198Y5249999*
X3449322Y5246456*
X3449693Y5242928*
X3450308Y5239435*
X3451166Y5235996*
X3452261Y5232623*
X3453589Y5229336*
X3455144Y5226149*
X3456917Y5223078*
X34589Y5220139*
X3461082Y5217345*
X3463455Y5214708*
X3466007Y5212247*
X3468723Y5209966*
X347159Y5207883*
X3474598Y5206004*
X3477729Y520434*
X3480968Y5202897*
X34843Y5201686*
X3487709Y5200708*
X3491176Y5199969*
X3494689Y5199476*
X3498225Y519923*
X3501771*
X3505309Y5199476*
X3508819Y5199969*
X3512289Y5200708*
X3515697Y5201686*
X3519027Y5202897*
X3522268Y520434*
X3525398Y5206004*
X3528405Y5207883*
X3531273Y5209966*
X353399Y5212247*
X3536541Y5214708*
X3538913Y5217345*
X3541097Y5220139*
X3543079Y5223078*
X3544851Y5226149*
X3546406Y5229336*
X3547734Y5232623*
X3548829Y5235996*
X3549688Y5239435*
X3550305Y5242928*
X3550676Y5246456*
X3550798Y5249999*
X17950799Y5289397D02*
D01*
X17950675Y5292943*
X17950304Y5296468*
X17949689Y5299961*
X17948831Y53034*
X17947733Y5306773*
X17946408Y531006*
X17944853Y5313248*
X1794308Y5316319*
X17941096Y5319257*
X17938912Y5322051*
X1793654Y5324688*
X1793399Y5327149*
X17931274Y532943*
X17928404Y5331513*
X17925399Y5333392*
X17922267Y5335056*
X17919029Y5336499*
X17915696Y5337713*
X17912288Y5338688*
X17908821Y5339427*
X17905308Y533992*
X17901772Y5340167*
X17898226*
X17894688Y533992*
X17891178Y5339427*
X17887708Y5338688*
X178843Y5337713*
X17880967Y5336499*
X17877729Y5335056*
X17874599Y5333392*
X17871592Y5331513*
X17868722Y532943*
X17866006Y5327149*
X17863456Y5324688*
X17861084Y5322051*
X178589Y5319257*
X17856918Y5316319*
X17855145Y5313248*
X17853591Y531006*
X17852263Y5306773*
X17851165Y53034*
X17850309Y5299961*
X17849692Y5296468*
X17849321Y5292943*
X17849199Y5289397*
X17849321Y5285854*
X17849692Y5282328*
X17850309Y5278836*
X17851165Y5275397*
X17852263Y5272024*
X17853591Y5268737*
X17855145Y5265549*
X17856918Y5262478*
X178589Y5259539*
X17861084Y5256745*
X17863456Y5254109*
X17866006Y5251648*
X17868722Y5249367*
X17871592Y5247284*
X17874599Y5245404*
X17877729Y5243741*
X17880967Y5242298*
X178843Y5241084*
X17887708Y5240108*
X17891178Y5239369*
X17894688Y5238877*
X17898226Y523863*
X17901772*
X17905308Y5238877*
X17908821Y5239369*
X17912288Y5240108*
X17915696Y5241084*
X17919029Y5242298*
X17922267Y5243741*
X17925399Y5245404*
X17928404Y5247284*
X17931274Y5249367*
X1793399Y5251648*
X1793654Y5254109*
X17938912Y5256745*
X17941096Y5259539*
X1794308Y5262478*
X17944853Y5265549*
X17946408Y5268737*
X17947733Y5272024*
X17948831Y5275397*
X17949689Y5278836*
X17950304Y5282328*
X17950675Y5285854*
X17950799Y5289397*
Y12389398D02*
D01*
X17950675Y12392941*
X17950304Y12396467*
X17949689Y12399959*
X17948831Y12403401*
X17947733Y12406772*
X17946408Y12410061*
X17944853Y12413246*
X1794308Y12416317*
X17941096Y12419258*
X17938912Y12422052*
X1793654Y12424686*
X1793399Y1242715*
X17931274Y12429429*
X17928404Y12431514*
X17925399Y12433393*
X17922267Y12435057*
X17919029Y124365*
X17915696Y12437711*
X17912288Y12438689*
X17908821Y12439426*
X17905308Y12439919*
X17901772Y12440168*
X17898226*
X17894688Y12439919*
X17891178Y12439426*
X17887708Y12438689*
X178843Y12437711*
X17880967Y124365*
X17877729Y12435057*
X17874599Y12433393*
X17871592Y12431514*
X17868722Y12429429*
X17866006Y1242715*
X17863456Y12424686*
X17861084Y12422052*
X178589Y12419258*
X17856918Y12416317*
X17855145Y12413246*
X17853591Y12410061*
X17852263Y12406772*
X17851165Y12403401*
X17850309Y12399959*
X17849692Y12396467*
X17849321Y12392941*
X17849199Y12389398*
X17849321Y12385855*
X17849692Y12382329*
X17850309Y12378837*
X17851165Y12375395*
X17852263Y12372025*
X17853591Y12368735*
X17855145Y1236555*
X17856918Y12362479*
X178589Y12359538*
X17861084Y12356744*
X17863456Y1235411*
X17866006Y12351646*
X17868722Y12349368*
X17871592Y12347282*
X17874599Y12345405*
X17877729Y12343739*
X17880967Y12342296*
X178843Y12341085*
X17887708Y12340107*
X17891178Y1233937*
X17894688Y12338878*
X17898226Y12338629*
X17901772*
X17905308Y12338878*
X17908821Y1233937*
X17912288Y12340107*
X17915696Y12341085*
X17919029Y12342296*
X17922267Y12343739*
X17925399Y12345405*
X17928404Y12347282*
X17931274Y12349368*
X1793399Y12351646*
X1793654Y1235411*
X17938912Y12356744*
X17941096Y12359538*
X1794308Y12362479*
X17944853Y1236555*
X17946408Y12368735*
X17947733Y12372025*
X17948831Y12375395*
X17949689Y12378837*
X17950304Y12382329*
X17950675Y12385855*
X17950799Y12389398*
X3550798Y12349998D02*
D01*
X3550676Y12353541*
X3550305Y12357069*
X3549688Y12360559*
X3548829Y12364001*
X3547734Y12367374*
X3546406Y12370661*
X3544851Y12373848*
X3543079Y12376919*
X3541097Y12379858*
X3538913Y12382652*
X3536541Y12385286*
X353399Y1238775*
X3531273Y12390028*
X3528405Y12392113*
X3525398Y12393993*
X3522268Y12395657*
X3519027Y12397099*
X3515697Y12398311*
X3512289Y12399289*
X3508819Y12400026*
X3505309Y12400521*
X3501771Y12400767*
X3498225*
X3494689Y12400521*
X3491176Y12400026*
X3487709Y12399289*
X34843Y12398311*
X3480968Y12397099*
X3477729Y12395657*
X3474598Y12393993*
X347159Y12392113*
X3468723Y12390028*
X3466007Y1238775*
X3463455Y12385286*
X3461082Y12382652*
X34589Y12379858*
X3456917Y12376919*
X3455144Y12373848*
X3453589Y12370661*
X3452261Y12367374*
X3451166Y12364001*
X3450308Y12360559*
X3449693Y12357069*
X3449322Y12353541*
X3449198Y12349998*
X3449322Y12346454*
X3449693Y12342929*
X3450308Y12339436*
X3451166Y12335995*
X3452261Y12332624*
X3453589Y12329335*
X3455144Y1232615*
X3456917Y12323079*
X34589Y1232014*
X3461082Y12317343*
X3463455Y12314709*
X3466007Y12312246*
X3468723Y12309967*
X347159Y12307882*
X3474598Y12306005*
X3477729Y12304339*
X3480968Y12302898*
X34843Y12301684*
X3487709Y12300706*
X3491176Y1229997*
X3494689Y12299477*
X3498225Y12299228*
X3501771*
X3505309Y12299477*
X3508819Y1229997*
X3512289Y12300706*
X3515697Y12301684*
X3519027Y12302898*
X3522268Y12304339*
X3525398Y12306005*
X3528405Y12307882*
X3531273Y12309967*
X353399Y12312246*
X3536541Y12314709*
X3538913Y12317343*
X3541097Y1232014*
X3543079Y12323079*
X3544851Y1232615*
X3546406Y12329335*
X3547734Y12332624*
X3548829Y12335995*
X3549688Y12339436*
X3550305Y12342929*
X3550676Y12346454*
X3550798Y12349998*
M02*