%FSTAX25Y25*%
%MOMM*%
%SFA1B1*%

%IPPOS*%
%ADD15C,1.799996*%
%ADD16C,5.999988*%
%ADD17C,1.199998*%
%LNldo_test_copper_signal_bot-1*%
%LPD*%
G36*
X18269412Y4330585D02*
X3130585D01*
Y1271941*
X17852796*
X17853296Y1270671*
X17849783Y12706436*
X17800807Y12694678*
X17754272Y12675402*
X17711326Y12649085*
X17673025Y12616373*
X17640312Y12578072*
X17613993Y12535123*
X17594719Y1248859*
X17582959Y12439611*
X17579009Y12389398*
X17582959Y12339185*
X17594719Y12290206*
X17613993Y12243673*
X17640312Y12200724*
X17673025Y12162424*
X17711326Y12129711*
X17754272Y12103394*
X17800807Y12084118*
X17849783Y1207236*
X17899999Y12068408*
X17950213Y1207236*
X17999189Y12084118*
X18045724Y12103394*
X1808867Y12129711*
X18126971Y12162424*
X18159684Y12200724*
X18186003Y12243673*
X18205279Y12290206*
X18217034Y12339185*
X18220987Y12389398*
X18217034Y12439611*
X18205279Y1248859*
X18186003Y12535123*
X18159684Y12578072*
X18126971Y12616373*
X1808867Y12649085*
X18045724Y12675402*
X17999189Y12694678*
X17950213Y12706436*
X17946702Y1270671*
X179472Y1271941*
X18269412*
Y4330585*
G37*
%LNldo_test_copper_signal_bot-2*%
%LPC*%
G36*
X16699999Y12466447D02*
X16671282Y12462667D01*
X16644523Y12451582*
X16621546Y12433952*
X16603913Y12410973*
X16592829Y12384214*
X16589049Y12355499*
X16592829Y12326782*
X16603913Y12300023*
X16621546Y12277046*
X16644523Y12259414*
X16671282Y12248329*
X16699999Y1224455*
X16728714Y12248329*
X1675547Y12259414*
X16778452Y12277046*
X16796082Y12300023*
X16807167Y12326782*
X16810949Y12355499*
X16807167Y12384214*
X16796082Y12410973*
X16778452Y12433952*
X1675547Y12451582*
X16728714Y12462667*
X16699999Y12466447*
G37*
G36*
X15199997Y12450348D02*
X15171282Y12446566D01*
X15144523Y12435481*
X15121544Y12417851*
X15103914Y12394872*
X15092829Y12368113*
X15089047Y12339398*
X15092829Y12310681*
X15103914Y12283922*
X15121544Y12260945*
X15144523Y12243313*
X15171282Y12232228*
X15199997Y12228449*
X15228714Y12232228*
X15255471Y12243313*
X1527845Y12260945*
X15296083Y12283922*
X15307167Y12310681*
X15310949Y12339398*
X15307167Y12368113*
X15296083Y12394872*
X1527845Y12417851*
X15255471Y12435481*
X15228714Y12446566*
X15199997Y12450348*
G37*
G36*
X10999998Y12433447D02*
X10971283Y12429667D01*
X10944524Y12418583*
X10921545Y1240095*
X10903912Y12377973*
X1089283Y12351214*
X10889048Y12322497*
X1089283Y12293782*
X10903912Y12267023*
X10921545Y12244044*
X10944524Y12226414*
X10971283Y12215329*
X10999998Y1221155*
X11028715Y12215329*
X11055471Y12226414*
X11078451Y12244044*
X11096083Y12267023*
X11107166Y12293782*
X11110948Y12322497*
X11107166Y12351214*
X11096083Y12377973*
X11078451Y1240095*
X11055471Y12418583*
X11028715Y12429667*
X10999998Y12433447*
G37*
G36*
X8399998D02*
X8371283Y12429667D01*
X8344524Y12418583*
X8321545Y1240095*
X8303912Y12377973*
X829283Y12351214*
X8289048Y12322497*
X829283Y12293782*
X8303912Y12267023*
X8321545Y12244044*
X8344524Y12226414*
X8371283Y12215329*
X8399998Y1221155*
X8428713Y12215329*
X8455472Y12226414*
X8478451Y12244044*
X8496081Y12267023*
X8507166Y12293782*
X8510948Y12322497*
X8507166Y12351214*
X8496081Y12377973*
X8478451Y1240095*
X8455472Y12418583*
X8428713Y12429667*
X8399998Y12433447*
G37*
G36*
X7099998D02*
X7071283Y12429667D01*
X7044524Y12418583*
X7021545Y1240095*
X7003912Y12377973*
X699283Y12351214*
X6989048Y12322497*
X699283Y12293782*
X7003912Y12267023*
X7021545Y12244044*
X7044524Y12226414*
X7071283Y12215329*
X7099998Y1221155*
X7128713Y12215329*
X7155472Y12226414*
X7178451Y12244044*
X7196081Y12267023*
X7207166Y12293782*
X7210948Y12322497*
X7207166Y12351214*
X7196081Y12377973*
X7178451Y1240095*
X7155472Y12418583*
X7128713Y12429667*
X7099998Y12433447*
G37*
G36*
X4499998D02*
X4471283Y12429667D01*
X4444525Y12418583*
X4421545Y1240095*
X4403912Y12377973*
X439283Y12351214*
X4389048Y12322497*
X439283Y12293782*
X4403912Y12267023*
X4421545Y12244044*
X4444525Y12226414*
X4471283Y12215329*
X4499998Y1221155*
X4528715Y12215329*
X4555472Y12226414*
X4578451Y12244044*
X4596084Y12267023*
X4607166Y12293782*
X4610948Y12322497*
X4607166Y12351214*
X4596084Y12377973*
X4578451Y1240095*
X4555472Y12418583*
X4528715Y12429667*
X4499998Y12433447*
G37*
G36*
X5799998Y12430947D02*
X5771283Y12427165D01*
X5744524Y12416083*
X5721545Y12398451*
X5703912Y12375471*
X569283Y12348712*
X5689048Y12319998*
X569283Y12291283*
X5703912Y12264524*
X5721545Y12241545*
X5744524Y12223912*
X5771283Y1221283*
X5799998Y12209048*
X5828715Y1221283*
X5855474Y12223912*
X5878451Y12241545*
X5896084Y12264524*
X5907168Y12291283*
X5910948Y12319998*
X5907168Y12348712*
X5896084Y12375471*
X5878451Y12398451*
X5855474Y12416083*
X5828715Y12427165*
X5799998Y12430947*
G37*
G36*
X12449997Y12428448D02*
X12421283Y12424666D01*
X12394524Y12413581*
X12371544Y12395951*
X12353914Y12372972*
X1234283Y12346213*
X1233905Y12317498*
X1234283Y12288781*
X12353914Y12262022*
X12371544Y12239045*
X12394524Y12221413*
X12421283Y12210328*
X12449997Y12206549*
X12478715Y12210328*
X12505471Y12221413*
X1252845Y12239045*
X12546083Y12262022*
X12557165Y12288781*
X12560947Y12317498*
X12557165Y12346213*
X12546083Y12372972*
X1252845Y12395951*
X12505471Y12413581*
X12478715Y12424666*
X12449997Y12428448*
G37*
G36*
X13899997Y12427846D02*
X13871282Y12424067D01*
X13844526Y12412982*
X13821544Y12395349*
X13803914Y12372373*
X13792829Y12345614*
X13789047Y12316899*
X13792829Y12288182*
X13803914Y12261423*
X13821544Y12238446*
X13844526Y12220813*
X13871282Y12209729*
X13899997Y12205949*
X13928714Y12209729*
X13955471Y12220813*
X1397845Y12238446*
X13996083Y12261423*
X14007167Y12288182*
X14010949Y12316899*
X14007167Y12345614*
X13996083Y12372373*
X1397845Y12395349*
X13955471Y12412982*
X13928714Y12424067*
X13899997Y12427846*
G37*
G36*
X9649998Y12405946D02*
X9621283Y12402167D01*
X9594524Y12391082*
X9571545Y12373452*
X9553912Y12350473*
X954283Y12323714*
X9539048Y12294999*
X954283Y12266282*
X9553912Y12239523*
X9571545Y12216546*
X9594524Y12198913*
X9621283Y12187829*
X9649998Y12184049*
X9678715Y12187829*
X9705472Y12198913*
X9728451Y12216546*
X9746084Y12239523*
X9757166Y12266282*
X9760948Y12294999*
X9757166Y12323714*
X9746084Y12350473*
X9728451Y12373452*
X9705472Y12391082*
X9678715Y12402167*
X9649998Y12405946*
G37*
G36*
X16074999Y12151235D02*
Y12099998D01*
X16126233*
X16119878Y12115342*
X16107054Y12132056*
X16090343Y12144877*
X16074999Y12151235*
G37*
G36*
X16024999D02*
X16009655Y12144877D01*
X15992942Y12132056*
X15980117Y12115342*
X15973762Y12099998*
X16024999*
Y12151235*
G37*
G36*
X4049999D02*
Y12099998D01*
X4101233*
X4094878Y12115342*
X4082054Y12132056*
X4065343Y12144877*
X4049999Y12151235*
G37*
G36*
X3999999D02*
X3984652Y12144877D01*
X3967942Y12132056*
X3955117Y12115342*
X3948762Y12099998*
X3999999*
Y12151235*
G37*
G36*
X13344999Y12126234D02*
Y12074999D01*
X13396234*
X13389879Y12090344*
X13377054Y12107054*
X13360344Y12119879*
X13344999Y12126234*
G37*
G36*
X13294997D02*
X13279653Y12119879D01*
X13262942Y12107054*
X1325012Y12090344*
X13243763Y12074999*
X13294997*
Y12126234*
G37*
G36*
X11894997D02*
Y12074999D01*
X11946234*
X11939879Y12090344*
X11927055Y12107054*
X11910344Y12119879*
X11894997Y12126234*
G37*
G36*
X11844997D02*
X11829653Y12119879D01*
X1181294Y12107054*
X11800118Y12090344*
X11793763Y12074999*
X11844997*
Y12126234*
G37*
G36*
X9199999D02*
Y12074999D01*
X9251233*
X9244878Y12090344*
X9232054Y12107054*
X9215343Y12119879*
X9199999Y12126234*
G37*
G36*
X9149999D02*
X9134652Y12119879D01*
X9117942Y12107054*
X9105117Y12090344*
X9098762Y12074999*
X9149999*
Y12126234*
G37*
G36*
X5399999D02*
Y12074999D01*
X5451233*
X5444878Y12090344*
X5432054Y12107054*
X5415343Y12119879*
X5399999Y12126234*
G37*
G36*
X5349999D02*
X5334652Y12119879D01*
X5317942Y12107054*
X5305117Y12090344*
X5298762Y12074999*
X5349999*
Y12126234*
G37*
G36*
X14749998Y12113983D02*
Y12062749D01*
X14801235*
X14794877Y12078093*
X14782055Y12094804*
X14765342Y12107628*
X14749998Y12113983*
G37*
G36*
X14699998D02*
X14684654Y12107628D01*
X14667941Y12094804*
X14655116Y12078093*
X14648761Y12062749*
X14699998*
Y12113983*
G37*
G36*
X7979999D02*
Y12062749D01*
X8031233*
X8024878Y12078093*
X8012054Y12094804*
X7995343Y12107628*
X7979999Y12113983*
G37*
G36*
X7929999D02*
X7914652Y12107628D01*
X7897942Y12094804*
X7885117Y12078093*
X7878762Y12062749*
X7929999*
Y12113983*
G37*
G36*
X6674998Y12101235D02*
Y12049998D01*
X6726234*
X6719879Y12065342*
X6707055Y12082056*
X6690344Y12094878*
X6674998Y12101235*
G37*
G36*
X6624998D02*
X6609654Y12094878D01*
X659294Y12082056*
X6580118Y12065342*
X6573763Y12049998*
X6624998*
Y12101235*
G37*
G36*
X10499999Y12092485D02*
Y12041248D01*
X10551233*
X10544878Y12056592*
X10532054Y12073305*
X10515343Y12086127*
X10499999Y12092485*
G37*
G36*
X10449999D02*
X10434652Y12086127D01*
X10417942Y12073305*
X10405117Y12056592*
X10398762Y12041248*
X10449999*
Y12092485*
G37*
G36*
X3499998Y12670988D02*
X3449784Y12667035D01*
X3400808Y12655278*
X3354273Y12636002*
X3311326Y12609685*
X3273023Y12576972*
X3240313Y12538671*
X3213994Y12495725*
X319472Y1244919*
X3182962Y12400213*
X317901Y12349998*
X3182962Y12299784*
X319472Y12250808*
X3213994Y12204273*
X3240313Y12161326*
X3273023Y12123023*
X3311326Y12090313*
X3354273Y12063994*
X3400808Y1204472*
X3449784Y1203296*
X3499998Y12029008*
X3550213Y1203296*
X359919Y1204472*
X3645725Y12063994*
X3688671Y12090313*
X3726972Y12123023*
X3759685Y12161326*
X3786002Y12204273*
X3805278Y12250808*
X3817035Y12299784*
X3820988Y12349998*
X3817035Y12400213*
X3805278Y1244919*
X3786002Y12495725*
X3759685Y12538671*
X3726972Y12576972*
X3688671Y12609685*
X3645725Y12636002*
X359919Y12655278*
X3550213Y12667035*
X3499998Y12670988*
G37*
G36*
X16126233Y12049998D02*
X16074999D01*
Y11998761*
X16090343Y12005119*
X16107054Y12017943*
X16119878Y12034654*
X16126233Y12049998*
G37*
G36*
X16024999D02*
X15973762D01*
X15980117Y12034654*
X15992942Y12017943*
X16009655Y12005119*
X16024999Y11998761*
Y12049998*
G37*
G36*
X4101233D02*
X4049999D01*
Y11998761*
X4065343Y12005119*
X4082054Y12017943*
X4094878Y12034654*
X4101233Y12049998*
G37*
G36*
X3999999D02*
X3948762D01*
X3955117Y12034654*
X3967942Y12017943*
X3984652Y12005119*
X3999999Y11998761*
Y12049998*
G37*
G36*
X13396234Y12024997D02*
X13344999D01*
Y11973763*
X13360344Y11980118*
X13377054Y11992942*
X13389879Y12009653*
X13396234Y12024997*
G37*
G36*
X13294997D02*
X13243763D01*
X1325012Y12009653*
X13262942Y11992942*
X13279653Y11980118*
X13294997Y11973763*
Y12024997*
G37*
G36*
X11946234D02*
X11894997D01*
Y11973763*
X11910344Y11980118*
X11927055Y11992942*
X11939879Y12009653*
X11946234Y12024997*
G37*
G36*
X11844997D02*
X11793763D01*
X11800118Y12009653*
X1181294Y11992942*
X11829653Y11980118*
X11844997Y11973763*
Y12024997*
G37*
G36*
X9251233D02*
X9199999D01*
Y11973763*
X9215343Y11980118*
X9232054Y11992942*
X9244878Y12009653*
X9251233Y12024997*
G37*
G36*
X9149999D02*
X9098762D01*
X9105117Y12009653*
X9117942Y11992942*
X9134652Y11980118*
X9149999Y11973763*
Y12024997*
G37*
G36*
X5451233D02*
X5399999D01*
Y11973763*
X5415343Y11980118*
X5432054Y11992942*
X5444878Y12009653*
X5451233Y12024997*
G37*
G36*
X5349999D02*
X5298762D01*
X5305117Y12009653*
X5317942Y11992942*
X5334652Y11980118*
X5349999Y11973763*
Y12024997*
G37*
G36*
X14801235Y12012749D02*
X14749998D01*
Y11961512*
X14765342Y11967867*
X14782055Y11980692*
X14794877Y11997402*
X14801235Y12012749*
G37*
G36*
X14699998D02*
X14648761D01*
X14655116Y11997402*
X14667941Y11980692*
X14684654Y11967867*
X14699998Y11961512*
Y12012749*
G37*
G36*
X8031233D02*
X7979999D01*
Y11961512*
X7995343Y11967867*
X8012054Y11980692*
X8024878Y11997402*
X8031233Y12012749*
G37*
G36*
X7929999D02*
X7878762D01*
X7885117Y11997402*
X7897942Y11980692*
X7914652Y11967867*
X7929999Y11961512*
Y12012749*
G37*
G36*
X6726234Y11999998D02*
X6674998D01*
Y11948761*
X6690344Y11955119*
X6707055Y11967941*
X6719879Y11984654*
X6726234Y11999998*
G37*
G36*
X6624998D02*
X6573763D01*
X6580118Y11984654*
X659294Y11967941*
X6609654Y11955119*
X6624998Y11948761*
Y11999998*
G37*
G36*
X10551233Y11991248D02*
X10499999D01*
Y11940011*
X10515343Y11946369*
X10532054Y11959191*
X10544878Y11975904*
X10551233Y11991248*
G37*
G36*
X10449999D02*
X10398762D01*
X10405117Y11975904*
X10417942Y11959191*
X10434652Y11946369*
X10449999Y11940011*
Y11991248*
G37*
G36*
X16699999Y11068448D02*
X16671282Y11064666D01*
X16644526Y11053582*
X16621546Y11035952*
X16603913Y11012972*
X16592829Y10986213*
X16589049Y10957499*
X16592829Y10928781*
X16603913Y10902022*
X16621546Y10879046*
X16644526Y10861413*
X16671282Y10850328*
X16699999Y10846549*
X16728714Y10850328*
X1675547Y10861413*
X16778452Y10879046*
X16796082Y10902022*
X16807167Y10928781*
X16810949Y10957499*
X16807167Y10986213*
X16796082Y11012972*
X16778452Y11035952*
X1675547Y11053582*
X16728714Y11064666*
X16699999Y11068448*
G37*
G36*
X15199997D02*
X15171282Y11064666D01*
X15144523Y11053582*
X15121544Y11035952*
X15103914Y11012972*
X15092829Y10986213*
X15089047Y10957499*
X15092829Y10928781*
X15103914Y10902022*
X15121544Y10879046*
X15144523Y10861413*
X15171282Y10850328*
X15199997Y10846549*
X15228714Y10850328*
X15255471Y10861413*
X1527845Y10879046*
X15296083Y10902022*
X15307167Y10928781*
X15310949Y10957499*
X15307167Y10986213*
X15296083Y11012972*
X1527845Y11035952*
X15255471Y11053582*
X15228714Y11064666*
X15199997Y11068448*
G37*
G36*
X13899997D02*
X13871282Y11064666D01*
X13844526Y11053582*
X13821544Y11035952*
X13803914Y11012972*
X13792829Y10986213*
X13789047Y10957499*
X13792829Y10928781*
X13803914Y10902022*
X13821544Y10879046*
X13844526Y10861413*
X13871282Y10850328*
X13899997Y10846549*
X13928714Y10850328*
X13955471Y10861413*
X1397845Y10879046*
X13996083Y10902022*
X14007167Y10928781*
X14010949Y10957499*
X14007167Y10986213*
X13996083Y11012972*
X1397845Y11035952*
X13955471Y11053582*
X13928714Y11064666*
X13899997Y11068448*
G37*
G36*
X12449997D02*
X12421283Y11064666D01*
X12394524Y11053582*
X12371544Y11035952*
X12353914Y11012972*
X1234283Y10986213*
X1233905Y10957499*
X1234283Y10928781*
X12353914Y10902022*
X12371544Y10879046*
X12394524Y10861413*
X12421283Y10850328*
X12449997Y10846549*
X12478715Y10850328*
X12505471Y10861413*
X1252845Y10879046*
X12546083Y10902022*
X12557165Y10928781*
X12560947Y10957499*
X12557165Y10986213*
X12546083Y11012972*
X1252845Y11035952*
X12505471Y11053582*
X12478715Y11064666*
X12449997Y11068448*
G37*
G36*
X10999998D02*
X10971283Y11064666D01*
X10944524Y11053582*
X10921545Y11035952*
X10903912Y11012972*
X1089283Y10986213*
X10889048Y10957499*
X1089283Y10928781*
X10903912Y10902022*
X10921545Y10879046*
X10944524Y10861413*
X10971283Y10850328*
X10999998Y10846549*
X11028715Y10850328*
X11055471Y10861413*
X11078451Y10879046*
X11096083Y10902022*
X11107166Y10928781*
X11110948Y10957499*
X11107166Y10986213*
X11096083Y11012972*
X11078451Y11035952*
X11055471Y11053582*
X11028715Y11064666*
X10999998Y11068448*
G37*
G36*
X9649998D02*
X9621283Y11064666D01*
X9594524Y11053582*
X9571545Y11035952*
X9553912Y11012972*
X954283Y10986213*
X9539048Y10957499*
X954283Y10928781*
X9553912Y10902022*
X9571545Y10879046*
X9594524Y10861413*
X9621283Y10850328*
X9649998Y10846549*
X9678715Y10850328*
X9705472Y10861413*
X9728451Y10879046*
X9746084Y10902022*
X9757166Y10928781*
X9760948Y10957499*
X9757166Y10986213*
X9746084Y11012972*
X9728451Y11035952*
X9705472Y11053582*
X9678715Y11064666*
X9649998Y11068448*
G37*
G36*
X8399998D02*
X8371283Y11064666D01*
X8344524Y11053582*
X8321545Y11035952*
X8303912Y11012972*
X829283Y10986213*
X8289048Y10957499*
X829283Y10928781*
X8303912Y10902022*
X8321545Y10879046*
X8344524Y10861413*
X8371283Y10850328*
X8399998Y10846549*
X8428713Y10850328*
X8455472Y10861413*
X8478451Y10879046*
X8496081Y10902022*
X8507166Y10928781*
X8510948Y10957499*
X8507166Y10986213*
X8496081Y11012972*
X8478451Y11035952*
X8455472Y11053582*
X8428713Y11064666*
X8399998Y11068448*
G37*
G36*
X7099998D02*
X7071283Y11064666D01*
X7044524Y11053582*
X7021545Y11035952*
X7003912Y11012972*
X699283Y10986213*
X6989048Y10957499*
X699283Y10928781*
X7003912Y10902022*
X7021545Y10879046*
X7044524Y10861413*
X7071283Y10850328*
X7099998Y10846549*
X7128713Y10850328*
X7155472Y10861413*
X7178451Y10879046*
X7196081Y10902022*
X7207166Y10928781*
X7210948Y10957499*
X7207166Y10986213*
X7196081Y11012972*
X7178451Y11035952*
X7155472Y11053582*
X7128713Y11064666*
X7099998Y11068448*
G37*
G36*
X5799998D02*
X5771283Y11064666D01*
X5744524Y11053582*
X5721545Y11035952*
X5703912Y11012972*
X569283Y10986213*
X5689048Y10957499*
X569283Y10928781*
X5703912Y10902022*
X5721545Y10879046*
X5744524Y10861413*
X5771283Y10850328*
X5799998Y10846549*
X5828715Y10850328*
X5855472Y10861413*
X5878451Y10879046*
X5896084Y10902022*
X5907168Y10928781*
X5910948Y10957499*
X5907168Y10986213*
X5896084Y11012972*
X5878451Y11035952*
X5855472Y11053582*
X5828715Y11064666*
X5799998Y11068448*
G37*
G36*
X4499998D02*
X4471283Y11064666D01*
X4444525Y11053582*
X4421545Y11035952*
X4403912Y11012972*
X439283Y10986213*
X4389048Y10957499*
X439283Y10928781*
X4403912Y10902022*
X4421545Y10879046*
X4444525Y10861413*
X4471283Y10850328*
X4499998Y10846549*
X4528715Y10850328*
X4555472Y10861413*
X4578451Y10879046*
X4596084Y10902022*
X4607166Y10928781*
X4610948Y10957499*
X4607166Y10986213*
X4596084Y11012972*
X4578451Y11035952*
X4555472Y11053582*
X4528715Y11064666*
X4499998Y11068448*
G37*
G36*
X16074999Y10776234D02*
Y10724997D01*
X16126233*
X16119878Y10740344*
X16107054Y10757054*
X16090343Y10769879*
X16074999Y10776234*
G37*
G36*
X16024999D02*
X16009655Y10769879D01*
X15992942Y10757054*
X15980117Y10740344*
X15973762Y10724997*
X16024999*
Y10776234*
G37*
G36*
X14694999D02*
Y10724997D01*
X14746234*
X14739879Y10740344*
X14727054Y10757054*
X14710343Y10769879*
X14694999Y10776234*
G37*
G36*
X14644999D02*
X14629653Y10769879D01*
X14612942Y10757054*
X1460012Y10740344*
X14593763Y10724997*
X14644999*
Y10776234*
G37*
G36*
X6594998D02*
Y10724997D01*
X6646235*
X6639877Y10740344*
X6627055Y10757054*
X6610344Y10769879*
X6594998Y10776234*
G37*
G36*
X6544998D02*
X6529654Y10769879D01*
X6512941Y10757054*
X6500119Y10740344*
X6493764Y10724997*
X6544998*
Y10776234*
G37*
G36*
X10444998Y10751235D02*
Y10699998D01*
X10496235*
X10489877Y10715343*
X10477055Y10732056*
X10460344Y10744878*
X10444998Y10751235*
G37*
G36*
X10394998D02*
X10379654Y10744878D01*
X1036294Y10732056*
X10350119Y10715343*
X10343763Y10699998*
X10394998*
Y10751235*
G37*
G36*
X9144998D02*
Y10699998D01*
X9196235*
X9189877Y10715343*
X9177055Y10732056*
X9160344Y10744878*
X9144998Y10751235*
G37*
G36*
X9094998D02*
X9079654Y10744878D01*
X9062943Y10732056*
X9050119Y10715343*
X9043763Y10699998*
X9094998*
Y10751235*
G37*
G36*
X5324998D02*
Y10699998D01*
X5376235*
X5369877Y10715343*
X5357055Y10732056*
X5340344Y10744878*
X5324998Y10751235*
G37*
G36*
X5274998D02*
X5259654Y10744878D01*
X5242943Y10732056*
X5230119Y10715343*
X5223764Y10699998*
X5274998*
Y10751235*
G37*
G36*
X3994998D02*
Y10699998D01*
X4046235*
X4039877Y10715343*
X4027055Y10732056*
X4010342Y10744878*
X3994998Y10751235*
G37*
G36*
X3944998D02*
X3929654Y10744878D01*
X3912941Y10732056*
X3900119Y10715343*
X3893761Y10699998*
X3944998*
Y10751235*
G37*
G36*
X13344999Y10726234D02*
Y10674997D01*
X13396234*
X13389879Y10690344*
X13377054Y10707055*
X13360344Y10719879*
X13344999Y10726234*
G37*
G36*
X13294997D02*
X13279653Y10719879D01*
X13262942Y10707055*
X1325012Y10690344*
X13243763Y10674997*
X13294997*
Y10726234*
G37*
G36*
X11894997D02*
Y10674997D01*
X11946234*
X11939879Y10690344*
X11927055Y10707055*
X11910344Y10719879*
X11894997Y10726234*
G37*
G36*
X11844997D02*
X11829653Y10719879D01*
X1181294Y10707055*
X11800118Y10690344*
X11793763Y10674997*
X11844997*
Y10726234*
G37*
G36*
X7894998D02*
Y10674997D01*
X7946235*
X7939877Y10690344*
X7927055Y10707055*
X7910344Y10719879*
X7894998Y10726234*
G37*
G36*
X7844998D02*
X7829654Y10719879D01*
X781294Y10707055*
X7800119Y10690344*
X7793763Y10674997*
X7844998*
Y10726234*
G37*
G36*
X16126233Y10674997D02*
X16074999D01*
Y10623763*
X16090343Y10630118*
X16107054Y10642942*
X16119878Y10659653*
X16126233Y10674997*
G37*
G36*
X16024999D02*
X15973762D01*
X15980117Y10659653*
X15992942Y10642942*
X16009655Y10630118*
X16024999Y10623763*
Y10674997*
G37*
G36*
X6646235D02*
X6594998D01*
Y10623763*
X6610344Y10630118*
X6627055Y10642942*
X6639877Y10659653*
X6646235Y10674997*
G37*
G36*
X6544998D02*
X6493764D01*
X6500119Y10659653*
X6512941Y10642942*
X6529654Y10630118*
X6544998Y10623763*
Y10674997*
G37*
G36*
X14746234D02*
X14694999D01*
Y10623763*
X14710343Y10630118*
X14727054Y10642942*
X14739879Y10659653*
X14746234Y10674997*
G37*
G36*
X14644999D02*
X14593763D01*
X1460012Y10659653*
X14612942Y10642942*
X14629653Y10630118*
X14644999Y10623763*
Y10674997*
G37*
G36*
X10496235Y10649999D02*
X10444998D01*
Y10598762*
X10460344Y10605119*
X10477055Y10617941*
X10489877Y10634654*
X10496235Y10649999*
G37*
G36*
X10394998D02*
X10343763D01*
X10350119Y10634654*
X1036294Y10617941*
X10379654Y10605119*
X10394998Y10598762*
Y10649999*
G37*
G36*
X9196235D02*
X9144998D01*
Y10598762*
X9160344Y10605119*
X9177055Y10617941*
X9189877Y10634654*
X9196235Y10649999*
G37*
G36*
X9094998D02*
X9043763D01*
X9050119Y10634654*
X9062943Y10617941*
X9079654Y10605119*
X9094998Y10598762*
Y10649999*
G37*
G36*
X5376235D02*
X5324998D01*
Y10598762*
X5340344Y10605119*
X5357055Y10617941*
X5369877Y10634654*
X5376235Y10649999*
G37*
G36*
X5274998D02*
X5223764D01*
X5230119Y10634654*
X5242943Y10617941*
X5259654Y10605119*
X5274998Y10598762*
Y10649999*
G37*
G36*
X4046235D02*
X3994998D01*
Y10598762*
X4010342Y10605119*
X4027055Y10617941*
X4039877Y10634654*
X4046235Y10649999*
G37*
G36*
X3944998D02*
X3893761D01*
X3900119Y10634654*
X3912941Y10617941*
X3929654Y10605119*
X3944998Y10598762*
Y10649999*
G37*
G36*
X13396234Y10624997D02*
X13344999D01*
Y10573763*
X13360344Y10580118*
X13377054Y10592943*
X13389879Y10609653*
X13396234Y10624997*
G37*
G36*
X13294997D02*
X13243763D01*
X1325012Y10609653*
X13262942Y10592943*
X13279653Y10580118*
X13294997Y10573763*
Y10624997*
G37*
G36*
X11946234D02*
X11894997D01*
Y10573763*
X11910344Y10580118*
X11927055Y10592943*
X11939879Y10609653*
X11946234Y10624997*
G37*
G36*
X11844997D02*
X11793763D01*
X11800118Y10609653*
X1181294Y10592943*
X11829653Y10580118*
X11844997Y10573763*
Y10624997*
G37*
G36*
X7946235D02*
X7894998D01*
Y10573763*
X7910344Y10580118*
X7927055Y10592943*
X7939877Y10609653*
X7946235Y10624997*
G37*
G36*
X7844998D02*
X7793763D01*
X7800119Y10609653*
X781294Y10592943*
X7829654Y10580118*
X7844998Y10573763*
Y10624997*
G37*
G36*
X9649998Y9518446D02*
X9621283Y9514667D01*
X9594524Y9503582*
X9571545Y9485952*
X9553912Y9462973*
X954283Y9436214*
X9539048Y9407499*
X954283Y9378782*
X9553912Y9352023*
X9571545Y9329046*
X9594524Y9311413*
X9621283Y9300331*
X9649998Y9296549*
X9678715Y9300331*
X9705474Y9311413*
X9728451Y9329046*
X9746084Y9352023*
X9757166Y9378782*
X9760948Y9407499*
X9757166Y9436214*
X9746084Y9462973*
X9728451Y9485952*
X9705474Y9503582*
X9678715Y9514667*
X9649998Y9518446*
G37*
G36*
X8399998D02*
X8371283Y9514667D01*
X8344524Y9503582*
X8321545Y9485952*
X8303912Y9462973*
X829283Y9436214*
X8289048Y9407499*
X829283Y9378782*
X8303912Y9352026*
X8321545Y9329046*
X8344524Y9311413*
X8371283Y9300331*
X8399998Y9296549*
X8428713Y9300331*
X8455472Y9311413*
X8478451Y9329046*
X8496081Y9352026*
X8507166Y9378782*
X8510948Y9407499*
X8507166Y9436214*
X8496081Y9462973*
X8478451Y9485952*
X8455472Y9503582*
X8428713Y9514667*
X8399998Y9518446*
G37*
G36*
X5799998D02*
X5771283Y9514667D01*
X5744524Y9503582*
X5721545Y9485952*
X5703912Y9462973*
X569283Y9436214*
X5689048Y9407499*
X569283Y9378782*
X5703912Y9352023*
X5721545Y9329046*
X5744524Y9311413*
X5771283Y9300331*
X5799998Y9296549*
X5828715Y9300331*
X5855474Y9311413*
X5878451Y9329046*
X5896084Y9352023*
X5907168Y9378782*
X5910948Y9407499*
X5907168Y9436214*
X5896084Y9462973*
X5878451Y9485952*
X5855474Y9503582*
X5828715Y9514667*
X5799998Y9518446*
G37*
G36*
X4499998Y9505947D02*
X4471283Y9502167D01*
X4444522Y9491083*
X4421545Y947345*
X4403912Y9450473*
X439283Y9423714*
X4389048Y9394997*
X439283Y9366283*
X4403912Y9339524*
X4421545Y9316544*
X4444522Y9298914*
X4471283Y928783*
X4499998Y928405*
X4528715Y928783*
X4555474Y9298914*
X4578451Y9316544*
X4596084Y9339524*
X4607166Y9366283*
X4610948Y9394997*
X4607166Y9423714*
X4596084Y9450473*
X4578451Y947345*
X4555474Y9491083*
X4528715Y9502167*
X4499998Y9505947*
G37*
G36*
X7099998Y9504146D02*
X7071283Y9500367D01*
X7044524Y9489282*
X7021545Y9471652*
X7003912Y9448673*
X699283Y9421914*
X6989048Y9393199*
X699283Y9364482*
X7003912Y9337725*
X7021545Y9314746*
X7044524Y9297113*
X7071283Y9286029*
X7099998Y9282249*
X7128713Y9286029*
X7155472Y9297113*
X7178451Y9314746*
X7196081Y9337725*
X7207166Y9364482*
X7210948Y9393199*
X7207166Y9421914*
X7196081Y9448673*
X7178451Y9471652*
X7155472Y9489282*
X7128713Y9500367*
X7099998Y9504146*
G37*
G36*
X13899997Y9460948D02*
X13871282Y9457166D01*
X13844524Y9446084*
X13821544Y9428452*
X13803914Y9405472*
X13792829Y9378713*
X13789047Y9349999*
X13792829Y9321281*
X13803914Y9294525*
X13821544Y9271546*
X13844524Y9253913*
X13871282Y9242831*
X13899997Y9239049*
X13928714Y9242831*
X13955473Y9253913*
X1397845Y9271546*
X13996083Y9294525*
X14007167Y9321281*
X14010949Y9349999*
X14007167Y9378713*
X13996083Y9405472*
X1397845Y9428452*
X13955473Y9446084*
X13928714Y9457166*
X13899997Y9460948*
G37*
G36*
X15199997Y9455947D02*
X15171282Y9452165D01*
X15144523Y9441083*
X15121544Y942345*
X15103914Y9400473*
X15092829Y9373715*
X15089047Y9344997*
X15092829Y9316283*
X15103914Y9289524*
X15121544Y9266544*
X15144523Y9248914*
X15171282Y923783*
X15199997Y923405*
X15228714Y923783*
X15255471Y9248914*
X1527845Y9266544*
X15296083Y9289524*
X15307167Y9316283*
X15310949Y9344997*
X15307167Y9373715*
X15296083Y9400473*
X1527845Y942345*
X15255471Y9441083*
X15228714Y9452165*
X15199997Y9455947*
G37*
G36*
X12449997D02*
X12421283Y9452165D01*
X12394524Y9441083*
X12371544Y942345*
X12353914Y9400473*
X1234283Y9373715*
X1233905Y9344997*
X1234283Y9316283*
X12353914Y9289524*
X12371544Y9266544*
X12394524Y9248914*
X12421283Y923783*
X12449997Y923405*
X12478715Y923783*
X12505474Y9248914*
X1252845Y9266544*
X12546083Y9289524*
X12557165Y9316283*
X12560947Y9344997*
X12557165Y9373715*
X12546083Y9400473*
X1252845Y942345*
X12505474Y9441083*
X12478715Y9452165*
X12449997Y9455947*
G37*
G36*
X10999998D02*
X10971283Y9452165D01*
X10944524Y9441083*
X10921545Y942345*
X10903912Y9400473*
X1089283Y9373715*
X10889048Y9344997*
X1089283Y9316283*
X10903912Y9289524*
X10921545Y9266544*
X10944524Y9248914*
X10971283Y923783*
X10999998Y923405*
X11028715Y923783*
X11055471Y9248914*
X11078451Y9266544*
X11096083Y9289524*
X11107166Y9316283*
X11110948Y9344997*
X11107166Y9373715*
X11096083Y9400473*
X11078451Y942345*
X11055471Y9441083*
X11028715Y9452165*
X10999998Y9455947*
G37*
G36*
X16699999Y9410948D02*
X16671282Y9407166D01*
X16644526Y9396084*
X16621546Y9378452*
X16603913Y9355472*
X16592829Y9328713*
X16589049Y9299999*
X16592829Y9271281*
X16603913Y9244525*
X16621546Y9221546*
X16644526Y9203913*
X16671282Y9192828*
X16699999Y9189049*
X16728714Y9192828*
X1675547Y9203913*
X16778452Y9221546*
X16796082Y9244525*
X16807167Y9271281*
X16810949Y9299999*
X16807167Y9328713*
X16796082Y9355472*
X16778452Y9378452*
X1675547Y9396084*
X16728714Y9407166*
X16699999Y9410948*
G37*
G36*
X7894998Y9226235D02*
Y9174998D01*
X7946235*
X7939877Y9190344*
X7927055Y9207055*
X7910344Y9219879*
X7894998Y9226235*
G37*
G36*
X7844998D02*
X7829654Y9219879D01*
X781294Y9207055*
X7800119Y9190344*
X7793763Y9174998*
X7844998*
Y9226235*
G37*
G36*
X6594998D02*
Y9174998D01*
X6646235*
X6639877Y9190344*
X6627055Y9207055*
X6610344Y9219879*
X6594998Y9226235*
G37*
G36*
X6544998D02*
X6529654Y9219879D01*
X6512941Y9207055*
X6500119Y9190344*
X6493764Y9174998*
X6544998*
Y9226235*
G37*
G36*
X9144998Y9201233D02*
Y9149999D01*
X9196235*
X9189877Y9165343*
X9177055Y9182056*
X9160344Y9194878*
X9144998Y9201233*
G37*
G36*
X9094998D02*
X9079654Y9194878D01*
X9062943Y9182056*
X9050119Y9165343*
X9043763Y9149999*
X9094998*
Y9201233*
G37*
G36*
X4049999D02*
Y9149999D01*
X4101233*
X4094878Y9165343*
X4082054Y9182056*
X4065343Y9194878*
X4049999Y9201233*
G37*
G36*
X3999999D02*
X3984652Y9194878D01*
X3967942Y9182056*
X3955117Y9165343*
X3948762Y9149999*
X3999999*
Y9201233*
G37*
G36*
X16077199Y9176235D02*
Y9124998D01*
X16128433*
X16122078Y9140344*
X16109254Y9157055*
X16092543Y9169877*
X16077199Y9176235*
G37*
G36*
X16027199D02*
X16011852Y9169877D01*
X15995142Y9157055*
X15982317Y9140344*
X15975962Y9124998*
X16027199*
Y9176235*
G37*
G36*
X10444998D02*
Y9124998D01*
X10496235*
X10489877Y9140344*
X10477055Y9157055*
X10460344Y9169877*
X10444998Y9176235*
G37*
G36*
X10394998D02*
X10379654Y9169877D01*
X1036294Y9157055*
X10350119Y9140344*
X10343763Y9124998*
X10394998*
Y9176235*
G37*
G36*
X14694999Y9151233D02*
Y9099999D01*
X14746234*
X14739879Y9115343*
X14727054Y9132056*
X14710343Y9144878*
X14694999Y9151233*
G37*
G36*
X14644999D02*
X14629653Y9144878D01*
X14612942Y9132056*
X1460012Y9115343*
X14593763Y9099999*
X14644999*
Y9151233*
G37*
G36*
X13344999D02*
Y9099999D01*
X13396234*
X13389879Y9115343*
X13377054Y9132056*
X13360344Y9144878*
X13344999Y9151233*
G37*
G36*
X13294997D02*
X13279653Y9144878D01*
X13262942Y9132056*
X1325012Y9115343*
X13243763Y9099999*
X13294997*
Y9151233*
G37*
G36*
X5324998D02*
Y9099999D01*
X5376235*
X5369877Y9115343*
X5357055Y9132056*
X5340344Y9144878*
X5324998Y9151233*
G37*
G36*
X5274998D02*
X5259654Y9144878D01*
X5242943Y9132056*
X5230119Y9115343*
X5223764Y9099999*
X5274998*
Y9151233*
G37*
G36*
X11894997Y9126235D02*
Y9074998D01*
X11946234*
X11939879Y9090342*
X11927055Y9107055*
X11910344Y9119877*
X11894997Y9126235*
G37*
G36*
X11844997D02*
X11829653Y9119877D01*
X1181294Y9107055*
X11800118Y9090342*
X11793763Y9074998*
X11844997*
Y9126235*
G37*
G36*
X7946235Y9124998D02*
X7894998D01*
Y9073763*
X7910344Y9080119*
X7927055Y909294*
X7939877Y9109654*
X7946235Y9124998*
G37*
G36*
X7844998D02*
X7793763D01*
X7800119Y9109654*
X781294Y909294*
X7829654Y9080119*
X7844998Y9073763*
Y9124998*
G37*
G36*
X6646235D02*
X6594998D01*
Y9073763*
X6610344Y9080119*
X6627055Y909294*
X6639877Y9109654*
X6646235Y9124998*
G37*
G36*
X6544998D02*
X6493764D01*
X6500119Y9109654*
X6512941Y909294*
X6529654Y9080119*
X6544998Y9073763*
Y9124998*
G37*
G36*
X9196235Y9099999D02*
X9144998D01*
Y9048762*
X9160344Y9055117*
X9177055Y9067942*
X9189877Y9084652*
X9196235Y9099999*
G37*
G36*
X9094998D02*
X9043763D01*
X9050119Y9084652*
X9062943Y9067942*
X9079654Y9055117*
X9094998Y9048762*
Y9099999*
G37*
G36*
X4101233D02*
X4049999D01*
Y9048762*
X4065343Y9055117*
X4082054Y9067942*
X4094878Y9084652*
X4101233Y9099999*
G37*
G36*
X3999999D02*
X3948762D01*
X3955117Y9084652*
X3967942Y9067942*
X3984652Y9055117*
X3999999Y9048762*
Y9099999*
G37*
G36*
X16128433Y9074998D02*
X16077199D01*
Y9023761*
X16092543Y9030119*
X16109254Y9042943*
X16122078Y9059654*
X16128433Y9074998*
G37*
G36*
X16027199D02*
X15975962D01*
X15982317Y9059654*
X15995142Y9042943*
X16011852Y9030119*
X16027199Y9023761*
Y9074998*
G37*
G36*
X10496235D02*
X10444998D01*
Y9023761*
X10460344Y9030119*
X10477055Y9042943*
X10489877Y9059654*
X10496235Y9074998*
G37*
G36*
X10394998D02*
X10343763D01*
X10350119Y9059654*
X1036294Y9042943*
X10379654Y9030119*
X10394998Y9023761*
Y9074998*
G37*
G36*
X14746234Y9049999D02*
X14694999D01*
Y8998762*
X14710343Y9005117*
X14727054Y9017942*
X14739879Y9034653*
X14746234Y9049999*
G37*
G36*
X14644999D02*
X14593763D01*
X1460012Y9034653*
X14612942Y9017942*
X14629653Y9005117*
X14644999Y8998762*
Y9049999*
G37*
G36*
X13396234D02*
X13344999D01*
Y8998762*
X13360344Y9005117*
X13377054Y9017942*
X13389879Y9034653*
X13396234Y9049999*
G37*
G36*
X13294997D02*
X13243763D01*
X1325012Y9034653*
X13262942Y9017942*
X13279653Y9005117*
X13294997Y8998762*
Y9049999*
G37*
G36*
X5376235D02*
X5324998D01*
Y8998762*
X5340344Y9005117*
X5357055Y9017942*
X5369877Y9034653*
X5376235Y9049999*
G37*
G36*
X5274998D02*
X5223764D01*
X5230119Y9034653*
X5242943Y9017942*
X5259654Y9005117*
X5274998Y8998762*
Y9049999*
G37*
G36*
X11946234Y9024998D02*
X11894997D01*
Y8973761*
X11910344Y8980119*
X11927055Y8992941*
X11939879Y9009654*
X11946234Y9024998*
G37*
G36*
X11844997D02*
X11793763D01*
X11800118Y9009654*
X1181294Y8992941*
X11829653Y8980119*
X11844997Y8973761*
Y9024998*
G37*
G36*
X16699999Y8110948D02*
X16671282Y8107166D01*
X16644526Y8096084*
X16621546Y8078452*
X16603913Y8055472*
X16592829Y8028713*
X16589049Y7999999*
X16592829Y7971282*
X16603913Y7944525*
X16621546Y7921546*
X16644526Y7903913*
X16671282Y7892831*
X16699999Y7889049*
X16728714Y7892831*
X1675547Y7903913*
X16778452Y7921546*
X16796082Y7944525*
X16807167Y7971282*
X16810949Y7999999*
X16807167Y8028713*
X16796082Y8055472*
X16778452Y8078452*
X1675547Y8096084*
X16728714Y8107166*
X16699999Y8110948*
G37*
G36*
X15199997D02*
X15171282Y8107166D01*
X15144523Y8096084*
X15121544Y8078452*
X15103914Y8055472*
X15092829Y8028713*
X15089047Y7999999*
X15092829Y7971282*
X15103914Y7944525*
X15121544Y7921546*
X15144523Y7903913*
X15171282Y7892831*
X15199997Y7889049*
X15228714Y7892831*
X15255471Y7903913*
X1527845Y7921546*
X15296083Y7944525*
X15307167Y7971282*
X15310949Y7999999*
X15307167Y8028713*
X15296083Y8055472*
X1527845Y8078452*
X15255471Y8096084*
X15228714Y8107166*
X15199997Y8110948*
G37*
G36*
X13899997D02*
X13871282Y8107166D01*
X13844526Y8096084*
X13821544Y8078452*
X13803914Y8055472*
X13792829Y8028713*
X13789047Y7999999*
X13792829Y7971282*
X13803914Y7944525*
X13821544Y7921546*
X13844526Y7903913*
X13871282Y7892831*
X13899997Y7889049*
X13928714Y7892831*
X13955471Y7903913*
X1397845Y7921546*
X13996083Y7944525*
X14007167Y7971282*
X14010949Y7999999*
X14007167Y8028713*
X13996083Y8055472*
X1397845Y8078452*
X13955471Y8096084*
X13928714Y8107166*
X13899997Y8110948*
G37*
G36*
X12449997D02*
X12421283Y8107166D01*
X12394524Y8096084*
X12371544Y8078452*
X12353914Y8055472*
X1234283Y8028713*
X1233905Y7999999*
X1234283Y7971282*
X12353914Y7944523*
X12371544Y7921546*
X12394524Y7903913*
X12421283Y7892831*
X12449997Y7889049*
X12478715Y7892831*
X12505471Y7903913*
X1252845Y7921546*
X12546083Y7944523*
X12557165Y7971282*
X12560947Y7999999*
X12557165Y8028713*
X12546083Y8055472*
X1252845Y8078452*
X12505471Y8096084*
X12478715Y8107166*
X12449997Y8110948*
G37*
G36*
X10999998D02*
X10971283Y8107166D01*
X10944524Y8096084*
X10921545Y8078452*
X10903912Y8055472*
X1089283Y8028713*
X10889048Y7999999*
X1089283Y7971282*
X10903912Y7944523*
X10921545Y7921546*
X10944524Y7903913*
X10971283Y7892831*
X10999998Y7889049*
X11028715Y7892831*
X11055471Y7903913*
X11078451Y7921546*
X11096083Y7944523*
X11107166Y7971282*
X11110948Y7999999*
X11107166Y8028713*
X11096083Y8055472*
X11078451Y8078452*
X11055471Y8096084*
X11028715Y8107166*
X10999998Y8110948*
G37*
G36*
X9649998D02*
X9621283Y8107166D01*
X9594524Y8096084*
X9571545Y8078452*
X9553912Y8055472*
X954283Y8028713*
X9539048Y7999999*
X954283Y7971282*
X9553912Y7944523*
X9571545Y7921546*
X9594524Y7903913*
X9621283Y7892831*
X9649998Y7889049*
X9678715Y7892831*
X9705472Y7903913*
X9728451Y7921546*
X9746084Y7944523*
X9757166Y7971282*
X9760948Y7999999*
X9757166Y8028713*
X9746084Y8055472*
X9728451Y8078452*
X9705472Y8096084*
X9678715Y8107166*
X9649998Y8110948*
G37*
G36*
X8399998D02*
X8371283Y8107166D01*
X8344524Y8096084*
X8321545Y8078452*
X8303912Y8055472*
X829283Y8028713*
X8289048Y7999999*
X829283Y7971282*
X8303912Y7944525*
X8321545Y7921546*
X8344524Y7903913*
X8371283Y7892831*
X8399998Y7889049*
X8428713Y7892831*
X8455472Y7903913*
X8478451Y7921546*
X8496081Y7944525*
X8507166Y7971282*
X8510948Y7999999*
X8507166Y8028713*
X8496081Y8055472*
X8478451Y8078452*
X8455472Y8096084*
X8428713Y8107166*
X8399998Y8110948*
G37*
G36*
X7099998D02*
X7071283Y8107166D01*
X7044524Y8096084*
X7021545Y8078452*
X7003912Y8055472*
X699283Y8028713*
X6989048Y7999999*
X699283Y7971282*
X7003912Y7944525*
X7021545Y7921546*
X7044524Y7903913*
X7071283Y7892831*
X7099998Y7889049*
X7128713Y7892831*
X7155472Y7903913*
X7178451Y7921546*
X7196081Y7944525*
X7207166Y7971282*
X7210948Y7999999*
X7207166Y8028713*
X7196081Y8055472*
X7178451Y8078452*
X7155472Y8096084*
X7128713Y8107166*
X7099998Y8110948*
G37*
G36*
X5799998D02*
X5771283Y8107166D01*
X5744524Y8096084*
X5721545Y8078452*
X5703912Y8055472*
X569283Y8028713*
X5689048Y7999999*
X569283Y7971282*
X5703912Y7944523*
X5721545Y7921546*
X5744524Y7903913*
X5771283Y7892831*
X5799998Y7889049*
X5828715Y7892831*
X5855472Y7903913*
X5878451Y7921546*
X5896084Y7944523*
X5907168Y7971282*
X5910948Y7999999*
X5907168Y8028713*
X5896084Y8055472*
X5878451Y8078452*
X5855472Y8096084*
X5828715Y8107166*
X5799998Y8110948*
G37*
G36*
X4499998D02*
X4471283Y8107166D01*
X4444525Y8096084*
X4421545Y8078452*
X4403912Y8055472*
X439283Y8028713*
X4389048Y7999999*
X439283Y7971282*
X4403912Y7944525*
X4421545Y7921546*
X4444525Y7903913*
X4471283Y7892831*
X4499998Y7889049*
X4528715Y7892831*
X4555472Y7903913*
X4578451Y7921546*
X4596084Y7944525*
X4607166Y7971282*
X4610948Y7999999*
X4607166Y8028713*
X4596084Y8055472*
X4578451Y8078452*
X4555472Y8096084*
X4528715Y8107166*
X4499998Y8110948*
G37*
G36*
X4049999Y7826235D02*
Y7774998D01*
X4101233*
X4094878Y7790342*
X4082054Y7807055*
X4065343Y7819877*
X4049999Y7826235*
G37*
G36*
X3999999D02*
X3984652Y7819877D01*
X3967942Y7807055*
X3955117Y7790342*
X3948762Y7774998*
X3999999*
Y7826235*
G37*
G36*
X16074999Y7776235D02*
Y7724998D01*
X16126233*
X16119878Y7740342*
X16107054Y7757055*
X16090343Y7769877*
X16074999Y7776235*
G37*
G36*
X16024999D02*
X16009655Y7769877D01*
X15992942Y7757055*
X15980117Y7740342*
X15973762Y7724998*
X16024999*
Y7776235*
G37*
G36*
X14694999D02*
Y7724998D01*
X14746234*
X14739879Y7740342*
X14727054Y7757055*
X14710343Y7769877*
X14694999Y7776235*
G37*
G36*
X14644999D02*
X14629653Y7769877D01*
X14612942Y7757055*
X1460012Y7740342*
X14593763Y7724998*
X14644999*
Y7776235*
G37*
G36*
X11894997D02*
Y7724998D01*
X11946234*
X11939879Y7740342*
X11927055Y7757055*
X11910344Y7769877*
X11894997Y7776235*
G37*
G36*
X11844997D02*
X11829653Y7769877D01*
X1181294Y7757055*
X11800118Y7740342*
X11793763Y7724998*
X11844997*
Y7776235*
G37*
G36*
X9144998D02*
Y7724998D01*
X9196235*
X9189877Y7740342*
X9177055Y7757055*
X9160344Y7769877*
X9144998Y7776235*
G37*
G36*
X9094998D02*
X9079654Y7769877D01*
X9062943Y7757055*
X9050119Y7740342*
X9043763Y7724998*
X9094998*
Y7776235*
G37*
G36*
X6594998D02*
Y7724998D01*
X6646235*
X6639877Y7740342*
X6627055Y7757055*
X6610344Y7769877*
X6594998Y7776235*
G37*
G36*
X6544998D02*
X6529654Y7769877D01*
X6512941Y7757055*
X6500119Y7740342*
X6493764Y7724998*
X6544998*
Y7776235*
G37*
G36*
X5324998D02*
Y7724998D01*
X5376235*
X5369877Y7740342*
X5357055Y7757055*
X5340344Y7769877*
X5324998Y7776235*
G37*
G36*
X5274998D02*
X5259654Y7769877D01*
X5242943Y7757055*
X5230119Y7740342*
X5223764Y7724998*
X5274998*
Y7776235*
G37*
G36*
X13344999Y7751234D02*
Y7699999D01*
X13396234*
X13389879Y7715343*
X13377054Y7732054*
X13360344Y7744879*
X13344999Y7751234*
G37*
G36*
X13294997D02*
X13279653Y7744879D01*
X13262942Y7732054*
X1325012Y7715343*
X13243763Y7699999*
X13294997*
Y7751234*
G37*
G36*
X10444998D02*
Y7699999D01*
X10496235*
X10489877Y7715343*
X10477055Y7732054*
X10460344Y7744879*
X10444998Y7751234*
G37*
G36*
X10394998D02*
X10379654Y7744879D01*
X1036294Y7732054*
X10350119Y7715343*
X10343763Y7699999*
X10394998*
Y7751234*
G37*
G36*
X7894998D02*
Y7699999D01*
X7946235*
X7939877Y7715343*
X7927055Y7732054*
X7910344Y7744879*
X7894998Y7751234*
G37*
G36*
X7844998D02*
X7829654Y7744879D01*
X781294Y7732054*
X7800119Y7715343*
X7793763Y7699999*
X7844998*
Y7751234*
G37*
G36*
X4101233Y7724998D02*
X4049999D01*
Y7673761*
X4065343Y7680119*
X4082054Y7692941*
X4094878Y7709654*
X4101233Y7724998*
G37*
G36*
X3999999D02*
X3948762D01*
X3955117Y7709654*
X3967942Y7692941*
X3984652Y7680119*
X3999999Y7673761*
Y7724998*
G37*
G36*
X16126233Y7674998D02*
X16074999D01*
Y7623761*
X16090343Y7630119*
X16107054Y7642943*
X16119878Y7659654*
X16126233Y7674998*
G37*
G36*
X16024999D02*
X15973762D01*
X15980117Y7659654*
X15992942Y7642943*
X16009655Y7630119*
X16024999Y7623761*
Y7674998*
G37*
G36*
X14746234D02*
X14694999D01*
Y7623761*
X14710343Y7630119*
X14727054Y7642943*
X14739879Y7659654*
X14746234Y7674998*
G37*
G36*
X14644999D02*
X14593763D01*
X1460012Y7659654*
X14612942Y7642943*
X14629653Y7630119*
X14644999Y7623761*
Y7674998*
G37*
G36*
X11946234D02*
X11894997D01*
Y7623761*
X11910344Y7630119*
X11927055Y7642943*
X11939879Y7659654*
X11946234Y7674998*
G37*
G36*
X11844997D02*
X11793763D01*
X11800118Y7659654*
X1181294Y7642943*
X11829653Y7630119*
X11844997Y7623761*
Y7674998*
G37*
G36*
X9196235D02*
X9144998D01*
Y7623761*
X9160344Y7630119*
X9177055Y7642943*
X9189877Y7659654*
X9196235Y7674998*
G37*
G36*
X9094998D02*
X9043763D01*
X9050119Y7659654*
X9062943Y7642943*
X9079654Y7630119*
X9094998Y7623761*
Y7674998*
G37*
G36*
X6646235D02*
X6594998D01*
Y7623761*
X6610344Y7630119*
X6627055Y7642943*
X6639877Y7659654*
X6646235Y7674998*
G37*
G36*
X6544998D02*
X6493764D01*
X6500119Y7659654*
X6512941Y7642943*
X6529654Y7630119*
X6544998Y7623761*
Y7674998*
G37*
G36*
X5376235D02*
X5324998D01*
Y7623761*
X5340344Y7630119*
X5357055Y7642943*
X5369877Y7659654*
X5376235Y7674998*
G37*
G36*
X5274998D02*
X5223764D01*
X5230119Y7659654*
X5242943Y7642943*
X5259654Y7630119*
X5274998Y7623761*
Y7674998*
G37*
G36*
X13396234Y7649999D02*
X13344999D01*
Y7598763*
X13360344Y7605118*
X13377054Y7617942*
X13389879Y7634653*
X13396234Y7649999*
G37*
G36*
X13294997D02*
X13243763D01*
X1325012Y7634653*
X13262942Y7617942*
X13279653Y7605118*
X13294997Y7598763*
Y7649999*
G37*
G36*
X10496235D02*
X10444998D01*
Y7598763*
X10460344Y7605118*
X10477055Y7617942*
X10489877Y7634653*
X10496235Y7649999*
G37*
G36*
X10394998D02*
X10343763D01*
X10350119Y7634653*
X1036294Y7617942*
X10379654Y7605118*
X10394998Y7598763*
Y7649999*
G37*
G36*
X7946235D02*
X7894998D01*
Y7598763*
X7910344Y7605118*
X7927055Y7617942*
X7939877Y7634653*
X7946235Y7649999*
G37*
G36*
X7844998D02*
X7793763D01*
X7800119Y7634653*
X781294Y7617942*
X7829654Y7605118*
X7844998Y7598763*
Y7649999*
G37*
G36*
X16699999Y6605948D02*
X16671282Y6602166D01*
X16644526Y6591081*
X16621546Y6573451*
X16603913Y6550472*
X16592829Y6523713*
X16589049Y6494998*
X16592829Y6466283*
X16603913Y6439524*
X16621546Y6416545*
X16644526Y6398912*
X16671282Y638783*
X16699999Y6384048*
X16728714Y638783*
X1675547Y6398912*
X16778452Y6416545*
X16796082Y6439524*
X16807167Y6466283*
X16810949Y6494998*
X16807167Y6523713*
X16796082Y6550472*
X16778452Y6573451*
X1675547Y6591081*
X16728714Y6602166*
X16699999Y6605948*
G37*
G36*
X15199997D02*
X15171282Y6602166D01*
X15144523Y6591081*
X15121544Y6573451*
X15103914Y6550472*
X15092829Y6523713*
X15089047Y6494998*
X15092829Y6466283*
X15103914Y6439524*
X15121544Y6416545*
X15144523Y6398912*
X15171282Y638783*
X15199997Y6384048*
X15228714Y638783*
X15255471Y6398912*
X1527845Y6416545*
X15296083Y6439524*
X15307167Y6466283*
X15310949Y6494998*
X15307167Y6523713*
X15296083Y6550472*
X1527845Y6573451*
X15255471Y6591081*
X15228714Y6602166*
X15199997Y6605948*
G37*
G36*
X13899997D02*
X13871282Y6602166D01*
X13844526Y6591081*
X13821544Y6573451*
X13803914Y6550472*
X13792829Y6523713*
X13789047Y6494998*
X13792829Y6466283*
X13803914Y6439524*
X13821544Y6416545*
X13844526Y6398912*
X13871282Y638783*
X13899997Y6384048*
X13928714Y638783*
X13955471Y6398912*
X1397845Y6416545*
X13996083Y6439524*
X14007167Y6466283*
X14010949Y6494998*
X14007167Y6523713*
X13996083Y6550472*
X1397845Y6573451*
X13955471Y6591081*
X13928714Y6602166*
X13899997Y6605948*
G37*
G36*
X12449997D02*
X12421283Y6602166D01*
X12394524Y6591081*
X12371544Y6573451*
X12353914Y6550472*
X1234283Y6523713*
X1233905Y6494998*
X1234283Y6466283*
X12353914Y6439524*
X12371544Y6416545*
X12394524Y6398912*
X12421283Y638783*
X12449997Y6384048*
X12478715Y638783*
X12505471Y6398912*
X1252845Y6416545*
X12546083Y6439524*
X12557165Y6466283*
X12560947Y6494998*
X12557165Y6523713*
X12546083Y6550472*
X1252845Y6573451*
X12505471Y6591081*
X12478715Y6602166*
X12449997Y6605948*
G37*
G36*
X10999998D02*
X10971283Y6602166D01*
X10944524Y6591081*
X10921545Y6573451*
X10903912Y6550472*
X1089283Y6523713*
X10889048Y6494998*
X1089283Y6466283*
X10903912Y6439524*
X10921545Y6416545*
X10944524Y6398912*
X10971283Y638783*
X10999998Y6384048*
X11028715Y638783*
X11055471Y6398912*
X11078451Y6416545*
X11096083Y6439524*
X11107166Y6466283*
X11110948Y6494998*
X11107166Y6523713*
X11096083Y6550472*
X11078451Y6573451*
X11055471Y6591081*
X11028715Y6602166*
X10999998Y6605948*
G37*
G36*
X9649998D02*
X9621283Y6602166D01*
X9594524Y6591081*
X9571545Y6573451*
X9553912Y6550472*
X954283Y6523713*
X9539048Y6494998*
X954283Y6466283*
X9553912Y6439524*
X9571545Y6416545*
X9594524Y6398912*
X9621283Y638783*
X9649998Y6384048*
X9678715Y638783*
X9705472Y6398912*
X9728451Y6416545*
X9746084Y6439524*
X9757166Y6466283*
X9760948Y6494998*
X9757166Y6523713*
X9746084Y6550472*
X9728451Y6573451*
X9705472Y6591081*
X9678715Y6602166*
X9649998Y6605948*
G37*
G36*
X8399998D02*
X8371283Y6602166D01*
X8344524Y6591081*
X8321545Y6573451*
X8303912Y6550472*
X829283Y6523713*
X8289048Y6494998*
X829283Y6466283*
X8303912Y6439524*
X8321545Y6416545*
X8344524Y6398912*
X8371283Y638783*
X8399998Y6384048*
X8428713Y638783*
X8455472Y6398912*
X8478451Y6416545*
X8496081Y6439524*
X8507166Y6466283*
X8510948Y6494998*
X8507166Y6523713*
X8496081Y6550472*
X8478451Y6573451*
X8455472Y6591081*
X8428713Y6602166*
X8399998Y6605948*
G37*
G36*
X7099998D02*
X7071283Y6602166D01*
X7044524Y6591081*
X7021545Y6573451*
X7003912Y6550472*
X699283Y6523713*
X6989048Y6494998*
X699283Y6466283*
X7003912Y6439524*
X7021545Y6416545*
X7044524Y6398912*
X7071283Y638783*
X7099998Y6384048*
X7128713Y638783*
X7155472Y6398912*
X7178451Y6416545*
X7196081Y6439524*
X7207166Y6466283*
X7210948Y6494998*
X7207166Y6523713*
X7196081Y6550472*
X7178451Y6573451*
X7155472Y6591081*
X7128713Y6602166*
X7099998Y6605948*
G37*
G36*
X5799998D02*
X5771283Y6602166D01*
X5744524Y6591081*
X5721545Y6573451*
X5703912Y6550472*
X569283Y6523713*
X5689048Y6494998*
X569283Y6466283*
X5703912Y6439524*
X5721545Y6416545*
X5744524Y6398912*
X5771283Y638783*
X5799998Y6384048*
X5828715Y638783*
X5855472Y6398912*
X5878451Y6416545*
X5896084Y6439524*
X5907168Y6466283*
X5910948Y6494998*
X5907168Y6523713*
X5896084Y6550472*
X5878451Y6573451*
X5855472Y6591081*
X5828715Y6602166*
X5799998Y6605948*
G37*
G36*
X4499998D02*
X4471283Y6602166D01*
X4444525Y6591081*
X4421545Y6573451*
X4403912Y6550472*
X439283Y6523713*
X4389048Y6494998*
X439283Y6466283*
X4403912Y6439524*
X4421545Y6416545*
X4444525Y6398912*
X4471283Y638783*
X4499998Y6384048*
X4528715Y638783*
X4555472Y6398912*
X4578451Y6416545*
X4596084Y6439524*
X4607166Y6466283*
X4610948Y6494998*
X4607166Y6523713*
X4596084Y6550472*
X4578451Y6573451*
X4555472Y6591081*
X4528715Y6602166*
X4499998Y6605948*
G37*
G36*
X6594998Y6331234D02*
Y6279997D01*
X6646235*
X6639877Y6295344*
X6627055Y6312054*
X6610344Y6324876*
X6594998Y6331234*
G37*
G36*
X6544998D02*
X6529654Y6324876D01*
X6512943Y6312054*
X6500119Y6295344*
X6493764Y6279997*
X6544998*
Y6331234*
G37*
G36*
X5319999Y6326235D02*
Y6274998D01*
X5371233*
X5364878Y6290343*
X5352054Y6307053*
X5335343Y6319878*
X5319999Y6326235*
G37*
G36*
X5269999D02*
X5254652Y6319878D01*
X5237942Y6307053*
X5225117Y6290343*
X5218762Y6274998*
X5269999*
Y6326235*
G37*
G36*
X3994998Y6301234D02*
Y6249997D01*
X4046232*
X4039877Y6265344*
X4027055Y6282055*
X4010342Y6294879*
X3994998Y6301234*
G37*
G36*
X3944998D02*
X3929654Y6294879D01*
X3912941Y6282055*
X3900119Y6265344*
X3893761Y6249997*
X3944998*
Y6301234*
G37*
G36*
X10424998Y6295585D02*
Y6244348D01*
X10476235*
X1046988Y6259692*
X10457055Y6276403*
X10440344Y6289227*
X10424998Y6295585*
G37*
G36*
X10374998D02*
X10359654Y6289227D01*
X1034294Y6276403*
X10330119Y6259692*
X10323763Y6244348*
X10374998*
Y6295585*
G37*
G36*
X7894998D02*
Y6244348D01*
X7946235*
X7939877Y6259692*
X7927055Y6276403*
X7910344Y6289227*
X7894998Y6295585*
G37*
G36*
X7844998D02*
X7829654Y6289227D01*
X781294Y6276403*
X7800119Y6259692*
X7793763Y6244348*
X7844998*
Y6295585*
G37*
G36*
X9144998Y6292433D02*
Y6241199D01*
X9196235*
X9189877Y6256543*
X9177055Y6273253*
X9160344Y6286078*
X9144998Y6292433*
G37*
G36*
X9094998D02*
X9079654Y6286078D01*
X9062943Y6273253*
X9050119Y6256543*
X9043763Y6241199*
X9094998*
Y6292433*
G37*
G36*
X14694999Y6278735D02*
Y6227498D01*
X14746234*
X14739879Y6242842*
X14727054Y6259555*
X14710343Y6272377*
X14694999Y6278735*
G37*
G36*
X14644999D02*
X14629653Y6272377D01*
X14612942Y6259555*
X1460012Y6242842*
X14593763Y6227498*
X14644999*
Y6278735*
G37*
G36*
X13344999Y6276235D02*
Y6224998D01*
X13396234*
X13389879Y6240343*
X13377054Y6257056*
X13360344Y6269878*
X13344999Y6276235*
G37*
G36*
X13294997D02*
X13279653Y6269878D01*
X13262942Y6257056*
X1325012Y6240343*
X13243763Y6224998*
X13294997*
Y6276235*
G37*
G36*
X11894997D02*
Y6224998D01*
X11946234*
X11939879Y6240343*
X11927055Y6257056*
X11910344Y6269878*
X11894997Y6276235*
G37*
G36*
X11844997D02*
X11829653Y6269878D01*
X1181294Y6257056*
X11800118Y6240343*
X11793763Y6224998*
X11844997*
Y6276235*
G37*
G36*
X16077199Y6262634D02*
Y6211399D01*
X16128433*
X16122078Y6226743*
X16109254Y6243454*
X16092543Y6256279*
X16077199Y6262634*
G37*
G36*
X16027199D02*
X16011852Y6256279D01*
X15995142Y6243454*
X15982317Y6226743*
X15975962Y6211399*
X16027199*
Y6262634*
G37*
G36*
X6646235Y6229997D02*
X6594998D01*
Y6178763*
X6610344Y6185118*
X6627055Y6197942*
X6639877Y6214653*
X6646235Y6229997*
G37*
G36*
X6544998D02*
X6493764D01*
X6500119Y6214653*
X6512943Y6197942*
X6529654Y6185118*
X6544998Y6178763*
Y6229997*
G37*
G36*
X5371233Y6224998D02*
X5319999D01*
Y6173762*
X5335343Y6180119*
X5352054Y6192941*
X5364878Y6209654*
X5371233Y6224998*
G37*
G36*
X5269999D02*
X5218762D01*
X5225117Y6209654*
X5237942Y6192941*
X5254652Y6180119*
X5269999Y6173762*
Y6224998*
G37*
G36*
X4046232Y6199997D02*
X3994998D01*
Y6148763*
X4010342Y6155118*
X4027055Y6167942*
X4039877Y6184653*
X4046232Y6199997*
G37*
G36*
X3944998D02*
X3893761D01*
X3900119Y6184653*
X3912941Y6167942*
X3929654Y6155118*
X3944998Y6148763*
Y6199997*
G37*
G36*
X7946235Y6194348D02*
X7894998D01*
Y6143111*
X7910344Y6149469*
X7927055Y6162291*
X7939877Y6179004*
X7946235Y6194348*
G37*
G36*
X7844998D02*
X7793763D01*
X7800119Y6179004*
X781294Y6162291*
X7829654Y6149469*
X7844998Y6143111*
Y6194348*
G37*
G36*
X10476235D02*
X10424998D01*
Y6143111*
X10440344Y6149469*
X10457055Y6162291*
X1046988Y6179004*
X10476235Y6194348*
G37*
G36*
X10374998D02*
X10323763D01*
X10330119Y6179004*
X1034294Y6162291*
X10359654Y6149469*
X10374998Y6143111*
Y6194348*
G37*
G36*
X9196235Y6191199D02*
X9144998D01*
Y6139962*
X9160344Y6146319*
X9177055Y6159141*
X9189877Y6175852*
X9196235Y6191199*
G37*
G36*
X9094998D02*
X9043763D01*
X9050119Y6175852*
X9062943Y6159141*
X9079654Y6146319*
X9094998Y6139962*
Y6191199*
G37*
G36*
X17924998Y6425224D02*
Y6131201D01*
X18219021*
X18217034Y6156416*
X18205279Y6205395*
X18186003Y625193*
X18159684Y6294876*
X18126971Y6333177*
X1808867Y6365887*
X18045724Y6392207*
X17999189Y641148*
X17950213Y642324*
X17924998Y6425224*
G37*
G36*
X17874998D02*
X17849783Y642324D01*
X17800807Y641148*
X17754272Y6392207*
X17711326Y6365887*
X17673025Y6333177*
X17640312Y6294876*
X17613993Y625193*
X17594719Y6205395*
X17582959Y6156416*
X17580975Y6131201*
X17874998*
Y6425224*
G37*
G36*
X14746234Y6177498D02*
X14694999D01*
Y6126261*
X14710343Y6132619*
X14727054Y6145441*
X14739879Y6162154*
X14746234Y6177498*
G37*
G36*
X14644999D02*
X14593763D01*
X1460012Y6162154*
X14612942Y6145441*
X14629653Y6132619*
X14644999Y6126261*
Y6177498*
G37*
G36*
X13396234Y6174999D02*
X13344999D01*
Y6123762*
X13360344Y6130119*
X13377054Y6142941*
X13389879Y6159654*
X13396234Y6174999*
G37*
G36*
X13294997D02*
X13243763D01*
X1325012Y6159654*
X13262942Y6142941*
X13279653Y6130119*
X13294997Y6123762*
Y6174999*
G37*
G36*
X11946234D02*
X11894997D01*
Y6123762*
X11910344Y6130119*
X11927055Y6142941*
X11939879Y6159654*
X11946234Y6174999*
G37*
G36*
X11844997D02*
X11793763D01*
X11800118Y6159654*
X1181294Y6142941*
X11829653Y6130119*
X11844997Y6123762*
Y6174999*
G37*
G36*
X16128433Y6161399D02*
X16077199D01*
Y6110163*
X16092543Y6116518*
X16109254Y6129342*
X16122078Y6146053*
X16128433Y6161399*
G37*
G36*
X16027199D02*
X15975962D01*
X15982317Y6146053*
X15995142Y6129342*
X16011852Y6116518*
X16027199Y6110163*
Y6161399*
G37*
G36*
X18219021Y6081201D02*
X17924998D01*
Y5787181*
X17950213Y5789165*
X17999189Y5800923*
X18045724Y5820199*
X1808867Y5846516*
X18126971Y5879228*
X18159684Y5917529*
X18186003Y5960475*
X18205279Y6007011*
X18217034Y6055989*
X18219021Y6081201*
G37*
G36*
X17874998D02*
X17580975D01*
X17582959Y6055989*
X17594719Y6007011*
X17613993Y5960475*
X17640312Y5917529*
X17673025Y5879228*
X17711326Y5846516*
X17754272Y5820199*
X17800807Y5800923*
X17849783Y5789165*
X17874998Y5787181*
Y6081201*
G37*
G36*
X6754997Y5255948D02*
X6726283Y5252166D01*
X6699524Y5241081*
X6676544Y5223451*
X6658914Y5200472*
X664783Y5173713*
X664405Y5144998*
X664783Y5116283*
X6658914Y5089525*
X6676544Y5066545*
X6699524Y5048912*
X6726283Y503783*
X6754997Y5034048*
X6783715Y503783*
X6810474Y5048912*
X683345Y5066545*
X6851083Y5089525*
X6862165Y5116283*
X6865947Y5144998*
X6862165Y5173713*
X6851083Y5200472*
X683345Y5223451*
X6810474Y5241081*
X6783715Y5252166*
X6754997Y5255948*
G37*
G36*
X4669998Y5250947D02*
X4641283Y5247167D01*
X4614524Y5236083*
X4591545Y521845*
X4573912Y519547*
X456283Y5168714*
X4559048Y5139997*
X456283Y5111282*
X4573912Y5084523*
X4591545Y5061544*
X4614524Y5043911*
X4641283Y5032829*
X4669998Y5029047*
X4698715Y5032829*
X4725471Y5043911*
X4748451Y5061544*
X4766083Y5084523*
X4777165Y5111282*
X4780948Y5139997*
X4777165Y5168714*
X4766083Y519547*
X4748451Y521845*
X4725471Y5236083*
X4698715Y5247167*
X4669998Y5250947*
G37*
G36*
X11066048Y5076233D02*
Y5024998D01*
X11117285*
X11110927Y5040342*
X11098105Y5057053*
X11081392Y5069878*
X11066048Y5076233*
G37*
G36*
X11016048D02*
X11000704Y5069878D01*
X10983993Y5057053*
X10971169Y5040342*
X10964811Y5024998*
X11016048*
Y5076233*
G37*
G36*
X8749997Y5210947D02*
X8721283Y5207167D01*
X8694524Y5196083*
X8671544Y5178452*
X8653914Y5155473*
X864283Y5128714*
X863905Y5099999*
X864283Y5071282*
X8653914Y5044523*
X8671544Y5021546*
X8694524Y5003914*
X8721283Y4992829*
X8749997Y498905*
X8778714Y4992829*
X8805473Y5003914*
X882845Y5021546*
X8846083Y5044523*
X8857167Y5071282*
X8860947Y5099999*
X8857167Y5128714*
X8846083Y5155473*
X882845Y5178452*
X8805473Y5196083*
X8778714Y5207167*
X8749997Y5210947*
G37*
G36*
X11755597D02*
X11726882Y5207167D01*
X11700123Y5196083*
X11677147Y517845*
X11659514Y5155473*
X11648429Y5128714*
X1164465Y5099999*
X11648429Y5071282*
X11659514Y5044523*
X11677147Y5021546*
X11700123Y5003914*
X11726882Y4992829*
X11755597Y498905*
X11784314Y4992829*
X11811073Y5003914*
X1183405Y5021546*
X11851683Y5044523*
X11862767Y5071282*
X11866547Y5099999*
X11862767Y5128714*
X11851683Y5155473*
X1183405Y517845*
X11811073Y5196083*
X11784314Y5207167*
X11755597Y5210947*
G37*
G36*
X17899999Y5610387D02*
X17849783Y5606435D01*
X17800807Y5594677*
X17754272Y5575401*
X17711326Y5549084*
X17673025Y5516372*
X17640312Y5478071*
X17613993Y5435125*
X17594719Y5388589*
X17582959Y533961*
X17579009Y5289397*
X17582959Y5239184*
X17594719Y5190205*
X17613993Y5143672*
X17640312Y5100726*
X17673025Y5062425*
X17711326Y5029713*
X17754272Y5003393*
X17800807Y498412*
X17849783Y4972359*
X17899999Y4968407*
X17950213Y4972359*
X17999189Y498412*
X18045724Y5003393*
X1808867Y5029713*
X18126971Y5062425*
X18159684Y5100726*
X18186003Y5143672*
X18205279Y5190205*
X18217034Y5239184*
X18220987Y5289397*
X18217034Y533961*
X18205279Y5388589*
X18186003Y5435125*
X18159684Y5478071*
X18126971Y5516372*
X1808867Y5549084*
X18045724Y5575401*
X17999189Y5594677*
X17950213Y5606435*
X17899999Y5610387*
G37*
G36*
X3499998Y5570987D02*
X3449784Y5567034D01*
X3400808Y5555277*
X3354273Y5536003*
X3311326Y5509684*
X3273023Y5476971*
X3240313Y543867*
X3213994Y5395724*
X319472Y5349189*
X3182962Y5300212*
X317901Y5249999*
X3182962Y5199783*
X319472Y5150807*
X3213994Y5104272*
X3240313Y5061325*
X3273023Y5023025*
X3311326Y4990312*
X3354273Y4963995*
X3400808Y4944719*
X3449784Y4932961*
X3499998Y4929009*
X3550213Y4932961*
X359919Y4944719*
X3645725Y4963995*
X3688671Y4990312*
X3726972Y5023025*
X3759685Y5061325*
X3786002Y5104272*
X3805278Y5150807*
X3817035Y5199783*
X3820988Y5249999*
X3817035Y5300212*
X3805278Y5349189*
X3786002Y5395724*
X3759685Y543867*
X3726972Y5476971*
X3688671Y5509684*
X3645725Y5536003*
X359919Y5555277*
X3550213Y5567034*
X3499998Y5570987*
G37*
G36*
X11117285Y4974998D02*
X11066048D01*
Y4923762*
X11081392Y4930119*
X11098105Y4942941*
X11110927Y4959654*
X11117285Y4974998*
G37*
G36*
X11016048D02*
X10964811D01*
X10971169Y4959654*
X10983993Y4942941*
X11000704Y4930119*
X11016048Y4923762*
Y4974998*
G37*
G36*
X12584998Y5135948D02*
X12556284Y5132166D01*
X12529525Y5121081*
X12506545Y5103451*
X12488915Y5080472*
X12477831Y5053713*
X12474049Y5024998*
X12477831Y4996281*
X12488915Y4969522*
X12506545Y4946545*
X12529525Y4928913*
X12556284Y4917828*
X12584998Y4914049*
X12613713Y4917828*
X12640472Y4928913*
X12663451Y4946545*
X12681084Y4969522*
X12692166Y4996281*
X12695948Y5024998*
X12692166Y5053713*
X12681084Y5080472*
X12663451Y5103451*
X12640472Y5121081*
X12613713Y5132166*
X12584998Y5135948*
G37*
G36*
X6049998Y4926233D02*
Y4874999D01*
X6101234*
X6094879Y4890343*
X6082055Y4907053*
X6065344Y4919878*
X6049998Y4926233*
G37*
G36*
X5999998D02*
X5984654Y4919878D01*
X596794Y4907053*
X5955118Y4890343*
X5948763Y4874999*
X5999998*
Y4926233*
G37*
G36*
X4144998D02*
Y4874999D01*
X4196234*
X4189879Y4890343*
X4177055Y4907053*
X4160344Y4919878*
X4144998Y4926233*
G37*
G36*
X4094998D02*
X4079654Y4919878D01*
X406294Y4907053*
X4050118Y4890343*
X4043763Y4874999*
X4094998*
Y4926233*
G37*
G36*
X8194997Y4876233D02*
Y4824999D01*
X8246234*
X8239879Y4840343*
X8227054Y4857056*
X8210344Y4869878*
X8194997Y4876233*
G37*
G36*
X8144997D02*
X8129653Y4869878D01*
X8112942Y4857056*
X8100118Y4840343*
X8093763Y4824999*
X8144997*
Y4876233*
G37*
G36*
X4196234Y4824999D02*
X4144998D01*
Y4773762*
X4160344Y4780119*
X4177055Y4792941*
X4189879Y4809652*
X4196234Y4824999*
G37*
G36*
X4094998D02*
X4043763D01*
X4050118Y4809652*
X406294Y4792941*
X4079654Y4780119*
X4094998Y4773762*
Y4824999*
G37*
G36*
X6101234D02*
X6049998D01*
Y4773762*
X6065344Y4780119*
X6082055Y4792941*
X6094879Y4809652*
X6101234Y4824999*
G37*
G36*
X5999998D02*
X5948763D01*
X5955118Y4809652*
X596794Y4792941*
X5984654Y4780119*
X5999998Y4773762*
Y4824999*
G37*
G36*
X7099998Y4981831D02*
X7071283Y4978052D01*
X7044524Y4966967*
X7021545Y4949334*
X7003912Y4926357*
X699283Y4899599*
X6989048Y4870881*
X699283Y4842167*
X7003912Y4815408*
X7021545Y4792428*
X7044524Y4774798*
X7071283Y4763714*
X7099998Y4759934*
X7128715Y4763714*
X7155472Y4774798*
X7178451Y4792428*
X7196084Y4815408*
X7207166Y4842167*
X7210948Y4870881*
X7207166Y4899599*
X7196084Y4926357*
X7178451Y4949334*
X7155472Y4966967*
X7128715Y4978052*
X7099998Y4981831*
G37*
G36*
X7599997Y4960947D02*
X7571282Y4957165D01*
X7544523Y4946083*
X7521544Y492845*
X7503914Y4905474*
X7492829Y4878715*
X748905Y4849997*
X7492829Y4821283*
X7503914Y4794524*
X7521544Y4771544*
X7544523Y4753914*
X7571282Y474283*
X7599997Y473905*
X7628714Y474283*
X7655473Y4753914*
X767845Y4771544*
X7696083Y4794524*
X7707167Y4821283*
X7710947Y4849997*
X7707167Y4878715*
X7696083Y4905474*
X767845Y492845*
X7655473Y4946083*
X7628714Y4957165*
X7599997Y4960947*
G37*
G36*
X8246234Y4774999D02*
X8194997D01*
Y4723762*
X8210344Y4730117*
X8227054Y4742942*
X8239879Y4759652*
X8246234Y4774999*
G37*
G36*
X8144997D02*
X8093763D01*
X8100118Y4759652*
X8112942Y4742942*
X8129653Y4730117*
X8144997Y4723762*
Y4774999*
G37*
G36*
X12584998Y4810947D02*
X12556284Y4807165D01*
X12529525Y4796083*
X12506545Y4778451*
X12488915Y4755471*
X12477831Y4728715*
X12474049Y4699998*
X12477831Y4671283*
X12488915Y4644524*
X12506545Y4621545*
X12529525Y4603912*
X12556284Y459283*
X12584998Y4589048*
X12613713Y459283*
X12640472Y4603912*
X12663451Y4621545*
X12681084Y4644524*
X12692166Y4671283*
X12695948Y4699998*
X12692166Y4728715*
X12681084Y4755471*
X12663451Y4778451*
X12640472Y4796083*
X12613713Y4807165*
X12584998Y4810947*
G37*
G36*
X7099998Y4693447D02*
X7071283Y4689665D01*
X7044524Y4678583*
X7021545Y466095*
X7003912Y4637973*
X699283Y4611212*
X6989048Y4582497*
X699283Y4553783*
X7003912Y4527024*
X7021545Y4504044*
X7044524Y4486414*
X7071283Y447533*
X7099998Y447155*
X7128713Y447533*
X7155472Y4486414*
X7178451Y4504044*
X7196081Y4527024*
X7207166Y4553783*
X7210948Y4582497*
X7207166Y4611212*
X7196081Y4637973*
X7178451Y466095*
X7155472Y4678583*
X7128713Y4689665*
X7099998Y4693447*
G37*
G36*
X7599997Y4660948D02*
X7571282Y4657166D01*
X7544523Y4646084*
X7521544Y4628451*
X7503914Y4605474*
X7492829Y4578715*
X748905Y4549998*
X7492829Y4521283*
X7503914Y4494524*
X7521544Y4471545*
X7544523Y4453912*
X7571282Y444283*
X7599997Y4439048*
X7628714Y444283*
X7655473Y4453912*
X767845Y4471545*
X7696083Y4494524*
X7707167Y4521283*
X7710947Y4549998*
X7707167Y4578715*
X7696083Y4605474*
X767845Y4628451*
X7655473Y4646084*
X7628714Y4657166*
X7599997Y4660948*
G37*
%LNldo_test_copper_signal_bot-3*%
%LPD*%
G54D15*
X7099998Y4582497D03*
Y4870881D03*
X7599997Y4549998D03*
Y4849997D03*
X11755597Y5099999D03*
X4669998Y5139997D03*
X12584998Y4699998D03*
Y5024998D03*
X8749997Y5099999D03*
X6754997Y5144998D03*
X12449997Y6494998D03*
X13899997D03*
X15199997D03*
X16699999D03*
X9649998D03*
X8399998D03*
X7099998D03*
X5799998D03*
X4499998D03*
X16699999Y7999999D03*
X15199997D03*
X13899997D03*
X12449997D03*
X13899997Y9349999D03*
X10999998Y7999999D03*
X9649998D03*
X8399998D03*
X7099998D03*
X5799998D03*
X4499998D03*
X16699999Y9299999D03*
X15199997Y9344997D03*
X12449997D03*
X10999998D03*
X9649998Y9407499D03*
X8399998D03*
X7099998Y9393199D03*
X4499998Y9394997D03*
X5799998Y9407499D03*
X16699999Y10957499D03*
X15199997D03*
X13899997D03*
X12449997D03*
X10999998D03*
X9649998D03*
X8399998D03*
X7099998D03*
X5799998D03*
X4499998D03*
X16699999Y12355499D03*
X15199997Y12339398D03*
X13899997Y12316899D03*
X12449997Y12317498D03*
X9649998Y12294999D03*
X10999998Y12322497D03*
X8399998D03*
X7099998D03*
X5799998Y12319998D03*
X4499998Y12322497D03*
X10999998Y6494998D03*
G54D16*
X17899999Y6106203D03*
X3499998Y5249999D03*
X17899999Y5289397D03*
Y12389398D03*
X3499998Y12349998D03*
G54D17*
X6024999Y4849997D03*
X8169998Y4799998D03*
X11041049Y4999997D03*
X4119999Y4849997D03*
X14669998Y7699999D03*
X13319998Y7674998D03*
X11869999Y7699999D03*
X10419999Y7674998D03*
X9119999Y7699999D03*
X7869999Y7674998D03*
X6569999Y7699999D03*
X5299999D03*
X4024998Y7749999D03*
Y9124998D03*
X5299999Y9074998D03*
X6569999Y9149999D03*
X7869999D03*
X9119999Y9124998D03*
X10419999Y9099999D03*
X7869999Y10649999D03*
X6569999Y10699998D03*
X5299999Y10674997D03*
X3969999D03*
X4024998Y12074999D03*
X5374998Y12049998D03*
X6649999Y12024997D03*
X7954998Y12037748D03*
X10419999Y10674997D03*
X9119999D03*
X9174998Y12049998D03*
X10474998Y12016249D03*
X13319998Y12049998D03*
X11869999D03*
X14724999Y12037748D03*
X16049998Y12074999D03*
X11869999Y10649999D03*
X13319998D03*
X14669998Y10699998D03*
X16049998D03*
X11869999Y9049999D03*
X13319998Y9074998D03*
X14669998D03*
X16052198Y9099999D03*
X16049998Y7699999D03*
X16052198Y6186398D03*
X14669998Y6202499D03*
X13319998Y6199997D03*
X11869999D03*
X10399999Y6219347D03*
X9119999Y6216197D03*
X7869999Y6219347D03*
X6569999Y6254998D03*
X5294998Y6249997D03*
X3969999Y6224998D03*
M02*