%FSTAX25Y25*%
%MOMM*%
%SFA1B1*%

%IPPOS*%
%ADD15C,1.799996*%
%ADD16C,5.999988*%
%LNldo_test_pads_bot-1*%
%LPD*%
G54D15*
X7099998Y4582497D03*
Y4870881D03*
X7599997Y4549998D03*
Y4849997D03*
X11755597Y5099999D03*
X4669998Y5139997D03*
X12584998Y4699998D03*
Y5024998D03*
X8749997Y5099999D03*
X6754997Y5144998D03*
X12449997Y6494998D03*
X13899997D03*
X15199997D03*
X16699999D03*
X9649998D03*
X8399998D03*
X7099998D03*
X5799998D03*
X4499998D03*
X16699999Y7999999D03*
X15199997D03*
X13899997D03*
X12449997D03*
X13899997Y9349999D03*
X10999998Y7999999D03*
X9649998D03*
X8399998D03*
X7099998D03*
X5799998D03*
X4499998D03*
X16699999Y9299999D03*
X15199997Y9344997D03*
X12449997D03*
X10999998D03*
X9649998Y9407499D03*
X8399998D03*
X7099998Y9393199D03*
X4499998Y9394997D03*
X5799998Y9407499D03*
X16699999Y10957499D03*
X15199997D03*
X13899997D03*
X12449997D03*
X10999998D03*
X9649998D03*
X8399998D03*
X7099998D03*
X5799998D03*
X4499998D03*
X16699999Y12355499D03*
X15199997Y12339398D03*
X13899997Y12316899D03*
X12449997Y12317498D03*
X9649998Y12294999D03*
X10999998Y12322497D03*
X8399998D03*
X7099998D03*
X5799998Y12319998D03*
X4499998Y12322497D03*
X10999998Y6494998D03*
G54D16*
X17899999Y6106203D03*
X3499998Y5249999D03*
X17899999Y5289397D03*
Y12389398D03*
X3499998Y12349998D03*
M02*