%FSTAX25Y25*%
%MOMM*%
%SFA1B1*%

%IPPOS*%
%ADD10R,1.099998X1.399997*%
%ADD11R,1.399997X1.099998*%
%ADD12R,3.499993X1.399997*%
%ADD13R,1.199998X0.649999*%
%ADD15C,1.799996*%
%ADD16C,5.999988*%
%LNldo_test_pads_top-1*%
%LPD*%
G54D10*
X7274999Y5289397D03*
X7424999D03*
X11280599Y4599998D03*
X11430599D03*
X4349998Y4694996D03*
X4199999D03*
X8374999Y4619998D03*
X8224997D03*
X6229997Y4703998D03*
X6079998D03*
X16224999Y5999998D03*
X16074999D03*
X12074999D03*
X11924997D03*
X13524999D03*
X13374999D03*
X14874999D03*
X14724999D03*
X10624997Y6024999D03*
X10474998D03*
X9324997Y5999998D03*
X9174998D03*
X8074997D03*
X7924998D03*
X6774997Y6054999D03*
X6624998D03*
X5474997Y5999998D03*
X5324998D03*
X4174998Y6049998D03*
X4024998D03*
X16274999Y7474999D03*
X16124999D03*
X14899998Y7549997D03*
X14749998D03*
X13524999Y7499997D03*
X13374999D03*
X12049998D03*
X11899999D03*
X10654997D03*
X10504998D03*
X9299999Y7474999D03*
X9149999D03*
X8074997Y7499997D03*
X7924998D03*
X6774997D03*
X6624998D03*
X5524997D03*
X5374998D03*
X4174998Y7549997D03*
X4024998D03*
X16224999Y8899999D03*
X16074999D03*
X13524999D03*
X13374999D03*
X14874999D03*
X14724999D03*
X8074997Y8949999D03*
X7924998D03*
X9324997D03*
X9174998D03*
X10624997D03*
X10474998D03*
X12074999Y8849997D03*
X11924997D03*
X6779999Y8949999D03*
X6629999D03*
X5474997Y8899999D03*
X5324998D03*
X4174998Y8949999D03*
X4024998D03*
X16274999Y10499999D03*
X16124999D03*
X14874999D03*
X14724999D03*
X13524999Y10449999D03*
X13374999D03*
X12074999D03*
X11924997D03*
X10624997Y10499999D03*
X10474998D03*
X9324997D03*
X9174998D03*
X8104997D03*
X7954998D03*
X6779999Y10549999D03*
X6629999D03*
X5524997Y10499999D03*
X5374998D03*
X4174998D03*
X4024998D03*
X16257198Y11869999D03*
X16107199D03*
X14874999D03*
X14724999D03*
X9324997Y11849999D03*
X9174998D03*
X13524999Y11872498D03*
X13374999D03*
X12049998Y11847499D03*
X11899999D03*
X10624997Y11849999D03*
X10474998D03*
X7974998Y11872498D03*
X8124997D03*
X6649999Y11849999D03*
X6799999D03*
X5374998Y11872498D03*
X5524997D03*
X4024998Y11898299D03*
X4174998D03*
G54D11*
X10906498Y4849997D03*
Y4999997D03*
X6729999Y4674999D03*
Y4824999D03*
X16699999Y6024999D03*
Y6174999D03*
X12449997Y6024999D03*
Y6174999D03*
X13899997Y5974999D03*
Y6124999D03*
X15199997Y6024999D03*
Y6174999D03*
X10999998Y6024999D03*
Y6174999D03*
X9649998Y6024999D03*
Y6174999D03*
X8399998Y6024999D03*
Y6174999D03*
X7099998Y6119898D03*
Y6269898D03*
X5799998Y6074999D03*
Y6224998D03*
X4499998Y6074999D03*
Y6224998D03*
X16699997Y7474999D03*
Y7624998D03*
X15199997Y7524998D03*
Y7674998D03*
X13899997Y7474999D03*
Y7624998D03*
X12449997Y7524998D03*
Y7674998D03*
X10999998Y7524998D03*
Y7674998D03*
X9649998Y7474999D03*
Y7624998D03*
X8399998Y7524998D03*
Y7674998D03*
X7099998Y7474999D03*
Y7624998D03*
X5799998Y7524998D03*
Y7674998D03*
X4499998Y7524998D03*
Y7674998D03*
X16699999Y8874998D03*
Y9024998D03*
X13899997Y8924998D03*
Y9074998D03*
X15199997Y8924998D03*
Y9074998D03*
X8399998Y8992499D03*
Y9142498D03*
X9649998Y8974998D03*
Y9124998D03*
X10999998Y8924998D03*
Y9074998D03*
X12449997Y8874998D03*
Y9024998D03*
X7099998Y8924998D03*
Y9074998D03*
X4499998Y8949999D03*
Y9099999D03*
X5799998Y8949999D03*
Y9099999D03*
X16699999Y10524998D03*
Y10674997D03*
X15199997Y10524998D03*
Y10674997D03*
X13899997Y10474998D03*
Y10624997D03*
X12449997Y10474998D03*
Y10624997D03*
X10999998Y10524998D03*
Y10674997D03*
X9649998Y10524998D03*
Y10674997D03*
X8399998Y10524998D03*
Y10674997D03*
X7099998Y10524998D03*
Y10674997D03*
X5799998Y10524998D03*
Y10674997D03*
X4499998Y10549999D03*
Y10699998D03*
X16699999Y11869999D03*
Y12019998D03*
X15199997Y11869999D03*
Y12019998D03*
X13899997Y11897499D03*
Y12047499D03*
X12449997Y11847499D03*
Y11997499D03*
X10999998Y11874997D03*
Y12024997D03*
X9649998Y11849999D03*
Y11999998D03*
X7099998Y12024997D03*
Y11874997D03*
X8399998Y12022498D03*
Y11872498D03*
X5799998Y12024997D03*
Y11874997D03*
X4499998Y12074999D03*
Y11924997D03*
G54D12*
X12184999Y4542497D03*
Y5157497D03*
X10049997Y9382498D03*
Y8767498D03*
X14299999Y10957499D03*
Y10342499D03*
X6199997Y10957499D03*
Y10342499D03*
X4899997Y10957499D03*
Y10342499D03*
X17149998Y12352497D03*
Y11737497D03*
X15655599Y12339398D03*
Y11724398D03*
X14299999Y12329998D03*
Y11714998D03*
X12893499Y12316899D03*
Y11701899D03*
X11449999Y12307498D03*
Y11692498D03*
X10049997Y12307498D03*
Y11692498D03*
X8749997Y12307498D03*
Y11692498D03*
X7499997Y12307498D03*
Y11692498D03*
X6199997Y12307498D03*
Y11692498D03*
X4899997Y12307498D03*
Y11692498D03*
X6199997Y8767498D03*
Y9382498D03*
X4899997Y8767498D03*
Y9382498D03*
X12893499Y8767498D03*
Y9382498D03*
X11449999Y8767498D03*
Y9382498D03*
X8749997Y8767498D03*
Y9382498D03*
X7499997Y8767498D03*
Y9382498D03*
X15655599Y8767498D03*
Y9382498D03*
X14299999Y8767498D03*
Y9382498D03*
X8749997Y7397498D03*
Y8012498D03*
X7499997Y7397498D03*
Y8012498D03*
X6199997Y7397498D03*
Y8012498D03*
X4887498Y7397498D03*
Y8012498D03*
X17149998Y8767498D03*
Y9382498D03*
X11449999Y7397498D03*
Y8012498D03*
X10049997Y7397498D03*
Y8012498D03*
X4899997Y5867499D03*
Y6482499D03*
X17149998Y7397498D03*
Y8012498D03*
X15655599Y7397498D03*
Y8012498D03*
X14299999Y7397498D03*
Y8012498D03*
X12893499Y7397498D03*
Y8012498D03*
X7499997Y5867499D03*
Y6482499D03*
X6199997Y5867499D03*
Y6482499D03*
X14299999Y5867499D03*
Y6482499D03*
X12893499Y5867499D03*
Y6482499D03*
X11449999Y5867499D03*
Y6482499D03*
X10049997Y5867499D03*
Y6482499D03*
X8749997Y5867499D03*
Y6482499D03*
X17149998Y5867499D03*
Y6482499D03*
X15655599Y5867499D03*
Y6482499D03*
X9199999Y4492498D03*
Y5107498D03*
X8749997Y10342499D03*
Y10957499D03*
X7499997Y10342499D03*
Y10957499D03*
X11449999Y10342499D03*
Y10957499D03*
X10049997Y10342499D03*
Y10957499D03*
X12893499Y10342499D03*
Y10957499D03*
X17149998Y10342499D03*
Y10957499D03*
X15655599Y10342499D03*
Y10957499D03*
G54D13*
X11869999Y10849998D03*
X12129998Y10944999D03*
Y10754997D03*
X5294998Y10849998D03*
X5554997Y10944999D03*
Y10754997D03*
X16052198Y12260498D03*
X16312197Y12355499D03*
Y12165497D03*
X14669998Y12260498D03*
X14929998Y12355499D03*
Y12165497D03*
X10419999Y12214999D03*
X10679998Y12309998D03*
Y12119998D03*
X9119999Y12199998D03*
X9379999Y12294999D03*
Y12104999D03*
X7869999Y12224999D03*
X8129998Y12319998D03*
Y12129998D03*
X5294998Y12224999D03*
X5554997Y12319998D03*
Y12129998D03*
X3969999Y12214999D03*
X4229999Y12309998D03*
Y12119998D03*
X4379998Y4949997D03*
Y5139997D03*
X4119999Y5044998D03*
X6829999Y12129998D03*
Y12319998D03*
X6569999Y12224999D03*
X5554997Y9204998D03*
Y9394997D03*
X5294998Y9299999D03*
X4229999Y9204998D03*
Y9394997D03*
X3969999Y9299999D03*
X12129998Y9154998D03*
Y9344997D03*
X11869999Y9249999D03*
X10679998Y9154998D03*
Y9344997D03*
X10419999Y9249999D03*
X9379999Y9204998D03*
Y9394997D03*
X9119999Y9299999D03*
X8129998Y9204998D03*
Y9394997D03*
X7869999Y9299999D03*
X6829999Y9204998D03*
Y9394997D03*
X6569999Y9299999D03*
X14929998Y9159999D03*
Y9349999D03*
X14669998Y9254998D03*
X13579998Y9154998D03*
Y9344997D03*
X13319998Y9249999D03*
X8129998Y7804998D03*
Y7994997D03*
X7869999Y7899999D03*
X6829999Y7804998D03*
Y7994997D03*
X6569999Y7899999D03*
X5554997Y7804998D03*
Y7994997D03*
X5294998Y7899999D03*
X4229999Y7804998D03*
Y7994997D03*
X3969999Y7899999D03*
X16312197Y9147497D03*
Y9337499D03*
X16052198Y9242498D03*
X10679998Y7804998D03*
Y7994997D03*
X10419999Y7899999D03*
X9379999Y7804998D03*
Y7994997D03*
X9119999Y7899999D03*
X4229999Y6304998D03*
Y6494998D03*
X3969999Y6399999D03*
X16312197Y7804998D03*
Y7994997D03*
X16052198Y7899999D03*
X14929998Y7804998D03*
Y7994997D03*
X14669998Y7899999D03*
X13579998Y7804998D03*
Y7994997D03*
X13319998Y7899999D03*
X12129998Y7804998D03*
Y7994997D03*
X11869999Y7899999D03*
X6829999Y6304998D03*
Y6494998D03*
X6569999Y6399999D03*
X5554997Y6304998D03*
Y6494998D03*
X5294998Y6399999D03*
X13579998Y6259997D03*
Y6449999D03*
X13319998Y6354998D03*
X12129998Y6254998D03*
Y6444998D03*
X11869999Y635D03*
X10679998Y6288699D03*
Y6478699D03*
X10419999Y6383698D03*
X9379999Y6282397D03*
Y6472397D03*
X9119999Y6377398D03*
X8129998Y6288699D03*
Y6478699D03*
X7869999Y6383698D03*
X16312197Y6254998D03*
Y6444998D03*
X16052198Y635D03*
X14929998Y6254998D03*
Y6444998D03*
X14669998Y635D03*
X6284998Y4954998D03*
Y5144998D03*
X6024999Y5049997D03*
X8429998Y4904999D03*
Y5094998D03*
X8169998Y4999997D03*
X13579998Y12127499D03*
Y12317498D03*
X13319998Y12222497D03*
X12129998Y12127499D03*
Y12317498D03*
X11869999Y12222497D03*
X11435598Y4904999D03*
Y5094998D03*
X11175598Y4999997D03*
X4229999Y10754997D03*
Y10944999D03*
X3969999Y10849998D03*
X8129998Y10754997D03*
Y10944999D03*
X7869999Y10849998D03*
X6829999Y10754997D03*
Y10944999D03*
X6569999Y10849998D03*
X10679998Y10754997D03*
Y10944999D03*
X10419999Y10849998D03*
X9379999Y10754997D03*
Y10944999D03*
X9119999Y10849998D03*
X13579998Y10754997D03*
Y10944999D03*
X13319998Y10849998D03*
X16312197Y10754997D03*
Y10944999D03*
X16052198Y10849998D03*
X14929998Y10754997D03*
Y10944999D03*
X14669998Y10849998D03*
G54D15*
X7099998Y4582497D03*
Y4870881D03*
X7599997Y4549998D03*
Y4849997D03*
X11755597Y5099999D03*
X4669998Y5139997D03*
X12584998Y4699998D03*
Y5024998D03*
X8749997Y5099999D03*
X6754997Y5144998D03*
X12449997Y6494998D03*
X13899997D03*
X15199997D03*
X16699999D03*
X9649998D03*
X8399998D03*
X7099998D03*
X5799998D03*
X4499998D03*
X16699999Y7999999D03*
X15199997D03*
X13899997D03*
X12449997D03*
X13899997Y9349999D03*
X10999998Y7999999D03*
X9649998D03*
X8399998D03*
X7099998D03*
X5799998D03*
X4499998D03*
X16699999Y9299999D03*
X15199997Y9344997D03*
X12449997D03*
X10999998D03*
X9649998Y9407499D03*
X8399998D03*
X7099998Y9393199D03*
X4499998Y9394997D03*
X5799998Y9407499D03*
X16699999Y10957499D03*
X15199997D03*
X13899997D03*
X12449997D03*
X10999998D03*
X9649998D03*
X8399998D03*
X7099998D03*
X5799998D03*
X4499998D03*
X16699999Y12355499D03*
X15199997Y12339398D03*
X13899997Y12316899D03*
X12449997Y12317498D03*
X9649998Y12294999D03*
X10999998Y12322497D03*
X8399998D03*
X7099998D03*
X5799998Y12319998D03*
X4499998Y12322497D03*
X10999998Y6494998D03*
G54D16*
X17899999Y6106203D03*
X3499998Y5249999D03*
X17899999Y5289397D03*
Y12389398D03*
X3499998Y12349998D03*
M02*