%FSTAX25Y25*%
%MOMM*%
%SFA1B1*%

%IPPOS*%
%ADD50C,0.127000*%
%ADD51C,0.169330*%
%LNmicamp_drawing_1-1*%
%LPD*%
G54D50*
X-4400798Y0599198D02*
Y0700798D01*
X-4299198*
Y0599198*
X-4400798*
Y-0700798D02*
Y-0599198D01*
X-4299198*
Y-0700798*
X-4400798*
X-3550798D02*
Y-0599198D01*
X-3449198*
Y-0700798*
X-3550798*
X-2650799Y0599198D02*
Y0700798D01*
X-2549199*
Y0599198*
X-2650799*
X-1900798Y-0700798D02*
Y-0599198D01*
X-1799198*
Y-0700798*
X-1900798*
X-1425798Y0599198D02*
Y0700798D01*
X-1324198*
Y0599198*
X-1425798*
X-0650798Y-0700798D02*
Y-0599198D01*
X-0549198*
Y-0700798*
X-0650798*
X0Y-0456798D02*
X-00508Y-0355198D01*
X00508*
X0Y-0456798*
Y0355198D02*
X-00508Y0456798D01*
X00508*
X0Y0355198*
X-0549998Y-00508D02*
X-0524598Y-00254D01*
X-0499198*
X-0524598Y0*
X-0499198Y00254*
X-0524598*
X-0549998Y00508*
X-0575398Y00254*
X-0600798*
X-0575398Y0*
X-0600798Y-00254*
X-0575398*
X-0549998Y-00508*
X-4750798D02*
X-4725398Y0D01*
X-4750798Y00508*
X-4699998Y00254*
X-4649198Y00508*
X-4674598Y0*
X-4649198Y-00508*
X-4699998Y-00254*
X-4750798Y-00508*
X-1571599Y-0356699D02*
Y-0382099D01*
X-1520799*
Y-0356699*
X-1495399*
Y-0305899*
X-1520799*
Y-0280499*
X-1571599*
Y-0305899*
X-1596999*
Y-0356699*
X-1571599*
X-2764393Y-0495399D02*
Y-0520799D01*
X-2713593*
Y-0495399*
X-2688193*
Y-0444599*
X-2713593*
Y-0419199*
X-2764393*
Y-0444599*
X-2789793*
Y-0495399*
X-2764393*
X-4425398Y-0470397D02*
Y-0495797D01*
X-4374598*
Y-0470397*
X-4349198*
Y-0419597*
X-4374598*
Y-0394197*
X-4425398*
Y-0419597*
X-4450798*
Y-0470397*
X-4425398*
G54D51*
X-1899198Y-0449999D02*
D01*
X-1899323Y-0446455*
X-1899693Y-0442927*
X-1900308Y-0439437*
X-1901167Y-0435996*
X-1902261Y-0432622*
X-190359Y-0429336*
X-1905144Y-0426148*
X-1906917Y-0423077*
X-1908901Y-0420138*
X-1911083Y-0417344*
X-1913455Y-041471*
X-1916005Y-0412247*
X-1918723Y-0409968*
X-1921591Y-0407883*
X-1924598Y-0406003*
X-192773Y-040434*
X-1930968Y-0402897*
X-1934301Y-0401685*
X-193771Y-0400707*
X-1941177Y-0399971*
X-1944687Y-0399475*
X-1948225Y-0399229*
X-1951771*
X-1955309Y-0399475*
X-195882Y-0399971*
X-1962287Y-0400707*
X-1965695Y-0401685*
X-1969028Y-0402897*
X-1972266Y-040434*
X-1975398Y-0406003*
X-1978406Y-0407883*
X-1981273Y-0409968*
X-1983991Y-0412247*
X-1986541Y-041471*
X-1988913Y-0417344*
X-1991095Y-0420138*
X-1993079Y-0423077*
X-1994852Y-0426148*
X-1996406Y-0429336*
X-1997735Y-0432622*
X-199883Y-0435996*
X-1999688Y-0439437*
X-2000303Y-0442927*
X-2000674Y-0446455*
X-2000798Y-0449999*
X-2000674Y-0453542*
X-2000303Y-0457067*
X-1999688Y-046056*
X-199883Y-0464002*
X-1997735Y-0467372*
X-1996406Y-0470662*
X-1994852Y-0473847*
X-1993079Y-0476918*
X-1991095Y-0479859*
X-1988913Y-0482653*
X-1986541Y-0485287*
X-1983991Y-0487751*
X-1981273Y-0490029*
X-1978406Y-0492114*
X-1975398Y-0493991*
X-1972266Y-0495658*
X-1969028Y-04971*
X-1965695Y-0498312*
X-1962287Y-049929*
X-195882Y-0500026*
X-1955309Y-0500519*
X-1951771Y-0500768*
X-1948225*
X-1944687Y-0500519*
X-1941177Y-0500026*
X-193771Y-049929*
X-1934301Y-0498312*
X-1930968Y-04971*
X-192773Y-0495658*
X-1924598Y-0493991*
X-1921591Y-0492114*
X-1918723Y-0490029*
X-1916005Y-0487751*
X-1913455Y-0485287*
X-1911083Y-0482653*
X-1908901Y-0479859*
X-1906917Y-0476918*
X-1905144Y-0473847*
X-190359Y-0470662*
X-1902261Y-0467372*
X-1901167Y-0464002*
X-1900308Y-046056*
X-1899693Y-0457067*
X-1899323Y-0453542*
X-1899198Y-0449999*
Y-0199999D02*
D01*
X-1899323Y-0196456*
X-1899693Y-0192928*
X-1900308Y-0189435*
X-1901167Y-0185996*
X-1902261Y-0182623*
X-190359Y-0179336*
X-1905144Y-0176149*
X-1906917Y-0173078*
X-1908901Y-0170139*
X-1911083Y-0167345*
X-1913455Y-0164708*
X-1916005Y-0162247*
X-1918723Y-0159966*
X-1921591Y-0157883*
X-1924598Y-0156004*
X-192773Y-015434*
X-1930968Y-0152897*
X-1934301Y-0151686*
X-193771Y-0150708*
X-1941177Y-0149971*
X-1944687Y-0149476*
X-1948225Y-014923*
X-1951771*
X-1955309Y-0149476*
X-195882Y-0149971*
X-1962287Y-0150708*
X-1965695Y-0151686*
X-1969028Y-0152897*
X-1972266Y-015434*
X-1975398Y-0156004*
X-1978406Y-0157883*
X-1981273Y-0159966*
X-1983991Y-0162247*
X-1986541Y-0164708*
X-1988913Y-0167345*
X-1991095Y-0170139*
X-1993079Y-0173078*
X-1994852Y-0176149*
X-1996406Y-0179336*
X-1997735Y-0182623*
X-199883Y-0185996*
X-1999688Y-0189435*
X-2000303Y-0192928*
X-2000674Y-0196456*
X-2000798Y-0199999*
X-2000674Y-0203542*
X-2000303Y-0207068*
X-1999688Y-021056*
X-199883Y-0214*
X-1997735Y-0217373*
X-1996406Y-0220659*
X-1994852Y-0223847*
X-1993079Y-0226918*
X-1991095Y-0229857*
X-1988913Y-0232651*
X-1986541Y-0235287*
X-1983991Y-0237751*
X-1981273Y-024003*
X-1978406Y-0242112*
X-1975398Y-0243992*
X-1972266Y-0245658*
X-1969028Y-0247098*
X-1965695Y-0248312*
X-1962287Y-024929*
X-195882Y-0250027*
X-1955309Y-025052*
X-1951771Y-0250766*
X-1948225*
X-1944687Y-025052*
X-1941177Y-0250027*
X-193771Y-024929*
X-1934301Y-0248312*
X-1930968Y-0247098*
X-192773Y-0245658*
X-1924598Y-0243992*
X-1921591Y-0242112*
X-1918723Y-024003*
X-1916005Y-0237751*
X-1913455Y-0235287*
X-1911083Y-0232651*
X-1908901Y-0229857*
X-1906917Y-0226918*
X-1905144Y-0223847*
X-190359Y-0220659*
X-1902261Y-0217373*
X-1901167Y-0214*
X-1900308Y-021056*
X-1899693Y-0207068*
X-1899323Y-0203542*
X-1899198Y-0199999*
X-3224199Y-0124998D02*
D01*
X-3224321Y-0121455*
X-3224692Y-0117929*
X-3225309Y-0114437*
X-3226165Y-0110995*
X-3227263Y-0107624*
X-3228591Y-0104335*
X-3230145Y-010115*
X-3231918Y-0098079*
X-32339Y-0095138*
X-3236084Y-0092344*
X-3238456Y-008971*
X-3241006Y-0087246*
X-3243722Y-0084968*
X-3246592Y-0082882*
X-3249599Y-0081005*
X-3252729Y-0079339*
X-3255967Y-0077896*
X-32593Y-0076685*
X-3262708Y-0075707*
X-3266178Y-007497*
X-3269688Y-0074477*
X-3273226Y-0074228*
X-3276772*
X-3280308Y-0074477*
X-3283821Y-007497*
X-3287288Y-0075707*
X-3290697Y-0076685*
X-3294029Y-0077896*
X-3297267Y-0079339*
X-3300399Y-0081005*
X-3303404Y-0082882*
X-3306274Y-0084968*
X-330899Y-0087246*
X-331154Y-008971*
X-3313912Y-0092344*
X-3316097Y-0095138*
X-331808Y-0098079*
X-3319853Y-010115*
X-3321405Y-0104335*
X-3322734Y-0107624*
X-3323831Y-0110995*
X-3324689Y-0114437*
X-3325304Y-0117929*
X-3325675Y-0121455*
X-3325799Y-0124998*
X-3325675Y-0128541*
X-3325304Y-0132069*
X-3324689Y-0135559*
X-3323831Y-0139001*
X-3322734Y-0142374*
X-3321405Y-0145661*
X-3319853Y-0148849*
X-331808Y-0151917*
X-3316097Y-0154858*
X-3313912Y-0157652*
X-331154Y-0160286*
X-330899Y-016275*
X-3306274Y-0165028*
X-3303404Y-0167114*
X-3300399Y-0168993*
X-3297267Y-0170657*
X-3294029Y-01721*
X-3290697Y-0173311*
X-3287288Y-0174289*
X-3283821Y-0175026*
X-3280308Y-0175521*
X-3276772Y-0175768*
X-3273226*
X-3269688Y-0175521*
X-3266178Y-0175026*
X-3262708Y-0174289*
X-32593Y-0173311*
X-3255967Y-01721*
X-3252729Y-0170657*
X-3249599Y-0168993*
X-3246592Y-0167114*
X-3243722Y-0165028*
X-3241006Y-016275*
X-3238456Y-0160286*
X-3236084Y-0157652*
X-32339Y-0154858*
X-3231918Y-0151917*
X-3230145Y-0148849*
X-3228591Y-0145661*
X-3227263Y-0142374*
X-3226165Y-0139001*
X-3225309Y-0135559*
X-3224692Y-0132069*
X-3224321Y-0128541*
X-3224199Y-0124998*
Y0124998D02*
D01*
X-3224321Y0128541*
X-3224692Y0132069*
X-3225309Y0135559*
X-3226165Y0139001*
X-3227263Y0142374*
X-3228591Y0145661*
X-3230145Y0148849*
X-3231918Y0151917*
X-32339Y0154858*
X-3236084Y0157652*
X-3238456Y0160286*
X-3241006Y016275*
X-3243722Y0165028*
X-3246592Y0167114*
X-3249599Y0168993*
X-3252729Y0170657*
X-3255967Y01721*
X-32593Y0173311*
X-3262708Y0174289*
X-3266178Y0175026*
X-3269688Y0175521*
X-3273226Y0175768*
X-3276772*
X-3280308Y0175521*
X-3283821Y0175026*
X-3287288Y0174289*
X-3290697Y0173311*
X-3294029Y01721*
X-3297267Y0170657*
X-3300399Y0168993*
X-3303404Y0167114*
X-3306274Y0165028*
X-330899Y016275*
X-331154Y0160286*
X-3313912Y0157652*
X-3316097Y0154858*
X-331808Y0151917*
X-3319853Y0148849*
X-3321405Y0145661*
X-3322734Y0142374*
X-3323831Y0139001*
X-3324689Y0135559*
X-3325304Y0132069*
X-3325675Y0128541*
X-3325799Y0124998*
X-3325675Y0121455*
X-3325304Y0117929*
X-3324689Y0114437*
X-3323831Y0110995*
X-3322734Y0107624*
X-3321405Y0104335*
X-3319853Y010115*
X-331808Y0098079*
X-3316097Y0095138*
X-3313912Y0092344*
X-331154Y008971*
X-330899Y0087246*
X-3306274Y0084968*
X-3303404Y0082882*
X-3300399Y0081005*
X-3297267Y0079339*
X-3294029Y0077896*
X-3290697Y0076685*
X-3287288Y0075707*
X-3283821Y007497*
X-3280308Y0074477*
X-3276772Y0074228*
X-3273226*
X-3269688Y0074477*
X-3266178Y007497*
X-3262708Y0075707*
X-32593Y0076685*
X-3255967Y0077896*
X-3252729Y0079339*
X-3249599Y0081005*
X-3246592Y0082882*
X-3243722Y0084968*
X-3241006Y0087246*
X-3238456Y008971*
X-3236084Y0092344*
X-32339Y0095138*
X-3231918Y0098079*
X-3230145Y010115*
X-3228591Y0104335*
X-3227263Y0107624*
X-3226165Y0110995*
X-3225309Y0114437*
X-3224692Y0117929*
X-3224321Y0121455*
X-3224199Y0124998*
X-1899198Y0199999D02*
D01*
X-1899323Y0203542*
X-1899693Y0207068*
X-1900308Y021056*
X-1901167Y0214*
X-1902261Y0217373*
X-190359Y0220659*
X-1905144Y0223847*
X-1906917Y0226918*
X-1908901Y0229857*
X-1911083Y0232651*
X-1913455Y0235287*
X-1916005Y0237751*
X-1918723Y024003*
X-1921591Y0242112*
X-1924598Y0243992*
X-192773Y0245658*
X-1930968Y0247098*
X-1934301Y0248312*
X-193771Y024929*
X-1941177Y0250027*
X-1944687Y025052*
X-1948225Y0250766*
X-1951771*
X-1955309Y025052*
X-195882Y0250027*
X-1962287Y024929*
X-1965695Y0248312*
X-1969028Y0247098*
X-1972266Y0245658*
X-1975398Y0243992*
X-1978406Y0242112*
X-1981273Y024003*
X-1983991Y0237751*
X-1986541Y0235287*
X-1988913Y0232651*
X-1991095Y0229857*
X-1993079Y0226918*
X-1994852Y0223847*
X-1996406Y0220659*
X-1997735Y0217373*
X-199883Y0214*
X-1999688Y021056*
X-2000303Y0207068*
X-2000674Y0203542*
X-2000798Y0199999*
X-2000674Y0196456*
X-2000303Y0192928*
X-1999688Y0189435*
X-199883Y0185996*
X-1997735Y0182623*
X-1996406Y0179336*
X-1994852Y0176149*
X-1993079Y0173078*
X-1991095Y0170139*
X-1988913Y0167345*
X-1986541Y0164708*
X-1983991Y0162247*
X-1981273Y0159966*
X-1978406Y0157883*
X-1975398Y0156004*
X-1972266Y015434*
X-1969028Y0152897*
X-1965695Y0151686*
X-1962287Y0150708*
X-195882Y0149971*
X-1955309Y0149476*
X-1951771Y014923*
X-1948225*
X-1944687Y0149476*
X-1941177Y0149971*
X-193771Y0150708*
X-1934301Y0151686*
X-1930968Y0152897*
X-192773Y015434*
X-1924598Y0156004*
X-1921591Y0157883*
X-1918723Y0159966*
X-1916005Y0162247*
X-1913455Y0164708*
X-1911083Y0167345*
X-1908901Y0170139*
X-1906917Y0173078*
X-1905144Y0176149*
X-190359Y0179336*
X-1902261Y0182623*
X-1901167Y0185996*
X-1900308Y0189435*
X-1899693Y0192928*
X-1899323Y0196456*
X-1899198Y0199999*
Y0449999D02*
D01*
X-1899323Y0453542*
X-1899693Y0457067*
X-1900308Y046056*
X-1901167Y0464002*
X-1902261Y0467372*
X-190359Y0470662*
X-1905144Y0473847*
X-1906917Y0476918*
X-1908901Y0479859*
X-1911083Y0482653*
X-1913455Y0485287*
X-1916005Y0487751*
X-1918723Y0490029*
X-1921591Y0492114*
X-1924598Y0493991*
X-192773Y0495658*
X-1930968Y04971*
X-1934301Y0498312*
X-193771Y049929*
X-1941177Y0500026*
X-1944687Y0500519*
X-1948225Y0500768*
X-1951771*
X-1955309Y0500519*
X-195882Y0500026*
X-1962287Y049929*
X-1965695Y0498312*
X-1969028Y04971*
X-1972266Y0495658*
X-1975398Y0493991*
X-1978406Y0492114*
X-1981273Y0490029*
X-1983991Y0487751*
X-1986541Y0485287*
X-1988913Y0482653*
X-1991095Y0479859*
X-1993079Y0476918*
X-1994852Y0473847*
X-1996406Y0470662*
X-1997735Y0467372*
X-199883Y0464002*
X-1999688Y046056*
X-2000303Y0457067*
X-2000674Y0453542*
X-2000798Y0449999*
X-2000674Y0446455*
X-2000303Y0442927*
X-1999688Y0439437*
X-199883Y0435996*
X-1997735Y0432622*
X-1996406Y0429336*
X-1994852Y0426148*
X-1993079Y0423077*
X-1991095Y0420138*
X-1988913Y0417344*
X-1986541Y041471*
X-1983991Y0412247*
X-1981273Y0409968*
X-1978406Y0407883*
X-1975398Y0406003*
X-1972266Y040434*
X-1969028Y0402897*
X-1965695Y0401685*
X-1962287Y0400707*
X-195882Y0399971*
X-1955309Y0399475*
X-1951771Y0399229*
X-1948225*
X-1944687Y0399475*
X-1941177Y0399971*
X-193771Y0400707*
X-1934301Y0401685*
X-1930968Y0402897*
X-192773Y040434*
X-1924598Y0406003*
X-1921591Y0407883*
X-1918723Y0409968*
X-1916005Y0412247*
X-1913455Y041471*
X-1911083Y0417344*
X-1908901Y0420138*
X-1906917Y0423077*
X-1905144Y0426148*
X-190359Y0429336*
X-1902261Y0432622*
X-1901167Y0435996*
X-1900308Y0439437*
X-1899693Y0442927*
X-1899323Y0446455*
X-1899198Y0449999*
X-0559198Y-0199999D02*
D01*
X-0559323Y-0196456*
X-0559694Y-0192928*
X-0560308Y-0189435*
X-0561167Y-0185996*
X-0562262Y-0182623*
X-056359Y-0179336*
X-0565144Y-0176149*
X-0566917Y-0173078*
X-0568901Y-0170139*
X-0571083Y-0167345*
X-0573455Y-0164708*
X-0576005Y-0162247*
X-0578723Y-0159966*
X-0581591Y-0157883*
X-0584598Y-0156004*
X-058773Y-015434*
X-0590969Y-0152897*
X-0594301Y-0151686*
X-059771Y-0150708*
X-0601177Y-0149971*
X-0604687Y-0149476*
X-0608225Y-014923*
X-0611771*
X-0615309Y-0149476*
X-061882Y-0149971*
X-0622287Y-0150708*
X-0625695Y-0151686*
X-0629028Y-0152897*
X-0632266Y-015434*
X-0635398Y-0156004*
X-0638406Y-0157883*
X-0641273Y-0159966*
X-0643991Y-0162247*
X-0646541Y-0164708*
X-0648914Y-0167345*
X-0651095Y-0170139*
X-0653079Y-0173078*
X-0654852Y-0176149*
X-0656407Y-0179336*
X-0657735Y-0182623*
X-065883Y-0185996*
X-0659688Y-0189435*
X-0660303Y-0192928*
X-0660674Y-0196456*
X-0660798Y-0199999*
X-0660674Y-0203542*
X-0660303Y-0207068*
X-0659688Y-021056*
X-065883Y-0214*
X-0657735Y-0217373*
X-0656407Y-0220659*
X-0654852Y-0223847*
X-0653079Y-0226918*
X-0651095Y-0229857*
X-0648914Y-0232651*
X-0646541Y-0235287*
X-0643991Y-0237751*
X-0641273Y-024003*
X-0638406Y-0242112*
X-0635398Y-0243992*
X-0632266Y-0245658*
X-0629028Y-0247098*
X-0625695Y-0248312*
X-0622287Y-024929*
X-061882Y-0250027*
X-0615309Y-025052*
X-0611771Y-0250766*
X-0608225*
X-0604687Y-025052*
X-0601177Y-0250027*
X-059771Y-024929*
X-0594301Y-0248312*
X-0590969Y-0247098*
X-058773Y-0245658*
X-0584598Y-0243992*
X-0581591Y-0242112*
X-0578723Y-024003*
X-0576005Y-0237751*
X-0573455Y-0235287*
X-0571083Y-0232651*
X-0568901Y-0229857*
X-0566917Y-0226918*
X-0565144Y-0223847*
X-056359Y-0220659*
X-0562262Y-0217373*
X-0561167Y-0214*
X-0560308Y-021056*
X-0559694Y-0207068*
X-0559323Y-0203542*
X-0559198Y-0199999*
Y-0449999D02*
D01*
X-0559323Y-0446455*
X-0559694Y-0442927*
X-0560308Y-0439437*
X-0561167Y-0435996*
X-0562262Y-0432622*
X-056359Y-0429336*
X-0565144Y-0426148*
X-0566917Y-0423077*
X-0568901Y-0420138*
X-0571083Y-0417344*
X-0573455Y-041471*
X-0576005Y-0412247*
X-0578723Y-0409968*
X-0581591Y-0407883*
X-0584598Y-0406003*
X-058773Y-040434*
X-0590969Y-0402897*
X-0594301Y-0401685*
X-059771Y-0400707*
X-0601177Y-0399971*
X-0604687Y-0399475*
X-0608225Y-0399229*
X-0611771*
X-0615309Y-0399475*
X-061882Y-0399971*
X-0622287Y-0400707*
X-0625695Y-0401685*
X-0629028Y-0402897*
X-0632266Y-040434*
X-0635398Y-0406003*
X-0638406Y-0407883*
X-0641273Y-0409968*
X-0643991Y-0412247*
X-0646541Y-041471*
X-0648914Y-0417344*
X-0651095Y-0420138*
X-0653079Y-0423077*
X-0654852Y-0426148*
X-0656407Y-0429336*
X-0657735Y-0432622*
X-065883Y-0435996*
X-0659688Y-0439437*
X-0660303Y-0442927*
X-0660674Y-0446455*
X-0660798Y-0449999*
X-0660674Y-0453542*
X-0660303Y-0457067*
X-0659688Y-046056*
X-065883Y-0464002*
X-0657735Y-0467372*
X-0656407Y-0470662*
X-0654852Y-0473847*
X-0653079Y-0476918*
X-0651095Y-0479859*
X-0648914Y-0482653*
X-0646541Y-0485287*
X-0643991Y-0487751*
X-0641273Y-0490029*
X-0638406Y-0492114*
X-0635398Y-0493991*
X-0632266Y-0495658*
X-0629028Y-04971*
X-0625695Y-0498312*
X-0622287Y-049929*
X-061882Y-0500026*
X-0615309Y-0500519*
X-0611771Y-0500768*
X-0608225*
X-0604687Y-0500519*
X-0601177Y-0500026*
X-059771Y-049929*
X-0594301Y-0498312*
X-0590969Y-04971*
X-058773Y-0495658*
X-0584598Y-0493991*
X-0581591Y-0492114*
X-0578723Y-0490029*
X-0576005Y-0487751*
X-0573455Y-0485287*
X-0571083Y-0482653*
X-0568901Y-0479859*
X-0566917Y-0476918*
X-0565144Y-0473847*
X-056359Y-0470662*
X-0562262Y-0467372*
X-0561167Y-0464002*
X-0560308Y-046056*
X-0559694Y-0457067*
X-0559323Y-0453542*
X-0559198Y-0449999*
Y0449999D02*
D01*
X-0559323Y0453542*
X-0559694Y0457067*
X-0560308Y046056*
X-0561167Y0464002*
X-0562262Y0467372*
X-056359Y0470662*
X-0565144Y0473847*
X-0566917Y0476918*
X-0568901Y0479859*
X-0571083Y0482653*
X-0573455Y0485287*
X-0576005Y0487751*
X-0578723Y0490029*
X-0581591Y0492114*
X-0584598Y0493991*
X-058773Y0495658*
X-0590969Y04971*
X-0594301Y0498312*
X-059771Y049929*
X-0601177Y0500026*
X-0604687Y0500519*
X-0608225Y0500768*
X-0611771*
X-0615309Y0500519*
X-061882Y0500026*
X-0622287Y049929*
X-0625695Y0498312*
X-0629028Y04971*
X-0632266Y0495658*
X-0635398Y0493991*
X-0638406Y0492114*
X-0641273Y0490029*
X-0643991Y0487751*
X-0646541Y0485287*
X-0648914Y0482653*
X-0651095Y0479859*
X-0653079Y0476918*
X-0654852Y0473847*
X-0656407Y0470662*
X-0657735Y0467372*
X-065883Y0464002*
X-0659688Y046056*
X-0660303Y0457067*
X-0660674Y0453542*
X-0660798Y0449999*
X-0660674Y0446455*
X-0660303Y0442927*
X-0659688Y0439437*
X-065883Y0435996*
X-0657735Y0432622*
X-0656407Y0429336*
X-0654852Y0426148*
X-0653079Y0423077*
X-0651095Y0420138*
X-0648914Y0417344*
X-0646541Y041471*
X-0643991Y0412247*
X-0641273Y0409968*
X-0638406Y0407883*
X-0635398Y0406003*
X-0632266Y040434*
X-0629028Y0402897*
X-0625695Y0401685*
X-0622287Y0400707*
X-061882Y0399971*
X-0615309Y0399475*
X-0611771Y0399229*
X-0608225*
X-0604687Y0399475*
X-0601177Y0399971*
X-059771Y0400707*
X-0594301Y0401685*
X-0590969Y0402897*
X-058773Y040434*
X-0584598Y0406003*
X-0581591Y0407883*
X-0578723Y0409968*
X-0576005Y0412247*
X-0573455Y041471*
X-0571083Y0417344*
X-0568901Y0420138*
X-0566917Y0423077*
X-0565144Y0426148*
X-056359Y0429336*
X-0562262Y0432622*
X-0561167Y0435996*
X-0560308Y0439437*
X-0559694Y0442927*
X-0559323Y0446455*
X-0559198Y0449999*
Y0199999D02*
D01*
X-0559323Y0203542*
X-0559694Y0207068*
X-0560308Y021056*
X-0561167Y0214*
X-0562262Y0217373*
X-056359Y0220659*
X-0565144Y0223847*
X-0566917Y0226918*
X-0568901Y0229857*
X-0571083Y0232651*
X-0573455Y0235287*
X-0576005Y0237751*
X-0578723Y024003*
X-0581591Y0242112*
X-0584598Y0243992*
X-058773Y0245658*
X-0590969Y0247098*
X-0594301Y0248312*
X-059771Y024929*
X-0601177Y0250027*
X-0604687Y025052*
X-0608225Y0250766*
X-0611771*
X-0615309Y025052*
X-061882Y0250027*
X-0622287Y024929*
X-0625695Y0248312*
X-0629028Y0247098*
X-0632266Y0245658*
X-0635398Y0243992*
X-0638406Y0242112*
X-0641273Y024003*
X-0643991Y0237751*
X-0646541Y0235287*
X-0648914Y0232651*
X-0651095Y0229857*
X-0653079Y0226918*
X-0654852Y0223847*
X-0656407Y0220659*
X-0657735Y0217373*
X-065883Y0214*
X-0659688Y021056*
X-0660303Y0207068*
X-0660674Y0203542*
X-0660798Y0199999*
X-0660674Y0196456*
X-0660303Y0192928*
X-0659688Y0189435*
X-065883Y0185996*
X-0657735Y0182623*
X-0656407Y0179336*
X-0654852Y0176149*
X-0653079Y0173078*
X-0651095Y0170139*
X-0648914Y0167345*
X-0646541Y0164708*
X-0643991Y0162247*
X-0641273Y0159966*
X-0638406Y0157883*
X-0635398Y0156004*
X-0632266Y015434*
X-0629028Y0152897*
X-0625695Y0151686*
X-0622287Y0150708*
X-061882Y0149971*
X-0615309Y0149476*
X-0611771Y014923*
X-0608225*
X-0604687Y0149476*
X-0601177Y0149971*
X-059771Y0150708*
X-0594301Y0151686*
X-0590969Y0152897*
X-058773Y015434*
X-0584598Y0156004*
X-0581591Y0157883*
X-0578723Y0159966*
X-0576005Y0162247*
X-0573455Y0164708*
X-0571083Y0167345*
X-0568901Y0170139*
X-0566917Y0173078*
X-0565144Y0176149*
X-056359Y0179336*
X-0562262Y0182623*
X-0561167Y0185996*
X-0560308Y0189435*
X-0559694Y0192928*
X-0559323Y0196456*
X-0559198Y0199999*
M02*