%FSTAX25Y25*%
%MOMM*%
%SFA1B1*%

%IPPOS*%
%AMD16*
4,1,8,-1.000760,0.248920,-1.000760,-0.248920,-0.749300,-0.500380,0.749300,-0.500380,1.000760,-0.248920,1.000760,0.248920,0.749300,0.500380,-0.749300,0.500380,-1.000760,0.248920,0.0*
1,1,0.500000,-0.749300,0.248920*
1,1,0.500000,-0.749300,-0.248920*
1,1,0.500000,0.749300,-0.248920*
1,1,0.500000,0.749300,0.248920*
%
%AMD25*
4,1,8,3.375660,2.250440,-3.375660,2.250440,-4.500880,1.125220,-4.500880,-1.125220,-3.375660,-2.250440,3.375660,-2.250440,4.500880,-1.125220,4.500880,1.125220,3.375660,2.250440,0.0*
1,1,2.250000,3.375660,1.125220*
1,1,2.250000,-3.375660,1.125220*
1,1,2.250000,-3.375660,-1.125220*
1,1,2.250000,3.375660,-1.125220*
%
%ADD10R,1.749997X0.999998*%
%ADD11R,1.549997X1.299997*%
%ADD12R,0.999998X0.599999*%
%ADD13R,1.299997X1.549997*%
%ADD14R,2.649995X1.149998*%
%ADD15R,1.349997X1.199998*%
G04~CAMADD=16~8~0.0~0.0~393.7~787.4~98.4~0.0~15~0.0~0.0~0.0~0.0~0~0.0~0.0~0.0~0.0~0~0.0~0.0~0.0~90.0~788.0~394.0*
%ADD16D16*%
%ADD17C,0.999998*%
%ADD18C,0.999998*%
%ADD19C,0.399999*%
%ADD20C,0.499999*%
%ADD21C,0.299999*%
%ADD22C,0.799998*%
%ADD23O,1.499997X0.999998*%
%ADD24C,1.523997*%
G04~CAMADD=25~8~0.0~0.0~3543.3~1771.7~442.9~0.0~15~0.0~0.0~0.0~0.0~0~0.0~0.0~0.0~0.0~0~0.0~0.0~0.0~0.0~3543.3~1771.7*
%ADD25D25*%
%ADD26C,0.999998*%
%LNmicamp_copper_signal_top-1*%
%LPD*%
G36*
X-0025486Y0652142D02*
X-0277291D01*
X-0300075Y0674923*
X-0314695Y0686142*
X-0331726Y0693196*
X-0349999Y0695601*
X-0641756*
X-0660029Y0693196*
X-0677059Y0686142*
X-069168Y0674923*
X-0809302Y0557303*
X-0877498*
Y0557499*
X-1072499*
X-1077498Y0568126*
Y0682498*
X-1268102*
X-1272499*
X-1283522Y0686541*
X-1284137Y0688022*
X-1296222Y0703775*
X-1311973Y071586*
X-1330314Y0723458*
X-1349999Y0726048*
X-1362298*
Y0649998*
Y0573948*
X-1349999*
X-1330314Y0576539*
X-1311973Y0584136*
X-1296222Y0596221*
X-1290952Y0603092*
X-1277625Y0599597*
X-1277018Y0595327*
X-1389923Y0482422*
X-1399976Y0469323*
X-1412097Y0467898*
X-14121*
X-1512298*
Y0392498*
X-1537698*
Y0467898*
X-1632099*
Y0472899*
X-1712297*
Y0387499*
X-1737697*
Y0472899*
X-1817898*
Y0458101*
X-1848589*
X-1851014Y0476521*
X-1861251Y0501235*
X-1877537Y052246*
X-1898761Y0538746*
X-1923475Y0548982*
X-1937298Y0550804*
Y0449999*
Y0337479*
X-19228Y0326354*
X-1905772Y03193*
X-1887499Y0316895*
X-1817898*
Y0302099*
X-1812498Y0297497*
Y0245879*
X-1864878*
X-1865967Y0248513*
X-1881388Y0268607*
X-1901484Y0284027*
X-1924885Y0293723*
X-1949998Y0297027*
X-1975111Y0293723*
X-1998512Y0284027*
X-2018609Y0268607*
X-2034029Y0248513*
X-2035119Y0245879*
X-2175151*
X-2295966Y0366694*
X-2291374Y0379394*
X-2023887*
X-2022459Y0377537*
X-2001235Y0361251*
X-1976521Y0351012*
X-1962698Y0349194*
Y0449999*
Y0550804*
X-1976521Y0548982*
X-2001235Y0538746*
X-2022459Y052246*
X-2023887Y0520603*
X-2347099*
Y0600397*
X-2437297*
Y0509998*
X-2449997*
Y0497298*
X-2552898*
Y0488238*
X-2564632Y0483379*
X-2588694Y0507441*
X-2603578Y0517387*
X-2621137Y052088*
X-2749854*
X-2793916Y0564941*
X-28088Y0574888*
X-2826359Y057838*
X-2984855*
X-3146414Y0739942*
X-3161301Y0749886*
X-317886Y0753379*
X-3371138*
X-3388697Y0749886*
X-3403582Y0739942*
X-3427958Y0715563*
X-3830314*
X-3847873Y0712071*
X-3862758Y0702124*
X-3984942Y0579942*
X-3989915Y0572498*
X-4037497*
Y0377499*
X-3870198*
X-38675*
X-3857498*
X-3832844*
X-3827584Y0364799*
X-4047385Y0144998*
X-4062321*
X-4093659Y0176336*
X-410689Y0185178*
X-4122498Y0188282*
X-4172498*
Y0224998*
X-4420052*
X-4424911Y023673*
X-4284144Y0377499*
X-4162498*
Y0572498*
X-4282018*
X-4285396Y0580433*
X-4285589Y0585198*
X-4271223Y0596221*
X-4259135Y0611974*
X-425154Y0630313*
X-4250618Y0637298*
X-4337298*
Y0573074*
X-4332498Y0572498*
Y0563808*
Y0527931*
X-4336417Y0524924*
X-4565738Y0295602*
X-4763587*
X-4781859Y0293197*
X-4788123Y0290603*
X-4791125*
X-4809398Y0288196*
X-4826426Y0281142*
X-4841049Y0269923*
X-4845237Y0265734*
X-4845812Y0265658*
X-4862837Y0258605*
X-4877462Y0247385*
X-4973965Y0150881*
X-5109999*
X-5114693Y0149946*
X-512451Y0158003*
Y0299509*
X-4824999*
X-4815245Y0301449*
X-4806975Y0306976*
X-4462919Y0651029*
X-4450461Y064553*
X-4448456Y0630313*
X-4440859Y0611974*
X-4428774Y0596221*
X-4413023Y0584136*
X-4394682Y0576539*
X-4374997Y0573948*
X-4362698*
Y0649998*
Y0726048*
X-436994*
X-4375345Y0738606*
X-433944Y0774509*
X-0025486*
Y0652142*
G37*
G36*
X-1812498Y0137497D02*
X-1637499D01*
Y0146895*
X-1595602*
Y0112499*
X-1632498*
Y-0027498*
X-1529588*
X-1524998Y-0028102*
X-152041Y-0027498*
X-1417497*
X-1410601Y-0037343*
Y-0434997*
X-1408196Y-0453273*
X-1401142Y-0470301*
X-1389923Y-0484924*
X-1277424Y-0597423*
X-1272499Y-0601202*
Y-0632498*
X-1077498*
Y-0568126*
X-1072499Y-0557499*
X-1064798*
X-0877498*
Y-0511175*
X-0684314*
X-0678609Y-0518609*
X-0658512Y-0534029*
X-0635111Y-0543722*
X-0609998Y-0547029*
X-0584885Y-0543722*
X-0561484Y-0534029*
X-0541388Y-0518609*
X-0525967Y-0498513*
X-0516275Y-0475112*
X-0512968Y-0449999*
X-0516275Y-0424886*
X-0525967Y-0401482*
X-0541388Y-0381388*
X-0561484Y-0365968*
X-0584885Y-0356275*
X-0609998Y-0352968*
X-0635111Y-0356275*
X-0658512Y-0365968*
X-0678609Y-0381388*
X-0684314Y-0388823*
X-0877498*
Y-0387499*
X-1072499*
Y-0451868*
X-1077498Y-0462498*
X-1085199*
X-1212649*
X-1269395Y-0405754*
Y-0337499*
X-1077498*
Y-0273128*
X-1072499Y-0262498*
X-0877498*
Y-0092499*
X-0885004*
X-0889863Y-0080766*
X-0854979Y-004588*
X-0635119*
X-0634029Y-0048514*
X-0618609Y-006861*
X-0598512Y-008403*
X-0590745Y-0087246*
X-059406Y-0099621*
X-0597298Y-0099194*
Y-0199999*
Y-0300804*
X-0583476Y-0298983*
X-0558761Y-0288747*
X-0537537Y-027246*
X-053611Y-0270603*
X-0485874*
X-047516Y-0282646*
X-0476587Y-0293499*
Y-0393298*
X0*
Y-0418698*
X-0476587*
Y-0518497*
X-0471848Y-0554497*
X-0457954Y-0588043*
X-0435848Y-0616851*
X-0407042Y-0638954*
X-0373496Y-0652848*
X-0337499Y-0657588*
X-0025486*
Y-0774509*
X-4364441*
X-4406742Y-0732208*
X-4399549Y-0721443*
X-4394682Y-0723458*
X-4374997Y-0726048*
X-4362698*
Y-0662698*
X-4449378*
X-4448456Y-0669681*
X-4446442Y-0674547*
X-4457209Y-0681743*
X-4831974Y-0306976*
X-4840244Y-0301449*
X-4849997Y-0299511*
X-512451*
Y-0158003*
X-5114693Y-0149946*
X-5109999Y-0150881*
X-4976467*
X-4877424Y-0249923*
X-4862799Y-0261142*
X-4845773Y-0268196*
X-4842322Y-026865*
X-4841049Y-0269923*
X-4826426Y-0281144*
X-4809398Y-0288198*
X-4791125Y-0290603*
X-4770998*
X-4770772Y-0290697*
X-4752497Y-0293103*
X-4611372*
X-4593099Y-0290697*
X-4576069Y-0283644*
X-4561448Y-0272422*
X-4507125Y-0218102*
X-4477499*
Y-0224998*
X-4274847*
X-4228048Y-0271797*
X-4213425Y-0283019*
X-4196397Y-029007*
X-4178124Y-0292478*
X-4070471*
X-402815Y-0334799*
X-403341Y-0347499*
X-4037497*
Y-0542498*
X-38675*
X-3857498*
X-3687498*
Y-0347499*
X-3726616*
Y-0308983*
X-3372497*
Y-0399117*
X-3392497*
Y-0347499*
X-3562499*
Y-0542498*
X-3392497*
Y-049088*
X-3114004*
X-2972442Y-0632442*
X-2969135Y-0634649*
X-2966519Y-0651672*
X-2968482Y-0654118*
X-3173493*
X-3177499Y-0650113*
Y-0532498*
X-3372497*
Y-0702497*
X-3254885*
X-3224941Y-0732442*
X-3210057Y-0742388*
X-3192498Y-0745881*
X-2274999*
X-225744Y-0742388*
X-2242555Y-0732442*
X-2028101Y-0517987*
X-2018609Y-0518609*
X-1998512Y-0534029*
X-1975111Y-0543722*
X-1949998Y-0547029*
X-1924885Y-0543722*
X-1901484Y-0534029*
X-1881388Y-0518609*
X-1865967Y-0498513*
X-1856275Y-0475112*
X-1852968Y-0449999*
X-1856275Y-0424886*
X-1865967Y-0401482*
X-187679Y-038738*
X-1870527Y-037468*
X-1601144*
X-1596123Y-0381223*
X-15815Y-0392442*
X-1564472Y-0399496*
X-1546199Y-0401901*
X-1527924Y-0399496*
X-1510896Y-0392442*
X-1496273Y-0381223*
X-1485054Y-03666*
X-1478Y-0349572*
X-1475595Y-0331299*
X-1478Y-0313024*
X-1485054Y-0295996*
X-1496273Y-0281373*
X-1510896Y-0270154*
X-1527924Y-02631*
X-1546199Y-0260695*
X-1564472Y-02631*
X-15815Y-0270154*
X-1596123Y-0281373*
X-1597306Y-0282917*
X-187218*
X-1875815Y-0270217*
X-1861251Y-0251236*
X-1851014Y-0226522*
X-1849193Y-0212699*
X-1949998*
X-2050803*
X-2048984Y-0226522*
X-2038746Y-0251236*
X-2024181Y-0270217*
X-2026607Y-0278696*
X-202951Y-0283057*
X-2046356Y-028641*
X-2061243Y-0296354*
X-2339799Y-0574913*
X-2352499Y-056965*
Y-0508355*
X-2192555Y-0348411*
X-2182609Y-0333527*
X-2179116Y-0315968*
Y-0097497*
X-2092497*
Y0020111*
X-1997191Y011542*
X-1975111Y0106273*
X-1949998Y0102969*
X-1924885Y0106273*
X-1901484Y0115968*
X-1881388Y0131386*
X-1865967Y0151483*
X-1864878Y0154117*
X-1812498*
Y0137497*
G37*
G36*
X-3372497Y0512498D02*
X-3254885D01*
X-312088Y0378493*
Y-0057355*
X-3117387Y-0074912*
X-3107441Y-0089796*
X-2964997Y-0232239*
Y-0304116*
X-3000994*
X-3178218Y-0126893*
X-3177969Y-0124998*
X-3181273Y-0099885*
X-3190968Y-0076484*
X-3206389Y-0056388*
X-3226483Y-0040967*
X-3249886Y-0031275*
X-3274999Y-0027967*
X-3300112Y-0031275*
X-3323513Y-0040967*
X-334361Y-0056388*
X-3349315Y-0063822*
X-3379998*
Y-0062499*
X-3497613*
X-3579116Y0019004*
Y0057099*
X-3490198*
Y0147497*
Y0237898*
X-354062*
X-3545479Y0249631*
X-3445055Y0350055*
X-3435108Y0364939*
X-3432611Y0377499*
X-3392497*
Y0551616*
X-3372497*
Y0512498*
G37*
%LNmicamp_copper_signal_top-2*%
%LPC*%
G36*
X-1387698Y0726048D02*
X-1399999D01*
X-1419682Y0723458*
X-1438023Y071586*
X-1453774Y0703775*
X-1465861Y0688022*
X-1473456Y0669681*
X-1474378Y0662698*
X-1387698*
Y0726048*
G37*
G36*
X-2574998D02*
X-2587299D01*
Y0662698*
X-2500619*
X-2501539Y0669681*
X-2509136Y0688022*
X-2521221Y0703775*
X-2536974Y071586*
X-2555313Y0723458*
X-2574998Y0726048*
G37*
G36*
X-2612699D02*
X-2624998D01*
X-2644681Y0723458*
X-2663024Y071586*
X-2678775Y0703775*
X-269086Y0688022*
X-2698457Y0669681*
X-2699377Y0662698*
X-2612699*
Y0726048*
G37*
G36*
X-4324997D02*
X-4337298D01*
Y0662698*
X-4250618*
X-425154Y0669681*
X-4259135Y0688022*
X-4271223Y0703775*
X-4286973Y071586*
X-4305315Y0723458*
X-4324997Y0726048*
G37*
G36*
X-1387698Y0637298D02*
X-1474378D01*
X-1473456Y0630313*
X-1465861Y0611974*
X-1453774Y0596221*
X-1438023Y0584136*
X-1419682Y0576539*
X-1399999Y0573948*
X-1387698*
Y0637298*
G37*
G36*
X-2612699D02*
X-2699377D01*
X-2698457Y0630313*
X-269086Y0611974*
X-2678775Y0596221*
X-2663024Y0584136*
X-2644681Y0576539*
X-2624998Y0573948*
X-2612699*
Y0637298*
G37*
G36*
X-1599999Y0670603D02*
X-1618272Y0668197D01*
X-16353Y0661144*
X-1649923Y0649922*
X-1661144Y0635299*
X-1668195Y0618271*
X-1670603Y0599998*
X-1668195Y0581726*
X-1661144Y0564697*
X-1649923Y0550075*
X-16353Y0538853*
X-1618272Y0531799*
X-1599999Y0529394*
X-1581726Y0531799*
X-1564695Y0538853*
X-1550075Y0550075*
X-1538853Y0564697*
X-15318Y0581726*
X-1529394Y0599998*
X-15318Y0618271*
X-1538853Y0635299*
X-1550075Y0649922*
X-1564695Y0661144*
X-1581726Y0668197*
X-1599999Y0670603*
G37*
G36*
X-2500619Y0637298D02*
X-2587299D01*
Y0573948*
X-2574998*
X-2565598Y0575185*
X-2552898Y0564385*
Y0522698*
X-2462697*
Y0600397*
X-2503662*
X-2505334Y0603791*
X-2508671Y0613097*
X-2501539Y0630313*
X-2500619Y0637298*
G37*
G36*
X-1937298Y-0099194D02*
Y-0187299D01*
X-1849193*
X-1851014Y-0173476*
X-1861251Y-014876*
X-1877537Y-0127535*
X-1898761Y-0111252*
X-1923475Y-0101013*
X-1937298Y-0099194*
G37*
G36*
X-0622698D02*
X-0636521Y-0101013D01*
X-0661235Y-0111252*
X-0682459Y-0127535*
X-0698746Y-014876*
X-0708982Y-0173476*
X-0710803Y-0187299*
X-0622698*
Y-0099194*
G37*
G36*
X-1962698D02*
X-1976521Y-0101013D01*
X-2001235Y-0111252*
X-2022459Y-0127535*
X-2038746Y-014876*
X-2048984Y-0173476*
X-2050803Y-0187299*
X-1962698*
Y-0099194*
G37*
G36*
X-0622698Y-0212699D02*
X-0710803D01*
X-0708982Y-0226522*
X-0698746Y-0251236*
X-0682459Y-027246*
X-0661235Y-0288747*
X-0636521Y-0298983*
X-0622698Y-0300804*
Y-0212699*
G37*
G36*
X-4260199Y-0342099D02*
X-4337898D01*
Y-0374396*
X-4373422*
X-4380316Y-0371538*
X-4387298Y-0370619*
Y-0444997*
Y-0519376*
X-4380316Y-0518457*
X-4373422Y-0515602*
X-4337898*
Y-0547898*
X-4260199*
Y-0444997*
Y-0342099*
G37*
G36*
X-4412698Y-0370619D02*
X-4419683Y-0371538D01*
X-4438022Y-0379135*
X-4453775Y-0391223*
X-4465861Y-0406974*
X-4473458Y-0425315*
X-4474377Y-0432297*
X-4412698*
Y-0370619*
G37*
G36*
X-4157098Y-0342099D02*
X-4234799D01*
Y-0432297*
X-4157098*
Y-0342099*
G37*
G36*
X-4412698Y-0457697D02*
X-4474377D01*
X-4473458Y-0464682*
X-4465861Y-0483024*
X-4453775Y-0498774*
X-4438022Y-051086*
X-4419683Y-0518457*
X-4412698Y-0519376*
Y-0457697*
G37*
G36*
X-4157098D02*
X-4234799D01*
Y-0547898*
X-4157098*
Y-0457697*
G37*
G36*
X-0574997Y-0573948D02*
X-0587298D01*
Y-0637298*
X-0500618*
X-050154Y-0630313*
X-0509137Y-0611974*
X-0521223Y-0596221*
X-0536973Y-0584136*
X-0555315Y-0576539*
X-0574997Y-0573948*
G37*
G36*
X-0612698D02*
X-0624997D01*
X-0644682Y-0576539*
X-0663023Y-0584136*
X-0678774Y-0596221*
X-0690859Y-0611974*
X-0698456Y-0630313*
X-0699378Y-0637298*
X-0612698*
Y-0573948*
G37*
G36*
X-1824997D02*
X-1837298D01*
Y-0637298*
X-1750618*
X-175154Y-0630313*
X-1759137Y-0611974*
X-1771223Y-0596221*
X-1786973Y-0584136*
X-1805315Y-0576539*
X-1824997Y-0573948*
G37*
G36*
X-1862698D02*
X-1874997D01*
X-1894682Y-0576539*
X-1913023Y-0584136*
X-1928774Y-0596221*
X-1940859Y-0611974*
X-1948456Y-0630313*
X-1949378Y-0637298*
X-1862698*
Y-0573948*
G37*
G36*
X-3474999D02*
X-3487298D01*
Y-0637298*
X-340062*
X-340154Y-0630313*
X-3409137Y-0611974*
X-3421222Y-0596221*
X-3436973Y-0584136*
X-3455316Y-0576539*
X-3474999Y-0573948*
G37*
G36*
X-3512698D02*
X-3524999D01*
X-3544681Y-0576539*
X-3563023Y-0584136*
X-3578773Y-0596221*
X-3590861Y-0611974*
X-3598458Y-0630313*
X-3599378Y-0637298*
X-3512698*
Y-0573948*
G37*
G36*
X-4324997D02*
X-4337298D01*
Y-0637298*
X-4250618*
X-425154Y-0630313*
X-4259135Y-0611974*
X-4271223Y-0596221*
X-4286973Y-0584136*
X-4305315Y-0576539*
X-4324997Y-0573948*
G37*
G36*
X-4362698D02*
X-4374997D01*
X-4394682Y-0576539*
X-4413023Y-0584136*
X-4428774Y-0596221*
X-4440859Y-0611974*
X-4448456Y-0630313*
X-4449378Y-0637298*
X-4362698*
Y-0573948*
G37*
G36*
X-1599999Y-0529394D02*
X-1618272Y-0531799D01*
X-16353Y-0538853*
X-1649923Y-0550075*
X-1661144Y-0564697*
X-1668195Y-0581726*
X-1670603Y-0599998*
X-1668195Y-0618271*
X-1661144Y-0635299*
X-1649923Y-0649922*
X-16353Y-0661144*
X-1618272Y-0668197*
X-1599999Y-0670603*
X-1581726Y-0668197*
X-1564695Y-0661144*
X-1550075Y-0649922*
X-1538853Y-0635299*
X-15318Y-0618271*
X-1529394Y-0599998*
X-15318Y-0581726*
X-1538853Y-0564697*
X-1550075Y-0550075*
X-1564695Y-0538853*
X-1581726Y-0531799*
X-1599999Y-0529394*
G37*
G36*
X-0500618Y-0662698D02*
X-0587298D01*
Y-0726048*
X-0574997*
X-0555315Y-0723458*
X-0536973Y-071586*
X-0521223Y-0703775*
X-0509137Y-0688022*
X-050154Y-0669681*
X-0500618Y-0662698*
G37*
G36*
X-0612698D02*
X-0699378D01*
X-0698456Y-0669681*
X-0690859Y-0688022*
X-0678774Y-0703775*
X-0663023Y-071586*
X-0644682Y-0723458*
X-0624997Y-0726048*
X-0612698*
Y-0662698*
G37*
G36*
X-1750618D02*
X-1837298D01*
Y-0726048*
X-1824997*
X-1805315Y-0723458*
X-1786973Y-071586*
X-1771223Y-0703775*
X-1759137Y-0688022*
X-175154Y-0669681*
X-1750618Y-0662698*
G37*
G36*
X-1862698D02*
X-1949378D01*
X-1948456Y-0669681*
X-1940859Y-0688022*
X-1928774Y-0703775*
X-1913023Y-071586*
X-1894682Y-0723458*
X-1874997Y-0726048*
X-1862698*
Y-0662698*
G37*
G36*
X-340062D02*
X-3487298D01*
Y-0726048*
X-3474999*
X-3455316Y-0723458*
X-3436973Y-071586*
X-3421222Y-0703775*
X-3409137Y-0688022*
X-340154Y-0669681*
X-340062Y-0662698*
G37*
G36*
X-3512698D02*
X-3599378D01*
X-3598458Y-0669681*
X-3590861Y-0688022*
X-3578773Y-0703775*
X-3563023Y-071586*
X-3544681Y-0723458*
X-3524999Y-0726048*
X-3512698*
Y-0662698*
G37*
G36*
X-4250618D02*
X-4337298D01*
Y-0726048*
X-4324997*
X-4305315Y-0723458*
X-4286973Y-071586*
X-4271223Y-0703775*
X-4259135Y-0688022*
X-425154Y-0669681*
X-4250618Y-0662698*
G37*
G36*
X-3172099Y0392899D02*
X-3262299D01*
Y0315198*
X-3172099*
Y0392899*
G37*
G36*
X-3287699D02*
X-3377897D01*
Y0315198*
X-3287699*
Y0392899*
G37*
G36*
X-3174194Y0112298D02*
X-3262299D01*
Y0024193*
X-3248474Y0026014*
X-322376Y003625*
X-3202536Y0052537*
X-3186249Y0073759*
X-3176013Y0098475*
X-3174194Y0112298*
G37*
G36*
X-3274999Y0302498D02*
D01*
Y0289798*
X-3377897*
Y0237898*
X-3464798*
Y0147497*
Y0055684*
X-3454999Y0054394*
X-3348885*
X-334746Y0052537*
X-3326236Y003625*
X-3301522Y0026014*
X-3287699Y0024193*
Y0124998*
X-3274999*
Y0137698*
X-3174194*
X-3176013Y0151521*
X-3186249Y0176237*
X-3202536Y0197459*
X-3204395Y0198887*
Y0212097*
X-3172099*
Y0289798*
X-3274999*
Y0302498*
G37*
%LNmicamp_copper_signal_top-3*%
%LPD*%
G54D10*
X-1524998Y0042499D03*
Y0392498D03*
G54D11*
X-2449997Y0509998D03*
Y0214998D03*
X-3274999Y-0617499D03*
Y-0322498D03*
Y0302498D03*
Y0597499D03*
X-3477498Y0147497D03*
Y-0147497D03*
X-2449997Y-0222498D03*
Y-0517499D03*
X-1174998Y-0252498D03*
Y-0547499D03*
Y0302498D03*
Y0597499D03*
X-0974999Y0177497D03*
Y0472498D03*
Y-0472498D03*
Y-0177497D03*
G54D12*
X-2894998Y-0274998D03*
Y-0464997D03*
X-2654998Y-0369999D03*
X-4069999Y0094998D03*
Y-0094998D03*
X-3829999Y0D03*
X-2894998Y0457499D03*
Y0267497D03*
X-2654998Y0362498D03*
X-2894998Y0102499D03*
Y-0087497D03*
X-2654998Y0007498D03*
G54D13*
X-3477498Y0474997D03*
X-3772499D03*
Y-0444997D03*
X-3477498D03*
X-3952499D03*
X-4247499D03*
X-3952499Y0474997D03*
X-4247499D03*
X-2177498Y0D03*
X-2472499D03*
G54D14*
X-4324997Y0147497D03*
Y-0147497D03*
G54D15*
X-1724997Y0217497D03*
Y0387499D03*
X-1174998Y0109999D03*
Y-0059999D03*
G54D16*
X-5034998Y-0079999D03*
Y0079999D03*
G54D17*
X-1599999Y0599998D03*
Y-0599998D03*
G54D18*
X-4752497Y-0222498D02*
X-4611372D01*
X-4536371Y-0147497*
X-4324997*
X-4768588Y0219999D02*
X-4763587Y0224998D01*
X-4791125Y0219999D02*
X-4768588D01*
X-4813663Y0197459D02*
X-4791125Y0219999D01*
X-4827536Y0197459D02*
X-4813663D01*
X-4763587Y0224998D02*
X-4536493D01*
X-4944999Y0079999D02*
X-4827536Y0197459D01*
X-4827498Y-0199999D02*
X-4811125D01*
X-4791125Y-0219999*
X-4754999*
X-4752497Y-0222498*
X-4947498Y-0079999D02*
X-4827498Y-0199999D01*
X-3952499Y-0444997D02*
Y-0310601D01*
X-4041226Y-0221874D02*
X-3952499Y-0310601D01*
X-4178124Y-0221874D02*
X-4041226D01*
X-4252498Y-0147497D02*
X-4178124Y-0221874D01*
X-1174998Y-0149999D02*
X-1002499D01*
X-0632498Y0177497D02*
X-0609998Y0199999D01*
X-0974999Y0177497D02*
X-0632498D01*
X-0990798Y0486699D02*
X-0780056D01*
X-0641756Y0624997*
X-1174998Y0302498D02*
X-0990798Y0486699D01*
X-0641756Y0624997D02*
X-0349999D01*
X-1339999Y0432498D02*
X-1174998Y0597499D01*
X-1339999Y0217497D02*
Y0432498D01*
Y-0434997D02*
Y0217497D01*
Y-0434997D02*
X-1227498Y-0547499D01*
X-1174998Y-0252498D02*
Y-0149999D01*
X-1002499D02*
X-0974999Y-0177497D01*
X-0609998Y0199999D02*
X-0599998D01*
X-1887499Y0387499D02*
X-1699999D01*
X-2894998Y-0464997D02*
X-2738993D01*
X-0241498Y-0405998D02*
X-0074998D01*
X-0447499Y-0199999D02*
X-0241498Y-0405998D01*
X-0599998Y-0199999D02*
X-0447499D01*
X-0349999Y0624997D02*
X-0224998Y0499999D01*
X-5034998Y-0079999D02*
X-4947498D01*
X-1519999Y0217497D02*
X-1339999D01*
X-1699999D02*
X-1519999D01*
X-1524998Y0212498D02*
X-1519999Y0217497D01*
X-1524998Y0042499D02*
Y0212498D01*
X-1529999Y0387499D02*
X-1524998Y0392498D01*
X-1724997Y0387499D02*
X-1529999D01*
X-2738993Y-0469999D02*
Y-0464997D01*
X-2389997Y0449999D02*
X-1949998D01*
X-2449997Y0509998D02*
X-2389997Y0449999D01*
X-4286493Y0474997D02*
X-4247499D01*
X-4536493Y0224998D02*
X-4286493Y0474997D01*
X-1949998Y0449999D02*
X-1887499Y0387499D01*
X-4399998Y-0444997D02*
X-4247499D01*
X-3274999Y0124998D02*
Y0302498D01*
X-3477498Y0147497D02*
X-3454999Y0124998D01*
X-3274999*
X-4324997Y-0147497D02*
X-4252498D01*
X-5034998Y0079999D02*
X-4944999D01*
X-1227498Y-0547499D02*
X-1174998D01*
Y0109999D02*
Y0272498D01*
G54D19*
X-3314397Y-02631D02*
X-3249998Y-0327499D01*
X-4069999Y0094998D02*
X-4032498D01*
X-4122498Y0147497D02*
X-4069999Y0094998D01*
X-4324997Y0147497D02*
X-4122498D01*
G54D20*
X-4099999Y-0099999D02*
X-3999999D01*
X-3836896Y-02631D02*
X-3772499D01*
Y-0444997D02*
Y-02631D01*
X-3314397*
X-3999999Y-0099999D02*
X-3836896Y-02631D01*
X-0873983Y0D02*
X-0549998D01*
X-0974491Y-0100505D02*
X-0873983Y0D01*
X-2024999Y-0449999D02*
X-1949998D01*
X-2274999Y-0699998D02*
X-2024999Y-0449999D01*
X-3192498Y-0699998D02*
X-2274999D01*
X-1717499Y0199999D02*
X-1699999Y0217497D01*
X-1949998Y0199999D02*
X-1717499D01*
X-1977499D02*
X-1949998D01*
X-2194156D02*
X-1977499D01*
X-2224999Y-0047498D02*
X-1977499Y0199999D01*
X-2331656Y0337499D02*
X-2194156Y0199999D01*
X-2483637Y0337499D02*
X-2331656D01*
X-2224999Y-0315968D02*
Y-0047498D01*
X-242653Y-0517499D02*
X-2224999Y-0315968D01*
X-2449997Y-0517499D02*
X-242653D01*
X-2894998Y-0274998D02*
Y-0237355D01*
X-3074997Y-0057355D02*
X-2894998Y-0237355D01*
X-3074997Y-0057355D02*
Y0397499D01*
X-3274999Y0597499D02*
X-3074997Y0397499D01*
X-2999999Y0352498D02*
X-2894998Y0457499D01*
X-2999999Y-0012499D02*
Y0352498D01*
Y-0012499D02*
X-2924997Y-0087497D01*
X-3003859Y0532498D02*
X-2826359D01*
X-317886Y0707499D02*
X-3003859Y0532498D01*
X-3371138Y0707499D02*
X-317886D01*
X-3408954Y0669681D02*
X-3371138Y0707499D01*
X-3830314Y0669681D02*
X-3408954D01*
X-3952499Y0547499D02*
X-3830314Y0669681D01*
X-3602499Y0597499D02*
X-3274999D01*
X-3649997Y0549998D02*
X-3602499Y0597499D01*
X-2028799Y-0328797D02*
X-1546199D01*
X-2599999Y-0549998D02*
Y-0369999D01*
X-2343858Y-0122499D02*
X-2327498Y-0138859D01*
X-2654998Y-0044998D02*
X-2577498Y-0122499D01*
X-2654998Y-0044998D02*
Y0007498D01*
X-3477498Y0382498D02*
Y0474997D01*
X-3624999Y0234998D02*
X-3477498Y0382498D01*
X-3624999Y0D02*
Y0234998D01*
Y0D02*
X-3477498Y-0147497D01*
X-2826359Y0532498D02*
X-2774998Y0481139D01*
Y0387499D02*
Y0481139D01*
X-2894998Y0267497D02*
X-2774998Y0387499D01*
X-2768859Y0474997D02*
X-2621137D01*
X-2327498Y-0627499D02*
X-2028799Y-0328797D01*
X-2597497Y-0627499D02*
X-2327498D01*
X-3649997Y0354998D02*
Y0549998D01*
X-3829999Y0174998D02*
X-3649997Y0354998D01*
X-2624998Y-0599998D02*
X-2597497Y-0627499D01*
X-2649999Y-0599998D02*
X-2624998D01*
X-2649999D02*
X-2599999Y-0549998D01*
X-2567498Y0094998D02*
X-2472499Y0D01*
X-2712499Y0094998D02*
X-2567498D01*
X-2894998Y-0087497D02*
X-2712499Y0094998D01*
X-2654998Y0219999D02*
X-2454998D01*
X-2777497D02*
X-2654998D01*
X-2894998Y0102499D02*
X-2777497Y0219999D01*
X-2672499Y-0222498D02*
X-2449997D01*
X-2799999Y-0349999D02*
X-2672499Y-0222498D01*
X-3019999Y-0349999D02*
X-2799999D01*
X-3244999Y-0124998D02*
X-3019999Y-0349999D01*
X-2599999Y-0369999D02*
X-2391359D01*
X-2939999Y-0599998D02*
X-2649999D01*
X-3094997Y-0444997D02*
X-2939999Y-0599998D01*
X-3274999Y-0617499D02*
X-3192498Y-0699998D01*
X-2327498Y-0306138D02*
Y-0138859D01*
X-2391359Y-0369999D02*
X-2327498Y-0306138D01*
X-1949998Y-0449999D02*
X-1925876Y-0425876D01*
X-2621137Y0474997D02*
X-2483637Y0337499D01*
X-3952499Y0474997D02*
Y0547499D01*
X-2454998Y0219999D02*
X-2449997Y0214998D01*
X-2654998Y0219999D02*
Y0362498D01*
X-2924997Y-0087497D02*
X-2894998D01*
X-3477498Y-0444997D02*
X-3094997D01*
X-3829999Y0D02*
Y0174998D01*
X-3772499Y0354998D02*
Y0474997D01*
X-4032498Y0094998D02*
X-3772499Y0354998D01*
G54D21*
X-2577498Y-0122499D02*
X-2343858D01*
G54D22*
X-0974999Y-0472498D02*
X-09525Y-0449999D01*
X-3274999Y-0124998D02*
X-3244999D01*
X-3477498Y-0147497D02*
X-3454999Y-0124998D01*
X-3274999*
X-09525Y-0449999D02*
X-0599998D01*
G54D23*
X-4349998Y0649998D03*
Y-0649998D03*
X-3499998D03*
X-2599999Y0649998D03*
X-1849998Y-0649998D03*
X-1374998Y0649998D03*
X-0599998Y-0649998D03*
G54D24*
X-1949998Y-0449999D03*
Y-0199999D03*
X-3274999Y-0124998D03*
Y0124998D03*
X-1949998Y0199999D03*
Y0449999D03*
X-0609998Y-0199999D03*
Y-0449999D03*
Y0449999D03*
Y0199999D03*
X-0549998Y0D03*
G54D25*
X0Y-0405998D03*
Y0405998D03*
G54D26*
X-1546199Y-0331299D03*
X-2738993Y-0469999D03*
X-4399998Y-0444997D03*
M02*