%FSTAX25Y25*%
%MOMM*%
%SFA1B1*%

%IPPOS*%
%ADD28C,0.999998*%
%ADD29C,0.200000*%
%ADD30C,0.253999*%
%LNmicamp_legend_bot-1*%
%LPD*%
G36*
X-4112519Y0501644D02*
X-4130611D01*
Y0522292*
X-4112519*
Y0501644*
G37*
G36*
X-3790472Y04512D02*
X-3733642Y0374997D01*
X-3757056*
X-3794305Y0426082*
X-3795156Y042736*
X-379622Y0428851*
X-3798562Y0432254*
X-3799626Y0433959*
X-3800477Y0435236*
X-3801117Y0436087*
X-3801328Y04363*
X-3803456Y0433108*
X-3805374Y0430128*
X-3806225Y0429061*
X-3806649Y042821*
X-3807076Y0427573*
X-3807289Y042736*
X-3844538Y0374997*
X-386859*
X-3813462Y0452264*
X-3864546Y0522292*
X-3843261*
X-3813888Y0483128*
X-3811333Y0479935*
X-3809204Y0476953*
X-3807076Y0473974*
X-3805374Y0471634*
X-3803883Y0469503*
X-3802819Y0467801*
X-3802181Y0466951*
X-3801968Y0466524*
X-3800477Y0469079*
X-3798775Y0471845*
X-379686Y0474827*
X-3794942Y0477807*
X-3793027Y0480359*
X-379175Y0482488*
X-3791112Y0483341*
X-3790685Y0483979*
X-3790261Y0484192*
Y0484405*
X-3763441Y0522292*
X-3740241*
X-3790472Y04512*
G37*
G36*
X-3404999Y0374997D02*
X-3423729D01*
Y0500369*
X-3466299Y0374997*
X-3483754*
X-3526749Y0498238*
Y0374997*
X-3545481*
Y0522292*
X-3519299*
X-3483965Y0419696*
X-348205Y0414164*
X-3480562Y0409481*
X-3479071Y0405437*
X-3478006Y0402031*
X-3477155Y0399475*
X-3476515Y039756*
X-3476304Y0396496*
X-3476091Y0396069*
X-347524Y0399051*
X-3474176Y0402457*
X-3472898Y0406074*
X-3471834Y0409694*
X-347077Y0412887*
X-3469919Y0415439*
X-3469492Y0416504*
X-3469279Y0417144*
X-3469065Y0417568*
Y0417781*
X-3434158Y0522292*
X-3404999*
Y0374997*
G37*
G36*
X-3576558D02*
X-3595288D01*
Y0500369*
X-3637859Y0374997*
X-3655314*
X-3698308Y0498238*
Y0374997*
X-3717038*
Y0522292*
X-3690858*
X-3655524Y0419696*
X-3653609Y0414164*
X-3652118Y0409481*
X-365063Y0405437*
X-3649565Y0402031*
X-3648715Y0399475*
X-3648075Y039756*
X-3647861Y0396496*
X-364765Y0396069*
X-3646799Y0399051*
X-3645735Y0402457*
X-3644458Y0406074*
X-3643393Y0409694*
X-3642329Y0412887*
X-3641478Y0415439*
X-3641051Y0416504*
X-3640838Y0417144*
X-3640625Y0417568*
Y0417781*
X-3605717Y0522292*
X-3576558*
Y0374997*
G37*
G36*
X-3942661D02*
X-3961394D01*
Y0500369*
X-4003964Y0374997*
X-4021416*
X-4064414Y0498238*
Y0374997*
X-4083146*
Y0522292*
X-4056964*
X-402163Y0419696*
X-4019715Y0414164*
X-4018226Y0409481*
X-4016735Y0405437*
X-4015671Y0402031*
X-401482Y0399475*
X-401418Y039756*
X-4013969Y0396496*
X-4013756Y0396069*
X-4012902Y0399051*
X-4011838Y0402457*
X-4010563Y0406074*
X-4009499Y0409694*
X-4008434Y0412887*
X-4007581Y0415439*
X-4007157Y0416504*
X-4006943Y0417144*
X-400673Y0417568*
Y0417781*
X-3971823Y0522292*
X-3942661*
Y0374997*
G37*
G36*
X-4196382Y0483979D02*
X-4191698Y0483128D01*
X-418723Y0482061*
X-4183611Y0480999*
X-4180418Y0479722*
X-417914Y0479082*
X-4178076Y0478657*
X-4177225Y0478231*
X-4176588Y0477804*
X-4176161Y0477593*
X-4175947*
X-4171904Y0475038*
X-4168284Y0471845*
X-4165305Y0468652*
X-4162752Y046546*
X-4160837Y0462694*
X-4159559Y0460352*
X-4159133Y0459501*
X-4158708Y0458861*
X-4158495Y0458436*
Y0458223*
X-4156577Y0453115*
X-4155302Y0448007*
X-4154238Y0442899*
X-4153598Y0438216*
X-4153387Y0436087*
X-4153174Y0434172*
Y0432468*
X-415296Y0430979*
Y0429701*
Y0428848*
Y042821*
Y0427997*
X-4153174Y0423103*
X-4153598Y0418632*
X-4154238Y0414164*
X-4155089Y0410331*
X-415594Y0406501*
X-4157218Y0403308*
X-4158282Y0400113*
X-4159559Y0397347*
X-4160837Y0395005*
X-4161901Y0392877*
X-4163176Y0390961*
X-4164027Y0389473*
X-4164881Y0388406*
X-4165518Y0387555*
X-4165945Y0387131*
X-4166158Y0386918*
X-4168711Y0384362*
X-4171477Y0382236*
X-4174246Y0380319*
X-4177225Y0378617*
X-4180205Y0377339*
X-4182973Y0376062*
X-4188719Y037436*
X-4191274Y0373933*
X-4193616Y0373509*
X-4195744Y0373082*
X-4197659Y0372869*
X-419915Y0372656*
X-4201276*
X-4204469Y0372869*
X-4207664Y0373082*
X-4213197Y037436*
X-4218307Y0375848*
X-4222564Y0377766*
X-4224266Y037883*
X-4225968Y0379681*
X-4227459Y0380532*
X-4228523Y0381383*
X-4229374Y0382023*
X-4230011Y0382447*
X-4230438Y0382661*
X-4230651Y0382874*
X-423278Y0385003*
X-4234695Y0387131*
X-4238101Y0391812*
X-4240867Y0396709*
X-4242785Y040118*
X-4244273Y0405437*
X-42447Y0407139*
X-4245124Y040884*
X-4245338Y0410118*
X-4245551Y0410972*
X-4245764Y0411609*
Y0411822*
X-4227885Y0414164*
X-4227032Y0409481*
X-4225754Y0405223*
X-4224053Y0401817*
X-4222564Y0399051*
X-4221073Y0396709*
X-4219795Y0395218*
X-4219158Y0394154*
X-4218731Y0393943*
X-4215965Y0391812*
X-4212983Y0390324*
X-4210004Y0389046*
X-4207238Y0388406*
X-4204896Y0387982*
X-4202767Y0387769*
X-420149Y0387555*
X-4201066*
X-4198724Y0387769*
X-4196382Y0387982*
X-4192125Y0389046*
X-4188505Y0390537*
X-4185312Y0392452*
X-4182973Y0394154*
X-4181055Y0395645*
X-4179991Y0396709*
X-4179567Y0397134*
X-4178076Y0399051*
X-4176798Y0401391*
X-4174883Y0406074*
X-4173395Y0411396*
X-4172541Y0416504*
X-4171904Y0421187*
X-417169Y0423103*
Y0425018*
X-4171477Y0426295*
Y0427573*
Y042821*
Y0428424*
Y0432254*
X-4171904Y0435874*
X-4172331Y043928*
X-4172755Y0442259*
X-4173395Y0445025*
X-4174246Y0447581*
X-4174883Y0449922*
X-4175734Y0452051*
X-4176588Y0453753*
X-4177225Y0455244*
X-4178076Y0456521*
X-4178716Y0457583*
X-417914Y0458436*
X-4179567Y0459074*
X-4179991Y0459287*
Y0459501*
X-4181695Y0461203*
X-4183397Y0462694*
X-4187017Y0465246*
X-4190847Y0466951*
X-4194253Y0468015*
X-4197446Y0468866*
X-4199788Y0469079*
X-4200852Y0469292*
X-420213*
X-4205323Y0469079*
X-4208302Y0468439*
X-4210857Y0467588*
X-4213197Y0466524*
X-4214901Y046546*
X-4216389Y0464609*
X-421724Y0463971*
X-4217454Y0463758*
X-4219582Y0461629*
X-4221497Y0459074*
X-4223202Y0456308*
X-4224266Y0453753*
X-422533Y0451413*
X-4225968Y0449496*
X-4226181Y0448218*
X-4226394Y0448007*
Y0447794*
X-424406Y045056*
X-4242572Y0456308*
X-4240443Y0461203*
X-4238101Y046546*
X-4235759Y0468866*
X-4233418Y0471634*
X-4231502Y0473549*
X-4230225Y0474825*
X-4230011Y0475251*
X-4229801*
X-422533Y0478231*
X-4220646Y0480359*
X-4215965Y0482061*
X-4211495Y0483128*
X-4207451Y0483765*
X-4205747Y0483979*
X-4204469*
X-4203194Y0484192*
X-420149*
X-4196382Y0483979*
G37*
G36*
X-4112519Y0374997D02*
X-4130611D01*
Y048185*
X-4112519*
Y0374997*
G37*
G36*
X-3550058Y-039835D02*
X-3568151D01*
Y-0377705*
X-3550058*
Y-039835*
G37*
G36*
X-3710335D02*
X-372843D01*
Y-0377705*
X-3710335*
Y-039835*
G37*
G36*
X-375163Y-0402396D02*
X-3756098Y-0429854D01*
X-3767381*
X-3772275Y-0402396*
Y-0377705*
X-375163*
Y-0402396*
G37*
G36*
X-4184357Y-0524997D02*
X-4201172D01*
Y-0511589*
X-4203303Y-0514357*
X-4205429Y-0516696*
X-4207771Y-0518825*
X-4210326Y-052074*
X-4212668Y-0522231*
X-4215221Y-0523509*
X-4217563Y-0524573*
X-4219905Y-0525424*
X-4224162Y-0526488*
X-4226077Y-0526915*
X-4227568Y-0527128*
X-4228846*
X-4229907Y-0527339*
X-4230758*
X-4234164Y-0527128*
X-423757Y-0526702*
X-4240763Y-0526061*
X-4243743Y-0524997*
X-4249491Y-0522658*
X-4251833Y-0521167*
X-4254174Y-0519889*
X-4256303Y-0518401*
X-4258005Y-0517123*
X-4259493Y-0515846*
X-4260984Y-0514781*
X-4262048Y-0513717*
X-4262688Y-051308*
X-4263113Y-0512653*
X-4263326Y-0512439*
X-4265668Y-050946*
X-4267796Y-0506267*
X-4269712Y-0503074*
X-42712Y-0499457*
X-4272478Y-0496051*
X-4273544Y-0492432*
X-4275246Y-0485622*
X-4275884Y-0482429*
X-427631Y-0479447*
X-4276524Y-0476895*
X-4276735Y-0474553*
X-4276948Y-0472638*
Y-047136*
Y-0470296*
Y-0470082*
X-4276735Y-0465825*
X-4276524Y-0461782*
X-4275884Y-0458162*
X-4275246Y-0454969*
X-4274606Y-0452203*
X-4274182Y-0450075*
X-4273969Y-0449437*
X-4273755Y-0448797*
X-4273544Y-0448584*
Y-0448373*
X-4272267Y-0444754*
X-4270776Y-0441347*
X-4269287Y-0438368*
X-4267796Y-0435813*
X-4266519Y-0433898*
X-4265455Y-0432409*
X-4264817Y-0431342*
X-4264604Y-0431131*
X-4262475Y-0428576*
X-425992Y-0426234*
X-4257578Y-0424319*
X-4255236Y-0422828*
X-4253323Y-0421553*
X-4251619Y-0420489*
X-4250555Y-0420062*
X-4250128Y-0419849*
X-4246935Y-0418571*
X-4243532Y-0417509*
X-4240339Y-0416869*
X-423757Y-0416232*
X-4235229Y-0416018*
X-4233313Y-0415805*
X-4231612*
X-4228419Y-0416018*
X-4225226Y-0416445*
X-4222244Y-0417083*
X-4219478Y-0418147*
X-4214583Y-0420276*
X-4210326Y-0423042*
X-4208622Y-0424319*
X-420692Y-0425597*
X-4205643Y-0426874*
X-4204578Y-0427939*
X-4203514Y-0429003*
X-4202877Y-0429641*
X-4202663Y-0430067*
X-420245Y-0430278*
Y-0377705*
X-4184357*
Y-0524997*
G37*
G36*
X-4110286Y-0416018D02*
X-4105816Y-0416443D01*
X-4101558Y-0417083*
X-4098152Y-041772*
X-4095173Y-041836*
X-4093044Y-0418998*
X-4092194Y-0419211*
X-4091553Y-0419422*
X-409134Y-0419635*
X-4091129*
X-408751Y-0421126*
X-4084317Y-0423042*
X-4081551Y-0424746*
X-4079209Y-0426448*
X-4077507Y-042815*
X-407623Y-0429427*
X-4075376Y-0430278*
X-4075165Y-0430491*
X-407325Y-043326*
X-4071546Y-0436239*
X-4070268Y-0439219*
X-4069207Y-0441987*
X-4068353Y-0444754*
X-4067716Y-0446669*
X-4067502Y-044752*
Y-0448157*
X-4067289Y-044837*
Y-0448584*
X-4084957Y-0450926*
X-4086232Y-0447095*
X-408751Y-0443689*
X-4089001Y-0440921*
X-4090278Y-0438792*
X-4091553Y-043709*
X-4092618Y-0436026*
X-4093471Y-0435386*
X-4093684Y-0435175*
X-4096237Y-0433684*
X-4099217Y-043262*
X-4102409Y-0431769*
X-4105391Y-0431342*
X-4108371Y-0430918*
X-4110499Y-0430705*
X-4112628*
X-4117522Y-0430918*
X-4121779Y-0431556*
X-4125186Y-043262*
X-4128165Y-0433684*
X-4130294Y-0434962*
X-4131995Y-0435813*
X-413306Y-0436666*
X-4133273Y-0436877*
X-4134977Y-0438792*
X-4136252Y-0441134*
X-4137317Y-0443689*
X-4137957Y-0446244*
X-4138383Y-0448584*
X-4138594Y-0450712*
Y-045199*
Y-0452203*
Y-0452417*
Y-0452841*
Y-0453694*
Y-0455183*
X-4138383Y-045646*
Y-0456887*
Y-0457098*
X-4136252Y-0457738*
X-4133913Y-0458376*
X-4129016Y-0459653*
X-4123481Y-0460717*
X-4118373Y-0461782*
X-4115818Y-0462208*
X-4113479Y-0462419*
X-411135Y-0462846*
X-4109648Y-0463059*
X-4108157Y-046327*
X-4107093*
X-4106242Y-0463483*
X-4106029*
X-4102196Y-046391*
X-4099003Y-0464548*
X-4096237Y-0464974*
X-4094109Y-0465399*
X-4092407Y-0465612*
X-4091129Y-0466039*
X-4090278Y-0466252*
X-4090065*
X-4087296Y-0467103*
X-4084957Y-0467954*
X-4082615Y-0469018*
X-40807Y-0469869*
X-4078996Y-0470722*
X-4077931Y-0471573*
X-4077081Y-0471998*
X-4076867Y-0472211*
X-4074739Y-0473702*
X-4073037Y-0475404*
X-4071332Y-0477105*
X-4070057Y-047881*
X-4068993Y-0480298*
X-406814Y-0481576*
X-4067716Y-0482429*
X-4067502Y-048264*
X-4066438Y-0484982*
X-4065587Y-0487537*
X-4064949Y-0489877*
X-4064523Y-0492218*
X-4064309Y-0494134*
X-4064096Y-0495625*
Y-0496476*
Y-0496902*
X-4064309Y-0499457*
X-4064523Y-0501583*
X-4065587Y-0506054*
X-4067075Y-0509673*
X-406878Y-0512866*
X-4070482Y-0515421*
X-4071973Y-0517334*
X-4073037Y-0518401*
X-4073461Y-0518825*
X-4077294Y-0521591*
X-4081551Y-0523722*
X-4086232Y-0525211*
X-4090489Y-0526275*
X-4094322Y-0526915*
X-4096024Y-0527126*
X-4097515*
X-4098792Y-0527339*
X-4100494*
X-4104325Y-0527126*
X-4108157Y-0526702*
X-4111561Y-0526275*
X-4114543Y-0525637*
X-4116885Y-0524997*
X-41188Y-052436*
X-4120075Y-0524146*
X-4120502Y-0523935*
X-4124121Y-0522444*
X-4127527Y-0520529*
X-413072Y-0518401*
X-4133913Y-0516483*
X-4136466Y-0514568*
X-4138383Y-051308*
X-4139658Y-0512015*
X-4139872Y-0511589*
X-4140085*
X-4140509Y-0514357*
X-4140936Y-051691*
X-4141363Y-0519252*
X-4142Y-0521167*
X-414264Y-0522871*
X-4143065Y-0523935*
X-4143278Y-0524786*
X-4143491Y-0524997*
X-4162435*
X-416137Y-0522658*
X-4160306Y-0520316*
X-4159455Y-0518187*
X-4159029Y-0516272*
X-4158391Y-0514568*
X-4158178Y-051329*
X-4157964Y-0512439*
Y-0512226*
X-4157751Y-0510738*
X-4157538Y-0508822*
Y-0506694*
X-4157324Y-0504352*
X-4157113Y-0499031*
Y-0493709*
X-41569Y-0488602*
Y-048626*
Y-0484344*
Y-048264*
Y-0481365*
Y-0480512*
Y-0480298*
Y-0456034*
Y-045199*
X-4156687Y-0448373*
X-4156473Y-0445604*
Y-0443263*
X-4156262Y-0441561*
X-4156049Y-0440283*
X-4155836Y-0439646*
Y-0439432*
X-4155198Y-0436666*
X-4154347Y-0434324*
X-4153494Y-0432409*
X-415243Y-0430491*
X-4151579Y-0429216*
X-4150941Y-0428152*
X-4150514Y-0427512*
X-4150301Y-0427299*
X-4148599Y-0425597*
X-4146684Y-0423895*
X-4144553Y-0422617*
X-4142427Y-042134*
X-4140509Y-0420489*
X-4139021Y-0419849*
X-4137957Y-0419425*
X-413753Y-0419211*
X-4134126Y-0418147*
X-4130507Y-0417296*
X-4126887Y-0416656*
X-412327Y-0416232*
X-4120075Y-0416018*
X-4117736Y-0415805*
X-4115394*
X-4110286Y-0416018*
G37*
G36*
X-345683Y-0524997D02*
X-3477262D01*
X-3534732Y-0377705*
X-3514938*
X-3474923Y-0484769*
X-3473218Y-0489239*
X-347173Y-0493496*
X-3470452Y-049754*
X-3469388Y-0501159*
X-3468324Y-0504352*
X-3467686Y-0506694*
X-3467473Y-0507545*
X-346726Y-0508182*
X-3467046Y-0508609*
Y-0508822*
X-3464493Y-0500308*
X-3463216Y-0496262*
X-3461938Y-0492645*
X-3460874Y-0489452*
X-3460447Y-0488175*
X-3460236Y-0486897*
X-345981Y-0486046*
X-3459596Y-0485406*
X-3459383Y-0484982*
Y-0484769*
X-342107Y-0377705*
X-3399784*
X-345683Y-0524997*
G37*
G36*
X-3550058D02*
X-3568151D01*
Y-0418147*
X-3550058*
Y-0524997*
G37*
G36*
X-3641798Y-0416018D02*
X-3637968Y-0416656D01*
X-3634562Y-0417509*
X-3631156Y-0418571*
X-3628176Y-0419849*
X-3625408Y-042134*
X-3622855Y-0423042*
X-3620726Y-0424533*
X-3618598Y-0426234*
X-3616893Y-0427936*
X-3615405Y-0429427*
X-3614127Y-0430705*
X-3613277Y-0431769*
X-3612636Y-043262*
X-3612212Y-043326*
X-3611999Y-0433473*
Y-0418147*
X-3595822*
Y-0524997*
X-3613914*
Y-046689*
Y-046327*
X-3614341Y-0459653*
X-3614767Y-0456671*
X-3615192Y-0453905*
X-3615829Y-0451352*
X-3616469Y-0449011*
X-361732Y-0446882*
X-3618171Y-0445178*
X-3618811Y-0443689*
X-3619662Y-0442412*
X-36203Y-0441347*
X-3620937Y-0440496*
X-3621791Y-0439432*
X-3622217Y-0439005*
X-3625408Y-0436453*
X-3628814Y-0434748*
X-363222Y-0433473*
X-3635199Y-0432407*
X-3637968Y-0431982*
X-3640096Y-0431769*
X-3640947Y-0431556*
X-3642012*
X-3644564Y-0431769*
X-3647119Y-0431982*
X-3649248Y-043262*
X-3650952Y-043326*
X-3652441Y-0433898*
X-3653718Y-0434324*
X-3654356Y-0434748*
X-3654569Y-0434962*
X-3656484Y-0436239*
X-3658189Y-043773*
X-3659466Y-0439219*
X-3660528Y-0440496*
X-3661168Y-0441774*
X-3661806Y-0442838*
X-3662232Y-0443476*
Y-0443689*
X-366287Y-0446031*
X-366351Y-0448584*
X-3663934Y-0451352*
X-3664148Y-0454118*
X-3664361Y-045646*
Y-0458376*
Y-0459867*
Y-0460077*
Y-0460291*
Y-0524997*
X-3682453*
Y-045944*
Y-0454969*
X-368224Y-0451352*
X-3682027Y-044837*
Y-0445818*
X-3681813Y-0444113*
X-3681603Y-0442838*
X-3681389Y-0441987*
Y-0441774*
X-3680749Y-0439005*
X-3679687Y-0436453*
X-3678834Y-0434324*
X-3677983Y-0432193*
X-3676919Y-0430705*
X-3676281Y-0429641*
X-3675854Y-042879*
X-3675641Y-0428576*
X-3673939Y-0426448*
X-3672024Y-0424746*
X-3670106Y-0423042*
X-366798Y-0421767*
X-3666276Y-04207*
X-3664785Y-0420062*
X-3663934Y-0419635*
X-366351Y-0419422*
X-3660528Y-0418147*
X-3657335Y-0417296*
X-3654356Y-0416656*
X-365159Y-0416232*
X-3649248Y-0416018*
X-3647546Y-0415805*
X-3645842*
X-3641798Y-0416018*
G37*
G36*
X-3710335Y-0524997D02*
X-372843D01*
Y-0418147*
X-3710335*
Y-0524997*
G37*
G36*
X-3957246D02*
X-404941D01*
Y-0507545*
X-3976827*
Y-0377705*
X-3957246*
Y-0524997*
G37*
G36*
X-3824424Y-0416232D02*
X-3821871Y-0416443D01*
X-381953Y-0416869*
X-3817614Y-0417296*
X-3816123Y-041772*
X-3815273Y-0417934*
X-3814848Y-0418147*
X-3812293Y-0418998*
X-3809951Y-0419849*
X-3808036Y-04207*
X-3806334Y-0421553*
X-3805054Y-0422191*
X-3804203Y-0422828*
X-3803566Y-0423042*
X-3803352Y-0423255*
X-3801224Y-0424746*
X-3799522Y-0426448*
X-3798031Y-0428363*
X-3796753Y-0429854*
X-3795689Y-0431342*
X-3795052Y-0432407*
X-3794627Y-043326*
X-3794414Y-0433473*
X-379335Y-0435813*
X-3792496Y-0437941*
X-3792072Y-0440283*
X-3791645Y-0442198*
X-3791432Y-0444113*
X-3791221Y-0445391*
Y-0446244*
Y-0446669*
X-3791432Y-0449648*
X-3791859Y-0452203*
X-3792496Y-0454756*
X-3793136Y-0456885*
X-3793774Y-0458589*
X-3794414Y-0460077*
X-3794838Y-0460931*
X-3795052Y-0461142*
X-3796753Y-0463483*
X-3798671Y-0465399*
X-3800586Y-0467103*
X-3802501Y-0468591*
X-3804203Y-0469656*
X-3805481Y-0470509*
X-3806334Y-0470933*
X-3806758Y-0471147*
X-3808249Y-0471784*
X-3810165Y-0472635*
X-3814422Y-0474126*
X-3818892Y-0475404*
X-3823573Y-0476892*
X-3827619Y-0477959*
X-3829532Y-0478596*
X-3831236Y-0479023*
X-3832514Y-0479447*
X-3833578Y-0479661*
X-3834216Y-0479874*
X-3834429*
X-3837195Y-0480512*
X-3839537Y-0481149*
X-3841666Y-0481789*
X-3843583Y-0482429*
X-3845285Y-0482854*
X-3846774Y-0483491*
X-3849329Y-0484344*
X-3851031Y-0484982*
X-3852097Y-048562*
X-3852735Y-0485833*
X-3852948Y-0486046*
X-3854864Y-0487324*
X-3856141Y-0489026*
X-3857205Y-0490517*
X-3857843Y-0492005*
X-3858267Y-0493496*
X-385848Y-049456*
Y-0495411*
Y-0495625*
X-3858267Y-049818*
X-385763Y-0500308*
X-3856565Y-0502437*
X-3855501Y-0504139*
X-3854223Y-0505627*
X-3853373Y-0506694*
X-3852522Y-0507331*
X-3852308Y-0507545*
X-3849753Y-0509247*
X-3846987Y-0510311*
X-3843794Y-0511164*
X-3840815Y-0511802*
X-3838046Y-0512226*
X-383592Y-0512439*
X-3833789*
X-3829321Y-0512226*
X-3825488Y-0511589*
X-3822296Y-0510738*
X-381953Y-0509673*
X-3817401Y-0508609*
X-3815699Y-0507758*
X-3814848Y-0507118*
X-3814422Y-0506907*
X-381208Y-0504565*
X-3810165Y-0501797*
X-3808887Y-0499031*
X-3807823Y-0496476*
X-3806972Y-0494134*
X-3806545Y-0492005*
X-3806121Y-049073*
Y-0490517*
Y-0490303*
X-3788239Y-0493069*
X-378973Y-0499031*
X-3791645Y-0504352*
X-3793987Y-0508609*
X-3796329Y-0512226*
X-3798458Y-0515208*
X-3800373Y-0517123*
X-3801651Y-0518401*
X-3801864Y-0518612*
X-3802075Y-0518825*
X-3804203Y-0520316*
X-3806545Y-0521591*
X-3811653Y-0523722*
X-3816974Y-0525211*
X-3822085Y-0526275*
X-3824424Y-0526702*
X-3826553Y-0526915*
X-3828681Y-0527126*
X-3830386*
X-3831874Y-0527339*
X-3833789*
X-3838473Y-0527126*
X-3842517Y-0526702*
X-3846349Y-0526061*
X-3849753Y-0525211*
X-3852522Y-052436*
X-385465Y-0523722*
X-3855928Y-0523295*
X-3856141Y-0523082*
X-3856355*
X-3859971Y-0521167*
X-3862951Y-0519252*
X-3865506Y-0517123*
X-3867848Y-0515208*
X-386955Y-0513504*
X-3870614Y-0512015*
X-3871465Y-0511164*
X-3871678Y-0510738*
X-387338Y-0507758*
X-3874658Y-0504565*
X-3875722Y-0501797*
X-3876362Y-0499244*
X-3876786Y-0496902*
X-3877Y-04952*
Y-0494134*
Y-0493709*
X-3876786Y-0490303*
X-3876362Y-0487324*
X-3875509Y-0484769*
X-3874871Y-0482429*
X-387402Y-0480512*
X-3873169Y-0479234*
X-3872743Y-0478383*
X-3872529Y-0478172*
X-3870827Y-0476041*
X-3868912Y-0474126*
X-3866995Y-0472424*
X-3865079Y-0471147*
X-3863164Y-0470082*
X-3861887Y-0469445*
X-3861036Y-0469018*
X-3860609Y-0468805*
X-3859121Y-0468167*
X-3857416Y-0467527*
X-3853373Y-0466039*
X-3848902Y-0464548*
X-3844434Y-046327*
X-3840388Y-0461995*
X-3838473Y-0461568*
X-3836984Y-0461142*
X-3835707Y-0460717*
X-3834643Y-0460504*
X-3834003Y-0460291*
X-3833789*
X-383145Y-0459653*
X-3829321Y-0459013*
X-3827406Y-0458589*
X-3825702Y-0457951*
X-3822936Y-0457311*
X-3820807Y-0456671*
X-3819316Y-0456034*
X-3818465Y-045582*
X-3818039Y-0455609*
X-3817828*
X-3816123Y-0454756*
X-3814635Y-0454118*
X-3813357Y-0453268*
X-3812506Y-0452628*
X-3811653Y-045199*
X-3811229Y-0451352*
X-3811016Y-0451139*
X-3810802Y-0450926*
X-3809525Y-0448797*
X-3808887Y-0446669*
Y-0445818*
X-3808674Y-0445178*
Y-0444754*
Y-044454*
X-3808887Y-0442625*
X-3809525Y-044071*
X-3810378Y-0439005*
X-3811442Y-043773*
X-3812293Y-0436453*
X-3813144Y-0435599*
X-3813782Y-0435175*
X-3813995Y-0434962*
X-3816337Y-0433473*
X-3819105Y-0432407*
X-3822085Y-0431769*
X-3824851Y-0431131*
X-3827619Y-0430918*
X-3829745Y-0430705*
X-3831874*
X-3835493Y-0430918*
X-38389Y-0431342*
X-3841666Y-0432193*
X-3843794Y-0433047*
X-3845709Y-0433898*
X-3846987Y-0434748*
X-384784Y-0435175*
X-3848051Y-0435386*
X-385018Y-0437304*
X-3851671Y-0439432*
X-3852948Y-0441561*
X-385401Y-0443476*
X-385465Y-0445391*
X-3855077Y-0446882*
X-3855288Y-0447733*
Y-0448157*
X-3872956Y-0445818*
X-3872105Y-0442198*
X-3871252Y-0439005*
X-3870187Y-0436239*
X-3869123Y-0433684*
X-3868061Y-0431982*
X-3867208Y-0430491*
X-3866781Y-0429641*
X-386657Y-0429427*
X-3864655Y-0427299*
X-3862524Y-0425383*
X-3860185Y-0423679*
X-3857843Y-0422191*
X-3855714Y-0421126*
X-385401Y-0420276*
X-3852948Y-0419849*
X-3852735Y-0419635*
X-3852522*
X-3848902Y-041836*
X-3845072Y-0417509*
X-3841452Y-0416656*
X-3838046Y-0416232*
X-3834856Y-0416018*
X-3832514Y-0415805*
X-3827406*
X-3824424Y-0416232*
G37*
%LNmicamp_legend_bot-2*%
%LPC*%
G36*
X-4228846Y-0430705D02*
X-4232038D01*
X-4234164Y-0431131*
X-423821Y-0432196*
X-4241614Y-0433898*
X-4244596Y-0435599*
X-4246935Y-0437517*
X-424864Y-0439219*
X-4249704Y-0440283*
X-4250128Y-0440496*
Y-044071*
X-4251619Y-0442625*
X-4252897Y-0444967*
X-4255025Y-0449648*
X-4256516Y-0454969*
X-4257367Y-0459867*
X-4258005Y-0464334*
X-4258218Y-0466465*
Y-0468167*
X-4258431Y-0469658*
Y-0470722*
Y-047136*
Y-0471573*
Y-047519*
X-4258005Y-047881*
X-4257578Y-0482003*
X-4257154Y-0484982*
X-4256516Y-0487748*
X-4255663Y-0490303*
X-4254812Y-0492432*
X-4254174Y-049456*
X-4253323Y-0496262*
X-425247Y-0497967*
X-4251833Y-0499244*
X-4250979Y-0500308*
X-4250555Y-0501159*
X-4250128Y-0501797*
X-4249704Y-050201*
Y-0502224*
X-4248Y-0503925*
X-4246298Y-050563*
X-4242892Y-0508182*
X-4239486Y-0509887*
X-4236295Y-0511164*
X-4233527Y-0511802*
X-4231185Y-0512226*
X-4230334Y-0512439*
X-422927*
X-4226501Y-0512226*
X-4224162Y-0511802*
X-4221607Y-0511164*
X-4219478Y-0510311*
X-4215434Y-0507969*
X-4212242Y-0505416*
X-4209475Y-0503074*
X-420756Y-0500733*
X-420692Y-0499882*
X-4206494Y-0499244*
X-4206069Y-0498817*
Y-0498604*
X-4205218Y-0496902*
X-4204365Y-0494987*
X-420309Y-049073*
X-4202236Y-0486046*
X-4201599Y-0481576*
X-4201172Y-0477532*
Y-0475617*
X-4200961Y-0474126*
Y-0472848*
Y-0471784*
Y-0471147*
Y-0470933*
Y-0467316*
X-4201386Y-0464124*
X-4201812Y-0460931*
X-4202236Y-0457951*
X-4202877Y-0455396*
X-4203727Y-0452841*
X-4204365Y-0450712*
X-4205218Y-0448584*
X-4206069Y-0446882*
X-4206707Y-0445391*
X-420756Y-0444113*
X-4208198Y-0443049*
X-4208622Y-0442198*
X-4209049Y-0441561*
X-4209475Y-0441347*
Y-0441134*
X-4211177Y-0439219*
X-4212879Y-043773*
X-4214583Y-0436239*
X-4216285Y-0435175*
X-4219691Y-043326*
X-4222884Y-0431982*
X-422565Y-0431342*
X-4227992Y-0430918*
X-4228846Y-0430705*
G37*
G36*
X-4138383Y-047136D02*
X-4138594D01*
X-4138383Y-0478172*
X-413817Y-0482429*
X-4137957Y-0486046*
X-413753Y-0489026*
X-4136892Y-0491581*
X-4136252Y-0493496*
X-4135828Y-0494987*
X-4135615Y-0495838*
X-4135401Y-0496051*
X-41337Y-0498817*
X-4131995Y-0501373*
X-4129869Y-0503501*
X-4127952Y-0505203*
X-412625Y-0506694*
X-4124759Y-0507758*
X-4123908Y-0508396*
X-4123481Y-0508609*
X-4120288Y-0510098*
X-4117096Y-0511164*
X-4114116Y-0512015*
X-4111137Y-0512439*
X-4108795Y-0512866*
X-4106666Y-051308*
X-4104965*
X-4101134Y-0512866*
X-4097939Y-0512439*
X-4095173Y-0511589*
X-4092831Y-0510738*
X-4091129Y-0509884*
X-4089852Y-0509033*
X-4089001Y-0508609*
X-4088787Y-0508396*
X-4087083Y-0506481*
X-4085808Y-0504352*
X-4084744Y-0502437*
X-4084104Y-0500519*
X-4083679Y-0498817*
X-4083466Y-049754*
Y-0496476*
Y-0496262*
X-4083679Y-049456*
X-4083893Y-0492856*
X-4084317Y-0491581*
X-4084744Y-0490303*
X-408517Y-0489239*
X-4085381Y-0488388*
X-4085808Y-0487961*
Y-0487748*
X-4087936Y-0485195*
X-4090489Y-0483491*
X-409134Y-0482854*
X-4092194Y-0482429*
X-4092831Y-0482003*
X-4093044*
X-4095173Y-0481149*
X-4097515Y-0480512*
X-4100068Y-0479874*
X-4102623Y-0479447*
X-4104965Y-0479023*
X-4107093Y-0478596*
X-4108371Y-0478383*
X-4108795*
X-4112414Y-0477746*
X-4115818Y-0477319*
X-41188Y-0476681*
X-4121779Y-0476041*
X-4124545Y-0475404*
X-4126887Y-0474766*
X-4129229Y-0474339*
X-4131144Y-0473702*
X-4132846Y-0473275*
X-4134337Y-0472848*
X-4135615Y-0472424*
X-4136679Y-0471998*
X-413753Y-0471784*
X-413817Y-0471573*
X-4138383Y-047136*
G37*
%LNmicamp_legend_bot-3*%
%LPD*%
G54D28*
X-3139998Y-0064998D02*
X-2119998D01*
X-4464999Y0259999D02*
X-3444999D01*
X-3139998Y0584997D02*
X-2119998D01*
X-1799998Y-0064998D02*
X-0779998D01*
X-1799998Y0584997D02*
X-0779998D01*
G54D29*
X-2079998Y-0644999D02*
Y-0014998D01*
X-3179998D02*
X-2079998D01*
X-3179998Y-0644999D02*
Y-0014998D01*
Y-0644999D02*
X-2079998D01*
X-3404999Y-0319999D02*
Y0309999D01*
X-4504999D02*
X-3404999D01*
X-4504999Y-0319999D02*
Y0309999D01*
Y-0319999D02*
X-3404999D01*
X-2079998Y0004998D02*
Y0635D01*
X-3179998D02*
X-2079998D01*
X-3179998Y0004998D02*
Y0635D01*
Y0004998D02*
X-2079998D01*
X-1839998Y-0644999D02*
X-0739998D01*
X-1839998D02*
Y-0014998D01*
X-0739998*
Y-0644999D02*
Y-0014998D01*
X-1839998Y0004998D02*
X-0739998D01*
X-1839998D02*
Y0635D01*
X-0739998*
Y0004998D02*
Y0635D01*
G54D30*
X-2129998Y-0498822D02*
X-2231565D01*
X-218078Y-044804D02*
Y-0549607D01*
X-3454999Y-0173824D02*
X-3556566D01*
X-3505781Y-012304D02*
Y-0224607D01*
X-2129998Y0151173D02*
X-2231565D01*
X-218078Y0201957D02*
Y010039D01*
X-0789998Y-0498822D02*
X-0891565D01*
X-084078Y-044804D02*
Y-0549607D01*
X-0789998Y0151173D02*
X-0891565D01*
X-084078Y0201957D02*
Y010039D01*
X-1311564Y-0323039D02*
X-1286174Y-0297647D01*
X-1235389*
X-1209997Y-0323039*
Y-0424606*
X-1235389Y-0449999*
X-1286174*
X-1311564Y-0424606*
X-1362349D02*
X-1387741Y-0449999D01*
X-1438523*
X-1463916Y-0424606*
Y-0323039*
X-1438523Y-0297647*
X-1387741*
X-1362349Y-0323039*
Y-0348432*
X-1387741Y-0373824*
X-1463916*
X-1311564Y0351957D02*
X-1286174Y037735D01*
X-1235389*
X-1209997Y0351957*
Y025039*
X-1235389Y0224998*
X-1286174*
X-1311564Y025039*
X-1463916Y037735D02*
X-1413131Y0351957D01*
X-1362349Y0301172*
Y025039*
X-1387741Y0224998*
X-1438523*
X-1463916Y025039*
Y0275783*
X-1438523Y0301172*
X-1362349*
X-2626565Y-0243039D02*
X-2601173Y-0217647D01*
X-2550391*
X-2524998Y-0243039*
Y-0344606*
X-2550391Y-0369999*
X-2601173*
X-2626565Y-0344606*
X-2778917Y-0217647D02*
X-267735D01*
Y-0293824*
X-2728132Y-0268432*
X-2753525*
X-2778917Y-0293824*
Y-0344606*
X-2753525Y-0369999*
X-2702742*
X-267735Y-0344606*
X-3951566Y0026957D02*
X-3926174Y0052349D01*
X-3875389*
X-3849999Y0026957*
Y-0074607*
X-3875389Y-0099999*
X-3926174*
X-3951566Y-0074607*
X-4078523Y-0099999D02*
Y0052349D01*
X-4002349Y-0023822*
X-4103916*
X-2601564Y0354457D02*
X-2576174Y0379849D01*
X-2525389*
X-2499997Y0354457*
Y025289*
X-2525389Y0227497*
X-2576174*
X-2601564Y025289*
X-2652349Y0227497D02*
X-2703131D01*
X-2677741*
Y0379849*
X-2652349Y0354457*
M02*