%FSTAX25Y25*%
%MOMM*%
%SFA1B1*%

%IPPOS*%
%AMD25*
4,1,8,3.375660,2.250440,-3.375660,2.250440,-4.500880,1.125220,-4.500880,-1.125220,-3.375660,-2.250440,3.375660,-2.250440,4.500880,-1.125220,4.500880,1.125220,3.375660,2.250440,0.0*
1,1,2.250000,3.375660,1.125220*
1,1,2.250000,-3.375660,1.125220*
1,1,2.250000,-3.375660,-1.125220*
1,1,2.250000,3.375660,-1.125220*
%
%AMD27*
4,1,8,-1.000760,0.375920,-1.000760,-0.375920,-0.624840,-0.749300,0.624840,-0.749300,1.000760,-0.375920,1.000760,0.375920,0.624840,0.749300,-0.624840,0.749300,-1.000760,0.375920,0.0*
1,1,0.750000,-0.624840,0.375920*
1,1,0.750000,-0.624840,-0.375920*
1,1,0.750000,0.624840,-0.375920*
1,1,0.750000,0.624840,0.375920*
%
%ADD20C,0.499999*%
%ADD23O,1.499997X0.999998*%
%ADD24C,1.523997*%
G04~CAMADD=25~8~0.0~0.0~3543.3~1771.7~442.9~0.0~15~0.0~0.0~0.0~0.0~0~0.0~0.0~0.0~0.0~0~0.0~0.0~0.0~0.0~3543.3~1771.7*
%ADD25D25*%
%ADD26C,0.999998*%
G04~CAMADD=27~8~0.0~0.0~590.6~787.4~147.6~0.0~15~0.0~0.0~0.0~0.0~0~0.0~0.0~0.0~0.0~0~0.0~0.0~0.0~90.0~788.0~591.0*
%ADD27D27*%
%LNmicamp_copper_signal_bot-1*%
%LPD*%
G36*
X-0025486Y0652142D02*
X-0337499D01*
X-0372087Y0647588*
X-0404319Y0634238*
X-0431998Y0612998*
X-0453237Y058532*
X-0466587Y0553087*
X-0471142Y0518497*
Y0293499*
X-0466587Y0258909*
X-0453237Y0226677*
X-0431998Y0198998*
X-0404319Y0177759*
X-0372087Y0164409*
X-0337499Y0159854*
X-0025486*
Y-0154409*
X-0337499*
X-0373496Y-0159148*
X-0407042Y-0173042*
X-0435848Y-0195148*
X-0457954Y-0223954*
X-0471848Y-02575*
X-0476587Y-0293499*
Y-0393298*
X0*
Y-0418698*
X-0476587*
Y-0518497*
X-0471848Y-0554497*
X-0457954Y-0588043*
X-0435848Y-0616851*
X-0407042Y-0638954*
X-0373496Y-0652848*
X-0337499Y-0657588*
X-0025486*
Y-0774509*
X-4364441*
X-4406742Y-0732208*
X-4399549Y-0721443*
X-4394682Y-0723458*
X-4374997Y-0726048*
X-4362698*
Y-0662698*
X-4449378*
X-4448456Y-0669681*
X-4446442Y-0674547*
X-4457209Y-0681743*
X-4831974Y-0306976*
X-4840244Y-0301449*
X-4849997Y-0299511*
X-512451*
Y-0109207*
X-511181Y-0098783*
X-5097498Y-010163*
X-5047698*
Y0*
Y010163*
X-5097498*
X-511181Y0098783*
X-512451Y0109207*
Y0299509*
X-4824999*
X-4815245Y0301449*
X-4806975Y0306976*
X-4462919Y0651029*
X-4450461Y064553*
X-4448456Y0630313*
X-4440859Y0611974*
X-4428774Y0596221*
X-4413023Y0584136*
X-4394682Y0576539*
X-4374997Y0573948*
X-4362698*
Y0649998*
Y0726048*
X-436994*
X-4375345Y0738606*
X-433944Y0774509*
X-0025486*
Y0652142*
G37*
%LNmicamp_copper_signal_bot-2*%
%LPC*%
G36*
X-1349999Y0726048D02*
X-1362298D01*
Y0662698*
X-1275618*
X-127654Y0669681*
X-1284137Y0688022*
X-1296222Y0703775*
X-1311973Y071586*
X-1330314Y0723458*
X-1349999Y0726048*
G37*
G36*
X-1387698D02*
X-1399999D01*
X-1419682Y0723458*
X-1438023Y071586*
X-1453774Y0703775*
X-1465861Y0688022*
X-1473456Y0669681*
X-1474378Y0662698*
X-1387698*
Y0726048*
G37*
G36*
X-2574998D02*
X-2587299D01*
Y0662698*
X-2500619*
X-2501539Y0669681*
X-2509136Y0688022*
X-2521221Y0703775*
X-2536974Y071586*
X-2555313Y0723458*
X-2574998Y0726048*
G37*
G36*
X-2612699D02*
X-2624998D01*
X-2644681Y0723458*
X-2663024Y071586*
X-2678775Y0703775*
X-269086Y0688022*
X-2698457Y0669681*
X-2699377Y0662698*
X-2612699*
Y0726048*
G37*
G36*
X-4324997D02*
X-4337298D01*
Y0662698*
X-4250618*
X-425154Y0669681*
X-4259135Y0688022*
X-4271223Y0703775*
X-4286973Y071586*
X-4305315Y0723458*
X-4324997Y0726048*
G37*
G36*
X-1275618Y0637298D02*
X-1362298D01*
Y0573948*
X-1349999*
X-1330314Y0576539*
X-1311973Y0584136*
X-1296222Y0596221*
X-1284137Y0611974*
X-127654Y0630313*
X-1275618Y0637298*
G37*
G36*
X-1387698D02*
X-1474378D01*
X-1473456Y0630313*
X-1465861Y0611974*
X-1453774Y0596221*
X-1438023Y0584136*
X-1419682Y0576539*
X-1399999Y0573948*
X-1387698*
Y0637298*
G37*
G36*
X-2500619D02*
X-2587299D01*
Y0573948*
X-2574998*
X-2555313Y0576539*
X-2536974Y0584136*
X-2521221Y0596221*
X-2509136Y0611974*
X-2501539Y0630313*
X-2500619Y0637298*
G37*
G36*
X-2612699D02*
X-2699377D01*
X-2698457Y0630313*
X-269086Y0611974*
X-2678775Y0596221*
X-2663024Y0584136*
X-2644681Y0576539*
X-2624998Y0573948*
X-2612699*
Y0637298*
G37*
G36*
X-4250618D02*
X-4337298D01*
Y0573948*
X-4324997*
X-4305315Y0576539*
X-4286973Y0584136*
X-4271223Y0596221*
X-4259135Y0611974*
X-425154Y0630313*
X-4250618Y0637298*
G37*
G36*
X-1937298Y0550804D02*
Y0462699D01*
X-1849193*
X-1851014Y0476521*
X-1861251Y0501235*
X-1877537Y052246*
X-1898761Y0538746*
X-1923475Y0548982*
X-1937298Y0550804*
G37*
G36*
X-1962698D02*
X-1976521Y0548982D01*
X-2001235Y0538746*
X-2022459Y052246*
X-2038746Y0501235*
X-2048984Y0476521*
X-2050803Y0462699*
X-1962698*
Y0550804*
G37*
G36*
X-0609998Y0547029D02*
X-0635111Y0543722D01*
X-0658512Y0534029*
X-0678609Y0518609*
X-0694029Y0498513*
X-0695119Y0495879*
X-0764898*
X-0782457Y0492386*
X-0797341Y0482442*
X-1541147Y-026136*
X-1546199Y-0260695*
X-1564472Y-02631*
X-15815Y-0270154*
X-1596123Y-0281373*
X-1607342Y-0295996*
X-1614396Y-0313024*
X-1616803Y-0331299*
X-1614396Y-0349572*
X-1607342Y-03666*
X-1596123Y-0381223*
X-15815Y-0392442*
X-1564472Y-0399496*
X-1546199Y-0401901*
X-1527924Y-0399496*
X-1510896Y-0392442*
X-1496273Y-0381223*
X-1485054Y-03666*
X-1478Y-0349572*
X-1475595Y-0331299*
X-147626Y-0326247*
X-0745893Y0404116*
X-0695119*
X-0694029Y0401482*
X-0678609Y0381388*
X-0658512Y0365968*
X-0635111Y0356275*
X-0609998Y0352968*
X-0584885Y0356275*
X-0561484Y0365968*
X-0541388Y0381388*
X-0525967Y0401482*
X-0516275Y0424886*
X-0512968Y0449999*
X-0516275Y0475112*
X-0525967Y0498513*
X-0541388Y0518609*
X-0561484Y0534029*
X-0584885Y0543722*
X-0609998Y0547029*
G37*
G36*
X-1849193Y0437299D02*
X-1937298D01*
Y0349194*
X-1923475Y0351012*
X-1898761Y0361251*
X-1877537Y0377537*
X-1861251Y0398759*
X-1851014Y0423476*
X-1849193Y0437299*
G37*
G36*
X-1962698D02*
X-2050803D01*
X-2048984Y0423476*
X-2038746Y0398759*
X-2022459Y0377537*
X-2001235Y0361251*
X-1976521Y0351012*
X-1962698Y0349194*
Y0437299*
G37*
G36*
X-3262299Y0225803D02*
Y0137698D01*
X-3174194*
X-3176013Y0151521*
X-3186249Y0176237*
X-3202536Y0197459*
X-322376Y0213746*
X-3248474Y0223984*
X-3262299Y0225803*
G37*
G36*
X-3287699D02*
X-3301522Y0223984D01*
X-3326236Y0213746*
X-334746Y0197459*
X-3363747Y0176237*
X-3373983Y0151521*
X-3375804Y0137698*
X-3287699*
Y0225803*
G37*
G36*
X-0609998Y0297027D02*
X-0635111Y0293723D01*
X-0658512Y0284027*
X-0678609Y0268607*
X-0694029Y0248513*
X-0703722Y0225112*
X-0707029Y0199999*
X-0703722Y0174886*
X-0694029Y0151483*
X-0678609Y0131386*
X-0658512Y0115968*
X-0635111Y0106273*
X-0609998Y0102969*
X-0584885Y0106273*
X-0561484Y0115968*
X-0541388Y0131386*
X-0525967Y0151483*
X-0516275Y0174886*
X-0512968Y0199999*
X-0516275Y0225112*
X-0525967Y0248513*
X-0541388Y0268607*
X-0561484Y0284027*
X-0584885Y0293723*
X-0609998Y0297027*
G37*
G36*
X-1949998D02*
X-1975111Y0293723D01*
X-1998512Y0284027*
X-2018609Y0268607*
X-2034029Y0248513*
X-2043722Y0225112*
X-2047029Y0199999*
X-2043722Y0174886*
X-2034029Y0151483*
X-2018609Y0131386*
X-1998512Y0115968*
X-1975111Y0106273*
X-1949998Y0102969*
X-1924885Y0106273*
X-1901484Y0115968*
X-1881388Y0131386*
X-1865967Y0151483*
X-1856275Y0174886*
X-1852968Y0199999*
X-1856275Y0225112*
X-1865967Y0248513*
X-1881388Y0268607*
X-1901484Y0284027*
X-1924885Y0293723*
X-1949998Y0297027*
G37*
G36*
X-3174194Y0112298D02*
X-3262299D01*
Y0024193*
X-3248474Y0026014*
X-322376Y003625*
X-3202536Y0052537*
X-3186249Y0073759*
X-3176013Y0098475*
X-3174194Y0112298*
G37*
G36*
X-3287699D02*
X-3375804D01*
X-3373983Y0098475*
X-3363747Y0073759*
X-334746Y0052537*
X-3326236Y003625*
X-3301522Y0026014*
X-3287699Y0024193*
Y0112298*
G37*
G36*
X-4972499Y010163D02*
X-5022298D01*
Y00127*
X-4908367*
Y0037498*
X-4913249Y0062039*
X-492715Y0082847*
X-4947955Y0096748*
X-4972499Y010163*
G37*
G36*
X-0549998Y0097028D02*
X-0575111Y009372D01*
X-0598512Y0084028*
X-0618609Y0068607*
X-0634029Y0048514*
X-0643722Y0025112*
X-0647029Y0*
X-0643722Y-0025112*
X-0634029Y-0048514*
X-0618609Y-006861*
X-0598512Y-008403*
X-0590745Y-0087246*
X-059406Y-0099621*
X-0597298Y-0099194*
Y-0187299*
X-0509193*
X-0511014Y-0173476*
X-0521251Y-014876*
X-0537537Y-0127535*
X-0558761Y-0111252*
X-0567842Y-010749*
X-0564527Y-0095117*
X-0549998Y-0097028*
X-0524885Y-0093723*
X-0501484Y-008403*
X-0481388Y-006861*
X-0465968Y-0048514*
X-0456275Y-0025112*
X-0452968Y0*
X-0456275Y0025112*
X-0465968Y0048514*
X-0481388Y0068607*
X-0501484Y0084028*
X-0524885Y009372*
X-0549998Y0097028*
G37*
G36*
X-4908367Y-00127D02*
X-5022298D01*
Y-010163*
X-4972499*
X-4947955Y-0096748*
X-492715Y-0082847*
X-4913249Y-0062039*
X-4908367Y-0037498*
Y-00127*
G37*
G36*
X-4699998Y017082D02*
X-4733325Y0167538D01*
X-476537Y0157817*
X-4794902Y0142031*
X-4820787Y0120787*
X-4842032Y0094902*
X-4857818Y0065369*
X-4867539Y0033324*
X-487082Y0*
X-4867539Y-0033324*
X-4857818Y-0065369*
X-4842032Y-0094902*
X-4820787Y-0120789*
X-4794902Y-0142031*
X-476537Y-0157817*
X-4733325Y-0167538*
X-4699998Y-0170822*
X-4666673Y-0167538*
X-4634628Y-0157817*
X-4605093Y-0142031*
X-4579208Y-0120789*
X-4557963Y-0094902*
X-454218Y-0065369*
X-4532459Y-0033324*
X-4529175Y0*
X-4532459Y0033324*
X-454218Y0065369*
X-4557963Y0094902*
X-4579208Y0120787*
X-4605093Y0142031*
X-4634628Y0157817*
X-4666673Y0167538*
X-4699998Y017082*
G37*
G36*
X-1937298Y-0099194D02*
Y-0187299D01*
X-1849193*
X-1851014Y-0173476*
X-1861251Y-014876*
X-1877537Y-0127535*
X-1898761Y-0111252*
X-1923475Y-0101013*
X-1937298Y-0099194*
G37*
G36*
X-0622698D02*
X-0636521Y-0101013D01*
X-0661235Y-0111252*
X-0682459Y-0127535*
X-0698746Y-014876*
X-0708982Y-0173476*
X-0710803Y-0187299*
X-0622698*
Y-0099194*
G37*
G36*
X-1962698D02*
X-1976521Y-0101013D01*
X-2001235Y-0111252*
X-2022459Y-0127535*
X-2038746Y-014876*
X-2048984Y-0173476*
X-2050803Y-0187299*
X-1962698*
Y-0099194*
G37*
G36*
X-3274999Y-0027967D02*
X-3300112Y-0031275D01*
X-3323513Y-0040967*
X-334361Y-0056388*
X-335903Y-0076484*
X-3368723Y-0099885*
X-3372027Y-0124998*
X-3368723Y-0150111*
X-335903Y-0173512*
X-334361Y-0193608*
X-3323513Y-0209029*
X-3300112Y-0218721*
X-3274999Y-0222029*
X-3249886Y-0218721*
X-3226483Y-0209029*
X-3206389Y-0193608*
X-3190968Y-0173512*
X-3181273Y-0150111*
X-3177969Y-0124998*
X-3181273Y-0099885*
X-3190968Y-0076484*
X-3206389Y-0056388*
X-3226483Y-0040967*
X-3249886Y-0031275*
X-3274999Y-0027967*
G37*
G36*
X-0622698Y-0212699D02*
X-0710803D01*
X-0708982Y-0226522*
X-0698746Y-0251236*
X-0682459Y-027246*
X-0661235Y-0288747*
X-0636521Y-0298983*
X-0622698Y-0300804*
Y-0212699*
G37*
G36*
X-1849193D02*
X-1937298D01*
Y-0300804*
X-1923475Y-0298983*
X-1898761Y-0288747*
X-1877537Y-027246*
X-1861251Y-0251236*
X-1851014Y-0226522*
X-1849193Y-0212699*
G37*
G36*
X-1962698D02*
X-2050803D01*
X-2048984Y-0226522*
X-2038746Y-0251236*
X-2022459Y-027246*
X-2001235Y-0288747*
X-1976521Y-0298983*
X-1962698Y-0300804*
Y-0212699*
G37*
G36*
X-0509193D02*
X-0597298D01*
Y-0300804*
X-0583476Y-0298983*
X-0558761Y-0288747*
X-0537537Y-027246*
X-0521251Y-0251236*
X-0511014Y-0226522*
X-0509193Y-0212699*
G37*
G36*
X-4387298Y-0370619D02*
Y-0432297D01*
X-432562*
X-4326539Y-0425315*
X-4334136Y-0406974*
X-4346221Y-0391223*
X-4361972Y-0379135*
X-4380316Y-0371538*
X-4387298Y-0370619*
G37*
G36*
X-4412698D02*
X-4419683Y-0371538D01*
X-4438022Y-0379135*
X-4453775Y-0391223*
X-4465861Y-0406974*
X-4473458Y-0425315*
X-4474377Y-0432297*
X-4412698*
Y-0370619*
G37*
G36*
X-2726293Y-039562D02*
Y-0457299D01*
X-2664614*
X-2665534Y-0450316*
X-2673131Y-0431972*
X-2685216Y-0416222*
X-2700969Y-0404136*
X-2719311Y-0396539*
X-2726293Y-039562*
G37*
G36*
X-2751693D02*
X-2758678Y-0396539D01*
X-277702Y-0404136*
X-279277Y-0416222*
X-2804855Y-0431972*
X-2812453Y-0450316*
X-2813372Y-0457299*
X-2751693*
Y-039562*
G37*
G36*
X-432562Y-0457697D02*
X-4387298D01*
Y-0519376*
X-4380316Y-0518457*
X-4361972Y-051086*
X-4346221Y-0498774*
X-4334136Y-0483024*
X-4326539Y-0464682*
X-432562Y-0457697*
G37*
G36*
X-4412698D02*
X-4474377D01*
X-4473458Y-0464682*
X-4465861Y-0483024*
X-4453775Y-0498774*
X-4438022Y-051086*
X-4419683Y-0518457*
X-4412698Y-0519376*
Y-0457697*
G37*
G36*
X-2664614Y-0482699D02*
X-2726293D01*
Y-0544377*
X-2719311Y-0543458*
X-2700969Y-0535861*
X-2685216Y-0523775*
X-2673131Y-0508025*
X-2665534Y-0489681*
X-2664614Y-0482699*
G37*
G36*
X-2751693D02*
X-2813372D01*
X-2812453Y-0489681*
X-2804855Y-0508025*
X-279277Y-0523775*
X-277702Y-0535861*
X-2758678Y-0543458*
X-2751693Y-0544377*
Y-0482699*
G37*
G36*
X-0609998Y-0352968D02*
X-0635111Y-0356275D01*
X-0658512Y-0365968*
X-0678609Y-0381388*
X-0694029Y-0401482*
X-0703722Y-0424886*
X-0707029Y-0449999*
X-0703722Y-0475112*
X-0694029Y-0498513*
X-0678609Y-0518609*
X-0658512Y-0534029*
X-0635111Y-0543722*
X-0609998Y-0547029*
X-0584885Y-0543722*
X-0561484Y-0534029*
X-0541388Y-0518609*
X-0525967Y-0498513*
X-0516275Y-0475112*
X-0512968Y-0449999*
X-0516275Y-0424886*
X-0525967Y-0401482*
X-0541388Y-0381388*
X-0561484Y-0365968*
X-0584885Y-0356275*
X-0609998Y-0352968*
G37*
G36*
X-1949998D02*
X-1975111Y-0356275D01*
X-1998512Y-0365968*
X-2018609Y-0381388*
X-2034029Y-0401482*
X-2043722Y-0424886*
X-2047029Y-0449999*
X-2043722Y-0475112*
X-2034029Y-0498513*
X-2018609Y-0518609*
X-1998512Y-0534029*
X-1975111Y-0543722*
X-1949998Y-0547029*
X-1924885Y-0543722*
X-1901484Y-0534029*
X-1881388Y-0518609*
X-1865967Y-0498513*
X-1856275Y-0475112*
X-1852968Y-0449999*
X-1856275Y-0424886*
X-1865967Y-0401482*
X-1881388Y-0381388*
X-1901484Y-0365968*
X-1924885Y-0356275*
X-1949998Y-0352968*
G37*
G36*
X-0574997Y-0573948D02*
X-0587298D01*
Y-0637298*
X-0500618*
X-050154Y-0630313*
X-0509137Y-0611974*
X-0521223Y-0596221*
X-0536973Y-0584136*
X-0555315Y-0576539*
X-0574997Y-0573948*
G37*
G36*
X-0612698D02*
X-0624997D01*
X-0644682Y-0576539*
X-0663023Y-0584136*
X-0678774Y-0596221*
X-0690859Y-0611974*
X-0698456Y-0630313*
X-0699378Y-0637298*
X-0612698*
Y-0573948*
G37*
G36*
X-1824997D02*
X-1837298D01*
Y-0637298*
X-1750618*
X-175154Y-0630313*
X-1759137Y-0611974*
X-1771223Y-0596221*
X-1786973Y-0584136*
X-1805315Y-0576539*
X-1824997Y-0573948*
G37*
G36*
X-1862698D02*
X-1874997D01*
X-1894682Y-0576539*
X-1913023Y-0584136*
X-1928774Y-0596221*
X-1940859Y-0611974*
X-1948456Y-0630313*
X-1949378Y-0637298*
X-1862698*
Y-0573948*
G37*
G36*
X-3474999D02*
X-3487298D01*
Y-0637298*
X-340062*
X-340154Y-0630313*
X-3409137Y-0611974*
X-3421222Y-0596221*
X-3436973Y-0584136*
X-3455316Y-0576539*
X-3474999Y-0573948*
G37*
G36*
X-3512698D02*
X-3524999D01*
X-3544681Y-0576539*
X-3563023Y-0584136*
X-3578773Y-0596221*
X-3590861Y-0611974*
X-3598458Y-0630313*
X-3599378Y-0637298*
X-3512698*
Y-0573948*
G37*
G36*
X-4324997D02*
X-4337298D01*
Y-0637298*
X-4250618*
X-425154Y-0630313*
X-4259135Y-0611974*
X-4271223Y-0596221*
X-4286973Y-0584136*
X-4305315Y-0576539*
X-4324997Y-0573948*
G37*
G36*
X-4362698D02*
X-4374997D01*
X-4394682Y-0576539*
X-4413023Y-0584136*
X-4428774Y-0596221*
X-4440859Y-0611974*
X-4448456Y-0630313*
X-4449378Y-0637298*
X-4362698*
Y-0573948*
G37*
G36*
X-0500618Y-0662698D02*
X-0587298D01*
Y-0726048*
X-0574997*
X-0555315Y-0723458*
X-0536973Y-071586*
X-0521223Y-0703775*
X-0509137Y-0688022*
X-050154Y-0669681*
X-0500618Y-0662698*
G37*
G36*
X-0612698D02*
X-0699378D01*
X-0698456Y-0669681*
X-0690859Y-0688022*
X-0678774Y-0703775*
X-0663023Y-071586*
X-0644682Y-0723458*
X-0624997Y-0726048*
X-0612698*
Y-0662698*
G37*
G36*
X-1750618D02*
X-1837298D01*
Y-0726048*
X-1824997*
X-1805315Y-0723458*
X-1786973Y-071586*
X-1771223Y-0703775*
X-1759137Y-0688022*
X-175154Y-0669681*
X-1750618Y-0662698*
G37*
G36*
X-1862698D02*
X-1949378D01*
X-1948456Y-0669681*
X-1940859Y-0688022*
X-1928774Y-0703775*
X-1913023Y-071586*
X-1894682Y-0723458*
X-1874997Y-0726048*
X-1862698*
Y-0662698*
G37*
G36*
X-340062D02*
X-3487298D01*
Y-0726048*
X-3474999*
X-3455316Y-0723458*
X-3436973Y-071586*
X-3421222Y-0703775*
X-3409137Y-0688022*
X-340154Y-0669681*
X-340062Y-0662698*
G37*
G36*
X-3512698D02*
X-3599378D01*
X-3598458Y-0669681*
X-3590861Y-0688022*
X-3578773Y-0703775*
X-3563023Y-071586*
X-3544681Y-0723458*
X-3524999Y-0726048*
X-3512698*
Y-0662698*
G37*
G36*
X-4250618D02*
X-4337298D01*
Y-0726048*
X-4324997*
X-4305315Y-0723458*
X-4286973Y-071586*
X-4271223Y-0703775*
X-4259135Y-0688022*
X-425154Y-0669681*
X-4250618Y-0662698*
G37*
%LNmicamp_copper_signal_bot-3*%
%LPD*%
G54D20*
X-0609998Y0449999D02*
X-0599998D01*
X-0764898D02*
X-0609998D01*
X-1546199Y-0331299D02*
X-0764898Y0449999D01*
G54D23*
X-4349998Y0649998D03*
Y-0649998D03*
X-3499998D03*
X-2599999Y0649998D03*
X-1849998Y-0649998D03*
X-1374998Y0649998D03*
X-0599998Y-0649998D03*
G54D24*
X-1949998Y-0449999D03*
Y-0199999D03*
X-3274999Y-0124998D03*
Y0124998D03*
X-1949998Y0199999D03*
Y0449999D03*
X-0609998Y-0199999D03*
Y-0449999D03*
Y0449999D03*
Y0199999D03*
X-0549998Y0D03*
G54D25*
X0Y-0405998D03*
Y0405998D03*
G54D26*
X-1546199Y-0331299D03*
X-2738993Y-0469999D03*
X-4399998Y-0444997D03*
G54D27*
X-5034998Y0D03*
M02*