%FSTAX25Y25*%
%MOMM*%
%SFA1B1*%

%IPPOS*%
%ADD29C,0.200000*%
%ADD30C,0.253999*%
%ADD31C,0.250000*%
%ADD32R,1.549997X0.549999*%
%LNmicamp_legend_top-1*%
%LPD*%
G54D29*
X-1602498Y0132499D02*
Y0302498D01*
X-1447497Y0132499D02*
Y0302498D01*
X-1602498Y0132499D02*
X-1447497D01*
X-2382499Y03175D02*
Y0407499D01*
X-2517498Y03175D02*
Y0407499D01*
X-2382499*
X-2517498Y03175D02*
X-2382499D01*
X-2804998Y-0219999D02*
X-2704998D01*
Y-0299999D02*
Y-0219999D01*
X-2804998Y-0519998D02*
X-2704998D01*
Y-0439999*
X-3669997Y0407499D02*
X-3579997D01*
X-3669997Y0542498D02*
X-3579997D01*
Y0407499D02*
Y0542498D01*
X-3669997Y0407499D02*
Y0542498D01*
X-3342497Y-0514997D02*
Y-0424997D01*
X-3207499Y-0514997D02*
Y-0424997D01*
X-3342497Y-0514997D02*
X-3207499D01*
X-3342497Y-0424997D02*
X-3207499D01*
X-3342497Y0404997D02*
Y0494997D01*
X-3207499Y0404997D02*
Y0494997D01*
X-3342497Y0404997D02*
X-3207499D01*
X-3342497Y0494997D02*
X-3207499D01*
X-3669997Y-0377499D02*
X-3579997D01*
X-3669997Y-0512498D02*
X-3579997D01*
X-3669997D02*
Y-0377499D01*
X-3579997Y-0512498D02*
Y-0377499D01*
X-4144998Y-0512498D02*
X-4054998D01*
X-4144998Y-0377499D02*
X-4054998D01*
Y-0512498D02*
Y-0377499D01*
X-4144998Y-0512498D02*
Y-0377499D01*
X-3409998Y-0044998D02*
Y0044998D01*
X-3544999Y-0044998D02*
Y0044998D01*
X-3409998*
X-3544999Y-0044998D02*
X-3409998D01*
X-3979999Y0149999D02*
X-3879999D01*
Y0069999D02*
Y0149999D01*
X-3979999Y-0149999D02*
X-3879999D01*
Y-0069999*
X-4144998Y0407499D02*
X-4054998D01*
X-4144998Y0542498D02*
X-4054998D01*
Y0407499D02*
Y0542498D01*
X-4144998Y0407499D02*
Y0542498D01*
X-2382499Y-0414997D02*
Y-0324998D01*
X-2517498Y-0414997D02*
Y-0324998D01*
X-2382499*
X-2517498Y-0414997D02*
X-2382499D01*
X-2369997Y-0067497D02*
X-2279997D01*
X-2369997Y0067497D02*
X-2279997D01*
Y-0067497D02*
Y0067497D01*
X-2369997Y-0067497D02*
Y0067497D01*
X-2804998Y0512498D02*
X-2704998D01*
Y0432498D02*
Y0512498D01*
X-2804998Y0212498D02*
X-2704998D01*
Y0292498*
X-2804998Y0157497D02*
X-2704998D01*
Y0077497D02*
Y0157497D01*
X-2804998Y-0142499D02*
X-2704998D01*
Y-0062499*
X-4202498Y-0049999D02*
Y0049999D01*
X-4447499Y-0049999D02*
Y0049999D01*
X-1107498Y-0444997D02*
Y-0354998D01*
X-1242499Y-0444997D02*
Y-0354998D01*
X-1107498*
X-1242499Y-0444997D02*
X-1107498D01*
X-1242499Y0404997D02*
Y0494997D01*
X-1107498Y0404997D02*
Y0494997D01*
X-1242499Y0404997D02*
X-1107498D01*
X-1242499Y0494997D02*
X-1107498D01*
X-1042499Y0279999D02*
Y0369999D01*
X-0907498Y0279999D02*
Y0369999D01*
X-1042499Y0279999D02*
X-0907498D01*
X-1042499Y0369999D02*
X-0907498D01*
X-1042499Y-0369999D02*
Y-0279999D01*
X-0907498Y-0369999D02*
Y-0279999D01*
X-1042499Y-0369999D02*
X-0907498D01*
X-1042499Y-0279999D02*
X-0907498D01*
G54D30*
X-1594959Y-0199999D02*
X-1474998D01*
Y-0140017*
X-1494993Y-0120025*
X-1574967*
X-1594959Y-0140017*
Y-0199999*
X-1474998Y-0080037D02*
Y-004005D01*
Y-0060043*
X-1594959*
X-1574967Y-0080037*
X-3624999Y-0147497D02*
X-374496D01*
Y-0087518*
X-3724965Y-0067525*
X-3684978*
X-3664986Y-0087518*
Y-0147497*
Y-010751D02*
X-3624999Y-0067525D01*
Y-0027538D02*
Y0012446D01*
Y-0007543*
X-374496*
X-3724965Y-0027538*
X-3624999Y0132407D02*
X-374496D01*
X-3684978Y0072428*
Y0152402*
X-3049998Y-0624997D02*
X-316996D01*
Y-0565017*
X-3149965Y-0545025*
X-3109978*
X-3089986Y-0565017*
Y-0624997*
Y-0585012D02*
X-3049998Y-0545025D01*
Y-0505038D02*
Y-0465051D01*
Y-0485043*
X-316996*
X-3149965Y-0505038*
Y-0405069D02*
X-316996Y-0385076D01*
Y-0345089*
X-3149965Y-0325094*
X-3129973*
X-3109978Y-0345089*
Y-0365081*
Y-0345089*
X-3089986Y-0325094*
X-3069993*
X-3049998Y-0345089*
Y-0385076*
X-3069993Y-0405069*
X-3049998Y0299999D02*
X-316996D01*
Y0359978*
X-3149965Y0379973*
X-3109978*
X-3089986Y0359978*
Y0299999*
Y0339986D02*
X-3049998Y0379973D01*
Y0419958D02*
Y0459945D01*
Y0439953*
X-316996*
X-3149965Y0419958*
X-3049998Y0599902D02*
Y0519927D01*
X-3129973Y0599902*
X-3149965*
X-316996Y0579907*
Y053992*
X-3149965Y0519927*
X-4224997Y-0674999D02*
Y-0555038D01*
X-4165018*
X-4145026Y-057503*
Y-0615017*
X-4165018Y-0635012*
X-4224997*
X-418501D02*
X-4145026Y-0674999D01*
X-4105038D02*
X-4065051D01*
X-4085043*
Y-0555038*
X-4105038Y-057503*
X-4005069Y-0674999D02*
X-3965082D01*
X-3985074*
Y-0555038*
X-4005069Y-057503*
X-3774998Y0597499D02*
Y0717458D01*
X-3715016*
X-3695024Y0697466*
Y0657479*
X-3715016Y0637486*
X-3774998*
X-3735011D02*
X-3695024Y0597499D01*
X-3655037D02*
X-3615049D01*
X-3635044*
Y0717458*
X-3655037Y0697466*
X-355507D02*
X-3535075Y0717458D01*
X-349509*
X-3475095Y0697466*
Y0617491*
X-349509Y0597499*
X-3535075*
X-355507Y0617491*
Y0697466*
X-0749998Y-0424997D02*
X-086996D01*
Y-0365018*
X-0849967Y-0345025*
X-080998*
X-0789985Y-0365018*
Y-0424997*
Y-038501D02*
X-0749998Y-0345025D01*
X-0769993Y-0305038D02*
X-0749998Y-0285043D01*
Y-0245056*
X-0769993Y-0225064*
X-0849967*
X-086996Y-0245056*
Y-0285043*
X-0849967Y-0305038*
X-0829972*
X-080998Y-0285043*
Y-0225064*
X-0749998Y0224998D02*
X-086996D01*
Y028498*
X-0849967Y0304972*
X-080998*
X-0789985Y028498*
Y0224998*
Y0264985D02*
X-0749998Y0304972D01*
X-0849967Y0344959D02*
X-086996Y0364954D01*
Y0404939*
X-0849967Y0424934*
X-0829972*
X-080998Y0404939*
X-0789985Y0424934*
X-0769993*
X-0749998Y0404939*
Y0364954*
X-0769993Y0344959*
X-0789985*
X-080998Y0364954*
X-0829972Y0344959*
X-0849967*
X-080998Y0364954D02*
Y0404939D01*
X-3824998Y-0674999D02*
Y-0555038D01*
X-3765016*
X-3745024Y-057503*
Y-0615017*
X-3765016Y-0635012*
X-3824998*
X-3785011D02*
X-3745024Y-0674999D01*
X-3705037Y-0555038D02*
X-3625062D01*
Y-057503*
X-3705037Y-0655005*
Y-0674999*
X-2224999Y0274998D02*
X-2344958D01*
Y033498*
X-2324966Y0354972*
X-2284978*
X-2264986Y033498*
Y0274998*
Y0314985D02*
X-2224999Y0354972D01*
X-2344958Y0474934D02*
X-2324966Y0434947D01*
X-2284978Y0394959*
X-2244991*
X-2224999Y0414954*
Y0454941*
X-2244991Y0474934*
X-2264986*
X-2284978Y0454941*
Y0394959*
X-1274998Y0354998D02*
X-139496D01*
Y0414977*
X-1374965Y0434972*
X-133498*
X-1314985Y0414977*
Y0354998*
Y0394985D02*
X-1274998Y0434972D01*
X-139496Y0554934D02*
Y0474959D01*
X-133498*
X-1354973Y0514946*
Y0534941*
X-133498Y0554934*
X-1294993*
X-1274998Y0534941*
Y0494954*
X-1294993Y0474959*
X-1299999Y-0524997D02*
X-1419959D01*
Y-0465018*
X-1399966Y-0445025*
X-1359979*
X-1339984Y-0465018*
Y-0524997*
Y-0485013D02*
X-1299999Y-0445025D01*
Y-0345056D02*
X-1419959D01*
X-1359979Y-0405038*
Y-0325064*
X-4199999Y0597499D02*
Y0717458D01*
X-4140017*
X-4120024Y0697466*
Y0657479*
X-4140017Y0637486*
X-4199999*
X-4160012D02*
X-4120024Y0597499D01*
X-4080037Y0697466D02*
X-4060042Y0717458D01*
X-4020058*
X-4000063Y0697466*
Y0677473*
X-4020058Y0657479*
X-404005*
X-4020058*
X-4000063Y0637486*
Y0617491*
X-4020058Y0597499*
X-4060042*
X-4080037Y0617491*
X-2224999Y-0469999D02*
X-2344958D01*
Y-0410019*
X-2324966Y-0390024*
X-2284978*
X-2264986Y-0410019*
Y-0469999*
Y-0430011D02*
X-2224999Y-0390024D01*
Y-0270062D02*
Y-0350037D01*
X-2304973Y-0270062*
X-2324966*
X-2344958Y-0290057*
Y-0330045*
X-2324966Y-0350037*
X-2074999Y-0049999D02*
Y0069959D01*
X-2015017*
X-1995025Y0049966*
Y0009979*
X-2015017Y-0010012*
X-2074999*
X-2035012D02*
X-1995025Y-0049999D01*
X-1955038D02*
X-191505D01*
X-1935043*
Y0069959*
X-1955038Y0049966*
X-2795023Y-0655005D02*
Y-057503D01*
X-2815018Y-0555038*
X-2855005*
X-2874998Y-057503*
Y-0655005*
X-2855005Y-0674999*
X-2815018*
X-283501Y-0635012D02*
X-2795023Y-0674999D01*
X-2815018D02*
X-2795023Y-0655005D01*
X-2695056Y-0674999D02*
Y-0555038D01*
X-2755038Y-0615017*
X-2675064*
X-3920025Y0219991D02*
Y0299966D01*
X-3940017Y0319958*
X-3980004*
X-3999999Y0299966*
Y0219991*
X-3980004Y0199999*
X-3940017*
X-3960012Y0239986D02*
X-3920025Y0199999D01*
X-3940017D02*
X-3920025Y0219991D01*
X-3880037Y0299966D02*
X-3860043Y0319958D01*
X-3820055*
X-3800063Y0299966*
Y0279971*
X-3820055Y0259979*
X-384005*
X-3820055*
X-3800063Y0239986*
Y0219991*
X-3820055Y0199999*
X-3860043*
X-3880037Y0219991*
X-3019993Y-0007523D02*
X-3099965D01*
X-311996Y-0027518*
Y-0067505*
X-3099965Y-0087497*
X-3019993*
X-2999999Y-0067505*
Y-0027518*
X-3039986Y-004751D02*
X-2999999Y-0007523D01*
Y-0027518D02*
X-3019993Y-0007523D01*
X-2999999Y0112433D02*
Y0032458D01*
X-3079973Y0112433*
X-3099965*
X-311996Y009244*
Y0052453*
X-3099965Y0032458*
X-2770024Y0607491D02*
Y0687466D01*
X-2790019Y0707458*
X-2830004*
X-2849999Y0687466*
Y0607491*
X-2830004Y0587499*
X-2790019*
X-2810012Y0627486D02*
X-2770024Y0587499D01*
X-2790019D02*
X-2770024Y0607491D01*
X-2730037Y0587499D02*
X-269005D01*
X-2710042*
Y0707458*
X-2730037Y0687466*
X-1374965Y-0045024D02*
X-139496Y-0065018D01*
Y-0105003*
X-1374965Y-0124998*
X-1294993*
X-1274998Y-0105003*
Y-0065018*
X-1294993Y-0045024*
X-1274998Y-0005036D02*
Y0034947D01*
Y0014952*
X-139496*
X-1374965Y-0005036*
Y0094927D02*
X-139496Y0114922D01*
Y0154909*
X-1374965Y0174901*
X-1354973*
X-133498Y0154909*
Y0134914*
Y0154909*
X-1314985Y0174901*
X-1294993*
X-1274998Y0154909*
Y0114922*
X-1294993Y0094927*
X-4345025Y0349966D02*
X-4365017Y0369958D01*
X-4405005*
X-4424997Y0349966*
Y0269991*
X-4405005Y0249999*
X-4365017*
X-4345025Y0269991*
X-4305038Y0349966D02*
X-4285043Y0369958D01*
X-4245056*
X-4225063Y0349966*
Y0329973*
X-4245056Y0309979*
X-4265051*
X-4245056*
X-4225063Y0289986*
Y0269991*
X-4245056Y0249999*
X-4285043*
X-4305038Y0269991*
X-1774967Y-0007523D02*
X-1794959Y-0027518D01*
Y-0067505*
X-1774967Y-0087497*
X-1694992*
X-1674997Y-0067505*
Y-0027518*
X-1694992Y-0007523*
X-1674997Y0112433D02*
Y0032458D01*
X-1754972Y0112433*
X-1774967*
X-1794959Y009244*
Y0052453*
X-1774967Y0032458*
G54D31*
X-2882498Y-0189999D02*
D01*
X-2882529Y-0189125*
X-288262Y-0188259*
X-2882773Y-0187398*
X-2882983Y-0186552*
X-2883253Y-0185722*
X-2883578Y-0184914*
X-2883961Y-0184129*
X-2884398Y-0183375*
X-2884886Y-0182651*
X-2885422Y-0181963*
X-2886006Y-0181315*
X-2886633Y-0180708*
X-2887301Y-0180149*
X-2888007Y-0179636*
X-2888749Y-0179174*
X-2889519Y-0178762*
X-2890316Y-0178409*
X-2891137Y-0178109*
X-2891975Y-0177871*
X-2892828Y-0177688*
X-2893692Y-0177566*
X-2894563Y-0177505*
X-2895434*
X-2896306Y-0177566*
X-2897169Y-0177688*
X-2898023Y-0177871*
X-2898861Y-0178109*
X-2899681Y-0178409*
X-2900479Y-0178762*
X-2901248Y-0179174*
X-2901988Y-0179636*
X-2902694Y-0180149*
X-2903362Y-0180708*
X-2903989Y-0181315*
X-2904573Y-0181963*
X-2905112Y-0182651*
X-2905599Y-0183375*
X-2906034Y-0184129*
X-2906417Y-0184914*
X-2906745Y-0185722*
X-2907014Y-0186552*
X-2907225Y-0187398*
X-2907377Y-0188259*
X-2907469Y-0189125*
X-2907499Y-0189999*
X-2907469Y-019087*
X-2907377Y-0191739*
X-2907225Y-0192598*
X-2907014Y-0193443*
X-2906745Y-0194274*
X-2906417Y-0195082*
X-2906034Y-0195867*
X-2905599Y-0196623*
X-2905112Y-0197345*
X-2904573Y-0198033*
X-2903989Y-0198681*
X-2903362Y-0199288*
X-2902694Y-0199849*
X-2901988Y-0200362*
X-2901248Y-0200825*
X-2900479Y-0201234*
X-2899681Y-0201589*
X-2898861Y-0201886*
X-2898023Y-0202128*
X-2897169Y-0202308*
X-2896306Y-020243*
X-2895434Y-0202491*
X-2894563*
X-2893692Y-020243*
X-2892828Y-0202308*
X-2891975Y-0202128*
X-2891137Y-0201886*
X-2890316Y-0201589*
X-2889519Y-0201234*
X-2888749Y-0200825*
X-2888007Y-0200362*
X-2887301Y-0199849*
X-2886633Y-0199288*
X-2886006Y-0198681*
X-2885422Y-0198033*
X-2884886Y-0197345*
X-2884398Y-0196623*
X-2883961Y-0195867*
X-2883578Y-0195082*
X-2883253Y-0194274*
X-2882983Y-0193443*
X-2882773Y-0192598*
X-288262Y-0191739*
X-2882529Y-019087*
X-2882498Y-0189999*
X-4057497Y0179999D02*
D01*
X-4057528Y018087*
X-4057619Y0181739*
X-4057771Y0182598*
X-4057982Y0183443*
X-4058251Y0184274*
X-4058579Y0185082*
X-405896Y0185867*
X-4059397Y0186623*
X-4059885Y0187345*
X-4060423Y0188033*
X-4061007Y0188681*
X-4061635Y0189288*
X-4062303Y0189849*
X-4063009Y0190362*
X-4063748Y0190825*
X-4064518Y0191234*
X-4065315Y0191589*
X-4066136Y0191886*
X-4066974Y0192128*
X-4067827Y0192308*
X-4068691Y019243*
X-4069562Y0192491*
X-4070433*
X-4071305Y019243*
X-4072168Y0192308*
X-4073022Y0192128*
X-407386Y0191886*
X-407468Y0191589*
X-4075478Y0191234*
X-4076247Y0190825*
X-4076989Y0190362*
X-4077695Y0189849*
X-4078363Y0189288*
X-4078991Y0188681*
X-4079575Y0188033*
X-4080111Y0187345*
X-4080598Y0186623*
X-4081035Y0185867*
X-4081416Y0185082*
X-4081744Y0184274*
X-4082013Y0183443*
X-4082224Y0182598*
X-4082376Y0181739*
X-4082468Y018087*
X-4082498Y0179999*
X-4082468Y0179125*
X-4082376Y0178259*
X-4082224Y0177398*
X-4082013Y0176552*
X-4081744Y0175722*
X-4081416Y0174914*
X-4081035Y0174129*
X-4080598Y0173375*
X-4080111Y0172651*
X-4079575Y0171963*
X-4078991Y0171315*
X-4078363Y0170708*
X-4077695Y0170149*
X-4076989Y0169636*
X-4076247Y0169174*
X-4075478Y0168762*
X-407468Y0168409*
X-407386Y0168109*
X-4073022Y0167871*
X-4072168Y0167688*
X-4071305Y0167566*
X-4070433Y0167505*
X-4069562*
X-4068691Y0167566*
X-4067827Y0167688*
X-4066974Y0167871*
X-4066136Y0168109*
X-4065315Y0168409*
X-4064518Y0168762*
X-4063748Y0169174*
X-4063009Y0169636*
X-4062303Y0170149*
X-4061635Y0170708*
X-4061007Y0171315*
X-4060423Y0171963*
X-4059885Y0172651*
X-4059397Y0173375*
X-405896Y0174129*
X-4058579Y0174914*
X-4058251Y0175722*
X-4057982Y0176552*
X-4057771Y0177398*
X-4057619Y0178259*
X-4057528Y0179125*
X-4057497Y0179999*
X-2882498Y0542498D02*
D01*
X-2882529Y0543369*
X-288262Y0544238*
X-2882773Y0545096*
X-2882983Y0545945*
X-2883253Y0546773*
X-2883578Y0547583*
X-2883961Y0548368*
X-2884398Y0549122*
X-2884886Y0549846*
X-2885422Y0550534*
X-2886006Y0551182*
X-2886633Y0551787*
X-2887301Y0552348*
X-2888007Y0552861*
X-2888749Y0553323*
X-2889519Y0553732*
X-2890316Y0554088*
X-2891137Y0554388*
X-2891975Y0554626*
X-2892828Y0554809*
X-2893692Y0554929*
X-2894563Y055499*
X-2895434*
X-2896306Y0554929*
X-2897169Y0554809*
X-2898023Y0554626*
X-2898861Y0554388*
X-2899681Y0554088*
X-2900479Y0553732*
X-2901248Y0553323*
X-2901988Y0552861*
X-2902694Y0552348*
X-2903362Y0551787*
X-2903989Y0551182*
X-2904573Y0550534*
X-2905112Y0549846*
X-2905599Y0549122*
X-2906034Y0548368*
X-2906417Y0547583*
X-2906745Y0546773*
X-2907014Y0545945*
X-2907225Y0545096*
X-2907377Y0544238*
X-2907469Y0543369*
X-2907499Y0542498*
X-2907469Y0541627*
X-2907377Y0540758*
X-2907225Y0539899*
X-2907014Y0539054*
X-2906745Y0538223*
X-2906417Y0537415*
X-2906034Y053663*
X-2905599Y0535873*
X-2905112Y0535152*
X-2904573Y0534464*
X-2903989Y0533816*
X-2903362Y0533209*
X-2902694Y0532648*
X-2901988Y0532135*
X-2901248Y0531672*
X-2900479Y0531263*
X-2899681Y0530908*
X-2898861Y0530611*
X-2898023Y0530369*
X-2897169Y0530189*
X-2896306Y0530067*
X-2895434Y0530006*
X-2894563*
X-2893692Y0530067*
X-2892828Y0530189*
X-2891975Y0530369*
X-2891137Y0530611*
X-2890316Y0530908*
X-2889519Y0531263*
X-2888749Y0531672*
X-2888007Y0532135*
X-2887301Y0532648*
X-2886633Y0533209*
X-2886006Y0533816*
X-2885422Y0534464*
X-2884886Y0535152*
X-2884398Y0535873*
X-2883961Y053663*
X-2883578Y0537415*
X-2883253Y0538223*
X-2882983Y0539054*
X-2882773Y0539899*
X-288262Y0540758*
X-2882529Y0541627*
X-2882498Y0542498*
Y0187497D02*
D01*
X-2882529Y0188371*
X-288262Y0189237*
X-2882773Y0190098*
X-2882983Y0190944*
X-2883253Y0191775*
X-2883578Y0192582*
X-2883961Y0193367*
X-2884398Y0194122*
X-2884886Y0194845*
X-2885422Y0195534*
X-2886006Y0196181*
X-2886633Y0196789*
X-2887301Y0197347*
X-2888007Y019786*
X-2888749Y0198323*
X-2889519Y0198734*
X-2890316Y0199087*
X-2891137Y0199387*
X-2891975Y0199626*
X-2892828Y0199809*
X-2893692Y0199931*
X-2894563Y0199991*
X-2895434*
X-2896306Y0199931*
X-2897169Y0199809*
X-2898023Y0199626*
X-2898861Y0199387*
X-2899681Y0199087*
X-2900479Y0198734*
X-2901248Y0198323*
X-2901988Y019786*
X-2902694Y0197347*
X-2903362Y0196789*
X-2903989Y0196181*
X-2904573Y0195534*
X-2905112Y0194845*
X-2905599Y0194122*
X-2906034Y0193367*
X-2906417Y0192582*
X-2906745Y0191775*
X-2907014Y0190944*
X-2907225Y0190098*
X-2907377Y0189237*
X-2907469Y0188371*
X-2907499Y0187497*
X-2907469Y0186626*
X-2907377Y0185757*
X-2907225Y0184899*
X-2907014Y0184053*
X-2906745Y0183222*
X-2906417Y0182415*
X-2906034Y018163*
X-2905599Y0180875*
X-2905112Y0180152*
X-2904573Y0179463*
X-2903989Y0178816*
X-2903362Y0178208*
X-2902694Y0177647*
X-2901988Y0177134*
X-2901248Y0176672*
X-2900479Y0176263*
X-2899681Y0175907*
X-2898861Y017561*
X-2898023Y0175369*
X-2897169Y0175188*
X-2896306Y0175066*
X-2895434Y0175006*
X-2894563*
X-2893692Y0175066*
X-2892828Y0175188*
X-2891975Y0175369*
X-2891137Y017561*
X-2890316Y0175907*
X-2889519Y0176263*
X-2888749Y0176672*
X-2888007Y0177134*
X-2887301Y0177647*
X-2886633Y0178208*
X-2886006Y0178816*
X-2885422Y0179463*
X-2884886Y0180152*
X-2884398Y0180875*
X-2883961Y018163*
X-2883578Y0182415*
X-2883253Y0183222*
X-2882983Y0184053*
X-2882773Y0184899*
X-288262Y0185757*
X-2882529Y0186626*
X-2882498Y0187497*
G54D32*
X-1525Y0159997D03*
M02*