%FSTAX25Y25*%
%MOMM*%
%SFA1B1*%

%IPPOS*%
%ADD34C,0.100000*%
%ADD35C,0.050000*%
%LNmicamp_mechanical_15-1*%
%LPD*%
G54D34*
X-1524998Y0167497D02*
Y0267497D01*
X-1574998Y0217497D02*
X-1474998D01*
X-2449997Y0312498D02*
Y0412498D01*
X-2499997Y0362498D02*
X-2399997D01*
X-2824998Y-0369999D02*
X-2724998D01*
X-2774998Y-0419999D02*
Y-0319999D01*
X-3674999Y0474997D02*
X-3574999D01*
X-3624999Y0424997D02*
Y0524997D01*
X-3274999Y-0519998D02*
Y-0419999D01*
X-3324999Y-0469999D02*
X-3224999D01*
X-3274999Y0399999D02*
Y0499999D01*
X-3324999Y0449999D02*
X-3224999D01*
X-3674999Y-0444997D02*
X-3574999D01*
X-3624999Y-0494997D02*
Y-0394997D01*
X-4149999Y-0444997D02*
X-4049999D01*
X-4099999Y-0494997D02*
Y-0394997D01*
X-3477498Y-0049999D02*
Y0049999D01*
X-3527498Y0D02*
X-3427498D01*
X-3999999D02*
X-3899999D01*
X-3949999Y-0049999D02*
Y0049999D01*
X-4149999Y0474997D02*
X-4049999D01*
X-4099999Y0424997D02*
Y0524997D01*
X-2449997Y-0419999D02*
Y-0319999D01*
X-2499997Y-0369999D02*
X-2399997D01*
X-2374999Y0D02*
X-2274999D01*
X-2324999Y-0049999D02*
Y0049999D01*
X-2824998Y0362498D02*
X-2724998D01*
X-2774998Y0312498D02*
Y0412498D01*
X-2824998Y0007498D02*
X-2724998D01*
X-2774998Y-0042499D02*
Y0057497D01*
X-4374997Y0D02*
X-4274997D01*
X-4324997Y-0049999D02*
Y0049999D01*
X-1724997Y0252498D02*
Y0352498D01*
X-1774997Y0302498D02*
X-1674997D01*
X-1174998Y-0449999D02*
Y-0349999D01*
X-1224998Y-0399999D02*
X-1124999D01*
X-1174998Y0399999D02*
Y0499999D01*
X-1224998Y0449999D02*
X-1124999D01*
X-0974999Y0274998D02*
Y0374997D01*
X-1024999Y0324998D02*
X-0924999D01*
X-0974999Y-0374997D02*
Y-0274998D01*
X-1024999Y-0324998D02*
X-0924999D01*
X-1174998Y-0024998D02*
Y0074998D01*
X-1224998Y0024998D02*
X-1124999D01*
G54D35*
X-1637499Y-0032499D02*
X-1412499D01*
X-1637499Y0467499D02*
X-1412499D01*
X-1637499Y-0032499D02*
Y0467499D01*
X-1412499Y-0032499D02*
Y0467499D01*
X-2537498Y0582498D02*
X-2362499D01*
X-2537498Y0142499D02*
X-2362499D01*
Y0582498*
X-2537498Y0142499D02*
Y0582498D01*
X-2967499Y-0544997D02*
Y-0194998D01*
X-2582499Y-0544997D02*
Y-0194998D01*
X-2967499D02*
X-2582499D01*
X-2967499Y-0544997D02*
X-2582499D01*
X-3404999Y0387499D02*
Y0562498D01*
X-3844998Y0387499D02*
Y0562498D01*
Y0387499D02*
X-3404999D01*
X-3844998Y0562498D02*
X-3404999D01*
X-3362497Y-0689998D02*
X-3187499D01*
X-3362497Y-0249999D02*
X-3187499D01*
X-3362497Y-0689998D02*
Y-0249999D01*
X-3187499Y-0689998D02*
Y-0249999D01*
X-3362497Y0229999D02*
X-3187499D01*
X-3362497Y0669998D02*
X-3187499D01*
X-3362497Y0229999D02*
Y0669998D01*
X-3187499Y0229999D02*
Y0669998D01*
X-3844998Y-0532498D02*
Y-0357499D01*
X-3404999Y-0532498D02*
Y-0357499D01*
X-3844998D02*
X-3404999D01*
X-3844998Y-0532498D02*
X-3404999D01*
X-3879999D02*
Y-0357499D01*
X-4319998Y-0532498D02*
Y-0357499D01*
Y-0532498D02*
X-3879999D01*
X-4319998Y-0357499D02*
X-3879999D01*
X-3564999Y0219999D02*
X-3389998D01*
X-3564999Y-0219999D02*
X-3389998D01*
Y0219999*
X-3564999Y-0219999D02*
Y0219999D01*
X-4142498Y-0174998D02*
Y0174998D01*
X-3757498Y-0174998D02*
Y0174998D01*
X-4142498D02*
X-3757498D01*
X-4142498Y-0174998D02*
X-3757498D01*
X-3879999Y0387499D02*
Y0562498D01*
X-4319998Y0387499D02*
Y0562498D01*
Y0387499D02*
X-3879999D01*
X-4319998Y0562498D02*
X-3879999D01*
X-2537498Y-0149999D02*
X-2362499D01*
X-2537498Y-0589998D02*
X-2362499D01*
Y-0149999*
X-2537498Y-0589998D02*
Y-0149999D01*
X-2104999Y-0087497D02*
Y0087497D01*
X-2544998Y-0087497D02*
Y0087497D01*
Y-0087497D02*
X-2104999D01*
X-2544998Y0087497D02*
X-2104999D01*
X-2967499Y0187497D02*
Y0537499D01*
X-2582499Y0187497D02*
Y0537499D01*
X-2967499D02*
X-2582499D01*
X-2967499Y0187497D02*
X-2582499D01*
X-2967499Y-0167497D02*
Y0182499D01*
X-2582499Y-0167497D02*
Y0182499D01*
X-2967499D02*
X-2582499D01*
X-2967499Y-0167497D02*
X-2582499D01*
X-4164998Y-0229999D02*
Y0229999D01*
X-4484999Y-0229999D02*
Y0229999D01*
X-4164998*
X-4484999Y-0229999D02*
X-4164998D01*
X-1819998Y0132499D02*
X-1629999D01*
X-1819998Y0472498D02*
X-1629999D01*
X-1819998Y0132499D02*
Y0472498D01*
X-1629999Y0132499D02*
Y0472498D01*
X-1262499Y-0179999D02*
X-1087498D01*
X-1262499Y-0619998D02*
X-1087498D01*
Y-0179999*
X-1262499Y-0619998D02*
Y-0179999D01*
Y0229999D02*
X-1087498D01*
X-1262499Y0669998D02*
X-1087498D01*
X-1262499Y0229999D02*
Y0669998D01*
X-1087498Y0229999D02*
Y0669998D01*
X-1062499Y0104998D02*
X-0887498D01*
X-1062499Y0544997D02*
X-0887498D01*
X-1062499Y0104998D02*
Y0544997D01*
X-0887498Y0104998D02*
Y0544997D01*
X-1062499Y-0544997D02*
X-0887498D01*
X-1062499Y-0104998D02*
X-0887498D01*
X-1062499Y-0544997D02*
Y-0104998D01*
X-0887498Y-0544997D02*
Y-0104998D01*
X-127Y0194998D02*
X-1079997D01*
X-127Y-0144998D02*
X-1079997D01*
Y0194998*
X-127Y-0144998D02*
Y0194998D01*
M02*