%FSTAX25Y25*%
%MOMM*%
%SFA1B1*%

%IPPOS*%
%AMD16*
4,1,8,-1.000760,0.248920,-1.000760,-0.248920,-0.749300,-0.500380,0.749300,-0.500380,1.000760,-0.248920,1.000760,0.248920,0.749300,0.500380,-0.749300,0.500380,-1.000760,0.248920,0.0*
1,1,0.500000,-0.749300,0.248920*
1,1,0.500000,-0.749300,-0.248920*
1,1,0.500000,0.749300,-0.248920*
1,1,0.500000,0.749300,0.248920*
%
%ADD10R,1.749997X0.999998*%
%ADD11R,1.549997X1.299997*%
%ADD12R,0.999998X0.599999*%
%ADD13R,1.299997X1.549997*%
%ADD14R,2.649995X1.149998*%
%ADD15R,1.349997X1.199998*%
G04~CAMADD=16~8~0.0~0.0~393.7~787.4~98.4~0.0~15~0.0~0.0~0.0~0.0~0~0.0~0.0~0.0~0.0~0~0.0~0.0~0.0~90.0~788.0~394.0*
%ADD16D16*%
%ADD17C,0.999998*%
%LNmicamp_paste_top-1*%
%LPD*%
G54D10*
X-1524998Y0042499D03*
Y0392498D03*
G54D11*
X-2449997Y0509998D03*
Y0214998D03*
X-3274999Y-0617499D03*
Y-0322498D03*
Y0302498D03*
Y0597499D03*
X-3477498Y0147497D03*
Y-0147497D03*
X-2449997Y-0222498D03*
Y-0517499D03*
X-1174998Y-0252498D03*
Y-0547499D03*
Y0302498D03*
Y0597499D03*
X-0974999Y0177497D03*
Y0472498D03*
Y-0472498D03*
Y-0177497D03*
G54D12*
X-2894998Y-0274998D03*
Y-0464997D03*
X-2654998Y-0369999D03*
X-4069999Y0094998D03*
Y-0094998D03*
X-3829999Y0D03*
X-2894998Y0457499D03*
Y0267497D03*
X-2654998Y0362498D03*
X-2894998Y0102499D03*
Y-0087497D03*
X-2654998Y0007498D03*
G54D13*
X-3477498Y0474997D03*
X-3772499D03*
Y-0444997D03*
X-3477498D03*
X-3952499D03*
X-4247499D03*
X-3952499Y0474997D03*
X-4247499D03*
X-2177498Y0D03*
X-2472499D03*
G54D14*
X-4324997Y0147497D03*
Y-0147497D03*
G54D15*
X-1724997Y0217497D03*
Y0387499D03*
X-1174998Y0109999D03*
Y-0059999D03*
G54D16*
X-5034998Y-0079999D03*
Y0079999D03*
G54D17*
X-1599999Y0599998D03*
Y-0599998D03*
M02*