%TF.GenerationSoftware,Altium Limited,Altium Designer,18.1.7 (191)*%
G04 Layer_Color=2752767*
%FSLAX45Y45*%
%MOMM*%
%TF.FileFunction,Drawing*%
%TF.Part,Single*%
G01*
G75*
%TA.AperFunction,NonConductor*%
%ADD50C,0.12700*%
%ADD51C,0.16933*%
D50*
X-4400800Y599200D02*
Y700800D01*
X-4299200D01*
Y599200D01*
X-4400800D01*
Y-700800D02*
Y-599200D01*
X-4299200D01*
Y-700800D01*
X-4400800D01*
X-3550800D02*
Y-599200D01*
X-3449200D01*
Y-700800D01*
X-3550800D01*
X-2650800Y599200D02*
Y700800D01*
X-2549200D01*
Y599200D01*
X-2650800D01*
X-1900800Y-700800D02*
Y-599200D01*
X-1799200D01*
Y-700800D01*
X-1900800D01*
X-1425800Y599200D02*
Y700800D01*
X-1324200D01*
Y599200D01*
X-1425800D01*
X-650800Y-700800D02*
Y-599200D01*
X-549200D01*
Y-700800D01*
X-650800D01*
X0Y-456800D02*
X-50800Y-355200D01*
X50800D01*
X0Y-456800D01*
Y355200D02*
X-50800Y456800D01*
X50800D01*
X0Y355200D01*
X-550000Y-50800D02*
X-524600Y-25400D01*
X-499200D01*
X-524600Y-0D01*
X-499200Y25400D01*
X-524600D01*
X-550000Y50800D01*
X-575400Y25400D01*
X-600800D01*
X-575400Y-0D01*
X-600800Y-25400D01*
X-575400D01*
X-550000Y-50800D01*
X-4750800D02*
X-4725400Y-0D01*
X-4750800Y50800D01*
X-4700000Y25400D01*
X-4649200Y50800D01*
X-4674600Y-0D01*
X-4649200Y-50800D01*
X-4700000Y-25400D01*
X-4750800Y-50800D01*
X-1571600Y-356700D02*
Y-382100D01*
X-1520800D01*
Y-356700D01*
X-1495400D01*
Y-305900D01*
X-1520800D01*
Y-280500D01*
X-1571600D01*
Y-305900D01*
X-1597000D01*
Y-356700D01*
X-1571600D01*
X-2764395Y-495400D02*
Y-520800D01*
X-2713595D01*
Y-495400D01*
X-2688195D01*
Y-444600D01*
X-2713595D01*
Y-419200D01*
X-2764395D01*
Y-444600D01*
X-2789795D01*
Y-495400D01*
X-2764395D01*
X-4425400Y-470400D02*
Y-495800D01*
X-4374600D01*
Y-470400D01*
X-4349200D01*
Y-419600D01*
X-4374600D01*
Y-394200D01*
X-4425400D01*
Y-419600D01*
X-4450800D01*
Y-470400D01*
X-4425400D01*
D51*
X-1899200Y-450000D02*
G03*
X-1899200Y-450000I-50800J0D01*
G01*
Y-200000D02*
G03*
X-1899200Y-200000I-50800J0D01*
G01*
X-3224200Y-125000D02*
G03*
X-3224200Y-125000I-50800J0D01*
G01*
Y125000D02*
G03*
X-3224200Y125000I-50800J0D01*
G01*
X-1899200Y200000D02*
G03*
X-1899200Y200000I-50800J0D01*
G01*
Y450000D02*
G03*
X-1899200Y450000I-50800J0D01*
G01*
X-559200Y-200000D02*
G03*
X-559200Y-200000I-50800J0D01*
G01*
Y-450000D02*
G03*
X-559200Y-450000I-50800J0D01*
G01*
Y450000D02*
G03*
X-559200Y450000I-50800J0D01*
G01*
Y200000D02*
G03*
X-559200Y200000I-50800J0D01*
G01*
%TF.MD5,79bf9c917d33568fce9825581dbb219c*%
M02*
