%TF.GenerationSoftware,Altium Limited,Altium Designer,18.1.7 (191)*%
G04 Layer_Color=65535*
%FSLAX45Y45*%
%MOMM*%
%TF.FileFunction,Legend,Top*%
%TF.Part,Single*%
G01*
G75*
%TA.AperFunction,NonConductor*%
%ADD29C,0.20000*%
%ADD30C,0.25400*%
%ADD31C,0.25000*%
%ADD32R,1.55000X0.55000*%
D29*
X-1602500Y132500D02*
Y302500D01*
X-1447500Y132500D02*
Y302500D01*
X-1602500Y132500D02*
X-1447500D01*
X-2382500Y317500D02*
Y407500D01*
X-2517500Y317500D02*
Y407500D01*
X-2382500D01*
X-2517500Y317500D02*
X-2382500D01*
X-2805000Y-220000D02*
X-2705000D01*
Y-300000D02*
Y-220000D01*
X-2805000Y-520000D02*
X-2705000D01*
Y-440000D01*
X-3670000Y407500D02*
X-3580000D01*
X-3670000Y542500D02*
X-3580000D01*
Y407500D02*
Y542500D01*
X-3670000Y407500D02*
Y542500D01*
X-3342500Y-515000D02*
Y-425000D01*
X-3207500Y-515000D02*
Y-425000D01*
X-3342500Y-515000D02*
X-3207500D01*
X-3342500Y-425000D02*
X-3207500D01*
X-3342500Y405000D02*
Y495000D01*
X-3207500Y405000D02*
Y495000D01*
X-3342500Y405000D02*
X-3207500D01*
X-3342500Y495000D02*
X-3207500D01*
X-3670000Y-377500D02*
X-3580000D01*
X-3670000Y-512500D02*
X-3580000D01*
X-3670000D02*
Y-377500D01*
X-3580000Y-512500D02*
Y-377500D01*
X-4145000Y-512500D02*
X-4055000D01*
X-4145000Y-377500D02*
X-4055000D01*
Y-512500D02*
Y-377500D01*
X-4145000Y-512500D02*
Y-377500D01*
X-3410000Y-45000D02*
Y45000D01*
X-3545000Y-45000D02*
Y45000D01*
X-3410000D01*
X-3545000Y-45000D02*
X-3410000D01*
X-3980000Y150000D02*
X-3880000D01*
Y70000D02*
Y150000D01*
X-3980000Y-150000D02*
X-3880000D01*
Y-70000D01*
X-4145000Y407500D02*
X-4055000D01*
X-4145000Y542500D02*
X-4055000D01*
Y407500D02*
Y542500D01*
X-4145000Y407500D02*
Y542500D01*
X-2382500Y-415000D02*
Y-325000D01*
X-2517500Y-415000D02*
Y-325000D01*
X-2382500D01*
X-2517500Y-415000D02*
X-2382500D01*
X-2370000Y-67500D02*
X-2280000D01*
X-2370000Y67500D02*
X-2280000D01*
Y-67500D02*
Y67500D01*
X-2370000Y-67500D02*
Y67500D01*
X-2805000Y512500D02*
X-2705000D01*
Y432500D02*
Y512500D01*
X-2805000Y212500D02*
X-2705000D01*
Y292500D01*
X-2805000Y157500D02*
X-2705000D01*
Y77500D02*
Y157500D01*
X-2805000Y-142500D02*
X-2705000D01*
Y-62500D01*
X-4202500Y-50000D02*
Y50000D01*
X-4447500Y-50000D02*
Y50000D01*
X-1107500Y-445000D02*
Y-355000D01*
X-1242500Y-445000D02*
Y-355000D01*
X-1107500D01*
X-1242500Y-445000D02*
X-1107500D01*
X-1242500Y405000D02*
Y495000D01*
X-1107500Y405000D02*
Y495000D01*
X-1242500Y405000D02*
X-1107500D01*
X-1242500Y495000D02*
X-1107500D01*
X-1042500Y280000D02*
Y370000D01*
X-907500Y280000D02*
Y370000D01*
X-1042500Y280000D02*
X-907500D01*
X-1042500Y370000D02*
X-907500D01*
X-1042500Y-370000D02*
Y-280000D01*
X-907500Y-370000D02*
Y-280000D01*
X-1042500Y-370000D02*
X-907500D01*
X-1042500Y-280000D02*
X-907500D01*
D30*
X-1594961Y-200000D02*
X-1475000D01*
Y-140020D01*
X-1494994Y-120026D01*
X-1574968D01*
X-1594961Y-140020D01*
Y-200000D01*
X-1475000Y-80039D02*
Y-40052D01*
Y-60045D01*
X-1594961D01*
X-1574968Y-80039D01*
X-3625000Y-147500D02*
X-3744961D01*
Y-87520D01*
X-3724968Y-67526D01*
X-3684981D01*
X-3664987Y-87520D01*
Y-147500D01*
Y-107513D02*
X-3625000Y-67526D01*
Y-27539D02*
Y12448D01*
Y-7545D01*
X-3744961D01*
X-3724968Y-27539D01*
X-3625000Y132409D02*
X-3744961D01*
X-3684981Y72429D01*
Y152403D01*
X-3050000Y-625000D02*
X-3169961D01*
Y-565019D01*
X-3149968Y-545026D01*
X-3109981D01*
X-3089987Y-565019D01*
Y-625000D01*
Y-585013D02*
X-3050000Y-545026D01*
Y-505039D02*
Y-465052D01*
Y-485045D01*
X-3169961D01*
X-3149968Y-505039D01*
Y-405071D02*
X-3169961Y-385077D01*
Y-345090D01*
X-3149968Y-325097D01*
X-3129974D01*
X-3109981Y-345090D01*
Y-365084D01*
Y-345090D01*
X-3089987Y-325097D01*
X-3069994D01*
X-3050000Y-345090D01*
Y-385077D01*
X-3069994Y-405071D01*
X-3050000Y300000D02*
X-3169961D01*
Y359980D01*
X-3149968Y379974D01*
X-3109981D01*
X-3089987Y359980D01*
Y300000D01*
Y339987D02*
X-3050000Y379974D01*
Y419961D02*
Y459948D01*
Y439955D01*
X-3169961D01*
X-3149968Y419961D01*
X-3050000Y599903D02*
Y519929D01*
X-3129974Y599903D01*
X-3149968D01*
X-3169961Y579909D01*
Y539922D01*
X-3149968Y519929D01*
X-4225000Y-675000D02*
Y-555039D01*
X-4165019D01*
X-4145026Y-575032D01*
Y-615019D01*
X-4165019Y-635013D01*
X-4225000D01*
X-4185013D02*
X-4145026Y-675000D01*
X-4105039D02*
X-4065052D01*
X-4085045D01*
Y-555039D01*
X-4105039Y-575032D01*
X-4005071Y-675000D02*
X-3965084D01*
X-3985077D01*
Y-555039D01*
X-4005071Y-575032D01*
X-3775000Y597500D02*
Y717461D01*
X-3715019D01*
X-3695026Y697467D01*
Y657480D01*
X-3715019Y637487D01*
X-3775000D01*
X-3735013D02*
X-3695026Y597500D01*
X-3655039D02*
X-3615052D01*
X-3635045D01*
Y717461D01*
X-3655039Y697467D01*
X-3555071D02*
X-3535078Y717461D01*
X-3495091D01*
X-3475097Y697467D01*
Y617493D01*
X-3495091Y597500D01*
X-3535078D01*
X-3555071Y617493D01*
Y697467D01*
X-750000Y-425000D02*
X-869961D01*
Y-365019D01*
X-849968Y-345026D01*
X-809981D01*
X-789987Y-365019D01*
Y-425000D01*
Y-385013D02*
X-750000Y-345026D01*
X-769994Y-305039D02*
X-750000Y-285045D01*
Y-245058D01*
X-769994Y-225065D01*
X-849968D01*
X-869961Y-245058D01*
Y-285045D01*
X-849968Y-305039D01*
X-829974D01*
X-809981Y-285045D01*
Y-225065D01*
X-750000Y225000D02*
X-869961D01*
Y284981D01*
X-849968Y304974D01*
X-809981D01*
X-789987Y284981D01*
Y225000D01*
Y264987D02*
X-750000Y304974D01*
X-849968Y344961D02*
X-869961Y364955D01*
Y404942D01*
X-849968Y424935D01*
X-829974D01*
X-809981Y404942D01*
X-789987Y424935D01*
X-769994D01*
X-750000Y404942D01*
Y364955D01*
X-769994Y344961D01*
X-789987D01*
X-809981Y364955D01*
X-829974Y344961D01*
X-849968D01*
X-809981Y364955D02*
Y404942D01*
X-3825000Y-675000D02*
Y-555039D01*
X-3765019D01*
X-3745026Y-575032D01*
Y-615019D01*
X-3765019Y-635013D01*
X-3825000D01*
X-3785013D02*
X-3745026Y-675000D01*
X-3705039Y-555039D02*
X-3625065D01*
Y-575032D01*
X-3705039Y-655006D01*
Y-675000D01*
X-2225000Y275000D02*
X-2344961D01*
Y334981D01*
X-2324968Y354974D01*
X-2284981D01*
X-2264987Y334981D01*
Y275000D01*
Y314987D02*
X-2225000Y354974D01*
X-2344961Y474935D02*
X-2324968Y434948D01*
X-2284981Y394961D01*
X-2244994D01*
X-2225000Y414955D01*
Y454942D01*
X-2244994Y474935D01*
X-2264987D01*
X-2284981Y454942D01*
Y394961D01*
X-1275000Y355000D02*
X-1394961D01*
Y414980D01*
X-1374968Y434974D01*
X-1334981D01*
X-1314987Y414980D01*
Y355000D01*
Y394987D02*
X-1275000Y434974D01*
X-1394961Y554935D02*
Y474961D01*
X-1334981D01*
X-1354974Y514948D01*
Y534942D01*
X-1334981Y554935D01*
X-1294994D01*
X-1275000Y534942D01*
Y494955D01*
X-1294994Y474961D01*
X-1300000Y-525000D02*
X-1419961D01*
Y-465020D01*
X-1399968Y-445026D01*
X-1359981D01*
X-1339987Y-465020D01*
Y-525000D01*
Y-485013D02*
X-1300000Y-445026D01*
Y-345058D02*
X-1419961D01*
X-1359981Y-405039D01*
Y-325065D01*
X-4200000Y597500D02*
Y717461D01*
X-4140019D01*
X-4120026Y697467D01*
Y657480D01*
X-4140019Y637487D01*
X-4200000D01*
X-4160013D02*
X-4120026Y597500D01*
X-4080039Y697467D02*
X-4060045Y717461D01*
X-4020058D01*
X-4000065Y697467D01*
Y677474D01*
X-4020058Y657480D01*
X-4040052D01*
X-4020058D01*
X-4000065Y637487D01*
Y617493D01*
X-4020058Y597500D01*
X-4060045D01*
X-4080039Y617493D01*
X-2225000Y-470000D02*
X-2344961D01*
Y-410020D01*
X-2324968Y-390026D01*
X-2284981D01*
X-2264987Y-410020D01*
Y-470000D01*
Y-430013D02*
X-2225000Y-390026D01*
Y-270065D02*
Y-350039D01*
X-2304974Y-270065D01*
X-2324968D01*
X-2344961Y-290059D01*
Y-330046D01*
X-2324968Y-350039D01*
X-2075000Y-50000D02*
Y69961D01*
X-2015019D01*
X-1995026Y49968D01*
Y9981D01*
X-2015019Y-10013D01*
X-2075000D01*
X-2035013D02*
X-1995026Y-50000D01*
X-1955039D02*
X-1915052D01*
X-1935045D01*
Y69961D01*
X-1955039Y49968D01*
X-2795026Y-655006D02*
Y-575032D01*
X-2815020Y-555039D01*
X-2855006D01*
X-2875000Y-575032D01*
Y-655006D01*
X-2855006Y-675000D01*
X-2815020D01*
X-2835013Y-635013D02*
X-2795026Y-675000D01*
X-2815020D02*
X-2795026Y-655006D01*
X-2695058Y-675000D02*
Y-555039D01*
X-2755039Y-615019D01*
X-2675065D01*
X-3920026Y219994D02*
Y299968D01*
X-3940019Y319961D01*
X-3980006D01*
X-4000000Y299968D01*
Y219994D01*
X-3980006Y200000D01*
X-3940019D01*
X-3960013Y239987D02*
X-3920026Y200000D01*
X-3940019D02*
X-3920026Y219994D01*
X-3880039Y299968D02*
X-3860045Y319961D01*
X-3820058D01*
X-3800065Y299968D01*
Y279974D01*
X-3820058Y259981D01*
X-3840052D01*
X-3820058D01*
X-3800065Y239987D01*
Y219994D01*
X-3820058Y200000D01*
X-3860045D01*
X-3880039Y219994D01*
X-3019994Y-7526D02*
X-3099968D01*
X-3119961Y-27520D01*
Y-67507D01*
X-3099968Y-87500D01*
X-3019994D01*
X-3000000Y-67507D01*
Y-27520D01*
X-3039987Y-47513D02*
X-3000000Y-7526D01*
Y-27520D02*
X-3019994Y-7526D01*
X-3000000Y112435D02*
Y32461D01*
X-3079974Y112435D01*
X-3099968D01*
X-3119961Y92442D01*
Y52455D01*
X-3099968Y32461D01*
X-2770026Y607494D02*
Y687468D01*
X-2790020Y707461D01*
X-2830007D01*
X-2850000Y687468D01*
Y607494D01*
X-2830007Y587500D01*
X-2790020D01*
X-2810013Y627487D02*
X-2770026Y587500D01*
X-2790020D02*
X-2770026Y607494D01*
X-2730039Y587500D02*
X-2690052D01*
X-2710045D01*
Y707461D01*
X-2730039Y687468D01*
X-1374968Y-45026D02*
X-1394961Y-65019D01*
Y-105006D01*
X-1374968Y-125000D01*
X-1294994D01*
X-1275000Y-105006D01*
Y-65019D01*
X-1294994Y-45026D01*
X-1275000Y-5039D02*
Y34948D01*
Y14955D01*
X-1394961D01*
X-1374968Y-5039D01*
Y94929D02*
X-1394961Y114923D01*
Y154910D01*
X-1374968Y174903D01*
X-1354974D01*
X-1334981Y154910D01*
Y134916D01*
Y154910D01*
X-1314987Y174903D01*
X-1294994D01*
X-1275000Y154910D01*
Y114923D01*
X-1294994Y94929D01*
X-4345026Y349968D02*
X-4365019Y369961D01*
X-4405006D01*
X-4425000Y349968D01*
Y269994D01*
X-4405006Y250000D01*
X-4365019D01*
X-4345026Y269994D01*
X-4305039Y349968D02*
X-4285045Y369961D01*
X-4245058D01*
X-4225065Y349968D01*
Y329974D01*
X-4245058Y309981D01*
X-4265052D01*
X-4245058D01*
X-4225065Y289987D01*
Y269994D01*
X-4245058Y250000D01*
X-4285045D01*
X-4305039Y269994D01*
X-1774968Y-7526D02*
X-1794961Y-27520D01*
Y-67507D01*
X-1774968Y-87500D01*
X-1694994D01*
X-1675000Y-67507D01*
Y-27520D01*
X-1694994Y-7526D01*
X-1675000Y112435D02*
Y32461D01*
X-1754974Y112435D01*
X-1774968D01*
X-1794961Y92442D01*
Y52455D01*
X-1774968Y32461D01*
D31*
X-2882500Y-190000D02*
G03*
X-2882500Y-190000I-12500J0D01*
G01*
X-4057500Y180000D02*
G03*
X-4057500Y180000I-12500J0D01*
G01*
X-2882500Y542500D02*
G03*
X-2882500Y542500I-12500J0D01*
G01*
Y187500D02*
G03*
X-2882500Y187500I-12500J0D01*
G01*
D32*
X-1525001Y159999D02*
D03*
%TF.MD5,ad923fe1b12fa8eb13404374961a7ba7*%
M02*
