%TF.GenerationSoftware,Altium Limited,Altium Designer,18.1.7 (191)*%
G04 Layer_Color=32896*
%FSLAX45Y45*%
%MOMM*%
%TF.FileFunction,Legend,Bot*%
%TF.Part,Single*%
G01*
G75*
%TA.AperFunction,NonConductor*%
%ADD28C,1.00000*%
%ADD29C,0.20000*%
%ADD30C,0.25400*%
G36*
X-4112520Y501647D02*
X-4130613D01*
Y522294D01*
X-4112520D01*
Y501647D01*
D02*
G37*
G36*
X-3790475Y451201D02*
X-3733644Y375000D01*
X-3757057D01*
X-3794306Y426084D01*
X-3795158Y427362D01*
X-3796222Y428852D01*
X-3798563Y432257D01*
X-3799628Y433960D01*
X-3800479Y435237D01*
X-3801118Y436089D01*
X-3801330Y436301D01*
X-3803459Y433109D01*
X-3805375Y430129D01*
X-3806226Y429064D01*
X-3806652Y428213D01*
X-3807077Y427574D01*
X-3807290Y427362D01*
X-3844539Y375000D01*
X-3868592D01*
X-3813463Y452265D01*
X-3864548Y522294D01*
X-3843262D01*
X-3813889Y483129D01*
X-3811335Y479936D01*
X-3809206Y476956D01*
X-3807077Y473976D01*
X-3805375Y471635D01*
X-3803885Y469506D01*
X-3802820Y467803D01*
X-3802182Y466952D01*
X-3801969Y466526D01*
X-3800479Y469081D01*
X-3798776Y471848D01*
X-3796861Y474828D01*
X-3794945Y477808D01*
X-3793029Y480362D01*
X-3791752Y482490D01*
X-3791114Y483342D01*
X-3790688Y483980D01*
X-3790262Y484193D01*
Y484406D01*
X-3763443Y522294D01*
X-3740242D01*
X-3790475Y451201D01*
D02*
G37*
G36*
X-3405000Y375000D02*
X-3423731D01*
Y500370D01*
X-3466301Y375000D01*
X-3483755D01*
X-3526751Y498241D01*
Y375000D01*
X-3545482D01*
Y522294D01*
X-3519302D01*
X-3483968Y419699D01*
X-3482052Y414165D01*
X-3480563Y409482D01*
X-3479073Y405438D01*
X-3478008Y402032D01*
X-3477157Y399478D01*
X-3476518Y397562D01*
X-3476305Y396498D01*
X-3476093Y396072D01*
X-3475241Y399052D01*
X-3474177Y402458D01*
X-3472900Y406076D01*
X-3471836Y409695D01*
X-3470771Y412888D01*
X-3469920Y415442D01*
X-3469494Y416506D01*
X-3469281Y417145D01*
X-3469068Y417570D01*
Y417783D01*
X-3434161Y522294D01*
X-3405000D01*
Y375000D01*
D02*
G37*
G36*
X-3576559D02*
X-3595290D01*
Y500370D01*
X-3637860Y375000D01*
X-3655314D01*
X-3698310Y498241D01*
Y375000D01*
X-3717041D01*
Y522294D01*
X-3690860D01*
X-3655527Y419699D01*
X-3653611Y414165D01*
X-3652121Y409482D01*
X-3650631Y405438D01*
X-3649567Y402032D01*
X-3648716Y399478D01*
X-3648077Y397562D01*
X-3647864Y396498D01*
X-3647651Y396072D01*
X-3646800Y399052D01*
X-3645736Y402458D01*
X-3644459Y406076D01*
X-3643394Y409695D01*
X-3642330Y412888D01*
X-3641479Y415442D01*
X-3641053Y416506D01*
X-3640840Y417145D01*
X-3640627Y417570D01*
Y417783D01*
X-3605719Y522294D01*
X-3576559D01*
Y375000D01*
D02*
G37*
G36*
X-3942664D02*
X-3961395D01*
Y500370D01*
X-4003966Y375000D01*
X-4021419D01*
X-4064416Y498241D01*
Y375000D01*
X-4083147D01*
Y522294D01*
X-4056966D01*
X-4021632Y419699D01*
X-4019717Y414165D01*
X-4018227Y409482D01*
X-4016737Y405438D01*
X-4015672Y402032D01*
X-4014821Y399478D01*
X-4014182Y397562D01*
X-4013970Y396498D01*
X-4013757Y396072D01*
X-4012905Y399052D01*
X-4011841Y402458D01*
X-4010564Y406076D01*
X-4009500Y409695D01*
X-4008435Y412888D01*
X-4007584Y415442D01*
X-4007158Y416506D01*
X-4006946Y417145D01*
X-4006733Y417570D01*
Y417783D01*
X-3971825Y522294D01*
X-3942664D01*
Y375000D01*
D02*
G37*
G36*
X-4196384Y483980D02*
X-4191701Y483129D01*
X-4187231Y482064D01*
X-4183613Y481000D01*
X-4180420Y479723D01*
X-4179143Y479084D01*
X-4178079Y478659D01*
X-4177227Y478233D01*
X-4176589Y477807D01*
X-4176163Y477594D01*
X-4175950D01*
X-4171906Y475040D01*
X-4168287Y471847D01*
X-4165307Y468655D01*
X-4162753Y465462D01*
X-4160838Y462695D01*
X-4159560Y460353D01*
X-4159135Y459502D01*
X-4158709Y458863D01*
X-4158496Y458438D01*
Y458225D01*
X-4156580Y453116D01*
X-4155303Y448008D01*
X-4154239Y442900D01*
X-4153601Y438217D01*
X-4153388Y436088D01*
X-4153175Y434173D01*
Y432470D01*
X-4152962Y430980D01*
Y429703D01*
Y428851D01*
Y428213D01*
Y428000D01*
X-4153175Y423104D01*
X-4153601Y418634D01*
X-4154239Y414165D01*
X-4155090Y410333D01*
X-4155942Y406502D01*
X-4157219Y403309D01*
X-4158283Y400116D01*
X-4159560Y397349D01*
X-4160838Y395008D01*
X-4161902Y392879D01*
X-4163179Y390964D01*
X-4164030Y389474D01*
X-4164882Y388409D01*
X-4165520Y387558D01*
X-4165946Y387132D01*
X-4166159Y386919D01*
X-4168713Y384365D01*
X-4171480Y382237D01*
X-4174247Y380321D01*
X-4177227Y378618D01*
X-4180207Y377341D01*
X-4182974Y376064D01*
X-4188721Y374361D01*
X-4191275Y373935D01*
X-4193617Y373510D01*
X-4195745Y373084D01*
X-4197661Y372871D01*
X-4199151Y372658D01*
X-4201279D01*
X-4204472Y372871D01*
X-4207665Y373084D01*
X-4213199Y374361D01*
X-4218308Y375851D01*
X-4222565Y377767D01*
X-4224267Y378831D01*
X-4225970Y379683D01*
X-4227460Y380534D01*
X-4228524Y381385D01*
X-4229376Y382024D01*
X-4230014Y382450D01*
X-4230440Y382662D01*
X-4230653Y382875D01*
X-4232781Y385004D01*
X-4234697Y387132D01*
X-4238103Y391815D01*
X-4240870Y396711D01*
X-4242786Y401181D01*
X-4244275Y405438D01*
X-4244701Y407140D01*
X-4245127Y408843D01*
X-4245340Y410120D01*
X-4245553Y410972D01*
X-4245765Y411610D01*
Y411823D01*
X-4227886Y414165D01*
X-4227034Y409482D01*
X-4225757Y405225D01*
X-4224055Y401819D01*
X-4222565Y399052D01*
X-4221075Y396711D01*
X-4219798Y395221D01*
X-4219159Y394156D01*
X-4218733Y393944D01*
X-4215966Y391815D01*
X-4212986Y390325D01*
X-4210006Y389048D01*
X-4207239Y388409D01*
X-4204898Y387984D01*
X-4202769Y387771D01*
X-4201492Y387558D01*
X-4201067D01*
X-4198725Y387771D01*
X-4196384Y387984D01*
X-4192127Y389048D01*
X-4188508Y390538D01*
X-4185315Y392454D01*
X-4182974Y394156D01*
X-4181058Y395646D01*
X-4179994Y396711D01*
X-4179568Y397136D01*
X-4178079Y399052D01*
X-4176801Y401393D01*
X-4174886Y406076D01*
X-4173396Y411397D01*
X-4172544Y416506D01*
X-4171906Y421189D01*
X-4171693Y423104D01*
Y425020D01*
X-4171480Y426297D01*
Y427574D01*
Y428213D01*
Y428426D01*
Y432257D01*
X-4171906Y435875D01*
X-4172332Y439281D01*
X-4172757Y442261D01*
X-4173396Y445028D01*
X-4174247Y447582D01*
X-4174886Y449924D01*
X-4175737Y452052D01*
X-4176589Y453755D01*
X-4177227Y455245D01*
X-4178079Y456522D01*
X-4178717Y457586D01*
X-4179143Y458438D01*
X-4179568Y459076D01*
X-4179994Y459289D01*
Y459502D01*
X-4181697Y461205D01*
X-4183400Y462695D01*
X-4187018Y465249D01*
X-4190850Y466952D01*
X-4194255Y468016D01*
X-4197448Y468867D01*
X-4199789Y469080D01*
X-4200854Y469293D01*
X-4202131D01*
X-4205324Y469080D01*
X-4208303Y468442D01*
X-4210858Y467590D01*
X-4213199Y466526D01*
X-4214902Y465462D01*
X-4216392Y464610D01*
X-4217243Y463972D01*
X-4217456Y463759D01*
X-4219585Y461631D01*
X-4221500Y459076D01*
X-4223203Y456309D01*
X-4224267Y453755D01*
X-4225332Y451414D01*
X-4225970Y449498D01*
X-4226183Y448221D01*
X-4226396Y448008D01*
Y447795D01*
X-4244063Y450562D01*
X-4242573Y456309D01*
X-4240444Y461205D01*
X-4238103Y465462D01*
X-4235761Y468867D01*
X-4233420Y471635D01*
X-4231504Y473550D01*
X-4230227Y474827D01*
X-4230014Y475253D01*
X-4229802D01*
X-4225332Y478233D01*
X-4220649Y480361D01*
X-4215966Y482064D01*
X-4211496Y483129D01*
X-4207452Y483767D01*
X-4205749Y483980D01*
X-4204472D01*
X-4203195Y484193D01*
X-4201492D01*
X-4196384Y483980D01*
D02*
G37*
G36*
X-4112520Y375000D02*
X-4130613D01*
Y481852D01*
X-4112520D01*
Y375000D01*
D02*
G37*
G36*
X-3550061Y-398353D02*
X-3568153D01*
Y-377706D01*
X-3550061D01*
Y-398353D01*
D02*
G37*
G36*
X-3710338D02*
X-3728431D01*
Y-377706D01*
X-3710338D01*
Y-398353D01*
D02*
G37*
G36*
X-3751632Y-402397D02*
X-3756101Y-429855D01*
X-3767383D01*
X-3772278Y-402397D01*
Y-377706D01*
X-3751632D01*
Y-402397D01*
D02*
G37*
G36*
X-4184360Y-525000D02*
X-4201175D01*
Y-511591D01*
X-4203304Y-514358D01*
X-4205432Y-516699D01*
X-4207773Y-518828D01*
X-4210328Y-520743D01*
X-4212669Y-522233D01*
X-4215223Y-523510D01*
X-4217565Y-524575D01*
X-4219906Y-525426D01*
X-4224163Y-526490D01*
X-4226079Y-526916D01*
X-4227569Y-527129D01*
X-4228846D01*
X-4229910Y-527342D01*
X-4230761D01*
X-4234167Y-527129D01*
X-4237573Y-526703D01*
X-4240765Y-526064D01*
X-4243745Y-525000D01*
X-4249492Y-522659D01*
X-4251834Y-521169D01*
X-4254175Y-519892D01*
X-4256304Y-518402D01*
X-4258006Y-517125D01*
X-4259496Y-515848D01*
X-4260986Y-514783D01*
X-4262051Y-513719D01*
X-4262689Y-513081D01*
X-4263115Y-512655D01*
X-4263328Y-512442D01*
X-4265669Y-509462D01*
X-4267798Y-506269D01*
X-4269713Y-503076D01*
X-4271203Y-499458D01*
X-4272480Y-496052D01*
X-4273545Y-492434D01*
X-4275247Y-485623D01*
X-4275886Y-482430D01*
X-4276312Y-479450D01*
X-4276525Y-476896D01*
X-4276737Y-474554D01*
X-4276950Y-472639D01*
Y-471362D01*
Y-470297D01*
Y-470084D01*
X-4276737Y-465827D01*
X-4276525Y-461783D01*
X-4275886Y-458165D01*
X-4275247Y-454972D01*
X-4274609Y-452205D01*
X-4274183Y-450076D01*
X-4273970Y-449438D01*
X-4273758Y-448799D01*
X-4273545Y-448586D01*
Y-448374D01*
X-4272268Y-444755D01*
X-4270778Y-441349D01*
X-4269288Y-438369D01*
X-4267798Y-435815D01*
X-4266521Y-433900D01*
X-4265456Y-432410D01*
X-4264818Y-431345D01*
X-4264605Y-431132D01*
X-4262476Y-428578D01*
X-4259922Y-426237D01*
X-4257581Y-424321D01*
X-4255239Y-422831D01*
X-4253324Y-421554D01*
X-4251621Y-420490D01*
X-4250557Y-420064D01*
X-4250131Y-419851D01*
X-4246938Y-418574D01*
X-4243533Y-417510D01*
X-4240340Y-416871D01*
X-4237573Y-416233D01*
X-4235231Y-416020D01*
X-4233316Y-415807D01*
X-4231613D01*
X-4228420Y-416020D01*
X-4225227Y-416446D01*
X-4222247Y-417084D01*
X-4219480Y-418149D01*
X-4214585Y-420277D01*
X-4210328Y-423044D01*
X-4208625Y-424321D01*
X-4206922Y-425598D01*
X-4205645Y-426875D01*
X-4204581Y-427940D01*
X-4203516Y-429004D01*
X-4202878Y-429643D01*
X-4202665Y-430068D01*
X-4202452Y-430281D01*
Y-377707D01*
X-4184360D01*
Y-525000D01*
D02*
G37*
G36*
X-4110287Y-416020D02*
X-4105817Y-416445D01*
X-4101560Y-417084D01*
X-4098155Y-417723D01*
X-4095175Y-418361D01*
X-4093046Y-419000D01*
X-4092195Y-419213D01*
X-4091556Y-419425D01*
X-4091343Y-419638D01*
X-4091131D01*
X-4087512Y-421128D01*
X-4084319Y-423044D01*
X-4081552Y-424747D01*
X-4079211Y-426449D01*
X-4077508Y-428152D01*
X-4076231Y-429429D01*
X-4075379Y-430281D01*
X-4075167Y-430494D01*
X-4073251Y-433261D01*
X-4071548Y-436241D01*
X-4070271Y-439221D01*
X-4069207Y-441988D01*
X-4068355Y-444755D01*
X-4067717Y-446670D01*
X-4067504Y-447522D01*
Y-448160D01*
X-4067291Y-448373D01*
Y-448586D01*
X-4084958Y-450927D01*
X-4086235Y-447096D01*
X-4087512Y-443691D01*
X-4089002Y-440923D01*
X-4090279Y-438795D01*
X-4091556Y-437092D01*
X-4092620Y-436028D01*
X-4093472Y-435389D01*
X-4093685Y-435176D01*
X-4096239Y-433686D01*
X-4099219Y-432622D01*
X-4102412Y-431771D01*
X-4105392Y-431345D01*
X-4108372Y-430919D01*
X-4110500Y-430707D01*
X-4112629D01*
X-4117524Y-430919D01*
X-4121781Y-431558D01*
X-4125187Y-432622D01*
X-4128167Y-433687D01*
X-4130295Y-434964D01*
X-4131998Y-435815D01*
X-4133062Y-436667D01*
X-4133275Y-436879D01*
X-4134978Y-438795D01*
X-4136255Y-441137D01*
X-4137319Y-443691D01*
X-4137958Y-446245D01*
X-4138384Y-448586D01*
X-4138596Y-450715D01*
Y-451992D01*
Y-452205D01*
Y-452418D01*
Y-452843D01*
Y-453695D01*
Y-455185D01*
X-4138384Y-456462D01*
Y-456888D01*
Y-457100D01*
X-4136255Y-457739D01*
X-4133914Y-458378D01*
X-4129018Y-459655D01*
X-4123484Y-460719D01*
X-4118376Y-461783D01*
X-4115821Y-462209D01*
X-4113480Y-462421D01*
X-4111351Y-462847D01*
X-4109649Y-463060D01*
X-4108159Y-463273D01*
X-4107094D01*
X-4106243Y-463486D01*
X-4106030D01*
X-4102199Y-463911D01*
X-4099006Y-464550D01*
X-4096239Y-464976D01*
X-4094110Y-465401D01*
X-4092408Y-465614D01*
X-4091131Y-466040D01*
X-4090279Y-466253D01*
X-4090066D01*
X-4087299Y-467104D01*
X-4084958Y-467956D01*
X-4082616Y-469020D01*
X-4080701Y-469871D01*
X-4078998Y-470723D01*
X-4077934Y-471574D01*
X-4077082Y-472000D01*
X-4076869Y-472213D01*
X-4074741Y-473703D01*
X-4073038Y-475405D01*
X-4071335Y-477108D01*
X-4070058Y-478811D01*
X-4068994Y-480301D01*
X-4068142Y-481578D01*
X-4067717Y-482430D01*
X-4067504Y-482642D01*
X-4066440Y-484984D01*
X-4065588Y-487538D01*
X-4064950Y-489879D01*
X-4064524Y-492221D01*
X-4064311Y-494136D01*
X-4064098Y-495626D01*
Y-496478D01*
Y-496904D01*
X-4064311Y-499458D01*
X-4064524Y-501586D01*
X-4065588Y-506056D01*
X-4067078Y-509675D01*
X-4068781Y-512867D01*
X-4070484Y-515422D01*
X-4071974Y-517337D01*
X-4073038Y-518402D01*
X-4073464Y-518827D01*
X-4077295Y-521594D01*
X-4081552Y-523723D01*
X-4086235Y-525213D01*
X-4090492Y-526277D01*
X-4094323Y-526916D01*
X-4096026Y-527128D01*
X-4097516D01*
X-4098793Y-527341D01*
X-4100496D01*
X-4104327Y-527128D01*
X-4108159Y-526703D01*
X-4111564Y-526277D01*
X-4114544Y-525639D01*
X-4116886Y-525000D01*
X-4118801Y-524361D01*
X-4120078Y-524149D01*
X-4120504Y-523936D01*
X-4124123Y-522446D01*
X-4127528Y-520530D01*
X-4130721Y-518402D01*
X-4133914Y-516486D01*
X-4136468Y-514570D01*
X-4138384Y-513081D01*
X-4139661Y-512016D01*
X-4139874Y-511591D01*
X-4140086D01*
X-4140512Y-514358D01*
X-4140938Y-516912D01*
X-4141364Y-519253D01*
X-4142002Y-521169D01*
X-4142641Y-522872D01*
X-4143066Y-523936D01*
X-4143279Y-524787D01*
X-4143492Y-525000D01*
X-4162436D01*
X-4161372Y-522659D01*
X-4160307Y-520317D01*
X-4159456Y-518189D01*
X-4159030Y-516273D01*
X-4158392Y-514570D01*
X-4158179Y-513293D01*
X-4157966Y-512442D01*
Y-512229D01*
X-4157753Y-510739D01*
X-4157540Y-508823D01*
Y-506695D01*
X-4157327Y-504354D01*
X-4157115Y-499032D01*
Y-493711D01*
X-4156902Y-488603D01*
Y-486261D01*
Y-484345D01*
Y-482643D01*
Y-481366D01*
Y-480514D01*
Y-480301D01*
Y-456036D01*
Y-451992D01*
X-4156689Y-448374D01*
X-4156476Y-445606D01*
Y-443265D01*
X-4156263Y-441562D01*
X-4156050Y-440285D01*
X-4155838Y-439647D01*
Y-439434D01*
X-4155199Y-436667D01*
X-4154348Y-434325D01*
X-4153496Y-432410D01*
X-4152432Y-430494D01*
X-4151580Y-429217D01*
X-4150942Y-428153D01*
X-4150516Y-427514D01*
X-4150303Y-427301D01*
X-4148601Y-425598D01*
X-4146685Y-423896D01*
X-4144556Y-422618D01*
X-4142428Y-421341D01*
X-4140512Y-420490D01*
X-4139022Y-419851D01*
X-4137958Y-419426D01*
X-4137532Y-419213D01*
X-4134127Y-418149D01*
X-4130508Y-417297D01*
X-4126890Y-416659D01*
X-4123271Y-416233D01*
X-4120078Y-416020D01*
X-4117737Y-415807D01*
X-4115396D01*
X-4110287Y-416020D01*
D02*
G37*
G36*
X-3456832Y-525000D02*
X-3477265D01*
X-3534735Y-377706D01*
X-3514940D01*
X-3474924Y-484771D01*
X-3473221Y-489241D01*
X-3471731Y-493498D01*
X-3470454Y-497542D01*
X-3469390Y-501161D01*
X-3468326Y-504353D01*
X-3467687Y-506695D01*
X-3467474Y-507546D01*
X-3467261Y-508185D01*
X-3467048Y-508610D01*
Y-508823D01*
X-3464494Y-500309D01*
X-3463217Y-496265D01*
X-3461940Y-492646D01*
X-3460876Y-489454D01*
X-3460450Y-488177D01*
X-3460237Y-486899D01*
X-3459811Y-486048D01*
X-3459599Y-485409D01*
X-3459386Y-484984D01*
Y-484771D01*
X-3421072Y-377706D01*
X-3399787D01*
X-3456832Y-525000D01*
D02*
G37*
G36*
X-3550061D02*
X-3568153D01*
Y-418148D01*
X-3550061D01*
Y-525000D01*
D02*
G37*
G36*
X-3641800Y-416020D02*
X-3637969Y-416658D01*
X-3634563Y-417510D01*
X-3631157Y-418574D01*
X-3628177Y-419851D01*
X-3625410Y-421341D01*
X-3622856Y-423044D01*
X-3620728Y-424534D01*
X-3618599Y-426237D01*
X-3616896Y-427939D01*
X-3615406Y-429429D01*
X-3614129Y-430707D01*
X-3613278Y-431771D01*
X-3612639Y-432622D01*
X-3612214Y-433261D01*
X-3612001Y-433474D01*
Y-418148D01*
X-3595824D01*
Y-525000D01*
X-3613916D01*
Y-466891D01*
Y-463273D01*
X-3614342Y-459654D01*
X-3614768Y-456674D01*
X-3615193Y-453907D01*
X-3615832Y-451353D01*
X-3616471Y-449012D01*
X-3617322Y-446883D01*
X-3618173Y-445180D01*
X-3618812Y-443691D01*
X-3619663Y-442413D01*
X-3620302Y-441349D01*
X-3620940Y-440498D01*
X-3621792Y-439433D01*
X-3622218Y-439008D01*
X-3625410Y-436454D01*
X-3628816Y-434751D01*
X-3632222Y-433474D01*
X-3635202Y-432409D01*
X-3637969Y-431984D01*
X-3640097Y-431771D01*
X-3640949Y-431558D01*
X-3642013D01*
X-3644567Y-431771D01*
X-3647121Y-431984D01*
X-3649250Y-432622D01*
X-3650953Y-433261D01*
X-3652443Y-433899D01*
X-3653720Y-434325D01*
X-3654358Y-434751D01*
X-3654571Y-434964D01*
X-3656487Y-436241D01*
X-3658190Y-437731D01*
X-3659467Y-439221D01*
X-3660531Y-440498D01*
X-3661169Y-441775D01*
X-3661808Y-442839D01*
X-3662234Y-443478D01*
Y-443691D01*
X-3662872Y-446032D01*
X-3663511Y-448586D01*
X-3663937Y-451353D01*
X-3664149Y-454120D01*
X-3664362Y-456462D01*
Y-458377D01*
Y-459867D01*
Y-460080D01*
Y-460293D01*
Y-525000D01*
X-3682455D01*
Y-459442D01*
Y-454972D01*
X-3682242Y-451353D01*
X-3682029Y-448373D01*
Y-445819D01*
X-3681816Y-444116D01*
X-3681603Y-442839D01*
X-3681390Y-441988D01*
Y-441775D01*
X-3680752Y-439008D01*
X-3679688Y-436454D01*
X-3678836Y-434325D01*
X-3677985Y-432196D01*
X-3676921Y-430707D01*
X-3676282Y-429642D01*
X-3675856Y-428791D01*
X-3675643Y-428578D01*
X-3673941Y-426449D01*
X-3672025Y-424747D01*
X-3670109Y-423044D01*
X-3667981Y-421767D01*
X-3666278Y-420702D01*
X-3664788Y-420064D01*
X-3663937Y-419638D01*
X-3663511Y-419425D01*
X-3660531Y-418148D01*
X-3657338Y-417297D01*
X-3654358Y-416658D01*
X-3651591Y-416233D01*
X-3649250Y-416020D01*
X-3647547Y-415807D01*
X-3645844D01*
X-3641800Y-416020D01*
D02*
G37*
G36*
X-3710338Y-525000D02*
X-3728431D01*
Y-418148D01*
X-3710338D01*
Y-525000D01*
D02*
G37*
G36*
X-3957247D02*
X-4049412D01*
Y-507546D01*
X-3976829D01*
Y-377706D01*
X-3957247D01*
Y-525000D01*
D02*
G37*
G36*
X-3824427Y-416233D02*
X-3821873Y-416445D01*
X-3819531Y-416871D01*
X-3817616Y-417297D01*
X-3816126Y-417723D01*
X-3815274Y-417935D01*
X-3814849Y-418148D01*
X-3812294Y-419000D01*
X-3809953Y-419851D01*
X-3808037Y-420702D01*
X-3806335Y-421554D01*
X-3805057Y-422192D01*
X-3804206Y-422831D01*
X-3803567Y-423044D01*
X-3803355Y-423257D01*
X-3801226Y-424747D01*
X-3799523Y-426449D01*
X-3798033Y-428365D01*
X-3796756Y-429855D01*
X-3795692Y-431345D01*
X-3795053Y-432409D01*
X-3794628Y-433261D01*
X-3794415Y-433474D01*
X-3793351Y-435815D01*
X-3792499Y-437943D01*
X-3792073Y-440285D01*
X-3791648Y-442201D01*
X-3791435Y-444116D01*
X-3791222Y-445393D01*
Y-446245D01*
Y-446670D01*
X-3791435Y-449650D01*
X-3791861Y-452205D01*
X-3792499Y-454759D01*
X-3793138Y-456887D01*
X-3793776Y-458590D01*
X-3794415Y-460080D01*
X-3794841Y-460932D01*
X-3795053Y-461144D01*
X-3796756Y-463486D01*
X-3798672Y-465401D01*
X-3800588Y-467104D01*
X-3802503Y-468594D01*
X-3804206Y-469658D01*
X-3805483Y-470510D01*
X-3806335Y-470936D01*
X-3806760Y-471148D01*
X-3808250Y-471787D01*
X-3810166Y-472638D01*
X-3814423Y-474128D01*
X-3818893Y-475405D01*
X-3823576Y-476895D01*
X-3827620Y-477960D01*
X-3829535Y-478598D01*
X-3831238Y-479024D01*
X-3832515Y-479450D01*
X-3833580Y-479662D01*
X-3834218Y-479875D01*
X-3834431D01*
X-3837198Y-480514D01*
X-3839539Y-481152D01*
X-3841668Y-481791D01*
X-3843584Y-482430D01*
X-3845286Y-482855D01*
X-3846776Y-483494D01*
X-3849331Y-484345D01*
X-3851033Y-484984D01*
X-3852098Y-485622D01*
X-3852736Y-485835D01*
X-3852949Y-486048D01*
X-3854865Y-487325D01*
X-3856142Y-489028D01*
X-3857206Y-490518D01*
X-3857845Y-492008D01*
X-3858270Y-493498D01*
X-3858483Y-494562D01*
Y-495414D01*
Y-495626D01*
X-3858270Y-498181D01*
X-3857632Y-500309D01*
X-3856568Y-502438D01*
X-3855503Y-504140D01*
X-3854226Y-505630D01*
X-3853375Y-506695D01*
X-3852523Y-507333D01*
X-3852311Y-507546D01*
X-3849756Y-509249D01*
X-3846989Y-510313D01*
X-3843796Y-511165D01*
X-3840817Y-511803D01*
X-3838049Y-512229D01*
X-3835921Y-512442D01*
X-3833792D01*
X-3829323Y-512229D01*
X-3825491Y-511590D01*
X-3822298Y-510739D01*
X-3819531Y-509675D01*
X-3817403Y-508610D01*
X-3815700Y-507759D01*
X-3814849Y-507120D01*
X-3814423Y-506908D01*
X-3812082Y-504566D01*
X-3810166Y-501799D01*
X-3808889Y-499032D01*
X-3807824Y-496478D01*
X-3806973Y-494136D01*
X-3806547Y-492008D01*
X-3806122Y-490731D01*
Y-490518D01*
Y-490305D01*
X-3788242Y-493072D01*
X-3789732Y-499032D01*
X-3791648Y-504353D01*
X-3793989Y-508610D01*
X-3796330Y-512229D01*
X-3798459Y-515209D01*
X-3800375Y-517124D01*
X-3801652Y-518402D01*
X-3801865Y-518614D01*
X-3802077Y-518827D01*
X-3804206Y-520317D01*
X-3806547Y-521594D01*
X-3811656Y-523723D01*
X-3816977Y-525213D01*
X-3822086Y-526277D01*
X-3824427Y-526703D01*
X-3826555Y-526916D01*
X-3828684Y-527128D01*
X-3830387D01*
X-3831877Y-527341D01*
X-3833792D01*
X-3838475Y-527128D01*
X-3842519Y-526703D01*
X-3846351Y-526064D01*
X-3849756Y-525213D01*
X-3852523Y-524361D01*
X-3854652Y-523723D01*
X-3855929Y-523297D01*
X-3856142Y-523084D01*
X-3856355D01*
X-3859973Y-521169D01*
X-3862953Y-519253D01*
X-3865507Y-517124D01*
X-3867849Y-515209D01*
X-3869552Y-513506D01*
X-3870616Y-512016D01*
X-3871467Y-511165D01*
X-3871680Y-510739D01*
X-3873383Y-507759D01*
X-3874660Y-504566D01*
X-3875724Y-501799D01*
X-3876363Y-499245D01*
X-3876789Y-496904D01*
X-3877001Y-495201D01*
Y-494136D01*
Y-493711D01*
X-3876789Y-490305D01*
X-3876363Y-487325D01*
X-3875511Y-484771D01*
X-3874873Y-482430D01*
X-3874021Y-480514D01*
X-3873170Y-479237D01*
X-3872744Y-478385D01*
X-3872531Y-478173D01*
X-3870829Y-476044D01*
X-3868913Y-474128D01*
X-3866997Y-472426D01*
X-3865082Y-471148D01*
X-3863166Y-470084D01*
X-3861889Y-469446D01*
X-3861037Y-469020D01*
X-3860612Y-468807D01*
X-3859122Y-468168D01*
X-3857419Y-467530D01*
X-3853375Y-466040D01*
X-3848905Y-464550D01*
X-3844435Y-463273D01*
X-3840391Y-461996D01*
X-3838475Y-461570D01*
X-3836985Y-461144D01*
X-3835708Y-460719D01*
X-3834644Y-460506D01*
X-3834005Y-460293D01*
X-3833792D01*
X-3831451Y-459654D01*
X-3829323Y-459016D01*
X-3827407Y-458590D01*
X-3825704Y-457952D01*
X-3822937Y-457313D01*
X-3820808Y-456674D01*
X-3819318Y-456036D01*
X-3818467Y-455823D01*
X-3818041Y-455610D01*
X-3817829D01*
X-3816126Y-454759D01*
X-3814636Y-454120D01*
X-3813359Y-453269D01*
X-3812507Y-452630D01*
X-3811656Y-451992D01*
X-3811230Y-451353D01*
X-3811017Y-451140D01*
X-3810804Y-450927D01*
X-3809527Y-448799D01*
X-3808889Y-446670D01*
Y-445819D01*
X-3808676Y-445180D01*
Y-444755D01*
Y-444542D01*
X-3808889Y-442626D01*
X-3809527Y-440711D01*
X-3810379Y-439008D01*
X-3811443Y-437731D01*
X-3812294Y-436454D01*
X-3813146Y-435602D01*
X-3813784Y-435176D01*
X-3813997Y-434964D01*
X-3816339Y-433474D01*
X-3819106Y-432409D01*
X-3822086Y-431771D01*
X-3824853Y-431132D01*
X-3827620Y-430919D01*
X-3829748Y-430707D01*
X-3831877D01*
X-3835495Y-430919D01*
X-3838901Y-431345D01*
X-3841668Y-432196D01*
X-3843796Y-433048D01*
X-3845712Y-433899D01*
X-3846989Y-434751D01*
X-3847841Y-435176D01*
X-3848054Y-435389D01*
X-3850182Y-437305D01*
X-3851672Y-439433D01*
X-3852949Y-441562D01*
X-3854013Y-443478D01*
X-3854652Y-445393D01*
X-3855078Y-446883D01*
X-3855290Y-447735D01*
Y-448160D01*
X-3872957Y-445819D01*
X-3872106Y-442201D01*
X-3871254Y-439008D01*
X-3870190Y-436241D01*
X-3869126Y-433686D01*
X-3868062Y-431984D01*
X-3867210Y-430494D01*
X-3866784Y-429642D01*
X-3866572Y-429429D01*
X-3864656Y-427301D01*
X-3862527Y-425385D01*
X-3860186Y-423682D01*
X-3857845Y-422192D01*
X-3855716Y-421128D01*
X-3854013Y-420277D01*
X-3852949Y-419851D01*
X-3852736Y-419638D01*
X-3852523D01*
X-3848905Y-418361D01*
X-3845074Y-417510D01*
X-3841455Y-416658D01*
X-3838049Y-416233D01*
X-3834857Y-416020D01*
X-3832515Y-415807D01*
X-3827407D01*
X-3824427Y-416233D01*
D02*
G37*
%LPC*%
G36*
X-4228846Y-430707D02*
X-4232039D01*
X-4234167Y-431132D01*
X-4238211Y-432197D01*
X-4241617Y-433900D01*
X-4244597Y-435602D01*
X-4246938Y-437518D01*
X-4248641Y-439221D01*
X-4249705Y-440285D01*
X-4250131Y-440498D01*
Y-440711D01*
X-4251621Y-442626D01*
X-4252898Y-444968D01*
X-4255027Y-449651D01*
X-4256517Y-454972D01*
X-4257368Y-459868D01*
X-4258006Y-464337D01*
X-4258219Y-466466D01*
Y-468169D01*
X-4258432Y-469659D01*
Y-470723D01*
Y-471362D01*
Y-471574D01*
Y-475193D01*
X-4258006Y-478811D01*
X-4257581Y-482004D01*
X-4257155Y-484984D01*
X-4256517Y-487751D01*
X-4255665Y-490305D01*
X-4254814Y-492434D01*
X-4254175Y-494562D01*
X-4253324Y-496265D01*
X-4252472Y-497968D01*
X-4251834Y-499245D01*
X-4250982Y-500309D01*
X-4250557Y-501161D01*
X-4250131Y-501799D01*
X-4249705Y-502012D01*
Y-502225D01*
X-4248002Y-503928D01*
X-4246300Y-505631D01*
X-4242894Y-508185D01*
X-4239488Y-509888D01*
X-4236296Y-511165D01*
X-4233528Y-511803D01*
X-4231187Y-512229D01*
X-4230336Y-512442D01*
X-4229271D01*
X-4226504Y-512229D01*
X-4224163Y-511803D01*
X-4221609Y-511165D01*
X-4219480Y-510313D01*
X-4215436Y-507972D01*
X-4212243Y-505418D01*
X-4209476Y-503076D01*
X-4207561Y-500735D01*
X-4206922Y-499884D01*
X-4206496Y-499245D01*
X-4206071Y-498819D01*
Y-498607D01*
X-4205219Y-496904D01*
X-4204368Y-494988D01*
X-4203091Y-490731D01*
X-4202239Y-486048D01*
X-4201601Y-481578D01*
X-4201175Y-477534D01*
Y-475619D01*
X-4200962Y-474129D01*
Y-472851D01*
Y-471787D01*
Y-471149D01*
Y-470936D01*
Y-467317D01*
X-4201388Y-464125D01*
X-4201814Y-460932D01*
X-4202239Y-457952D01*
X-4202878Y-455398D01*
X-4203729Y-452843D01*
X-4204368Y-450715D01*
X-4205219Y-448586D01*
X-4206071Y-446884D01*
X-4206709Y-445394D01*
X-4207561Y-444116D01*
X-4208199Y-443052D01*
X-4208625Y-442201D01*
X-4209051Y-441562D01*
X-4209476Y-441349D01*
Y-441137D01*
X-4211179Y-439221D01*
X-4212882Y-437731D01*
X-4214585Y-436241D01*
X-4216287Y-435177D01*
X-4219693Y-433261D01*
X-4222886Y-431984D01*
X-4225653Y-431345D01*
X-4227994Y-430920D01*
X-4228846Y-430707D01*
D02*
G37*
G36*
X-4138384Y-471362D02*
X-4138596D01*
X-4138384Y-478173D01*
X-4138171Y-482430D01*
X-4137958Y-486048D01*
X-4137532Y-489028D01*
X-4136894Y-491582D01*
X-4136255Y-493498D01*
X-4135829Y-494988D01*
X-4135617Y-495839D01*
X-4135404Y-496052D01*
X-4133701Y-498819D01*
X-4131998Y-501374D01*
X-4129870Y-503502D01*
X-4127954Y-505205D01*
X-4126251Y-506695D01*
X-4124761Y-507759D01*
X-4123910Y-508398D01*
X-4123484Y-508610D01*
X-4120291Y-510100D01*
X-4117098Y-511165D01*
X-4114119Y-512016D01*
X-4111139Y-512442D01*
X-4108797Y-512867D01*
X-4106669Y-513080D01*
X-4104966D01*
X-4101135Y-512867D01*
X-4097942Y-512442D01*
X-4095175Y-511590D01*
X-4092833Y-510739D01*
X-4091131Y-509887D01*
X-4089853Y-509036D01*
X-4089002Y-508610D01*
X-4088789Y-508398D01*
X-4087086Y-506482D01*
X-4085809Y-504353D01*
X-4084745Y-502438D01*
X-4084106Y-500522D01*
X-4083681Y-498819D01*
X-4083468Y-497542D01*
Y-496478D01*
Y-496265D01*
X-4083681Y-494562D01*
X-4083894Y-492859D01*
X-4084319Y-491582D01*
X-4084745Y-490305D01*
X-4085171Y-489241D01*
X-4085383Y-488389D01*
X-4085809Y-487964D01*
Y-487751D01*
X-4087938Y-485197D01*
X-4090492Y-483494D01*
X-4091343Y-482855D01*
X-4092195Y-482430D01*
X-4092833Y-482004D01*
X-4093046D01*
X-4095175Y-481152D01*
X-4097516Y-480514D01*
X-4100070Y-479875D01*
X-4102625Y-479450D01*
X-4104966Y-479024D01*
X-4107094Y-478598D01*
X-4108372Y-478385D01*
X-4108797D01*
X-4112416Y-477747D01*
X-4115821Y-477321D01*
X-4118801Y-476683D01*
X-4121781Y-476044D01*
X-4124548Y-475405D01*
X-4126890Y-474767D01*
X-4129231Y-474341D01*
X-4131147Y-473703D01*
X-4132849Y-473277D01*
X-4134339Y-472851D01*
X-4135617Y-472426D01*
X-4136681Y-472000D01*
X-4137532Y-471787D01*
X-4138171Y-471574D01*
X-4138384Y-471362D01*
D02*
G37*
%LPD*%
D28*
X-3140000Y-65000D02*
X-2120000D01*
X-4465000Y260000D02*
X-3445000D01*
X-3140000Y585000D02*
X-2120000D01*
X-1800000Y-65000D02*
X-780000D01*
X-1800000Y585000D02*
X-780000D01*
D29*
X-2080000Y-645000D02*
Y-15000D01*
X-3180000D02*
X-2080000D01*
X-3180000Y-645000D02*
Y-15000D01*
Y-645000D02*
X-2080000D01*
X-3405000Y-320000D02*
Y310000D01*
X-4505000D02*
X-3405000D01*
X-4505000Y-320000D02*
Y310000D01*
Y-320000D02*
X-3405000D01*
X-2080000Y5000D02*
Y635000D01*
X-3180000D02*
X-2080000D01*
X-3180000Y5000D02*
Y635000D01*
Y5000D02*
X-2080000D01*
X-1840000Y-645000D02*
X-740000D01*
X-1840000D02*
Y-15000D01*
X-740000D01*
Y-645000D02*
Y-15000D01*
X-1840000Y5000D02*
X-740000D01*
X-1840000D02*
Y635000D01*
X-740000D01*
Y5000D02*
Y635000D01*
D30*
X-2130000Y-498825D02*
X-2231567D01*
X-2180783Y-448041D02*
Y-549608D01*
X-3455000Y-173825D02*
X-3556567D01*
X-3505783Y-123041D02*
Y-224608D01*
X-2130000Y151175D02*
X-2231567D01*
X-2180783Y201959D02*
Y100392D01*
X-790000Y-498825D02*
X-891567D01*
X-840783Y-448041D02*
Y-549608D01*
X-790000Y151175D02*
X-891567D01*
X-840783Y201959D02*
Y100392D01*
X-1311567Y-323041D02*
X-1286175Y-297649D01*
X-1235392D01*
X-1210000Y-323041D01*
Y-424608D01*
X-1235392Y-450000D01*
X-1286175D01*
X-1311567Y-424608D01*
X-1362351D02*
X-1387742Y-450000D01*
X-1438526D01*
X-1463918Y-424608D01*
Y-323041D01*
X-1438526Y-297649D01*
X-1387742D01*
X-1362351Y-323041D01*
Y-348433D01*
X-1387742Y-373825D01*
X-1463918D01*
X-1311567Y351959D02*
X-1286175Y377351D01*
X-1235392D01*
X-1210000Y351959D01*
Y250392D01*
X-1235392Y225000D01*
X-1286175D01*
X-1311567Y250392D01*
X-1463918Y377351D02*
X-1413134Y351959D01*
X-1362351Y301175D01*
Y250392D01*
X-1387743Y225000D01*
X-1438526D01*
X-1463918Y250392D01*
Y275784D01*
X-1438526Y301175D01*
X-1362351D01*
X-2626567Y-243041D02*
X-2601175Y-217650D01*
X-2550392D01*
X-2525000Y-243041D01*
Y-344608D01*
X-2550392Y-370000D01*
X-2601175D01*
X-2626567Y-344608D01*
X-2778918Y-217650D02*
X-2677351D01*
Y-293825D01*
X-2728134Y-268433D01*
X-2753526D01*
X-2778918Y-293825D01*
Y-344608D01*
X-2753526Y-370000D01*
X-2702743D01*
X-2677351Y-344608D01*
X-3951567Y26959D02*
X-3926175Y52351D01*
X-3875392D01*
X-3850000Y26959D01*
Y-74608D01*
X-3875392Y-100000D01*
X-3926175D01*
X-3951567Y-74608D01*
X-4078526Y-100000D02*
Y52351D01*
X-4002351Y-23825D01*
X-4103918D01*
X-2601567Y354459D02*
X-2576175Y379851D01*
X-2525392D01*
X-2500000Y354459D01*
Y252892D01*
X-2525392Y227500D01*
X-2576175D01*
X-2601567Y252892D01*
X-2652351Y227500D02*
X-2703134D01*
X-2677743D01*
Y379851D01*
X-2652351Y354459D01*
%TF.MD5,4fa51352a96eaa7d0a50278d22c72829*%
M02*
