%TF.GenerationSoftware,Altium Limited,Altium Designer,18.1.7 (191)*%
G04 Layer_Physical_Order=1*
G04 Layer_Color=255*
%FSLAX45Y45*%
%MOMM*%
%TF.FileFunction,Copper,L1,Top,Signal*%
%TF.Part,Single*%
G01*
G75*
%TA.AperFunction,SMDPad,CuDef*%
%ADD10R,1.75000X1.00000*%
%ADD11R,1.55000X1.30000*%
%ADD12R,1.00000X0.60000*%
%ADD13R,1.30000X1.55000*%
%ADD14R,2.65000X1.15000*%
%ADD15R,1.35000X1.20000*%
G04:AMPARAMS|DCode=16|XSize=1mm|YSize=2mm|CornerRadius=0.25mm|HoleSize=0mm|Usage=FLASHONLY|Rotation=90.000|XOffset=0mm|YOffset=0mm|HoleType=Round|Shape=RoundedRectangle|*
%AMROUNDEDRECTD16*
21,1,1.00000,1.50000,0,0,90.0*
21,1,0.50000,2.00000,0,0,90.0*
1,1,0.50000,0.75000,0.25000*
1,1,0.50000,0.75000,-0.25000*
1,1,0.50000,-0.75000,-0.25000*
1,1,0.50000,-0.75000,0.25000*
%
%ADD16ROUNDEDRECTD16*%
%TA.AperFunction,FiducialPad,Global*%
%ADD17C,1.00000*%
%TA.AperFunction,Conductor*%
%ADD18C,1.00000*%
%ADD19C,0.40000*%
%ADD20C,0.50000*%
%ADD21C,0.30000*%
%ADD22C,0.80000*%
%TA.AperFunction,ViaPad*%
%ADD23O,1.50000X1.00000*%
%TA.AperFunction,ComponentPad*%
%ADD24C,1.52400*%
G04:AMPARAMS|DCode=25|XSize=9mm|YSize=4.5mm|CornerRadius=1.125mm|HoleSize=0mm|Usage=FLASHONLY|Rotation=0.000|XOffset=0mm|YOffset=0mm|HoleType=Round|Shape=RoundedRectangle|*
%AMROUNDEDRECTD25*
21,1,9.00000,2.25000,0,0,0.0*
21,1,6.75000,4.50000,0,0,0.0*
1,1,2.25000,3.37500,-1.12500*
1,1,2.25000,-3.37500,-1.12500*
1,1,2.25000,-3.37500,1.12500*
1,1,2.25000,3.37500,1.12500*
%
%ADD25ROUNDEDRECTD25*%
%TA.AperFunction,ViaPad*%
%ADD26C,1.00000*%
G36*
X-25488Y652143D02*
X-277294D01*
X-300076Y674924D01*
X-314698Y686145D01*
X-331727Y693198D01*
X-350000Y695604D01*
X-641758D01*
X-660031Y693198D01*
X-677060Y686145D01*
X-691682Y674924D01*
X-809303Y557304D01*
X-877500D01*
Y557500D01*
X-1072500D01*
X-1077500Y568128D01*
Y682500D01*
X-1268103D01*
X-1272500Y682500D01*
X-1283525Y686544D01*
X-1284138Y688025D01*
X-1296224Y703776D01*
X-1311975Y715862D01*
X-1330317Y723459D01*
X-1350000Y726051D01*
X-1362300D01*
Y650000D01*
Y573949D01*
X-1350000D01*
X-1330317Y576541D01*
X-1311975Y584138D01*
X-1296224Y596224D01*
X-1290953Y603094D01*
X-1277627Y599598D01*
X-1277019Y595330D01*
X-1389924Y482424D01*
X-1399977Y469324D01*
X-1412100Y467900D01*
Y467900D01*
X-1412101Y467900D01*
X-1512300D01*
Y392499D01*
X-1537700D01*
Y467900D01*
X-1632100D01*
Y472900D01*
X-1712299D01*
Y387500D01*
X-1737699D01*
Y472900D01*
X-1817900D01*
Y458103D01*
X-1848590D01*
X-1851015Y476523D01*
X-1861252Y501238D01*
X-1877538Y522462D01*
X-1898762Y538747D01*
X-1923477Y548985D01*
X-1937300Y550805D01*
Y450000D01*
Y337480D01*
X-1922802Y326355D01*
X-1905773Y319302D01*
X-1887500Y316896D01*
X-1817900D01*
Y302100D01*
X-1817900D01*
X-1812500Y297500D01*
Y245881D01*
X-1864879D01*
X-1865969Y248515D01*
X-1881389Y268610D01*
X-1901485Y284030D01*
X-1924887Y293724D01*
X-1950000Y297030D01*
X-1975113Y293724D01*
X-1998515Y284030D01*
X-2018610Y268610D01*
X-2034030Y248515D01*
X-2035121Y245881D01*
X-2175153D01*
X-2295968Y366696D01*
X-2291375Y379396D01*
X-2023888D01*
X-2022462Y377538D01*
X-2001238Y361252D01*
X-1976523Y351015D01*
X-1962700Y349195D01*
Y450000D01*
Y550805D01*
X-1976523Y548985D01*
X-2001238Y538747D01*
X-2022462Y522462D01*
X-2023888Y520604D01*
X-2347100D01*
Y600400D01*
X-2437300D01*
Y510000D01*
X-2450000D01*
Y497300D01*
X-2552900D01*
Y488240D01*
X-2564633Y483380D01*
X-2588696Y507443D01*
X-2603581Y517389D01*
X-2621140Y520882D01*
X-2749856D01*
X-2793917Y564943D01*
X-2808802Y574889D01*
X-2826360Y578381D01*
X-2984856D01*
X-3146417Y739943D01*
X-3161302Y749889D01*
X-3178861Y753381D01*
X-3371140D01*
X-3388698Y749889D01*
X-3403583Y739943D01*
X-3427961Y715565D01*
X-3830317D01*
X-3847875Y712072D01*
X-3862760Y702127D01*
X-3984943Y579943D01*
X-3989917Y572500D01*
X-4037500D01*
Y377500D01*
X-3870200D01*
X-3867501Y377500D01*
Y377500D01*
X-3857499D01*
Y377500D01*
X-3832847D01*
X-3827586Y364800D01*
X-4047386Y145000D01*
X-4062323D01*
X-4093661Y176338D01*
X-4106892Y185179D01*
X-4122500Y188284D01*
X-4122501Y188283D01*
X-4172500D01*
Y225000D01*
X-4420053D01*
X-4424913Y236733D01*
X-4284146Y377500D01*
X-4162500D01*
Y572500D01*
X-4282019D01*
X-4285397Y580434D01*
X-4285591Y585200D01*
X-4271224Y596224D01*
X-4259138Y611975D01*
X-4251541Y630316D01*
X-4250621Y637300D01*
X-4337300D01*
Y573075D01*
X-4332500Y572500D01*
X-4332500Y563811D01*
Y527932D01*
X-4336419Y524925D01*
X-4565740Y295604D01*
X-4763589D01*
X-4781862Y293198D01*
X-4788126Y290604D01*
X-4791127D01*
X-4809400Y288198D01*
X-4826429Y281144D01*
X-4841051Y269924D01*
X-4845240Y265735D01*
X-4845812Y265660D01*
X-4862840Y258607D01*
X-4877463Y247386D01*
X-4973967Y150882D01*
X-5110000D01*
X-5114694Y149948D01*
X-5124511Y158005D01*
Y299511D01*
X-4825001D01*
X-4815246Y301452D01*
X-4806977Y306977D01*
X-4462921Y651032D01*
X-4450462Y645531D01*
X-4448459Y630316D01*
X-4440862Y611975D01*
X-4428776Y596224D01*
X-4413025Y584138D01*
X-4394683Y576541D01*
X-4375000Y573949D01*
X-4362700D01*
Y650000D01*
Y726051D01*
X-4369942D01*
X-4375346Y738607D01*
X-4339442Y774511D01*
X-25488Y774512D01*
Y652143D01*
D02*
G37*
G36*
X-1812500Y137500D02*
X-1637500D01*
Y146896D01*
X-1595604D01*
Y112500D01*
X-1632500D01*
Y-27500D01*
X-1529588D01*
X-1525000Y-28104D01*
X-1520412Y-27500D01*
X-1417500D01*
X-1410604Y-37344D01*
Y-435000D01*
X-1408198Y-453274D01*
X-1401145Y-470302D01*
X-1389924Y-484925D01*
X-1277425Y-597425D01*
X-1272500Y-601203D01*
Y-632500D01*
X-1077500D01*
Y-568129D01*
X-1072500Y-557500D01*
X-1064800Y-557500D01*
X-877500D01*
Y-511176D01*
X-684316D01*
X-678611Y-518611D01*
X-658515Y-534031D01*
X-635113Y-543724D01*
X-610000Y-547030D01*
X-584887Y-543724D01*
X-561485Y-534031D01*
X-541390Y-518611D01*
X-525969Y-498515D01*
X-516276Y-475113D01*
X-512970Y-450000D01*
X-516276Y-424887D01*
X-525969Y-401485D01*
X-541390Y-381390D01*
X-561485Y-365970D01*
X-584887Y-356276D01*
X-610000Y-352970D01*
X-635113Y-356276D01*
X-658515Y-365970D01*
X-678611Y-381390D01*
X-684316Y-388825D01*
X-877500D01*
Y-387500D01*
X-1072500D01*
Y-451871D01*
X-1077501Y-462500D01*
X-1085200Y-462500D01*
X-1212651D01*
X-1269396Y-405755D01*
Y-337500D01*
X-1077500D01*
Y-273129D01*
X-1072500Y-262500D01*
X-877500D01*
Y-92500D01*
X-885006D01*
X-889866Y-80767D01*
X-854981Y-45882D01*
X-635121D01*
X-634030Y-48515D01*
X-618610Y-68611D01*
X-598515Y-84031D01*
X-590747Y-87248D01*
X-594062Y-99622D01*
X-597301Y-99195D01*
Y-200000D01*
Y-300805D01*
X-583477Y-298985D01*
X-558762Y-288748D01*
X-537538Y-272462D01*
X-536112Y-270604D01*
X-485876D01*
X-475161Y-282648D01*
X-476590Y-293500D01*
Y-393300D01*
X0D01*
Y-418700D01*
X-476590D01*
Y-518500D01*
X-471850Y-554499D01*
X-457955Y-588045D01*
X-435851Y-616852D01*
X-407045Y-638956D01*
X-373499Y-652851D01*
X-337500Y-657590D01*
X-25488D01*
Y-774512D01*
X-4364442Y-774512D01*
X-4406744Y-732210D01*
X-4399550Y-721444D01*
X-4394683Y-723459D01*
X-4375000Y-726051D01*
X-4362700D01*
Y-662700D01*
X-4449379D01*
X-4448459Y-669683D01*
X-4446443Y-674550D01*
X-4457210Y-681744D01*
X-4831976Y-306977D01*
X-4840246Y-301452D01*
X-4850000Y-299512D01*
X-5124511D01*
Y-158005D01*
X-5114694Y-149948D01*
X-5110000Y-150882D01*
X-4976468D01*
X-4877425Y-249925D01*
X-4862802Y-261145D01*
X-4845774Y-268198D01*
X-4842324Y-268652D01*
X-4841051Y-269925D01*
X-4826429Y-281145D01*
X-4809400Y-288199D01*
X-4791127Y-290604D01*
X-4771001D01*
X-4770773Y-290698D01*
X-4752500Y-293104D01*
X-4611373D01*
X-4593100Y-290698D01*
X-4576071Y-283645D01*
X-4561449Y-272425D01*
X-4507128Y-218104D01*
X-4477500D01*
Y-225000D01*
X-4274849D01*
X-4228049Y-271800D01*
X-4213427Y-283020D01*
X-4196398Y-290073D01*
X-4178125Y-292479D01*
X-4070472D01*
X-4028151Y-334800D01*
X-4033412Y-347500D01*
X-4037500D01*
Y-542500D01*
X-3867501D01*
Y-542500D01*
X-3857500D01*
Y-542500D01*
X-3687500D01*
Y-347500D01*
X-3726619D01*
Y-308984D01*
X-3372500D01*
Y-399118D01*
X-3392500D01*
Y-347500D01*
X-3562500D01*
Y-542500D01*
X-3392500D01*
Y-490881D01*
X-3114005D01*
X-2972443Y-632443D01*
X-2969137Y-634652D01*
X-2966521Y-651675D01*
X-2968484Y-654119D01*
X-3173495D01*
X-3177500Y-650114D01*
Y-532500D01*
X-3372500D01*
Y-702500D01*
X-3254887D01*
X-3224943Y-732443D01*
X-3210058Y-742389D01*
X-3192500Y-745882D01*
X-2275000D01*
X-2257442Y-742389D01*
X-2242557Y-732443D01*
X-2028102Y-517989D01*
X-2018610Y-518611D01*
X-1998515Y-534031D01*
X-1975113Y-543724D01*
X-1950000Y-547030D01*
X-1924887Y-543724D01*
X-1901485Y-534031D01*
X-1881389Y-518611D01*
X-1865969Y-498515D01*
X-1856276Y-475113D01*
X-1852970Y-450000D01*
X-1856276Y-424887D01*
X-1865969Y-401485D01*
X-1876791Y-387382D01*
X-1870528Y-374682D01*
X-1601145D01*
X-1596124Y-381225D01*
X-1581502Y-392445D01*
X-1564473Y-399498D01*
X-1546200Y-401904D01*
X-1527926Y-399498D01*
X-1510898Y-392445D01*
X-1496275Y-381225D01*
X-1485055Y-366602D01*
X-1478002Y-349574D01*
X-1475596Y-331300D01*
X-1478002Y-313027D01*
X-1485055Y-295998D01*
X-1496275Y-281376D01*
X-1510898Y-270156D01*
X-1527926Y-263102D01*
X-1546200Y-260696D01*
X-1564473Y-263102D01*
X-1581502Y-270156D01*
X-1596124Y-281376D01*
X-1597308Y-282919D01*
X-1872182D01*
X-1875816Y-270219D01*
X-1861252Y-251239D01*
X-1851015Y-226523D01*
X-1849195Y-212700D01*
X-1950000D01*
X-2050805D01*
X-2048985Y-226523D01*
X-2038748Y-251239D01*
X-2024184Y-270219D01*
X-2026610Y-278697D01*
X-2029513Y-283060D01*
X-2046358Y-286411D01*
X-2061244Y-296357D01*
X-2339800Y-574914D01*
X-2352500Y-569653D01*
Y-508356D01*
X-2192557Y-348413D01*
X-2182611Y-333528D01*
X-2179119Y-315970D01*
Y-97500D01*
X-2092500D01*
Y20114D01*
X-1997192Y115421D01*
X-1975113Y106276D01*
X-1950000Y102970D01*
X-1924887Y106276D01*
X-1901485Y115969D01*
X-1881389Y131389D01*
X-1865969Y151485D01*
X-1864879Y154118D01*
X-1812500D01*
Y137500D01*
D02*
G37*
G36*
X-3372500Y512500D02*
X-3254887D01*
X-3120881Y378495D01*
Y-57356D01*
X-3117389Y-74914D01*
X-3107443Y-89799D01*
X-2965000Y-232242D01*
Y-304119D01*
X-3000995D01*
X-3178219Y-126894D01*
X-3177970Y-125000D01*
X-3181276Y-99887D01*
X-3190969Y-76485D01*
X-3206390Y-56390D01*
X-3226485Y-40970D01*
X-3249887Y-31277D01*
X-3275000Y-27970D01*
X-3300113Y-31277D01*
X-3323515Y-40970D01*
X-3343611Y-56390D01*
X-3349316Y-63825D01*
X-3380000D01*
Y-62500D01*
X-3497614D01*
X-3579119Y19005D01*
Y57100D01*
X-3490200D01*
Y147500D01*
Y237900D01*
X-3540621D01*
X-3545481Y249633D01*
X-3445057Y350057D01*
X-3435111Y364942D01*
X-3432613Y377500D01*
X-3392500D01*
Y551618D01*
X-3372500D01*
Y512500D01*
D02*
G37*
%LPC*%
G36*
X-1387700Y726051D02*
X-1400000D01*
X-1419683Y723459D01*
X-1438025Y715862D01*
X-1453776Y703776D01*
X-1465862Y688025D01*
X-1473459Y669683D01*
X-1474379Y662700D01*
X-1387700D01*
Y726051D01*
D02*
G37*
G36*
X-2575000D02*
X-2587300D01*
Y662700D01*
X-2500621D01*
X-2501541Y669683D01*
X-2509138Y688025D01*
X-2521224Y703776D01*
X-2536975Y715862D01*
X-2555316Y723459D01*
X-2575000Y726051D01*
D02*
G37*
G36*
X-2612700D02*
X-2625000D01*
X-2644683Y723459D01*
X-2663025Y715862D01*
X-2678776Y703776D01*
X-2690862Y688025D01*
X-2698459Y669683D01*
X-2699379Y662700D01*
X-2612700D01*
Y726051D01*
D02*
G37*
G36*
X-4325000D02*
X-4337300D01*
Y662700D01*
X-4250621D01*
X-4251541Y669683D01*
X-4259138Y688025D01*
X-4271224Y703776D01*
X-4286975Y715862D01*
X-4305317Y723459D01*
X-4325000Y726051D01*
D02*
G37*
G36*
X-1387700Y637300D02*
X-1474379D01*
X-1473459Y630316D01*
X-1465862Y611975D01*
X-1453776Y596224D01*
X-1438025Y584138D01*
X-1419683Y576541D01*
X-1400000Y573949D01*
X-1387700D01*
Y637300D01*
D02*
G37*
G36*
X-2612700D02*
X-2699379D01*
X-2698459Y630316D01*
X-2690862Y611975D01*
X-2678776Y596224D01*
X-2663025Y584138D01*
X-2644683Y576541D01*
X-2625000Y573949D01*
X-2612700D01*
Y637300D01*
D02*
G37*
G36*
X-1600000Y670604D02*
X-1618274Y668198D01*
X-1635302Y661145D01*
X-1649925Y649925D01*
X-1661145Y635302D01*
X-1668198Y618274D01*
X-1670604Y600000D01*
X-1668198Y581727D01*
X-1661145Y564698D01*
X-1649925Y550076D01*
X-1635302Y538855D01*
X-1618274Y531802D01*
X-1600000Y529396D01*
X-1581727Y531802D01*
X-1564698Y538855D01*
X-1550076Y550076D01*
X-1538855Y564698D01*
X-1531802Y581727D01*
X-1529396Y600000D01*
X-1531802Y618274D01*
X-1538855Y635302D01*
X-1550076Y649925D01*
X-1564698Y661145D01*
X-1581727Y668198D01*
X-1600000Y670604D01*
D02*
G37*
G36*
X-2500621Y637300D02*
X-2587300D01*
Y573949D01*
X-2575000D01*
X-2565600Y575187D01*
X-2552900Y564387D01*
Y522700D01*
X-2462700D01*
Y600400D01*
X-2503663D01*
X-2505336Y603793D01*
X-2508672Y613100D01*
X-2501541Y630316D01*
X-2500621Y637300D01*
D02*
G37*
G36*
X-1937300Y-99195D02*
Y-187300D01*
X-1849195D01*
X-1851015Y-173477D01*
X-1861252Y-148762D01*
X-1877538Y-127538D01*
X-1898762Y-111253D01*
X-1923477Y-101015D01*
X-1937300Y-99195D01*
D02*
G37*
G36*
X-622701Y-99195D02*
X-636523Y-101015D01*
X-661238Y-111253D01*
X-682462Y-127538D01*
X-698748Y-148762D01*
X-708985Y-173477D01*
X-710805Y-187300D01*
X-622701D01*
Y-99195D01*
D02*
G37*
G36*
X-1962700Y-99195D02*
X-1976523Y-101015D01*
X-2001238Y-111253D01*
X-2022462Y-127538D01*
X-2038748Y-148762D01*
X-2048985Y-173477D01*
X-2050805Y-187300D01*
X-1962700D01*
Y-99195D01*
D02*
G37*
G36*
X-622701Y-212700D02*
X-710805D01*
X-708985Y-226523D01*
X-698748Y-251239D01*
X-682462Y-272462D01*
X-661238Y-288748D01*
X-636523Y-298985D01*
X-622701Y-300805D01*
Y-212700D01*
D02*
G37*
G36*
X-4260200Y-342100D02*
X-4337900D01*
Y-374396D01*
X-4373423D01*
X-4380317Y-371541D01*
X-4387300Y-370621D01*
Y-445000D01*
Y-519379D01*
X-4380317Y-518459D01*
X-4373423Y-515604D01*
X-4337900D01*
Y-547900D01*
X-4260200D01*
Y-445000D01*
Y-342100D01*
D02*
G37*
G36*
X-4412700Y-370621D02*
X-4419684Y-371541D01*
X-4438025Y-379138D01*
X-4453776Y-391224D01*
X-4465862Y-406975D01*
X-4473459Y-425316D01*
X-4474379Y-432300D01*
X-4412700D01*
Y-370621D01*
D02*
G37*
G36*
X-4157100Y-342100D02*
X-4234800D01*
Y-432300D01*
X-4157100D01*
Y-342100D01*
D02*
G37*
G36*
X-4412700Y-457700D02*
X-4474379D01*
X-4473459Y-464683D01*
X-4465862Y-483025D01*
X-4453776Y-498776D01*
X-4438025Y-510862D01*
X-4419684Y-518459D01*
X-4412700Y-519379D01*
Y-457700D01*
D02*
G37*
G36*
X-4157100Y-457700D02*
X-4234800D01*
Y-547900D01*
X-4157100D01*
Y-457700D01*
D02*
G37*
G36*
X-575000Y-573949D02*
X-587300D01*
Y-637300D01*
X-500621D01*
X-501541Y-630316D01*
X-509138Y-611975D01*
X-521224Y-596224D01*
X-536975Y-584138D01*
X-555317Y-576541D01*
X-575000Y-573949D01*
D02*
G37*
G36*
X-612700D02*
X-625000D01*
X-644683Y-576541D01*
X-663025Y-584138D01*
X-678776Y-596224D01*
X-690862Y-611975D01*
X-698459Y-630316D01*
X-699379Y-637300D01*
X-612700D01*
Y-573949D01*
D02*
G37*
G36*
X-1825000D02*
X-1837300D01*
Y-637300D01*
X-1750621D01*
X-1751541Y-630316D01*
X-1759138Y-611975D01*
X-1771224Y-596224D01*
X-1786975Y-584138D01*
X-1805317Y-576541D01*
X-1825000Y-573949D01*
D02*
G37*
G36*
X-1862700D02*
X-1875000D01*
X-1894684Y-576541D01*
X-1913025Y-584138D01*
X-1928776Y-596224D01*
X-1940862Y-611975D01*
X-1948459Y-630316D01*
X-1949379Y-637300D01*
X-1862700D01*
Y-573949D01*
D02*
G37*
G36*
X-3475000D02*
X-3487300D01*
Y-637300D01*
X-3400621D01*
X-3401541Y-630316D01*
X-3409138Y-611975D01*
X-3421224Y-596224D01*
X-3436975Y-584138D01*
X-3455317Y-576541D01*
X-3475000Y-573949D01*
D02*
G37*
G36*
X-3512700D02*
X-3525000D01*
X-3544684Y-576541D01*
X-3563025Y-584138D01*
X-3578776Y-596224D01*
X-3590862Y-611975D01*
X-3598459Y-630316D01*
X-3599379Y-637300D01*
X-3512700D01*
Y-573949D01*
D02*
G37*
G36*
X-4325000D02*
X-4337300D01*
Y-637300D01*
X-4250621D01*
X-4251541Y-630316D01*
X-4259138Y-611975D01*
X-4271224Y-596224D01*
X-4286975Y-584138D01*
X-4305317Y-576541D01*
X-4325000Y-573949D01*
D02*
G37*
G36*
X-4362700D02*
X-4375000D01*
X-4394683Y-576541D01*
X-4413025Y-584138D01*
X-4428776Y-596224D01*
X-4440862Y-611975D01*
X-4448459Y-630316D01*
X-4449379Y-637300D01*
X-4362700D01*
Y-573949D01*
D02*
G37*
G36*
X-1600000Y-529396D02*
X-1618274Y-531802D01*
X-1635302Y-538855D01*
X-1649925Y-550076D01*
X-1661145Y-564698D01*
X-1668198Y-581727D01*
X-1670604Y-600000D01*
X-1668198Y-618274D01*
X-1661145Y-635302D01*
X-1649925Y-649925D01*
X-1635302Y-661145D01*
X-1618274Y-668198D01*
X-1600000Y-670604D01*
X-1581727Y-668198D01*
X-1564698Y-661145D01*
X-1550076Y-649925D01*
X-1538855Y-635302D01*
X-1531802Y-618274D01*
X-1529396Y-600000D01*
X-1531802Y-581727D01*
X-1538855Y-564698D01*
X-1550076Y-550076D01*
X-1564698Y-538855D01*
X-1581727Y-531802D01*
X-1600000Y-529396D01*
D02*
G37*
G36*
X-500621Y-662700D02*
X-587300D01*
Y-726051D01*
X-575000D01*
X-555317Y-723459D01*
X-536975Y-715862D01*
X-521224Y-703776D01*
X-509138Y-688025D01*
X-501541Y-669683D01*
X-500621Y-662700D01*
D02*
G37*
G36*
X-612700D02*
X-699379D01*
X-698459Y-669683D01*
X-690862Y-688025D01*
X-678776Y-703776D01*
X-663025Y-715862D01*
X-644683Y-723459D01*
X-625000Y-726051D01*
X-612700D01*
Y-662700D01*
D02*
G37*
G36*
X-1750621D02*
X-1837300D01*
Y-726051D01*
X-1825000D01*
X-1805317Y-723459D01*
X-1786975Y-715862D01*
X-1771224Y-703776D01*
X-1759138Y-688025D01*
X-1751541Y-669683D01*
X-1750621Y-662700D01*
D02*
G37*
G36*
X-1862700D02*
X-1949379D01*
X-1948459Y-669683D01*
X-1940862Y-688025D01*
X-1928776Y-703776D01*
X-1913025Y-715862D01*
X-1894684Y-723459D01*
X-1875000Y-726051D01*
X-1862700D01*
Y-662700D01*
D02*
G37*
G36*
X-3400621D02*
X-3487300D01*
Y-726051D01*
X-3475000D01*
X-3455317Y-723459D01*
X-3436975Y-715862D01*
X-3421224Y-703776D01*
X-3409138Y-688025D01*
X-3401541Y-669683D01*
X-3400621Y-662700D01*
D02*
G37*
G36*
X-3512700D02*
X-3599379D01*
X-3598459Y-669683D01*
X-3590862Y-688025D01*
X-3578776Y-703776D01*
X-3563025Y-715862D01*
X-3544684Y-723459D01*
X-3525000Y-726051D01*
X-3512700D01*
Y-662700D01*
D02*
G37*
G36*
X-4250621D02*
X-4337300D01*
Y-726051D01*
X-4325000D01*
X-4305317Y-723459D01*
X-4286975Y-715862D01*
X-4271224Y-703776D01*
X-4259138Y-688025D01*
X-4251541Y-669683D01*
X-4250621Y-662700D01*
D02*
G37*
G36*
X-3172100Y392900D02*
X-3262300D01*
Y315200D01*
X-3172100D01*
Y392900D01*
D02*
G37*
G36*
X-3287700D02*
X-3377900D01*
Y315200D01*
X-3287700D01*
Y392900D01*
D02*
G37*
G36*
X-3174195Y112300D02*
X-3262300D01*
Y24195D01*
X-3248477Y26015D01*
X-3223762Y36252D01*
X-3202538Y52538D01*
X-3186252Y73761D01*
X-3176015Y98477D01*
X-3174195Y112300D01*
D02*
G37*
G36*
X-3275000Y302500D02*
D01*
Y289800D01*
X-3377900D01*
Y237900D01*
X-3464800D01*
Y147500D01*
Y55686D01*
X-3455000Y54396D01*
X-3348888D01*
X-3347462Y52538D01*
X-3326238Y36252D01*
X-3301523Y26015D01*
X-3287700Y24195D01*
Y125000D01*
X-3275000D01*
Y137700D01*
X-3174195D01*
X-3176015Y151523D01*
X-3186252Y176238D01*
X-3202538Y197462D01*
X-3204396Y198888D01*
Y212100D01*
X-3172100D01*
Y289800D01*
X-3275000D01*
Y302500D01*
D02*
G37*
%LPD*%
D10*
X-1525000Y42500D02*
D03*
Y392500D02*
D03*
D11*
X-2450000Y510000D02*
D03*
Y215000D02*
D03*
X-3275000Y-617500D02*
D03*
Y-322500D02*
D03*
Y302500D02*
D03*
Y597500D02*
D03*
X-3477500Y147500D02*
D03*
Y-147500D02*
D03*
X-2450000Y-222500D02*
D03*
Y-517500D02*
D03*
X-1175000Y-252500D02*
D03*
Y-547500D02*
D03*
Y302500D02*
D03*
Y597500D02*
D03*
X-975000Y177500D02*
D03*
Y472500D02*
D03*
Y-472500D02*
D03*
Y-177500D02*
D03*
D12*
X-2895000Y-275000D02*
D03*
Y-465000D02*
D03*
X-2655000Y-370000D02*
D03*
X-4070000Y95000D02*
D03*
Y-95000D02*
D03*
X-3830000Y0D02*
D03*
X-2895000Y457500D02*
D03*
Y267500D02*
D03*
X-2655000Y362500D02*
D03*
X-2895000Y102500D02*
D03*
Y-87500D02*
D03*
X-2655000Y7500D02*
D03*
D13*
X-3477500Y475000D02*
D03*
X-3772500D02*
D03*
X-3772500Y-445000D02*
D03*
X-3477500D02*
D03*
X-3952500D02*
D03*
X-4247500D02*
D03*
X-3952500Y475000D02*
D03*
X-4247500D02*
D03*
X-2177500Y0D02*
D03*
X-2472500D02*
D03*
D14*
X-4325000Y147500D02*
D03*
Y-147500D02*
D03*
D15*
X-1725000Y217500D02*
D03*
Y387500D02*
D03*
X-1175000Y110000D02*
D03*
Y-60000D02*
D03*
D16*
X-5035000Y-80000D02*
D03*
Y80000D02*
D03*
D17*
X-1600000Y600000D02*
D03*
Y-600000D02*
D03*
D18*
X-4752500Y-222500D02*
X-4611373D01*
X-4536373Y-147500D01*
X-4325000D01*
X-4768589Y220000D02*
X-4763589Y225000D01*
X-4791127Y220000D02*
X-4768589D01*
X-4813665Y197462D02*
X-4791127Y220000D01*
X-4827538Y197462D02*
X-4813665D01*
X-4763589Y225000D02*
X-4536495D01*
X-4945000Y80000D02*
X-4827538Y197462D01*
X-4827500Y-200000D02*
X-4811127D01*
X-4791127Y-220000D01*
X-4755000D01*
X-4752500Y-222500D01*
X-4947500Y-80000D02*
X-4827500Y-200000D01*
X-3952500Y-445000D02*
Y-310603D01*
X-4041227Y-221875D02*
X-3952500Y-310603D01*
X-4178125Y-221875D02*
X-4041227D01*
X-4252500Y-147500D02*
X-4178125Y-221875D01*
X-1175000Y-150000D02*
X-1002500D01*
X-632500Y177500D02*
X-610000Y200000D01*
X-975000Y177500D02*
X-632500D01*
X-990800Y486700D02*
X-780058D01*
X-641758Y625000D01*
X-1175000Y302500D02*
X-990800Y486700D01*
X-641758Y625000D02*
X-350000D01*
X-1340000Y432500D02*
X-1175000Y597500D01*
X-1340000Y217500D02*
Y432500D01*
Y-435000D02*
Y217500D01*
Y-435000D02*
X-1227500Y-547500D01*
X-1175000Y-252500D02*
Y-150000D01*
X-1002500D02*
X-975000Y-177500D01*
X-610000Y200000D02*
X-600000D01*
X-1887500Y387500D02*
X-1700000D01*
X-2895000Y-465000D02*
X-2738995D01*
X-241500Y-406000D02*
X-74999D01*
X-447500Y-200000D02*
X-241500Y-406000D01*
X-600000Y-200000D02*
X-447500D01*
X-350000Y625000D02*
X-225000Y500000D01*
X-5035000Y-80000D02*
X-4947500D01*
X-1520000Y217500D02*
X-1340000D01*
X-1700000D02*
X-1520000D01*
X-1525000Y212499D02*
X-1520000Y217500D01*
X-1525000Y42500D02*
Y212499D01*
X-1530000Y387500D02*
X-1525000Y392500D01*
X-1725000Y387500D02*
X-1530000D01*
X-2738995Y-470000D02*
Y-465000D01*
X-2390000Y450000D02*
X-1950000D01*
X-2450000Y510000D02*
X-2390000Y450000D01*
X-4286495Y475000D02*
X-4247500D01*
X-4536495Y225000D02*
X-4286495Y475000D01*
X-1950000Y450000D02*
X-1887500Y387500D01*
X-4400000Y-445000D02*
X-4247500D01*
X-3275000Y125000D02*
Y302500D01*
X-3477500Y147500D02*
X-3455000Y125000D01*
X-3275000D01*
X-4325000Y-147500D02*
X-4252500D01*
X-5035000Y80000D02*
X-4945000D01*
X-1227500Y-547500D02*
X-1175000D01*
Y110000D02*
Y272500D01*
D19*
X-3314398Y-263102D02*
X-3250000Y-327500D01*
X-4070000Y95000D02*
X-4032500D01*
X-4122500Y147500D02*
X-4070000Y95000D01*
X-4325000Y147500D02*
X-4122500D01*
D20*
X-4100000Y-100000D02*
X-4000000D01*
X-3836898Y-263102D02*
X-3772500D01*
Y-445000D02*
Y-263102D01*
X-3314398D01*
X-4000000Y-100000D02*
X-3836898Y-263102D01*
X-873985Y-0D02*
X-550000D01*
X-974492Y-100507D02*
X-873985Y-0D01*
X-2025000Y-450000D02*
X-1950000D01*
X-2275000Y-700000D02*
X-2025000Y-450000D01*
X-3192500Y-700000D02*
X-2275000D01*
X-1717500Y200000D02*
X-1700000Y217500D01*
X-1950000Y200000D02*
X-1717500D01*
X-1977500D02*
X-1950000D01*
X-2194158D02*
X-1977500D01*
X-2225000Y-47500D02*
X-1977500Y200000D01*
X-2331658Y337500D02*
X-2194158Y200000D01*
X-2483639Y337500D02*
X-2331658D01*
X-2225000Y-315970D02*
Y-47500D01*
X-2426531Y-517500D02*
X-2225000Y-315970D01*
X-2450000Y-517500D02*
X-2426531D01*
X-2895000Y-275000D02*
Y-237356D01*
X-3075000Y-57356D02*
X-2895000Y-237356D01*
X-3075000Y-57356D02*
Y397500D01*
X-3275000Y597500D02*
X-3075000Y397500D01*
X-3000000Y352500D02*
X-2895000Y457500D01*
X-3000000Y-12501D02*
Y352500D01*
Y-12501D02*
X-2925000Y-87500D01*
X-3003861Y532500D02*
X-2826360D01*
X-3178861Y707500D02*
X-3003861Y532500D01*
X-3371140Y707500D02*
X-3178861D01*
X-3408956Y669683D02*
X-3371140Y707500D01*
X-3830317Y669683D02*
X-3408956D01*
X-3952500Y547500D02*
X-3830317Y669683D01*
X-3602500Y597500D02*
X-3275000D01*
X-3650000Y550000D02*
X-3602500Y597500D01*
X-2028800Y-328800D02*
X-1546200D01*
X-2600000Y-550000D02*
Y-370000D01*
X-2343861Y-122500D02*
X-2327500Y-138861D01*
X-2655000Y-45000D02*
X-2577500Y-122500D01*
X-2655000Y-45000D02*
Y7500D01*
X-3477500Y382500D02*
Y475000D01*
X-3625000Y235000D02*
X-3477500Y382500D01*
X-3625000Y0D02*
Y235000D01*
Y0D02*
X-3477500Y-147500D01*
X-2826360Y532500D02*
X-2775000Y481140D01*
Y387500D02*
Y481140D01*
X-2895000Y267500D02*
X-2775000Y387500D01*
X-2768861Y475000D02*
X-2621140D01*
X-2327500Y-627500D02*
X-2028800Y-328800D01*
X-2597500Y-627500D02*
X-2327500D01*
X-3650000Y355000D02*
Y550000D01*
X-3830000Y175000D02*
X-3650000Y355000D01*
X-2625000Y-600000D02*
X-2597500Y-627500D01*
X-2650000Y-600000D02*
X-2625000D01*
X-2650000D02*
X-2600000Y-550000D01*
X-2567500Y95000D02*
X-2472500Y0D01*
X-2712500Y95000D02*
X-2567500D01*
X-2895000Y-87500D02*
X-2712500Y95000D01*
X-2655000Y220000D02*
X-2455000D01*
X-2777500D02*
X-2655000D01*
X-2895000Y102500D02*
X-2777500Y220000D01*
X-2672500Y-222500D02*
X-2450000D01*
X-2800000Y-350000D02*
X-2672500Y-222500D01*
X-3020000Y-350000D02*
X-2800000D01*
X-3245000Y-125000D02*
X-3020000Y-350000D01*
X-2600000Y-370000D02*
X-2391360D01*
X-2940000Y-600000D02*
X-2650000D01*
X-3095000Y-445000D02*
X-2940000Y-600000D01*
X-3275000Y-617500D02*
X-3192500Y-700000D01*
X-2327500Y-306140D02*
Y-138861D01*
X-2391360Y-370000D02*
X-2327500Y-306140D01*
X-1950000Y-450000D02*
X-1925877Y-425877D01*
X-2621140Y475000D02*
X-2483639Y337500D01*
X-3952500Y475000D02*
Y547500D01*
X-2455000Y220000D02*
X-2450000Y215000D01*
X-2655000Y220000D02*
Y362500D01*
X-2925000Y-87500D02*
X-2895000D01*
X-3477500Y-445000D02*
X-3095000D01*
X-3830000Y0D02*
Y175000D01*
X-3772500Y355000D02*
Y475000D01*
X-4032500Y95000D02*
X-3772500Y355000D01*
D21*
X-2577500Y-122500D02*
X-2343861D01*
D22*
X-975000Y-472500D02*
X-952500Y-450000D01*
X-3275000Y-125000D02*
X-3245000D01*
X-3477500Y-147500D02*
X-3455000Y-125000D01*
X-3275000D01*
X-952500Y-450000D02*
X-600000D01*
D23*
X-4350000Y650000D02*
D03*
Y-650000D02*
D03*
X-3500000D02*
D03*
X-2600000Y650000D02*
D03*
X-1850000Y-650000D02*
D03*
X-1375000Y650000D02*
D03*
X-600000Y-650000D02*
D03*
D24*
X-1950000Y-450000D02*
D03*
Y-200000D02*
D03*
X-3275000Y-125000D02*
D03*
Y125000D02*
D03*
X-1950000Y200000D02*
D03*
Y450000D02*
D03*
X-610000Y-200000D02*
D03*
Y-450000D02*
D03*
Y450000D02*
D03*
Y200000D02*
D03*
X-550000Y-0D02*
D03*
D25*
X0Y-406000D02*
D03*
Y406000D02*
D03*
D26*
X-1546200Y-331300D02*
D03*
X-2738995Y-470000D02*
D03*
X-4400000Y-445000D02*
D03*
%TF.MD5,fa93d767210d9aec4f56f9f126d216fb*%
M02*
