%TF.GenerationSoftware,Altium Limited,Altium Designer,18.1.7 (191)*%
G04 Layer_Color=8421504*
%FSLAX45Y45*%
%MOMM*%
%TF.FileFunction,Paste,Top*%
%TF.Part,Single*%
G01*
G75*
%TA.AperFunction,SMDPad,CuDef*%
%ADD10R,1.75000X1.00000*%
%ADD11R,1.55000X1.30000*%
%ADD12R,1.00000X0.60000*%
%ADD13R,1.30000X1.55000*%
%ADD14R,2.65000X1.15000*%
%ADD15R,1.35000X1.20000*%
G04:AMPARAMS|DCode=16|XSize=1mm|YSize=2mm|CornerRadius=0.25mm|HoleSize=0mm|Usage=FLASHONLY|Rotation=90.000|XOffset=0mm|YOffset=0mm|HoleType=Round|Shape=RoundedRectangle|*
%AMROUNDEDRECTD16*
21,1,1.00000,1.50000,0,0,90.0*
21,1,0.50000,2.00000,0,0,90.0*
1,1,0.50000,0.75000,0.25000*
1,1,0.50000,0.75000,-0.25000*
1,1,0.50000,-0.75000,-0.25000*
1,1,0.50000,-0.75000,0.25000*
%
%ADD16ROUNDEDRECTD16*%
%TA.AperFunction,FiducialPad,Global*%
%ADD17C,1.00000*%
D10*
X-1525000Y42500D02*
D03*
Y392500D02*
D03*
D11*
X-2450000Y510000D02*
D03*
Y215000D02*
D03*
X-3275000Y-617500D02*
D03*
Y-322500D02*
D03*
Y302500D02*
D03*
Y597500D02*
D03*
X-3477500Y147500D02*
D03*
Y-147500D02*
D03*
X-2450000Y-222500D02*
D03*
Y-517500D02*
D03*
X-1175000Y-252500D02*
D03*
Y-547500D02*
D03*
Y302500D02*
D03*
Y597500D02*
D03*
X-975000Y177500D02*
D03*
Y472500D02*
D03*
Y-472500D02*
D03*
Y-177500D02*
D03*
D12*
X-2895000Y-275000D02*
D03*
Y-465000D02*
D03*
X-2655000Y-370000D02*
D03*
X-4070000Y95000D02*
D03*
Y-95000D02*
D03*
X-3830000Y0D02*
D03*
X-2895000Y457500D02*
D03*
Y267500D02*
D03*
X-2655000Y362500D02*
D03*
X-2895000Y102500D02*
D03*
Y-87500D02*
D03*
X-2655000Y7500D02*
D03*
D13*
X-3477500Y475000D02*
D03*
X-3772500D02*
D03*
X-3772500Y-445000D02*
D03*
X-3477500D02*
D03*
X-3952500D02*
D03*
X-4247500D02*
D03*
X-3952500Y475000D02*
D03*
X-4247500D02*
D03*
X-2177500Y0D02*
D03*
X-2472500D02*
D03*
D14*
X-4325000Y147500D02*
D03*
Y-147500D02*
D03*
D15*
X-1725000Y217500D02*
D03*
Y387500D02*
D03*
X-1175000Y110000D02*
D03*
Y-60000D02*
D03*
D16*
X-5035000Y-80000D02*
D03*
Y80000D02*
D03*
D17*
X-1600000Y600000D02*
D03*
Y-600000D02*
D03*
%TF.MD5,45fa6ccacb1992bcde92c016a62842f6*%
M02*
