%TF.GenerationSoftware,Altium Limited,Altium Designer,18.1.7 (191)*%
G04 Layer_Physical_Order=3*
G04 Layer_Color=16440176*
%FSLAX45Y45*%
%MOMM*%
%TF.FileFunction,Copper,L3,Inr,Signal*%
%TF.Part,Single*%
G01*
G75*
%TA.AperFunction,Conductor*%
%ADD29C,1.00000*%
%ADD30C,0.50000*%
%TA.AperFunction,ComponentPad*%
%ADD31C,1.40000*%
G04:AMPARAMS|DCode=32|XSize=2mm|YSize=1mm|CornerRadius=0.25mm|HoleSize=0mm|Usage=FLASHONLY|Rotation=90.000|XOffset=0mm|YOffset=0mm|HoleType=Round|Shape=RoundedRectangle|*
%AMROUNDEDRECTD32*
21,1,2.00000,0.50000,0,0,90.0*
21,1,1.50000,1.00000,0,0,90.0*
1,1,0.50000,0.25000,0.75000*
1,1,0.50000,0.25000,-0.75000*
1,1,0.50000,-0.25000,-0.75000*
1,1,0.50000,-0.25000,0.75000*
%
%ADD32ROUNDEDRECTD32*%
G04:AMPARAMS|DCode=33|XSize=9mm|YSize=4.5mm|CornerRadius=1.125mm|HoleSize=0mm|Usage=FLASHONLY|Rotation=0.000|XOffset=0mm|YOffset=0mm|HoleType=Round|Shape=RoundedRectangle|*
%AMROUNDEDRECTD33*
21,1,9.00000,2.25000,0,0,0.0*
21,1,6.75000,4.50000,0,0,0.0*
1,1,2.25000,3.37500,-1.12500*
1,1,2.25000,-3.37500,-1.12500*
1,1,2.25000,-3.37500,1.12500*
1,1,2.25000,3.37500,1.12500*
%
%ADD33ROUNDEDRECTD33*%
%ADD34C,1.52400*%
%TA.AperFunction,ViaPad*%
%ADD35C,0.60000*%
%ADD36C,0.80000*%
%ADD37C,1.00000*%
G36*
X7350000Y1276604D02*
X6956000D01*
X6937727Y1274198D01*
X6920698Y1267145D01*
X6906076Y1255924D01*
X6725075Y1074924D01*
X6713855Y1060302D01*
X6706802Y1043273D01*
X6704396Y1025000D01*
Y810000D01*
X6706802Y791726D01*
X6713855Y774698D01*
X6725075Y760075D01*
X6825076Y660075D01*
X6839698Y648855D01*
X6856726Y641802D01*
X6875000Y639396D01*
X6893273Y641802D01*
X6910302Y648855D01*
X6924924Y660075D01*
X6936145Y674698D01*
X6943198Y691726D01*
X6945604Y710000D01*
X6943198Y728273D01*
X6936145Y745302D01*
X6924924Y759924D01*
X6845604Y839245D01*
Y875575D01*
X6858304Y878101D01*
X6863855Y864698D01*
X6875076Y850076D01*
X6889698Y838855D01*
X6906727Y831802D01*
X6925000Y829396D01*
X7220755D01*
X7253397Y796754D01*
X7256276Y774887D01*
X7265969Y751485D01*
X7281390Y731389D01*
X7301485Y715969D01*
X7324887Y706276D01*
X7350000Y702970D01*
Y25488D01*
X1510558Y25488D01*
X1343023Y193022D01*
X1334754Y198548D01*
X1324999Y200488D01*
X25488D01*
Y465242D01*
X38188Y469095D01*
X42557Y462557D01*
X57442Y452611D01*
X75000Y449118D01*
X125000D01*
X142558Y452611D01*
X157443Y462557D01*
X167389Y477442D01*
X170882Y495000D01*
Y645000D01*
X170566Y646587D01*
X182270Y652843D01*
X280061Y555052D01*
X279396Y550000D01*
X281802Y531726D01*
X288855Y514698D01*
X300076Y500075D01*
X314698Y488855D01*
X331727Y481802D01*
X350000Y479396D01*
X1250000D01*
X1268274Y481802D01*
X1285302Y488855D01*
X1299925Y500075D01*
X1529245Y729396D01*
X1559526D01*
X1562052Y716696D01*
X1554612Y713614D01*
X1535812Y699188D01*
X1521386Y680388D01*
X1512317Y658494D01*
X1509224Y635000D01*
X1512317Y611505D01*
X1521386Y589611D01*
X1535812Y570811D01*
X1554612Y556385D01*
X1576505Y547317D01*
X1600000Y544223D01*
X1623495Y547317D01*
X1645388Y556385D01*
X1664189Y570811D01*
X1678615Y589611D01*
X1687683Y611505D01*
X1690752Y634814D01*
X1691417Y635303D01*
X1702835Y640709D01*
X1709247Y635179D01*
X1709224Y635000D01*
X1712317Y611505D01*
X1721385Y589611D01*
X1735811Y570811D01*
X1754612Y556385D01*
X1776505Y547317D01*
X1800000Y544223D01*
X1823495Y547317D01*
X1845388Y556385D01*
X1864189Y570811D01*
X1878614Y589611D01*
X1887683Y611505D01*
X1890776Y635000D01*
X1887683Y658494D01*
X1878614Y680388D01*
X1864189Y699188D01*
X1845388Y713614D01*
X1824866Y722115D01*
X1697057Y849924D01*
X1682434Y861145D01*
X1665406Y868198D01*
X1647132Y870604D01*
X1640475D01*
X1637949Y883304D01*
X1645388Y886385D01*
X1664189Y900811D01*
X1678615Y919612D01*
X1687683Y941505D01*
X1690776Y965000D01*
X1687683Y988495D01*
X1678615Y1010388D01*
X1664189Y1029188D01*
X1645388Y1043614D01*
X1623495Y1052683D01*
X1600000Y1055776D01*
X1576505Y1052683D01*
X1554612Y1043614D01*
X1535812Y1029188D01*
X1521386Y1010388D01*
X1512317Y988495D01*
X1509224Y965000D01*
X1512317Y941505D01*
X1521386Y919612D01*
X1535812Y900811D01*
X1554612Y886385D01*
X1562051Y883304D01*
X1559525Y870604D01*
X1500000D01*
X1481727Y868198D01*
X1464698Y861145D01*
X1450076Y849924D01*
X1220755Y620604D01*
X437992D01*
X436108Y633304D01*
X465371Y642181D01*
X494904Y657966D01*
X520790Y679210D01*
X542033Y705096D01*
X557819Y734629D01*
X567540Y766674D01*
X570822Y800000D01*
X567540Y833326D01*
X557819Y865371D01*
X542033Y894904D01*
X520790Y920790D01*
X494904Y942033D01*
X465371Y957819D01*
X433326Y967540D01*
X400000Y970822D01*
X366674Y967540D01*
X334629Y957819D01*
X305096Y942033D01*
X279210Y920790D01*
X257966Y894904D01*
X242181Y865371D01*
X232460Y833326D01*
X229178Y800000D01*
X232460Y766674D01*
X239552Y743295D01*
X228322Y736564D01*
X170882Y794005D01*
Y875000D01*
X167389Y892558D01*
X157443Y907443D01*
Y907666D01*
X162007Y919668D01*
X172476Y935335D01*
X176387Y955000D01*
Y1017300D01*
X100000D01*
Y1030000D01*
X87300D01*
Y1156387D01*
X75000D01*
X55335Y1152476D01*
X38664Y1141336D01*
X38188Y1140625D01*
X25488Y1144477D01*
Y1399512D01*
X1324999D01*
X1334754Y1401452D01*
X1343023Y1406977D01*
X1510558Y1574512D01*
X7350000D01*
Y1276604D01*
D02*
G37*
%LPC*%
G36*
X475000Y1336175D02*
X451589Y1331519D01*
X431743Y1318257D01*
X418481Y1298411D01*
X413825Y1275000D01*
X418481Y1251589D01*
X431743Y1231743D01*
X451589Y1218481D01*
X475000Y1213825D01*
X498411Y1218481D01*
X518258Y1231743D01*
X531519Y1251589D01*
X536175Y1275000D01*
X531519Y1298411D01*
X518258Y1318257D01*
X498411Y1331519D01*
X475000Y1336175D01*
D02*
G37*
G36*
X4575000Y1347030D02*
X4549887Y1343724D01*
X4526485Y1334031D01*
X4506390Y1318611D01*
X4490969Y1298515D01*
X4481276Y1275113D01*
X4477970Y1250000D01*
X4481276Y1224887D01*
X4490969Y1201485D01*
X4506390Y1181390D01*
X4526485Y1165969D01*
X4549887Y1156276D01*
X4575000Y1152970D01*
X4600113Y1156276D01*
X4623515Y1165969D01*
X4643610Y1181390D01*
X4659031Y1201485D01*
X4668724Y1224887D01*
X4672030Y1250000D01*
X4668724Y1275113D01*
X4659031Y1298515D01*
X4643610Y1318611D01*
X4623515Y1334031D01*
X4600113Y1343724D01*
X4575000Y1347030D01*
D02*
G37*
G36*
X5925000Y1186175D02*
X5901589Y1181519D01*
X5881743Y1168258D01*
X5868481Y1148411D01*
X5864746Y1129632D01*
X5803495Y1068382D01*
X5514330D01*
X5498411Y1079019D01*
X5475000Y1083676D01*
X5451589Y1079019D01*
X5431743Y1065758D01*
X5418481Y1045911D01*
X5413825Y1022500D01*
X5418481Y999089D01*
X5431743Y979243D01*
X5451589Y965981D01*
X5475000Y961325D01*
X5498411Y965981D01*
X5514330Y976619D01*
X5822500D01*
X5840058Y980111D01*
X5854943Y990057D01*
X5858831Y993944D01*
X5868399Y985553D01*
X5861252Y976238D01*
X5851015Y951523D01*
X5849195Y937700D01*
X5950000D01*
Y925000D01*
X5962700D01*
Y824195D01*
X5976523Y826015D01*
X6001238Y836252D01*
X6022462Y852538D01*
X6038748Y873762D01*
X6041418Y880209D01*
X6054118Y877683D01*
Y708205D01*
X6041418Y705679D01*
X6034031Y723515D01*
X6018611Y743610D01*
X5998515Y759030D01*
X5975113Y768724D01*
X5950000Y772030D01*
X5924887Y768724D01*
X5901485Y759030D01*
X5881390Y743610D01*
X5865969Y723515D01*
X5856276Y700113D01*
X5852970Y675000D01*
X5856276Y649887D01*
X5865969Y626485D01*
X5881390Y606389D01*
X5901485Y590969D01*
X5924887Y581276D01*
X5950000Y577970D01*
X5975113Y581276D01*
X5998515Y590969D01*
X6018611Y606389D01*
X6034031Y626485D01*
X6041418Y644321D01*
X6054118Y641795D01*
Y569005D01*
X6017557Y532443D01*
X6007611Y517558D01*
X6004119Y500000D01*
Y414330D01*
X5993481Y398411D01*
X5988825Y375000D01*
X5993481Y351589D01*
X6006743Y331743D01*
X6026589Y318481D01*
X6050000Y313825D01*
X6073411Y318481D01*
X6093258Y331743D01*
X6106519Y351589D01*
X6111175Y375000D01*
X6106519Y398411D01*
X6095882Y414330D01*
Y480995D01*
X6132443Y517557D01*
X6142389Y532442D01*
X6145882Y550000D01*
Y1050000D01*
X6142389Y1067558D01*
X6132443Y1082443D01*
X6057443Y1157443D01*
X6042558Y1167389D01*
X6025000Y1170882D01*
X5964330D01*
X5948411Y1181519D01*
X5925000Y1186175D01*
D02*
G37*
G36*
X125000Y1156387D02*
X112700D01*
Y1042700D01*
X176387D01*
Y1105000D01*
X172476Y1124665D01*
X161336Y1141336D01*
X144665Y1152476D01*
X125000Y1156387D01*
D02*
G37*
G36*
X4575000Y1097030D02*
X4549887Y1093724D01*
X4526485Y1084031D01*
X4506390Y1068611D01*
X4490969Y1048515D01*
X4481276Y1025113D01*
X4477970Y1000000D01*
X4481276Y974887D01*
X4490969Y951485D01*
X4506390Y931390D01*
X4526485Y915969D01*
X4549887Y906276D01*
X4575000Y902970D01*
X4600113Y906276D01*
X4623515Y915969D01*
X4643610Y931390D01*
X4659031Y951485D01*
X4668724Y974887D01*
X4672030Y1000000D01*
X4668724Y1025113D01*
X4659031Y1048515D01*
X4643610Y1068611D01*
X4623515Y1084031D01*
X4600113Y1093724D01*
X4575000Y1097030D01*
D02*
G37*
G36*
X2400000Y1055776D02*
X2376505Y1052683D01*
X2354612Y1043614D01*
X2335811Y1029188D01*
X2321386Y1010388D01*
X2312317Y988495D01*
X2309224Y965000D01*
X2312317Y941505D01*
X2321386Y919612D01*
X2335811Y900811D01*
X2354612Y886385D01*
X2376505Y877317D01*
X2400000Y874224D01*
X2423495Y877317D01*
X2445388Y886385D01*
X2464189Y900811D01*
X2478615Y919612D01*
X2487683Y941505D01*
X2490776Y965000D01*
X2487683Y988495D01*
X2478615Y1010388D01*
X2464189Y1029188D01*
X2445388Y1043614D01*
X2423495Y1052683D01*
X2400000Y1055776D01*
D02*
G37*
G36*
X2200000D02*
X2176505Y1052683D01*
X2154612Y1043614D01*
X2135811Y1029188D01*
X2121385Y1010388D01*
X2112317Y988495D01*
X2109224Y965000D01*
X2112317Y941505D01*
X2121385Y919612D01*
X2135811Y900811D01*
X2154612Y886385D01*
X2176505Y877317D01*
X2200000Y874224D01*
X2223495Y877317D01*
X2245388Y886385D01*
X2264189Y900811D01*
X2278614Y919612D01*
X2287683Y941505D01*
X2290776Y965000D01*
X2287683Y988495D01*
X2278614Y1010388D01*
X2264189Y1029188D01*
X2245388Y1043614D01*
X2223495Y1052683D01*
X2200000Y1055776D01*
D02*
G37*
G36*
X3437700Y919292D02*
Y867700D01*
X3489292D01*
X3488717Y872073D01*
X3482127Y887982D01*
X3471644Y901644D01*
X3457982Y912127D01*
X3442073Y918717D01*
X3437700Y919292D01*
D02*
G37*
G36*
X3412300D02*
X3407927Y918717D01*
X3392018Y912127D01*
X3378356Y901644D01*
X3367873Y887982D01*
X3361283Y872073D01*
X3360708Y867700D01*
X3412300D01*
Y919292D01*
D02*
G37*
G36*
X3825000Y1022030D02*
X3799887Y1018724D01*
X3776485Y1009030D01*
X3756389Y993610D01*
X3740969Y973515D01*
X3731276Y950113D01*
X3727970Y925000D01*
X3731276Y899887D01*
X3740969Y876485D01*
X3756389Y856389D01*
X3776485Y840969D01*
X3799887Y831276D01*
X3825000Y827970D01*
X3850113Y831276D01*
X3873515Y840969D01*
X3893610Y856389D01*
X3909031Y876485D01*
X3918724Y899887D01*
X3922030Y925000D01*
X3918724Y950113D01*
X3909031Y973515D01*
X3893610Y993610D01*
X3873515Y1009030D01*
X3850113Y1018724D01*
X3825000Y1022030D01*
D02*
G37*
G36*
X5277500Y1308676D02*
X5254089Y1304019D01*
X5234243Y1290758D01*
X5220981Y1270911D01*
X5216325Y1247500D01*
X5220981Y1224089D01*
X5234243Y1204243D01*
X5254089Y1190981D01*
X5272868Y1187246D01*
X5279118Y1180995D01*
Y825096D01*
X5266418Y822570D01*
X5261145Y835302D01*
X5249924Y849924D01*
X5235302Y861145D01*
X5218274Y868198D01*
X5200000Y870604D01*
X4125000D01*
X4106726Y868198D01*
X4089698Y861145D01*
X4075075Y849924D01*
X3931276Y706125D01*
X3930434Y705028D01*
X3915895Y706942D01*
X3909031Y723515D01*
X3893610Y743610D01*
X3873515Y759030D01*
X3850113Y768724D01*
X3825000Y772030D01*
X3799887Y768724D01*
X3776485Y759030D01*
X3756389Y743610D01*
X3740969Y723515D01*
X3731276Y700113D01*
X3727970Y675000D01*
X3731276Y649887D01*
X3740969Y626485D01*
X3756389Y606389D01*
X3776485Y590969D01*
X3799887Y581276D01*
X3825000Y577970D01*
X3825500Y578036D01*
X3832406Y566135D01*
X3827820Y560104D01*
X3674084D01*
X3672727Y561145D01*
X3655698Y568198D01*
X3637425Y570604D01*
X3248143D01*
X3242156Y581805D01*
X3245019Y586089D01*
X3249675Y609500D01*
X3245019Y632911D01*
X3231757Y652757D01*
X3211911Y666019D01*
X3209363Y666525D01*
Y679474D01*
X3211911Y679981D01*
X3231757Y693242D01*
X3245019Y713089D01*
X3249675Y736500D01*
X3245019Y759911D01*
X3231757Y779757D01*
X3211911Y793019D01*
X3188500Y797675D01*
X3165089Y793019D01*
X3149169Y782381D01*
X3082505D01*
X2907443Y957443D01*
X2892558Y967389D01*
X2875000Y970881D01*
X2600000D01*
X2582442Y967389D01*
X2567557Y957443D01*
X2455995Y845881D01*
X2119005D01*
X1967443Y997443D01*
X1952558Y1007389D01*
X1935000Y1010881D01*
X1878236D01*
X1864189Y1029188D01*
X1845388Y1043614D01*
X1823495Y1052683D01*
X1800000Y1055776D01*
X1776505Y1052683D01*
X1754612Y1043614D01*
X1735811Y1029188D01*
X1721385Y1010388D01*
X1712317Y988495D01*
X1709224Y965000D01*
X1712317Y941505D01*
X1721385Y919612D01*
X1735811Y900811D01*
X1754612Y886385D01*
X1776505Y877317D01*
X1800000Y874224D01*
X1823495Y877317D01*
X1845388Y886385D01*
X1864189Y900811D01*
X1878236Y919118D01*
X1915995D01*
X1963718Y871396D01*
X1957462Y859691D01*
X1950000Y861175D01*
X1926589Y856519D01*
X1906742Y843257D01*
X1893481Y823411D01*
X1888825Y800000D01*
X1893481Y776589D01*
X1906742Y756742D01*
X1926589Y743481D01*
X1950000Y738825D01*
X1973411Y743481D01*
X1993257Y756742D01*
X2006519Y776589D01*
X2011175Y800000D01*
X2009691Y807462D01*
X2021395Y813718D01*
X2067557Y767557D01*
X2082442Y757611D01*
X2100000Y754118D01*
X2475000D01*
X2492558Y757611D01*
X2507443Y767557D01*
X2619005Y879118D01*
X2749904D01*
X2752430Y866418D01*
X2739698Y861145D01*
X2725076Y849924D01*
X2713855Y835302D01*
X2706802Y818273D01*
X2704396Y800000D01*
Y725000D01*
X2706802Y706727D01*
X2713855Y689698D01*
X2725076Y675076D01*
X2960576Y439575D01*
X2975199Y428355D01*
X2992227Y421302D01*
X3010500Y418896D01*
X3222975D01*
X3241249Y421302D01*
X3258277Y428355D01*
X3259634Y429396D01*
X3451052D01*
X3456529Y416696D01*
X3445981Y400911D01*
X3441325Y377500D01*
X3445981Y354089D01*
X3459243Y334242D01*
X3479089Y320981D01*
X3502500Y316324D01*
X3525911Y320981D01*
X3545758Y334242D01*
X3559019Y354089D01*
X3563676Y377500D01*
X3559019Y400911D01*
X3548471Y416696D01*
X3553948Y429396D01*
X3611266D01*
X3612623Y428355D01*
X3629652Y421301D01*
X3647925Y418896D01*
X3860400D01*
X3878673Y421302D01*
X3895702Y428355D01*
X3910324Y439575D01*
X4031125Y560375D01*
X4042345Y574998D01*
X4049398Y592026D01*
X4051804Y610300D01*
Y626955D01*
X4154245Y729396D01*
X5200000D01*
X5218274Y731802D01*
X5235302Y738855D01*
X5249924Y750075D01*
X5261145Y764698D01*
X5266418Y777430D01*
X5279118Y774904D01*
Y500000D01*
X5282611Y482442D01*
X5292557Y467557D01*
X5389746Y370368D01*
X5393481Y351589D01*
X5406743Y331743D01*
X5426589Y318481D01*
X5450000Y313825D01*
X5473411Y318481D01*
X5493257Y331743D01*
X5506519Y351589D01*
X5511175Y375000D01*
X5506519Y398411D01*
X5493257Y418257D01*
X5473411Y431519D01*
X5454632Y435254D01*
X5424841Y465046D01*
X5433232Y474614D01*
X5433388Y474495D01*
X5442018Y467873D01*
X5457927Y461283D01*
X5462300Y460708D01*
Y512300D01*
X5410708D01*
X5411283Y507927D01*
X5417873Y492018D01*
X5424495Y483388D01*
X5424614Y483232D01*
X5421517Y480516D01*
X5415046Y474841D01*
X5370882Y519005D01*
Y1200000D01*
X5367389Y1217558D01*
X5357443Y1232443D01*
X5337754Y1252133D01*
X5334019Y1270911D01*
X5320757Y1290758D01*
X5300911Y1304019D01*
X5277500Y1308676D01*
D02*
G37*
G36*
X3489292Y842300D02*
X3437700D01*
Y790708D01*
X3442073Y791283D01*
X3457982Y797873D01*
X3471644Y808356D01*
X3482127Y822018D01*
X3488717Y837927D01*
X3489292Y842300D01*
D02*
G37*
G36*
X3412300D02*
X3360708D01*
X3361283Y837927D01*
X3367873Y822018D01*
X3378356Y808356D01*
X3392018Y797873D01*
X3407927Y791283D01*
X3412300Y790708D01*
Y842300D01*
D02*
G37*
G36*
X5937300Y912300D02*
X5849195D01*
X5851015Y898477D01*
X5853234Y893120D01*
X5752557Y792443D01*
X5744943Y781048D01*
X5741048D01*
X5724509Y792099D01*
X5717337Y793526D01*
Y806474D01*
X5724509Y807901D01*
X5741048Y818952D01*
X5752099Y835491D01*
X5755980Y855000D01*
X5752099Y874509D01*
X5741048Y891048D01*
X5724509Y902099D01*
X5705000Y905980D01*
X5685491Y902099D01*
X5668952Y891048D01*
X5657901Y874509D01*
X5656474Y867337D01*
X5643526D01*
X5642099Y874509D01*
X5631048Y891048D01*
X5614509Y902099D01*
X5595000Y905980D01*
X5575491Y902099D01*
X5558952Y891048D01*
X5547901Y874509D01*
X5544020Y855000D01*
X5547901Y835491D01*
X5558952Y818952D01*
X5575491Y807901D01*
X5582663Y806474D01*
Y793526D01*
X5575491Y792099D01*
X5558952Y781048D01*
X5547901Y764509D01*
X5544020Y745000D01*
X5547901Y725491D01*
X5558952Y708952D01*
X5575491Y697901D01*
X5595000Y694020D01*
X5614509Y697901D01*
X5631048Y708952D01*
X5642099Y725491D01*
X5643526Y732663D01*
X5656474D01*
X5657901Y725491D01*
X5668952Y708952D01*
X5685491Y697901D01*
X5705000Y694020D01*
X5724509Y697901D01*
X5727918Y700179D01*
X5739118Y694192D01*
Y679005D01*
X5630995Y570882D01*
X5522229D01*
X5521644Y571644D01*
X5507982Y582127D01*
X5492073Y588717D01*
X5487700Y589292D01*
Y525000D01*
Y460708D01*
X5492073Y461283D01*
X5507982Y467873D01*
X5521644Y478356D01*
X5522229Y479118D01*
X5650000D01*
X5667558Y482611D01*
X5682443Y492557D01*
X5817443Y627557D01*
X5827389Y642442D01*
X5830881Y660000D01*
Y740995D01*
X5918120Y828234D01*
X5923477Y826015D01*
X5937300Y824195D01*
Y912300D01*
D02*
G37*
G36*
X680000Y848675D02*
X656589Y844019D01*
X636742Y830758D01*
X623481Y810911D01*
X618825Y787500D01*
X623481Y764089D01*
X636742Y744243D01*
X656589Y730981D01*
X680000Y726325D01*
X703411Y730981D01*
X723257Y744243D01*
X736519Y764089D01*
X741175Y787500D01*
X736519Y810911D01*
X723257Y830758D01*
X703411Y844019D01*
X680000Y848675D01*
D02*
G37*
G36*
X2400000Y725776D02*
X2376505Y722683D01*
X2354612Y713614D01*
X2335811Y699188D01*
X2321386Y680388D01*
X2312317Y658494D01*
X2309224Y635000D01*
X2312317Y611505D01*
X2321386Y589611D01*
X2335811Y570811D01*
X2354612Y556385D01*
X2376505Y547317D01*
X2400000Y544223D01*
X2423495Y547317D01*
X2445388Y556385D01*
X2464189Y570811D01*
X2478615Y589611D01*
X2487683Y611505D01*
X2490776Y635000D01*
X2487683Y658494D01*
X2478615Y680388D01*
X2464189Y699188D01*
X2445388Y713614D01*
X2423495Y722683D01*
X2400000Y725776D01*
D02*
G37*
G36*
X2200000D02*
X2176505Y722683D01*
X2154612Y713614D01*
X2135811Y699188D01*
X2121385Y680388D01*
X2112317Y658494D01*
X2109224Y635000D01*
X2112317Y611505D01*
X2121385Y589611D01*
X2135811Y570811D01*
X2154612Y556385D01*
X2176505Y547317D01*
X2200000Y544223D01*
X2223495Y547317D01*
X2245388Y556385D01*
X2264189Y570811D01*
X2278614Y589611D01*
X2287683Y611505D01*
X2290776Y635000D01*
X2287683Y658494D01*
X2278614Y680388D01*
X2264189Y699188D01*
X2245388Y713614D01*
X2223495Y722683D01*
X2200000Y725776D01*
D02*
G37*
G36*
X6725000Y661175D02*
X6701589Y656519D01*
X6681743Y643258D01*
X6668481Y623411D01*
X6663825Y600000D01*
X6668481Y576589D01*
X6681743Y556743D01*
X6701589Y543481D01*
X6725000Y538825D01*
X6748411Y543481D01*
X6768257Y556743D01*
X6781519Y576589D01*
X6786175Y600000D01*
X6781519Y623411D01*
X6768257Y643258D01*
X6748411Y656519D01*
X6725000Y661175D01*
D02*
G37*
G36*
X5462300Y589292D02*
X5457927Y588717D01*
X5442018Y582127D01*
X5428356Y571644D01*
X5417873Y557982D01*
X5411283Y542073D01*
X5410708Y537700D01*
X5462300D01*
Y589292D01*
D02*
G37*
G36*
X4575000Y687030D02*
X4549887Y683724D01*
X4526485Y674030D01*
X4506390Y658610D01*
X4490969Y638515D01*
X4481276Y615113D01*
X4477970Y590000D01*
X4481276Y564887D01*
X4490969Y541485D01*
X4506390Y521389D01*
X4526485Y505969D01*
X4549887Y496276D01*
X4575000Y492970D01*
X4600113Y496276D01*
X4623515Y505969D01*
X4643610Y521389D01*
X4659031Y541485D01*
X4668724Y564887D01*
X4672030Y590000D01*
X4668724Y615113D01*
X4659031Y638515D01*
X4643610Y658610D01*
X4623515Y674030D01*
X4600113Y683724D01*
X4575000Y687030D01*
D02*
G37*
G36*
Y437030D02*
X4549887Y433724D01*
X4526485Y424030D01*
X4506390Y408610D01*
X4490969Y388515D01*
X4481276Y365113D01*
X4477970Y340000D01*
X4481276Y314887D01*
X4490969Y291485D01*
X4506390Y271389D01*
X4526485Y255969D01*
X4549887Y246276D01*
X4575000Y242970D01*
X4600113Y246276D01*
X4623515Y255969D01*
X4643610Y271389D01*
X4659031Y291485D01*
X4668724Y314887D01*
X4672030Y340000D01*
X4668724Y365113D01*
X4659031Y388515D01*
X4643610Y408610D01*
X4623515Y424030D01*
X4600113Y433724D01*
X4575000Y437030D01*
D02*
G37*
%LPD*%
D29*
X7250000Y900000D02*
X7350000Y800000D01*
X6925000Y900000D02*
X7250000D01*
X3647925Y489500D02*
X3860400D01*
X3637425Y500000D02*
X3647925Y489500D01*
X3010500D02*
X3222975D01*
X3233476Y500000D01*
X350000Y550000D02*
X1250000D01*
X6956000Y1206000D02*
X7900000D01*
X6775000Y1025000D02*
X6956000Y1206000D01*
X6775000Y810000D02*
Y1025000D01*
Y810000D02*
X6875000Y710000D01*
X4125000Y800000D02*
X5200000D01*
X3981200Y656200D02*
X4125000Y800000D01*
X2775000Y725000D02*
Y800000D01*
Y725000D02*
X3010500Y489500D01*
X3233476Y500000D02*
X3637425D01*
X3860400Y489500D02*
X3981200Y610300D01*
Y656200D01*
X1250000Y550000D02*
X1500000Y800000D01*
X1647132D01*
X1800000Y647132D01*
Y635000D02*
Y647132D01*
D30*
X5277500Y1247500D02*
X5325000Y1200000D01*
Y500000D02*
Y1200000D01*
Y500000D02*
X5450000Y375000D01*
X100000Y800000D02*
X350000Y550000D01*
X6050000Y375000D02*
Y500000D01*
X6100000Y550000D01*
Y1050000D01*
X6025000Y1125000D02*
X6100000Y1050000D01*
X5925000Y1125000D02*
X6025000D01*
X5822500Y1022500D02*
X5925000Y1125000D01*
X5475000Y1022500D02*
X5822500D01*
X5785000Y760000D02*
X5950000Y925000D01*
X5785000Y660000D02*
Y760000D01*
X5650000Y525000D02*
X5785000Y660000D01*
X5475000Y525000D02*
X5650000D01*
X1800000Y965000D02*
X1935000D01*
X2100000Y800000D01*
X2475000D01*
X2600000Y925000D01*
X2875000D01*
X3063500Y736500D01*
X3188500D01*
D31*
X2400000Y965000D02*
D03*
X2200000D02*
D03*
X1800000D02*
D03*
X1600000D02*
D03*
Y635000D02*
D03*
X1800000D02*
D03*
X2200000D02*
D03*
X2400000D02*
D03*
D32*
X100000Y570000D02*
D03*
Y800000D02*
D03*
Y1030000D02*
D03*
D33*
X7900000Y394000D02*
D03*
Y1206000D02*
D03*
D34*
X7350000Y800000D02*
D03*
X3825000Y675000D02*
D03*
Y925000D02*
D03*
X4575000Y1250000D02*
D03*
Y1000000D02*
D03*
Y590000D02*
D03*
Y340000D02*
D03*
X5950000Y925000D02*
D03*
Y675000D02*
D03*
D35*
X5595000Y745000D02*
D03*
Y855000D02*
D03*
X5705000Y745000D02*
D03*
Y855000D02*
D03*
D36*
X6875000Y710000D02*
D03*
X6925000Y900000D02*
D03*
X6725000Y600000D02*
D03*
X3502500Y377500D02*
D03*
X475000Y1275000D02*
D03*
X6050000Y375000D02*
D03*
X3425000Y855000D02*
D03*
X4125000Y800000D02*
D03*
X2775000D02*
D03*
X5925000Y1125000D02*
D03*
X5475000Y1022500D02*
D03*
Y525000D02*
D03*
X5277500Y1247500D02*
D03*
X5450000Y375000D02*
D03*
X680000Y787500D02*
D03*
X1950000Y800000D02*
D03*
X3188500Y736500D02*
D03*
Y609500D02*
D03*
D37*
X5200000Y800000D02*
D03*
%TF.MD5,e157a01cc0ffd519780c771ef1b7f843*%
M02*
