%TF.GenerationSoftware,Altium Limited,Altium Designer,18.1.7 (191)*%
G04 Layer_Color=128*
%FSLAX45Y45*%
%MOMM*%
%TF.FileFunction,Drillmap*%
%TF.Part,Single*%
G01*
G75*
%TA.AperFunction,NonConductor*%
%ADD50C,0.12700*%
D50*
X-4375000Y650000D02*
X-4325000D01*
X-4350000Y625000D02*
Y675000D01*
X-4375000Y-650000D02*
X-4325000D01*
X-4350000Y-675000D02*
Y-625000D01*
X-3525000Y-650000D02*
X-3475000D01*
X-3500000Y-675000D02*
Y-625000D01*
X-2625000Y650000D02*
X-2575000D01*
X-2600000Y625000D02*
Y675000D01*
X-1875000Y-650000D02*
X-1825000D01*
X-1850000Y-675000D02*
Y-625000D01*
X-1400000Y650000D02*
X-1350000D01*
X-1375000Y625000D02*
Y675000D01*
X-625000Y-650000D02*
X-575000D01*
X-600000Y-675000D02*
Y-625000D01*
X-1988100Y-450000D02*
X-1911900D01*
X-1950000Y-488100D02*
Y-411900D01*
X-1988100Y-200000D02*
X-1911900D01*
X-1950000Y-238100D02*
Y-161900D01*
X-3313100Y-125000D02*
X-3236900D01*
X-3275000Y-163100D02*
Y-86900D01*
X-3313100Y125000D02*
X-3236900D01*
X-3275000Y86900D02*
Y163100D01*
X-1988100Y200000D02*
X-1911900D01*
X-1950000Y161900D02*
Y238100D01*
X-1988100Y450000D02*
X-1911900D01*
X-1950000Y411900D02*
Y488100D01*
X-648100Y-200000D02*
X-571900D01*
X-610000Y-238100D02*
Y-161900D01*
X-648100Y-450000D02*
X-571900D01*
X-610000Y-488100D02*
Y-411900D01*
X-648100Y450000D02*
X-571900D01*
X-610000Y411900D02*
Y488100D01*
X-648100Y200000D02*
X-571900D01*
X-610000Y161900D02*
Y238100D01*
X-155000Y-406000D02*
X155000D01*
X0Y-561000D02*
Y-251000D01*
X-155000Y406000D02*
X155000D01*
X0Y251000D02*
Y561000D01*
X-600000Y-0D02*
X-500000D01*
X-550000Y-50000D02*
Y50000D01*
X-4850000Y-0D02*
X-4550000D01*
X-4700000Y-150000D02*
Y150000D01*
X-1576200Y-331300D02*
X-1516200D01*
X-1546200Y-361300D02*
Y-301300D01*
X-2768995Y-470000D02*
X-2708995D01*
X-2738995Y-500000D02*
Y-440000D01*
X-4430000Y-445000D02*
X-4370000D01*
X-4400000Y-475000D02*
Y-415000D01*
%TF.MD5,59ab3a8730cc66518a8daa1ed8bf7133*%
M02*
