%TF.GenerationSoftware,Altium Limited,Altium Designer,18.1.7 (191)*%
G04 Layer_Color=255*
%FSLAX45Y45*%
%MOMM*%
%TF.FileFunction,Pads,Bot*%
%TF.Part,Single*%
G01*
G75*
%TA.AperFunction,ViaPad*%
%ADD23O,1.50000X1.00000*%
%TA.AperFunction,ComponentPad*%
%ADD24C,1.52400*%
G04:AMPARAMS|DCode=25|XSize=9mm|YSize=4.5mm|CornerRadius=1.125mm|HoleSize=0mm|Usage=FLASHONLY|Rotation=0.000|XOffset=0mm|YOffset=0mm|HoleType=Round|Shape=RoundedRectangle|*
%AMROUNDEDRECTD25*
21,1,9.00000,2.25000,0,0,0.0*
21,1,6.75000,4.50000,0,0,0.0*
1,1,2.25000,3.37500,-1.12500*
1,1,2.25000,-3.37500,-1.12500*
1,1,2.25000,-3.37500,1.12500*
1,1,2.25000,3.37500,1.12500*
%
%ADD25ROUNDEDRECTD25*%
%TA.AperFunction,SMDPad,CuDef*%
G04:AMPARAMS|DCode=27|XSize=1.5mm|YSize=2mm|CornerRadius=0.375mm|HoleSize=0mm|Usage=FLASHONLY|Rotation=90.000|XOffset=0mm|YOffset=0mm|HoleType=Round|Shape=RoundedRectangle|*
%AMROUNDEDRECTD27*
21,1,1.50000,1.25000,0,0,90.0*
21,1,0.75000,2.00000,0,0,90.0*
1,1,0.75000,0.62500,0.37500*
1,1,0.75000,0.62500,-0.37500*
1,1,0.75000,-0.62500,-0.37500*
1,1,0.75000,-0.62500,0.37500*
%
%ADD27ROUNDEDRECTD27*%
D23*
X-4350000Y650000D02*
D03*
Y-650000D02*
D03*
X-3500000D02*
D03*
X-2600000Y650000D02*
D03*
X-1850000Y-650000D02*
D03*
X-1375000Y650000D02*
D03*
X-600000Y-650000D02*
D03*
D24*
X-1950000Y-450000D02*
D03*
Y-200000D02*
D03*
X-3275000Y-125000D02*
D03*
Y125000D02*
D03*
X-1950000Y200000D02*
D03*
Y450000D02*
D03*
X-610000Y-200000D02*
D03*
Y-450000D02*
D03*
Y450000D02*
D03*
Y200000D02*
D03*
X-550000Y-0D02*
D03*
D25*
X0Y-406000D02*
D03*
Y406000D02*
D03*
D27*
X-5035000Y0D02*
D03*
%TF.MD5,946e39add1607c5a4a229725bd96c8a9*%
M02*
