%TF.GenerationSoftware,Altium Limited,Altium Designer,18.1.7 (191)*%
G04 Layer_Color=32768*
%FSLAX45Y45*%
%MOMM*%
%TF.FileFunction,Other,Mechanical_15*%
%TF.Part,Single*%
G01*
G75*
%TA.AperFunction,NonConductor*%
%ADD34C,0.10000*%
%ADD35C,0.05000*%
D34*
X-1525000Y167500D02*
Y267500D01*
X-1575000Y217500D02*
X-1475000D01*
X-2450000Y312500D02*
Y412500D01*
X-2500000Y362500D02*
X-2400000D01*
X-2825000Y-370000D02*
X-2725000D01*
X-2775000Y-420000D02*
Y-320000D01*
X-3675000Y475000D02*
X-3575000D01*
X-3625000Y425000D02*
Y525000D01*
X-3275000Y-520000D02*
Y-420000D01*
X-3325000Y-470000D02*
X-3225000D01*
X-3275000Y400000D02*
Y500000D01*
X-3325000Y450000D02*
X-3225000D01*
X-3675000Y-445000D02*
X-3575000D01*
X-3625000Y-495000D02*
Y-395000D01*
X-4150000Y-445000D02*
X-4050000D01*
X-4100000Y-495000D02*
Y-395000D01*
X-3477500Y-50000D02*
Y50000D01*
X-3527500Y-0D02*
X-3427500D01*
X-4000000Y0D02*
X-3900000D01*
X-3950000Y-50000D02*
Y50000D01*
X-4150000Y475000D02*
X-4050000D01*
X-4100000Y425000D02*
Y525000D01*
X-2450000Y-420000D02*
Y-320000D01*
X-2500000Y-370000D02*
X-2400000D01*
X-2375000Y0D02*
X-2275000D01*
X-2325000Y-50000D02*
Y50000D01*
X-2825000Y362500D02*
X-2725000D01*
X-2775000Y312500D02*
Y412500D01*
X-2825000Y7500D02*
X-2725000D01*
X-2775000Y-42500D02*
Y57500D01*
X-4375000Y0D02*
X-4275000D01*
X-4325000Y-50000D02*
Y50000D01*
X-1725000Y252500D02*
Y352500D01*
X-1775000Y302500D02*
X-1675000D01*
X-1175000Y-450000D02*
Y-350000D01*
X-1225000Y-400000D02*
X-1125000D01*
X-1175000Y400000D02*
Y500000D01*
X-1225000Y450000D02*
X-1125000D01*
X-975000Y275000D02*
Y375000D01*
X-1025000Y325000D02*
X-925000D01*
X-975000Y-375000D02*
Y-275000D01*
X-1025000Y-325000D02*
X-925000D01*
X-1175000Y-25000D02*
Y75000D01*
X-1225000Y25000D02*
X-1125000D01*
D35*
X-1637500Y-32500D02*
X-1412500D01*
X-1637500Y467500D02*
X-1412500D01*
X-1637500Y-32500D02*
Y467500D01*
X-1412500Y-32500D02*
Y467500D01*
X-2537500Y582500D02*
X-2362500D01*
X-2537500Y142500D02*
X-2362500D01*
Y582500D01*
X-2537500Y142500D02*
Y582500D01*
X-2967500Y-545000D02*
Y-195000D01*
X-2582500Y-545000D02*
Y-195000D01*
X-2967500D02*
X-2582500D01*
X-2967500Y-545000D02*
X-2582500D01*
X-3405000Y387500D02*
Y562500D01*
X-3845000Y387500D02*
Y562500D01*
Y387500D02*
X-3405000D01*
X-3845000Y562500D02*
X-3405000D01*
X-3362500Y-690000D02*
X-3187500D01*
X-3362500Y-250000D02*
X-3187500D01*
X-3362500Y-690000D02*
Y-250000D01*
X-3187500Y-690000D02*
Y-250000D01*
X-3362500Y230000D02*
X-3187500D01*
X-3362500Y670000D02*
X-3187500D01*
X-3362500Y230000D02*
Y670000D01*
X-3187500Y230000D02*
Y670000D01*
X-3845000Y-532500D02*
Y-357500D01*
X-3405000Y-532500D02*
Y-357500D01*
X-3845000D02*
X-3405000D01*
X-3845000Y-532500D02*
X-3405000D01*
X-3880000D02*
Y-357500D01*
X-4320000Y-532500D02*
Y-357500D01*
Y-532500D02*
X-3880000D01*
X-4320000Y-357500D02*
X-3880000D01*
X-3565000Y220000D02*
X-3390000D01*
X-3565000Y-220000D02*
X-3390000D01*
Y220000D01*
X-3565000Y-220000D02*
Y220000D01*
X-4142500Y-175000D02*
Y175000D01*
X-3757500Y-175000D02*
Y175000D01*
X-4142500D02*
X-3757500D01*
X-4142500Y-175000D02*
X-3757500D01*
X-3880000Y387500D02*
Y562500D01*
X-4320000Y387500D02*
Y562500D01*
Y387500D02*
X-3880000D01*
X-4320000Y562500D02*
X-3880000D01*
X-2537500Y-150000D02*
X-2362500D01*
X-2537500Y-590000D02*
X-2362500D01*
Y-150000D01*
X-2537500Y-590000D02*
Y-150000D01*
X-2105000Y-87500D02*
Y87500D01*
X-2545000Y-87500D02*
Y87500D01*
Y-87500D02*
X-2105000D01*
X-2545000Y87500D02*
X-2105000D01*
X-2967500Y187500D02*
Y537500D01*
X-2582500Y187500D02*
Y537500D01*
X-2967500D02*
X-2582500D01*
X-2967500Y187500D02*
X-2582500D01*
X-2967500Y-167500D02*
Y182500D01*
X-2582500Y-167500D02*
Y182500D01*
X-2967500D02*
X-2582500D01*
X-2967500Y-167500D02*
X-2582500D01*
X-4165000Y-230000D02*
Y230000D01*
X-4485000Y-230000D02*
Y230000D01*
X-4165000D01*
X-4485000Y-230000D02*
X-4165000D01*
X-1820000Y132500D02*
X-1630000D01*
X-1820000Y472500D02*
X-1630000D01*
X-1820000Y132500D02*
Y472500D01*
X-1630000Y132500D02*
Y472500D01*
X-1262500Y-180000D02*
X-1087500D01*
X-1262500Y-620000D02*
X-1087500D01*
Y-180000D01*
X-1262500Y-620000D02*
Y-180000D01*
Y230000D02*
X-1087500D01*
X-1262500Y670000D02*
X-1087500D01*
X-1262500Y230000D02*
Y670000D01*
X-1087500Y230000D02*
Y670000D01*
X-1062500Y105000D02*
X-887500D01*
X-1062500Y545000D02*
X-887500D01*
X-1062500Y105000D02*
Y545000D01*
X-887500Y105000D02*
Y545000D01*
X-1062500Y-545000D02*
X-887500D01*
X-1062500Y-105000D02*
X-887500D01*
X-1062500Y-545000D02*
Y-105000D01*
X-887500Y-545000D02*
Y-105000D01*
X-1270000Y195000D02*
X-1080000D01*
X-1270000Y-145000D02*
X-1080000D01*
Y195000D01*
X-1270000Y-145000D02*
Y195000D01*
%TF.MD5,b035b6f8fd4ccb53062af68c874dbf22*%
M02*
