%TF.GenerationSoftware,Altium Limited,Altium Designer,18.1.7 (191)*%
G04 Layer_Color=0*
%FSLAX45Y45*%
%MOMM*%
%TF.FileFunction,Plated,1,2,PTH,Drill*%
%TF.Part,Single*%
G01*
G75*
%TA.AperFunction,OtherDrill,Free Pad (-43.5mm,6.5mm)*%
%ADD38O,1.00000X0.50000*%
%TA.AperFunction,OtherDrill,Free Pad (-43.5mm,-6.5mm)*%
%ADD39O,1.00000X0.50000*%
%TA.AperFunction,OtherDrill,Free Pad (-35mm,-6.5mm)*%
%ADD40O,1.00000X0.50000*%
%TA.AperFunction,OtherDrill,Free Pad (-26mm,6.5mm)*%
%ADD41O,1.00000X0.50000*%
%TA.AperFunction,OtherDrill,Free Pad (-18.5mm,-6.5mm)*%
%ADD42O,1.00000X0.50000*%
%TA.AperFunction,OtherDrill,Free Pad (-13.75mm,6.5mm)*%
%ADD43O,1.00000X0.50000*%
%TA.AperFunction,OtherDrill,Free Pad (-6mm,-6.5mm)*%
%ADD44O,1.00000X0.50000*%
%TA.AperFunction,ComponentDrill*%
%ADD45C,0.76200*%
%ADD46R,8.00000X3.10000*%
%ADD47C,1.00000*%
%TA.AperFunction,ViaDrill,NotFilled*%
%ADD48C,0.60000*%
D38*
X-4350000Y650000D02*
D03*
D39*
Y-650000D02*
D03*
D40*
X-3500000D02*
D03*
D41*
X-2600000Y650000D02*
D03*
D42*
X-1850000Y-650000D02*
D03*
D43*
X-1375000Y650000D02*
D03*
D44*
X-600000Y-650000D02*
D03*
D45*
X-1950000Y-450000D02*
D03*
Y-200000D02*
D03*
X-3275000Y-125000D02*
D03*
Y125000D02*
D03*
X-1950000Y200000D02*
D03*
Y450000D02*
D03*
X-610000Y-200000D02*
D03*
Y-450000D02*
D03*
Y450000D02*
D03*
Y200000D02*
D03*
D46*
X0Y-406000D02*
D03*
Y406000D02*
D03*
D47*
X-550000Y-0D02*
D03*
D48*
X-1546200Y-331300D02*
D03*
X-2738995Y-470000D02*
D03*
X-4400000Y-445000D02*
D03*
%TF.MD5,9a72b8a280843b5b09bd109a9240eb1f*%
M02*
