%FSTAX25Y25*%
%MOMM*%
%SFA1B1*%

%IPPOS*%
%ADD28C,0.253999*%
%ADD29C,0.499999*%
%ADD32C,5.999988*%
%ADD33R,1.499997X1.499997*%
%ADD34C,1.499997*%
%ADD35R,1.499997X1.499997*%
%ADD36C,0.999998*%
%LNdevboard_copper_signal_bot-1*%
%LPD*%
G36*
X5269412Y0030584D02*
X4932362D01*
X4929837Y0043284*
X4968184Y0059169*
X5011856Y008593*
X5050802Y0119194*
X5084066Y0158142*
X5110827Y0201813*
X5130429Y0249133*
X5142384Y0298937*
X5145405Y0337299*
X449459*
X4497611Y0298937*
X4509566Y0249133*
X4529167Y0201813*
X4555931Y0158142*
X4589195Y0119194*
X4628141Y008593*
X4671814Y0059169*
X471016Y0043284*
X4707633Y0030584*
X4104431*
X4102928Y0043284*
X4108904Y0044719*
X415544Y0063995*
X4198386Y0090312*
X4236686Y0123024*
X4269399Y0161325*
X4295716Y0204271*
X4314992Y0250807*
X432675Y0299783*
X4330702Y0349999*
X432675Y0400212*
X4314992Y0449188*
X4295716Y0495724*
X4269399Y053867*
X4236686Y0576973*
X4198386Y0609683*
X415544Y0636003*
X4108904Y0655276*
X4059925Y0667037*
X4009712Y0670989*
X3959499Y0667037*
X391052Y0655276*
X3863987Y0636003*
X3821038Y0609683*
X3782738Y0576973*
X3750025Y053867*
X3723708Y0495724*
X3704432Y0449188*
X3692674Y0400212*
X3688722Y0349999*
X3692674Y0299783*
X3704432Y0250807*
X3723708Y0204271*
X3750025Y0161325*
X3782738Y0123024*
X3821038Y0090312*
X3863987Y0063995*
X391052Y0044719*
X3916497Y0043284*
X3914993Y0030584*
X0030584*
Y4719413*
X5269412*
Y0030584*
G37*
%LNdevboard_copper_signal_bot-2*%
%LPC*%
G36*
X2444503Y4148818D02*
X2419703Y4145554D01*
X2396594Y4135981*
X2376749Y4120753*
X2361521Y4100908*
X2351948Y4077799*
X2348684Y4052999*
X2351948Y4028198*
X2361521Y4005089*
X2376749Y3985244*
X2396594Y3970017*
X2419703Y3960444*
X2444503Y395718*
X2469304Y3960444*
X2492413Y3970017*
X2512258Y3985244*
X2527485Y4005089*
X2537058Y4028198*
X2540322Y4052999*
X2537058Y4077799*
X2527485Y4100908*
X2512258Y4120753*
X2492413Y4135981*
X2469304Y4145554*
X2444503Y4148818*
G37*
G36*
X0286999D02*
X0262199Y4145554D01*
X0239087Y4135981*
X0219242Y4120753*
X0204017Y4100908*
X0194444Y4077799*
X0191178Y4052999*
X0194444Y4028198*
X0204017Y4005089*
X0219242Y3985244*
X0239087Y3970017*
X0262199Y3960444*
X0286999Y395718*
X0311797Y3960444*
X0334909Y3970017*
X0354751Y3985244*
X0369981Y4005089*
X0379552Y4028198*
X0382818Y4052999*
X0379552Y4077799*
X0369981Y4100908*
X0354751Y4120753*
X0334909Y4135981*
X0311797Y4145554*
X0286999Y4148818*
G37*
G36*
X1807695Y3974378D02*
Y3912699D01*
X1869373*
X1868454Y3919682*
X1860857Y3938023*
X1848769Y3953774*
X1833018Y3965859*
X1814677Y3973456*
X1807695Y3974378*
G37*
G36*
X1782295D02*
X177531Y3973456D01*
X1756968Y3965859*
X1741218Y3953774*
X1729132Y3938023*
X1721535Y3919682*
X1720616Y3912699*
X1782295*
Y3974378*
G37*
G36*
X1869373Y3887299D02*
X1807695D01*
Y3825621*
X1814677Y382654*
X1833018Y3834137*
X1848769Y3846222*
X1860857Y3861973*
X1868454Y3880314*
X1869373Y3887299*
G37*
G36*
X1782295D02*
X1720616D01*
X1721535Y3880314*
X1729132Y3861973*
X1741218Y3846222*
X1756968Y3834137*
X177531Y382654*
X1782295Y3825621*
Y3887299*
G37*
G36*
X2807497Y3847627D02*
Y3785948D01*
X2869178*
X2868256Y3792931*
X2860659Y3811272*
X2848574Y3827023*
X2832823Y383911*
X2814482Y3846708*
X2807497Y3847627*
G37*
G36*
X2782097D02*
X2775115Y3846708D01*
X2756773Y383911*
X2741023Y3827023*
X2728937Y3811272*
X272134Y3792931*
X2720418Y3785948*
X2782097*
Y3847627*
G37*
G36*
X2444503Y3894818D02*
X2419703Y3891554D01*
X2396594Y3881981*
X2376749Y3866753*
X2361521Y3846908*
X2351948Y3823799*
X2348684Y3798999*
X2351948Y3774198*
X2361521Y3751089*
X2376749Y3731244*
X2396594Y3716017*
X2419703Y3706444*
X2444503Y370318*
X2469304Y3706444*
X2492413Y3716017*
X2512258Y3731244*
X2527485Y3751089*
X2537058Y3774198*
X2540322Y3798999*
X2537058Y3823799*
X2527485Y3846908*
X2512258Y3866753*
X2492413Y3881981*
X2469304Y3891554*
X2444503Y3894818*
G37*
G36*
X0286999D02*
X0262199Y3891554D01*
X0239087Y3881981*
X0219242Y3866753*
X0204017Y3846908*
X0194444Y3823799*
X0191178Y3798999*
X0194444Y3774198*
X0204017Y3751089*
X0219242Y3731244*
X0239087Y3716017*
X0262199Y3706444*
X0286999Y370318*
X0311797Y3706444*
X0334909Y3716017*
X0354751Y3731244*
X0369981Y3751089*
X0379552Y3774198*
X0382818Y3798999*
X0379552Y3823799*
X0369981Y3846908*
X0354751Y3866753*
X0334909Y3881981*
X0311797Y3891554*
X0286999Y3894818*
G37*
G36*
X2869178Y3760548D02*
X2807497D01*
Y3698869*
X2814482Y3699789*
X2832823Y3707386*
X2848574Y3719471*
X2860659Y3735222*
X2868256Y3753563*
X2869178Y3760548*
G37*
G36*
X2782097D02*
X2720418D01*
X272134Y3753563*
X2728937Y3735222*
X2741023Y3719471*
X2756773Y3707386*
X2775115Y3699789*
X2782097Y3698869*
Y3760548*
G37*
G36*
X2539504Y3639997D02*
X2349502D01*
Y345*
X2539504*
Y3639997*
G37*
G36*
X0381998D02*
X0191998D01*
Y345*
X0381998*
Y3639997*
G37*
G36*
X4744999Y3370602D02*
X4726724Y3368197D01*
X4709695Y3361143*
X4695073Y3349922*
X4683853Y3335301*
X4683041Y3333338*
X3659398*
X3646639Y3330801*
X3635822Y3323574*
X3324067Y3011817*
X3309498Y3017852*
X3284697Y3021119*
X3259899Y3017852*
X3236788Y3008279*
X3216943Y2993054*
X3201715Y2973209*
X3192145Y2950098*
X3188878Y2925297*
X3192145Y2900499*
X3201715Y2877388*
X3216943Y2857545*
X3236788Y2842315*
X3259899Y2832745*
X3284697Y2829478*
X3309498Y2832745*
X3332609Y2842315*
X3352452Y2857545*
X3367681Y2877388*
X3377252Y2900499*
X3380516Y2925297*
X3377252Y2950098*
X3371217Y2964667*
X3673208Y3266658*
X4683041*
X4683853Y3264697*
X4695073Y3250074*
X4709695Y3238853*
X4726724Y3231799*
X4744999Y3229394*
X4763272Y3231799*
X47803Y3238853*
X4794923Y3250074*
X4806142Y3264697*
X4813195Y3281725*
X4815603Y3299998*
X4813195Y3318273*
X4806142Y3335301*
X4794923Y3349922*
X47803Y3361143*
X4763272Y3368197*
X4744999Y3370602*
G37*
G36*
X1412699Y3074377D02*
Y3012699D01*
X1474378*
X1473456Y3019681*
X1465861Y3038022*
X1453774Y3053775*
X1438023Y3065861*
X1419682Y3073458*
X1412699Y3074377*
G37*
G36*
X1387299D02*
X1380314Y3073458D01*
X1361973Y3065861*
X1346222Y3053775*
X1334137Y3038022*
X132654Y3019681*
X132562Y3012699*
X1387299*
Y3074377*
G37*
G36*
X1474378Y2987299D02*
X1412699D01*
Y292562*
X1419682Y2926539*
X1438023Y2934136*
X1453774Y2946222*
X1465861Y2961972*
X1473456Y2980316*
X1474378Y2987299*
G37*
G36*
X1387299D02*
X132562D01*
X132654Y2980316*
X1334137Y2961972*
X1346222Y2946222*
X1361973Y2934136*
X1380314Y2926539*
X1387299Y292562*
Y2987299*
G37*
G36*
X2363698Y3020298D02*
X2173698D01*
Y2830299*
X2363698*
Y3020298*
G37*
G36*
X3030697Y3021119D02*
X3005899Y3017852D01*
X2982788Y3008279*
X2962943Y2993054*
X2947715Y2973209*
X2938145Y2950098*
X2934878Y2925297*
X2938145Y2900499*
X2947715Y2877388*
X2962943Y2857545*
X2982788Y2842315*
X3005899Y2832745*
X3030697Y2829478*
X3055498Y2832745*
X3078609Y2842315*
X3098452Y2857545*
X3113681Y2877388*
X3123252Y2900499*
X3126516Y2925297*
X3123252Y2950098*
X3113681Y2973209*
X3098452Y2993054*
X3078609Y3008279*
X3055498Y3017852*
X3030697Y3021119*
G37*
G36*
X2776697D02*
X2751899Y3017852D01*
X2728788Y3008279*
X2708943Y2993054*
X2693715Y2973209*
X2684145Y2950098*
X2680878Y2925297*
X2684145Y2900499*
X2693715Y2877388*
X2708943Y2857545*
X2728788Y2842315*
X2751899Y2832745*
X2776697Y2829478*
X2801498Y2832745*
X2824609Y2842315*
X2844452Y2857545*
X2859681Y2877388*
X2869252Y2900499*
X2872516Y2925297*
X2869252Y2950098*
X2859681Y2973209*
X2844452Y2993054*
X2824609Y3008279*
X2801498Y3017852*
X2776697Y3021119*
G37*
G36*
X2522697D02*
X2497899Y3017852D01*
X2474788Y3008279*
X2454943Y2993054*
X2439715Y2973209*
X2430145Y2950098*
X2426878Y2925297*
X2430145Y2900499*
X2439715Y2877388*
X2454943Y2857545*
X2474788Y2842315*
X2497899Y2832745*
X2522697Y2829478*
X2547498Y2832745*
X2570609Y2842315*
X2590452Y2857545*
X2605681Y2877388*
X2615252Y2900499*
X2618516Y2925297*
X2615252Y2950098*
X2605681Y2973209*
X2590452Y2993054*
X2570609Y3008279*
X2547498Y3017852*
X2522697Y3021119*
G37*
G36*
X4182407Y2874378D02*
Y2812699D01*
X4244086*
X4243166Y2819681*
X4235569Y2838023*
X4223481Y2853773*
X4207733Y2865861*
X4189389Y2873458*
X4182407Y2874378*
G37*
G36*
X4157007D02*
X4150024Y2873458D01*
X413168Y2865861*
X411593Y2853773*
X4103844Y2838023*
X4096247Y2819681*
X4095328Y2812699*
X4157007*
Y2874378*
G37*
G36*
X4244086Y2787299D02*
X4182407D01*
Y272562*
X4189389Y272654*
X4207733Y2734137*
X4223481Y2746222*
X4235569Y2761973*
X4243166Y2780314*
X4244086Y2787299*
G37*
G36*
X4157007D02*
X4095328D01*
X4096247Y2780314*
X4103844Y2761973*
X411593Y2746222*
X413168Y2734137*
X4150024Y272654*
X4157007Y272562*
Y2787299*
G37*
G36*
X0494997Y2894998D02*
X0304998D01*
Y2704998*
X0494997*
Y2894998*
G37*
G36*
X0412699Y2645592D02*
Y2558699D01*
X0499592*
X0497814Y2572209*
X0487697Y2596631*
X0471604Y2617604*
X0450631Y2633698*
X0426209Y2643814*
X0412699Y2645592*
G37*
G36*
X0387299D02*
X0373788Y2643814D01*
X0349366Y2633698*
X0328391Y2617604*
X03123Y2596631*
X0302183Y2572209*
X0300405Y2558699*
X0387299*
Y2645592*
G37*
G36*
X0499592Y2533299D02*
X0412699D01*
Y2446403*
X0426209Y2448181*
X0450631Y24583*
X0471604Y2474391*
X0487697Y2495364*
X0497814Y2519789*
X0499592Y2533299*
G37*
G36*
X0387299D02*
X0300405D01*
X0302183Y2519789*
X03123Y2495364*
X0328391Y2474391*
X0349366Y24583*
X0373788Y2448181*
X0387299Y2446403*
Y2533299*
G37*
G36*
X3794998Y2552999D02*
X3604999D01*
Y2362997*
X3794998*
Y2552999*
G37*
G36*
X1794997D02*
X1604998D01*
Y2362997*
X1794997*
Y2552999*
G37*
G36*
X3699997Y2299817D02*
X3675199Y2296553D01*
X3652088Y228698*
X3632243Y2271753*
X3617015Y2251908*
X3607442Y2228799*
X3604178Y2203998*
X3607442Y2179198*
X3617015Y2156089*
X3632243Y2136244*
X3652088Y2121016*
X3675199Y2111443*
X3699997Y2108179*
X3724798Y2111443*
X3747909Y2121016*
X3767752Y2136244*
X3782979Y2156089*
X3792552Y2179198*
X3795816Y2203998*
X3792552Y2228799*
X3782979Y2251908*
X3767752Y2271753*
X3747909Y228698*
X3724798Y2296553*
X3699997Y2299817*
G37*
G36*
X1699999D02*
X1675198Y2296553D01*
X1652089Y228698*
X1632244Y2271753*
X1617017Y2251908*
X1607444Y2228799*
X1604177Y2203998*
X1607444Y2179198*
X1617017Y2156089*
X1632244Y2136244*
X1652089Y2121016*
X1675198Y2111443*
X1699999Y2108179*
X1724799Y2111443*
X1747908Y2121016*
X1767753Y2136244*
X178298Y2156089*
X1792551Y2179198*
X1795818Y2203998*
X1792551Y2228799*
X178298Y2251908*
X1767753Y2271753*
X1747908Y228698*
X1724799Y2296553*
X1699999Y2299817*
G37*
G36*
X4627501Y2870603D02*
X4609228Y2868195D01*
X4592198Y2861144*
X4577577Y2849923*
X4566356Y28353*
X4559302Y2818272*
X4556897Y2799999*
X4559302Y2781724*
X4566356Y2764696*
X4577577Y2750075*
X4581618Y2746971*
Y2583487*
X3994012Y1995881*
X378382*
X3782979Y1997908*
X3767752Y2017753*
X3747909Y203298*
X3724798Y2042553*
X3699997Y2045817*
X3675199Y2042553*
X3652088Y203298*
X3632243Y2017753*
X3617015Y1997908*
X3607442Y1974799*
X3604178Y1949998*
X3607442Y1925198*
X3617015Y1902089*
X3632243Y1882244*
X3652088Y1867016*
X3675199Y1857443*
X3699997Y1854179*
X3724798Y1857443*
X3747909Y1867016*
X3767752Y1882244*
X3782979Y1902089*
X378382Y1904118*
X4013017*
X4030573Y1907608*
X404546Y1917555*
X4659944Y2532039*
X4669889Y2546924*
X4673381Y2564483*
Y2746971*
X4677425Y2750075*
X4688646Y2764696*
X4695698Y2781724*
X4698105Y2799999*
X4695698Y2818272*
X4688646Y28353*
X4677425Y2849923*
X4662802Y2861144*
X4645774Y2868195*
X4627501Y2870603*
G37*
G36*
X1712699Y2049592D02*
Y1962698D01*
X1799592*
X1797814Y1976208*
X1787697Y2000631*
X1771604Y2021603*
X1750631Y2037697*
X1726209Y2047814*
X1712699Y2049592*
G37*
G36*
X1687299D02*
X1673788Y2047814D01*
X1649366Y2037697*
X1628394Y2021603*
X16123Y2000631*
X1602183Y1976208*
X1600405Y1962698*
X1687299*
Y2049592*
G37*
G36*
X1799592Y1937298D02*
X1712699D01*
Y1850405*
X1726209Y1852183*
X1750631Y18623*
X1771604Y1878393*
X1787697Y1899366*
X1797814Y1923788*
X1799592Y1937298*
G37*
G36*
X1687299D02*
X1600405D01*
X1602183Y1923788*
X16123Y1899366*
X1628394Y1878393*
X1649366Y18623*
X1673788Y1852183*
X1687299Y1850405*
Y1937298*
G37*
G36*
X3712697Y1795592D02*
Y1708698D01*
X3799593*
X3797815Y1722208*
X3787698Y1746631*
X3771605Y1767603*
X3750632Y1783697*
X3726207Y1793814*
X3712697Y1795592*
G37*
G36*
X3687297Y1795594D02*
X3673789Y1793814D01*
X3649365Y1783697*
X3628392Y1767603*
X3612299Y1746631*
X3602182Y1722208*
X3600404Y1708698*
X3687297*
Y1795594*
G37*
G36*
X4855001Y1875823D02*
X4830203Y1872556D01*
X4807092Y1862985*
X4787249Y1847758*
X4772019Y1827913*
X4762446Y1804802*
X4759182Y1780001*
X4762446Y1755203*
X4772019Y1732094*
X4787249Y1712249*
X4807092Y1697019*
X4830203Y1687449*
X4855001Y1684182*
X4879802Y1687449*
X4902913Y1697019*
X4922758Y1712249*
X4937983Y1732094*
X4947556Y1755203*
X495082Y1780001*
X4947556Y1804802*
X4937983Y1827913*
X4922758Y1847758*
X4902913Y1862985*
X4879802Y1872556*
X4855001Y1875823*
G37*
G36*
X0349999Y1799818D02*
X0325198Y1796554D01*
X0302089Y1786981*
X0282244Y1771754*
X0267017Y1751909*
X0257444Y1728797*
X025418Y1703999*
X0257444Y1679199*
X0267017Y1656087*
X0282244Y1636245*
X0302089Y1621017*
X0325198Y1611444*
X0349999Y160818*
X0374799Y1611444*
X0397908Y1621017*
X0417753Y1636245*
X0432981Y1656087*
X0442554Y1679199*
X0445818Y1703999*
X0442554Y1728797*
X0432981Y1751909*
X0417753Y1771754*
X0397908Y1786981*
X0374799Y1796554*
X0349999Y1799818*
G37*
G36*
X1699999Y1791817D02*
X1675198Y1788553D01*
X1652089Y177898*
X1632244Y1763753*
X1617017Y1743908*
X1607444Y1720799*
X1604177Y1695998*
X1607444Y1671198*
X1617017Y1648089*
X1632244Y1628244*
X1652089Y1613016*
X1675198Y1603443*
X1699999Y1600179*
X1724799Y1603443*
X1747908Y1613016*
X1767753Y1628244*
X178298Y1648089*
X1792551Y1671198*
X1795818Y1695998*
X1792551Y1720799*
X178298Y1743908*
X1767753Y1763753*
X1747908Y177898*
X1724799Y1788553*
X1699999Y1791817*
G37*
G36*
X3799593Y1683298D02*
X3712697D01*
Y1596405*
X3726207Y1598183*
X3750632Y16083*
X3771605Y1624393*
X3787698Y1645366*
X3797815Y1669788*
X3799593Y1683298*
G37*
G36*
X3687297D02*
X3600404D01*
X3602182Y1669788*
X3612299Y1645366*
X3628392Y1624393*
X3649365Y16083*
X3673789Y1598183*
X3687297Y1596405*
Y1683298*
G37*
G36*
X4955402Y1626402D02*
X4867701D01*
Y1538701*
X4955402*
Y1626402*
G37*
G36*
X4842301D02*
X4754603D01*
Y1538701*
X4842301*
Y1626402*
G37*
G36*
X0450397Y1550398D02*
X0362699D01*
Y1462699*
X0450397*
Y1550398*
G37*
G36*
X0337299D02*
X0249598D01*
Y1462699*
X0337299*
Y1550398*
G37*
G36*
X4955402Y1513301D02*
X4867701D01*
Y1425602*
X4955402*
Y1513301*
G37*
G36*
X4842301D02*
X4754603D01*
Y1425602*
X4842301*
Y1513301*
G37*
G36*
X0450397Y1437299D02*
X0362699D01*
Y1349598*
X0450397*
Y1437299*
G37*
G36*
X0337299D02*
X0249598D01*
Y1349598*
X0337299*
Y1437299*
G37*
G36*
X3699997Y1537817D02*
X3675199Y1534553D01*
X3652088Y152498*
X3632243Y1509753*
X3617015Y1489908*
X3607442Y1466799*
X3604178Y1441998*
X3607442Y1417198*
X3617015Y1394089*
X3632243Y1374244*
X3652088Y1359016*
X3675199Y1349443*
X3699997Y1346179*
X3724798Y1349443*
X3747909Y1359016*
X3767752Y1374244*
X3782979Y1394089*
X3792552Y1417198*
X3795816Y1441998*
X3792552Y1466799*
X3782979Y1489908*
X3767752Y1509753*
X3747909Y152498*
X3724798Y1534553*
X3699997Y1537817*
G37*
G36*
X1699999D02*
X1675198Y1534553D01*
X1652089Y152498*
X1632244Y1509753*
X1617017Y1489908*
X1607444Y1466799*
X1604177Y1441998*
X1607444Y1417198*
X1617017Y1394089*
X1632244Y1374244*
X1652089Y1359016*
X1675198Y1349443*
X1699999Y1346179*
X1724799Y1349443*
X1747908Y1359016*
X1767753Y1374244*
X178298Y1394089*
X1792551Y1417198*
X1795818Y1441998*
X1792551Y1466799*
X178298Y1489908*
X1767753Y1509753*
X1747908Y152498*
X1724799Y1534553*
X1699999Y1537817*
G37*
G36*
X3379698Y1020297D02*
X3189698D01*
Y0830298*
X3379698*
Y1020297*
G37*
G36*
X3030697Y1021118D02*
X3005899Y1017854D01*
X2982788Y100828*
X2962943Y0993053*
X2947715Y0973208*
X2938145Y0950099*
X2934878Y0925299*
X2938145Y0900498*
X2947715Y0877389*
X2962943Y0857544*
X2982788Y0842317*
X3005899Y0832744*
X3030697Y082948*
X3055498Y0832744*
X3078609Y0842317*
X3098452Y0857544*
X3113681Y0877389*
X3123252Y0900498*
X3126516Y0925299*
X3123252Y0950099*
X3113681Y0973208*
X3098452Y0993053*
X3078609Y100828*
X3055498Y1017854*
X3030697Y1021118*
G37*
G36*
X2776697D02*
X2751899Y1017854D01*
X2728788Y100828*
X2708943Y0993053*
X2693715Y0973208*
X2684145Y0950099*
X2680878Y0925299*
X2684145Y0900498*
X2693715Y0877389*
X2708943Y0857544*
X2728788Y0842317*
X2751899Y0832744*
X2776697Y082948*
X2801498Y0832744*
X2824609Y0842317*
X2844452Y0857544*
X2859681Y0877389*
X2869252Y0900498*
X2872516Y0925299*
X2869252Y0950099*
X2859681Y0973208*
X2844452Y0993053*
X2824609Y100828*
X2801498Y1017854*
X2776697Y1021118*
G37*
G36*
X2522697D02*
X2497899Y1017854D01*
X2474788Y100828*
X2454943Y0993053*
X2439715Y0973208*
X2430145Y0950099*
X2426878Y0925299*
X2430145Y0900498*
X2439715Y0877389*
X2454943Y0857544*
X2474788Y0842317*
X2497899Y0832744*
X2522697Y082948*
X2547498Y0832744*
X2570609Y0842317*
X2590452Y0857544*
X2605681Y0877389*
X2615252Y0900498*
X2618516Y0925299*
X2615252Y0950099*
X2605681Y0973208*
X2590452Y0993053*
X2570609Y100828*
X2547498Y1017854*
X2522697Y1021118*
G37*
G36*
X2268697D02*
X2243899Y1017854D01*
X2220788Y100828*
X2200943Y0993053*
X2185715Y0973208*
X2176145Y0950099*
X2172878Y0925299*
X2176145Y0900498*
X2185715Y0877389*
X2200943Y0857544*
X2220788Y0842317*
X2243899Y0832744*
X2268697Y082948*
X2293498Y0832744*
X2316609Y0842317*
X2336452Y0857544*
X2351681Y0877389*
X2361252Y0900498*
X2364516Y0925299*
X2361252Y0950099*
X2351681Y0973208*
X2336452Y0993053*
X2316609Y100828*
X2293498Y1017854*
X2268697Y1021118*
G37*
G36*
X1246398Y0600397D02*
X1158699D01*
Y0512699*
X1246398*
Y0600397*
G37*
G36*
X1133299D02*
X1045598D01*
Y0512699*
X1133299*
Y0600397*
G37*
G36*
X1907999Y0595817D02*
X1883199Y0592554D01*
X1860087Y058298*
X1840242Y0567753*
X1825017Y0547908*
X1815444Y0524799*
X181218Y0499999*
X1815444Y0475198*
X1825017Y0452089*
X1840242Y0432244*
X1860087Y0417017*
X1883199Y0407443*
X1907999Y040418*
X1932797Y0407443*
X1955909Y0417017*
X1975751Y0432244*
X1990981Y0452089*
X2000554Y0475198*
X2003818Y0499999*
X2000554Y0524799*
X1990981Y0547908*
X1975751Y0567753*
X1955909Y058298*
X1932797Y0592554*
X1907999Y0595817*
G37*
G36*
X1653999D02*
X1629199Y0592554D01*
X1606087Y058298*
X1586242Y0567753*
X1571017Y0547908*
X1561444Y0524799*
X155818Y0499999*
X1561444Y0475198*
X1571017Y0452089*
X1586242Y0432244*
X1606087Y0417017*
X1629199Y0407443*
X1653999Y040418*
X1678797Y0407443*
X1701909Y0417017*
X1721751Y0432244*
X1736981Y0452089*
X1746554Y0475198*
X1749818Y0499999*
X1746554Y0524799*
X1736981Y0547908*
X1721751Y0567753*
X1701909Y058298*
X1678797Y0592554*
X1653999Y0595817*
G37*
G36*
X1399999D02*
X1375199Y0592554D01*
X1352087Y058298*
X1332242Y0567753*
X1317017Y0547908*
X1307444Y0524799*
X130418Y0499999*
X1307444Y0475198*
X1317017Y0452089*
X1332242Y0432244*
X1352087Y0417017*
X1375199Y0407443*
X1399999Y040418*
X1424797Y0407443*
X1447909Y0417017*
X1467751Y0432244*
X1482981Y0452089*
X1492554Y0475198*
X1495818Y0499999*
X1492554Y0524799*
X1482981Y0547908*
X1467751Y0567753*
X1447909Y058298*
X1424797Y0592554*
X1399999Y0595817*
G37*
G36*
X1246398Y0487299D02*
X1158699D01*
Y0399597*
X1246398*
Y0487299*
G37*
G36*
X1133299D02*
X1045598D01*
Y0399597*
X1133299*
Y0487299*
G37*
G36*
X4832697Y0675406D02*
Y0362699D01*
X5145405*
X5142384Y040106*
X5130429Y0450862*
X5110827Y0498182*
X5084066Y0541855*
X5050802Y0580801*
X5011856Y0614067*
X4968184Y0640829*
X4920863Y066043*
X4871059Y0672386*
X4832697Y0675406*
G37*
G36*
X4807297D02*
X4768938Y0672386D01*
X4719134Y066043*
X4671814Y0640829*
X4628141Y0614067*
X4589195Y0580801*
X4555931Y0541855*
X4529167Y0498182*
X4509566Y0450862*
X4497611Y040106*
X449459Y0362699*
X4807297*
Y0675406*
G37*
G36*
X0349999Y0545818D02*
X0325198Y0542554D01*
X0302089Y053298*
X0282244Y0517753*
X0267017Y0497908*
X0257444Y0474799*
X025418Y0449999*
X0257444Y0425198*
X0267017Y0402089*
X0282244Y0382244*
X0302089Y0367017*
X0325198Y0357444*
X0349999Y035418*
X0374799Y0357444*
X0397908Y0367017*
X0417753Y0382244*
X0432981Y0402089*
X0442554Y0425198*
X0445818Y0449999*
X0442554Y0474799*
X0432981Y0497908*
X0417753Y0517753*
X0397908Y053298*
X0374799Y0542554*
X0349999Y0545818*
G37*
G36*
X0450397Y0296397D02*
X0362699D01*
Y0208699*
X0450397*
Y0296397*
G37*
G36*
X0337299D02*
X0249598D01*
Y0208699*
X0337299*
Y0296397*
G37*
G36*
X0450397Y0183299D02*
X0362699D01*
Y0095597*
X0450397*
Y0183299*
G37*
G36*
X0337299D02*
X0249598D01*
Y0095597*
X0337299*
Y0183299*
G37*
%LNdevboard_copper_signal_bot-3*%
%LPD*%
G54D28*
X3284697Y2925297D02*
X3659398Y3299998D01*
X4744999*
G54D29*
X3699997Y1949998D02*
X4013017D01*
X4627501Y2564483*
Y2799999*
G54D32*
X4009712Y0349999D03*
X4819997D03*
G54D33*
X4855001Y1526001D03*
X0399999Y2799999D03*
X2444503Y3544999D03*
X0349999Y1449999D03*
Y0195999D03*
X0286999Y3544999D03*
X1699999Y2457998D03*
X3699997D03*
G54D34*
X4855001Y1780001D03*
X1907999Y0499999D03*
X1653999D03*
X1399999D03*
X0399999Y2545999D03*
X2444503Y3798999D03*
Y4052999D03*
X0349999Y1703999D03*
Y0449999D03*
X0286999Y3798999D03*
Y4052999D03*
X3284697Y2925297D03*
X3030697D03*
X2776697D03*
X2522697D03*
X1699999Y1441998D03*
Y1695998D03*
Y1949998D03*
Y2203998D03*
X3699997Y1441998D03*
Y1695998D03*
Y1949998D03*
Y2203998D03*
X2268697Y0925299D03*
X2522697D03*
X2776697D03*
X3030697D03*
G54D35*
X1145999Y0499999D03*
X2268697Y2925297D03*
X3284697Y0925299D03*
G54D36*
X4744999Y3299998D03*
X4627501Y2799999D03*
X1399999Y2999999D03*
X4169707Y2799999D03*
X2794797Y3773248D03*
X1794995Y3899999D03*
M02*