%FSTAX25Y25*%
%MOMM*%
%SFA1B1*%

%IPPOS*%
%ADD53C,0.127000*%
%ADD54C,0.169330*%
%LNdevboard_drawing_1-1*%
%LPD*%
G54D53*
X3958912Y0299199D02*
Y0400799D01*
X4060512*
Y0299199*
X3958912*
X4769197D02*
Y0400799D01*
X4870797*
Y0299199*
X4769197*
X4744999Y3249198D02*
X4694199Y3350798D01*
X4795799*
X4744999Y3249198*
X4627501Y2749199D02*
X4576701Y2850799D01*
X4678301*
X4627501Y2749199*
X1399999Y2949199D02*
X1349199Y3050799D01*
X1450799*
X1399999Y2949199*
X4169707Y2749199D02*
X4118907Y2850799D01*
X4220507*
X4169707Y2749199*
X2794797Y3722448D02*
X2743997Y3824048D01*
X2845597*
X2794797Y3722448*
X1794995Y3849199D02*
X1744195Y3950799D01*
X1845795*
X1794995Y3849199*
G54D54*
X4905801Y1526001D02*
D01*
X4905679Y1529547*
X4905308Y1533072*
X4904691Y1536565*
X4903835Y1540004*
X4902738Y1543377*
X490141Y1546664*
X4899855Y1549852*
X4898082Y1552922*
X4896101Y1555861*
X4893917Y1558655*
X4891544Y1561292*
X4888994Y1563753*
X4886279Y1566034*
X4883409Y1568117*
X4880401Y1569996*
X4877272Y157166*
X4874033Y1573103*
X4870701Y1574317*
X4867292Y1575292*
X4863823Y1576031*
X4860312Y1576524*
X4856774Y1576771*
X4853228*
X4849693Y1576524*
X484618Y1576031*
X4842713Y1575292*
X4839304Y1574317*
X4835972Y1573103*
X4832733Y157166*
X4829601Y1569996*
X4826596Y1568117*
X4823726Y1566034*
X4821011Y1563753*
X4818461Y1561292*
X4816088Y1558655*
X4813904Y1555861*
X481192Y1552922*
X4810147Y1549852*
X4808593Y1546664*
X4807267Y1543377*
X480617Y1540004*
X4805311Y1536565*
X4804697Y1533072*
X4804326Y1529547*
X4804201Y1526001*
X4804326Y1522458*
X4804697Y1518932*
X4805311Y151544*
X480617Y1512001*
X4807267Y1508627*
X4808593Y1505341*
X4810147Y1502153*
X481192Y1499082*
X4813904Y1496143*
X4816088Y1493349*
X4818461Y1490713*
X4821011Y1488252*
X4823726Y1485971*
X4826596Y1483888*
X4829601Y1482008*
X4832733Y1480345*
X4835972Y1478902*
X4839304Y1477688*
X4842713Y1476712*
X484618Y1475973*
X4849693Y147548*
X4853228Y1475234*
X4856774*
X4860312Y147548*
X4863823Y1475973*
X4867292Y1476712*
X4870701Y1477688*
X4874033Y1478902*
X4877272Y1480345*
X4880401Y1482008*
X4883409Y1483888*
X4886279Y1485971*
X4888994Y1488252*
X4891544Y1490713*
X4893917Y1493349*
X4896101Y1496143*
X4898082Y1499082*
X4899855Y1502153*
X490141Y1505341*
X4902738Y1508627*
X4903835Y1512001*
X4904691Y151544*
X4905308Y1518932*
X4905679Y1522458*
X4905801Y1526001*
Y1780001D02*
D01*
X4905679Y1783547*
X4905308Y1787072*
X4904691Y1790565*
X4903835Y1794004*
X4902738Y1797377*
X490141Y1800664*
X4899855Y1803852*
X4898082Y1806922*
X4896101Y1809861*
X4893917Y1812655*
X4891544Y1815292*
X4888994Y1817753*
X4886279Y1820034*
X4883409Y1822117*
X4880401Y1823996*
X4877272Y182566*
X4874033Y1827103*
X4870701Y1828317*
X4867292Y1829292*
X4863823Y1830031*
X4860312Y1830524*
X4856774Y1830771*
X4853228*
X4849693Y1830524*
X484618Y1830031*
X4842713Y1829292*
X4839304Y1828317*
X4835972Y1827103*
X4832733Y182566*
X4829601Y1823996*
X4826596Y1822117*
X4823726Y1820034*
X4821011Y1817753*
X4818461Y1815292*
X4816088Y1812655*
X4813904Y1809861*
X481192Y1806922*
X4810147Y1803852*
X4808593Y1800664*
X4807267Y1797377*
X480617Y1794004*
X4805311Y1790565*
X4804697Y1787072*
X4804326Y1783547*
X4804201Y1780001*
X4804326Y1776458*
X4804697Y1772932*
X4805311Y176944*
X480617Y1766001*
X4807267Y1762627*
X4808593Y1759341*
X4810147Y1756153*
X481192Y1753082*
X4813904Y1750143*
X4816088Y1747349*
X4818461Y1744713*
X4821011Y1742252*
X4823726Y1739971*
X4826596Y1737888*
X4829601Y1736008*
X4832733Y1734345*
X4835972Y1732902*
X4839304Y1731688*
X4842713Y1730712*
X484618Y1729973*
X4849693Y172948*
X4853228Y1729234*
X4856774*
X4860312Y172948*
X4863823Y1729973*
X4867292Y1730712*
X4870701Y1731688*
X4874033Y1732902*
X4877272Y1734345*
X4880401Y1736008*
X4883409Y1737888*
X4886279Y1739971*
X4888994Y1742252*
X4891544Y1744713*
X4893917Y1747349*
X4896101Y1750143*
X4898082Y1753082*
X4899855Y1756153*
X490141Y1759341*
X4902738Y1762627*
X4903835Y1766001*
X4904691Y176944*
X4905308Y1772932*
X4905679Y1776458*
X4905801Y1780001*
X1958799Y0499999D02*
D01*
X1958675Y0503542*
X1958304Y0507067*
X1957689Y051056*
X1956831Y0514002*
X1955733Y0517372*
X1954408Y0520661*
X1952853Y0523847*
X195108Y0526917*
X1949096Y0529859*
X1946912Y0532653*
X194454Y0535287*
X194199Y0537751*
X1939274Y0540029*
X1936404Y0542114*
X1933399Y0543991*
X1930267Y0545658*
X1927029Y05471*
X1923696Y0548312*
X1920288Y054929*
X1916821Y0550026*
X1913308Y0550519*
X1909772Y0550768*
X1906226*
X1902688Y0550519*
X1899178Y0550026*
X1895708Y054929*
X18923Y0548312*
X1888967Y05471*
X1885729Y0545658*
X1882599Y0543991*
X1879592Y0542114*
X1876722Y0540029*
X1874006Y0537751*
X1871456Y0535287*
X1869084Y0532653*
X18669Y0529859*
X1864918Y0526917*
X1863145Y0523847*
X1861591Y0520661*
X1860262Y0517372*
X1859165Y0514002*
X1858309Y051056*
X1857692Y0507067*
X1857321Y0503542*
X1857199Y0499999*
X1857321Y0496455*
X1857692Y0492927*
X1858309Y0489437*
X1859165Y0485995*
X1860262Y0482622*
X1861591Y0479336*
X1863145Y0476148*
X1864918Y047308*
X18669Y0470138*
X1869084Y0467344*
X1871456Y046471*
X1874006Y0462246*
X1876722Y0459968*
X1879592Y0457883*
X1882599Y0456003*
X1885729Y0454339*
X1888967Y0452897*
X18923Y0451685*
X1895708Y0450707*
X1899178Y0449971*
X1902688Y0449475*
X1906226Y0449229*
X1909772*
X1913308Y0449475*
X1916821Y0449971*
X1920288Y0450707*
X1923696Y0451685*
X1927029Y0452897*
X1930267Y0454339*
X1933399Y0456003*
X1936404Y0457883*
X1939274Y0459968*
X194199Y0462246*
X194454Y046471*
X1946912Y0467344*
X1949096Y0470138*
X195108Y047308*
X1952853Y0476148*
X1954408Y0479336*
X1955733Y0482622*
X1956831Y0485995*
X1957689Y0489437*
X1958304Y0492927*
X1958675Y0496455*
X1958799Y0499999*
X1704799D02*
D01*
X1704675Y0503542*
X1704304Y0507067*
X1703689Y051056*
X1702831Y0514002*
X1701733Y0517372*
X1700408Y0520661*
X1698853Y0523847*
X169708Y0526917*
X1695096Y0529859*
X1692912Y0532653*
X169054Y0535287*
X168799Y0537751*
X1685274Y0540029*
X1682404Y0542114*
X1679399Y0543991*
X1676267Y0545658*
X1673029Y05471*
X1669696Y0548312*
X1666288Y054929*
X1662821Y0550026*
X1659308Y0550519*
X1655772Y0550768*
X1652226*
X1648688Y0550519*
X1645178Y0550026*
X1641708Y054929*
X16383Y0548312*
X1634967Y05471*
X1631729Y0545658*
X1628599Y0543991*
X1625592Y0542114*
X1622722Y0540029*
X1620006Y0537751*
X1617456Y0535287*
X1615084Y0532653*
X16129Y0529859*
X1610918Y0526917*
X1609145Y0523847*
X1607591Y0520661*
X1606262Y0517372*
X1605165Y0514002*
X1604309Y051056*
X1603692Y0507067*
X1603321Y0503542*
X1603199Y0499999*
X1603321Y0496455*
X1603692Y0492927*
X1604309Y0489437*
X1605165Y0485995*
X1606262Y0482622*
X1607591Y0479336*
X1609145Y0476148*
X1610918Y047308*
X16129Y0470138*
X1615084Y0467344*
X1617456Y046471*
X1620006Y0462246*
X1622722Y0459968*
X1625592Y0457883*
X1628599Y0456003*
X1631729Y0454339*
X1634967Y0452897*
X16383Y0451685*
X1641708Y0450707*
X1645178Y0449971*
X1648688Y0449475*
X1652226Y0449229*
X1655772*
X1659308Y0449475*
X1662821Y0449971*
X1666288Y0450707*
X1669696Y0451685*
X1673029Y0452897*
X1676267Y0454339*
X1679399Y0456003*
X1682404Y0457883*
X1685274Y0459968*
X168799Y0462246*
X169054Y046471*
X1692912Y0467344*
X1695096Y0470138*
X169708Y047308*
X1698853Y0476148*
X1700408Y0479336*
X1701733Y0482622*
X1702831Y0485995*
X1703689Y0489437*
X1704304Y0492927*
X1704675Y0496455*
X1704799Y0499999*
X1450799D02*
D01*
X1450675Y0503542*
X1450304Y0507067*
X1449689Y051056*
X1448831Y0514002*
X1447733Y0517372*
X1446408Y0520661*
X1444853Y0523847*
X144308Y0526917*
X1441096Y0529859*
X1438912Y0532653*
X143654Y0535287*
X143399Y0537751*
X1431274Y0540029*
X1428404Y0542114*
X1425399Y0543991*
X1422267Y0545658*
X1419029Y05471*
X1415696Y0548312*
X1412288Y054929*
X1408821Y0550026*
X1405308Y0550519*
X1401772Y0550768*
X1398226*
X1394688Y0550519*
X1391178Y0550026*
X1387708Y054929*
X13843Y0548312*
X1380967Y05471*
X1377729Y0545658*
X1374599Y0543991*
X1371592Y0542114*
X1368722Y0540029*
X1366006Y0537751*
X1363456Y0535287*
X1361084Y0532653*
X13589Y0529859*
X1356918Y0526917*
X1355145Y0523847*
X1353591Y0520661*
X1352262Y0517372*
X1351165Y0514002*
X1350309Y051056*
X1349692Y0507067*
X1349321Y0503542*
X1349199Y0499999*
X1349321Y0496455*
X1349692Y0492927*
X1350309Y0489437*
X1351165Y0485995*
X1352262Y0482622*
X1353591Y0479336*
X1355145Y0476148*
X1356918Y047308*
X13589Y0470138*
X1361084Y0467344*
X1363456Y046471*
X1366006Y0462246*
X1368722Y0459968*
X1371592Y0457883*
X1374599Y0456003*
X1377729Y0454339*
X1380967Y0452897*
X13843Y0451685*
X1387708Y0450707*
X1391178Y0449971*
X1394688Y0449475*
X1398226Y0449229*
X1401772*
X1405308Y0449475*
X1408821Y0449971*
X1412288Y0450707*
X1415696Y0451685*
X1419029Y0452897*
X1422267Y0454339*
X1425399Y0456003*
X1428404Y0457883*
X1431274Y0459968*
X143399Y0462246*
X143654Y046471*
X1438912Y0467344*
X1441096Y0470138*
X144308Y047308*
X1444853Y0476148*
X1446408Y0479336*
X1447733Y0482622*
X1448831Y0485995*
X1449689Y0489437*
X1450304Y0492927*
X1450675Y0496455*
X1450799Y0499999*
X1196799D02*
D01*
X1196675Y0503542*
X1196304Y0507067*
X1195689Y051056*
X1194831Y0514002*
X1193733Y0517372*
X1192408Y0520661*
X1190853Y0523847*
X118908Y0526917*
X1187096Y0529859*
X1184912Y0532653*
X118254Y0535287*
X117999Y0537751*
X1177274Y0540029*
X1174404Y0542114*
X1171399Y0543991*
X1168267Y0545658*
X1165029Y05471*
X1161696Y0548312*
X1158288Y054929*
X1154821Y0550026*
X1151308Y0550519*
X1147772Y0550768*
X1144226*
X1140688Y0550519*
X1137178Y0550026*
X1133708Y054929*
X11303Y0548312*
X1126967Y05471*
X1123729Y0545658*
X1120599Y0543991*
X1117592Y0542114*
X1114722Y0540029*
X1112006Y0537751*
X1109456Y0535287*
X1107084Y0532653*
X11049Y0529859*
X1102918Y0526917*
X1101145Y0523847*
X1099591Y0520661*
X1098262Y0517372*
X1097165Y0514002*
X1096309Y051056*
X1095692Y0507067*
X1095321Y0503542*
X1095199Y0499999*
X1095321Y0496455*
X1095692Y0492927*
X1096309Y0489437*
X1097165Y0485995*
X1098262Y0482622*
X1099591Y0479336*
X1101145Y0476148*
X1102918Y047308*
X11049Y0470138*
X1107084Y0467344*
X1109456Y046471*
X1112006Y0462246*
X1114722Y0459968*
X1117592Y0457883*
X1120599Y0456003*
X1123729Y0454339*
X1126967Y0452897*
X11303Y0451685*
X1133708Y0450707*
X1137178Y0449971*
X1140688Y0449475*
X1144226Y0449229*
X1147772*
X1151308Y0449475*
X1154821Y0449971*
X1158288Y0450707*
X1161696Y0451685*
X1165029Y0452897*
X1168267Y0454339*
X1171399Y0456003*
X1174404Y0457883*
X1177274Y0459968*
X117999Y0462246*
X118254Y046471*
X1184912Y0467344*
X1187096Y0470138*
X118908Y047308*
X1190853Y0476148*
X1192408Y0479336*
X1193733Y0482622*
X1194831Y0485995*
X1195689Y0489437*
X1196304Y0492927*
X1196675Y0496455*
X1196799Y0499999*
X0450799Y2799999D02*
D01*
X0450674Y2803542*
X0450303Y2807068*
X0449689Y281056*
X044883Y2813999*
X0447735Y2817373*
X0446407Y2820659*
X0444853Y2823847*
X044308Y2826918*
X0441096Y2829857*
X0438914Y2832651*
X0436542Y2835287*
X0433989Y2837751*
X0431274Y2840029*
X0428406Y2842112*
X0425399Y2843992*
X0422267Y2845658*
X0419028Y2847098*
X0415696Y2848312*
X0412287Y284929*
X040882Y2850027*
X0405307Y285052*
X0401772Y2850769*
X0398226*
X0394688Y285052*
X0391177Y2850027*
X0387708Y284929*
X0384299Y2848312*
X0380969Y2847098*
X0377728Y2845658*
X0374599Y2843992*
X0371591Y2842112*
X0368724Y2840029*
X0366006Y2837751*
X0363456Y2835287*
X0361083Y2832651*
X0358899Y2829857*
X0356918Y2826918*
X0355145Y2823847*
X035359Y2820659*
X0352262Y2817373*
X0351167Y2813999*
X0350309Y281056*
X0349691Y2807068*
X0349323Y2803542*
X0349199Y2799999*
X0349323Y2796456*
X0349691Y2792928*
X0350309Y2789435*
X0351167Y2785996*
X0352262Y2782623*
X035359Y2779336*
X0355145Y2776148*
X0356918Y2773078*
X0358899Y2770139*
X0361083Y2767345*
X0363456Y2764711*
X0366006Y2762247*
X0368724Y2759966*
X0371591Y2757883*
X0374599Y2756004*
X0377728Y275434*
X0380969Y2752897*
X0384299Y2751686*
X0387708Y2750708*
X0391177Y2749971*
X0394688Y2749476*
X0398226Y2749229*
X0401772*
X0405307Y2749476*
X040882Y2749971*
X0412287Y2750708*
X0415696Y2751686*
X0419028Y2752897*
X0422267Y275434*
X0425399Y2756004*
X0428406Y2757883*
X0431274Y2759966*
X0433989Y2762247*
X0436542Y2764711*
X0438914Y2767345*
X0441096Y2770139*
X044308Y2773078*
X0444853Y2776148*
X0446407Y2779336*
X0447735Y2782623*
X044883Y2785996*
X0449689Y2789435*
X0450303Y2792928*
X0450674Y2796456*
X0450799Y2799999*
Y2545999D02*
D01*
X0450674Y2549542*
X0450303Y2553068*
X0449689Y255656*
X044883Y2559999*
X0447735Y2563373*
X0446407Y2566659*
X0444853Y2569847*
X044308Y2572918*
X0441096Y2575857*
X0438914Y2578651*
X0436542Y2581287*
X0433989Y2583751*
X0431274Y2586029*
X0428406Y2588112*
X0425399Y2589992*
X0422267Y2591658*
X0419028Y2593098*
X0415696Y2594312*
X0412287Y259529*
X040882Y2596027*
X0405307Y259652*
X0401772Y2596769*
X0398226*
X0394688Y259652*
X0391177Y2596027*
X0387708Y259529*
X0384299Y2594312*
X0380969Y2593098*
X0377728Y2591658*
X0374599Y2589992*
X0371591Y2588112*
X0368724Y2586029*
X0366006Y2583751*
X0363456Y2581287*
X0361083Y2578651*
X0358899Y2575857*
X0356918Y2572918*
X0355145Y2569847*
X035359Y2566659*
X0352262Y2563373*
X0351167Y2559999*
X0350309Y255656*
X0349691Y2553068*
X0349323Y2549542*
X0349199Y2545999*
X0349323Y2542456*
X0349691Y2538928*
X0350309Y2535435*
X0351167Y2531996*
X0352262Y2528623*
X035359Y2525336*
X0355145Y2522148*
X0356918Y2519078*
X0358899Y2516139*
X0361083Y2513345*
X0363456Y2510711*
X0366006Y2508247*
X0368724Y2505966*
X0371591Y2503883*
X0374599Y2502004*
X0377728Y250034*
X0380969Y2498897*
X0384299Y2497686*
X0387708Y2496708*
X0391177Y2495971*
X0394688Y2495476*
X0398226Y2495229*
X0401772*
X0405307Y2495476*
X040882Y2495971*
X0412287Y2496708*
X0415696Y2497686*
X0419028Y2498897*
X0422267Y250034*
X0425399Y2502004*
X0428406Y2503883*
X0431274Y2505966*
X0433989Y2508247*
X0436542Y2510711*
X0438914Y2513345*
X0441096Y2516139*
X044308Y2519078*
X0444853Y2522148*
X0446407Y2525336*
X0447735Y2528623*
X044883Y2531996*
X0449689Y2535435*
X0450303Y2538928*
X0450674Y2542456*
X0450799Y2545999*
X2495303Y3544999D02*
D01*
X2495179Y3548542*
X2494808Y355207*
X2494193Y355556*
X2493335Y3559002*
X249224Y3562375*
X2490911Y3565662*
X2489357Y3568849*
X2487584Y357192*
X24856Y3574859*
X2483418Y3577653*
X2481046Y3580287*
X2478496Y3582751*
X2475778Y3585029*
X247291Y3587115*
X2469903Y3588994*
X2466771Y3590658*
X2463533Y3592101*
X24602Y3593312*
X2456792Y359429*
X2453325Y3595027*
X2449814Y3595522*
X2446276Y3595768*
X244273*
X2439192Y3595522*
X2435682Y3595027*
X2432215Y359429*
X2428806Y3593312*
X2425473Y3592101*
X2422235Y3590658*
X2419103Y3588994*
X2416096Y3587115*
X2413228Y3585029*
X241051Y3582751*
X240796Y3580287*
X2405588Y3577653*
X2403406Y3574859*
X2401422Y357192*
X2399649Y3568849*
X2398095Y3565662*
X2396766Y3562375*
X2395672Y3559002*
X2394813Y355556*
X2394198Y355207*
X2393828Y3548542*
X2393703Y3544999*
X2393828Y3541455*
X2394198Y353793*
X2394813Y3534437*
X2395672Y3530996*
X2396766Y3527625*
X2398095Y3524336*
X2399649Y3521151*
X2401422Y351808*
X2403406Y3515139*
X2405588Y3512345*
X240796Y3509711*
X241051Y3507247*
X2413228Y3504968*
X2416096Y3502883*
X2419103Y3501006*
X2422235Y349934*
X2425473Y34979*
X2428806Y3496685*
X2432215Y3495708*
X2435682Y3494971*
X2439192Y3494478*
X244273Y3494229*
X2446276*
X2449814Y3494478*
X2453325Y3494971*
X2456792Y3495708*
X24602Y3496685*
X2463533Y34979*
X2466771Y349934*
X2469903Y3501006*
X247291Y3502883*
X2475778Y3504968*
X2478496Y3507247*
X2481046Y3509711*
X2483418Y3512345*
X24856Y3515139*
X2487584Y351808*
X2489357Y3521151*
X2490911Y3524336*
X249224Y3527625*
X2493335Y3530996*
X2494193Y3534437*
X2494808Y353793*
X2495179Y3541455*
X2495303Y3544999*
Y3798999D02*
D01*
X2495179Y3802542*
X2494808Y380607*
X2494193Y380956*
X2493335Y3813002*
X249224Y3816375*
X2490911Y3819662*
X2489357Y3822849*
X2487584Y382592*
X24856Y3828859*
X2483418Y3831653*
X2481046Y3834287*
X2478496Y3836751*
X2475778Y3839029*
X247291Y3841115*
X2469903Y3842994*
X2466771Y3844658*
X2463533Y3846101*
X24602Y3847312*
X2456792Y384829*
X2453325Y3849027*
X2449814Y3849522*
X2446276Y3849768*
X244273*
X2439192Y3849522*
X2435682Y3849027*
X2432215Y384829*
X2428806Y3847312*
X2425473Y3846101*
X2422235Y3844658*
X2419103Y3842994*
X2416096Y3841115*
X2413228Y3839029*
X241051Y3836751*
X240796Y3834287*
X2405588Y3831653*
X2403406Y3828859*
X2401422Y382592*
X2399649Y3822849*
X2398095Y3819662*
X2396766Y3816375*
X2395672Y3813002*
X2394813Y380956*
X2394198Y380607*
X2393828Y3802542*
X2393703Y3798999*
X2393828Y3795455*
X2394198Y379193*
X2394813Y3788437*
X2395672Y3784996*
X2396766Y3781625*
X2398095Y3778336*
X2399649Y3775151*
X2401422Y377208*
X2403406Y3769139*
X2405588Y3766345*
X240796Y3763711*
X241051Y3761247*
X2413228Y3758968*
X2416096Y3756883*
X2419103Y3755006*
X2422235Y375334*
X2425473Y37519*
X2428806Y3750685*
X2432215Y3749708*
X2435682Y3748971*
X2439192Y3748478*
X244273Y3748229*
X2446276*
X2449814Y3748478*
X2453325Y3748971*
X2456792Y3749708*
X24602Y3750685*
X2463533Y37519*
X2466771Y375334*
X2469903Y3755006*
X247291Y3756883*
X2475778Y3758968*
X2478496Y3761247*
X2481046Y3763711*
X2483418Y3766345*
X24856Y3769139*
X2487584Y377208*
X2489357Y3775151*
X2490911Y3778336*
X249224Y3781625*
X2493335Y3784996*
X2494193Y3788437*
X2494808Y379193*
X2495179Y3795455*
X2495303Y3798999*
Y4052999D02*
D01*
X2495179Y4056542*
X2494808Y406007*
X2494193Y406356*
X2493335Y4067002*
X249224Y4070375*
X2490911Y4073662*
X2489357Y4076849*
X2487584Y407992*
X24856Y4082859*
X2483418Y4085653*
X2481046Y4088287*
X2478496Y4090751*
X2475778Y4093029*
X247291Y4095115*
X2469903Y4096994*
X2466771Y4098658*
X2463533Y4100101*
X24602Y4101312*
X2456792Y410229*
X2453325Y4103027*
X2449814Y4103522*
X2446276Y4103768*
X244273*
X2439192Y4103522*
X2435682Y4103027*
X2432215Y410229*
X2428806Y4101312*
X2425473Y4100101*
X2422235Y4098658*
X2419103Y4096994*
X2416096Y4095115*
X2413228Y4093029*
X241051Y4090751*
X240796Y4088287*
X2405588Y4085653*
X2403406Y4082859*
X2401422Y407992*
X2399649Y4076849*
X2398095Y4073662*
X2396766Y4070375*
X2395672Y4067002*
X2394813Y406356*
X2394198Y406007*
X2393828Y4056542*
X2393703Y4052999*
X2393828Y4049455*
X2394198Y404593*
X2394813Y4042437*
X2395672Y4038996*
X2396766Y4035625*
X2398095Y4032336*
X2399649Y4029151*
X2401422Y402608*
X2403406Y4023139*
X2405588Y4020345*
X240796Y4017711*
X241051Y4015247*
X2413228Y4012968*
X2416096Y4010883*
X2419103Y4009006*
X2422235Y400734*
X2425473Y40059*
X2428806Y4004685*
X2432215Y4003708*
X2435682Y4002971*
X2439192Y4002478*
X244273Y4002229*
X2446276*
X2449814Y4002478*
X2453325Y4002971*
X2456792Y4003708*
X24602Y4004685*
X2463533Y40059*
X2466771Y400734*
X2469903Y4009006*
X247291Y4010883*
X2475778Y4012968*
X2478496Y4015247*
X2481046Y4017711*
X2483418Y4020345*
X24856Y4023139*
X2487584Y402608*
X2489357Y4029151*
X2490911Y4032336*
X249224Y4035625*
X2493335Y4038996*
X2494193Y4042437*
X2494808Y404593*
X2495179Y4049455*
X2495303Y4052999*
X0400799Y1449999D02*
D01*
X0400674Y1453542*
X0400304Y1457068*
X0399689Y146056*
X039883Y1464*
X0397736Y1467373*
X0396407Y147066*
X0394853Y1473847*
X039308Y1476918*
X0391096Y1479857*
X0388914Y1482651*
X0386542Y1485287*
X0383989Y1487751*
X0381274Y149003*
X0378406Y1492112*
X0375399Y1493992*
X0372267Y1495658*
X0369028Y1497098*
X0365696Y1498312*
X0362287Y149929*
X035882Y1500027*
X0355307Y150052*
X0351772Y1500766*
X0348226*
X0344688Y150052*
X0341177Y1500027*
X0337708Y149929*
X0334299Y1498312*
X0330969Y1497098*
X0327728Y1495658*
X0324599Y1493992*
X0321591Y1492112*
X0318724Y149003*
X0316006Y1487751*
X0313456Y1485287*
X0311083Y1482651*
X0308899Y1479857*
X0306918Y1476918*
X0305145Y1473847*
X030359Y147066*
X0302262Y1467373*
X0301167Y1464*
X0300309Y146056*
X0299692Y1457068*
X0299321Y1453542*
X0299199Y1449999*
X0299321Y1446456*
X0299692Y1442928*
X0300309Y1439435*
X0301167Y1435996*
X0302262Y1432623*
X030359Y1429336*
X0305145Y1426149*
X0306918Y1423078*
X0308899Y1420139*
X0311083Y1417345*
X0313456Y1414708*
X0316006Y1412247*
X0318724Y1409966*
X0321591Y1407883*
X0324599Y1406004*
X0327728Y140434*
X0330969Y1402897*
X0334299Y1401686*
X0337708Y1400708*
X0341177Y1399969*
X0344688Y1399476*
X0348226Y139923*
X0351772*
X0355307Y1399476*
X035882Y1399969*
X0362287Y1400708*
X0365696Y1401686*
X0369028Y1402897*
X0372267Y140434*
X0375399Y1406004*
X0378406Y1407883*
X0381274Y1409966*
X0383989Y1412247*
X0386542Y1414708*
X0388914Y1417345*
X0391096Y1420139*
X039308Y1423078*
X0394853Y1426149*
X0396407Y1429336*
X0397736Y1432623*
X039883Y1435996*
X0399689Y1439435*
X0400304Y1442928*
X0400674Y1446456*
X0400799Y1449999*
Y1703999D02*
D01*
X0400674Y1707542*
X0400304Y1711068*
X0399689Y171456*
X039883Y1718*
X0397736Y1721373*
X0396407Y172466*
X0394853Y1727847*
X039308Y1730918*
X0391096Y1733857*
X0388914Y1736651*
X0386542Y1739287*
X0383989Y1741751*
X0381274Y174403*
X0378406Y1746112*
X0375399Y1747992*
X0372267Y1749658*
X0369028Y1751098*
X0365696Y1752312*
X0362287Y175329*
X035882Y1754027*
X0355307Y175452*
X0351772Y1754766*
X0348226*
X0344688Y175452*
X0341177Y1754027*
X0337708Y175329*
X0334299Y1752312*
X0330969Y1751098*
X0327728Y1749658*
X0324599Y1747992*
X0321591Y1746112*
X0318724Y174403*
X0316006Y1741751*
X0313456Y1739287*
X0311083Y1736651*
X0308899Y1733857*
X0306918Y1730918*
X0305145Y1727847*
X030359Y172466*
X0302262Y1721373*
X0301167Y1718*
X0300309Y171456*
X0299692Y1711068*
X0299321Y1707542*
X0299199Y1703999*
X0299321Y1700456*
X0299692Y1696928*
X0300309Y1693435*
X0301167Y1689996*
X0302262Y1686623*
X030359Y1683336*
X0305145Y1680149*
X0306918Y1677078*
X0308899Y1674139*
X0311083Y1671345*
X0313456Y1668708*
X0316006Y1666247*
X0318724Y1663966*
X0321591Y1661883*
X0324599Y1660004*
X0327728Y165834*
X0330969Y1656897*
X0334299Y1655686*
X0337708Y1654708*
X0341177Y1653969*
X0344688Y1653476*
X0348226Y165323*
X0351772*
X0355307Y1653476*
X035882Y1653969*
X0362287Y1654708*
X0365696Y1655686*
X0369028Y1656897*
X0372267Y165834*
X0375399Y1660004*
X0378406Y1661883*
X0381274Y1663966*
X0383989Y1666247*
X0386542Y1668708*
X0388914Y1671345*
X0391096Y1674139*
X039308Y1677078*
X0394853Y1680149*
X0396407Y1683336*
X0397736Y1686623*
X039883Y1689996*
X0399689Y1693435*
X0400304Y1696928*
X0400674Y1700456*
X0400799Y1703999*
Y0195999D02*
D01*
X0400674Y0199542*
X0400304Y0203067*
X0399689Y020656*
X039883Y0210002*
X0397736Y0213372*
X0396407Y0216662*
X0394853Y0219847*
X039308Y0222918*
X0391096Y0225859*
X0388914Y0228653*
X0386542Y0231287*
X0383989Y0233751*
X0381274Y0236029*
X0378406Y0238114*
X0375399Y0239991*
X0372267Y0241658*
X0369028Y02431*
X0365696Y0244312*
X0362287Y024529*
X035882Y0246026*
X0355307Y0246519*
X0351772Y0246768*
X0348226*
X0344688Y0246519*
X0341177Y0246026*
X0337708Y024529*
X0334299Y0244312*
X0330969Y02431*
X0327728Y0241658*
X0324599Y0239991*
X0321591Y0238114*
X0318724Y0236029*
X0316006Y0233751*
X0313456Y0231287*
X0311083Y0228653*
X0308899Y0225859*
X0306918Y0222918*
X0305145Y0219847*
X030359Y0216662*
X0302262Y0213372*
X0301167Y0210002*
X0300309Y020656*
X0299692Y0203067*
X0299321Y0199542*
X0299199Y0195999*
X0299321Y0192455*
X0299692Y0188927*
X0300309Y0185437*
X0301167Y0181996*
X0302262Y0178622*
X030359Y0175336*
X0305145Y0172148*
X0306918Y0169077*
X0308899Y0166138*
X0311083Y0163344*
X0313456Y016071*
X0316006Y0158247*
X0318724Y0155968*
X0321591Y0153883*
X0324599Y0152003*
X0327728Y015034*
X0330969Y0148897*
X0334299Y0147685*
X0337708Y0146707*
X0341177Y0145971*
X0344688Y0145475*
X0348226Y0145229*
X0351772*
X0355307Y0145475*
X035882Y0145971*
X0362287Y0146707*
X0365696Y0147685*
X0369028Y0148897*
X0372267Y015034*
X0375399Y0152003*
X0378406Y0153883*
X0381274Y0155968*
X0383989Y0158247*
X0386542Y016071*
X0388914Y0163344*
X0391096Y0166138*
X039308Y0169077*
X0394853Y0172148*
X0396407Y0175336*
X0397736Y0178622*
X039883Y0181996*
X0399689Y0185437*
X0400304Y0188927*
X0400674Y0192455*
X0400799Y0195999*
Y0449999D02*
D01*
X0400674Y0453542*
X0400304Y0457067*
X0399689Y046056*
X039883Y0464002*
X0397736Y0467372*
X0396407Y0470662*
X0394853Y0473847*
X039308Y0476918*
X0391096Y0479859*
X0388914Y0482653*
X0386542Y0485287*
X0383989Y0487751*
X0381274Y0490029*
X0378406Y0492114*
X0375399Y0493991*
X0372267Y0495658*
X0369028Y04971*
X0365696Y0498312*
X0362287Y049929*
X035882Y0500026*
X0355307Y0500519*
X0351772Y0500768*
X0348226*
X0344688Y0500519*
X0341177Y0500026*
X0337708Y049929*
X0334299Y0498312*
X0330969Y04971*
X0327728Y0495658*
X0324599Y0493991*
X0321591Y0492114*
X0318724Y0490029*
X0316006Y0487751*
X0313456Y0485287*
X0311083Y0482653*
X0308899Y0479859*
X0306918Y0476918*
X0305145Y0473847*
X030359Y0470662*
X0302262Y0467372*
X0301167Y0464002*
X0300309Y046056*
X0299692Y0457067*
X0299321Y0453542*
X0299199Y0449999*
X0299321Y0446455*
X0299692Y0442927*
X0300309Y0439437*
X0301167Y0435996*
X0302262Y0432622*
X030359Y0429336*
X0305145Y0426148*
X0306918Y0423077*
X0308899Y0420138*
X0311083Y0417344*
X0313456Y041471*
X0316006Y0412247*
X0318724Y0409968*
X0321591Y0407883*
X0324599Y0406003*
X0327728Y040434*
X0330969Y0402897*
X0334299Y0401685*
X0337708Y0400707*
X0341177Y0399971*
X0344688Y0399475*
X0348226Y0399229*
X0351772*
X0355307Y0399475*
X035882Y0399971*
X0362287Y0400707*
X0365696Y0401685*
X0369028Y0402897*
X0372267Y040434*
X0375399Y0406003*
X0378406Y0407883*
X0381274Y0409968*
X0383989Y0412247*
X0386542Y041471*
X0388914Y0417344*
X0391096Y0420138*
X039308Y0423077*
X0394853Y0426148*
X0396407Y0429336*
X0397736Y0432622*
X039883Y0435996*
X0399689Y0439437*
X0400304Y0442927*
X0400674Y0446455*
X0400799Y0449999*
X0337799Y3544999D02*
D01*
X0337675Y3548542*
X0337304Y355207*
X0336689Y355556*
X0335831Y3559002*
X0334733Y3562375*
X0333408Y3565662*
X0331853Y3568849*
X033008Y357192*
X0328096Y3574859*
X0325915Y3577653*
X032354Y3580287*
X0320989Y3582751*
X0318274Y3585029*
X0315404Y3587115*
X0312399Y3588994*
X0309267Y3590658*
X0306029Y3592101*
X0302696Y3593312*
X0299288Y359429*
X0295821Y3595027*
X0292308Y3595522*
X0288772Y3595768*
X0285226*
X0281688Y3595522*
X0278178Y3595027*
X0274708Y359429*
X0271299Y3593312*
X0267967Y3592101*
X0264728Y3590658*
X0261599Y3588994*
X0258592Y3587115*
X0255722Y3585029*
X0253006Y3582751*
X0250456Y3580287*
X0248084Y3577653*
X0245899Y3574859*
X0243918Y357192*
X0242145Y3568849*
X0240591Y3565662*
X0239262Y3562375*
X0238165Y3559002*
X0237309Y355556*
X0236692Y355207*
X0236321Y3548542*
X0236199Y3544999*
X0236321Y3541455*
X0236692Y353793*
X0237309Y3534437*
X0238165Y3530996*
X0239262Y3527625*
X0240591Y3524336*
X0242145Y3521151*
X0243918Y351808*
X0245899Y3515139*
X0248084Y3512345*
X0250456Y3509711*
X0253006Y3507247*
X0255722Y3504968*
X0258592Y3502883*
X0261599Y3501006*
X0264728Y349934*
X0267967Y34979*
X0271299Y3496685*
X0274708Y3495708*
X0278178Y3494971*
X0281688Y3494478*
X0285226Y3494229*
X0288772*
X0292308Y3494478*
X0295821Y3494971*
X0299288Y3495708*
X0302696Y3496685*
X0306029Y34979*
X0309267Y349934*
X0312399Y3501006*
X0315404Y3502883*
X0318274Y3504968*
X0320989Y3507247*
X032354Y3509711*
X0325915Y3512345*
X0328096Y3515139*
X033008Y351808*
X0331853Y3521151*
X0333408Y3524336*
X0334733Y3527625*
X0335831Y3530996*
X0336689Y3534437*
X0337304Y353793*
X0337675Y3541455*
X0337799Y3544999*
Y3798999D02*
D01*
X0337675Y3802542*
X0337304Y380607*
X0336689Y380956*
X0335831Y3813002*
X0334733Y3816375*
X0333408Y3819662*
X0331853Y3822849*
X033008Y382592*
X0328096Y3828859*
X0325915Y3831653*
X032354Y3834287*
X0320989Y3836751*
X0318274Y3839029*
X0315404Y3841115*
X0312399Y3842994*
X0309267Y3844658*
X0306029Y3846101*
X0302696Y3847312*
X0299288Y384829*
X0295821Y3849027*
X0292308Y3849522*
X0288772Y3849768*
X0285226*
X0281688Y3849522*
X0278178Y3849027*
X0274708Y384829*
X0271299Y3847312*
X0267967Y3846101*
X0264728Y3844658*
X0261599Y3842994*
X0258592Y3841115*
X0255722Y3839029*
X0253006Y3836751*
X0250456Y3834287*
X0248084Y3831653*
X0245899Y3828859*
X0243918Y382592*
X0242145Y3822849*
X0240591Y3819662*
X0239262Y3816375*
X0238165Y3813002*
X0237309Y380956*
X0236692Y380607*
X0236321Y3802542*
X0236199Y3798999*
X0236321Y3795455*
X0236692Y379193*
X0237309Y3788437*
X0238165Y3784996*
X0239262Y3781625*
X0240591Y3778336*
X0242145Y3775151*
X0243918Y377208*
X0245899Y3769139*
X0248084Y3766345*
X0250456Y3763711*
X0253006Y3761247*
X0255722Y3758968*
X0258592Y3756883*
X0261599Y3755006*
X0264728Y375334*
X0267967Y37519*
X0271299Y3750685*
X0274708Y3749708*
X0278178Y3748971*
X0281688Y3748478*
X0285226Y3748229*
X0288772*
X0292308Y3748478*
X0295821Y3748971*
X0299288Y3749708*
X0302696Y3750685*
X0306029Y37519*
X0309267Y375334*
X0312399Y3755006*
X0315404Y3756883*
X0318274Y3758968*
X0320989Y3761247*
X032354Y3763711*
X0325915Y3766345*
X0328096Y3769139*
X033008Y377208*
X0331853Y3775151*
X0333408Y3778336*
X0334733Y3781625*
X0335831Y3784996*
X0336689Y3788437*
X0337304Y379193*
X0337675Y3795455*
X0337799Y3798999*
Y4052999D02*
D01*
X0337675Y4056542*
X0337304Y406007*
X0336689Y406356*
X0335831Y4067002*
X0334733Y4070375*
X0333408Y4073662*
X0331853Y4076849*
X033008Y407992*
X0328096Y4082859*
X0325915Y4085653*
X032354Y4088287*
X0320989Y4090751*
X0318274Y4093029*
X0315404Y4095115*
X0312399Y4096994*
X0309267Y4098658*
X0306029Y4100101*
X0302696Y4101312*
X0299288Y410229*
X0295821Y4103027*
X0292308Y4103522*
X0288772Y4103768*
X0285226*
X0281688Y4103522*
X0278178Y4103027*
X0274708Y410229*
X0271299Y4101312*
X0267967Y4100101*
X0264728Y4098658*
X0261599Y4096994*
X0258592Y4095115*
X0255722Y4093029*
X0253006Y4090751*
X0250456Y4088287*
X0248084Y4085653*
X0245899Y4082859*
X0243918Y407992*
X0242145Y4076849*
X0240591Y4073662*
X0239262Y4070375*
X0238165Y4067002*
X0237309Y406356*
X0236692Y406007*
X0236321Y4056542*
X0236199Y4052999*
X0236321Y4049455*
X0236692Y404593*
X0237309Y4042437*
X0238165Y4038996*
X0239262Y4035625*
X0240591Y4032336*
X0242145Y4029151*
X0243918Y402608*
X0245899Y4023139*
X0248084Y4020345*
X0250456Y4017711*
X0253006Y4015247*
X0255722Y4012968*
X0258592Y4010883*
X0261599Y4009006*
X0264728Y400734*
X0267967Y40059*
X0271299Y4004685*
X0274708Y4003708*
X0278178Y4002971*
X0281688Y4002478*
X0285226Y4002229*
X0288772*
X0292308Y4002478*
X0295821Y4002971*
X0299288Y4003708*
X0302696Y4004685*
X0306029Y40059*
X0309267Y400734*
X0312399Y4009006*
X0315404Y4010883*
X0318274Y4012968*
X0320989Y4015247*
X032354Y4017711*
X0325915Y4020345*
X0328096Y4023139*
X033008Y402608*
X0331853Y4029151*
X0333408Y4032336*
X0334733Y4035625*
X0335831Y4038996*
X0336689Y4042437*
X0337304Y404593*
X0337675Y4049455*
X0337799Y4052999*
X3335497Y2925297D02*
D01*
X3335375Y2928843*
X3335004Y2932369*
X3334387Y2935861*
X3333531Y29393*
X3332434Y2942673*
X3331105Y294596*
X3329551Y2949148*
X3327778Y2952219*
X3325797Y2955157*
X3323612Y2957951*
X332124Y2960588*
X331869Y2963049*
X3315975Y296533*
X3313104Y2967413*
X3310097Y2969293*
X3306968Y2970956*
X3303729Y2972399*
X3300397Y2973613*
X3296988Y2974588*
X3293518Y2975328*
X3290008Y297582*
X328647Y2976067*
X3282924*
X3279388Y297582*
X3275878Y2975328*
X3272409Y2974588*
X3269Y2973613*
X3265667Y2972399*
X3262429Y2970956*
X3259297Y2969293*
X3256292Y2967413*
X3253422Y296533*
X3250707Y2963049*
X3248157Y2960588*
X3245784Y2957951*
X32436Y2955157*
X3241619Y2952219*
X3239846Y2949148*
X3238291Y294596*
X3236963Y2942673*
X3235866Y29393*
X323501Y2935861*
X3234392Y2932369*
X3234021Y2928843*
X3233897Y2925297*
X3234021Y2921754*
X3234392Y2918228*
X323501Y2914736*
X3235866Y2911297*
X3236963Y2907924*
X3238291Y2904637*
X3239846Y2901449*
X3241619Y2898378*
X32436Y2895439*
X3245784Y2892645*
X3248157Y2890009*
X3250707Y2887548*
X3253422Y2885267*
X3256292Y2883184*
X3259297Y2881304*
X3262429Y2879641*
X3265667Y2878198*
X3269Y2876984*
X3272409Y2876006*
X3275878Y2875269*
X3279388Y2874777*
X3282924Y287453*
X328647*
X3290008Y2874777*
X3293518Y2875269*
X3296988Y2876006*
X3300397Y2876984*
X3303729Y2878198*
X3306968Y2879641*
X3310097Y2881304*
X3313104Y2883184*
X3315975Y2885267*
X331869Y2887548*
X332124Y2890009*
X3323612Y2892645*
X3325797Y2895439*
X3327778Y2898378*
X3329551Y2901449*
X3331105Y2904637*
X3332434Y2907924*
X3333531Y2911297*
X3334387Y2914736*
X3335004Y2918228*
X3335375Y2921754*
X3335497Y2925297*
X3081497D02*
D01*
X3081375Y2928843*
X3081004Y2932369*
X3080387Y2935861*
X3079531Y29393*
X3078434Y2942673*
X3077105Y294596*
X3075551Y2949148*
X3073778Y2952219*
X3071797Y2955157*
X3069612Y2957951*
X306724Y2960588*
X306469Y2963049*
X3061975Y296533*
X3059104Y2967413*
X3056097Y2969293*
X3052968Y2970956*
X3049729Y2972399*
X3046397Y2973613*
X3042988Y2974588*
X3039518Y2975328*
X3036008Y297582*
X303247Y2976067*
X3028924*
X3025388Y297582*
X3021878Y2975328*
X3018409Y2974588*
X3015Y2973613*
X3011667Y2972399*
X3008429Y2970956*
X3005297Y2969293*
X3002292Y2967413*
X2999422Y296533*
X2996707Y2963049*
X2994157Y2960588*
X2991784Y2957951*
X29896Y2955157*
X2987619Y2952219*
X2985846Y2949148*
X2984291Y294596*
X2982963Y2942673*
X2981866Y29393*
X298101Y2935861*
X2980392Y2932369*
X2980021Y2928843*
X2979897Y2925297*
X2980021Y2921754*
X2980392Y2918228*
X298101Y2914736*
X2981866Y2911297*
X2982963Y2907924*
X2984291Y2904637*
X2985846Y2901449*
X2987619Y2898378*
X29896Y2895439*
X2991784Y2892645*
X2994157Y2890009*
X2996707Y2887548*
X2999422Y2885267*
X3002292Y2883184*
X3005297Y2881304*
X3008429Y2879641*
X3011667Y2878198*
X3015Y2876984*
X3018409Y2876006*
X3021878Y2875269*
X3025388Y2874777*
X3028924Y287453*
X303247*
X3036008Y2874777*
X3039518Y2875269*
X3042988Y2876006*
X3046397Y2876984*
X3049729Y2878198*
X3052968Y2879641*
X3056097Y2881304*
X3059104Y2883184*
X3061975Y2885267*
X306469Y2887548*
X306724Y2890009*
X3069612Y2892645*
X3071797Y2895439*
X3073778Y2898378*
X3075551Y2901449*
X3077105Y2904637*
X3078434Y2907924*
X3079531Y2911297*
X3080387Y2914736*
X3081004Y2918228*
X3081375Y2921754*
X3081497Y2925297*
X2827497D02*
D01*
X2827375Y2928843*
X2827004Y2932369*
X2826387Y2935861*
X2825531Y29393*
X2824434Y2942673*
X2823105Y294596*
X2821551Y2949148*
X2819778Y2952219*
X2817797Y2955157*
X2815612Y2957951*
X281324Y2960588*
X281069Y2963049*
X2807975Y296533*
X2805104Y2967413*
X2802097Y2969293*
X2798968Y2970956*
X2795729Y2972399*
X2792397Y2973613*
X2788988Y2974588*
X2785518Y2975328*
X2782008Y297582*
X277847Y2976067*
X2774924*
X2771388Y297582*
X2767878Y2975328*
X2764409Y2974588*
X2761Y2973613*
X2757667Y2972399*
X2754429Y2970956*
X2751297Y2969293*
X2748292Y2967413*
X2745422Y296533*
X2742707Y2963049*
X2740157Y2960588*
X2737784Y2957951*
X27356Y2955157*
X2733619Y2952219*
X2731846Y2949148*
X2730291Y294596*
X2728963Y2942673*
X2727866Y29393*
X272701Y2935861*
X2726392Y2932369*
X2726021Y2928843*
X2725897Y2925297*
X2726021Y2921754*
X2726392Y2918228*
X272701Y2914736*
X2727866Y2911297*
X2728963Y2907924*
X2730291Y2904637*
X2731846Y2901449*
X2733619Y2898378*
X27356Y2895439*
X2737784Y2892645*
X2740157Y2890009*
X2742707Y2887548*
X2745422Y2885267*
X2748292Y2883184*
X2751297Y2881304*
X2754429Y2879641*
X2757667Y2878198*
X2761Y2876984*
X2764409Y2876006*
X2767878Y2875269*
X2771388Y2874777*
X2774924Y287453*
X277847*
X2782008Y2874777*
X2785518Y2875269*
X2788988Y2876006*
X2792397Y2876984*
X2795729Y2878198*
X2798968Y2879641*
X2802097Y2881304*
X2805104Y2883184*
X2807975Y2885267*
X281069Y2887548*
X281324Y2890009*
X2815612Y2892645*
X2817797Y2895439*
X2819778Y2898378*
X2821551Y2901449*
X2823105Y2904637*
X2824434Y2907924*
X2825531Y2911297*
X2826387Y2914736*
X2827004Y2918228*
X2827375Y2921754*
X2827497Y2925297*
X2573497D02*
D01*
X2573375Y2928843*
X2573004Y2932369*
X2572387Y2935861*
X2571531Y29393*
X2570434Y2942673*
X2569105Y294596*
X2567551Y2949148*
X2565778Y2952219*
X2563797Y2955157*
X2561612Y2957951*
X255924Y2960588*
X255669Y2963049*
X2553975Y296533*
X2551104Y2967413*
X2548097Y2969293*
X2544968Y2970956*
X2541729Y2972399*
X2538397Y2973613*
X2534988Y2974588*
X2531518Y2975328*
X2528008Y297582*
X252447Y2976067*
X2520924*
X2517388Y297582*
X2513878Y2975328*
X2510409Y2974588*
X2507Y2973613*
X2503667Y2972399*
X2500429Y2970956*
X2497297Y2969293*
X2494292Y2967413*
X2491422Y296533*
X2488707Y2963049*
X2486157Y2960588*
X2483784Y2957951*
X24816Y2955157*
X2479619Y2952219*
X2477846Y2949148*
X2476291Y294596*
X2474963Y2942673*
X2473866Y29393*
X247301Y2935861*
X2472392Y2932369*
X2472021Y2928843*
X2471897Y2925297*
X2472021Y2921754*
X2472392Y2918228*
X247301Y2914736*
X2473866Y2911297*
X2474963Y2907924*
X2476291Y2904637*
X2477846Y2901449*
X2479619Y2898378*
X24816Y2895439*
X2483784Y2892645*
X2486157Y2890009*
X2488707Y2887548*
X2491422Y2885267*
X2494292Y2883184*
X2497297Y2881304*
X2500429Y2879641*
X2503667Y2878198*
X2507Y2876984*
X2510409Y2876006*
X2513878Y2875269*
X2517388Y2874777*
X2520924Y287453*
X252447*
X2528008Y2874777*
X2531518Y2875269*
X2534988Y2876006*
X2538397Y2876984*
X2541729Y2878198*
X2544968Y2879641*
X2548097Y2881304*
X2551104Y2883184*
X2553975Y2885267*
X255669Y2887548*
X255924Y2890009*
X2561612Y2892645*
X2563797Y2895439*
X2565778Y2898378*
X2567551Y2901449*
X2569105Y2904637*
X2570434Y2907924*
X2571531Y2911297*
X2572387Y2914736*
X2573004Y2918228*
X2573375Y2921754*
X2573497Y2925297*
X2319497D02*
D01*
X2319375Y2928843*
X2319004Y2932369*
X2318387Y2935861*
X2317531Y29393*
X2316434Y2942673*
X2315105Y294596*
X2313551Y2949148*
X2311778Y2952219*
X2309797Y2955157*
X2307612Y2957951*
X230524Y2960588*
X230269Y2963049*
X2299975Y296533*
X2297104Y2967413*
X2294097Y2969293*
X2290968Y2970956*
X2287729Y2972399*
X2284397Y2973613*
X2280988Y2974588*
X2277518Y2975328*
X2274008Y297582*
X227047Y2976067*
X2266924*
X2263388Y297582*
X2259878Y2975328*
X2256409Y2974588*
X2253Y2973613*
X2249667Y2972399*
X2246429Y2970956*
X2243297Y2969293*
X2240292Y2967413*
X2237422Y296533*
X2234707Y2963049*
X2232157Y2960588*
X2229784Y2957951*
X22276Y2955157*
X2225619Y2952219*
X2223846Y2949148*
X2222291Y294596*
X2220963Y2942673*
X2219866Y29393*
X221901Y2935861*
X2218392Y2932369*
X2218021Y2928843*
X2217897Y2925297*
X2218021Y2921754*
X2218392Y2918228*
X221901Y2914736*
X2219866Y2911297*
X2220963Y2907924*
X2222291Y2904637*
X2223846Y2901449*
X2225619Y2898378*
X22276Y2895439*
X2229784Y2892645*
X2232157Y2890009*
X2234707Y2887548*
X2237422Y2885267*
X2240292Y2883184*
X2243297Y2881304*
X2246429Y2879641*
X2249667Y2878198*
X2253Y2876984*
X2256409Y2876006*
X2259878Y2875269*
X2263388Y2874777*
X2266924Y287453*
X227047*
X2274008Y2874777*
X2277518Y2875269*
X2280988Y2876006*
X2284397Y2876984*
X2287729Y2878198*
X2290968Y2879641*
X2294097Y2881304*
X2297104Y2883184*
X2299975Y2885267*
X230269Y2887548*
X230524Y2890009*
X2307612Y2892645*
X2309797Y2895439*
X2311778Y2898378*
X2313551Y2901449*
X2315105Y2904637*
X2316434Y2907924*
X2317531Y2911297*
X2318387Y2914736*
X2319004Y2918228*
X2319375Y2921754*
X2319497Y2925297*
X1750799Y1441998D02*
D01*
X1750674Y1445541*
X1750303Y1449067*
X1749689Y1452559*
X174883Y1456001*
X1747735Y1459372*
X1746407Y1462661*
X1744853Y1465846*
X174308Y1468917*
X1741096Y1471858*
X1738914Y1474652*
X1736542Y1477286*
X1733989Y147975*
X1731274Y1482029*
X1728406Y1484114*
X1725399Y1485993*
X1722267Y1487657*
X1719028Y14891*
X1715696Y1490311*
X1712287Y1491289*
X170882Y1492026*
X1705307Y1492519*
X1701772Y1492768*
X1698226*
X1694688Y1492519*
X1691177Y1492026*
X1687708Y1491289*
X1684299Y1490311*
X1680969Y14891*
X1677728Y1487657*
X1674599Y1485993*
X1671591Y1484114*
X1668724Y1482029*
X1666006Y147975*
X1663456Y1477286*
X1661083Y1474652*
X1658899Y1471858*
X1656918Y1468917*
X1655145Y1465846*
X165359Y1462661*
X1652262Y1459372*
X1651167Y1456001*
X1650309Y1452559*
X1649691Y1449067*
X1649323Y1445541*
X1649199Y1441998*
X1649323Y1438455*
X1649691Y1434929*
X1650309Y1431437*
X1651167Y1427995*
X1652262Y1424625*
X165359Y1421335*
X1655145Y141815*
X1656918Y1415079*
X1658899Y1412138*
X1661083Y1409344*
X1663456Y140671*
X1666006Y1404246*
X1668724Y1401968*
X1671591Y1399882*
X1674599Y1398005*
X1677728Y1396339*
X1680969Y1394896*
X1684299Y1393685*
X1687708Y1392707*
X1691177Y139197*
X1694688Y1391478*
X1698226Y1391229*
X1701772*
X1705307Y1391478*
X170882Y139197*
X1712287Y1392707*
X1715696Y1393685*
X1719028Y1394896*
X1722267Y1396339*
X1725399Y1398005*
X1728406Y1399882*
X1731274Y1401968*
X1733989Y1404246*
X1736542Y140671*
X1738914Y1409344*
X1741096Y1412138*
X174308Y1415079*
X1744853Y141815*
X1746407Y1421335*
X1747735Y1424625*
X174883Y1427995*
X1749689Y1431437*
X1750303Y1434929*
X1750674Y1438455*
X1750799Y1441998*
Y1695998D02*
D01*
X1750674Y1699541*
X1750303Y1703067*
X1749689Y1706559*
X174883Y1710001*
X1747735Y1713372*
X1746407Y1716661*
X1744853Y1719846*
X174308Y1722917*
X1741096Y1725858*
X1738914Y1728652*
X1736542Y1731286*
X1733989Y173375*
X1731274Y1736029*
X1728406Y1738114*
X1725399Y1739993*
X1722267Y1741657*
X1719028Y17431*
X1715696Y1744311*
X1712287Y1745289*
X170882Y1746026*
X1705307Y1746519*
X1701772Y1746768*
X1698226*
X1694688Y1746519*
X1691177Y1746026*
X1687708Y1745289*
X1684299Y1744311*
X1680969Y17431*
X1677728Y1741657*
X1674599Y1739993*
X1671591Y1738114*
X1668724Y1736029*
X1666006Y173375*
X1663456Y1731286*
X1661083Y1728652*
X1658899Y1725858*
X1656918Y1722917*
X1655145Y1719846*
X165359Y1716661*
X1652262Y1713372*
X1651167Y1710001*
X1650309Y1706559*
X1649691Y1703067*
X1649323Y1699541*
X1649199Y1695998*
X1649323Y1692455*
X1649691Y1688929*
X1650309Y1685437*
X1651167Y1681995*
X1652262Y1678625*
X165359Y1675335*
X1655145Y167215*
X1656918Y1669079*
X1658899Y1666138*
X1661083Y1663344*
X1663456Y166071*
X1666006Y1658246*
X1668724Y1655968*
X1671591Y1653882*
X1674599Y1652005*
X1677728Y1650339*
X1680969Y1648896*
X1684299Y1647685*
X1687708Y1646707*
X1691177Y164597*
X1694688Y1645478*
X1698226Y1645229*
X1701772*
X1705307Y1645478*
X170882Y164597*
X1712287Y1646707*
X1715696Y1647685*
X1719028Y1648896*
X1722267Y1650339*
X1725399Y1652005*
X1728406Y1653882*
X1731274Y1655968*
X1733989Y1658246*
X1736542Y166071*
X1738914Y1663344*
X1741096Y1666138*
X174308Y1669079*
X1744853Y167215*
X1746407Y1675335*
X1747735Y1678625*
X174883Y1681995*
X1749689Y1685437*
X1750303Y1688929*
X1750674Y1692455*
X1750799Y1695998*
Y1949998D02*
D01*
X1750674Y1953541*
X1750303Y1957067*
X1749689Y1960559*
X174883Y1964001*
X1747735Y1967372*
X1746407Y1970661*
X1744853Y1973846*
X174308Y1976917*
X1741096Y1979858*
X1738914Y1982652*
X1736542Y1985286*
X1733989Y198775*
X1731274Y1990029*
X1728406Y1992114*
X1725399Y1993993*
X1722267Y1995657*
X1719028Y19971*
X1715696Y1998311*
X1712287Y1999289*
X170882Y2000026*
X1705307Y2000519*
X1701772Y2000768*
X1698226*
X1694688Y2000519*
X1691177Y2000026*
X1687708Y1999289*
X1684299Y1998311*
X1680969Y19971*
X1677728Y1995657*
X1674599Y1993993*
X1671591Y1992114*
X1668724Y1990029*
X1666006Y198775*
X1663456Y1985286*
X1661083Y1982652*
X1658899Y1979858*
X1656918Y1976917*
X1655145Y1973846*
X165359Y1970661*
X1652262Y1967372*
X1651167Y1964001*
X1650309Y1960559*
X1649691Y1957067*
X1649323Y1953541*
X1649199Y1949998*
X1649323Y1946455*
X1649691Y1942929*
X1650309Y1939437*
X1651167Y1935995*
X1652262Y1932625*
X165359Y1929335*
X1655145Y192615*
X1656918Y1923079*
X1658899Y1920138*
X1661083Y1917344*
X1663456Y191471*
X1666006Y1912246*
X1668724Y1909968*
X1671591Y1907882*
X1674599Y1906005*
X1677728Y1904339*
X1680969Y1902896*
X1684299Y1901685*
X1687708Y1900707*
X1691177Y189997*
X1694688Y1899478*
X1698226Y1899229*
X1701772*
X1705307Y1899478*
X170882Y189997*
X1712287Y1900707*
X1715696Y1901685*
X1719028Y1902896*
X1722267Y1904339*
X1725399Y1906005*
X1728406Y1907882*
X1731274Y1909968*
X1733989Y1912246*
X1736542Y191471*
X1738914Y1917344*
X1741096Y1920138*
X174308Y1923079*
X1744853Y192615*
X1746407Y1929335*
X1747735Y1932625*
X174883Y1935995*
X1749689Y1939437*
X1750303Y1942929*
X1750674Y1946455*
X1750799Y1949998*
Y2203998D02*
D01*
X1750674Y2207541*
X1750303Y2211067*
X1749689Y2214559*
X174883Y2218001*
X1747735Y2221372*
X1746407Y2224661*
X1744853Y2227846*
X174308Y2230917*
X1741096Y2233858*
X1738914Y2236652*
X1736542Y2239286*
X1733989Y224175*
X1731274Y2244029*
X1728406Y2246114*
X1725399Y2247993*
X1722267Y2249657*
X1719028Y22511*
X1715696Y2252311*
X1712287Y2253289*
X170882Y2254026*
X1705307Y2254519*
X1701772Y2254768*
X1698226*
X1694688Y2254519*
X1691177Y2254026*
X1687708Y2253289*
X1684299Y2252311*
X1680969Y22511*
X1677728Y2249657*
X1674599Y2247993*
X1671591Y2246114*
X1668724Y2244029*
X1666006Y224175*
X1663456Y2239286*
X1661083Y2236652*
X1658899Y2233858*
X1656918Y2230917*
X1655145Y2227846*
X165359Y2224661*
X1652262Y2221372*
X1651167Y2218001*
X1650309Y2214559*
X1649691Y2211067*
X1649323Y2207541*
X1649199Y2203998*
X1649323Y2200455*
X1649691Y2196929*
X1650309Y2193437*
X1651167Y2189995*
X1652262Y2186625*
X165359Y2183335*
X1655145Y218015*
X1656918Y2177079*
X1658899Y2174138*
X1661083Y2171344*
X1663456Y216871*
X1666006Y2166246*
X1668724Y2163968*
X1671591Y2161882*
X1674599Y2160005*
X1677728Y2158339*
X1680969Y2156896*
X1684299Y2155685*
X1687708Y2154707*
X1691177Y215397*
X1694688Y2153478*
X1698226Y2153229*
X1701772*
X1705307Y2153478*
X170882Y215397*
X1712287Y2154707*
X1715696Y2155685*
X1719028Y2156896*
X1722267Y2158339*
X1725399Y2160005*
X1728406Y2161882*
X1731274Y2163968*
X1733989Y2166246*
X1736542Y216871*
X1738914Y2171344*
X1741096Y2174138*
X174308Y2177079*
X1744853Y218015*
X1746407Y2183335*
X1747735Y2186625*
X174883Y2189995*
X1749689Y2193437*
X1750303Y2196929*
X1750674Y2200455*
X1750799Y2203998*
Y2457998D02*
D01*
X1750674Y2461541*
X1750303Y2465067*
X1749689Y2468559*
X174883Y2472001*
X1747735Y2475372*
X1746407Y2478661*
X1744853Y2481846*
X174308Y2484917*
X1741096Y2487858*
X1738914Y2490652*
X1736542Y2493286*
X1733989Y249575*
X1731274Y2498029*
X1728406Y2500114*
X1725399Y2501993*
X1722267Y2503657*
X1719028Y25051*
X1715696Y2506311*
X1712287Y2507289*
X170882Y2508026*
X1705307Y2508519*
X1701772Y2508768*
X1698226*
X1694688Y2508519*
X1691177Y2508026*
X1687708Y2507289*
X1684299Y2506311*
X1680969Y25051*
X1677728Y2503657*
X1674599Y2501993*
X1671591Y2500114*
X1668724Y2498029*
X1666006Y249575*
X1663456Y2493286*
X1661083Y2490652*
X1658899Y2487858*
X1656918Y2484917*
X1655145Y2481846*
X165359Y2478661*
X1652262Y2475372*
X1651167Y2472001*
X1650309Y2468559*
X1649691Y2465067*
X1649323Y2461541*
X1649199Y2457998*
X1649323Y2454455*
X1649691Y2450929*
X1650309Y2447437*
X1651167Y2443995*
X1652262Y2440625*
X165359Y2437335*
X1655145Y243415*
X1656918Y2431079*
X1658899Y2428138*
X1661083Y2425344*
X1663456Y242271*
X1666006Y2420246*
X1668724Y2417968*
X1671591Y2415882*
X1674599Y2414005*
X1677728Y2412339*
X1680969Y2410896*
X1684299Y2409685*
X1687708Y2408707*
X1691177Y240797*
X1694688Y2407478*
X1698226Y2407229*
X1701772*
X1705307Y2407478*
X170882Y240797*
X1712287Y2408707*
X1715696Y2409685*
X1719028Y2410896*
X1722267Y2412339*
X1725399Y2414005*
X1728406Y2415882*
X1731274Y2417968*
X1733989Y2420246*
X1736542Y242271*
X1738914Y2425344*
X1741096Y2428138*
X174308Y2431079*
X1744853Y243415*
X1746407Y2437335*
X1747735Y2440625*
X174883Y2443995*
X1749689Y2447437*
X1750303Y2450929*
X1750674Y2454455*
X1750799Y2457998*
X3750797Y1441998D02*
D01*
X3750675Y1445541*
X3750304Y1449067*
X3749687Y1452559*
X3748831Y1456001*
X3747734Y1459372*
X3746406Y1462661*
X3744851Y1465846*
X3743078Y1468917*
X3741097Y1471858*
X3738913Y1474652*
X373654Y1477286*
X373399Y147975*
X3731275Y1482029*
X3728405Y1484114*
X3725397Y1485993*
X3722268Y1487657*
X3719029Y14891*
X3715697Y1490311*
X3712288Y1491289*
X3708819Y1492026*
X3705308Y1492519*
X370177Y1492768*
X3698224*
X3694689Y1492519*
X3691176Y1492026*
X3687709Y1491289*
X36843Y1490311*
X3680968Y14891*
X3677729Y1487657*
X3674597Y1485993*
X3671592Y1484114*
X3668722Y1482029*
X3666007Y147975*
X3663457Y1477286*
X3661084Y1474652*
X36589Y1471858*
X3656916Y1468917*
X3655143Y1465846*
X3653591Y1462661*
X3652263Y1459372*
X3651166Y1456001*
X3650307Y1452559*
X3649692Y1449067*
X3649322Y1445541*
X3649197Y1441998*
X3649322Y1438455*
X3649692Y1434929*
X3650307Y1431437*
X3651166Y1427995*
X3652263Y1424625*
X3653591Y1421335*
X3655143Y141815*
X3656916Y1415079*
X36589Y1412138*
X3661084Y1409344*
X3663457Y140671*
X3666007Y1404246*
X3668722Y1401968*
X3671592Y1399882*
X3674597Y1398005*
X3677729Y1396339*
X3680968Y1394896*
X36843Y1393685*
X3687709Y1392707*
X3691176Y139197*
X3694689Y1391478*
X3698224Y1391229*
X370177*
X3705308Y1391478*
X3708819Y139197*
X3712288Y1392707*
X3715697Y1393685*
X3719029Y1394896*
X3722268Y1396339*
X3725397Y1398005*
X3728405Y1399882*
X3731275Y1401968*
X373399Y1404246*
X373654Y140671*
X3738913Y1409344*
X3741097Y1412138*
X3743078Y1415079*
X3744851Y141815*
X3746406Y1421335*
X3747734Y1424625*
X3748831Y1427995*
X3749687Y1431437*
X3750304Y1434929*
X3750675Y1438455*
X3750797Y1441998*
Y1695998D02*
D01*
X3750675Y1699541*
X3750304Y1703067*
X3749687Y1706559*
X3748831Y1710001*
X3747734Y1713372*
X3746406Y1716661*
X3744851Y1719846*
X3743078Y1722917*
X3741097Y1725858*
X3738913Y1728652*
X373654Y1731286*
X373399Y173375*
X3731275Y1736029*
X3728405Y1738114*
X3725397Y1739993*
X3722268Y1741657*
X3719029Y17431*
X3715697Y1744311*
X3712288Y1745289*
X3708819Y1746026*
X3705308Y1746519*
X370177Y1746768*
X3698224*
X3694689Y1746519*
X3691176Y1746026*
X3687709Y1745289*
X36843Y1744311*
X3680968Y17431*
X3677729Y1741657*
X3674597Y1739993*
X3671592Y1738114*
X3668722Y1736029*
X3666007Y173375*
X3663457Y1731286*
X3661084Y1728652*
X36589Y1725858*
X3656916Y1722917*
X3655143Y1719846*
X3653591Y1716661*
X3652263Y1713372*
X3651166Y1710001*
X3650307Y1706559*
X3649692Y1703067*
X3649322Y1699541*
X3649197Y1695998*
X3649322Y1692455*
X3649692Y1688929*
X3650307Y1685437*
X3651166Y1681995*
X3652263Y1678625*
X3653591Y1675335*
X3655143Y167215*
X3656916Y1669079*
X36589Y1666138*
X3661084Y1663344*
X3663457Y166071*
X3666007Y1658246*
X3668722Y1655968*
X3671592Y1653882*
X3674597Y1652005*
X3677729Y1650339*
X3680968Y1648896*
X36843Y1647685*
X3687709Y1646707*
X3691176Y164597*
X3694689Y1645478*
X3698224Y1645229*
X370177*
X3705308Y1645478*
X3708819Y164597*
X3712288Y1646707*
X3715697Y1647685*
X3719029Y1648896*
X3722268Y1650339*
X3725397Y1652005*
X3728405Y1653882*
X3731275Y1655968*
X373399Y1658246*
X373654Y166071*
X3738913Y1663344*
X3741097Y1666138*
X3743078Y1669079*
X3744851Y167215*
X3746406Y1675335*
X3747734Y1678625*
X3748831Y1681995*
X3749687Y1685437*
X3750304Y1688929*
X3750675Y1692455*
X3750797Y1695998*
Y1949998D02*
D01*
X3750675Y1953541*
X3750304Y1957067*
X3749687Y1960559*
X3748831Y1964001*
X3747734Y1967372*
X3746406Y1970661*
X3744851Y1973846*
X3743078Y1976917*
X3741097Y1979858*
X3738913Y1982652*
X373654Y1985286*
X373399Y198775*
X3731275Y1990029*
X3728405Y1992114*
X3725397Y1993993*
X3722268Y1995657*
X3719029Y19971*
X3715697Y1998311*
X3712288Y1999289*
X3708819Y2000026*
X3705308Y2000519*
X370177Y2000768*
X3698224*
X3694689Y2000519*
X3691176Y2000026*
X3687709Y1999289*
X36843Y1998311*
X3680968Y19971*
X3677729Y1995657*
X3674597Y1993993*
X3671592Y1992114*
X3668722Y1990029*
X3666007Y198775*
X3663457Y1985286*
X3661084Y1982652*
X36589Y1979858*
X3656916Y1976917*
X3655143Y1973846*
X3653591Y1970661*
X3652263Y1967372*
X3651166Y1964001*
X3650307Y1960559*
X3649692Y1957067*
X3649322Y1953541*
X3649197Y1949998*
X3649322Y1946455*
X3649692Y1942929*
X3650307Y1939437*
X3651166Y1935995*
X3652263Y1932625*
X3653591Y1929335*
X3655143Y192615*
X3656916Y1923079*
X36589Y1920138*
X3661084Y1917344*
X3663457Y191471*
X3666007Y1912246*
X3668722Y1909968*
X3671592Y1907882*
X3674597Y1906005*
X3677729Y1904339*
X3680968Y1902896*
X36843Y1901685*
X3687709Y1900707*
X3691176Y189997*
X3694689Y1899478*
X3698224Y1899229*
X370177*
X3705308Y1899478*
X3708819Y189997*
X3712288Y1900707*
X3715697Y1901685*
X3719029Y1902896*
X3722268Y1904339*
X3725397Y1906005*
X3728405Y1907882*
X3731275Y1909968*
X373399Y1912246*
X373654Y191471*
X3738913Y1917344*
X3741097Y1920138*
X3743078Y1923079*
X3744851Y192615*
X3746406Y1929335*
X3747734Y1932625*
X3748831Y1935995*
X3749687Y1939437*
X3750304Y1942929*
X3750675Y1946455*
X3750797Y1949998*
Y2203998D02*
D01*
X3750675Y2207541*
X3750304Y2211067*
X3749687Y2214559*
X3748831Y2218001*
X3747734Y2221372*
X3746406Y2224661*
X3744851Y2227846*
X3743078Y2230917*
X3741097Y2233858*
X3738913Y2236652*
X373654Y2239286*
X373399Y224175*
X3731275Y2244029*
X3728405Y2246114*
X3725397Y2247993*
X3722268Y2249657*
X3719029Y22511*
X3715697Y2252311*
X3712288Y2253289*
X3708819Y2254026*
X3705308Y2254519*
X370177Y2254768*
X3698224*
X3694689Y2254519*
X3691176Y2254026*
X3687709Y2253289*
X36843Y2252311*
X3680968Y22511*
X3677729Y2249657*
X3674597Y2247993*
X3671592Y2246114*
X3668722Y2244029*
X3666007Y224175*
X3663457Y2239286*
X3661084Y2236652*
X36589Y2233858*
X3656916Y2230917*
X3655143Y2227846*
X3653591Y2224661*
X3652263Y2221372*
X3651166Y2218001*
X3650307Y2214559*
X3649692Y2211067*
X3649322Y2207541*
X3649197Y2203998*
X3649322Y2200455*
X3649692Y2196929*
X3650307Y2193437*
X3651166Y2189995*
X3652263Y2186625*
X3653591Y2183335*
X3655143Y218015*
X3656916Y2177079*
X36589Y2174138*
X3661084Y2171344*
X3663457Y216871*
X3666007Y2166246*
X3668722Y2163968*
X3671592Y2161882*
X3674597Y2160005*
X3677729Y2158339*
X3680968Y2156896*
X36843Y2155685*
X3687709Y2154707*
X3691176Y215397*
X3694689Y2153478*
X3698224Y2153229*
X370177*
X3705308Y2153478*
X3708819Y215397*
X3712288Y2154707*
X3715697Y2155685*
X3719029Y2156896*
X3722268Y2158339*
X3725397Y2160005*
X3728405Y2161882*
X3731275Y2163968*
X373399Y2166246*
X373654Y216871*
X3738913Y2171344*
X3741097Y2174138*
X3743078Y2177079*
X3744851Y218015*
X3746406Y2183335*
X3747734Y2186625*
X3748831Y2189995*
X3749687Y2193437*
X3750304Y2196929*
X3750675Y2200455*
X3750797Y2203998*
Y2457998D02*
D01*
X3750675Y2461541*
X3750304Y2465067*
X3749687Y2468559*
X3748831Y2472001*
X3747734Y2475372*
X3746406Y2478661*
X3744851Y2481846*
X3743078Y2484917*
X3741097Y2487858*
X3738913Y2490652*
X373654Y2493286*
X373399Y249575*
X3731275Y2498029*
X3728405Y2500114*
X3725397Y2501993*
X3722268Y2503657*
X3719029Y25051*
X3715697Y2506311*
X3712288Y2507289*
X3708819Y2508026*
X3705308Y2508519*
X370177Y2508768*
X3698224*
X3694689Y2508519*
X3691176Y2508026*
X3687709Y2507289*
X36843Y2506311*
X3680968Y25051*
X3677729Y2503657*
X3674597Y2501993*
X3671592Y2500114*
X3668722Y2498029*
X3666007Y249575*
X3663457Y2493286*
X3661084Y2490652*
X36589Y2487858*
X3656916Y2484917*
X3655143Y2481846*
X3653591Y2478661*
X3652263Y2475372*
X3651166Y2472001*
X3650307Y2468559*
X3649692Y2465067*
X3649322Y2461541*
X3649197Y2457998*
X3649322Y2454455*
X3649692Y2450929*
X3650307Y2447437*
X3651166Y2443995*
X3652263Y2440625*
X3653591Y2437335*
X3655143Y243415*
X3656916Y2431079*
X36589Y2428138*
X3661084Y2425344*
X3663457Y242271*
X3666007Y2420246*
X3668722Y2417968*
X3671592Y2415882*
X3674597Y2414005*
X3677729Y2412339*
X3680968Y2410896*
X36843Y2409685*
X3687709Y2408707*
X3691176Y240797*
X3694689Y2407478*
X3698224Y2407229*
X370177*
X3705308Y2407478*
X3708819Y240797*
X3712288Y2408707*
X3715697Y2409685*
X3719029Y2410896*
X3722268Y2412339*
X3725397Y2414005*
X3728405Y2415882*
X3731275Y2417968*
X373399Y2420246*
X373654Y242271*
X3738913Y2425344*
X3741097Y2428138*
X3743078Y2431079*
X3744851Y243415*
X3746406Y2437335*
X3747734Y2440625*
X3748831Y2443995*
X3749687Y2447437*
X3750304Y2450929*
X3750675Y2454455*
X3750797Y2457998*
X2319497Y0925299D02*
D01*
X2319375Y0928842*
X2319004Y0932367*
X2318387Y093586*
X2317531Y0939302*
X2316434Y0942672*
X2315105Y0945962*
X2313551Y0949147*
X2311778Y0952218*
X2309797Y0955159*
X2307612Y0957953*
X230524Y0960587*
X230269Y0963051*
X2299975Y0965329*
X2297104Y0967414*
X2294097Y0969291*
X2290968Y0970958*
X2287729Y09724*
X2284397Y0973612*
X2280988Y097459*
X2277518Y0975326*
X2274008Y0975819*
X227047Y0976068*
X2266924*
X2263388Y0975819*
X2259878Y0975326*
X2256409Y097459*
X2253Y0973612*
X2249667Y09724*
X2246429Y0970958*
X2243297Y0969291*
X2240292Y0967414*
X2237422Y0965329*
X2234707Y0963051*
X2232157Y0960587*
X2229784Y0957953*
X22276Y0955159*
X2225619Y0952218*
X2223846Y0949147*
X2222291Y0945962*
X2220963Y0942672*
X2219866Y0939302*
X221901Y093586*
X2218392Y0932367*
X2218021Y0928842*
X2217897Y0925299*
X2218021Y0921755*
X2218392Y0918227*
X221901Y0914737*
X2219866Y0911296*
X2220963Y0907923*
X2222291Y0904636*
X2223846Y0901448*
X2225619Y0898377*
X22276Y0895438*
X2229784Y0892644*
X2232157Y089001*
X2234707Y0887547*
X2237422Y0885268*
X2240292Y0883183*
X2243297Y0881303*
X2246429Y087964*
X2249667Y0878197*
X2253Y0876985*
X2256409Y0876007*
X2259878Y0875271*
X2263388Y0874776*
X2266924Y0874529*
X227047*
X2274008Y0874776*
X2277518Y0875271*
X2280988Y0876007*
X2284397Y0876985*
X2287729Y0878197*
X2290968Y087964*
X2294097Y0881303*
X2297104Y0883183*
X2299975Y0885268*
X230269Y0887547*
X230524Y089001*
X2307612Y0892644*
X2309797Y0895438*
X2311778Y0898377*
X2313551Y0901448*
X2315105Y0904636*
X2316434Y0907923*
X2317531Y0911296*
X2318387Y0914737*
X2319004Y0918227*
X2319375Y0921755*
X2319497Y0925299*
X2573497D02*
D01*
X2573375Y0928842*
X2573004Y0932367*
X2572387Y093586*
X2571531Y0939302*
X2570434Y0942672*
X2569105Y0945962*
X2567551Y0949147*
X2565778Y0952218*
X2563797Y0955159*
X2561612Y0957953*
X255924Y0960587*
X255669Y0963051*
X2553975Y0965329*
X2551104Y0967414*
X2548097Y0969291*
X2544968Y0970958*
X2541729Y09724*
X2538397Y0973612*
X2534988Y097459*
X2531518Y0975326*
X2528008Y0975819*
X252447Y0976068*
X2520924*
X2517388Y0975819*
X2513878Y0975326*
X2510409Y097459*
X2507Y0973612*
X2503667Y09724*
X2500429Y0970958*
X2497297Y0969291*
X2494292Y0967414*
X2491422Y0965329*
X2488707Y0963051*
X2486157Y0960587*
X2483784Y0957953*
X24816Y0955159*
X2479619Y0952218*
X2477846Y0949147*
X2476291Y0945962*
X2474963Y0942672*
X2473866Y0939302*
X247301Y093586*
X2472392Y0932367*
X2472021Y0928842*
X2471897Y0925299*
X2472021Y0921755*
X2472392Y0918227*
X247301Y0914737*
X2473866Y0911296*
X2474963Y0907923*
X2476291Y0904636*
X2477846Y0901448*
X2479619Y0898377*
X24816Y0895438*
X2483784Y0892644*
X2486157Y089001*
X2488707Y0887547*
X2491422Y0885268*
X2494292Y0883183*
X2497297Y0881303*
X2500429Y087964*
X2503667Y0878197*
X2507Y0876985*
X2510409Y0876007*
X2513878Y0875271*
X2517388Y0874776*
X2520924Y0874529*
X252447*
X2528008Y0874776*
X2531518Y0875271*
X2534988Y0876007*
X2538397Y0876985*
X2541729Y0878197*
X2544968Y087964*
X2548097Y0881303*
X2551104Y0883183*
X2553975Y0885268*
X255669Y0887547*
X255924Y089001*
X2561612Y0892644*
X2563797Y0895438*
X2565778Y0898377*
X2567551Y0901448*
X2569105Y0904636*
X2570434Y0907923*
X2571531Y0911296*
X2572387Y0914737*
X2573004Y0918227*
X2573375Y0921755*
X2573497Y0925299*
X2827497D02*
D01*
X2827375Y0928842*
X2827004Y0932367*
X2826387Y093586*
X2825531Y0939302*
X2824434Y0942672*
X2823105Y0945962*
X2821551Y0949147*
X2819778Y0952218*
X2817797Y0955159*
X2815612Y0957953*
X281324Y0960587*
X281069Y0963051*
X2807975Y0965329*
X2805104Y0967414*
X2802097Y0969291*
X2798968Y0970958*
X2795729Y09724*
X2792397Y0973612*
X2788988Y097459*
X2785518Y0975326*
X2782008Y0975819*
X277847Y0976068*
X2774924*
X2771388Y0975819*
X2767878Y0975326*
X2764409Y097459*
X2761Y0973612*
X2757667Y09724*
X2754429Y0970958*
X2751297Y0969291*
X2748292Y0967414*
X2745422Y0965329*
X2742707Y0963051*
X2740157Y0960587*
X2737784Y0957953*
X27356Y0955159*
X2733619Y0952218*
X2731846Y0949147*
X2730291Y0945962*
X2728963Y0942672*
X2727866Y0939302*
X272701Y093586*
X2726392Y0932367*
X2726021Y0928842*
X2725897Y0925299*
X2726021Y0921755*
X2726392Y0918227*
X272701Y0914737*
X2727866Y0911296*
X2728963Y0907923*
X2730291Y0904636*
X2731846Y0901448*
X2733619Y0898377*
X27356Y0895438*
X2737784Y0892644*
X2740157Y089001*
X2742707Y0887547*
X2745422Y0885268*
X2748292Y0883183*
X2751297Y0881303*
X2754429Y087964*
X2757667Y0878197*
X2761Y0876985*
X2764409Y0876007*
X2767878Y0875271*
X2771388Y0874776*
X2774924Y0874529*
X277847*
X2782008Y0874776*
X2785518Y0875271*
X2788988Y0876007*
X2792397Y0876985*
X2795729Y0878197*
X2798968Y087964*
X2802097Y0881303*
X2805104Y0883183*
X2807975Y0885268*
X281069Y0887547*
X281324Y089001*
X2815612Y0892644*
X2817797Y0895438*
X2819778Y0898377*
X2821551Y0901448*
X2823105Y0904636*
X2824434Y0907923*
X2825531Y0911296*
X2826387Y0914737*
X2827004Y0918227*
X2827375Y0921755*
X2827497Y0925299*
X3081497D02*
D01*
X3081375Y0928842*
X3081004Y0932367*
X3080387Y093586*
X3079531Y0939302*
X3078434Y0942672*
X3077105Y0945962*
X3075551Y0949147*
X3073778Y0952218*
X3071797Y0955159*
X3069612Y0957953*
X306724Y0960587*
X306469Y0963051*
X3061975Y0965329*
X3059104Y0967414*
X3056097Y0969291*
X3052968Y0970958*
X3049729Y09724*
X3046397Y0973612*
X3042988Y097459*
X3039518Y0975326*
X3036008Y0975819*
X303247Y0976068*
X3028924*
X3025388Y0975819*
X3021878Y0975326*
X3018409Y097459*
X3015Y0973612*
X3011667Y09724*
X3008429Y0970958*
X3005297Y0969291*
X3002292Y0967414*
X2999422Y0965329*
X2996707Y0963051*
X2994157Y0960587*
X2991784Y0957953*
X29896Y0955159*
X2987619Y0952218*
X2985846Y0949147*
X2984291Y0945962*
X2982963Y0942672*
X2981866Y0939302*
X298101Y093586*
X2980392Y0932367*
X2980021Y0928842*
X2979897Y0925299*
X2980021Y0921755*
X2980392Y0918227*
X298101Y0914737*
X2981866Y0911296*
X2982963Y0907923*
X2984291Y0904636*
X2985846Y0901448*
X2987619Y0898377*
X29896Y0895438*
X2991784Y0892644*
X2994157Y089001*
X2996707Y0887547*
X2999422Y0885268*
X3002292Y0883183*
X3005297Y0881303*
X3008429Y087964*
X3011667Y0878197*
X3015Y0876985*
X3018409Y0876007*
X3021878Y0875271*
X3025388Y0874776*
X3028924Y0874529*
X303247*
X3036008Y0874776*
X3039518Y0875271*
X3042988Y0876007*
X3046397Y0876985*
X3049729Y0878197*
X3052968Y087964*
X3056097Y0881303*
X3059104Y0883183*
X3061975Y0885268*
X306469Y0887547*
X306724Y089001*
X3069612Y0892644*
X3071797Y0895438*
X3073778Y0898377*
X3075551Y0901448*
X3077105Y0904636*
X3078434Y0907923*
X3079531Y0911296*
X3080387Y0914737*
X3081004Y0918227*
X3081375Y0921755*
X3081497Y0925299*
X3335497D02*
D01*
X3335375Y0928842*
X3335004Y0932367*
X3334387Y093586*
X3333531Y0939302*
X3332434Y0942672*
X3331105Y0945962*
X3329551Y0949147*
X3327778Y0952218*
X3325797Y0955159*
X3323612Y0957953*
X332124Y0960587*
X331869Y0963051*
X3315975Y0965329*
X3313104Y0967414*
X3310097Y0969291*
X3306968Y0970958*
X3303729Y09724*
X3300397Y0973612*
X3296988Y097459*
X3293518Y0975326*
X3290008Y0975819*
X328647Y0976068*
X3282924*
X3279388Y0975819*
X3275878Y0975326*
X3272409Y097459*
X3269Y0973612*
X3265667Y09724*
X3262429Y0970958*
X3259297Y0969291*
X3256292Y0967414*
X3253422Y0965329*
X3250707Y0963051*
X3248157Y0960587*
X3245784Y0957953*
X32436Y0955159*
X3241619Y0952218*
X3239846Y0949147*
X3238291Y0945962*
X3236963Y0942672*
X3235866Y0939302*
X323501Y093586*
X3234392Y0932367*
X3234021Y0928842*
X3233897Y0925299*
X3234021Y0921755*
X3234392Y0918227*
X323501Y0914737*
X3235866Y0911296*
X3236963Y0907923*
X3238291Y0904636*
X3239846Y0901448*
X3241619Y0898377*
X32436Y0895438*
X3245784Y0892644*
X3248157Y089001*
X3250707Y0887547*
X3253422Y0885268*
X3256292Y0883183*
X3259297Y0881303*
X3262429Y087964*
X3265667Y0878197*
X3269Y0876985*
X3272409Y0876007*
X3275878Y0875271*
X3279388Y0874776*
X3282924Y0874529*
X328647*
X3290008Y0874776*
X3293518Y0875271*
X3296988Y0876007*
X3300397Y0876985*
X3303729Y0878197*
X3306968Y087964*
X3310097Y0881303*
X3313104Y0883183*
X3315975Y0885268*
X331869Y0887547*
X332124Y089001*
X3323612Y0892644*
X3325797Y0895438*
X3327778Y0898377*
X3329551Y0901448*
X3331105Y0904636*
X3332434Y0907923*
X3333531Y0911296*
X3334387Y0914737*
X3335004Y0918227*
X3335375Y0921755*
X3335497Y0925299*
M02*