%FSTAX25Y25*%
%MOMM*%
%SFA1B1*%

%IPPOS*%
%AMD23*
4,1,4,-0.139700,0.314960,-0.314960,0.139700,0.139700,-0.314960,0.314960,-0.139700,-0.139700,0.314960,0.0*
1,1,0.250000,-0.228600,0.228600*
1,1,0.250000,0.228600,-0.228600*
%
%AMD27*
4,1,4,-0.314960,-0.139700,-0.139700,-0.314960,0.314960,0.139700,0.139700,0.314960,-0.314960,-0.139700,0.0*
1,1,0.250000,-0.228600,-0.228600*
1,1,0.250000,0.228600,0.228600*
%
%ADD10R,1.299967X1.500117*%
%ADD11R,0.649999X1.199998*%
%ADD12R,1.500117X1.299967*%
%ADD13R,1.199998X0.649999*%
%ADD14R,1.802886X1.599947*%
%ADD15R,1.599947X1.802886*%
%ADD16R,1.100068X1.249928*%
%ADD17R,1.800096X1.599947*%
%ADD18R,0.800098X0.899918*%
%ADD19R,2.150106X5.800078*%
%ADD20R,1.100068X2.400045*%
%ADD21R,3.100064X2.400045*%
%ADD22R,0.800098X0.800098*%
G04~CAMADD=23~3~0.0~0.0~98.4~354.3~0.0~0.0~0~0.0~0.0~0.0~0.0~0~0.0~0.0~0.0~0.0~0~0.0~0.0~0.0~45.0~278.0~278.0*
%ADD23D23*%
%ADD24R,1.699997X1.699997*%
%ADD25O,0.250000X0.899998*%
%ADD26O,0.899998X0.250000*%
G04~CAMADD=27~3~0.0~0.0~98.4~354.3~0.0~0.0~0~0.0~0.0~0.0~0.0~0~0.0~0.0~0.0~0.0~0~0.0~0.0~0.0~135.0~278.0~278.0*
%ADD27D27*%
%ADD28C,0.253999*%
%ADD29C,0.499999*%
%ADD30C,0.999998*%
%ADD31C,0.399999*%
%ADD32C,5.999988*%
%ADD33R,1.499997X1.499997*%
%ADD34C,1.499997*%
%ADD35R,1.499997X1.499997*%
%ADD36C,0.999998*%
%LNdevboard_copper_signal_top-1*%
%LPD*%
G54D10*
X498999Y2149998D03*
X4799998D03*
Y2399997D03*
X498999D03*
X4394995Y1099997D03*
X4205003D03*
X4894994D03*
X4705002D03*
X4494994Y2799999D03*
X4305002D03*
X4949997D03*
X4760005D03*
X1794995Y2999999D03*
X1605003D03*
X5044993Y3399998D03*
X4855001D03*
X1005001Y1149997D03*
X1194993D03*
G54D11*
X4354997Y2069998D03*
X4544999D03*
X4449998Y2329997D03*
X4354997Y1419999D03*
X4544999D03*
X4449998Y1679999D03*
G54D12*
X4049999Y1875299D03*
Y1685307D03*
X2794797Y344651D03*
Y3636502D03*
X0899998Y1920295D03*
Y1730303D03*
X1999998Y1470294D03*
Y1280302D03*
Y1969993D03*
Y1780001D03*
X2249698Y1970295D03*
Y1780303D03*
G54D13*
X1607002Y4153999D03*
Y4343999D03*
X1347002Y4248998D03*
X2107003Y4157997D03*
Y4347999D03*
X1847001Y4252998D03*
X4819997Y3194999D03*
Y3004997D03*
X508Y3099998D03*
X1607002Y3649997D03*
Y3839999D03*
X1347002Y3744998D03*
X2107003Y3649997D03*
Y3839999D03*
X1847001Y3744998D03*
X1119997Y1920298D03*
Y1730298D03*
X1379999Y1825299D03*
G54D14*
X4549998Y395781D03*
Y4242188D03*
X4849997D03*
Y395781D03*
X5099999D03*
Y4242188D03*
G54D15*
X4807808Y3679995D03*
X5092186D03*
G54D16*
X0719693Y1282499D03*
Y1517497D03*
G54D17*
X2794797Y3909994D03*
Y4190004D03*
G54D18*
X166199Y3198997D03*
X1892015D03*
G54D19*
X0634497Y3399D03*
X101951D03*
X0634497Y4148998D03*
X101951D03*
G54D20*
X3462197Y3749997D03*
X4099999D03*
X3749692Y4199999D03*
X3099998D03*
G54D21*
X3202178Y3749997D03*
X3839979D03*
X4009712Y4199999D03*
X3360018D03*
G54D22*
X3522192Y3679995D03*
Y3819999D03*
X3042183D03*
Y3679995D03*
X4159991D03*
Y3819999D03*
X3679982D03*
Y3679995D03*
X3689697Y4270001D03*
Y4129996D03*
X4169707D03*
Y4270001D03*
X3040004D03*
Y4129996D03*
X3520013D03*
Y4270001D03*
G54D23*
X2629199Y2097498D03*
X2924197Y1802498D03*
G54D24*
X2776697Y1949998D03*
G54D25*
X2701698Y2097498D03*
X2751698D03*
X2801698D03*
X2851698D03*
Y1802498D03*
X2801698D03*
X2751698D03*
X2701698D03*
G54D26*
X2924197Y2024999D03*
Y1974999D03*
Y1924999D03*
Y1874997D03*
X2629199D03*
Y1924999D03*
Y1974999D03*
Y2024999D03*
G54D27*
X2924197Y2097498D03*
X2629199Y1802498D03*
G54D28*
X4009199Y1916099D02*
D01*
X3975298Y1949998D02*
X4009199Y1916099D01*
X3699997Y1695998D02*
X3701999D01*
X4039306D02*
X4049999Y1685307D01*
X1999998Y1271297D02*
X2040994D01*
X2494798Y1924999D02*
X2629199D01*
X2449997Y1880199D02*
X2494798Y1924999D01*
X2701698Y1726999D02*
Y1802498D01*
X2522697Y1547997D02*
X2701698Y1726999D01*
X2522697Y0925299D02*
Y1547997D01*
X2776697Y0925299D02*
Y1625297D01*
X2751698Y1650298D02*
X2776697Y1625297D01*
X2751698Y1650298D02*
Y1802498D01*
X3030697Y0925299D02*
Y1468798D01*
X2801698Y1697799D02*
X3030697Y1468798D01*
X2801698Y1697799D02*
Y1802498D01*
X3284697Y0925299D02*
Y1340599D01*
X2851698Y1773598D02*
X3284697Y1340599D01*
X2851698Y1773598D02*
Y1802498D01*
X287562Y1874997D02*
Y1879798D01*
X2776697Y1949998D02*
X2846499Y1880199D01*
X2872574*
X2872976Y1879798*
X287562*
Y1874997D02*
X2924197D01*
X2249698Y1974999D02*
X2629199D01*
X2751698D02*
X2776697Y1949998D01*
X2629199Y1974999D02*
X2751698D01*
X1999998Y1775299D02*
Y1780001D01*
X2040994Y1271297D02*
X2149998Y1380302D01*
Y1475298*
X2500299Y2024999D02*
X2629199D01*
X2321298Y2203998D02*
X2500299Y2024999D01*
X1699999Y2203998D02*
X2321298D01*
X3391199D02*
X3699997D01*
X3162198Y1974999D02*
X3391199Y2203998D01*
X2924197Y1974999D02*
X3162198D01*
X3453998Y2457998D02*
X3699997D01*
X3020999Y2024999D02*
X3453998Y2457998D01*
X2924197Y2024999D02*
X3020999D01*
X3499998Y1949998D02*
X3699997D01*
X3474999Y1924999D02*
X3499998Y1949998D01*
X2924197Y1924999D02*
X3474999D01*
X3150298Y1874997D02*
X3329299Y1695998D01*
X2924197Y1874997D02*
X3150298D01*
X3284697Y1441998D02*
X3699997D01*
X2924197Y1802498D02*
X3284697Y1441998D01*
X2268697Y0925299D02*
Y1441998D01*
X2629199Y1802498*
X2149998Y1475298D02*
X2549697Y1874997D01*
X2629199*
X2224699Y1949998D02*
X2249698Y1974999D01*
X1699999Y2457998D02*
X2268697D01*
X2629199Y2097498*
X2268697Y2685798D02*
Y2925297D01*
Y2685798D02*
X2701698Y2252799D01*
Y2097498D02*
Y2252799D01*
X2522697Y2638298D02*
Y2925297D01*
Y2638298D02*
X2751698Y2409299D01*
Y2097498D02*
Y2409299D01*
X2776697Y2648597D02*
Y2925297D01*
Y2648597D02*
X2801698Y2623599D01*
Y2097498D02*
Y2623599D01*
X3030697Y2531798D02*
Y2925297D01*
X2851698Y2352799D02*
X3030697Y2531798D01*
X2851698Y2097498D02*
Y2352799D01*
X3284697Y2457998D02*
Y2925297D01*
X2924197Y2097498D02*
X3284697Y2457998D01*
G54D29*
X3699997Y1949998D02*
X3975298D01*
X2193998Y2999999D02*
X2268697Y2925297D01*
X1794995Y2999999D02*
X2193998D01*
X2776697Y2925297D02*
X2794797Y29434D01*
Y344651*
X3284697Y0925299D02*
X3499998D01*
X3699997Y1249997D02*
Y1441998D01*
Y1249997D02*
X3979999Y0969998D01*
X4325002*
X4394995Y103999*
Y1099997*
X3499998Y0925299D02*
X3525299Y0899998D01*
X4899997*
X5092186Y1092187*
Y2047801*
X498999Y2149998D02*
X5092186Y2047801D01*
X1399999Y2999999D02*
X1605003D01*
X498999Y2149998D02*
Y2352799D01*
X4799998Y2136345D02*
Y2149998D01*
Y2136345D02*
X498999Y1946353D01*
Y1575292D02*
Y1946353D01*
X4940701Y1526001D02*
X498999Y1575292D01*
X4855001Y1526001D02*
X4940701D01*
X4894994Y1099997D02*
Y12375D01*
X4832499Y1299999D02*
X4894994Y12375D01*
X4664999Y1299999D02*
X4832499D01*
X4544999Y1419999D02*
X4664999Y1299999D01*
X3701999Y1695998D02*
X4039306D01*
X4205003Y1099997D02*
Y1192994D01*
X3701999Y1695998D02*
X4205003Y1192994D01*
X4149999Y2799999D02*
X4305002D01*
X4749698Y1780001D02*
X4855001D01*
X4544999Y1575302D02*
X4749698Y1780001D01*
X4544999Y1419999D02*
Y1575302D01*
X4449998Y1679999D02*
Y2329997D01*
X4354997Y1899998D02*
Y2069998D01*
Y1419999D02*
Y1899998D01*
X4330298Y1875299D02*
X4354997Y1899998D01*
X4049999Y1875299D02*
X4330298D01*
X2103488Y3349998D02*
X2299997Y354651D01*
X1894372Y3349998D02*
X2103488D01*
X1807009Y3262635D02*
X1894372Y3349998D01*
X1807009Y3007009D02*
Y3262635D01*
X2299997Y354651D02*
Y3859692D01*
X2107003Y4052689D02*
X2299997Y3859692D01*
X1847001Y3744998D02*
X2178001D01*
X2223002Y3699997*
Y360986D02*
Y3699997D01*
X2059652Y344651D02*
X2223002Y360986D01*
X1817509Y344651D02*
X2059652D01*
X166199Y3290991D02*
X1817509Y344651D01*
X2107003Y4052689D02*
Y4157997D01*
X106951Y3206493D02*
Y3399D01*
X166199Y3198997D02*
Y3290991D01*
X1699999Y1441998D02*
X1930847Y121115D01*
X1899998Y1775299D02*
X1999998D01*
X1399999Y1695998D02*
X1699999D01*
X1154297D02*
X1399999D01*
Y0499999D02*
Y1695998D01*
X2906702Y344651D02*
X3202178Y3741986D01*
Y3749997*
X2794797Y344651D02*
X2906702D01*
X3040004Y4199999D02*
Y4270001D01*
Y4129996D02*
Y4199999D01*
X3030009Y4190004D02*
X3040004Y4199999D01*
X2794797Y4190004D02*
X3030009D01*
X2649999Y4045204D02*
X2794797Y4190004D01*
X2649999Y3959694D02*
Y4045204D01*
X2489304Y3798999D02*
X2649999Y3959694D01*
X2444503Y3798999D02*
X2489304D01*
X3462197Y3749997D02*
X3839979D01*
X4099999D02*
Y4109712D01*
X4009712Y4199999D02*
X4099999Y4109712D01*
X3360018Y4199999D02*
X3749692D01*
X1077003Y3198997D02*
X166199D01*
X106951Y3206493D02*
X1077003Y3198997D01*
X0684496Y3399D02*
Y3541506D01*
X0681001Y3544999D02*
X0684496Y3541506D01*
X0286999Y3544999D02*
X0681001D01*
X0538497Y4052999D02*
X0634497Y4148998D01*
X0286999Y4052999D02*
X0538497D01*
X1607002Y4343999D02*
X1611002Y4347999D01*
X2107003*
X2423002Y4052999D02*
X2444503D01*
X2223002Y4252998D02*
X2423002Y4052999D01*
X1847001Y4252998D02*
X2223002D01*
X2103003Y4153999D02*
X2107003Y4157997D01*
X1607002Y4153999D02*
X2103003D01*
X1477002Y4023997D02*
X1607002Y4153999D01*
X1477002Y3748999D02*
Y4023997D01*
Y3748999D02*
X1576003Y3649997D01*
X1607002*
X1347002Y4157997D02*
Y4248998D01*
Y3744998D02*
Y4157997D01*
X1338003Y4148998D02*
X1347002Y4157997D01*
X101951Y4148998D02*
X1338003D01*
X1607002Y3649997D02*
X2107003D01*
X2098504Y3198997D02*
X2444503Y3544999D01*
X1892015Y3198997D02*
X2098504D01*
X1024699Y1825299D02*
X1379999D01*
X0929703Y1730303D02*
X1024699Y1825299D01*
X0899998Y1730303D02*
X0929703D01*
X1119997Y1730298D02*
X1154297Y1695998D01*
X2405199Y1880199D02*
X2449997D01*
X2300297Y1775299D02*
X2405199Y1880199D01*
X1999998Y1470294D02*
Y1775299D01*
X1820699Y1695998D02*
X1899998Y1775299D01*
X1699999Y1695998D02*
X1820699D01*
X3329299D02*
X3699997D01*
G54D30*
X4627501Y2799999D02*
X4760005D01*
X4494994D02*
X4627501D01*
X508Y2929999D02*
X5199999Y2809999D01*
Y1049997D02*
Y2809999D01*
X4949997Y0799998D02*
X5199999Y1049997D01*
X4459711Y0799998D02*
X4949997D01*
X4009712Y0349999D02*
X4459711Y0799998D01*
X4557999Y2349997D02*
Y2549999D01*
Y2082998D02*
Y2349997D01*
X4560798Y2352799*
X4799998*
X4544999Y2069998D02*
X4557999Y2082998D01*
X4199999Y2549999D02*
X4557999D01*
X4039306Y271069D02*
X4199999Y2549999D01*
X4039306Y271069D02*
Y3051942D01*
X4299999Y3312634*
Y3992186*
X4549998Y4242188*
X4394995Y1099997D02*
X4705002D01*
X4949997Y2799999D02*
X508Y2929999D01*
Y3099998*
X0160693Y3798999D02*
X0286999D01*
X0148998D02*
X0160693D01*
X0099999Y3859692D02*
X0160693Y3798999D01*
X0099999Y3859692D02*
Y4412998D01*
Y3749997D02*
X0148998Y3798999D01*
X0099999Y3349998D02*
Y3749997D01*
X4990002Y3509995D02*
X5049997Y3449998D01*
X5044993Y3399998D02*
X508Y3364994D01*
Y3099998D02*
Y3364994D01*
X4819997D02*
X4855001Y3399998D01*
X4819997Y3194999D02*
Y3364994D01*
X4744999Y3004997D02*
X4819997D01*
X4549998Y3199998D02*
X4744999Y3004997D01*
X4549998Y3199998D02*
Y395781D01*
X4990002Y3503998D02*
Y3509995D01*
X4814003Y3679995D02*
X4990002Y3503998D01*
X4807808Y3679995D02*
X4814003D01*
X5092186D02*
X5099999Y3687805D01*
Y395781*
X4849997Y4242188D02*
X5099999D01*
X4565619D02*
X4849997Y395781D01*
X4549998Y4242188D02*
X4565619D01*
X4549998Y4248998D02*
Y4399998D01*
X4349998Y4599998D02*
X4549998Y4399998D01*
X0286999Y4599998D02*
X4349998D01*
X0099999Y4412998D02*
X0286999Y4599998D01*
X1999998Y1775299D02*
X2300297D01*
X0852195Y1149997D02*
X0999998D01*
X0732502Y1730303D02*
X0899998D01*
X0719693D02*
X0732502D01*
X0719693Y1717494D02*
X0732502Y1730303D01*
X0719693Y1517497D02*
Y1717494D01*
Y1282499D02*
X0852195Y1149997D01*
X1930847Y121115D02*
X1999998Y1280302D01*
X1653999Y0934303D02*
X1930847Y121115D01*
X2025299Y0925299D02*
X2268697D01*
X1907999Y0807999D02*
X2025299Y0925299D01*
X1907999Y0499999D02*
Y0807999D01*
X1653999Y0499999D02*
Y0934303D01*
X0681001Y1768995D02*
X0719693Y1730303D01*
X0681001Y1768995D02*
Y2668993D01*
X0549998Y2799999D02*
X0681001Y2668993D01*
X0399999Y2799999D02*
X0549998D01*
X0399999D02*
Y3049998D01*
X0099999Y3349998D02*
X0399999Y3049998D01*
X2794797Y3636502D02*
Y3909994D01*
X1607002Y3839999D02*
X1614502Y38475D01*
X1943498*
Y3839999D02*
Y38475D01*
Y3839999D02*
X2107003D01*
X1699999Y1949998D02*
X2224699D01*
X0929703D02*
X1699999D01*
X0899998Y1920295D02*
X0929703Y1949998D01*
G54D31*
X2776697Y0749399D02*
Y0925299D01*
X2277297Y0249999D02*
X2776697Y0749399D01*
X3030697Y0780699D02*
Y0925299D01*
X2349997Y0099999D02*
X3030697Y0780699D01*
X2522697Y0722698D02*
Y0925299D01*
X0819693Y0099999D02*
X2349997D01*
X0469694Y0449999D02*
X0819693Y0099999D01*
X0349999Y0449999D02*
X0469694D01*
X0899998Y0249999D02*
X2277297D01*
X0599998Y0549998D02*
X0899998Y0249999D01*
X0599998Y0549998D02*
Y1575297D01*
X0471299Y1703999D02*
X0599998Y1575297D01*
X0349999Y1703999D02*
X0471299D01*
X2149998Y0349999D02*
X2522697Y0722698D01*
X1049997Y0349999D02*
X2149998D01*
X0999998Y0399999D02*
X1049997Y0349999D01*
X0999998Y0399999D02*
Y0760006D01*
X1194993Y0955001*
Y1149997*
G54D32*
X4009712Y0349999D03*
X4819997D03*
G54D33*
X4855001Y1526001D03*
X0399999Y2799999D03*
X2444503Y3544999D03*
X0349999Y1449999D03*
Y0195999D03*
X0286999Y3544999D03*
X1699999Y2457998D03*
X3699997D03*
G54D34*
X4855001Y1780001D03*
X1907999Y0499999D03*
X1653999D03*
X1399999D03*
X0399999Y2545999D03*
X2444503Y3798999D03*
Y4052999D03*
X0349999Y1703999D03*
Y0449999D03*
X0286999Y3798999D03*
Y4052999D03*
X3284697Y2925297D03*
X3030697D03*
X2776697D03*
X2522697D03*
X1699999Y1441998D03*
Y1695998D03*
Y1949998D03*
Y2203998D03*
X3699997Y1441998D03*
Y1695998D03*
Y1949998D03*
Y2203998D03*
X2268697Y0925299D03*
X2522697D03*
X2776697D03*
X3030697D03*
G54D35*
X1145999Y0499999D03*
X2268697Y2925297D03*
X3284697Y0925299D03*
G54D36*
X4744999Y3299998D03*
X4627501Y2799999D03*
X1399999Y2999999D03*
X4169707Y2799999D03*
X2794797Y3773248D03*
X1794995Y3899999D03*
M02*