%FSTAX25Y25*%
%MOMM*%
%SFA1B1*%

%IPPOS*%
%ADD37C,0.250000*%
%ADD38C,0.200000*%
%ADD39C,0.253999*%
%LNdevboard_legend_top-1*%
%LPD*%
G54D37*
X4279999Y2069998D02*
D01*
X4279968Y2070869*
X4279877Y2071738*
X4279724Y2072596*
X4279513Y2073445*
X4279244Y2074273*
X4278917Y2075083*
X4278536Y2075868*
X4278099Y2076622*
X4277611Y2077346*
X4277075Y2078032*
X4276491Y2078682*
X4275863Y2079287*
X4275193Y2079848*
X4274489Y2080361*
X4273748Y2080823*
X4272978Y2081232*
X427218Y2081588*
X427136Y2081888*
X4270522Y2082126*
X4269668Y2082309*
X4268805Y2082429*
X4267934Y208249*
X4267062*
X4266191Y2082429*
X4265328Y2082309*
X4264474Y2082126*
X4263636Y2081888*
X4262815Y2081588*
X4262018Y2081232*
X4261248Y2080823*
X4260509Y2080361*
X4259803Y2079848*
X4259135Y2079287*
X4258508Y2078682*
X4257923Y2078032*
X4257385Y2077346*
X4256897Y2076622*
X425646Y2075868*
X4256079Y2075083*
X4255752Y2074273*
X4255482Y2073445*
X4255272Y2072596*
X4255119Y2071738*
X4255028Y2070869*
X4254997Y2069998*
X4255028Y2069127*
X4255119Y2068258*
X4255272Y2067399*
X4255482Y2066554*
X4255752Y2065723*
X4256079Y2064913*
X425646Y2064131*
X4256897Y2063374*
X4257385Y206265*
X4257923Y2061964*
X4258508Y2061316*
X4259135Y2060709*
X4259803Y2060148*
X4260509Y2059635*
X4261248Y2059172*
X4262018Y2058763*
X4262815Y2058408*
X4263636Y2058111*
X4264474Y2057869*
X4265328Y2057689*
X4266191Y2057567*
X4267062Y2057506*
X4267934*
X4268805Y2057567*
X4269668Y2057689*
X4270522Y2057869*
X427136Y2058111*
X427218Y2058408*
X4272978Y2058763*
X4273748Y2059172*
X4274489Y2059635*
X4275193Y2060148*
X4275863Y2060709*
X4276491Y2061316*
X4277075Y2061964*
X4277611Y206265*
X4278099Y2063374*
X4278536Y2064131*
X4278917Y2064913*
X4279244Y2065723*
X4279513Y2066554*
X4279724Y2067399*
X4279877Y2068258*
X4279968Y2069127*
X4279999Y2069998*
Y1419999D02*
D01*
X4279968Y142087*
X4279877Y1421739*
X4279724Y1422598*
X4279513Y1423443*
X4279244Y1424274*
X4278917Y1425082*
X4278536Y1425867*
X4278099Y1426621*
X4277611Y1427345*
X4277075Y1428033*
X4276491Y1428681*
X4275863Y1429288*
X4275193Y1429849*
X4274489Y1430362*
X4273748Y1430825*
X4272978Y1431234*
X427218Y1431589*
X427136Y1431886*
X4270522Y1432128*
X4269668Y1432308*
X4268805Y143243*
X4267934Y1432491*
X4267062*
X4266191Y143243*
X4265328Y1432308*
X4264474Y1432128*
X4263636Y1431886*
X4262815Y1431589*
X4262018Y1431234*
X4261248Y1430825*
X4260509Y1430362*
X4259803Y1429849*
X4259135Y1429288*
X4258508Y1428681*
X4257923Y1428033*
X4257385Y1427345*
X4256897Y1426621*
X425646Y1425867*
X4256079Y1425082*
X4255752Y1424274*
X4255482Y1423443*
X4255272Y1422598*
X4255119Y1421739*
X4255028Y142087*
X4254997Y1419999*
X4255028Y1419125*
X4255119Y1418259*
X4255272Y1417398*
X4255482Y1416552*
X4255752Y1415722*
X4256079Y1414914*
X425646Y1414129*
X4256897Y1413375*
X4257385Y1412651*
X4257923Y1411963*
X4258508Y1411315*
X4259135Y1410708*
X4259803Y1410149*
X4260509Y1409636*
X4261248Y1409174*
X4262018Y1408762*
X4262815Y1408409*
X4263636Y1408109*
X4264474Y1407871*
X4265328Y1407688*
X4266191Y1407566*
X4267062Y1407505*
X4267934*
X4268805Y1407566*
X4269668Y1407688*
X4270522Y1407871*
X427136Y1408109*
X427218Y1408409*
X4272978Y1408762*
X4273748Y1409174*
X4274489Y1409636*
X4275193Y1410149*
X4275863Y1410708*
X4276491Y1411315*
X4277075Y1411963*
X4277611Y1412651*
X4278099Y1413375*
X4278536Y1414129*
X4278917Y1414914*
X4279244Y1415722*
X4279513Y1416552*
X4279724Y1417398*
X4279877Y1418259*
X4279968Y1419125*
X4279999Y1419999*
X1619504Y4066499D02*
D01*
X1619473Y406737*
X1619382Y4068239*
X1619229Y4069097*
X1619018Y4069943*
X1618749Y4070774*
X1618421Y4071581*
X161804Y4072366*
X1617604Y4073123*
X1617116Y4073845*
X161658Y4074533*
X1615996Y4075181*
X1615368Y4075788*
X1614698Y4076349*
X1613994Y4076862*
X1613253Y4077324*
X1612483Y4077733*
X1611685Y4078089*
X1610865Y4078386*
X1610027Y4078627*
X1609173Y4078808*
X160831Y407893*
X1607439Y4078991*
X1606567*
X1605696Y407893*
X1604832Y4078808*
X1603979Y4078627*
X1603141Y4078386*
X160232Y4078089*
X1601523Y4077733*
X1600753Y4077324*
X1600014Y4076862*
X1599308Y4076349*
X159864Y4075788*
X1598013Y4075181*
X1597428Y4074533*
X159689Y4073845*
X1596402Y4073123*
X1595965Y4072366*
X1595584Y4071581*
X1595257Y4070774*
X1594987Y4069943*
X1594777Y4069097*
X1594624Y4068239*
X1594533Y406737*
X1594502Y4066499*
X1594533Y4065625*
X1594624Y4064759*
X1594777Y40639*
X1594987Y4063052*
X1595257Y4062224*
X1595584Y4061414*
X1595965Y4060629*
X1596402Y4059875*
X159689Y4059151*
X1597428Y4058462*
X1598013Y4057815*
X159864Y405721*
X1599308Y4056649*
X1600014Y4056136*
X1600753Y4055673*
X1601523Y4055264*
X160232Y4054909*
X1603141Y4054609*
X1603979Y405437*
X1604832Y4054187*
X1605696Y4054066*
X1606567Y4054005*
X1607439*
X160831Y4054066*
X1609173Y4054187*
X1610027Y405437*
X1610865Y4054609*
X1611685Y4054909*
X1612483Y4055264*
X1613253Y4055673*
X1613994Y4056136*
X1614698Y4056649*
X1615368Y405721*
X1615996Y4057815*
X161658Y4058462*
X1617116Y4059151*
X1617604Y4059875*
X161804Y4060629*
X1618421Y4061414*
X1618749Y4062224*
X1619018Y4063052*
X1619229Y40639*
X1619382Y4064759*
X1619473Y4065625*
X1619504Y4066499*
X2119503Y4070499D02*
D01*
X2119472Y4071371*
X2119381Y4072237*
X2119231Y4073098*
X211902Y4073944*
X2118748Y4074774*
X2118423Y4075582*
X2118039Y4076367*
X2117603Y4077121*
X2117115Y4077845*
X2116579Y4078533*
X2115995Y4079181*
X2115367Y4079788*
X2114699Y4080349*
X2113993Y408086*
X2113254Y4081322*
X2112482Y4081734*
X2111687Y4082087*
X2110867Y4082387*
X2110028Y4082628*
X2109175Y4082808*
X2108309Y408293*
X210744Y4082991*
X2106566*
X2105698Y408293*
X2104831Y4082808*
X2103978Y4082628*
X210314Y4082387*
X2102319Y4082087*
X2101524Y4081734*
X2100752Y4081322*
X2100013Y408086*
X2099307Y4080349*
X2098639Y4079788*
X2098012Y4079181*
X2097427Y4078533*
X2096891Y4077845*
X2096404Y4077121*
X2095967Y4076367*
X2095583Y4075582*
X2095258Y4074774*
X2094986Y4073944*
X2094776Y4073098*
X2094626Y4072237*
X2094534Y4071371*
X2094504Y4070499*
X2094534Y4069626*
X2094626Y4068759*
X2094776Y4067898*
X2094986Y4067053*
X2095258Y4066222*
X2095583Y4065414*
X2095967Y4064629*
X2096404Y4063875*
X2096891Y4063151*
X2097427Y4062463*
X2098012Y4061815*
X2098639Y4061208*
X2099307Y4060649*
X2100013Y4060136*
X2100752Y4059674*
X2101524Y4059262*
X2102319Y4058909*
X210314Y405861*
X2103978Y4058368*
X2104831Y4058188*
X2105698Y4058066*
X2106566Y4058005*
X210744*
X2108309Y4058066*
X2109175Y4058188*
X2110028Y4058368*
X2110867Y405861*
X2111687Y4058909*
X2112482Y4059262*
X2113254Y4059674*
X2113993Y4060136*
X2114699Y4060649*
X2115367Y4061208*
X2115995Y4061815*
X2116579Y4062463*
X2117115Y4063151*
X2117603Y4063875*
X2118039Y4064629*
X2118423Y4065414*
X2118748Y4066222*
X211902Y4067053*
X2119231Y4067898*
X2119381Y4068759*
X2119472Y4069626*
X2119503Y4070499*
X4832499Y3282497D02*
D01*
X4832469Y3283371*
X4832377Y3284237*
X4832225Y3285098*
X4832014Y3285944*
X4831745Y3286775*
X4831417Y3287582*
X4831036Y3288367*
X4830599Y3289122*
X4830112Y3289846*
X4829573Y3290534*
X4828989Y3291182*
X4828362Y3291789*
X4827694Y3292348*
X4826988Y3292861*
X4826248Y3293323*
X4825479Y3293734*
X4824681Y3294087*
X4823861Y3294387*
X4823023Y3294626*
X4822169Y3294809*
X4821306Y3294931*
X4820434Y3294992*
X4819563*
X4818692Y3294931*
X4817828Y3294809*
X4816975Y3294626*
X4816137Y3294387*
X4815316Y3294087*
X4814519Y3293734*
X4813749Y3293323*
X4813007Y3292861*
X4812301Y3292348*
X4811633Y3291789*
X4811006Y3291182*
X4810422Y3290534*
X4809886Y3289846*
X4809398Y3289122*
X4808961Y3288367*
X480858Y3287582*
X4808253Y3286775*
X4807983Y3285944*
X4807772Y3285098*
X480762Y3284237*
X4807529Y3283371*
X4807498Y3282497*
X4807529Y3281626*
X480762Y3280757*
X4807772Y3279899*
X4807983Y3279053*
X4808253Y3278223*
X480858Y3277415*
X4808961Y327663*
X4809398Y3275873*
X4809886Y3275152*
X4810422Y3274463*
X4811006Y3273816*
X4811633Y3273209*
X4812301Y3272647*
X4813007Y3272134*
X4813749Y3271672*
X4814519Y3271263*
X4815316Y3270907*
X4816137Y327061*
X4816975Y3270369*
X4817828Y3270189*
X4818692Y3270067*
X4819563Y3270006*
X4820434*
X4821306Y3270067*
X4822169Y3270189*
X4823023Y3270369*
X4823861Y327061*
X4824681Y3270907*
X4825479Y3271263*
X4826248Y3271672*
X4826988Y3272134*
X4827694Y3272647*
X4828362Y3273209*
X4828989Y3273816*
X4829573Y3274463*
X4830112Y3275152*
X4830599Y3275873*
X4831036Y327663*
X4831417Y3277415*
X4831745Y3278223*
X4832014Y3279053*
X4832225Y3279899*
X4832377Y3280757*
X4832469Y3281626*
X4832499Y3282497*
X1619504Y3562499D02*
D01*
X1619473Y3563371*
X1619382Y3564237*
X1619229Y3565098*
X1619018Y3565944*
X1618749Y3566774*
X1618421Y3567582*
X161804Y3568367*
X1617604Y3569121*
X1617116Y3569845*
X161658Y3570533*
X1615996Y3571181*
X1615368Y3571788*
X1614698Y3572349*
X1613994Y357286*
X1613253Y3573322*
X1612483Y3573734*
X1611685Y3574087*
X1610865Y3574387*
X1610027Y3574628*
X1609173Y3574808*
X160831Y357493*
X1607439Y3574991*
X1606567*
X1605696Y357493*
X1604832Y3574808*
X1603979Y3574628*
X1603141Y3574387*
X160232Y3574087*
X1601523Y3573734*
X1600753Y3573322*
X1600014Y357286*
X1599308Y3572349*
X159864Y3571788*
X1598013Y3571181*
X1597428Y3570533*
X159689Y3569845*
X1596402Y3569121*
X1595965Y3568367*
X1595584Y3567582*
X1595257Y3566774*
X1594987Y3565944*
X1594777Y3565098*
X1594624Y3564237*
X1594533Y3563371*
X1594502Y3562499*
X1594533Y3561626*
X1594624Y3560759*
X1594777Y3559898*
X1594987Y3559053*
X1595257Y3558222*
X1595584Y3557414*
X1595965Y3556629*
X1596402Y3555875*
X159689Y3555151*
X1597428Y3554463*
X1598013Y3553815*
X159864Y3553208*
X1599308Y3552649*
X1600014Y3552136*
X1600753Y3551674*
X1601523Y3551262*
X160232Y3550909*
X1603141Y355061*
X1603979Y3550368*
X1604832Y3550188*
X1605696Y3550066*
X1606567Y3550005*
X1607439*
X160831Y3550066*
X1609173Y3550188*
X1610027Y3550368*
X1610865Y355061*
X1611685Y3550909*
X1612483Y3551262*
X1613253Y3551674*
X1613994Y3552136*
X1614698Y3552649*
X1615368Y3553208*
X1615996Y3553815*
X161658Y3554463*
X1617116Y3555151*
X1617604Y3555875*
X161804Y3556629*
X1618421Y3557414*
X1618749Y3558222*
X1619018Y3559053*
X1619229Y3559898*
X1619382Y3560759*
X1619473Y3561626*
X1619504Y3562499*
X2119503D02*
D01*
X2119472Y3563371*
X2119381Y3564237*
X2119231Y3565098*
X211902Y3565944*
X2118748Y3566774*
X2118423Y3567582*
X2118039Y3568367*
X2117603Y3569121*
X2117115Y3569845*
X2116579Y3570533*
X2115995Y3571181*
X2115367Y3571788*
X2114699Y3572349*
X2113993Y357286*
X2113254Y3573322*
X2112482Y3573734*
X2111687Y3574087*
X2110867Y3574387*
X2110028Y3574628*
X2109175Y3574808*
X2108309Y357493*
X210744Y3574991*
X2106566*
X2105698Y357493*
X2104831Y3574808*
X2103978Y3574628*
X210314Y3574387*
X2102319Y3574087*
X2101524Y3573734*
X2100752Y3573322*
X2100013Y357286*
X2099307Y3572349*
X2098639Y3571788*
X2098012Y3571181*
X2097427Y3570533*
X2096891Y3569845*
X2096404Y3569121*
X2095967Y3568367*
X2095583Y3567582*
X2095258Y3566774*
X2094986Y3565944*
X2094776Y3565098*
X2094626Y3564237*
X2094534Y3563371*
X2094504Y3562499*
X2094534Y3561626*
X2094626Y3560759*
X2094776Y3559898*
X2094986Y3559053*
X2095258Y3558222*
X2095583Y3557414*
X2095967Y3556629*
X2096404Y3555875*
X2096891Y3555151*
X2097427Y3554463*
X2098012Y3553815*
X2098639Y3553208*
X2099307Y3552649*
X2100013Y3552136*
X2100752Y3551674*
X2101524Y3551262*
X2102319Y3550909*
X210314Y355061*
X2103978Y3550368*
X2104831Y3550188*
X2105698Y3550066*
X2106566Y3550005*
X210744*
X2108309Y3550066*
X2109175Y3550188*
X2110028Y3550368*
X2110867Y355061*
X2111687Y3550909*
X2112482Y3551262*
X2113254Y3551674*
X2113993Y3552136*
X2114699Y3552649*
X2115367Y3553208*
X2115995Y3553815*
X2116579Y3554463*
X2117115Y3555151*
X2117603Y3555875*
X2118039Y3556629*
X2118423Y3557414*
X2118748Y3558222*
X211902Y3559053*
X2119231Y3559898*
X2119381Y3560759*
X2119472Y3561626*
X2119503Y3562499*
X1132499Y2007798D02*
D01*
X1132469Y200867*
X1132377Y2009538*
X1132225Y2010397*
X1132014Y2011243*
X1131745Y2012073*
X1131417Y2012883*
X1131036Y2013666*
X1130599Y2014423*
X1130112Y2015147*
X1129573Y2015832*
X1128989Y2016483*
X1128361Y2017087*
X1127693Y2017649*
X1126987Y2018162*
X1126248Y2018624*
X1125479Y2019033*
X1124681Y2019388*
X1123861Y2019686*
X1123022Y2019927*
X1122169Y2020107*
X1121305Y2020229*
X1120434Y202029*
X1119563*
X1118692Y2020229*
X1117828Y2020107*
X1116975Y2019927*
X1116136Y2019686*
X1115316Y2019388*
X1114518Y2019033*
X1113749Y2018624*
X1113007Y2018162*
X1112304Y2017649*
X1111633Y2017087*
X1111006Y2016483*
X1110421Y2015832*
X1109886Y2015147*
X1109398Y2014423*
X1108961Y2013666*
X110858Y2012883*
X1108252Y2012073*
X1107983Y2011243*
X1107772Y2010397*
X110762Y2009538*
X1107528Y200867*
X1107498Y2007798*
X1107528Y2006927*
X110762Y2006058*
X1107772Y20052*
X1107983Y2004352*
X1108252Y2003524*
X110858Y2002713*
X1108961Y2001931*
X1109398Y2001174*
X1109886Y200045*
X1110421Y1999764*
X1111006Y1999114*
X1111633Y199851*
X1112304Y1997948*
X1113007Y1997435*
X1113749Y1996973*
X1114518Y1996564*
X1115316Y1996208*
X1116136Y1995911*
X1116975Y199567*
X1117828Y1995487*
X1118692Y1995368*
X1119563Y1995307*
X1120434*
X1121305Y1995368*
X1122169Y1995487*
X1123022Y199567*
X1123861Y1995911*
X1124681Y1996208*
X1125479Y1996564*
X1126248Y1996973*
X1126987Y1997435*
X1127693Y1997948*
X1128361Y199851*
X1128989Y1999114*
X1129573Y1999764*
X1130112Y200045*
X1130599Y2001174*
X1131036Y2001931*
X1131417Y2002713*
X1131745Y2003524*
X1132014Y2004352*
X1132225Y20052*
X1132377Y2006058*
X1132469Y2006927*
X1132499Y2007798*
X2559199Y2099998D02*
D01*
X2559169Y2100869*
X2559077Y2101738*
X2558925Y2102596*
X2558714Y2103445*
X2558445Y2104273*
X2558117Y2105083*
X2557736Y2105868*
X2557299Y2106622*
X2556812Y2107346*
X2556273Y2108032*
X2555689Y2108682*
X2555062Y2109287*
X2554394Y2109848*
X2553688Y2110361*
X2552948Y2110823*
X2552179Y2111232*
X2551381Y2111588*
X2550561Y2111888*
X2549723Y2112126*
X2548869Y2112309*
X2548006Y2112429*
X2547134Y211249*
X2546263*
X2545392Y2112429*
X2544528Y2112309*
X2543675Y2112126*
X2542837Y2111888*
X2542016Y2111588*
X2541219Y2111232*
X2540449Y2110823*
X2539707Y2110361*
X2539001Y2109848*
X2538333Y2109287*
X2537706Y2108682*
X2537122Y2108032*
X2536586Y2107346*
X2536098Y2106622*
X2535661Y2105868*
X253528Y2105083*
X2534953Y2104273*
X2534683Y2103445*
X2534472Y2102596*
X253432Y2101738*
X2534229Y2100869*
X2534198Y2099998*
X2534229Y2099127*
X253432Y2098258*
X2534472Y2097399*
X2534683Y2096554*
X2534953Y2095723*
X253528Y2094913*
X2535661Y209413*
X2536098Y2093374*
X2536586Y2092652*
X2537122Y2091964*
X2537706Y2091316*
X2538333Y2090709*
X2539001Y2090148*
X2539707Y2089635*
X2540449Y2089172*
X2541219Y2088763*
X2542016Y2088408*
X2542837Y2088111*
X2543675Y2087869*
X2544528Y2087689*
X2545392Y2087567*
X2546263Y2087506*
X2547134*
X2548006Y2087567*
X2548869Y2087689*
X2549723Y2087869*
X2550561Y2088111*
X2551381Y2088408*
X2552179Y2088763*
X2552948Y2089172*
X2553688Y2089635*
X2554394Y2090148*
X2555062Y2090709*
X2555689Y2091316*
X2556273Y2091964*
X2556812Y2092652*
X2557299Y2093374*
X2557736Y209413*
X2558117Y2094913*
X2558445Y2095723*
X2558714Y2096554*
X2558925Y2097399*
X2559077Y2098258*
X2559169Y2099127*
X2559199Y2099998*
G54D38*
X4299999Y2169998D02*
Y2269998D01*
X4377499*
X4599998Y2169998D02*
Y2269998D01*
X4522497D02*
X4599998D01*
X4299999Y1519999D02*
Y1619999D01*
X4377499*
X4599998Y1519999D02*
Y1619999D01*
X4522497D02*
X4599998D01*
X4728001Y1907001D02*
X4982001D01*
Y1399001D02*
Y1907001D01*
X4728001Y1399001D02*
X4982001D01*
X4728001D02*
Y1907001D01*
X1407002Y4098998D02*
X1507002D01*
X1407002D02*
Y4176499D01*
Y4398998D02*
X1507002D01*
X1407002Y4321497D02*
Y4398998D01*
X1907001Y4102999D02*
X2007003D01*
X1907001D02*
Y4180499D01*
Y4402998D02*
X2007003D01*
X1907001Y4325498D02*
Y4402998D01*
X4919997Y3249998D02*
X5019997D01*
Y3172498D02*
Y3249998D01*
X4919997Y2949999D02*
X5019997D01*
Y3027499*
X1018999Y0372999D02*
Y0626999D01*
X2034999*
X1018999Y0372999D02*
X2034999D01*
Y0626999*
X0272999Y2418999D02*
X0526999D01*
X0272999D02*
Y2926999D01*
X0526999*
Y2418999D02*
Y2926999D01*
X2571503Y3417999D02*
Y4179999D01*
X2317503D02*
X2571503D01*
X2317503Y3417999D02*
Y4179999D01*
Y3417999D02*
X2571503D01*
X0222999Y1830999D02*
X0476999D01*
Y1322999D02*
Y1830999D01*
X0222999Y1322999D02*
X0476999D01*
X0222999D02*
Y1830999D01*
Y0576999D02*
X0476999D01*
Y0068999D02*
Y0576999D01*
X0222999Y0068999D02*
X0476999D01*
X0222999D02*
Y0576999D01*
X1407002Y3594999D02*
X1507002D01*
X1407002D02*
Y3672499D01*
Y3894998D02*
X1507002D01*
X1407002Y3817498D02*
Y3894998D01*
X1907001Y3594999D02*
X2007003D01*
X1907001D02*
Y3672499D01*
Y3894998D02*
X2007003D01*
X1907001Y3817498D02*
Y3894998D01*
X0413999Y3417999D02*
Y4179999D01*
X0159999D02*
X0413999D01*
X0159999Y3417999D02*
Y4179999D01*
Y3417999D02*
X0413999D01*
X1219997Y1975299D02*
X1319999D01*
Y1897799D02*
Y1975299D01*
X1219997Y1675297D02*
X1319999D01*
Y1752798*
X2611699Y1784997D02*
X2649199D01*
X2611699D02*
Y1822498D01*
X2904197Y1784997D02*
X2941698D01*
Y1822498*
Y2077499D02*
Y2114999D01*
X2904197D02*
X2941698D01*
X2611699D02*
X2649199D01*
X2611699Y2077499D02*
Y2114999D01*
X2141697Y2798297D02*
Y3052297D01*
X3411697*
X2141697Y2798297D02*
X3411697D01*
Y3052297*
X1572999Y2584998D02*
X1826999D01*
Y1314998D02*
Y2584998D01*
X1572999Y1314998D02*
Y2584998D01*
Y1314998D02*
X1826999D01*
X3572997Y2584998D02*
X3826997D01*
Y1314998D02*
Y2584998D01*
X3572997Y1314998D02*
Y2584998D01*
Y1314998D02*
X3826997D01*
X3411697Y0798299D02*
Y1052299D01*
X2141697Y0798299D02*
X3411697D01*
X2141697Y1052299D02*
X3411697D01*
X2141697Y0798299D02*
Y1052299D01*
G54D39*
X2305372Y068028D02*
X2285377Y0700272D01*
X2245393*
X2225398Y068028*
Y0660285*
X2245393Y0640293*
X2285377*
X2305372Y0620298*
Y0600306*
X2285377Y0580313*
X2245393*
X2225398Y0600306*
X2405341Y0700272D02*
X2365354D01*
X2345359Y068028*
Y0600306*
X2365354Y0580313*
X2405341*
X2425334Y0600306*
Y068028*
X2405341Y0700272*
X2465321Y0580313D02*
Y0700272D01*
X2545295Y0580313*
Y0700272*
X258528Y0580313D02*
Y0700272D01*
X2665257Y0580313*
Y0700272*
X2785216D02*
X2705244D01*
Y0580313*
X2785216*
X2705244Y0640293D02*
X2745229D01*
X2825203Y0580313D02*
Y0700272D01*
X2905178Y0580313*
Y0700272*
X302514Y068028D02*
X3005145Y0700272D01*
X2965157*
X2945165Y068028*
Y0600306*
X2965157Y0580313*
X3005145*
X302514Y0600306*
Y0640293*
X2985152*
X3065127Y0700272D02*
Y0580313D01*
X3145101*
X3185088D02*
Y0660285D01*
X3225073Y0700272*
X326506Y0660285*
Y0580313*
Y0640293*
X3185088*
X3385022Y068028D02*
X336503Y0700272D01*
X3325042*
X3305048Y068028*
Y0660285*
X3325042Y0640293*
X336503*
X3385022Y0620298*
Y0600306*
X336503Y0580313*
X3325042*
X3305048Y0600306*
X2305372Y049536D02*
X2225398D01*
Y0375399*
X2305372*
X2225398Y0435378D02*
X2265385D01*
X2425334Y049536D02*
X2345359D01*
Y0435378*
X2385347*
X2345359*
Y0375399*
X2465321D02*
Y049536D01*
X2505308Y0455373*
X2545295Y049536*
Y0375399*
X258528Y0475366D02*
X2605275Y049536D01*
X2645262*
X2665257Y0475366*
Y0455373*
X2645262Y0435378*
X2665257Y0415386*
Y0395391*
X2645262Y0375399*
X2605275*
X258528Y0395391*
Y0415386*
X2605275Y0435378*
X258528Y0455373*
Y0475366*
X2605275Y0435378D02*
X2645262D01*
X2705244Y049536D02*
Y0375399D01*
X2765224*
X2785216Y0395391*
Y0415386*
X2765224Y0435378*
X2705244*
X2765224*
X2785216Y0455373*
Y0475366*
X2765224Y049536*
X2705244*
X2825203D02*
Y0375399D01*
X2885186*
X2905178Y0395391*
Y0415386*
X2885186Y0435378*
X2825203*
X2885186*
X2905178Y0455373*
Y0475366*
X2885186Y049536*
X2825203*
X2945165Y0375399D02*
X2985152D01*
X2965157*
Y049536*
X2945165Y0475366*
X4701565Y0826957D02*
X4676173Y085235D01*
X462539*
X4599998Y0826957*
Y072539*
X462539Y0699998*
X4676173*
X4701565Y072539*
Y0776173*
X465078*
X475235Y0699998D02*
Y085235D01*
X4853917Y0699998*
Y085235*
X4904699D02*
Y0699998D01*
X4980876*
X5006268Y072539*
Y0826957*
X4980876Y085235*
X4904699*
X4001566D02*
X3899999D01*
Y0776173*
X3950782Y0801565*
X3976174*
X4001566Y0776173*
Y072539*
X3976174Y0699998*
X3925389*
X3899999Y072539*
X4052349Y085235D02*
Y0750783D01*
X4103133Y0699998*
X4153916Y0750783*
Y085235*
X0650826Y2441999D02*
Y2543566D01*
Y27467D02*
Y2848267D01*
X0600044Y2797484D02*
X0701611D01*
X5123822Y1441998D02*
Y1543565D01*
Y1746699D02*
Y1848266D01*
X507304Y1797484D02*
X5174607D01*
X0776173Y0252349D02*
X072539D01*
X0699998Y0226956*
Y0125389*
X072539Y0099999*
X0776173*
X0801565Y0125389*
Y0226956*
X0776173Y0252349*
X085235D02*
Y0150782D01*
X0903132Y0099999*
X0953917Y0150782*
Y0252349*
X1106266D02*
X1004699D01*
Y0099999*
X1106266*
X1004699Y0176174D02*
X1055484D01*
X1157051Y0099999D02*
Y0252349D01*
X1233225*
X1258618Y0226956*
Y0176174*
X1233225Y0150782*
X1157051*
X1207833D02*
X1258618Y0099999D01*
X13094Y0252349D02*
Y0099999D01*
X141097*
X1461752D02*
Y0201566D01*
X1512536Y0252349*
X1563319Y0201566*
Y0099999*
Y0176174*
X1461752*
X1614103Y0252349D02*
Y0226956D01*
X1664886Y0176174*
X171567Y0226956*
Y0252349*
X1664886Y0176174D02*
Y0099999D01*
X1918804Y0252349D02*
X2020371D01*
X1969587*
Y0099999*
X2172723Y0252349D02*
X2071156D01*
Y0099999*
X2172723*
X2071156Y0176174D02*
X2121938D01*
X2325072Y0226956D02*
X2299682Y0252349D01*
X2248898*
X2223505Y0226956*
Y0125389*
X2248898Y0099999*
X2299682*
X2325072Y0125389*
X2375857Y0252349D02*
Y0099999D01*
Y0176174*
X2477424*
Y0252349*
Y0099999*
X2528206D02*
Y0252349D01*
X2629773Y0099999*
Y0252349*
X2756733D02*
X270595D01*
X2680558Y0226956*
Y0125389*
X270595Y0099999*
X2756733*
X2782125Y0125389*
Y0226956*
X2756733Y0252349*
X2832907D02*
Y0099999D01*
X2934474*
X3061434Y0252349D02*
X3010651D01*
X2985259Y0226956*
Y0125389*
X3010651Y0099999*
X3061434*
X3086826Y0125389*
Y0226956*
X3061434Y0252349*
X3239178Y0226956D02*
X3213785Y0252349D01*
X3163003*
X3137611Y0226956*
Y0125389*
X3163003Y0099999*
X3213785*
X3239178Y0125389*
Y0176174*
X3188393*
X328996Y0252349D02*
Y0226956D01*
X3340745Y0176174*
X3391529Y0226956*
Y0252349*
X3340745Y0176174D02*
Y0099999D01*
X1142304Y2534958D02*
X1167696Y256035D01*
X1218478*
X1243871Y2534958*
Y2433391*
X1218478Y2407998*
X1167696*
X1142304Y2433391*
Y2534958*
X1294655Y2407998D02*
Y2433391D01*
X1320045*
Y2407998*
X1294655*
X1421612D02*
X1472397D01*
X1447004*
Y256035*
X1421612Y2534958*
X1142304Y2276957D02*
X1167696Y2302349D01*
X1218478*
X1243871Y2276957*
Y217539*
X1218478Y2149998*
X1167696*
X1142304Y217539*
Y2276957*
X1294655Y2149998D02*
Y217539D01*
X1320045*
Y2149998*
X1294655*
X1421612Y2276957D02*
X1447004Y2302349D01*
X1497789*
X1523179Y2276957*
Y217539*
X1497789Y2149998*
X1447004*
X1421612Y217539*
Y2276957*
X3601958Y3099998D02*
X3627348Y3074606D01*
Y3023824*
X3601958Y2998431*
X3500391*
X3474999Y3023824*
Y3074606*
X3500391Y3099998*
X3601958*
X3474999Y2947647D02*
X3500391D01*
Y2922257*
X3474999*
Y2947647*
X3627348Y271912D02*
X3601958Y2769905D01*
X3551174Y282069*
X3500391*
X3474999Y2795297*
Y2744513*
X3500391Y271912*
X3525781*
X3551174Y2744513*
Y282069*
X3049965Y2749999D02*
X306996Y2730004D01*
Y2690017*
X3049965Y2670025*
X2969991*
X2949999Y2690017*
Y2730004*
X2969991Y2749999*
X3049965*
X2949999Y2630037D02*
X2969991D01*
Y2610043*
X2949999*
Y2630037*
X306996Y2450096D02*
Y2530068D01*
X3009978*
X3029973Y2490083*
Y2470089*
X3009978Y2450096*
X2969991*
X2949999Y2470089*
Y2510076*
X2969991Y2530068*
X2805165Y2749999D02*
X282516Y2730004D01*
Y2690017*
X2805165Y2670025*
X2725191*
X2705199Y2690017*
Y2730004*
X2725191Y2749999*
X2805165*
X2705199Y2630037D02*
X2725191D01*
Y2610043*
X2705199*
Y2630037*
Y2470089D02*
X282516D01*
X2765178Y2530068*
Y2450096*
X2549966Y2749999D02*
X2569959Y2730004D01*
Y2690017*
X2549966Y2670025*
X2469992*
X2449997Y2690017*
Y2730004*
X2469992Y2749999*
X2549966*
X2449997Y2630037D02*
X2469992D01*
Y2610043*
X2449997*
Y2630037*
X2549966Y2530068D02*
X2569959Y2510076D01*
Y2470089*
X2549966Y2450096*
X2529972*
X2509979Y2470089*
Y2490083*
Y2470089*
X2489984Y2450096*
X2469992*
X2449997Y2470089*
Y2510076*
X2469992Y2530068*
X2299967Y2749999D02*
X2319959Y2730004D01*
Y2690017*
X2299967Y2670025*
X2219993*
X2199998Y2690017*
Y2730004*
X2219993Y2749999*
X2299967*
X2199998Y2630037D02*
X2219993D01*
Y2610043*
X2199998*
Y2630037*
Y2450096D02*
Y2530068D01*
X2279972Y2450096*
X2299967*
X2319959Y2470089*
Y2510076*
X2299967Y2530068*
X3149998Y2476957D02*
X3175391Y2502349D01*
X3226173*
X3251565Y2476957*
Y237539*
X3226173Y2349997*
X3175391*
X3149998Y237539*
Y2476957*
X330235Y2349997D02*
Y237539D01*
X3327742*
Y2349997*
X330235*
X3429309Y2502349D02*
X3530876D01*
Y2476957*
X3429309Y237539*
Y2349997*
X3149998Y2114999D02*
X3200783D01*
X3175391*
Y2267348*
X3149998Y2241958*
X3276958Y2114999D02*
Y2140391D01*
X330235*
Y2114999*
X3276958*
X3403917Y2241958D02*
X3429309Y2267348D01*
X3480092*
X3505484Y2241958*
Y2140391*
X3480092Y2114999*
X3429309*
X3403917Y2140391*
Y2241958*
X3199998Y1897799D02*
X325078D01*
X3225391*
Y205015*
X3199998Y2024758*
X3326958Y1897799D02*
Y1923191D01*
X3352347*
Y1897799*
X3326958*
X3453914D02*
X3504699D01*
X3479307*
Y205015*
X3453914Y2024758*
X3201565Y1776958D02*
X3176173Y180235D01*
X3125391*
X3099998Y1776958*
Y1675391*
X3125391Y1649999*
X3176173*
X3201565Y1675391*
Y1726173*
X3150781*
X325235Y1649999D02*
Y180235D01*
X3353917Y1649999*
Y180235*
X3404699D02*
Y1649999D01*
X3480876*
X3506266Y1675391*
Y1776958*
X3480876Y180235*
X3404699*
X3249998Y1441998D02*
X3289985D01*
X3269993*
Y156196*
X3249998Y1541967*
X3349967Y1441998D02*
Y1461993D01*
X336996*
Y1441998*
X3349967*
X3529909D02*
X3449934D01*
X3529909Y1521973*
Y1541967*
X3509914Y156196*
X3469927*
X3449934Y1541967*
X3349998Y1099997D02*
Y1139985D01*
Y1119992*
X3230036*
X3250031Y1099997*
X3349998Y1199967D02*
X3330003D01*
Y1219959*
X3349998*
Y1199967*
X3250031Y1299933D02*
X3230036Y1319928D01*
Y1359916*
X3250031Y1379908*
X3270023*
X3290018Y1359916*
Y1339921*
Y1359916*
X3310011Y1379908*
X3330003*
X3349998Y1359916*
Y1319928*
X3330003Y1299933*
X3099998Y1099997D02*
Y1150782D01*
Y112539*
X2947647*
X2973039Y1099997*
X3099998Y1226957D02*
X3074606D01*
Y1252349*
X3099998*
Y1226957*
Y1430091D02*
X2947647D01*
X3023824Y1353916*
Y1455483*
X2849999Y1099997D02*
Y1150782D01*
Y112539*
X2697647*
X272304Y1099997*
X2849999Y1226957D02*
X2824607D01*
Y1252349*
X2849999*
Y1226957*
X2697647Y1455483D02*
Y1353916D01*
X2773824*
X2748432Y1404698*
Y1430091*
X2773824Y1455483*
X2824607*
X2849999Y1430091*
Y1379308*
X2824607Y1353916*
X2599999Y1099997D02*
Y1150782D01*
Y112539*
X2447648*
X247304Y1099997*
X2599999Y1226957D02*
X2574607D01*
Y1252349*
X2599999*
Y1226957*
X2447648Y1455483D02*
X247304Y1404698D01*
X2523822Y1353916*
X2574607*
X2599999Y1379308*
Y1430091*
X2574607Y1455483*
X2549215*
X2523822Y1430091*
Y1353916*
X18917Y0736638D02*
X1870041Y0714976D01*
Y0671659*
X18917Y0649998*
X1978339*
X1999998Y0671659*
Y0714976*
X1978339Y0736638*
X1999998Y0866594D02*
Y0779957D01*
X1913359Y0866594*
X18917*
X1870041Y0844936*
Y0801616*
X18917Y0779957*
Y0996553D02*
X1870041Y0974892D01*
Y0931575*
X18917Y0909914*
X1978339*
X1999998Y0931575*
Y0974892*
X1978339Y0996553*
X1870041Y1039873D02*
X1999998D01*
Y1104851*
X1978339Y1126512*
X18917*
X1870041Y1104851*
Y1039873*
X1591701Y0736638D02*
X157004Y0714976D01*
Y0671659*
X1591701Y0649998*
X1678338*
X1699999Y0671659*
Y0714976*
X1678338Y0736638*
X1699999Y0866594D02*
Y0779957D01*
X1613359Y0866594*
X1591701*
X157004Y0844936*
Y0801616*
X1591701Y0779957*
Y0996553D02*
X157004Y0974892D01*
Y0931575*
X1591701Y0909914*
X1678338*
X1699999Y0931575*
Y0974892*
X1678338Y0996553*
X157004Y1039873D02*
X1699999D01*
X1656679*
X157004Y1126512*
X163502Y1061532*
X1699999Y1126512*
X137004Y0649998D02*
X1456679D01*
X1499999Y0693318*
X1456679Y0736638*
X137004*
X1391701Y0866594D02*
X137004Y0844936D01*
Y0801616*
X1391701Y0779957*
X1478338*
X1499999Y0801616*
Y0844936*
X1478338Y0866594*
X1391701Y0996553D02*
X137004Y0974892D01*
Y0931575*
X1391701Y0909914*
X1478338*
X1499999Y0931575*
Y0974892*
X1478338Y0996553*
X1091699Y0736638D02*
X1070041Y0714976D01*
Y0671659*
X1091699Y0649998*
X1178339*
X1199997Y0671659*
Y0714976*
X1178339Y0736638*
X1135019*
Y0693318*
X1199997Y0779957D02*
X1070041D01*
X1199997Y0866594*
X1070041*
Y0909914D02*
X1199997D01*
Y0974892*
X1178339Y0996553*
X1091699*
X1070041Y0974892*
Y0909914*
X515003Y0879972D02*
X5130038Y0859977D01*
Y0819993*
X515003Y0799998*
X5170025*
X5190017Y0819993*
Y0859977*
X5210012Y0879972*
X5230004*
X5249999Y0859977*
Y0819993*
X5230004Y0799998*
X5130038Y0979939D02*
Y0939954D01*
X515003Y091996*
X5230004*
X5249999Y0939954*
Y0979939*
X5230004Y0999934*
X515003*
X5130038Y0979939*
Y1039921D02*
X5249999D01*
Y1119893*
Y115988D02*
X5170025D01*
X5130038Y1199868*
X5170025Y1239857*
X5249999*
X5190017*
Y115988*
X5249999Y1279842D02*
X5130038D01*
Y1339824*
X515003Y1359816*
X5190017*
X5210012Y1339824*
Y1279842*
Y1319829D02*
X5249999Y1359816D01*
X2705199Y3149998D02*
Y330235D01*
X2781373*
X2806766Y3276958*
Y3226173*
X2781373Y3200783*
X2705199*
X2755981D02*
X2806766Y3149998D01*
X285755D02*
X2908333D01*
X288294*
Y330235*
X285755Y3276958*
X3086074Y330235D02*
X3035292Y3276958D01*
X2984507Y3226173*
Y3175391*
X30099Y3149998*
X3060684*
X3086074Y3175391*
Y3200783*
X3060684Y3226173*
X2984507*
X1499999Y2699999D02*
Y2852348D01*
X1576174*
X1601566Y2826956*
Y2776174*
X1576174Y2750781*
X1499999*
X1550781D02*
X1601566Y2699999D01*
X1652348D02*
X1703133D01*
X1677741*
Y2852348*
X1652348Y2826956*
X1880875Y2852348D02*
X1779308D01*
Y2776174*
X1830092Y2801566*
X1855482*
X1880875Y2776174*
Y2725389*
X1855482Y2699999*
X18047*
X1779308Y2725389*
X0499999Y0999998D02*
Y1152349D01*
X0576173*
X0601565Y1126957*
Y1076172*
X0576173Y1050782*
X0499999*
X0550783D02*
X0601565Y0999998D01*
X065235D02*
X0703132D01*
X067774*
Y1152349*
X065235Y1126957*
X0855484Y0999998D02*
Y1152349D01*
X0779307Y1076172*
X0880874*
X3649997Y1049997D02*
Y1202349D01*
X3726174*
X3751564Y1176957*
Y1126172*
X3726174Y1100782*
X3649997*
X3700782D02*
X3751564Y1049997D01*
X3802349D02*
X3853131D01*
X3827741*
Y1202349*
X3802349Y1176957*
X3929308D02*
X3954701Y1202349D01*
X4005483*
X4030875Y1176957*
Y1151564*
X4005483Y1126172*
X3980091*
X4005483*
X4030875Y1100782*
Y107539*
X4005483Y1049997*
X3954701*
X3929308Y107539*
X5249999Y1999998D02*
X5097647D01*
Y2076173*
X512304Y2101565*
X5173822*
X5199214Y2076173*
Y1999998*
Y2050783D02*
X5249999Y2101565D01*
Y215235D02*
Y2203132D01*
Y2177742*
X5097647*
X512304Y215235*
X5249999Y2380876D02*
Y2279309D01*
X5148432Y2380876*
X512304*
X5097647Y2355484*
Y2304699*
X512304Y2279309*
X4099999Y2949999D02*
Y310235D01*
X4176174*
X4201566Y3076958*
Y3026173*
X4176174Y3000781*
X4099999*
X4150781D02*
X4201566Y2949999D01*
X4252348D02*
X4303133D01*
X4277741*
Y310235*
X4252348Y3076958*
X4379307Y2949999D02*
X4430092D01*
X44047*
Y310235*
X4379307Y3076958*
X4599998Y1199997D02*
Y1352349D01*
X4676173*
X4701565Y1326956*
Y1276174*
X4676173Y1250782*
X4599998*
X465078D02*
X4701565Y1199997D01*
X475235D02*
X4803132D01*
X4777742*
Y1352349*
X475235Y1326956*
X4879309D02*
X4904699Y1352349D01*
X4955484*
X4980876Y1326956*
Y1225389*
X4955484Y1199997*
X4904699*
X4879309Y1225389*
Y1326956*
X4760005Y2547198D02*
Y269955D01*
X4836182*
X4861572Y2674157*
Y2623372*
X4836182Y259798*
X4760005*
X481079D02*
X4861572Y2547198D01*
X4912357Y257259D02*
X4937749Y2547198D01*
X4988532*
X5013924Y257259*
Y2674157*
X4988532Y269955*
X4937749*
X4912357Y2674157*
Y2648765*
X4937749Y2623372*
X5013924*
X5249999Y2699999D02*
X5097647D01*
Y2776174*
X512304Y2801566*
X5173822*
X5199214Y2776174*
Y2699999*
Y2750781D02*
X5249999Y2801566D01*
X512304Y2852348D02*
X5097647Y2877741D01*
Y2928523*
X512304Y2953915*
X5148432*
X5173822Y2928523*
X5199214Y2953915*
X5224607*
X5249999Y2928523*
Y2877741*
X5224607Y2852348*
X5199214*
X5173822Y2877741*
X5148432Y2852348*
X512304*
X5173822Y2877741D02*
Y2928523D01*
X4099999Y2053302D02*
X3947647D01*
Y2129477*
X397304Y2154869*
X4023824*
X4049214Y2129477*
Y2053302*
Y2104087D02*
X4099999Y2154869D01*
X3947647Y2205654D02*
Y2307221D01*
X397304*
X4074607Y2205654*
X4099999*
X4399998Y3303488D02*
Y3455837D01*
X4476173*
X4501565Y3430447*
Y3379663*
X4476173Y335427*
X4399998*
X4450783D02*
X4501565Y3303488D01*
X4653917Y3455837D02*
X4603132Y3430447D01*
X455235Y3379663*
Y332888*
X4577742Y3303488*
X4628525*
X4653917Y332888*
Y335427*
X4628525Y3379663*
X455235*
X4349998Y4399998D02*
Y455235D01*
X4426173*
X4451565Y4526958*
Y4476173*
X4426173Y4450783*
X4349998*
X4400781D02*
X4451565Y4399998D01*
X4603917Y455235D02*
X450235D01*
Y4476173*
X4553132Y4501565*
X4578525*
X4603917Y4476173*
Y4425391*
X4578525Y4399998*
X452774*
X450235Y4425391*
X4919997Y4399998D02*
X4767648D01*
Y4476173*
X479304Y4501565*
X4843823*
X4869215Y4476173*
Y4399998*
Y4450783D02*
X4919997Y4501565D01*
Y4628525D02*
X4767648D01*
X4843823Y455235*
Y4653917*
X5149999Y4399998D02*
X4997648D01*
Y4476173*
X502304Y4501565*
X5073822*
X5099215Y4476173*
Y4399998*
Y4450783D02*
X5149999Y4501565D01*
X502304Y455235D02*
X4997648Y4577742D01*
Y4628525*
X502304Y4653917*
X5048432*
X5073822Y4628525*
Y4603132*
Y4628525*
X5099215Y4653917*
X5124607*
X5149999Y4628525*
Y4577742*
X5124607Y455235*
X4349998Y3599997D02*
Y3752349D01*
X4426173*
X4451565Y3726957*
Y3676175*
X4426173Y3650782*
X4349998*
X4400781D02*
X4451565Y3599997D01*
X4603917D02*
X450235D01*
X4603917Y3701564*
Y3726957*
X4578525Y3752349*
X452774*
X450235Y3726957*
X207857Y337439D02*
Y3475956D01*
X2053178Y3501349*
X2002393*
X1977003Y3475956*
Y337439*
X2002393Y3348997*
X2053178*
X2027786Y3399782D02*
X207857Y3348997D01*
X2053178D02*
X207857Y337439D01*
X2129353Y3501349D02*
X223092D01*
Y3475956*
X2129353Y337439*
Y3348997*
X1378569Y337439D02*
Y3475956D01*
X1353179Y3501349*
X1302395*
X1277002Y3475956*
Y337439*
X1302395Y3348997*
X1353179*
X1327787Y3399782D02*
X1378569Y3348997D01*
X1353179D02*
X1378569Y337439D01*
X1530921Y3501349D02*
X1480136Y3475956D01*
X1429354Y3425174*
Y337439*
X1454746Y3348997*
X1505529*
X1530921Y337439*
Y3399782*
X1505529Y3425174*
X1429354*
X1951565Y4475391D02*
Y4576958D01*
X1926173Y460235*
X1875391*
X1849998Y4576958*
Y4475391*
X1875391Y4449998*
X1926173*
X1900783Y450078D02*
X1951565Y4449998D01*
X1926173D02*
X1951565Y4475391D01*
X2103917Y460235D02*
X200235D01*
Y4526173*
X2053132Y4551565*
X2078525*
X2103917Y4526173*
Y4475391*
X2078525Y4449998*
X2027742*
X200235Y4475391*
X1451566D02*
Y4576958D01*
X1426174Y460235*
X1375389*
X1349999Y4576958*
Y4475391*
X1375389Y4449998*
X1426174*
X1400782Y450078D02*
X1451566Y4449998D01*
X1426174D02*
X1451566Y4475391D01*
X1578523Y4449998D02*
Y460235D01*
X1502349Y4526173*
X1603916*
X4401566Y2483391D02*
Y2584958D01*
X4376173Y261035*
X4325391*
X4299999Y2584958*
Y2483391*
X4325391Y2457998*
X4376173*
X4350783Y2508783D02*
X4401566Y2457998D01*
X4376173D02*
X4401566Y2483391D01*
X445235Y2584958D02*
X447774Y261035D01*
X4528525*
X4553917Y2584958*
Y2559565*
X4528525Y2534175*
X4503132*
X4528525*
X4553917Y2508783*
Y2483391*
X4528525Y2457998*
X447774*
X445235Y2483391*
X4401566Y1825391D02*
Y1926958D01*
X4376173Y1952348*
X4325391*
X4299999Y1926958*
Y1825391*
X4325391Y1799998*
X4376173*
X4350783Y1850781D02*
X4401566Y1799998D01*
X4376173D02*
X4401566Y1825391D01*
X4553917Y1799998D02*
X445235D01*
X4553917Y1901565*
Y1926958*
X4528525Y1952348*
X447774*
X445235Y1926958*
X4674605Y3129066D02*
X4573038D01*
X4547646Y3103674*
Y3052889*
X4573038Y3027499*
X4674605*
X4699998Y3052889*
Y3103674*
X4649216Y3078281D02*
X4699998Y3129066D01*
Y3103674D02*
X4674605Y3129066D01*
X4699998Y3179848D02*
Y3230633D01*
Y3205241*
X4547646*
X4573038Y3179848*
X0176509Y4265089D02*
Y4417441D01*
X0252684*
X0278076Y4392048*
Y4341263*
X0252684Y4315871*
X0176509*
X0328858Y4417441D02*
X0430425D01*
Y4392048*
X0328858Y4290481*
Y4265089*
X2499997Y4299999D02*
X2347648D01*
Y4376173*
X237304Y4401566*
X2423822*
X2449215Y4376173*
Y4299999*
X2347648Y4553917D02*
X237304Y4503132D01*
X2423822Y445235*
X2474607*
X2499997Y447774*
Y4528525*
X2474607Y4553917*
X2449215*
X2423822Y4528525*
Y445235*
X0969998Y0399999D02*
X0817648D01*
Y0476173*
X0843038Y0501566*
X0893823*
X0919215Y0476173*
Y0399999*
X0817648Y0653917D02*
Y055235D01*
X0893823*
X0868431Y0603133*
Y0628525*
X0893823Y0653917*
X0944605*
X0969998Y0628525*
Y057774*
X0944605Y055235*
X0677003Y4651349D02*
Y4498997D01*
X077857*
X093092D02*
X0829353D01*
X093092Y4600567*
Y4625957*
X090553Y4651349*
X0854745*
X0829353Y4625957*
X0761702Y305135D02*
Y2898998D01*
X0863269*
X0914054D02*
X0964836D01*
X0939446*
Y305135*
X0914054Y3025957*
X0202349Y2399997D02*
X0049999D01*
X0126174*
Y229843*
X0202349*
X0049999*
X0176956Y2146081D02*
X0202349Y2171473D01*
Y2222256*
X0176956Y2247648*
X0151566*
X0126174Y2222256*
Y2171473*
X0100782Y2146081*
X0075389*
X0049999Y2171473*
Y2222256*
X0075389Y2247648*
X0049999Y2019122D02*
Y2069906D01*
X0075389Y2095296*
X0126174*
X0151566Y2069906*
Y2019122*
X0126174Y1993729*
X0100782*
Y2095296*
X0049999Y1942947D02*
X0151566D01*
Y186677*
X0126174Y184138*
X0049999*
Y1790595D02*
Y1714421D01*
X0075389Y1689028*
X0100782Y1714421*
Y1765203*
X0126174Y1790595*
X0151566Y1765203*
Y1689028*
X0049999Y1612854D02*
Y1562069D01*
X0075389Y1536677*
X0126174*
X0151566Y1562069*
Y1612854*
X0126174Y1638244*
X0075389*
X0049999Y1612854*
X0151566Y1485894D02*
X0049999D01*
X0100782*
X0126174Y1460502*
X0151566Y143511*
Y1409717*
X0049999Y1231976D02*
Y1333543D01*
X0151566Y1231976*
X0176956*
X0202349Y1257368*
Y130815*
X0176956Y1333543*
X0202349Y1149997D02*
X0049999D01*
X0126174*
Y104843*
X0202349*
X0049999*
X0176956Y0896081D02*
X0202349Y0921473D01*
Y0972256*
X0176956Y0997648*
X0151566*
X0126174Y0972256*
Y0921473*
X0100782Y0896081*
X0075389*
X0049999Y0921473*
Y0972256*
X0075389Y0997648*
X0049999Y0769122D02*
Y0819906D01*
X0075389Y0845296*
X0126174*
X0151566Y0819906*
Y0769122*
X0126174Y0743729*
X0100782*
Y0845296*
X0049999Y0692947D02*
X0151566D01*
Y061677*
X0126174Y059138*
X0049999*
Y0540595D02*
Y0464421D01*
X0075389Y0439028*
X0100782Y0464421*
Y0515203*
X0126174Y0540595*
X0151566Y0515203*
Y0439028*
X0049999Y0362851D02*
Y0312069D01*
X0075389Y0286677*
X0126174*
X0151566Y0312069*
Y0362851*
X0126174Y0388244*
X0075389*
X0049999Y0362851*
X0151566Y0235894D02*
X0049999D01*
X0100782*
X0126174Y0210502*
X0151566Y018511*
Y0159717*
X0049999Y0083543D02*
Y003276D01*
Y005815*
X0202349*
X0176956Y0083543*
X1642013Y3451349D02*
Y3299D01*
X171819*
X1743583Y332439*
Y3425957*
X171819Y3451349*
X1642013*
X1895932D02*
X1845149Y3425957D01*
X1794365Y3375174*
Y332439*
X1819757Y3299*
X1870539*
X1895932Y332439*
Y3349782*
X1870539Y3375174*
X1794365*
X3224199Y355235D02*
Y3399998D01*
X3300374*
X3325766Y342539*
Y3526957*
X3300374Y355235*
X3224199*
X3452723Y3399998D02*
Y355235D01*
X3376549Y3476172*
X3478115*
X3839979Y355235D02*
Y3399998D01*
X3916154*
X3941546Y342539*
Y3526957*
X3916154Y355235*
X3839979*
X3992328Y3526957D02*
X4017721Y355235D01*
X4068505*
X4093895Y3526957*
Y3501565*
X4068505Y3476172*
X4043113*
X4068505*
X4093895Y3450783*
Y342539*
X4068505Y3399998*
X4017721*
X3992328Y342539*
X3818699Y455235D02*
Y4399998D01*
X3894874*
X3920266Y4425391*
Y4526958*
X3894874Y455235*
X3818699*
X4072615Y4399998D02*
X3971048D01*
X4072615Y4501565*
Y4526958*
X4047225Y455235*
X3996441*
X3971048Y4526958*
X3199998Y455235D02*
Y4399998D01*
X3276173*
X3301565Y4425391*
Y4526958*
X3276173Y455235*
X3199998*
X3352347Y4399998D02*
X3403132D01*
X337774*
Y455235*
X3352347Y4526958*
X272304Y4451565D02*
X2697647Y4426173D01*
Y4375391*
X272304Y4349998*
X2824607*
X2849999Y4375391*
Y4426173*
X2824607Y4451565*
X2849999Y4578525D02*
X2697647D01*
X2773824Y450235*
Y4603917*
X0202349Y2999999D02*
X0049999D01*
Y2923824*
X0075389Y2898432*
X0100782*
X0126174Y2923824*
Y2999999*
Y2923824*
X0151566Y2898432*
X0176956*
X0202349Y2923824*
Y2999999*
X0049999Y2847647D02*
X0151566D01*
X0202349Y2796865*
X0151566Y274608*
X0049999*
X0126174*
Y2847647*
X0202349Y2695298D02*
Y2593728D01*
Y2644513*
X0049999*
X1099997Y159435D02*
Y1467391D01*
X112539Y1441998*
X1176174*
X1201564Y1467391*
Y159435*
X1353916Y1441998D02*
X1252349D01*
X1353916Y1543565*
Y1568958*
X1328524Y159435*
X1277741*
X1252349Y1568958*
X0823038Y2126866D02*
X0797648Y2101474D01*
Y2050691*
X0823038Y2025299*
X0924605*
X0949998Y2050691*
Y2101474*
X0924605Y2126866*
X0823038Y2177648D02*
X0797648Y2203041D01*
Y2253825*
X0823038Y2279215*
X0848431*
X0873823Y2253825*
Y2228433*
Y2253825*
X0899215Y2279215*
X0924605*
X0949998Y2253825*
Y2203041*
X0924605Y2177648*
X2149998Y1499999D02*
Y1652348D01*
X2226172*
X2251565Y1626958*
Y1576174*
X2226172Y1550781*
X2149998*
X2200783D02*
X2251565Y1499999D01*
X2302349D02*
X2353132D01*
X2327742*
Y1652348*
X2302349Y1626958*
X2194339Y2176866D02*
X2168946Y2151473D01*
Y2100691*
X2194339Y2075299*
X2295906*
X2321298Y2100691*
Y2151473*
X2295906Y2176866*
X2321298Y2329215D02*
Y2227648D01*
X2219731Y2329215*
X2194339*
X2168946Y2303825*
Y225304*
X2194339Y2227648*
X1923039Y2199065D02*
X1897646Y2173673D01*
Y2122891*
X1923039Y2097498*
X2024606*
X2049998Y2122891*
Y2173673*
X2024606Y2199065*
X2049998Y224985D02*
Y2300632D01*
Y227524*
X1897646*
X1923039Y224985*
X0842043Y1282499D02*
X0994394D01*
Y1358673*
X0969002Y1384066*
X0867435*
X0842043Y1358673*
Y1282499*
Y1536415D02*
Y1434848D01*
X0918217*
X0892827Y1485633*
Y1511025*
X0918217Y1536415*
X0969002*
X0994394Y1511025*
Y146024*
X0969002Y1434848*
M02*