%FSTAX25Y25*%
%MOMM*%
%SFA1B1*%

%IPPOS*%
%ADD41C,0.152400*%
%ADD42C,0.101600*%
%LNdevboard_mechanical_8-1*%
%LPD*%
G36*
X5187629Y4195249D02*
X5012369D01*
Y4268909*
X5187629*
Y4195249*
G37*
G36*
X4937627D02*
X4762367D01*
Y4268909*
X4937627*
Y4195249*
G37*
G36*
X4637628D02*
X4462368D01*
Y4268909*
X4637628*
Y4195249*
G37*
G36*
X2879709Y4145173D02*
X2709707D01*
Y4220179*
X2879709*
Y4145173*
G37*
G36*
X5187629Y3931089D02*
X5012369D01*
Y4004749*
X5187629*
Y3931089*
G37*
G36*
X4937627D02*
X4762367D01*
Y4004749*
X4937627*
Y3931089*
G37*
G36*
X4637628D02*
X4462368D01*
Y4004749*
X4637628*
Y3931089*
G37*
G36*
X2879887Y3879819D02*
X2709887D01*
Y3954825*
X2879887*
Y3879819*
G37*
G36*
X5118907Y3592365D02*
X5045247D01*
Y3767625*
X5118907*
Y3592365*
G37*
G36*
X4854747D02*
X4781087D01*
Y3767625*
X4854747*
Y3592365*
G37*
G36*
X2864954Y3583185D02*
X2724947D01*
Y3648186*
X2864954*
Y3583185*
G37*
G36*
Y3435865D02*
X2724947D01*
Y3500866*
X2864954*
Y3435865*
G37*
G36*
X5055638Y3330148D02*
X4990637D01*
Y3470153*
X5055638*
Y3330148*
G37*
G36*
X4908318D02*
X4843317D01*
Y3470153*
X4908318*
Y3330148*
G37*
G36*
X1805637Y2930149D02*
X1740639D01*
Y3070153*
X1805637*
Y2930149*
G37*
G36*
X1658317D02*
X1593319D01*
Y3070153*
X1658317*
Y2930149*
G37*
G36*
X4960642Y2730149D02*
X4895641D01*
Y2870154*
X4960642*
Y2730149*
G37*
G36*
X4813322D02*
X4748321D01*
Y2870154*
X4813322*
Y2730149*
G37*
G36*
X4505637D02*
X4440638D01*
Y2870154*
X4505637*
Y2730149*
G37*
G36*
X4358317D02*
X4293318D01*
Y2870154*
X4358317*
Y2730149*
G37*
G36*
X5001674Y2329842D02*
X4936675D01*
Y2469847*
X5001674*
Y2329842*
G37*
G36*
X4854354D02*
X4789355D01*
Y2469847*
X4854354*
Y2329842*
G37*
G36*
X5000632Y2080148D02*
X4935634D01*
Y2220153*
X5000632*
Y2080148*
G37*
G36*
X4853312D02*
X4788314D01*
Y2220153*
X4853312*
Y2080148*
G37*
G36*
X2322088Y1910859D02*
X2177079D01*
Y1985865*
X2322088*
Y1910859*
G37*
G36*
X2072388Y1910557D02*
X1927379D01*
Y1985566*
X2072388*
Y1910557*
G37*
G36*
X0972388Y1860859D02*
X0827379D01*
Y1935863*
X0972388*
Y1860859*
G37*
G36*
X4119849Y1820943D02*
X3979844D01*
Y1885942*
X4119849*
Y1820943*
G37*
G36*
X2322088Y1766079D02*
X2177079D01*
Y1841085*
X2322088*
Y1766079*
G37*
G36*
X2072388Y1765777D02*
X1927379D01*
Y1840786*
X2072388*
Y1765777*
G37*
G36*
X0972388Y1716079D02*
X0827379D01*
Y1791083*
X0972388*
Y1716079*
G37*
G36*
X4119849Y1673623D02*
X3979844D01*
Y1738622*
X4119849*
Y1673623*
G37*
G36*
X2069848Y1415938D02*
X1929843D01*
Y1480936*
X2069848*
Y1415938*
G37*
G36*
Y1268618D02*
X1929843D01*
Y1333616*
X2069848*
Y1268618*
G37*
G36*
X1206677Y1079842D02*
X1141679D01*
Y1219847*
X1206677*
Y1079842*
G37*
G36*
X1059357D02*
X0994359D01*
Y1219847*
X1059357*
Y1079842*
G37*
G36*
X4905636Y1030147D02*
X4840638D01*
Y1170152*
X4905636*
Y1030147*
G37*
G36*
X4758316D02*
X4693318D01*
Y1170152*
X4758316*
Y1030147*
G37*
G36*
X4405637D02*
X4340639D01*
Y1170152*
X4405637*
Y1030147*
G37*
G36*
X4258317D02*
X4193319D01*
Y1170152*
X4258317*
Y1030147*
G37*
G54D41*
X4853998Y2086498D02*
X4935989D01*
X4853998Y2213498D02*
X4935989D01*
X4853998Y2463497D02*
X4935989D01*
X4853998Y2336497D02*
X4935989D01*
X4259003Y1036497D02*
X4340994D01*
X4259003Y1163497D02*
X4340994D01*
X4759002Y1036497D02*
X4840993D01*
X4759002Y1163497D02*
X4840993D01*
X4359003Y2736499D02*
X4440994D01*
X4359003Y2863499D02*
X4440994D01*
X4814006Y2736499D02*
X4895999D01*
X4814006Y2863499D02*
X4895999D01*
X4113499Y1739308D02*
Y1821299D01*
X3986499Y1739308D02*
Y1821299D01*
X1659003Y2936499D02*
X1740994D01*
X1659003Y3063499D02*
X1740994D01*
X4468718Y4003479D02*
Y4195249D01*
X4631278Y4003479D02*
Y4195249D01*
X4909002Y3336498D02*
X4990995D01*
X4909002Y3463498D02*
X4990995D01*
X4931277Y4004749D02*
Y4196519D01*
X4768717Y4004749D02*
Y4196519D01*
X5018719Y4003479D02*
Y4195249D01*
X5181279Y4003479D02*
Y4195249D01*
X4853477Y3761275D02*
X5045247D01*
X4853477Y3598715D02*
X5045247D01*
X1059002Y1213497D02*
X1140995D01*
X1059002Y1086497D02*
X1140995D01*
X2731297Y3500508D02*
Y3582502D01*
X2858297Y3500508D02*
Y3582502D01*
X2063498Y1334302D02*
Y1416293D01*
X1936498Y1334302D02*
Y1416293D01*
G54D42*
X271611Y3953504D02*
Y4146494D01*
X2873486Y3953504D02*
Y4146494D01*
X0965987Y1789686D02*
Y1863399D01*
X0834009Y1787199D02*
Y1863399D01*
X2065987Y1839389D02*
Y1913097D01*
X1934009Y1836897D02*
Y1913097D01*
X2315687Y1839688D02*
Y1913399D01*
X2183709Y1837199D02*
Y1913399D01*
M02*