%FSTAX25Y25*%
%MOMM*%
%SFA1B1*%

%IPPOS*%
%ADD40C,0.100000*%
%ADD45C,0.050000*%
%LNdevboard_mechanical_15-1*%
%LPD*%
G54D40*
X4449998Y2149998D02*
Y2249998D01*
X4399998Y2199998D02*
X4499998D01*
X4449998Y1499999D02*
Y1599999D01*
X4399998Y1549999D02*
X4499998D01*
X1427002Y4248998D02*
X1527002D01*
X1477002Y4198998D02*
Y4298998D01*
X1927004Y4252998D02*
X2027003D01*
X1977003Y4202998D02*
Y4302998D01*
X4899997Y3099998D02*
X4999997D01*
X4949997Y3049998D02*
Y3149998D01*
X1427002Y3744998D02*
X1527002D01*
X1477002Y3694998D02*
Y3794998D01*
X1927004Y3744998D02*
X2027003D01*
X1977003Y3694998D02*
Y3794998D01*
X1199997Y1825299D02*
X1299999D01*
X1249997Y1775299D02*
Y1875299D01*
X2776697Y1899998D02*
Y1999998D01*
X2726697Y1949998D02*
X2826699D01*
G54D45*
X4249999Y1962497D02*
X4649998D01*
X4249999Y2437498D02*
X4649998D01*
X4249999Y1962497D02*
Y2437498D01*
X4649998Y1962497D02*
Y2437498D01*
X4249999Y1312499D02*
X4649998D01*
X4249999Y1787499D02*
X4649998D01*
X4249999Y1312499D02*
Y1787499D01*
X4649998Y1312499D02*
Y1787499D01*
X1714502Y4048998D02*
Y4448997D01*
X1239504Y4048998D02*
Y4448997D01*
Y4048998D02*
X1714502D01*
X1239504Y4448997D02*
X1714502D01*
X2214501Y4052999D02*
Y4452998D01*
X1739503Y4052999D02*
Y4452998D01*
Y4052999D02*
X2214501D01*
X1739503Y4452998D02*
X2214501D01*
X4712497Y2899999D02*
Y3299998D01*
X5187497Y2899999D02*
Y3299998D01*
X4712497D02*
X5187497D01*
X4712497Y2899999D02*
X5187497D01*
X1714502Y3544999D02*
Y3944998D01*
X1239504Y3544999D02*
Y3944998D01*
Y3544999D02*
X1714502D01*
X1239504Y3944998D02*
X1714502D01*
X2214501Y3544999D02*
Y3944998D01*
X1739503Y3544999D02*
Y3944998D01*
Y3544999D02*
X2214501D01*
X1739503Y3944998D02*
X2214501D01*
X1012499Y1625297D02*
Y2025299D01*
X1487497Y1625297D02*
Y2025299D01*
X1012499D02*
X1487497D01*
X1012499Y1625297D02*
X1487497D01*
X2534198Y1707499D02*
X3019198D01*
X2534198Y2192497D02*
X3019198D01*
Y1707499D02*
Y2192497D01*
X2534198Y1707499D02*
Y2192497D01*
M02*