%FSTAX25Y25*%
%MOMM*%
%SFA1B1*%

%IPPOS*%
%ADD32C,5.999988*%
%ADD33R,1.499997X1.499997*%
%ADD34C,1.499997*%
%ADD35R,1.499997X1.499997*%
%ADD36C,0.999998*%
%LNdevboard_soldermask_bot-1*%
%LPD*%
G54D32*
X4009712Y0349999D03*
X4819997D03*
G54D33*
X4855001Y1526001D03*
X0399999Y2799999D03*
X2444503Y3544999D03*
X0349999Y1449999D03*
Y0195999D03*
X0286999Y3544999D03*
X1699999Y2457998D03*
X3699997D03*
G54D34*
X4855001Y1780001D03*
X1907999Y0499999D03*
X1653999D03*
X1399999D03*
X0399999Y2545999D03*
X2444503Y3798999D03*
Y4052999D03*
X0349999Y1703999D03*
Y0449999D03*
X0286999Y3798999D03*
Y4052999D03*
X3284697Y2925297D03*
X3030697D03*
X2776697D03*
X2522697D03*
X1699999Y1441998D03*
Y1695998D03*
Y1949998D03*
Y2203998D03*
X3699997Y1441998D03*
Y1695998D03*
Y1949998D03*
Y2203998D03*
X2268697Y0925299D03*
X2522697D03*
X2776697D03*
X3030697D03*
G54D35*
X1145999Y0499999D03*
X2268697Y2925297D03*
X3284697Y0925299D03*
G54D36*
X4744999Y3299998D03*
X4627501Y2799999D03*
X1399999Y2999999D03*
X4169707Y2799999D03*
X2794797Y3773248D03*
X1794995Y3899999D03*
M02*