%FSTAX25Y25*%
%MOMM*%
%SFA1B1*%

%IPPOS*%
%ADD40C,0.100000*%
%LNdevboard_mechanical_13-1*%
%LPD*%
G54D40*
X2766697Y2009998D02*
D01*
X2766578Y2013485*
X2766212Y2016958*
X2765605Y2020394*
X2764762Y202378*
X2763682Y20271*
X2762377Y2030336*
X2760845Y2033473*
X27591Y2036495*
X2757149Y2039388*
X2755Y2042137*
X2752666Y204473*
X2750154Y2047156*
X2747482Y2049399*
X2744657Y2051451*
X2741698Y20533*
X2738617Y2054938*
X273543Y2056358*
X2732148Y2057552*
X2728795Y2058512*
X2725381Y2059238*
X2721924Y2059724*
X2718442Y2059967*
X2714952*
X2711472Y2059724*
X2708015Y2059238*
X2704602Y2058512*
X2701246Y2057552*
X2697967Y2056358*
X2694779Y2054938*
X2691698Y20533*
X2688739Y2051451*
X2685915Y2049399*
X2683243Y2047156*
X2680731Y204473*
X2678396Y2042137*
X2676248Y2039388*
X2674297Y2036495*
X2672552Y2033473*
X267102Y2030336*
X2669715Y20271*
X2668635Y202378*
X2667792Y2020394*
X2667185Y2016958*
X2666819Y2013485*
X2666697Y2009998*
X2666819Y2006511*
X2667185Y2003038*
X2667792Y1999602*
X2668635Y1996216*
X2669715Y1992896*
X267102Y198966*
X2672552Y1986526*
X2674297Y1983503*
X2676248Y198061*
X2678396Y1977859*
X2680731Y1975266*
X2683243Y197284*
X2685915Y1970598*
X2688739Y1968545*
X2691698Y1966696*
X2694779Y1965058*
X2697967Y1963638*
X2701246Y1962444*
X2704602Y1961484*
X2708015Y1960758*
X2711472Y1960272*
X2714952Y1960029*
X2718442*
X2721924Y1960272*
X2725381Y1960758*
X2728795Y1961484*
X2732148Y1962444*
X273543Y1963638*
X2738617Y1965058*
X2741698Y1966696*
X2744657Y1968545*
X2747482Y1970598*
X2750154Y197284*
X2752666Y1975266*
X2755Y1977859*
X2757149Y198061*
X27591Y1983503*
X2760845Y1986526*
X2762377Y198966*
X2763682Y1992896*
X2764762Y1996216*
X2765605Y1999602*
X2766212Y2003038*
X2766578Y2006511*
X2766697Y2009998*
X4299999Y2129998D02*
X4599998D01*
X4299999Y2269998D02*
X4599998D01*
X4299999Y2129998D02*
Y2269998D01*
X4599998Y2129998D02*
Y2269998D01*
X4299999Y1479999D02*
X4599998D01*
X4299999Y1619999D02*
X4599998D01*
X4299999Y1479999D02*
Y1619999D01*
X4599998Y1479999D02*
Y1619999D01*
X1547004Y4098998D02*
Y4398998D01*
X1407002Y4098998D02*
Y4398998D01*
Y4098998D02*
X1547004D01*
X1407002Y4398998D02*
X1547004D01*
X2047003Y4102999D02*
Y4402998D01*
X1907001Y4102999D02*
Y4402998D01*
Y4102999D02*
X2047003D01*
X1907001Y4402998D02*
X2047003D01*
X4879997Y2949999D02*
Y3249998D01*
X5019997Y2949999D02*
Y3249998D01*
X4879997D02*
X5019997D01*
X4879997Y2949999D02*
X5019997D01*
X1547004Y3594999D02*
Y3894998D01*
X1407002Y3594999D02*
Y3894998D01*
Y3594999D02*
X1547004D01*
X1407002Y3894998D02*
X1547004D01*
X2047003Y3594999D02*
Y3894998D01*
X1907001Y3594999D02*
Y3894998D01*
Y3594999D02*
X2047003D01*
X1907001Y3894998D02*
X2047003D01*
X1179997Y1675297D02*
Y1975299D01*
X1319999Y1675297D02*
Y1975299D01*
X1179997D02*
X1319999D01*
X1179997Y1675297D02*
X1319999D01*
X2626697Y1799998D02*
X2926699D01*
X2626697Y2099998D02*
X2926699D01*
Y1799998D02*
Y2099998D01*
X2626697Y1799998D02*
Y2099998D01*
M02*