%FSTAX25Y25*%
%MOMM*%
%SFA1B1*%

%IPPOS*%
%AMD23*
4,1,4,-0.139700,0.314960,-0.314960,0.139700,0.139700,-0.314960,0.314960,-0.139700,-0.139700,0.314960,0.0*
1,1,0.250000,-0.228600,0.228600*
1,1,0.250000,0.228600,-0.228600*
%
%AMD27*
4,1,4,-0.314960,-0.139700,-0.139700,-0.314960,0.314960,0.139700,0.139700,0.314960,-0.314960,-0.139700,0.0*
1,1,0.250000,-0.228600,-0.228600*
1,1,0.250000,0.228600,0.228600*
%
%ADD10R,1.299967X1.500117*%
%ADD11R,0.649999X1.199998*%
%ADD12R,1.500117X1.299967*%
%ADD13R,1.199998X0.649999*%
%ADD14R,1.802886X1.599947*%
%ADD15R,1.599947X1.802886*%
%ADD16R,1.100068X1.249928*%
%ADD17R,1.800096X1.599947*%
%ADD18R,0.800098X0.899918*%
%ADD19R,2.150106X5.800078*%
%ADD20R,1.100068X2.400045*%
%ADD21R,3.100064X2.400045*%
%ADD22R,0.800098X0.800098*%
G04~CAMADD=23~3~0.0~0.0~98.4~354.3~0.0~0.0~0~0.0~0.0~0.0~0.0~0~0.0~0.0~0.0~0.0~0~0.0~0.0~0.0~45.0~278.0~278.0*
%ADD23D23*%
%ADD24R,1.699997X1.699997*%
%ADD25O,0.250000X0.899998*%
%ADD26O,0.899998X0.250000*%
G04~CAMADD=27~3~0.0~0.0~98.4~354.3~0.0~0.0~0~0.0~0.0~0.0~0.0~0~0.0~0.0~0.0~0.0~0~0.0~0.0~0.0~135.0~278.0~278.0*
%ADD27D27*%
%ADD32C,5.999988*%
%ADD33R,1.499997X1.499997*%
%ADD34C,1.499997*%
%ADD35R,1.499997X1.499997*%
%LNdevboard_pads_top-1*%
%LPD*%
G54D10*
X498999Y2149998D03*
X4799998D03*
Y2399997D03*
X498999D03*
X4394995Y1099997D03*
X4205003D03*
X4894994D03*
X4705002D03*
X4494994Y2799999D03*
X4305002D03*
X4949997D03*
X4760005D03*
X1794995Y2999999D03*
X1605003D03*
X5044993Y3399998D03*
X4855001D03*
X1005001Y1149997D03*
X1194993D03*
G54D11*
X4354997Y2069998D03*
X4544999D03*
X4449998Y2329997D03*
X4354997Y1419999D03*
X4544999D03*
X4449998Y1679999D03*
G54D12*
X4049999Y1875299D03*
Y1685307D03*
X2794797Y344651D03*
Y3636502D03*
X0899998Y1920295D03*
Y1730303D03*
X1999998Y1470294D03*
Y1280302D03*
Y1969993D03*
Y1780001D03*
X2249698Y1970295D03*
Y1780303D03*
G54D13*
X1607002Y4153999D03*
Y4343999D03*
X1347002Y4248998D03*
X2107003Y4157997D03*
Y4347999D03*
X1847001Y4252998D03*
X4819997Y3194999D03*
Y3004997D03*
X508Y3099998D03*
X1607002Y3649997D03*
Y3839999D03*
X1347002Y3744998D03*
X2107003Y3649997D03*
Y3839999D03*
X1847001Y3744998D03*
X1119997Y1920298D03*
Y1730298D03*
X1379999Y1825299D03*
G54D14*
X4549998Y395781D03*
Y4242188D03*
X4849997D03*
Y395781D03*
X5099999D03*
Y4242188D03*
G54D15*
X4807808Y3679995D03*
X5092186D03*
G54D16*
X0719693Y1282499D03*
Y1517497D03*
G54D17*
X2794797Y3909994D03*
Y4190004D03*
G54D18*
X166199Y3198997D03*
X1892015D03*
G54D19*
X0634497Y3399D03*
X101951D03*
X0634497Y4148998D03*
X101951D03*
G54D20*
X3462197Y3749997D03*
X4099999D03*
X3749692Y4199999D03*
X3099998D03*
G54D21*
X3202178Y3749997D03*
X3839979D03*
X4009712Y4199999D03*
X3360018D03*
G54D22*
X3522192Y3679995D03*
Y3819999D03*
X3042183D03*
Y3679995D03*
X4159991D03*
Y3819999D03*
X3679982D03*
Y3679995D03*
X3689697Y4270001D03*
Y4129996D03*
X4169707D03*
Y4270001D03*
X3040004D03*
Y4129996D03*
X3520013D03*
Y4270001D03*
G54D23*
X2629199Y2097498D03*
X2924197Y1802498D03*
G54D24*
X2776697Y1949998D03*
G54D25*
X2701698Y2097498D03*
X2751698D03*
X2801698D03*
X2851698D03*
Y1802498D03*
X2801698D03*
X2751698D03*
X2701698D03*
G54D26*
X2924197Y2024999D03*
Y1974999D03*
Y1924999D03*
Y1874997D03*
X2629199D03*
Y1924999D03*
Y1974999D03*
Y2024999D03*
G54D27*
X2924197Y2097498D03*
X2629199Y1802498D03*
G54D32*
X4009712Y0349999D03*
X4819997D03*
G54D33*
X4855001Y1526001D03*
X0399999Y2799999D03*
X2444503Y3544999D03*
X0349999Y1449999D03*
Y0195999D03*
X0286999Y3544999D03*
X1699999Y2457998D03*
X3699997D03*
G54D34*
X4855001Y1780001D03*
X1907999Y0499999D03*
X1653999D03*
X1399999D03*
X0399999Y2545999D03*
X2444503Y3798999D03*
Y4052999D03*
X0349999Y1703999D03*
Y0449999D03*
X0286999Y3798999D03*
Y4052999D03*
X3284697Y2925297D03*
X3030697D03*
X2776697D03*
X2522697D03*
X1699999Y1441998D03*
Y1695998D03*
Y1949998D03*
Y2203998D03*
X3699997Y1441998D03*
Y1695998D03*
Y1949998D03*
Y2203998D03*
X2268697Y0925299D03*
X2522697D03*
X2776697D03*
X3030697D03*
G54D35*
X1145999Y0499999D03*
X2268697Y2925297D03*
X3284697Y0925299D03*
M02*