%FSTAX23Y23*%
%MOMM*%
%SFA1B1*%

%IPPOS*%
%AMD32*
4,1,8,-0.500380,0.749300,-0.500380,-0.749300,-0.248920,-1.000760,0.248920,-1.000760,0.500380,-0.749300,0.500380,0.749300,0.248920,1.000760,-0.248920,1.000760,-0.500380,0.749300,0.0*
1,1,0.500000,-0.248920,0.749300*
1,1,0.500000,-0.248920,-0.749300*
1,1,0.500000,0.248920,-0.749300*
1,1,0.500000,0.248920,0.749300*
%
%AMD33*
4,1,8,3.375660,2.250440,-3.375660,2.250440,-4.500880,1.125220,-4.500880,-1.125220,-3.375660,-2.250440,3.375660,-2.250440,4.500880,-1.125220,4.500880,1.125220,3.375660,2.250440,0.0*
1,1,2.250000,3.375660,1.125220*
1,1,2.250000,-3.375660,1.125220*
1,1,2.250000,-3.375660,-1.125220*
1,1,2.250000,3.375660,-1.125220*
%
%ADD10O,1.449997X0.599999*%
%ADD11R,1.449997X0.599999*%
%ADD12O,0.599999X1.449997*%
%ADD13R,0.599999X1.449997*%
%ADD14O,0.419999X1.349997*%
%ADD15R,1.979996X1.879996*%
%ADD16R,1.299997X1.549997*%
%ADD17R,1.549997X1.299997*%
%ADD18R,1.199998X1.349997*%
%ADD19R,1.349997X1.199998*%
%ADD20R,0.399999X0.299999*%
%ADD21C,0.999998*%
%ADD22R,1.149998X1.749997*%
%ADD23R,1.749997X1.149998*%
%ADD24R,1.299997X5.399989*%
%ADD25R,1.149998X2.649995*%
%ADD26C,0.299999*%
%ADD27C,0.799998*%
%ADD28C,0.399999*%
%ADD29C,0.999998*%
%ADD30C,0.499999*%
%ADD31C,1.399997*%
G04~CAMADD=32~8~0.0~0.0~787.4~393.7~98.4~0.0~15~0.0~0.0~0.0~0.0~0~0.0~0.0~0.0~0.0~0~0.0~0.0~0.0~90.0~394.0~788.0*
%ADD32D32*%
G04~CAMADD=33~8~0.0~0.0~3543.3~1771.7~442.9~0.0~15~0.0~0.0~0.0~0.0~0~0.0~0.0~0.0~0.0~0~0.0~0.0~0.0~0.0~3543.3~1771.7*
%ADD33D33*%
%ADD34C,1.523997*%
%ADD35C,0.599999*%
%ADD36C,0.799998*%
%ADD37C,0.999998*%
%LNmicamp_copper_signal_top-1*%
%LPD*%
G54D10*
X35924Y06094D03*
Y07364D03*
Y08634D03*
Y09904D03*
X30474Y06094D03*
Y07364D03*
Y08634D03*
G54D11*
X30474Y09904D03*
G54D12*
X43904Y10724D03*
X42634D03*
X41364D03*
X40094D03*
X43904Y05274D03*
X42634D03*
X41364D03*
G54D13*
X40094Y05274D03*
G54D14*
X55524Y05774D03*
X56174D03*
X56824D03*
X57474D03*
X55524Y10224D03*
X56174D03*
X56824D03*
X57474D03*
G54D15*
X56499Y07999D03*
G54D16*
X48024Y08999D03*
X50974D03*
Y06974D03*
X48024D03*
X42974Y12749D03*
X40024D03*
X32974Y12249D03*
X30024D03*
X04724Y02999D03*
X01774D03*
X37974Y12249D03*
X35024D03*
X48024Y12499D03*
X50974D03*
X48024Y03699D03*
X50974D03*
X37974Y03774D03*
X35024D03*
X32974Y03749D03*
X30024D03*
X57524D03*
X60474D03*
X57524Y12474D03*
X60474D03*
X42974Y03249D03*
X40024D03*
X55724Y03749D03*
X52774D03*
Y12499D03*
X55724D03*
G54D17*
X27749Y11824D03*
Y08874D03*
Y04024D03*
Y06974D03*
G54D18*
X65799Y07999D03*
X67499D03*
G54D19*
X62499Y14099D03*
Y12399D03*
Y01924D03*
Y03624D03*
Y05399D03*
Y07099D03*
Y10599D03*
Y08899D03*
G54D20*
X69429Y08319D03*
Y07679D03*
X70069D03*
Y08319D03*
G54D21*
X09499Y04949D03*
X76999Y07999D03*
G54D22*
X04724Y12749D03*
X01774D03*
X18974D03*
X16024D03*
Y03249D03*
X18974D03*
G54D23*
X52999Y09474D03*
Y06524D03*
G54D24*
X65999Y12059D03*
X71399D03*
X06799Y10999D03*
X12199D03*
Y04749D03*
X06799D03*
X65999Y04024D03*
X71399D03*
G54D25*
X25474Y12749D03*
X22524D03*
Y03249D03*
X25474D03*
G54D26*
X68859Y07099D02*
X69439Y07679D01*
X70059Y08319D02*
Y09649D01*
X69439Y08319D02*
Y08809D01*
X70059Y07034D02*
Y07679D01*
X37989Y07999D02*
X39524D01*
X37951Y08037D02*
X37989Y07999D01*
X37281Y08037D02*
X37951D01*
X36999Y08319D02*
X37281Y08037D01*
G54D27*
X74999Y07474D02*
Y08899D01*
X74049Y06524D02*
X74999Y07474D01*
X73274Y06524D02*
X74049D01*
X74999Y08899D02*
X76026Y09926D01*
X77866*
X78999Y11059*
X71399Y10099D02*
X73499Y07999D01*
X71399Y10099D02*
Y12059D01*
X54999Y07999D02*
X56499D01*
X00999Y05249D02*
Y05699D01*
X00899Y10399D02*
X01774Y11274D01*
X71399Y04649D02*
X73274Y06524D01*
X69749Y03499D02*
Y06499D01*
X67349Y01099D02*
X69749Y03499D01*
X67349Y12774D02*
X69824Y10299D01*
X67349Y01035D02*
Y01099D01*
X66939Y00624D02*
X67349Y01035D01*
X64874Y00624D02*
X66939D01*
X64249Y01249D02*
X64874Y00624D01*
X64249Y01249D02*
Y02649D01*
X63274Y03624D02*
X64249Y02649D01*
X62499Y03624D02*
X63274D01*
X67349Y12774D02*
Y15049D01*
X66939Y15459D02*
X67349Y15049D01*
X6506Y15459D02*
X66939D01*
X64649Y15049D02*
X6506Y15459D01*
X64649Y13649D02*
Y15049D01*
X63399Y12399D02*
X64649Y13649D01*
X62499Y12399D02*
X63399D01*
X53749Y10999D02*
X54124Y11374D01*
X53524Y10999D02*
X53749D01*
X53281Y10756D02*
X53524Y10999D01*
X54124Y11374D02*
Y11824D01*
X52999Y09999D02*
X53281Y10281D01*
Y10756*
X34249Y08549D02*
X34334Y08634D01*
X35924*
X43454Y06954D02*
X43864Y07364D01*
X42634Y06134D02*
X43454Y06954D01*
X43149Y08734D02*
X43384Y08499D01*
X43149Y08734D02*
Y08786D01*
X42634Y09301D02*
X43149Y08786D01*
X42634Y09301D02*
Y10724D01*
X36684Y08634D02*
X36999Y08319D01*
X35924Y08634D02*
X36684D01*
X57524Y13474D02*
X58149Y14099D01*
X62499*
X57524Y02774D02*
X58374Y01924D01*
X62499*
Y03624D02*
Y05399D01*
Y10599D02*
Y12399D01*
X56749Y01999D02*
X57524Y02774D01*
X51749Y01999D02*
X56749D01*
X50974Y02774D02*
X51749Y01999D01*
X50974Y02774D02*
Y03774D01*
X56999Y13999D02*
X57524Y13474D01*
X51499Y13999D02*
X56999D01*
X50974Y13474D02*
X51499Y13999D01*
X50974Y12499D02*
Y13474D01*
X52999Y09474D02*
Y09999D01*
X54124Y11824D02*
X54799Y12499D01*
X55724*
X53524Y09474D02*
X54999Y07999D01*
X52999Y09474D02*
X53524D01*
X48024Y08999D02*
Y09124D01*
X49624Y10724*
X51749*
X52999Y09474*
X43384Y08499D02*
X46614D01*
X47114Y08999*
X48024*
X42634Y05274D02*
Y06134D01*
X43864Y07364D02*
X46634D01*
X47024Y06974*
X48024*
X47874Y03774D02*
X48024D01*
X45749Y05899D02*
X47874Y03774D01*
X45749Y12499D02*
X48024D01*
X01774Y02999D02*
Y04474D01*
X00999Y05249D02*
X01774Y04474D01*
Y11274D02*
Y12749D01*
X30474Y06094D02*
X31884D01*
X19499Y07999D02*
Y10249D01*
X18574Y11174D02*
X19499Y10249D01*
X17599Y11174D02*
X18574D01*
X30024Y02524D02*
Y03749D01*
X28724Y01224D02*
X30024Y02524D01*
X23524Y01224D02*
X28724D01*
X22524Y02224D02*
X23524Y01224D01*
X22524Y02224D02*
Y03249D01*
X19499Y0587D02*
Y07999D01*
X20774Y01499D02*
X22524Y03249D01*
X16999Y01499D02*
X20774D01*
X16024Y02474D02*
X16999Y01499D01*
X16024Y02474D02*
Y03249D01*
X20949Y14324D02*
X22524Y12749D01*
X17074Y14324D02*
X20949D01*
X16024Y13274D02*
X17074Y14324D01*
X16024Y12749D02*
Y13274D01*
X23999Y0635D02*
X24149D01*
X25474Y05024*
Y03249D02*
Y05024D01*
X23999Y09649D02*
X25474Y11124D01*
Y12749*
X21999Y06274D02*
Y0635D01*
X18974Y03249D02*
X21999Y06274D01*
Y09649D02*
Y09999D01*
X19249Y12749D02*
X21999Y09999D01*
X18974Y12749D02*
X19249D01*
X16024Y03249D02*
X17724Y04949D01*
X18579*
X19499Y0587*
X16024Y12749D02*
X17599Y11174D01*
G54D28*
X69824Y09884D02*
X70059Y09649D01*
X69824Y09884D02*
Y10299D01*
X78999Y11059D02*
Y12059D01*
X73499Y07999D02*
X73999D01*
X68749Y07099D02*
X68859D01*
X71399Y04024D02*
Y04649D01*
X69524Y06499D02*
X69749D01*
X69524D02*
X70059Y07034D01*
X54749Y10224D02*
X55524D01*
X57474D02*
X58224D01*
X57474Y05774D02*
Y07024D01*
X55024Y05274D02*
X55524Y05774D01*
X56174Y04199D02*
Y05774D01*
G54D29*
X50974Y07999D02*
X51999D01*
X27749D02*
Y08874D01*
Y06974D02*
Y07999D01*
X60999D02*
X65899D01*
X56499D02*
X58249D01*
X65999Y05099D02*
X67599Y06699D01*
Y07999D02*
Y09649D01*
X65999Y11249D02*
X67599Y09649D01*
X65999Y11249D02*
Y12059D01*
X67599Y06699D02*
Y07999D01*
X65999Y04024D02*
Y05099D01*
X65899Y07999D02*
D01*
X51999D02*
X52249D01*
X59749Y06749D02*
X60999Y07999D01*
X59499Y06749D02*
X59749D01*
X58249Y07999D02*
X59499Y06749D01*
X52999Y06524D02*
Y07249D01*
X52249Y07999D02*
X52999Y07249D01*
X39499Y03774D02*
X40024Y03249D01*
X37974Y03774D02*
X39499D01*
X40024Y03249D02*
X40094Y03319D01*
Y05274*
X39524Y12249D02*
X40024Y12749D01*
X37974Y12249D02*
X39524D01*
X40024Y12749D02*
X40094Y12679D01*
Y10724D02*
Y12679D01*
X42974Y12749D02*
X43904Y11819D01*
Y10724D02*
Y11819D01*
X43999Y03399D02*
X45749D01*
X43904Y03494D02*
X43999Y03399D01*
X43904Y03494D02*
Y05274D01*
X45024Y10724D02*
X45749Y09999D01*
X43904Y10724D02*
X45024D01*
X06799Y07874D02*
Y10999D01*
Y04749D02*
Y07874D01*
X04724Y02999D02*
Y03899D01*
X14849Y0635D02*
X15999D01*
X13249Y04749D02*
X14849Y0635D01*
X12199Y04749D02*
X13249D01*
X14599Y09649D02*
X15999D01*
X13249Y10999D02*
X14599Y09649D01*
X12199Y10999D02*
X13249D01*
G54D30*
X04724Y03899D02*
Y04249D01*
X00999Y07974D02*
X04724Y04249D01*
X00999Y07974D02*
Y07999D01*
X56499D02*
X57474Y07024D01*
X75939Y03939D02*
X78999D01*
X59249Y11249D02*
X60474Y12474D01*
X58224Y10224D02*
X59249Y11249D01*
X43429Y06954D02*
X43454D01*
X42199Y08184D02*
X43429Y06954D01*
X42199Y08184D02*
Y08393D01*
X41593Y08999D02*
X42199Y08393D01*
X40524Y08999D02*
X41593D01*
X41249Y07999D02*
X41364Y07884D01*
X39524Y07999D02*
X40524Y08999D01*
X35951Y07337D02*
X37661D01*
X35924Y07364D02*
X35951Y07337D01*
X37661D02*
X38249Y06749D01*
X36499Y10999D02*
X38249Y09249D01*
X35749Y10999D02*
X36499D01*
X41364Y05274D02*
Y07884D01*
X54299Y05274D02*
X55024D01*
X54499Y03749D02*
X55724D01*
X60474Y12474D02*
D01*
X52774Y03749D02*
X54299Y05274D01*
X55724Y03749D02*
X56174Y04199D01*
X52774Y12474D02*
Y12499D01*
X30474Y07364D02*
X31884D01*
X29199Y06874D02*
X29689Y07364D01*
X29199Y05899D02*
Y06874D01*
X27749Y11824D02*
X28174Y12249D01*
X30024*
X30224*
X32174Y10299*
Y08924D02*
Y10299D01*
X31884Y08634D02*
X32174Y08924D01*
X30474Y08634D02*
X31884D01*
X35024Y11724D02*
X35749Y10999D01*
X35024Y11724D02*
Y12249D01*
X27749Y04024D02*
Y04449D01*
X29199Y05899*
X29689Y07364D02*
X30274D01*
X32974D02*
Y12249D01*
Y04249D02*
Y07364D01*
X35724*
G54D31*
X23999Y09649D03*
X21999D03*
X17999D03*
X15999D03*
Y0635D03*
X17999D03*
X21999D03*
X23999D03*
G54D32*
X00999Y05699D03*
Y07999D03*
Y10299D03*
G54D33*
X78999Y03939D03*
Y12059D03*
G54D34*
X73499Y07999D03*
X38249Y06749D03*
Y09249D03*
X45749Y12499D03*
Y09999D03*
Y05899D03*
Y03399D03*
X59499Y09249D03*
Y06749D03*
G54D35*
X55949Y07449D03*
Y08549D03*
X57049Y07449D03*
Y08549D03*
G54D36*
X68749Y07099D03*
X69249Y08999D03*
X67249Y05999D03*
X35024Y03774D03*
X04749Y12749D03*
X60499Y03749D03*
X34249Y08549D03*
X41249Y07999D03*
X27749D03*
X59249Y11249D03*
X54749Y10224D03*
Y05249D03*
X52774Y12474D03*
X54499Y03749D03*
X06799Y07874D03*
X19499Y07999D03*
X31884Y07364D03*
Y06094D03*
G54D37*
X51999Y07999D03*
M02*