%FSTAX23Y23*%
%MOMM*%
%SFA1B1*%

%IPPOS*%
%AMD32*
4,1,8,-0.500380,0.749300,-0.500380,-0.749300,-0.248920,-1.000760,0.248920,-1.000760,0.500380,-0.749300,0.500380,0.749300,0.248920,1.000760,-0.248920,1.000760,-0.500380,0.749300,0.0*
1,1,0.500000,-0.248920,0.749300*
1,1,0.500000,-0.248920,-0.749300*
1,1,0.500000,0.248920,-0.749300*
1,1,0.500000,0.248920,0.749300*
%
%AMD33*
4,1,8,3.375660,2.250440,-3.375660,2.250440,-4.500880,1.125220,-4.500880,-1.125220,-3.375660,-2.250440,3.375660,-2.250440,4.500880,-1.125220,4.500880,1.125220,3.375660,2.250440,0.0*
1,1,2.250000,3.375660,1.125220*
1,1,2.250000,-3.375660,1.125220*
1,1,2.250000,-3.375660,-1.125220*
1,1,2.250000,3.375660,-1.125220*
%
%ADD29C,0.999998*%
%ADD31C,1.399997*%
G04~CAMADD=32~8~0.0~0.0~787.4~393.7~98.4~0.0~15~0.0~0.0~0.0~0.0~0~0.0~0.0~0.0~0.0~0~0.0~0.0~0.0~90.0~394.0~788.0*
%ADD32D32*%
G04~CAMADD=33~8~0.0~0.0~3543.3~1771.7~442.9~0.0~15~0.0~0.0~0.0~0.0~0~0.0~0.0~0.0~0.0~0~0.0~0.0~0.0~0.0~3543.3~1771.7*
%ADD33D33*%
%ADD34C,1.523997*%
%ADD35C,0.599999*%
%ADD36C,0.799998*%
%ADD37C,0.999998*%
%LNmicamp_copper_signal_1-1*%
%LPD*%
G36*
X73499Y0897D02*
X73248Y08937D01*
X73014Y0884*
X72813Y08686*
X72659Y08485*
X72562Y08251*
X72529Y07999*
X72562Y07748*
X72659Y07514*
X72813Y07313*
X73014Y07159*
X73248Y07062*
X73499Y07029*
Y04646*
X69602*
X67749Y06499*
X67603Y06611*
X67432Y06681*
X67249Y06706*
X67067Y06681*
X66896Y06611*
X6675Y06499*
X66638Y06352*
X66568Y06182*
X66543Y05999*
X66568Y05817*
X66638Y05646*
X6675Y055*
X6881Y0344*
X68956Y03328*
X69127Y03258*
X69309Y03233*
X73499*
Y00254*
X15105*
X1343Y0193*
X13347Y01985*
X13249Y02004*
X00254*
Y04652*
X00381Y0469*
X00425Y04625*
X00574Y04526*
X00749Y04491*
X01249*
X01425Y04526*
X01574Y04625*
X01673Y04774*
X01708Y04949*
Y06449*
X01673Y06625*
X01574Y06774*
X01556Y06786*
Y06913*
X01574Y06925*
X01673Y07074*
X01708Y07249*
Y08749*
X01673Y08925*
X01574Y09074*
X01556Y09086*
Y09213*
X01574Y09225*
X01673Y09374*
X01708Y09549*
Y11049*
X01673Y11225*
X01574Y11374*
X01425Y11473*
X01249Y11508*
X00749*
X00574Y11473*
X00425Y11374*
X00381Y11309*
X00254Y11347*
Y13995*
X13249*
X13347Y14014*
X1343Y14069*
X15105Y15745*
X73499*
Y0897*
G37*
%LNmicamp_copper_signal_1-2*%
%LPC*%
G36*
X04749Y13361D02*
X04515Y13315D01*
X04317Y13182*
X04184Y12984*
X04138Y12749*
X04184Y12515*
X04317Y12317*
X04515Y12184*
X04749Y12138*
X04984Y12184*
X05182Y12317*
X05315Y12515*
X05361Y12749*
X05315Y12984*
X05182Y13182*
X04984Y13315*
X04749Y13361*
G37*
G36*
X52774Y13086D02*
X5254Y1304D01*
X52342Y12907*
X52209Y12709*
X52163Y12474*
X52209Y1224*
X52342Y12042*
X5254Y11909*
X52774Y11863*
X53009Y11909*
X53207Y12042*
X5334Y1224*
X53386Y12474*
X5334Y12709*
X53207Y12907*
X53009Y1304*
X52774Y13086*
G37*
G36*
X45749Y1347D02*
X45498Y13437D01*
X45264Y1334*
X45063Y13186*
X44909Y12985*
X44812Y12751*
X44779Y12499*
X44812Y12248*
X44909Y12014*
X45063Y11813*
X45264Y11659*
X45498Y11562*
X45749Y11529*
X46001Y11562*
X46235Y11659*
X46436Y11813*
X4659Y12014*
X46687Y12248*
X4672Y12499*
X46687Y12751*
X4659Y12985*
X46436Y13186*
X46235Y1334*
X46001Y13437*
X45749Y1347*
G37*
G36*
X59249Y11861D02*
X59015Y11815D01*
X58817Y11682*
X58684Y11484*
X58638Y11249*
X58684Y11015*
X58817Y10817*
X59015Y10684*
X59249Y10638*
X59484Y10684*
X59682Y10817*
X59815Y11015*
X59861Y11249*
X59815Y11484*
X59682Y11682*
X59484Y11815*
X59249Y11861*
G37*
G36*
X54749Y10836D02*
X54515Y1079D01*
X54317Y10657*
X54184Y10459*
X54138Y10224*
X54184Y0999*
X54317Y09792*
X54515Y09659*
X54749Y09613*
X54984Y09659*
X55182Y09792*
X55315Y0999*
X55361Y10224*
X55315Y10459*
X55182Y10657*
X54984Y1079*
X54749Y10836*
G37*
G36*
X45749Y1097D02*
X45498Y10937D01*
X45264Y1084*
X45063Y10686*
X44909Y10485*
X44812Y10251*
X44779Y09999*
X44812Y09748*
X44909Y09514*
X45063Y09313*
X45264Y09159*
X45498Y09062*
X45749Y09029*
X46001Y09062*
X46235Y09159*
X46436Y09313*
X4659Y09514*
X46687Y09748*
X4672Y09999*
X46687Y10251*
X4659Y10485*
X46436Y10686*
X46235Y1084*
X46001Y10937*
X45749Y1097*
G37*
G36*
X23999Y10557D02*
X23765Y10526D01*
X23546Y10436*
X23358Y10291*
X23213Y10103*
X23123Y09884*
X23092Y09649*
X23123Y09415*
X23213Y09196*
X23358Y09008*
X23546Y08863*
X23765Y08773*
X23999Y08742*
X24234Y08773*
X24453Y08863*
X24641Y09008*
X24786Y09196*
X24876Y09415*
X24907Y09649*
X24876Y09884*
X24786Y10103*
X24641Y10291*
X24453Y10436*
X24234Y10526*
X23999Y10557*
G37*
G36*
X21999D02*
X21765Y10526D01*
X21546Y10436*
X21358Y10291*
X21213Y10103*
X21123Y09884*
X21092Y09649*
X21123Y09415*
X21213Y09196*
X21358Y09008*
X21546Y08863*
X21765Y08773*
X21999Y08742*
X22234Y08773*
X22453Y08863*
X22641Y09008*
X22786Y09196*
X22876Y09415*
X22907Y09649*
X22876Y09884*
X22786Y10103*
X22641Y10291*
X22453Y10436*
X22234Y10526*
X21999Y10557*
G37*
G36*
X17999D02*
X17765Y10526D01*
X17546Y10436*
X17358Y10291*
X17213Y10103*
X17123Y09884*
X17092Y09649*
X17123Y09415*
X17213Y09196*
X17358Y09008*
X17546Y08863*
X1762Y08833*
X17595Y08706*
X16404*
X16379Y08833*
X16453Y08863*
X16641Y09008*
X16786Y09196*
X16876Y09415*
X16907Y09649*
X16876Y09884*
X16786Y10103*
X16641Y10291*
X16453Y10436*
X16234Y10526*
X15999Y10557*
X15765Y10526*
X15546Y10436*
X15358Y10291*
X15213Y10103*
X15123Y09884*
X15092Y09649*
X15123Y09415*
X15213Y09196*
X15358Y09008*
X15546Y08863*
X1562Y08833*
X15595Y08706*
X06749*
X06567Y08681*
X06396Y08611*
X0625Y08499*
X06138Y08353*
X06068Y08182*
X06043Y07999*
X06068Y07817*
X06138Y07646*
X0625Y075*
X06396Y07388*
X06531Y07332*
X06565Y07309*
X06799Y07263*
X06954Y07293*
X15595*
X1562Y07166*
X15546Y07136*
X15358Y06991*
X15213Y06803*
X15123Y06584*
X15092Y0635*
X15123Y06115*
X15213Y05896*
X15358Y05708*
X15546Y05563*
X15765Y05473*
X15999Y05442*
X16234Y05473*
X16453Y05563*
X16641Y05708*
X16786Y05896*
X16876Y06115*
X16907Y0635*
X16876Y06584*
X16786Y06803*
X16641Y06991*
X16453Y07136*
X16379Y07166*
X16404Y07293*
X17595*
X1762Y07166*
X17546Y07136*
X17358Y06991*
X17213Y06803*
X17123Y06584*
X17092Y0635*
X17123Y06115*
X17213Y05896*
X17358Y05708*
X17546Y05563*
X17765Y05473*
X17999Y05442*
X18234Y05473*
X18453Y05563*
X18641Y05708*
X18786Y05896*
X18876Y06115*
X18907Y0635*
X18876Y06584*
X18786Y06803*
X18641Y06991*
X18453Y07136*
X18379Y07166*
X18404Y07293*
X19499*
X19682Y07318*
X19852Y07388*
X19999Y075*
X20111Y07646*
X20181Y07817*
X20206Y07999*
X20181Y08182*
X20111Y08353*
X19999Y08499*
X19852Y08611*
X19682Y08681*
X19499Y08706*
X18404*
X18379Y08833*
X18453Y08863*
X18641Y09008*
X18786Y09196*
X18876Y09415*
X18907Y09649*
X18876Y09884*
X18786Y10103*
X18641Y10291*
X18453Y10436*
X18234Y10526*
X17999Y10557*
G37*
G36*
X57049Y09059D02*
X56854Y0902D01*
X56689Y0891*
X56579Y08745*
X56564Y08673*
X56435*
X5642Y08745*
X5631Y0891*
X56145Y0902*
X55949Y09059*
X55754Y0902*
X55589Y0891*
X55478Y08745*
X5544Y08549*
X55478Y08354*
X55589Y08189*
X55754Y08079*
X55826Y08064*
Y07935*
X55754Y0792*
X55589Y0781*
X55478Y07645*
X5544Y07449*
X55478Y07254*
X55589Y07089*
X55754Y06979*
X55949Y0694*
X56145Y06979*
X5631Y07089*
X5642Y07254*
X56435Y07326*
X56564*
X56579Y07254*
X56689Y07089*
X56854Y06979*
X57049Y0694*
X57245Y06979*
X5741Y07089*
X5752Y07254*
X57559Y07449*
X5752Y07645*
X5741Y0781*
X57245Y0792*
X57173Y07935*
Y08064*
X57245Y08079*
X5741Y08189*
X5752Y08354*
X57559Y08549*
X5752Y08745*
X5741Y0891*
X57245Y0902*
X57049Y09059*
G37*
G36*
X69249Y09611D02*
X69015Y09565D01*
X68817Y09432*
X68684Y09234*
X68638Y08999*
X68684Y08765*
X68817Y08567*
X69015Y08434*
X69249Y08388*
X69484Y08434*
X69682Y08567*
X69815Y08765*
X69861Y08999*
X69815Y09234*
X69682Y09432*
X69484Y09565*
X69249Y09611*
G37*
G36*
X59499Y1022D02*
X59248Y10187D01*
X59014Y1009*
X58813Y09936*
X58659Y09735*
X58562Y09501*
X58529Y09249*
X58562Y08998*
X58659Y08764*
X58813Y08563*
X59014Y08409*
X59248Y08312*
X59499Y08279*
X59751Y08312*
X59985Y08409*
X60186Y08563*
X6034Y08764*
X60437Y08998*
X6047Y09249*
X60437Y09501*
X6034Y09735*
X60186Y09936*
X59985Y1009*
X59751Y10187*
X59499Y1022*
G37*
G36*
X38249D02*
X37998Y10187D01*
X37764Y1009*
X37563Y09936*
X37409Y09735*
X37312Y09501*
X37279Y09249*
X37312Y08998*
X37409Y08764*
X37563Y08563*
X37764Y08409*
X37998Y08312*
X38249Y08279*
X38501Y08312*
X38735Y08409*
X38936Y08563*
X3909Y08764*
X39187Y08998*
X3922Y09249*
X39187Y09501*
X3909Y09735*
X38936Y09936*
X38735Y1009*
X38501Y10187*
X38249Y1022*
G37*
G36*
X34249Y09161D02*
X34015Y09115D01*
X33817Y08982*
X33684Y08784*
X33638Y08549*
X33684Y08315*
X33817Y08117*
X34015Y07984*
X34249Y07938*
X34484Y07984*
X34682Y08117*
X34815Y08315*
X34861Y08549*
X34815Y08784*
X34682Y08982*
X34484Y09115*
X34249Y09161*
G37*
G36*
X41249Y08611D02*
X41015Y08565D01*
X40817Y08432*
X40684Y08234*
X40638Y07999*
X40684Y07765*
X40817Y07567*
X41015Y07434*
X41249Y07388*
X41484Y07434*
X41682Y07567*
X41815Y07765*
X41861Y07999*
X41815Y08234*
X41682Y08432*
X41484Y08565*
X41249Y08611*
G37*
G36*
X27749D02*
X27515Y08565D01*
X27317Y08432*
X27184Y08234*
X27138Y07999*
X27184Y07765*
X27317Y07567*
X27515Y07434*
X27749Y07388*
X27984Y07434*
X28182Y07567*
X28315Y07765*
X28361Y07999*
X28315Y08234*
X28182Y08432*
X27984Y08565*
X27749Y08611*
G37*
G36*
X51999Y08706D02*
X51817Y08681D01*
X51646Y08611*
X515Y08499*
X51388Y08353*
X51318Y08182*
X51293Y07999*
X51318Y07817*
X51388Y07646*
X515Y075*
X51646Y07388*
X51817Y07318*
X51999Y07293*
X52182Y07318*
X52353Y07388*
X52499Y075*
X52611Y07646*
X52681Y07817*
X52706Y07999*
X52681Y08182*
X52611Y08353*
X52499Y08499*
X52353Y08611*
X52182Y08681*
X51999Y08706*
G37*
G36*
X68749Y07711D02*
X68515Y07665D01*
X68317Y07532*
X68184Y07334*
X68138Y07099*
X68184Y06865*
X68317Y06667*
X68515Y06534*
X68749Y06488*
X68984Y06534*
X69182Y06667*
X69315Y06865*
X69361Y07099*
X69315Y07334*
X69182Y07532*
X68984Y07665*
X68749Y07711*
G37*
G36*
X03999Y09708D02*
X03666Y09675D01*
X03346Y09578*
X0305Y0942*
X02792Y09207*
X02579Y08949*
X02421Y08653*
X02324Y08333*
X02291Y07999*
X02324Y07666*
X02421Y07346*
X02579Y0705*
X02792Y06792*
X0305Y06579*
X03346Y06421*
X03666Y06324*
X03999Y06291*
X04333Y06324*
X04653Y06421*
X04949Y06579*
X05207Y06792*
X0542Y0705*
X05578Y07346*
X05675Y07666*
X05708Y07999*
X05675Y08333*
X05578Y08653*
X0542Y08949*
X05207Y09207*
X04949Y0942*
X04653Y09578*
X04333Y09675*
X03999Y09708*
G37*
G36*
X59499Y0772D02*
X59248Y07687D01*
X59014Y0759*
X58813Y07436*
X58659Y07235*
X58562Y07001*
X58529Y06749*
X58562Y06498*
X58659Y06264*
X58813Y06063*
X59014Y05909*
X59248Y05812*
X59499Y05779*
X59751Y05812*
X59985Y05909*
X60186Y06063*
X6034Y06264*
X60437Y06498*
X6047Y06749*
X60437Y07001*
X6034Y07235*
X60186Y07436*
X59985Y0759*
X59751Y07687*
X59499Y0772*
G37*
G36*
X38249D02*
X37998Y07687D01*
X37764Y0759*
X37563Y07436*
X37409Y07235*
X37312Y07001*
X37279Y06749*
X37312Y06498*
X37409Y06264*
X37563Y06063*
X37764Y05909*
X37998Y05812*
X38249Y05779*
X38501Y05812*
X38735Y05909*
X38936Y06063*
X3909Y06264*
X39187Y06498*
X3922Y06749*
X39187Y07001*
X3909Y07235*
X38936Y07436*
X38735Y0759*
X38501Y07687*
X38249Y0772*
G37*
G36*
X31884Y07976D02*
X3165Y0793D01*
X31452Y07797*
X31319Y07599*
X31273Y07364*
X31319Y0713*
X31452Y06932*
X3165Y06799*
X31676Y06794*
Y06665*
X3165Y0666*
X31452Y06527*
X31319Y06329*
X31273Y06094*
X31319Y0586*
X31452Y05662*
X3165Y05529*
X31884Y05483*
X32119Y05529*
X32317Y05662*
X3245Y0586*
X32496Y06094*
X3245Y06329*
X32317Y06527*
X32119Y0666*
X32093Y06665*
Y06794*
X32119Y06799*
X32317Y06932*
X3245Y0713*
X32496Y07364*
X3245Y07599*
X32317Y07797*
X32119Y0793*
X31884Y07976*
G37*
G36*
X23999Y07257D02*
X23765Y07226D01*
X23546Y07136*
X23358Y06991*
X23213Y06803*
X23123Y06584*
X23092Y0635*
X23123Y06115*
X23213Y05896*
X23358Y05708*
X23546Y05563*
X23765Y05473*
X23999Y05442*
X24234Y05473*
X24453Y05563*
X24641Y05708*
X24786Y05896*
X24876Y06115*
X24907Y0635*
X24876Y06584*
X24786Y06803*
X24641Y06991*
X24453Y07136*
X24234Y07226*
X23999Y07257*
G37*
G36*
X21999D02*
X21765Y07226D01*
X21546Y07136*
X21358Y06991*
X21213Y06803*
X21123Y06584*
X21092Y0635*
X21123Y06115*
X21213Y05896*
X21358Y05708*
X21546Y05563*
X21765Y05473*
X21999Y05442*
X22234Y05473*
X22453Y05563*
X22641Y05708*
X22786Y05896*
X22876Y06115*
X22907Y0635*
X22876Y06584*
X22786Y06803*
X22641Y06991*
X22453Y07136*
X22234Y07226*
X21999Y07257*
G37*
G36*
X45749Y0687D02*
X45498Y06837D01*
X45264Y0674*
X45063Y06586*
X44909Y06385*
X44812Y06151*
X44779Y05899*
X44812Y05648*
X44909Y05414*
X45063Y05213*
X45264Y05059*
X45498Y04962*
X45749Y04929*
X46001Y04962*
X46235Y05059*
X46436Y05213*
X4659Y05414*
X46687Y05648*
X4672Y05899*
X46687Y06151*
X4659Y06385*
X46436Y06586*
X46235Y0674*
X46001Y06837*
X45749Y0687*
G37*
G36*
X54749Y05861D02*
X54515Y05815D01*
X54317Y05682*
X54184Y05484*
X54138Y05249*
X54184Y05015*
X54317Y04817*
X54515Y04684*
X54749Y04638*
X54984Y04684*
X55182Y04817*
X55315Y05015*
X55361Y05249*
X55315Y05484*
X55182Y05682*
X54984Y05815*
X54749Y05861*
G37*
G36*
X35024Y04386D02*
X3479Y0434D01*
X34592Y04207*
X34459Y04009*
X34413Y03774*
X34459Y0354*
X34592Y03342*
X3479Y03209*
X35024Y03163*
X35259Y03209*
X35457Y03342*
X3559Y0354*
X35636Y03774*
X3559Y04009*
X35457Y04207*
X35259Y0434*
X35024Y04386*
G37*
G36*
X60499Y04361D02*
X60265Y04315D01*
X60067Y04182*
X59934Y03984*
X59888Y03749*
X59934Y03515*
X60067Y03317*
X60265Y03184*
X60499Y03138*
X60734Y03184*
X60932Y03317*
X61065Y03515*
X61111Y03749*
X61065Y03984*
X60932Y04182*
X60734Y04315*
X60499Y04361*
G37*
G36*
X54499D02*
X54265Y04315D01*
X54067Y04182*
X53934Y03984*
X53888Y03749*
X53934Y03515*
X54067Y03317*
X54265Y03184*
X54499Y03138*
X54734Y03184*
X54932Y03317*
X55065Y03515*
X55111Y03749*
X55065Y03984*
X54932Y04182*
X54734Y04315*
X54499Y04361*
G37*
G36*
X45749Y0437D02*
X45498Y04337D01*
X45264Y0424*
X45063Y04086*
X44909Y03885*
X44812Y03651*
X44779Y03399*
X44812Y03148*
X44909Y02914*
X45063Y02713*
X45264Y02559*
X45498Y02462*
X45749Y02429*
X46001Y02462*
X46235Y02559*
X46436Y02713*
X4659Y02914*
X46687Y03148*
X4672Y03399*
X46687Y03651*
X4659Y03885*
X46436Y04086*
X46235Y0424*
X46001Y04337*
X45749Y0437*
G37*
%LNmicamp_copper_signal_1-3*%
%LPD*%
G54D29*
X69309Y03939D02*
X78999D01*
X67249Y05999D02*
X69309Y03939D01*
X06749Y07999D02*
X19499D01*
G54D31*
X23999Y09649D03*
X21999D03*
X17999D03*
X15999D03*
Y0635D03*
X17999D03*
X21999D03*
X23999D03*
G54D32*
X00999Y05699D03*
Y07999D03*
Y10299D03*
G54D33*
X78999Y03939D03*
Y12059D03*
G54D34*
X73499Y07999D03*
X38249Y06749D03*
Y09249D03*
X45749Y12499D03*
Y09999D03*
Y05899D03*
Y03399D03*
X59499Y09249D03*
Y06749D03*
G54D35*
X55949Y07449D03*
Y08549D03*
X57049Y07449D03*
Y08549D03*
G54D36*
X68749Y07099D03*
X69249Y08999D03*
X67249Y05999D03*
X35024Y03774D03*
X04749Y12749D03*
X60499Y03749D03*
X34249Y08549D03*
X41249Y07999D03*
X27749D03*
X59249Y11249D03*
X54749Y10224D03*
Y05249D03*
X52774Y12474D03*
X54499Y03749D03*
X06799Y07874D03*
X19499Y07999D03*
X31884Y07364D03*
Y06094D03*
G54D37*
X51999Y07999D03*
M02*