%FSTAX23Y23*%
%MOMM*%
%SFA1B1*%

%IPPOS*%
%ADD39C,0.200000*%
%ADD40C,0.253999*%
%ADD41C,0.599999*%
%ADD42C,0.250000*%
%ADD43C,0.100000*%
%LNmicamp_legend_top-1*%
%LPD*%
G54D39*
X31599Y05499D02*
X34799D01*
X31599Y10499D02*
X34799D01*
Y05499D02*
Y10499D01*
X31599Y05499D02*
Y10499D01*
X44499Y06399D02*
Y09599D01*
X39499Y06399D02*
Y09599D01*
X44499*
X39499Y06399D02*
X44499D01*
X54949Y06849D02*
Y09149D01*
X58049Y06849D02*
Y09149D01*
X49049Y09674D02*
X49949D01*
X49049Y08324D02*
X49949D01*
X49049D02*
Y09674D01*
X49949Y08324D02*
Y09674D01*
X49049Y06299D02*
X49949D01*
X49049Y07649D02*
X49949D01*
Y06299D02*
Y07649D01*
X49049Y06299D02*
Y07649D01*
X28424Y09899D02*
Y10799D01*
X27074Y09899D02*
Y10799D01*
X28424*
X27074Y09899D02*
X28424D01*
X41049Y12074D02*
X41949D01*
X41049Y13424D02*
X41949D01*
Y12074D02*
Y13424D01*
X41049Y12074D02*
Y13424D01*
X31049Y11574D02*
X31949D01*
X31049Y12924D02*
X31949D01*
Y11574D02*
Y12924D01*
X31049Y11574D02*
Y12924D01*
X27074Y05049D02*
Y05949D01*
X28424Y05049D02*
Y05949D01*
X27074Y05049D02*
X28424D01*
X27074Y05949D02*
X28424D01*
X02799Y02324D02*
X03699D01*
X02799Y03674D02*
X03699D01*
Y02324D02*
Y03674D01*
X02799Y02324D02*
Y03674D01*
X36049Y11574D02*
X36949D01*
X36049Y12924D02*
X36949D01*
Y11574D02*
Y12924D01*
X36049Y11574D02*
Y12924D01*
X49049Y13174D02*
X49949D01*
X49049Y11824D02*
X49949D01*
X49049D02*
Y13174D01*
X49949Y11824D02*
Y13174D01*
X49049Y04374D02*
X49949D01*
X49049Y03024D02*
X49949D01*
X49049D02*
Y04374D01*
X49949Y03024D02*
Y04374D01*
X36049Y03099D02*
X36949D01*
X36049Y04449D02*
X36949D01*
Y03099D02*
Y04449D01*
X36049Y03099D02*
Y04449D01*
X31049Y03074D02*
X31949D01*
X31049Y04424D02*
X31949D01*
Y03074D02*
Y04424D01*
X31049Y03074D02*
Y04424D01*
X58549D02*
X59449D01*
X58549Y03074D02*
X59449D01*
X58549D02*
Y04424D01*
X59449Y03074D02*
Y04424D01*
X58549Y13149D02*
X59449D01*
X58549Y11799D02*
X59449D01*
X58549D02*
Y13149D01*
X59449Y11799D02*
Y13149D01*
X41049Y02574D02*
X41949D01*
X41049Y03924D02*
X41949D01*
Y02574D02*
Y03924D01*
X41049Y02574D02*
Y03924D01*
X53799Y03074D02*
X54699D01*
X53799Y04424D02*
X54699D01*
Y03074D02*
Y04424D01*
X53799Y03074D02*
Y04424D01*
Y13174D02*
X54699D01*
X53799Y11824D02*
X54699D01*
X53799D02*
Y13174D01*
X54699Y11824D02*
Y13174D01*
X02749Y11974D02*
X03749D01*
X02749Y13524D02*
X03749D01*
X53774Y07499D02*
Y08499D01*
X52224Y07499D02*
Y08499D01*
X67049Y14659D02*
X70349D01*
X67049Y09459D02*
X70349D01*
X07849Y13599D02*
X11149D01*
X07849Y08399D02*
X11149D01*
X07849Y02149D02*
X11149D01*
X07849Y07349D02*
X11149D01*
X16999Y11974D02*
X17999D01*
X16999Y13524D02*
X17999D01*
X16999Y04024D02*
X17999D01*
X16999Y02474D02*
X17999D01*
X23499Y11524D02*
X24499D01*
X23499Y13974D02*
X24499D01*
X23499Y04474D02*
X24499D01*
X23499Y02024D02*
X24499D01*
X67049Y06624D02*
X70349D01*
X67049Y01424D02*
X70349D01*
G54D40*
X02666Y11158D02*
X02499Y11324D01*
X02166*
X01999Y11158*
Y10491*
X02166Y10324*
X02499*
X02666Y10491*
X02999Y10324D02*
X03332D01*
X03166*
Y11324*
X02999Y11158*
X03832Y11324D02*
X04499D01*
Y11158*
X03832Y10491*
Y10324*
X32426Y05999D02*
X33696D01*
X33949Y06253*
Y06761*
X33696Y07015*
X32426*
X3268Y07523D02*
X32426Y07777D01*
Y08285*
X3268Y08539*
X32934*
X33188Y08285*
Y08031*
Y08285*
X33442Y08539*
X33696*
X33949Y08285*
Y07777*
X33696Y07523*
X41499Y08773D02*
Y07503D01*
X41753Y07249*
X42261*
X42515Y07503*
Y08773*
X44039Y07249D02*
X43023D01*
X44039Y08265*
Y08519*
X43785Y08773*
X43277*
X43023Y08519*
X48249Y10249D02*
Y11249D01*
X48749*
X48916Y11083*
Y10749*
X48749Y10583*
X48249*
X48583D02*
X48916Y10249D01*
X49249D02*
X49582D01*
X49416*
Y11249*
X49249Y11083*
X50082Y11249D02*
X50749D01*
Y11083*
X50082Y10416*
Y10249*
X48199Y04799D02*
Y05799D01*
X48699*
X48866Y05633*
Y05299*
X48699Y05133*
X48199*
X48533D02*
X48866Y04799D01*
X49199D02*
X49532D01*
X49366*
Y05799*
X49199Y05633*
X50699Y05799D02*
X50365Y05633D01*
X50032Y05299*
Y04966*
X50199Y04799*
X50532*
X50699Y04966*
Y05133*
X50532Y05299*
X50032*
X26499Y12999D02*
Y13999D01*
X26999*
X27166Y13833*
Y13499*
X26999Y13333*
X26499*
X26833D02*
X27166Y12999D01*
X27499D02*
X27832D01*
X27666*
Y13999*
X27499Y13833*
X28999Y13999D02*
X28332D01*
Y13499*
X28665Y13666*
X28832*
X28999Y13499*
Y13166*
X28832Y12999*
X28499*
X28332Y13166*
X30249Y13499D02*
Y14499D01*
X30749*
X30916Y14333*
Y13999*
X30749Y13833*
X30249*
X30583D02*
X30916Y13499D01*
X31249D02*
X31582D01*
X31416*
Y14499*
X31249Y14333*
X32082D02*
X32249Y14499D01*
X32582*
X32749Y14333*
Y14166*
X32582Y13999*
X32415*
X32582*
X32749Y13833*
Y13666*
X32582Y13499*
X32249*
X32082Y13666*
X26499Y01749D02*
Y02749D01*
X26999*
X27166Y02583*
Y02249*
X26999Y02083*
X26499*
X26833D02*
X27166Y01749D01*
X27499D02*
X27832D01*
X27666*
Y02749*
X27499Y02583*
X28999Y01749D02*
X28332D01*
X28999Y02416*
Y02583*
X28832Y02749*
X28499*
X28332Y02583*
X30749Y01499D02*
Y02499D01*
X31249*
X31416Y02333*
Y01999*
X31249Y01833*
X30749*
X31083D02*
X31416Y01499D01*
X32416Y02499D02*
X32082Y02333D01*
X31749Y01999*
Y01666*
X31916Y01499*
X32249*
X32416Y01666*
Y01833*
X32249Y01999*
X31749*
X63916Y05666D02*
X6375Y05499D01*
Y05166*
X63916Y04999*
X64583*
X64749Y05166*
Y05499*
X64583Y05666*
X64749Y05999D02*
Y06332D01*
Y06166*
X6375*
X63916Y05999*
X64749Y07332D02*
X6375D01*
X6425Y06832*
Y07499*
X63916Y09216D02*
X6375Y09049D01*
Y08716*
X63916Y08549*
X64583*
X64749Y08716*
Y09049*
X64583Y09216*
X64749Y09549D02*
Y09882D01*
Y09716*
X6375*
X63916Y09549*
Y10382D02*
X6375Y10549D01*
Y10882*
X63916Y11049*
X64083*
X6425Y10882*
Y10715*
Y10882*
X64416Y11049*
X64583*
X64749Y10882*
Y10549*
X64583Y10382*
X68116Y12333D02*
X67949Y12499D01*
X67616*
X67449Y12333*
Y11666*
X67616Y11499*
X67949*
X68116Y11666*
X68449Y11499D02*
X68782D01*
X68616*
Y12499*
X68449Y12333*
X69949Y11499D02*
X69282D01*
X69949Y12166*
Y12333*
X69782Y12499*
X69449*
X69282Y12333*
X0898Y10265D02*
X08726Y10011D01*
Y09503*
X0898Y09249*
X09996*
X10249Y09503*
Y10011*
X09996Y10265*
X10249Y10773D02*
Y11281D01*
Y11027*
X08726*
X0898Y10773*
X10249Y12043D02*
Y1255D01*
Y12297*
X08726*
X0898Y12043*
X14166Y12666D02*
X14Y12499D01*
Y12166*
X14166Y11999*
X14833*
X14999Y12166*
Y12499*
X14833Y12666*
X14166Y12999D02*
X14Y13166D01*
Y13499*
X14166Y13666*
X14333*
X145Y13499*
X14666Y13666*
X14833*
X14999Y13499*
Y13166*
X14833Y12999*
X14666*
X145Y13166*
X14333Y12999*
X14166*
X145Y13166D02*
Y13499D01*
X14166Y03166D02*
X14Y02999D01*
Y02666*
X14166Y02499*
X14833*
X14999Y02666*
Y02999*
X14833Y03166*
X14Y03499D02*
Y04166D01*
X14166*
X14833Y03499*
X14999*
X20666Y12416D02*
X205Y12249D01*
Y11916*
X20666Y11749*
X21333*
X21499Y11916*
Y12249*
X21333Y12416*
X205Y13416D02*
Y12749D01*
X21*
X20833Y13082*
Y13249*
X21Y13416*
X21333*
X21499Y13249*
Y12916*
X21333Y12749*
X20666Y03141D02*
X205Y02974D01*
Y02641*
X20666Y02474*
X21333*
X21499Y02641*
Y02974*
X21333Y03141*
X21499Y03974D02*
X205D01*
X21Y03474*
Y04141*
X68116Y04358D02*
X67949Y04524D01*
X67616*
X67449Y04358*
Y03691*
X67616Y03524*
X67949*
X68116Y03691*
X68449Y04358D02*
X68616Y04524D01*
X68949*
X69116Y04358*
Y04191*
X68949Y04024*
X68782*
X68949*
X69116Y03858*
Y03691*
X68949Y03524*
X68616*
X68449Y03691*
X25265Y08519D02*
X25011Y08773D01*
X24503*
X24249Y08519*
Y08265*
X24503Y08011*
X25011*
X25265Y07757*
Y07503*
X25011Y07249*
X24503*
X24249Y07503*
X25773Y07249D02*
X26281D01*
X26027*
Y08773*
X25773Y08519*
X40249Y13874D02*
Y14874D01*
X40749*
X40916Y14708*
Y14374*
X40749Y14208*
X40249*
X40583D02*
X40916Y13874D01*
X41249D02*
X41582D01*
X41416*
Y14874*
X41249Y14708*
X42582Y13874D02*
Y14874D01*
X42082Y14374*
X42749*
X35249Y13424D02*
Y14424D01*
X35749*
X35916Y14258*
Y13924*
X35749Y13758*
X35249*
X35583D02*
X35916Y13424D01*
X36249D02*
X36582D01*
X36416*
Y14424*
X36249Y14258*
X37082D02*
X37249Y14424D01*
X37582*
X37749Y14258*
Y13591*
X37582Y13424*
X37249*
X37082Y13591*
Y14258*
X35749Y01524D02*
Y02524D01*
X36249*
X36416Y02358*
Y02024*
X36249Y01858*
X35749*
X36083D02*
X36416Y01524D01*
X36749Y02524D02*
X37416D01*
Y02358*
X36749Y01691*
Y01524*
X40499Y00999D02*
Y01999D01*
X40999*
X41166Y01833*
Y01499*
X40999Y01333*
X40499*
X40833D02*
X41166Y00999D01*
X41499Y01833D02*
X41666Y01999D01*
X41999*
X42166Y01833*
Y01666*
X41999Y01499*
X41832*
X41999*
X42166Y01333*
Y01166*
X41999Y00999*
X41666*
X41499Y01166*
X6375Y12399D02*
X64749D01*
Y13066*
X63916Y13399D02*
X6375Y13566D01*
Y13899*
X63916Y14066*
X64083*
X6425Y13899*
Y13732*
Y13899*
X64416Y14066*
X64583*
X64749Y13899*
Y13566*
X64583Y13399*
X6375Y02024D02*
X64749D01*
Y02691*
Y03024D02*
Y03357D01*
Y03191*
X6375*
X63916Y03024*
X53249Y01499D02*
Y02499D01*
X53749*
X53916Y02333*
Y01999*
X53749Y01833*
X53249*
X53583D02*
X53916Y01499D01*
X54916D02*
X54249D01*
X54916Y02166*
Y02333*
X54749Y02499*
X54416*
X54249Y02333*
X53524Y13749D02*
Y14749D01*
X54024*
X54191Y14583*
Y14249*
X54024Y14083*
X53524*
X53858D02*
X54191Y13749D01*
X54524D02*
X54857D01*
X54691*
Y14749*
X54524Y14583*
X48749Y13749D02*
Y14749D01*
X49249*
X49416Y14583*
Y14249*
X49249Y14083*
X48749*
X49083D02*
X49416Y13749D01*
X49749Y13916D02*
X49916Y13749D01*
X50249*
X50416Y13916*
Y14583*
X50249Y14749*
X49916*
X49749Y14583*
Y14416*
X49916Y14249*
X50416*
X48499Y01474D02*
Y02474D01*
X48999*
X49166Y02308*
Y01974*
X48999Y01808*
X48499*
X48833D02*
X49166Y01474D01*
X49499Y02308D02*
X49666Y02474D01*
X49999*
X50166Y02308*
Y02141*
X49999Y01974*
X50166Y01808*
Y01641*
X49999Y01474*
X49666*
X49499Y01641*
Y01808*
X49666Y01974*
X49499Y02141*
Y02308*
X49666Y01974D02*
X49999D01*
X58249Y01499D02*
Y02499D01*
X58749*
X58916Y02333*
Y01999*
X58749Y01833*
X58249*
X58583D02*
X58916Y01499D01*
X59916Y02499D02*
X59249D01*
Y01999*
X59582Y02166*
X59749*
X59916Y01999*
Y01666*
X59749Y01499*
X59416*
X59249Y01666*
X58249Y13749D02*
Y14749D01*
X58749*
X58916Y14583*
Y14249*
X58749Y14083*
X58249*
X58583D02*
X58916Y13749D01*
X59749D02*
Y14749D01*
X59249Y14249*
X59916*
X02249Y04249D02*
Y05249D01*
X02749*
X02916Y05083*
Y04749*
X02749Y04583*
X02249*
X02583D02*
X02916Y04249D01*
X03249D02*
X03582D01*
X03416*
Y05249*
X03249Y05083*
X04082Y04249D02*
X04415D01*
X04249*
Y05249*
X04082Y05083*
G54D41*
X32899Y09499D02*
D01*
X32899Y0952*
X32897Y09541*
X32893Y09562*
X32888Y09582*
X32881Y09602*
X32874Y09622*
X32864Y0964*
X32854Y09658*
X32842Y09676*
X32829Y09692*
X32815Y09708*
X328Y09722*
X32784Y09736*
X32767Y09748*
X32749Y09759*
X32731Y09769*
X32712Y09778*
X32692Y09785*
X32672Y09791*
X32652Y09795*
X32631Y09798*
X3261Y09799*
X32589*
X32568Y09798*
X32547Y09795*
X32527Y09791*
X32507Y09785*
X32487Y09778*
X32468Y09769*
X32449Y09759*
X32432Y09748*
X32415Y09736*
X32399Y09722*
X32384Y09708*
X3237Y09692*
X32357Y09676*
X32345Y09658*
X32335Y0964*
X32325Y09622*
X32318Y09602*
X32311Y09582*
X32306Y09562*
X32302Y09541*
X323Y0952*
X32299Y09499*
X323Y09479*
X32302Y09458*
X32306Y09437*
X32311Y09417*
X32318Y09397*
X32325Y09377*
X32335Y09359*
X32345Y09341*
X32357Y09323*
X3237Y09307*
X32384Y09291*
X32399Y09277*
X32415Y09263*
X32432Y09251*
X32449Y0924*
X32468Y0923*
X32487Y09221*
X32507Y09214*
X32527Y09208*
X32547Y09204*
X32568Y09201*
X32589Y092*
X3261*
X32631Y09201*
X32652Y09204*
X32672Y09208*
X32692Y09214*
X32712Y09221*
X32731Y0923*
X32749Y0924*
X32767Y09251*
X32784Y09263*
X328Y09277*
X32815Y09291*
X32829Y09307*
X32842Y09323*
X32854Y09341*
X32864Y09359*
X32874Y09377*
X32881Y09397*
X32888Y09417*
X32893Y09437*
X32897Y09458*
X32899Y09479*
X32899Y09499*
X40799Y07399D02*
D01*
X40799Y0742*
X40797Y07441*
X40793Y07462*
X40788Y07482*
X40781Y07502*
X40774Y07522*
X40764Y0754*
X40754Y07558*
X40742Y07576*
X40729Y07592*
X40715Y07608*
X407Y07622*
X40684Y07636*
X40667Y07648*
X40649Y07659*
X40631Y07669*
X40612Y07678*
X40592Y07685*
X40572Y07691*
X40552Y07695*
X40531Y07698*
X4051Y07699*
X40489*
X40468Y07698*
X40447Y07695*
X40427Y07691*
X40407Y07685*
X40387Y07678*
X40368Y07669*
X40349Y07659*
X40332Y07648*
X40315Y07636*
X40299Y07622*
X40284Y07608*
X4027Y07592*
X40257Y07576*
X40245Y07558*
X40235Y0754*
X40225Y07522*
X40218Y07502*
X40211Y07482*
X40206Y07462*
X40202Y07441*
X402Y0742*
X40199Y07399*
X402Y07379*
X40202Y07358*
X40206Y07337*
X40211Y07317*
X40218Y07297*
X40225Y07277*
X40235Y07259*
X40245Y07241*
X40257Y07223*
X4027Y07207*
X40284Y07191*
X40299Y07177*
X40315Y07163*
X40332Y07151*
X40349Y0714*
X40368Y0713*
X40387Y07121*
X40407Y07114*
X40427Y07108*
X40447Y07104*
X40468Y07101*
X40489Y071*
X4051*
X40531Y07101*
X40552Y07104*
X40572Y07108*
X40592Y07114*
X40612Y07121*
X40631Y0713*
X40649Y0714*
X40667Y07151*
X40684Y07163*
X407Y07177*
X40715Y07191*
X40729Y07207*
X40742Y07223*
X40754Y07241*
X40764Y07259*
X40774Y07277*
X40781Y07297*
X40788Y07317*
X40793Y07337*
X40797Y07358*
X40799Y07379*
X40799Y07399*
G54D42*
X30599Y10754D02*
D01*
X30599Y10763*
X30598Y10772*
X30597Y1078*
X30595Y10789*
X30592Y10797*
X30589Y10805*
X30585Y10813*
X3058Y10821*
X30576Y10828*
X3057Y10835*
X30564Y10841*
X30558Y10847*
X30551Y10853*
X30544Y10858*
X30537Y10863*
X30529Y10867*
X30521Y1087*
X30513Y10873*
X30505Y10876*
X30496Y10878*
X30488Y10879*
X30479Y10879*
X3047*
X30461Y10879*
X30453Y10878*
X30444Y10876*
X30436Y10873*
X30428Y1087*
X3042Y10867*
X30412Y10863*
X30405Y10858*
X30398Y10853*
X30391Y10847*
X30385Y10841*
X30379Y10835*
X30373Y10828*
X30368Y10821*
X30364Y10813*
X3036Y10805*
X30357Y10797*
X30354Y10789*
X30352Y1078*
X30351Y10772*
X3035Y10763*
X30349Y10754*
X3035Y10746*
X30351Y10737*
X30352Y10729*
X30354Y1072*
X30357Y10712*
X3036Y10704*
X30364Y10696*
X30368Y10688*
X30373Y10681*
X30379Y10674*
X30385Y10668*
X30391Y10662*
X30398Y10656*
X30405Y10651*
X30412Y10646*
X3042Y10642*
X30428Y10639*
X30436Y10636*
X30444Y10633*
X30453Y10631*
X30461Y1063*
X3047Y1063*
X30479*
X30488Y1063*
X30496Y10631*
X30505Y10633*
X30513Y10636*
X30521Y10639*
X30529Y10642*
X30537Y10646*
X30544Y10651*
X30551Y10656*
X30558Y10662*
X30564Y10668*
X3057Y10674*
X30576Y10681*
X3058Y10688*
X30585Y10696*
X30589Y10704*
X30592Y10712*
X30595Y1072*
X30597Y10729*
X30598Y10737*
X30599Y10746*
X30599Y10754*
X3937Y05274D02*
D01*
X39369Y05283*
X39368Y05292*
X39367Y053*
X39365Y05309*
X39362Y05317*
X39359Y05325*
X39355Y05333*
X39351Y05341*
X39346Y05348*
X3934Y05355*
X39334Y05361*
X39328Y05367*
X39321Y05373*
X39314Y05378*
X39307Y05383*
X39299Y05387*
X39291Y0539*
X39283Y05393*
X39275Y05396*
X39266Y05398*
X39258Y05399*
X39249Y05399*
X3924*
X39231Y05399*
X39223Y05398*
X39214Y05396*
X39206Y05393*
X39198Y0539*
X3919Y05387*
X39182Y05383*
X39175Y05378*
X39168Y05373*
X39161Y05367*
X39155Y05361*
X39149Y05355*
X39143Y05348*
X39138Y05341*
X39134Y05333*
X3913Y05325*
X39127Y05317*
X39124Y05309*
X39122Y053*
X39121Y05292*
X3912Y05283*
X39119Y05274*
X3912Y05266*
X39121Y05257*
X39122Y05248*
X39124Y0524*
X39127Y05232*
X3913Y05224*
X39134Y05216*
X39138Y05208*
X39143Y05201*
X39149Y05194*
X39155Y05188*
X39161Y05182*
X39168Y05176*
X39175Y05171*
X39182Y05166*
X3919Y05162*
X39198Y05159*
X39206Y05156*
X39214Y05153*
X39223Y05151*
X39231Y0515*
X3924Y0515*
X39249*
X39258Y0515*
X39266Y05151*
X39275Y05153*
X39283Y05156*
X39291Y05159*
X39299Y05162*
X39307Y05166*
X39314Y05171*
X39321Y05176*
X39328Y05182*
X39334Y05188*
X3934Y05194*
X39346Y05201*
X39351Y05208*
X39355Y05216*
X39359Y05224*
X39362Y05232*
X39365Y0524*
X39367Y05248*
X39368Y05257*
X39369Y05266*
X3937Y05274*
X54849Y05774D02*
D01*
X54849Y05783*
X54848Y05792*
X54847Y058*
X54845Y05809*
X54842Y05817*
X54839Y05825*
X54835Y05833*
X54831Y05841*
X54826Y05848*
X5482Y05855*
X54814Y05861*
X54808Y05867*
X54801Y05873*
X54794Y05878*
X54787Y05883*
X54779Y05887*
X54771Y0589*
X54763Y05893*
X54755Y05896*
X54746Y05898*
X54738Y05899*
X54729Y05899*
X5472*
X54711Y05899*
X54703Y05898*
X54694Y05896*
X54686Y05893*
X54678Y0589*
X5467Y05887*
X54662Y05883*
X54655Y05878*
X54648Y05873*
X54641Y05867*
X54635Y05861*
X54629Y05855*
X54623Y05848*
X54618Y05841*
X54614Y05833*
X5461Y05825*
X54607Y05817*
X54604Y05809*
X54602Y058*
X54601Y05792*
X546Y05783*
X54599Y05774*
X546Y05766*
X54601Y05757*
X54602Y05749*
X54604Y0574*
X54607Y05732*
X5461Y05724*
X54614Y05716*
X54618Y05708*
X54623Y05701*
X54629Y05694*
X54635Y05688*
X54641Y05682*
X54648Y05676*
X54655Y05671*
X54662Y05666*
X5467Y05662*
X54678Y05659*
X54686Y05656*
X54694Y05653*
X54703Y05651*
X54711Y0565*
X5472Y0565*
X54729*
X54738Y0565*
X54746Y05651*
X54755Y05653*
X54763Y05656*
X54771Y05659*
X54779Y05662*
X54787Y05666*
X54794Y05671*
X54801Y05676*
X54808Y05682*
X54814Y05688*
X5482Y05694*
X54826Y05701*
X54831Y05708*
X54835Y05716*
X54839Y05724*
X54842Y05732*
X54845Y0574*
X54847Y05749*
X54848Y05757*
X54849Y05766*
X54849Y05774*
G54D43*
X70587Y07302D02*
D01*
X70587Y07306*
X70586Y07309*
X70586Y07313*
X70585Y07316*
X70584Y07319*
X70582Y07323*
X70581Y07326*
X70579Y07329*
X70577Y07332*
X70575Y07334*
X70573Y07337*
X7057Y0734*
X70567Y07342*
X70565Y07344*
X70562Y07346*
X70559Y07347*
X70555Y07349*
X70552Y0735*
X70549Y07351*
X70545Y07352*
X70542Y07352*
X70538Y07352*
X70535*
X70531Y07352*
X70528Y07352*
X70525Y07351*
X70521Y0735*
X70518Y07349*
X70515Y07347*
X70512Y07346*
X70509Y07344*
X70506Y07342*
X70503Y0734*
X70501Y07337*
X70498Y07334*
X70496Y07332*
X70494Y07329*
X70492Y07326*
X70491Y07323*
X7049Y07319*
X70489Y07316*
X70488Y07313*
X70487Y07309*
X70487Y07306*
X70487Y07302*
X70487Y07299*
X70487Y07295*
X70488Y07292*
X70489Y07289*
X7049Y07285*
X70491Y07282*
X70492Y07279*
X70494Y07276*
X70496Y07273*
X70498Y0727*
X70501Y07268*
X70503Y07265*
X70506Y07263*
X70509Y07261*
X70512Y07259*
X70515Y07257*
X70518Y07256*
X70521Y07255*
X70525Y07254*
X70528Y07253*
X70531Y07253*
X70535Y07252*
X70538*
X70542Y07253*
X70545Y07253*
X70549Y07254*
X70552Y07255*
X70555Y07256*
X70559Y07257*
X70562Y07259*
X70565Y07261*
X70567Y07263*
X7057Y07265*
X70573Y07268*
X70575Y0727*
X70577Y07273*
X70579Y07276*
X70581Y07279*
X70582Y07282*
X70584Y07285*
X70585Y07289*
X70586Y07292*
X70586Y07295*
X70587Y07299*
X70587Y07302*
M02*