%FSTAX23Y23*%
%MOMM*%
%SFA1B1*%

%IPPOS*%
%AMD32*
4,1,8,-0.500380,0.749300,-0.500380,-0.749300,-0.248920,-1.000760,0.248920,-1.000760,0.500380,-0.749300,0.500380,0.749300,0.248920,1.000760,-0.248920,1.000760,-0.500380,0.749300,0.0*
1,1,0.500000,-0.248920,0.749300*
1,1,0.500000,-0.248920,-0.749300*
1,1,0.500000,0.248920,-0.749300*
1,1,0.500000,0.248920,0.749300*
%
%AMD33*
4,1,8,3.375660,2.250440,-3.375660,2.250440,-4.500880,1.125220,-4.500880,-1.125220,-3.375660,-2.250440,3.375660,-2.250440,4.500880,-1.125220,4.500880,1.125220,3.375660,2.250440,0.0*
1,1,2.250000,3.375660,1.125220*
1,1,2.250000,-3.375660,1.125220*
1,1,2.250000,-3.375660,-1.125220*
1,1,2.250000,3.375660,-1.125220*
%
%ADD31C,1.399997*%
G04~CAMADD=32~8~0.0~0.0~787.4~393.7~98.4~0.0~15~0.0~0.0~0.0~0.0~0~0.0~0.0~0.0~0.0~0~0.0~0.0~0.0~90.0~394.0~788.0*
%ADD32D32*%
G04~CAMADD=33~8~0.0~0.0~3543.3~1771.7~442.9~0.0~15~0.0~0.0~0.0~0.0~0~0.0~0.0~0.0~0.0~0~0.0~0.0~0.0~0.0~3543.3~1771.7*
%ADD33D33*%
%ADD34C,1.523997*%
%ADD35C,0.599999*%
%ADD36C,0.799998*%
%ADD37C,0.999998*%
%LNmicamp_soldermask_bot-1*%
%LPD*%
G54D31*
X23999Y09649D03*
X21999D03*
X17999D03*
X15999D03*
Y0635D03*
X17999D03*
X21999D03*
X23999D03*
G54D32*
X00999Y05699D03*
Y07999D03*
Y10299D03*
G54D33*
X78999Y03939D03*
Y12059D03*
G54D34*
X73499Y07999D03*
X38249Y06749D03*
Y09249D03*
X45749Y12499D03*
Y09999D03*
Y05899D03*
Y03399D03*
X59499Y09249D03*
Y06749D03*
G54D35*
X55949Y07449D03*
Y08549D03*
X57049Y07449D03*
Y08549D03*
G54D36*
X68749Y07099D03*
X69249Y08999D03*
X67249Y05999D03*
X35024Y03774D03*
X04749Y12749D03*
X60499Y03749D03*
X34249Y08549D03*
X41249Y07999D03*
X27749D03*
X59249Y11249D03*
X54749Y10224D03*
Y05249D03*
X52774Y12474D03*
X54499Y03749D03*
X06799Y07874D03*
X19499Y07999D03*
X31884Y07364D03*
Y06094D03*
G54D37*
X51999Y07999D03*
M02*