%FSTAX23Y23*%
%MOMM*%
%SFA1B1*%

%IPPOS*%
%ADD56C,0.127000*%
%LNmicamp_drillmap_1-1*%
%LPD*%
G54D56*
X23599Y09649D02*
X24399D01*
X23999Y09249D02*
Y10049D01*
X21599Y09649D02*
X22399D01*
X21999Y09249D02*
Y10049D01*
X17599Y09649D02*
X18399D01*
X17999Y09249D02*
Y10049D01*
X15599Y09649D02*
X16399D01*
X15999Y09249D02*
Y10049D01*
X15599Y0635D02*
X16399D01*
X15999Y05949D02*
Y06749D01*
X17599Y0635D02*
X18399D01*
X17999Y05949D02*
Y06749D01*
X21599Y0635D02*
X22399D01*
X21999Y05949D02*
Y06749D01*
X23599Y0635D02*
X24399D01*
X23999Y05949D02*
Y06749D01*
X00749Y05699D02*
X01249D01*
X00999Y05449D02*
Y05949D01*
X00749Y07999D02*
X01249D01*
X00999Y07749D02*
Y08249D01*
X00749Y10299D02*
X01249D01*
X00999Y10049D02*
Y10549D01*
X77449Y03939D02*
X80549D01*
X78999Y02389D02*
Y05489D01*
X77449Y12059D02*
X80549D01*
X78999Y10509D02*
Y13609D01*
X72999Y07999D02*
X73999D01*
X73499Y07499D02*
Y08499D01*
X37868Y06749D02*
X3863D01*
X38249Y06368D02*
Y0713D01*
X37868Y09249D02*
X3863D01*
X38249Y08868D02*
Y0963D01*
X45368Y12499D02*
X4613D01*
X45749Y12118D02*
Y1288D01*
X45368Y09999D02*
X4613D01*
X45749Y09618D02*
Y1038D01*
X45368Y05899D02*
X4613D01*
X45749Y05518D02*
Y0628D01*
X45368Y03399D02*
X4613D01*
X45749Y03018D02*
Y0378D01*
X59118Y09249D02*
X5988D01*
X59499Y08868D02*
Y0963D01*
X59118Y06749D02*
X5988D01*
X59499Y06368D02*
Y0713D01*
X02499Y07999D02*
X05499D01*
X03999Y06499D02*
Y09499D01*
X55799Y07449D02*
X56099D01*
X55949Y07299D02*
Y07599D01*
X55799Y08549D02*
X56099D01*
X55949Y08399D02*
Y08699D01*
X56899Y07449D02*
X57199D01*
X57049Y07299D02*
Y07599D01*
X56899Y08549D02*
X57199D01*
X57049Y08399D02*
Y08699D01*
X68549Y07099D02*
X68949D01*
X68749Y06899D02*
Y07299D01*
X69049Y08999D02*
X69449D01*
X69249Y08799D02*
Y09199D01*
X67049Y05999D02*
X67449D01*
X67249Y05799D02*
Y06199D01*
X34824Y03774D02*
X35224D01*
X35024Y03574D02*
Y03974D01*
X04549Y12749D02*
X04949D01*
X04749Y12549D02*
Y12949D01*
X60299Y03749D02*
X60699D01*
X60499Y03549D02*
Y03949D01*
X34049Y08549D02*
X34449D01*
X34249Y08349D02*
Y08749D01*
X41049Y07999D02*
X41449D01*
X41249Y07799D02*
Y08199D01*
X27549Y07999D02*
X27949D01*
X27749Y07799D02*
Y08199D01*
X51799Y07999D02*
X52199D01*
X51999Y07799D02*
Y08199D01*
X59049Y11249D02*
X59449D01*
X59249Y11049D02*
Y11449D01*
X54549Y10224D02*
X54949D01*
X54749Y10024D02*
Y10424D01*
X54549Y05249D02*
X54949D01*
X54749Y05049D02*
Y05449D01*
X52574Y12474D02*
X52974D01*
X52774Y12274D02*
Y12674D01*
X54299Y03749D02*
X54699D01*
X54499Y03549D02*
Y03949D01*
X06599Y07874D02*
X06999D01*
X06799Y07674D02*
Y08074D01*
X19299Y07999D02*
X19699D01*
X19499Y07799D02*
Y08199D01*
X31684Y07364D02*
X32084D01*
X31884Y07164D02*
Y07564D01*
X31684Y06094D02*
X32084D01*
X31884Y05894D02*
Y06294D01*
M02*