%FSTAX23Y23*%
%MOMM*%
%SFA1B1*%

%IPPOS*%
%AMD32*
4,1,8,-0.500380,0.749300,-0.500380,-0.749300,-0.248920,-1.000760,0.248920,-1.000760,0.500380,-0.749300,0.500380,0.749300,0.248920,1.000760,-0.248920,1.000760,-0.500380,0.749300,0.0*
1,1,0.500000,-0.248920,0.749300*
1,1,0.500000,-0.248920,-0.749300*
1,1,0.500000,0.248920,-0.749300*
1,1,0.500000,0.248920,0.749300*
%
%AMD33*
4,1,8,3.375660,2.250440,-3.375660,2.250440,-4.500880,1.125220,-4.500880,-1.125220,-3.375660,-2.250440,3.375660,-2.250440,4.500880,-1.125220,4.500880,1.125220,3.375660,2.250440,0.0*
1,1,2.250000,3.375660,1.125220*
1,1,2.250000,-3.375660,1.125220*
1,1,2.250000,-3.375660,-1.125220*
1,1,2.250000,3.375660,-1.125220*
%
%ADD10O,1.449997X0.599999*%
%ADD11R,1.449997X0.599999*%
%ADD12O,0.599999X1.449997*%
%ADD13R,0.599999X1.449997*%
%ADD14O,0.419999X1.349997*%
%ADD15R,1.979996X1.879996*%
%ADD16R,1.299997X1.549997*%
%ADD17R,1.549997X1.299997*%
%ADD18R,1.199998X1.349997*%
%ADD19R,1.349997X1.199998*%
%ADD20R,0.399999X0.299999*%
%ADD22R,1.149998X1.749997*%
%ADD23R,1.749997X1.149998*%
%ADD24R,1.299997X5.399989*%
%ADD25R,1.149998X2.649995*%
%ADD31C,1.399997*%
G04~CAMADD=32~8~0.0~0.0~787.4~393.7~98.4~0.0~15~0.0~0.0~0.0~0.0~0~0.0~0.0~0.0~0.0~0~0.0~0.0~0.0~90.0~394.0~788.0*
%ADD32D32*%
G04~CAMADD=33~8~0.0~0.0~3543.3~1771.7~442.9~0.0~15~0.0~0.0~0.0~0.0~0~0.0~0.0~0.0~0.0~0~0.0~0.0~0.0~0.0~3543.3~1771.7*
%ADD33D33*%
%ADD34C,1.523997*%
%ADD35C,0.599999*%
%ADD36C,0.799998*%
%ADD37C,0.999998*%
%ADD44C,2.999994*%
%LNmicamp_soldermask_top-1*%
%LPD*%
G54D10*
X35924Y06094D03*
Y07364D03*
Y08634D03*
Y09904D03*
X30474Y06094D03*
Y07364D03*
Y08634D03*
G54D11*
X30474Y09904D03*
G54D12*
X43904Y10724D03*
X42634D03*
X41364D03*
X40094D03*
X43904Y05274D03*
X42634D03*
X41364D03*
G54D13*
X40094Y05274D03*
G54D14*
X55524Y05774D03*
X56174D03*
X56824D03*
X57474D03*
X55524Y10224D03*
X56174D03*
X56824D03*
X57474D03*
G54D15*
X56499Y07999D03*
G54D16*
X48024Y08999D03*
X50974D03*
Y06974D03*
X48024D03*
X42974Y12749D03*
X40024D03*
X32974Y12249D03*
X30024D03*
X04724Y02999D03*
X01774D03*
X37974Y12249D03*
X35024D03*
X48024Y12499D03*
X50974D03*
X48024Y03699D03*
X50974D03*
X37974Y03774D03*
X35024D03*
X32974Y03749D03*
X30024D03*
X57524D03*
X60474D03*
X57524Y12474D03*
X60474D03*
X42974Y03249D03*
X40024D03*
X55724Y03749D03*
X52774D03*
Y12499D03*
X55724D03*
G54D17*
X27749Y11824D03*
Y08874D03*
Y04024D03*
Y06974D03*
G54D18*
X65799Y07999D03*
X67499D03*
G54D19*
X62499Y14099D03*
Y12399D03*
Y01924D03*
Y03624D03*
Y05399D03*
Y07099D03*
Y10599D03*
Y08899D03*
G54D20*
X69429Y08319D03*
Y07679D03*
X70069D03*
Y08319D03*
G54D22*
X04724Y12749D03*
X01774D03*
X18974D03*
X16024D03*
Y03249D03*
X18974D03*
G54D23*
X52999Y09474D03*
Y06524D03*
G54D24*
X65999Y12059D03*
X71399D03*
X06799Y10999D03*
X12199D03*
Y04749D03*
X06799D03*
X65999Y04024D03*
X71399D03*
G54D25*
X25474Y12749D03*
X22524D03*
Y03249D03*
X25474D03*
G54D31*
X23999Y09649D03*
X21999D03*
X17999D03*
X15999D03*
Y0635D03*
X17999D03*
X21999D03*
X23999D03*
G54D32*
X00999Y05699D03*
Y07999D03*
Y10299D03*
G54D33*
X78999Y03939D03*
Y12059D03*
G54D34*
X73499Y07999D03*
X38249Y06749D03*
Y09249D03*
X45749Y12499D03*
Y09999D03*
Y05899D03*
Y03399D03*
X59499Y09249D03*
Y06749D03*
G54D35*
X55949Y07449D03*
Y08549D03*
X57049Y07449D03*
Y08549D03*
G54D36*
X68749Y07099D03*
X69249Y08999D03*
X67249Y05999D03*
X35024Y03774D03*
X04749Y12749D03*
X60499Y03749D03*
X34249Y08549D03*
X41249Y07999D03*
X27749D03*
X59249Y11249D03*
X54749Y10224D03*
Y05249D03*
X52774Y12474D03*
X54499Y03749D03*
X06799Y07874D03*
X19499Y07999D03*
X31884Y07364D03*
Y06094D03*
G54D37*
X51999Y07999D03*
G54D44*
X09499Y04949D03*
X76999Y07999D03*
M02*