%FSTAX23Y23*%
%MOMM*%
%SFA1B1*%

%IPPOS*%
%ADD43C,0.100000*%
%LNmicamp_mechanical_13-1*%
%LPD*%
G54D43*
X32599Y09599D02*
D01*
X32598Y09634*
X32595Y09669*
X32589Y09703*
X3258Y09737*
X32569Y0977*
X32556Y09803*
X32541Y09834*
X32524Y09864*
X32504Y09893*
X32483Y09921*
X32459Y09947*
X32434Y09971*
X32407Y09993*
X32379Y10014*
X32349Y10033*
X32319Y10049*
X32287Y10063*
X32254Y10075*
X3222Y10085*
X32186Y10092*
X32152Y10097*
X32117Y10099*
X32082*
X32047Y10097*
X32013Y10092*
X31979Y10085*
X31945Y10075*
X31912Y10063*
X3188Y10049*
X31849Y10033*
X3182Y10014*
X31792Y09993*
X31765Y09971*
X3174Y09947*
X31716Y09921*
X31695Y09893*
X31675Y09864*
X31658Y09834*
X31643Y09803*
X3163Y0977*
X31619Y09737*
X3161Y09703*
X31604Y09669*
X31601Y09634*
X31599Y09599*
X31601Y09565*
X31604Y0953*
X3161Y09496*
X31619Y09462*
X3163Y09428*
X31643Y09396*
X31658Y09365*
X31675Y09335*
X31695Y09306*
X31716Y09278*
X3174Y09252*
X31765Y09228*
X31792Y09205*
X3182Y09185*
X31849Y09166*
X3188Y0915*
X31912Y09136*
X31945Y09124*
X31979Y09114*
X32013Y09107*
X32047Y09102*
X32082Y091*
X32117*
X32152Y09102*
X32186Y09107*
X3222Y09114*
X32254Y09124*
X32287Y09136*
X32319Y0915*
X32349Y09166*
X32379Y09185*
X32407Y09205*
X32434Y09228*
X32459Y09252*
X32483Y09278*
X32504Y09306*
X32524Y09335*
X32541Y09365*
X32556Y09396*
X32569Y09428*
X3258Y09462*
X32589Y09496*
X32595Y0953*
X32598Y09565*
X32599Y09599*
X40899Y06899D02*
D01*
X40898Y06934*
X40895Y06969*
X40889Y07003*
X4088Y07037*
X40869Y07071*
X40856Y07103*
X40841Y07134*
X40824Y07164*
X40804Y07193*
X40783Y07221*
X40759Y07247*
X40734Y07271*
X40707Y07293*
X40679Y07314*
X40649Y07333*
X40619Y07349*
X40587Y07363*
X40554Y07375*
X4052Y07385*
X40486Y07392*
X40452Y07397*
X40417Y07399*
X40382*
X40347Y07397*
X40313Y07392*
X40279Y07385*
X40245Y07375*
X40212Y07363*
X4018Y07349*
X40149Y07333*
X4012Y07314*
X40092Y07293*
X40065Y07271*
X4004Y07247*
X40016Y07221*
X39995Y07193*
X39975Y07164*
X39958Y07134*
X39943Y07103*
X3993Y07071*
X39919Y07037*
X3991Y07003*
X39904Y06969*
X39901Y06934*
X39899Y06899*
X39901Y06865*
X39904Y0683*
X3991Y06796*
X39919Y06762*
X3993Y06728*
X39943Y06696*
X39958Y06665*
X39975Y06635*
X39995Y06606*
X40016Y06578*
X4004Y06552*
X40065Y06528*
X40092Y06505*
X4012Y06485*
X40149Y06466*
X4018Y0645*
X40212Y06436*
X40245Y06424*
X40279Y06414*
X40313Y06407*
X40347Y06402*
X40382Y064*
X40417*
X40452Y06402*
X40486Y06407*
X4052Y06414*
X40554Y06424*
X40587Y06436*
X40619Y0645*
X40649Y06466*
X40679Y06485*
X40707Y06505*
X40734Y06528*
X40759Y06552*
X40783Y06578*
X40804Y06606*
X40824Y06635*
X40841Y06665*
X40856Y06696*
X40869Y06728*
X4088Y06762*
X40889Y06796*
X40895Y0683*
X40898Y06865*
X40899Y06899*
X56349Y07349D02*
D01*
X56348Y07384*
X56345Y07419*
X56339Y07453*
X5633Y07487*
X56319Y0752*
X56306Y07553*
X56291Y07584*
X56274Y07614*
X56254Y07643*
X56233Y07671*
X56209Y07697*
X56184Y07721*
X56157Y07744*
X56129Y07764*
X56099Y07782*
X56069Y07799*
X56037Y07813*
X56004Y07825*
X5597Y07835*
X55936Y07842*
X55902Y07847*
X55867Y07849*
X55832*
X55797Y07847*
X55763Y07842*
X55729Y07835*
X55695Y07825*
X55662Y07813*
X5563Y07799*
X55599Y07782*
X5557Y07764*
X55542Y07744*
X55515Y07721*
X5549Y07697*
X55466Y07671*
X55445Y07643*
X55425Y07614*
X55408Y07584*
X55393Y07553*
X5538Y0752*
X55369Y07487*
X5536Y07453*
X55354Y07419*
X55351Y07384*
X55349Y07349*
X55351Y07315*
X55354Y0728*
X5536Y07246*
X55369Y07212*
X5538Y07178*
X55393Y07146*
X55408Y07115*
X55425Y07085*
X55445Y07056*
X55466Y07028*
X5549Y07002*
X55515Y06978*
X55542Y06955*
X5557Y06935*
X55599Y06916*
X5563Y069*
X55662Y06886*
X55695Y06874*
X55729Y06864*
X55763Y06857*
X55797Y06852*
X55832Y0685*
X55867*
X55902Y06852*
X55936Y06857*
X5597Y06864*
X56004Y06874*
X56037Y06886*
X56069Y069*
X56099Y06916*
X56129Y06935*
X56157Y06955*
X56184Y06978*
X56209Y07002*
X56233Y07028*
X56254Y07056*
X56274Y07085*
X56291Y07115*
X56306Y07146*
X56319Y07178*
X5633Y07212*
X56339Y07246*
X56345Y0728*
X56348Y07315*
X56349Y07349*
X31199Y05499D02*
X35199D01*
X31199Y10499D02*
X35199D01*
Y05499D02*
Y10499D01*
X31199Y05499D02*
Y10499D01*
X44499Y05999D02*
Y09999D01*
X39499Y05999D02*
Y09999D01*
X44499*
X39499Y05999D02*
X44499D01*
X54949Y06449D02*
X58049D01*
X54949Y09549D02*
X58049D01*
X54949Y06449D02*
Y09549D01*
X58049Y06449D02*
Y09549D01*
X47599Y08249D02*
Y09749D01*
X51399Y08249D02*
Y09749D01*
X47599D02*
X51399D01*
X47599Y08249D02*
X51399D01*
Y06224D02*
Y07724D01*
X47599Y06224D02*
Y07724D01*
Y06224D02*
X51399D01*
X47599Y07724D02*
X51399D01*
X26999Y12249D02*
X28499D01*
X26999Y08449D02*
X28499D01*
Y12249*
X26999Y08449D02*
Y12249D01*
X43399Y11999D02*
Y13499D01*
X39599Y11999D02*
Y13499D01*
Y11999D02*
X43399D01*
X39599Y13499D02*
X43399D01*
X33399Y11499D02*
Y12999D01*
X29599Y11499D02*
Y12999D01*
Y11499D02*
X33399D01*
X29599Y12999D02*
X33399D01*
X26999Y03599D02*
X28499D01*
X26999Y07399D02*
X28499D01*
X26999Y03599D02*
Y07399D01*
X28499Y03599D02*
Y07399D01*
X05149Y02249D02*
Y03749D01*
X01349Y02249D02*
Y03749D01*
Y02249D02*
X05149D01*
X01349Y03749D02*
X05149D01*
X38399Y11499D02*
Y12999D01*
X34599Y11499D02*
Y12999D01*
Y11499D02*
X38399D01*
X34599Y12999D02*
X38399D01*
X47599Y11749D02*
Y13249D01*
X51399Y11749D02*
Y13249D01*
X47599D02*
X51399D01*
X47599Y11749D02*
X51399D01*
X47599Y02949D02*
Y04449D01*
X51399Y02949D02*
Y04449D01*
X47599D02*
X51399D01*
X47599Y02949D02*
X51399D01*
X38399Y03024D02*
Y04524D01*
X34599Y03024D02*
Y04524D01*
Y03024D02*
X38399D01*
X34599Y04524D02*
X38399D01*
X33399Y02999D02*
Y04499D01*
X29599Y02999D02*
Y04499D01*
Y02999D02*
X33399D01*
X29599Y04499D02*
X33399D01*
X57099Y02999D02*
Y04499D01*
X60899Y02999D02*
Y04499D01*
X57099D02*
X60899D01*
X57099Y02999D02*
X60899D01*
X57099Y11724D02*
Y13224D01*
X60899Y11724D02*
Y13224D01*
X57099D02*
X60899D01*
X57099Y11724D02*
X60899D01*
X43399Y02499D02*
Y03999D01*
X39599Y02499D02*
Y03999D01*
Y02499D02*
X43399D01*
X39599Y03999D02*
X43399D01*
X56149Y02999D02*
Y04499D01*
X52349Y02999D02*
Y04499D01*
Y02999D02*
X56149D01*
X52349Y04499D02*
X56149D01*
X52349Y11749D02*
Y13249D01*
X56149Y11749D02*
Y13249D01*
X52349D02*
X56149D01*
X52349Y11749D02*
X56149D01*
X65599Y07349D02*
Y08649D01*
X67699Y07349D02*
Y08649D01*
X65599D02*
X67699D01*
X65599Y07349D02*
X67699D01*
X61849Y14299D02*
X63149D01*
X61849Y12199D02*
X63149D01*
Y14299*
X61849Y12199D02*
Y14299D01*
X70099Y07549D02*
Y08449D01*
X69399Y07549D02*
Y08449D01*
Y07549D02*
X70099D01*
X69399Y08449D02*
X70099D01*
X61849Y01724D02*
X63149D01*
X61849Y03824D02*
X63149D01*
X61849Y01724D02*
Y03824D01*
X63149Y01724D02*
Y03824D01*
X01649Y11949D02*
X04849D01*
X01649Y13549D02*
X04849D01*
Y11949D02*
Y13549D01*
X01649Y11949D02*
Y13549D01*
X53799Y06399D02*
Y09599D01*
X52199Y06399D02*
Y09599D01*
X53799*
X52199Y06399D02*
X53799D01*
X61849Y05199D02*
X63149D01*
X61849Y07299D02*
X63149D01*
X61849Y05199D02*
Y07299D01*
X63149Y05199D02*
Y07299D01*
X61849Y10799D02*
X63149D01*
X61849Y08699D02*
X63149D01*
Y10799*
X61849Y08699D02*
Y10799D01*
X65699Y09359D02*
Y14759D01*
X71699Y09359D02*
Y14759D01*
X65699D02*
X71699D01*
X65699Y09359D02*
X71699D01*
X06499Y08299D02*
Y13699D01*
X12499Y08299D02*
Y13699D01*
X06499D02*
X12499D01*
X06499Y08299D02*
X12499D01*
Y02049D02*
Y07449D01*
X06499Y02049D02*
Y07449D01*
Y02049D02*
X12499D01*
X06499Y07449D02*
X12499D01*
X15899Y11949D02*
X19099D01*
X15899Y13549D02*
X19099D01*
Y11949D02*
Y13549D01*
X15899Y11949D02*
Y13549D01*
Y04049D02*
X19099D01*
X15899Y02449D02*
X19099D01*
X15899D02*
Y04049D01*
X19099Y02449D02*
Y04049D01*
X22399Y11499D02*
X25599D01*
X22399Y13999D02*
X25599D01*
Y11499D02*
Y13999D01*
X22399Y11499D02*
Y13999D01*
Y04499D02*
X25599D01*
X22399Y01999D02*
X25599D01*
X22399D02*
Y04499D01*
X25599Y01999D02*
Y04499D01*
X65699Y01324D02*
Y06724D01*
X71699Y01324D02*
Y06724D01*
X65699D02*
X71699D01*
X65699Y01324D02*
X71699D01*
M02*