%FSTAX23Y23*%
%MOMM*%
%SFA1B1*%

%IPPOS*%
%ADD43C,0.100000*%
%ADD45C,0.050000*%
%LNmicamp_mechanical_15-1*%
%LPD*%
G54D43*
X33199Y07499D02*
Y08499D01*
X32699Y07999D02*
X33699D01*
X41499D02*
X42499D01*
X41999Y07499D02*
Y08499D01*
X56499Y07499D02*
Y08499D01*
X55999Y07999D02*
X56999D01*
X48999Y08999D02*
X49999D01*
X49499Y08499D02*
Y09499D01*
X48999Y06974D02*
X49999D01*
X49499Y06474D02*
Y07474D01*
X27749Y09849D02*
Y10849D01*
X27249Y10349D02*
X28249D01*
X40999Y12749D02*
X41999D01*
X41499Y12249D02*
Y13249D01*
X30999Y12249D02*
X31999D01*
X31499Y11749D02*
Y12749D01*
X27749Y04999D02*
Y05999D01*
X27249Y05499D02*
X28249D01*
X02749Y02999D02*
X03749D01*
X03249Y02499D02*
Y03499D01*
X35999Y12249D02*
X36999D01*
X36499Y11749D02*
Y12749D01*
X48999Y12499D02*
X49999D01*
X49499Y11999D02*
Y12999D01*
X48999Y03699D02*
X49999D01*
X49499Y03199D02*
Y04199D01*
X35999Y03774D02*
X36999D01*
X36499Y03274D02*
Y04274D01*
X30999Y03749D02*
X31999D01*
X31499Y03249D02*
Y04249D01*
X58499Y03749D02*
X59499D01*
X58999Y03249D02*
Y04249D01*
X58499Y12474D02*
X59499D01*
X58999Y11974D02*
Y12974D01*
X40999Y03249D02*
X41999D01*
X41499Y02749D02*
Y03749D01*
X53749D02*
X54749D01*
X54249Y03249D02*
Y04249D01*
X53749Y12499D02*
X54749D01*
X54249Y11999D02*
Y12999D01*
X66149Y07999D02*
X67149D01*
X66649Y07499D02*
Y08499D01*
X62499Y12749D02*
Y13749D01*
X61999Y13249D02*
X62999D01*
X69399Y07999D02*
X70099D01*
X69749Y07649D02*
Y08349D01*
X62499Y02274D02*
Y03274D01*
X61999Y02774D02*
X62999D01*
X03249Y12249D02*
Y13249D01*
X02749Y12749D02*
X03749D01*
X52499Y07999D02*
X53499D01*
X52999Y07499D02*
Y08499D01*
X62499Y05749D02*
Y06749D01*
X61999Y06249D02*
X62999D01*
X62499Y09249D02*
Y10249D01*
X61999Y09749D02*
X62999D01*
X68199Y12059D02*
X69199D01*
X68699Y11559D02*
Y12559D01*
X08999Y10999D02*
X09999D01*
X09499Y10499D02*
Y11499D01*
X08999Y04749D02*
X09999D01*
X09499Y04249D02*
Y05249D01*
X17499Y12249D02*
Y13249D01*
X16999Y12749D02*
X17999D01*
X17499Y02749D02*
Y03749D01*
X16999Y03249D02*
X17999D01*
X23999Y12249D02*
Y13249D01*
X23499Y12749D02*
X24499D01*
X23999Y02749D02*
Y03749D01*
X23499Y03249D02*
X24499D01*
X68199Y04024D02*
X69199D01*
X68699Y03524D02*
Y04524D01*
G54D45*
X29499Y05249D02*
X36899D01*
X29499Y10749D02*
X36899D01*
Y05249D02*
Y10749D01*
X29499Y05249D02*
Y10749D01*
X44749Y04299D02*
Y11699D01*
X39249Y04299D02*
Y11699D01*
X44749*
X39249Y04299D02*
X44749D01*
X54699Y04849D02*
X58299D01*
X54699Y11149D02*
X58299D01*
X54699Y04849D02*
Y11149D01*
X58299Y04849D02*
Y11149D01*
X47299Y08124D02*
Y09874D01*
X51699Y08124D02*
Y09874D01*
X47299D02*
X51699D01*
X47299Y08124D02*
X51699D01*
Y06099D02*
Y07849D01*
X47299Y06099D02*
Y07849D01*
Y06099D02*
X51699D01*
X47299Y07849D02*
X51699D01*
X26874Y12549D02*
X28624D01*
X26874Y08149D02*
X28624D01*
Y12549*
X26874Y08149D02*
Y12549D01*
X43699Y11874D02*
Y13624D01*
X39299Y11874D02*
Y13624D01*
Y11874D02*
X43699D01*
X39299Y13624D02*
X43699D01*
X33699Y11374D02*
Y13124D01*
X29299Y11374D02*
Y13124D01*
Y11374D02*
X33699D01*
X29299Y13124D02*
X33699D01*
X26874Y03299D02*
X28624D01*
X26874Y07699D02*
X28624D01*
X26874Y03299D02*
Y07699D01*
X28624Y03299D02*
Y07699D01*
X05449Y02124D02*
Y03874D01*
X01049Y02124D02*
Y03874D01*
Y02124D02*
X05449D01*
X01049Y03874D02*
X05449D01*
X38699Y11374D02*
Y13124D01*
X34299Y11374D02*
Y13124D01*
Y11374D02*
X38699D01*
X34299Y13124D02*
X38699D01*
X47299Y11624D02*
Y13374D01*
X51699Y11624D02*
Y13374D01*
X47299D02*
X51699D01*
X47299Y11624D02*
X51699D01*
X47299Y02824D02*
Y04574D01*
X51699Y02824D02*
Y04574D01*
X47299D02*
X51699D01*
X47299Y02824D02*
X51699D01*
X38699Y02899D02*
Y04649D01*
X34299Y02899D02*
Y04649D01*
Y02899D02*
X38699D01*
X34299Y04649D02*
X38699D01*
X33699Y02874D02*
Y04624D01*
X29299Y02874D02*
Y04624D01*
Y02874D02*
X33699D01*
X29299Y04624D02*
X33699D01*
X56799Y02874D02*
Y04624D01*
X61199Y02874D02*
Y04624D01*
X56799D02*
X61199D01*
X56799Y02874D02*
X61199D01*
X56799Y11599D02*
Y13349D01*
X61199Y11599D02*
Y13349D01*
X56799D02*
X61199D01*
X56799Y11599D02*
X61199D01*
X43699Y02374D02*
Y04124D01*
X39299Y02374D02*
Y04124D01*
Y02374D02*
X43699D01*
X39299Y04124D02*
X43699D01*
X56449Y02874D02*
Y04624D01*
X52049Y02874D02*
Y04624D01*
Y02874D02*
X56449D01*
X52049Y04624D02*
X56449D01*
X52049Y11624D02*
Y13374D01*
X56449Y11624D02*
Y13374D01*
X52049D02*
X56449D01*
X52049Y11624D02*
X56449D01*
X64949Y07049D02*
Y08949D01*
X68349Y07049D02*
Y08949D01*
X64949D02*
X68349D01*
X64949Y07049D02*
X68349D01*
X61549Y14949D02*
X63449D01*
X61549Y11549D02*
X63449D01*
Y14949*
X61549Y11549D02*
Y14949D01*
X70599Y07249D02*
Y08749D01*
X68899Y07249D02*
Y08749D01*
Y07249D02*
X70599D01*
X68899Y08749D02*
X70599D01*
X61549Y01074D02*
X63449D01*
X61549Y04474D02*
X63449D01*
X61549Y01074D02*
Y04474D01*
X63449Y01074D02*
Y04474D01*
X00949Y11599D02*
X05549D01*
X00949Y13899D02*
X05549D01*
Y11599D02*
Y13899D01*
X00949Y11599D02*
Y13899D01*
X54149Y05699D02*
Y10299D01*
X51849Y05699D02*
Y10299D01*
X54149*
X51849Y05699D02*
X54149D01*
X61549Y04549D02*
X63449D01*
X61549Y07949D02*
X63449D01*
X61549Y04549D02*
Y07949D01*
X63449Y04549D02*
Y07949D01*
X61549Y11449D02*
X63449D01*
X61549Y08049D02*
X63449D01*
Y11449*
X61549Y08049D02*
Y11449D01*
X65099Y09109D02*
Y15009D01*
X72299Y09109D02*
Y15009D01*
X65099D02*
X72299D01*
X65099Y09109D02*
X72299D01*
X05899Y08049D02*
Y13949D01*
X13099Y08049D02*
Y13949D01*
X05899D02*
X13099D01*
X05899Y08049D02*
X13099D01*
Y01799D02*
Y07699D01*
X05899Y01799D02*
Y07699D01*
Y01799D02*
X13099D01*
X05899Y07699D02*
X13099D01*
X15199Y11599D02*
X19799D01*
X15199Y13899D02*
X19799D01*
Y11599D02*
Y13899D01*
X15199Y11599D02*
Y13899D01*
Y04399D02*
X19799D01*
X15199Y02099D02*
X19799D01*
X15199D02*
Y04399D01*
X19799Y02099D02*
Y04399D01*
X21699Y11149D02*
X26299D01*
X21699Y14349D02*
X26299D01*
Y11149D02*
Y14349D01*
X21699Y11149D02*
Y14349D01*
Y04849D02*
X26299D01*
X21699Y01649D02*
X26299D01*
X21699D02*
Y04849D01*
X26299Y01649D02*
Y04849D01*
X65099Y01074D02*
Y06974D01*
X72299Y01074D02*
Y06974D01*
X65099D02*
X72299D01*
X65099Y01074D02*
X72299D01*
M02*